<?xml version="1.0" encoding="UTF-8" standalone="no"?>
<svg width="547" xmlns="http://www.w3.org/2000/svg" fill="none" viewBox="0 0 547 345" height="345">
 <path d="m0 329.23c0 3.94 25.024 7.53 66.397 10.31 7.525 0.5 15.587 0.98 24.138 1.42 7.388 0.38 15.135 0.74 23.225 1.08 7.85 0.32 16 0.62 24.45 0.9 26.67 0.87 56.17 1.5 87.5 1.82 7.61 0.08 15.31 0.14 23.12 0.18 8.13 0.04 16.35 0.06 24.67 0.06 151.06 0 273.5-7.05 273.5-15.75s-122.44-15.75-273.5-15.75c-65.03 0-124.75 1.31-171.69 3.49l-5.131 0.24h-0.03c-59.128 2.88-96.649 7.22-96.649 12z" fill="#3F3D56"/>
 <path opacity=".15" d="m0 329.23c0 3.94 25.024 7.53 66.397 10.31 7.525 0.5 15.587 0.98 24.138 1.42 7.388 0.38 15.135 0.74 23.225 1.08 7.85 0.32 16 0.62 24.45 0.9 26.67 0.87 56.17 1.5 87.5 1.82 7.61 0.08 15.31 0.14 23.12 0.18 8.13 0.04 16.35 0.06 24.67 0.06 151.06 0 273.5-7.05 273.5-15.75s-122.44-15.75-273.5-15.75c-65.03 0-124.75 1.31-171.69 3.49l-5.131 0.24h-0.03c-59.128 2.88-96.649 7.22-96.649 12z" fill="#000"/>
 <path d="m25 326.81c0 3.31 23.88 6.35 63.363 8.66 7.175 0.43 14.877 0.82 23.027 1.2 7.06 0.32 14.45 0.63 22.17 0.91 7.49 0.27 15.26 0.52 23.32 0.76 25.47 0.74 53.62 1.27 83.52 1.54 7.24 0.06 14.6 0.11 22.06 0.15 7.76 0.03 15.6 0.05 23.54 0.05 144.15 0 261-5.95 261-13.29s-116.85-13.29-261-13.29c-62.06 0-119.05 1.11-163.84 2.94l-4.9 0.21h-0.03c-56.447 2.46-92.23 6.1-92.23 10.16z" fill="#3F3D56"/>
 <path d="m232.29 164.11c19.33 0 34.57 8.31 45.71 24.92s16.71 36.73 16.71 60.37c0 23.79-5.39 43.87-16.16 60.24s-25.97 24.55-45.59 24.53c-20.81 0-36.48-8.62-47.03-25.87s-15.82-37.21-15.83-59.89c0-22.52 5.46-42.2 16.38-59.05 10.92-16.84 26.19-25.26 45.81-25.25zm-0.57 18.69c-12.72 0-22.22 6-28.52 18-6.29 11.99-9.44 27.12-9.44 45.38 0 20.32 3.23 36.95 9.67 49.91 6.44 12.95 16.31 19.43 29.63 19.44 25.31 0 37.96-21.76 37.96-65.28 0-44.97-13.09-67.46-39.29-67.45h-0.01zm-6.37-178.95h27.97l-183.07 326.99h-27.432l182.53-326.99zm-161.95-3.3546c19.623 0 34.922 8.3813 45.896 25.144 10.97 16.763 16.48 36.888 16.53 60.376 0 23.633-5.35 43.633-16.05 60.003-10.697 16.37-25.931 24.55-45.702 24.54-20.659 0-36.226-8.63-46.701-25.88s-15.714-37.21-15.718-59.884c0.0001-22.368 5.4226-42.012 16.268-58.934s26.007-25.377 45.488-25.365h-0.011zm-0.329 19.165c-12.658 0-22.113 5.897-28.365 17.692s-9.378 26.861-9.378 45.198c0 19.628 3.164 36.078 9.491 49.368 6.327 13.3 16.185 19.95 29.572 19.97 25.456 0 38.185-21.75 38.185-65.272 0.01-44.642-13.157-66.96-39.494-66.956h-0.011z" fill="#3F3D56"/>
 <path d="m232.29 164.11c19.33 0 34.57 8.31 45.71 24.92s16.71 36.73 16.71 60.37c0 23.79-5.39 43.87-16.16 60.24s-25.97 24.55-45.59 24.53c-20.81 0-36.48-8.62-47.03-25.87s-15.82-37.21-15.83-59.89c0-22.52 5.46-42.2 16.38-59.05 10.92-16.84 26.19-25.26 45.81-25.25zm-0.57 18.69c-12.72 0-22.22 6-28.52 18-6.29 11.99-9.44 27.12-9.44 45.38 0 20.32 3.23 36.95 9.67 49.91 6.44 12.95 16.31 19.43 29.63 19.44 25.31 0 37.96-21.76 37.96-65.28 0-44.97-13.09-67.46-39.29-67.45h-0.01zm-6.37-178.95h27.97l-183.07 326.99h-27.432l182.53-326.99zm-161.95-3.3546c19.623 0 34.922 8.3813 45.896 25.144 10.97 16.763 16.48 36.888 16.53 60.376 0 23.633-5.35 43.633-16.05 60.003-10.697 16.37-25.931 24.55-45.702 24.54-20.659 0-36.226-8.63-46.701-25.88s-15.714-37.21-15.718-59.884c0.0001-22.368 5.4226-42.012 16.268-58.934s26.007-25.377 45.488-25.365h-0.011zm-0.329 19.165c-12.658 0-22.113 5.897-28.365 17.692s-9.378 26.861-9.378 45.198c0 19.628 3.164 36.078 9.491 49.368 6.327 13.3 16.185 19.95 29.572 19.97 25.456 0 38.185-21.75 38.185-65.272 0.01-44.642-13.157-66.96-39.494-66.956h-0.011z" fill="#3F3D56"/>
 <path d="m249.58 164.11c19.33 0 34.57 8.31 45.71 24.92s16.71 36.73 16.71 60.37c0 23.79-5.39 43.87-16.16 60.24s-25.97 24.55-45.59 24.53c-20.81 0-36.48-8.62-47.03-25.87s-15.82-37.21-15.82-59.89c0-22.52 5.45-42.2 16.37-59.05 10.92-16.84 26.19-25.26 45.81-25.25zm-0.56 18.69c-12.72 0-22.23 6-28.52 18-6.3 11.99-9.44 27.12-9.44 45.38 0 20.32 3.22 36.95 9.66 49.91 6.44 12.95 16.32 19.43 29.63 19.44 25.31 0 37.97-21.76 37.97-65.28 0-44.97-13.1-67.46-39.29-67.45h-0.01zm-6.37-178.95h27.96l-183.06 326.99h-27.44l182.54-326.99zm-161.96-3.3546c19.625 0 34.925 8.3813 45.895 25.144s16.48 36.888 16.53 60.376c0 23.633-5.35 43.633-16.05 60.003-10.69 16.37-25.93 24.55-45.7 24.54-20.659 0-36.226-8.63-46.701-25.88s-15.714-37.21-15.718-59.884c0-22.368 5.422-42.012 16.267-58.934s26.008-25.377 45.488-25.365h-0.011zm-0.329 19.165c-12.658 0-22.113 5.897-28.364 17.692-6.252 11.795-9.378 26.861-9.378 45.198 0 19.628 3.164 36.078 9.491 49.368 6.327 13.3 16.188 19.95 29.583 19.97 25.452 0 38.182-21.75 38.182-65.272 0-44.642-13.17-66.96-39.502-66.956h-0.012z" fill="#3F3D56"/>
 <path opacity=".15" d="m232.29 164.11c19.33 0 34.57 8.31 45.71 24.92s16.71 36.73 16.71 60.37c0 23.79-5.39 43.87-16.16 60.24s-25.97 24.55-45.59 24.53c-20.81 0-36.48-8.62-47.03-25.87s-15.82-37.21-15.83-59.89c0-22.52 5.46-42.2 16.38-59.05 10.92-16.84 26.19-25.26 45.81-25.25zm-0.57 18.69c-12.72 0-22.22 6-28.52 18-6.29 11.99-9.44 27.12-9.44 45.38 0 20.32 3.23 36.95 9.67 49.91 6.44 12.95 16.31 19.43 29.63 19.44 25.31 0 37.96-21.76 37.96-65.28 0-44.97-13.09-67.46-39.29-67.45h-0.01zm-6.37-178.95h27.97l-183.07 326.99h-27.432l182.53-326.99zm-161.95-3.3546c19.624 0 34.923 8.3813 45.897 25.144 10.97 16.763 16.48 36.888 16.53 60.376 0 23.633-5.35 43.633-16.05 60.003-10.697 16.37-25.931 24.55-45.702 24.54-20.659 0-36.226-8.63-46.701-25.88s-15.714-37.21-15.718-59.884c0.0001-22.368 5.4225-42.012 16.268-58.934 10.845-16.922 26.007-25.377 45.488-25.365h-0.012zm-0.328 19.165c-12.659 0-22.113 5.897-28.365 17.692s-9.378 26.861-9.378 45.198c0 19.628 3.164 36.078 9.491 49.368 6.327 13.3 16.185 19.95 29.572 19.97 25.456 0 38.185-21.75 38.185-65.272 0.01-44.642-13.158-66.96-39.494-66.956h-0.011z" fill="#000"/>
 <path stroke="#2F2E41" stroke-width="4" stroke-miterlimit="10" d="m162.99 333.24c-2.19-4.32 0.29-9.63 3.15-13.49 2.85-3.86 6.32-7.87 6.25-12.8-0.11-7.06-7.12-11.24-12.72-14.99-4.16-2.78-8-6.07-11.44-9.82-1.43-1.44-2.63-3.14-3.51-5.03-1.16-2.76-1.12-5.91-1.06-8.93 0.24-10.1 0.71-20.17 1.4-30.23"/>
 <path d="m134.4 237.39c0.08-1.84 0.59-3.64 1.49-5.21 0.9-1.58 2.15-2.89 3.65-3.82l2.31 4.89-0.07-5.92c1.11-0.34 2.25-0.49 3.4-0.43 2.04 0.1 4 0.84 5.64 2.14 1.64 1.29 2.89 3.08 3.58 5.13s0.8 4.28 0.31 6.39c-0.49 2.12-1.56 4.03-3.07 5.5s-3.39 2.42-5.4 2.75c-2.02 0.32-4.08 0-5.93-0.93-1.85-0.92-3.39-2.42-4.45-4.28-1.05-1.87-1.56-4.03-1.46-6.21z" fill="#15234A"/>
 <path d="m152.79 312.02c1.08 2.25 2.85 4.03 5.01 5.05 2.17 1.02 4.6 1.21 6.88 0.54s4.27-2.16 5.65-4.21c1.38-2.06 2.05-4.56 1.91-7.08s-1.09-4.92-2.69-6.78c-1.59-1.86-3.74-3.08-6.08-3.46-2.34-0.37-4.73 0.13-6.76 1.42-2.04 1.28-3.6 3.28-4.42 5.65l6.44 5.6-7.1-1.77c0 1.76 0.4 3.49 1.16 5.04z" fill="#15234A"/>
 <path d="m157.88 290.6c1.35 0.07 2.7-0.15 3.98-0.64 1.27-0.49 2.44-1.24 3.44-2.22 1.01-0.97 1.82-2.15 2.4-3.46 0.57-1.31 0.9-2.73 0.96-4.17 0.08-1.73-0.22-3.45-0.89-5.03-0.61-1.47-1.52-2.78-2.66-3.84-1.15-1.05-2.49-1.83-3.94-2.27l0.06 4.53-2.34-4.94c-2.73-0.14-5.4 0.89-7.43 2.86-2.02 1.97-3.23 4.72-3.35 7.64-0.13 2.92 0.83 5.78 2.67 7.94s4.41 3.45 7.15 3.59l-0.05 0.01z" fill="#15234A"/>
 <path d="m132.84 272.8c1.37 0.1 2.74-0.1 4.04-0.58 1.3-0.47 2.5-1.22 3.52-2.2s1.85-2.16 2.44-3.48c0.59-1.33 0.93-2.77 0.99-4.23 0.07-1.47-0.14-2.93-0.61-4.31-0.48-1.37-1.2-2.64-2.13-3.71-0.94-1.08-2.06-1.94-3.31-2.55-1.25-0.6-2.6-0.93-3.97-0.97-1.93-0.1-3.84 0.38-5.53 1.4l1.83 5.33-3.75-3.84c-2.02 1.96-3.22 4.7-3.35 7.6-0.05 1.03 0.05 2.05 0.27 3.04 0.51 2.34 1.72 4.43 3.45 5.96 1.72 1.54 3.87 2.43 6.11 2.54z" fill="#15234A"/>
 <path opacity=".1" d="m135.78 240.33c2.38 0.28 4.7 1.07 7.08 1.23 2.4 0.16 5.02-0.45 6.53-2.44 0.81-1.06 1.22-2.42 1.91-3.58 0.65-1.09 1.54-1.99 2.59-2.62 0.67 1.4 1.04 2.93 1.11 4.5 0.06 1.56-0.19 3.12-0.73 4.58-0.55 1.45-1.37 2.77-2.43 3.85-1.06 1.09-2.32 1.92-3.7 2.44-1.38 0.53-2.85 0.73-4.31 0.6s-2.88-0.59-4.16-1.35c-1.28-0.77-2.39-1.81-3.26-3.07s-1.49-2.7-1.8-4.23c0.39 0.02 0.78 0.05 1.17 0.09z" fill="#000"/>
 <path opacity=".1" d="m132.84 272.8c1.78 0.09 3.55-0.32 5.14-1.18 1.58-0.86 2.94-2.14 3.92-3.72 0.99-1.58 1.58-3.41 1.71-5.31s-0.2-3.8-0.96-5.52c-0.81 0.59-1.52 1.35-2.07 2.22-0.74 1.19-1.18 2.56-2.04 3.65-1.6 2.02-4.36 2.68-6.84 2.56-2.49-0.12-4.89-0.88-7.37-1.14-0.35-0.03-0.7-0.05-1.06-0.06 0.51 2.34 1.72 4.43 3.45 5.96 1.73 1.54 3.88 2.43 6.12 2.54z" fill="#000"/>
 <path opacity=".1" d="m157.88 290.6c1.35 0.07 2.7-0.15 3.98-0.64 1.27-0.49 2.44-1.24 3.44-2.22 1.01-0.97 1.82-2.15 2.4-3.46 0.57-1.31 0.9-2.73 0.96-4.17 0.08-1.73-0.22-3.45-0.89-5.03-0.85 0.61-1.59 1.38-2.17 2.27-0.8 1.21-1.31 2.6-2.25 3.71-1.73 2.07-4.66 2.8-7.29 2.74-2.64-0.07-5.02-0.73-7.56-0.94 0.63 2.16 1.87 4.07 3.55 5.45 1.67 1.39 3.71 2.19 5.83 2.29z" fill="#000"/>
 <path opacity=".1" d="m152.79 312.02c1.2 2.52 3.26 4.46 5.75 5.4 2.5 0.94 5.24 0.82 7.65-0.33 2.42-1.16 4.32-3.26 5.33-5.88 1-2.62 1.03-5.55 0.07-8.18-0.85 0.59-1.61 1.32-2.26 2.16-0.98 1.28-1.63 2.73-2.77 3.92-2.12 2.21-5.51 3.12-8.54 3.2-1.75 0.02-3.5-0.08-5.23-0.29z" fill="#000"/>
 <path stroke="#2F2E41" stroke-width="4" stroke-miterlimit="10" d="m45.117 326.64c-2.295-4.33 0.312-9.63 3.309-13.49 2.997-3.87 6.651-7.88 6.573-12.8-0.112-7.07-7.487-11.24-13.369-14.99-4.374-2.78-8.409-6.08-12.02-9.82-1.512-1.45-2.762-3.15-3.693-5.03-1.22-2.77-1.181-5.91-1.114-8.94 0.256-10.09 0.746-20.17 1.47-30.23"/>
 <path d="m15.066 230.79c0.084-1.85 0.623-3.64 1.568-5.22 0.946-1.58 2.266-2.89 3.841-3.81l2.428 4.88-0.072-5.91c1.158-0.35 2.365-0.49 3.57-0.44 2.142 0.1 4.205 0.85 5.93 2.14 1.725 1.3 3.034 3.09 3.76 5.14 0.727 2.05 0.84 4.27 0.324 6.39-0.517 2.11-1.638 4.03-3.223 5.5-1.585 1.46-3.563 2.42-5.683 2.74-2.12 0.33-4.287 0.01-6.227-0.92s-3.566-2.42-4.672-4.29c-1.107-1.86-1.644-4.02-1.544-6.2z" fill="#15234A"/>
 <path d="m34.394 305.42c1.138 2.25 3 4.03 5.276 5.04 2.275 1.02 4.826 1.21 7.222 0.54 2.397-0.66 4.495-2.15 5.943-4.21 1.447-2.05 2.156-4.55 2.007-7.07-0.149-2.53-1.146-4.92-2.825-6.78-1.678-1.87-3.936-3.09-6.394-3.46-2.459-0.37-4.968 0.12-7.108 1.41-2.139 1.29-3.779 3.28-4.644 5.65l6.773 5.6-7.464-1.76c0.003 1.75 0.42 3.48 1.214 5.04z" fill="#15234A"/>
 <path d="m39.747 284c1.422 0.07 2.843-0.15 4.183-0.64 1.339-0.49 2.57-1.25 3.623-2.22 1.052-0.98 1.906-2.15 2.511-3.46 0.606-1.31 0.952-2.73 1.018-4.18 0.085-1.72-0.236-3.45-0.935-5.02-0.648-1.48-1.605-2.78-2.804-3.84s-2.611-1.83-4.137-2.28l0.062 4.54-2.457-4.94h-0.028c-1.422-0.07-2.843 0.15-4.182 0.64s-2.571 1.24-3.623 2.22c-1.053 0.97-1.906 2.15-2.512 3.46s-0.951 2.73-1.018 4.18c-0.067 1.44 0.148 2.89 0.63 4.25 0.483 1.36 1.225 2.61 2.183 3.68 0.959 1.07 2.115 1.94 3.403 2.56 1.288 0.61 2.684 0.97 4.106 1.03l-0.023 0.02z" fill="#15234A"/>
 <path d="m13.434 266.2c1.439 0.09 2.882-0.1 4.246-0.58 1.363-0.48 2.62-1.23 3.696-2.2 1.075-0.98 1.948-2.16 2.568-3.49 0.62-1.32 0.974-2.76 1.042-4.23 0.067-1.46-0.154-2.92-0.649-4.3-0.496-1.38-1.256-2.64-2.238-3.72-0.981-1.07-2.163-1.94-3.477-2.54s-2.733-0.94-4.174-0.98c-2.026-0.1-4.039 0.39-5.8046 1.4l1.9166 5.34-3.9441-3.85c-2.1167 1.97-3.3809 4.7-3.5149 7.61-0.0493 1.02 0.0445 2.04 0.2785 3.04 0.5391 2.33 1.8123 4.43 3.6267 5.96s4.0708 2.42 6.4278 2.54z" fill="#15234A"/>
 <path opacity=".1" d="m16.525 233.73c2.501 0.28 4.93 1.07 7.442 1.23s5.269-0.46 6.857-2.44c0.858-1.07 1.281-2.42 2.005-3.59 0.684-1.09 1.622-1.98 2.73-2.61 0.695 1.4 1.091 2.93 1.159 4.49 0.067 1.57-0.193 3.13-0.765 4.58-0.572 1.46-1.442 2.77-2.553 3.86-1.11 1.08-2.435 1.91-3.886 2.44-1.452 0.52-2.996 0.73-4.531 0.59-1.535-0.13-3.025-0.59-4.37-1.35s-2.516-1.81-3.433-3.07c-0.917-1.25-1.56-2.7-1.886-4.23 0.412 0.03 0.819 0.05 1.231 0.1z" fill="#000"/>
 <path opacity=".1" d="m13.434 266.2c1.868 0.08 3.726-0.32 5.394-1.18s3.09-2.14 4.128-3.73c1.037-1.58 1.654-3.41 1.793-5.3 0.138-1.9-0.208-3.8-1.005-5.52-0.859 0.59-1.598 1.35-2.178 2.22-0.774 1.18-1.242 2.55-2.15 3.64-1.671 2.03-4.573 2.68-7.186 2.56-2.612-0.12-5.1409-0.87-7.7477-1.13-0.3621-0.03-0.7297-0.06-1.1141-0.07 0.5386 2.34 1.8131 4.44 3.6298 5.97 1.8167 1.54 4.076 2.43 6.436 2.54z" fill="#000"/>
 <path opacity=".1" d="m39.747 284c1.422 0.07 2.843-0.15 4.183-0.64 1.339-0.49 2.57-1.25 3.623-2.22 1.052-0.98 1.906-2.15 2.511-3.46 0.606-1.31 0.952-2.73 1.018-4.18 0.085-1.72-0.236-3.45-0.935-5.02-0.894 0.6-1.67 1.37-2.29 2.26-0.841 1.21-1.37 2.6-2.356 3.72-1.827 2.07-4.902 2.8-7.67 2.73-2.685-0.06-5.269-0.73-7.937-0.93 0.661 2.16 1.962 4.06 3.725 5.45s3.903 2.19 6.128 2.29z" fill="#000"/>
 <path opacity=".1" d="m34.394 305.42c1.262 2.52 3.428 4.45 6.05 5.39 2.622 0.95 5.501 0.83 8.039-0.33 2.539-1.15 4.544-3.26 5.6-5.87 1.056-2.62 1.083-5.55 0.074-8.19-0.892 0.6-1.693 1.33-2.378 2.16-1.031 1.28-1.71 2.73-2.902 3.92-2.228 2.21-5.793 3.12-8.979 3.21-1.839 0.01-3.676-0.08-5.504-0.29z" fill="#000"/>
 <path stroke="#2F2E41" stroke-width="4" stroke-miterlimit="10" d="m441.32 322.42c2.16-4.33-0.29-9.63-3.12-13.5-2.83-3.86-6.27-7.87-6.2-12.79 0.11-7.07 7.06-11.24 12.61-14.99 4.12-2.78 7.93-6.08 11.33-9.83 1.43-1.44 2.61-3.14 3.49-5.03 1.15-2.76 1.11-5.9 1.05-8.93-0.24-10.09-0.71-20.17-1.39-30.23"/>
 <path d="m469.66 226.57c-0.08-1.85-0.59-3.64-1.48-5.22s-2.14-2.89-3.62-3.81l-2.29 4.88 0.07-5.92c-1.1-0.34-2.23-0.49-3.37-0.43-2.02 0.1-3.97 0.85-5.59 2.14-1.63 1.3-2.86 3.08-3.55 5.13-0.68 2.06-0.79 4.28-0.3 6.4 0.48 2.11 1.54 4.02 3.04 5.49 1.49 1.47 3.36 2.43 5.35 2.75 2 0.33 4.05 0 5.88-0.92 1.83-0.93 3.36-2.42 4.4-4.29 1.05-1.87 1.55-4.03 1.46-6.2z" fill="#15234A"/>
 <path d="m451.43 301.2c-1.07 2.24-2.83 4.02-4.97 5.04-2.15 1.02-4.55 1.21-6.81 0.54s-4.24-2.15-5.61-4.21c-1.36-2.05-2.03-4.55-1.89-7.08 0.14-2.52 1.08-4.91 2.66-6.78 1.59-1.86 3.71-3.08 6.03-3.45 2.32-0.38 4.69 0.12 6.71 1.41 2.01 1.28 3.56 3.28 4.38 5.65l-6.39 5.6 7.04-1.77c-0.01 1.76-0.4 3.49-1.15 5.05z" fill="#15234A"/>
 <path d="m446.38 279.78c-1.34 0.06-2.68-0.15-3.94-0.64-1.26-0.5-2.42-1.25-3.42-2.22-0.99-0.98-1.79-2.16-2.37-3.46-0.57-1.32-0.89-2.73-0.96-4.18-0.07-1.73 0.23-3.45 0.89-5.02 0.61-1.48 1.51-2.79 2.64-3.84 1.13-1.06 2.46-1.84 3.9-2.28l-0.06 4.54 2.32-4.94c2.71-0.14 5.36 0.89 7.36 2.86 2.01 1.96 3.2 4.71 3.33 7.63s-0.83 5.78-2.65 7.94c-1.83 2.16-4.38 3.45-7.08 3.59l0.04 0.02z" fill="#15234A"/>
 <path d="m471.95 254.04c-1.36 0.1-2.72-0.1-4.01-0.58-1.28-0.48-2.47-1.22-3.48-2.2-1.02-0.98-1.84-2.16-2.43-3.49-0.58-1.32-0.91-2.76-0.98-4.22-0.06-1.47 0.15-2.93 0.61-4.31 0.47-1.38 1.19-2.64 2.11-3.71 0.93-1.08 2.04-1.94 3.28-2.55 1.24-0.6 2.58-0.93 3.94-0.97 1.9-0.1 3.79 0.39 5.45 1.4l-1.81 5.33 3.75-3.83c1.99 1.96 3.18 4.69 3.31 7.59 0.05 1.02-0.04 2.05-0.26 3.04-0.51 2.34-1.71 4.43-3.42 5.96-1.71 1.54-3.84 2.43-6.06 2.54z" fill="#15234A"/>
 <path opacity=".1" d="m467.75 229.51c-2.36 0.27-4.65 1.07-7.02 1.23-2.37 0.15-4.97-0.46-6.47-2.45-0.81-1.06-1.2-2.41-1.89-3.58-0.64-1.09-1.53-1.99-2.57-2.61-0.66 1.39-1.03 2.93-1.1 4.49-0.06 1.57 0.19 3.13 0.73 4.58 0.54 1.46 1.36 2.77 2.4 3.85 1.05 1.09 2.3 1.92 3.67 2.45 1.37 0.52 2.82 0.72 4.27 0.59s2.85-0.59 4.12-1.35c1.27-0.77 2.37-1.81 3.24-3.07 0.86-1.26 1.47-2.7 1.78-4.23-0.39 0.02-0.77 0.05-1.16 0.1z" fill="#000"/>
 <path opacity=".1" d="m471.3 263.47c-1.76 0.09-3.52-0.32-5.09-1.18s-2.91-2.14-3.89-3.72-1.56-3.41-1.69-5.31 0.19-3.8 0.94-5.52c0.81 0.6 1.51 1.35 2.06 2.22 0.73 1.19 1.17 2.56 2.03 3.65 1.57 2.02 4.31 2.68 6.77 2.56s4.85-0.88 7.31-1.13c0.34-0.04 0.69-0.06 1.05-0.07-0.51 2.33-1.71 4.43-3.43 5.97-1.71 1.53-3.84 2.42-6.06 2.53z" fill="#000"/>
 <path opacity=".1" d="m446.38 279.78c-1.34 0.06-2.68-0.15-3.94-0.64-1.26-0.5-2.42-1.25-3.42-2.22-0.99-0.98-1.8-2.16-2.37-3.46-0.57-1.32-0.89-2.73-0.96-4.18-0.07-1.73 0.23-3.45 0.89-5.02 0.84 0.6 1.57 1.37 2.16 2.26 0.79 1.21 1.29 2.6 2.22 3.72 1.72 2.06 4.62 2.8 7.23 2.73 2.53-0.06 4.97-0.73 7.49-0.94-0.63 2.17-1.85 4.07-3.52 5.46-1.66 1.38-3.68 2.18-5.78 2.29z" fill="#000"/>
 <path opacity=".1" d="m451.43 301.2c-1.19 2.52-3.23 4.45-5.7 5.39-2.48 0.94-5.19 0.83-7.58-0.33-2.4-1.16-4.29-3.26-5.29-5.88-0.99-2.61-1.02-5.54-0.06-8.18 0.84 0.6 1.59 1.32 2.24 2.16 0.97 1.28 1.61 2.73 2.74 3.92 2.1 2.21 5.46 3.12 8.46 3.2 1.74 0.02 3.47-0.08 5.19-0.28z" fill="#000"/>
 <path d="m290.1 266.19c-0.01-1.37 0.32-2.73 0.98-3.96s1.62-2.31 2.8-3.13c0.15-5.2 4.16-9.44 9.31-10.1 0.4-1.76 1.29-3.4 2.59-4.74 1.3-1.35 2.96-2.35 4.81-2.92 0.45-0.13 0.91-0.23 1.38-0.3h0.13l0.24-0.03h1.27c5.25 0 9.63 3.72 10.53 8.62 3.4-0.73 6.52 0.22 7.07 2.2 0.15 0.53 0.11 1.09-0.09 1.6-0.58 1.54-2.45 3.01-4.99 3.74l-0.33 0.09c-0.17 0.05-0.33 0.08-0.5 0.11h-0.11c0.94 1.85 1.07 3.95 0.37 5.88s-2.17 3.54-4.11 4.5c0.07 0.04 0.15 0.08 0.22 0.13 0.31 0.26 0.56 0.59 0.73 0.95 0.62 1 1.1 2.06 1.42 3.17 0.25 0.94 0.29 1.93 0.62 2.87 0.56 1.7 1.99 3.19 2.15 4.99 0.08 0.81-0.06 1.76 0.55 2.3 0.16 0.13 0.32 0.24 0.5 0.34 0.43 0.27 0.8 0.63 1.07 1.04 0.18 0.34 0.43 0.65 0.72 0.92 0.56 0.39 1.48 0.35 1.75 0.95 0.28 0.6-0.43 1.31-0.27 1.97 0.14 0.53 0.77 0.77 1.23 1.13 0.51 0.51 0.87 1.15 1.04 1.83 0.92 0.16 1.86 0.14 2.76-0.08 0.9-0.21 1.75-0.6 2.47-1.15-0.25 0.58-0.43 1.19-0.54 1.81 0.73-0.72 1.93-0.93 2.81-1.31 1.15-0.48 2.17-1.18 3.01-2.06l-1.61-0.2 7.11-9.97 2.09-0.4-1.88 3.34c0.16 0.07 0.29 0.17 0.4 0.29 0.1 0.12 0.18 0.27 0.22 0.42 0.1 0.37 0.12 0.76 0.07 1.13-0.1 0.9-0.26 1.79-0.49 2.66l-0.54 2.35c-0.05 0.22-0.11 0.43-0.18 0.65 0.71-0.03 1.42 0.05 2.11 0.22 1.41-0.48 2.87-0.8 4.37-0.96 0.33-0.05 0.66-0.04 0.98 0.05 0.37 0.15 0.68 0.39 0.92 0.69 1.23 1.31 2.32 2.72 3.25 4.22 3.82 6.14 8.91 11.5 13.69 17.06 3.29 1.24 6.61 2.41 9.94 3.58l7.15 2.52c1.43 0.51 2.91 1.02 4.43 0.93 0.68-0.04 1.52-0.13 1.9 0.4 0.19 0.27 0.34 0.56 0.44 0.87 0.25 0 0.5 0.05 0.73 0.06h0.05c0.45-1.04 0.84-2.16 1.71-2.92 0.18 0.03 0.34 0.1 0.48 0.19 0.15 0.1 0.26 0.23 0.33 0.38 0.17 0.3 0.28 0.62 0.47 0.89 0.39 0.52 1.06 0.78 1.53 1.22 0.48 0.44 0.78 1.13 1.3 1.56 0.72 0.49 1.56 0.79 2.45 0.88 1.32 0.29 2.6 0.74 3.8 1.34 0.44 0.25 0.92 0.45 1.41 0.6 0.54 0.09 1.1 0.11 1.65 0.05l3.79-0.26c0.33-0.04 0.67-0.02 1.01 0.04 0.39 0.14 0.72 0.38 0.94 0.71 0.22 0.32 0.32 0.71 0.28 1.09s-0.17 0.75-0.38 1.08-0.48 0.62-0.81 0.85c-0.66 0.44-1.39 0.79-2.16 1.03-3.29 1.18-6.68 2.1-10.14 2.75v0.71c-2.4 1.11-5.04 1.7-7.72 1.7-0.2 0.01-0.4-0.02-0.58-0.1-0.25-0.17-0.42-0.42-0.48-0.7-0.81-2.22-1.32-4.53-1.52-6.86-0.47-0.03-0.93-0.14-1.36-0.32-1.31-0.33-2.6 0.49-3.94 0.63-1.66 0.16-3.2-0.72-4.76-1.28-0.22-0.07-0.45-0.14-0.68-0.21 0.45 0.53 0.98 1 1.56 1.4 0.66 0.43 1.38 0.75 2.02 1.19 0.53 0.45 1.1 0.86 1.7 1.22 0.42 0.18 0.86 0.34 1.3 0.47 0.65 0.21 1.27 0.5 1.84 0.85 0.52 0.28 0.95 0.67 1.28 1.14 0.16 0.21 0.26 0.46 0.29 0.73 0.02 0.26-0.02 0.52-0.14 0.77-0.11 0.24-0.29 0.45-0.52 0.61-0.22 0.16-0.49 0.26-0.77 0.3-0.52 0.08-1.04 0.1-1.55 0.04-2.05-0.14-4.09-0.32-6.13-0.49-0.86-0.05-1.72-0.17-2.57-0.34-0.45-0.1-0.89-0.24-1.33-0.34-0.77-0.19-1.55-0.3-2.34-0.33-0.23-0.01-0.46 0.01-0.68 0.07-0.48 0.14-0.81 0.56-1.3 0.68-0.31 0.02-0.63-0.02-0.92-0.12-1.5-0.3-3.02-0.45-4.55-0.45-0.67-0.03-1.45-0.15-1.76-0.73-0.38-0.7 0.25-1.5 0.51-2.26 0.12-0.49 0.2-0.99 0.2-1.49 0.12-1.23 0.5-2.43 1.13-3.53 0.34-0.51 0.62-1.05 0.84-1.6-2.93-1.04-5.73-2.35-8.35-3.92-1.51-0.87-3.07-1.81-4.77-2.12-1.99-0.37-4.03 0.12-5.99 0.64-4.65 1.24-9.23 2.72-13.71 4.42-2.15 0.81-4.29 1.67-6.49 2.27-0.64 0.8-1.41 1.5-2.29 2.07-1.47 0.88-3.27 1.13-5 1.26-2.33 0.2-4.67 0.28-7.02 0.24-1.79-0.03-3.63-0.14-5.23-0.89-0.39-0.19-0.76-0.41-1.1-0.67-1.22 0.2-2.48-0.4-3.44-1.18-1.27-1-2.19-2.33-2.63-3.82-0.57-2.05-0.13-4.43-1.49-6.11-0.36-0.44-0.84-0.81-1.19-1.26-0.44-0.61-0.65-1.33-0.61-2.05l-0.06-0.09c-0.31-0.66-0.52-1.35-0.62-2.06-0.16-0.56-0.36-1.1-0.61-1.63-0.69-1.58-1.29-3.19-1.8-4.83-0.35-1.09-0.63-2.19-0.83-3.31-0.15-0.9-0.24-1.8-0.32-2.7-0.1-1.41-0.39-2.8-0.88-4.14-1.21-3.2-1.89-6.54-2.03-9.93v-0.19c-1.77-0.18-3.42-0.97-4.6-2.21-1.19-1.24-1.83-2.85-1.8-4.5 0-1 0.23-1.99 0.66-2.9-0.84-1.37-1.28-2.92-1.27-4.5zm34.64 38.92c-0.1 0.35-0.22 0.69-0.35 1.04 0.57-0.52 1.13-1.05 1.69-1.56-0.22 0.06-0.45 0.13-0.67 0.21-0.23 0.08-0.46 0.19-0.67 0.31zm2.75-1.7c3.34-2.68 7.21-4.77 10.64-7.36-1.84 0.85-3.68 1.85-5.51 2.8-2.14 1.13-4.31 2.21-6.5 3.25 0.36 0.5 0.82 0.94 1.35 1.29l0.02 0.02zm-1.43-6.76l-0.16-0.15v1.06c0.3-0.1 0.61-0.18 0.9-0.29-0.26-0.2-0.51-0.41-0.74-0.64v0.02zm29.45 7.27c-1.38-1.44-2.57-3.02-3.57-4.7-1.32 2.14-3.48 3.69-5.32 5.48 2.95-0.38 5.91-0.68 8.88-0.8l0.01 0.02z" fill="url(#paint0_linear)"/>
 <path d="m350.73 277.81l-2.11 0.39-7.2 9.84 3.18 0.4 6.13-10.63z" fill="#2F2E41"/>
 <path d="m401.92 317.72c-0.57 1.75-1.27 3.45-2.1 5.1-2.39-0.46-4.73-1.08-7.02-1.85 0.44-0.64 0.93-1.25 1.46-1.83 0.56-0.58 1.23-1.06 1.98-1.41 0.73-0.3 1.63-0.07 2.41-0.03 1.09 0.03 2.18 0.04 3.27 0.02z" fill="#FBBEBE"/>
 <path d="m396.23 320.35c1.19-0.34 1.91-1.45 2.4-2.53 0.48-1.06 0.87-2.23 1.79-3.02 0.18 0.03 0.34 0.09 0.48 0.19 0.15 0.1 0.26 0.23 0.33 0.38 0.18 0.28 0.28 0.6 0.49 0.87 0.38 0.52 1.05 0.76 1.53 1.2 0.49 0.44 0.79 1.1 1.31 1.54 0.72 0.48 1.57 0.78 2.45 0.87 1.33 0.28 2.63 0.72 3.83 1.31 0.45 0.24 0.93 0.43 1.43 0.57 0.54 0.09 1.1 0.11 1.66 0.05l3.81-0.26c0.34-0.04 0.69-0.02 1.02 0.05 0.39 0.13 0.72 0.37 0.94 0.69 0.23 0.32 0.32 0.7 0.29 1.08-0.05 0.38-0.19 0.74-0.4 1.06-0.21 0.33-0.49 0.62-0.83 0.84-0.66 0.43-1.39 0.78-2.17 1.02-3.32 1.15-6.75 2.06-10.23 2.7v0.69c-2.42 1.11-5.08 1.69-7.79 1.7-0.21 0.02-0.42-0.01-0.61-0.09-0.25-0.17-0.42-0.42-0.49-0.69-0.91-2.48-1.45-5.06-1.59-7.67-0.07-0.66-0.01-1.33 0.16-1.98 0.21-0.63-0.5-0.36 0.16-0.61" fill="#2F2E41"/>
 <path d="m323.05 307.05c11.32 0.63 22.49-2.43 33.83-2.76 1.4-0.08 2.82 0 4.2 0.25 1.44 0.35 2.84 0.85 4.17 1.49 6.07 2.61 12.35 4.78 18.63 6.94l7.21 2.48c1.44 0.49 2.93 1 4.47 0.91 0.69-0.04 1.52-0.13 1.92 0.4 1.17 1.6 0.61 3.97-0.16 5.77-0.25 0.56-0.68 1.21-1.35 1.28-0.48-0.03-0.94-0.14-1.38-0.32-1.31-0.32-2.62 0.49-3.97 0.62-1.67 0.17-3.22-0.71-4.8-1.25-2.6-0.89-5.46-0.86-8.2-1.28-4.61-0.71-8.88-2.69-12.87-4.94-1.52-0.86-3.06-1.78-4.8-2.09-2.01-0.36-4.07 0.11-6.04 0.63-4.69 1.23-9.3 2.68-13.83 4.36-2.35 0.94-4.76 1.76-7.22 2.43-5.37 1.31-11.04 1-16.2-0.87-1.84-0.66-3.78-1.83-3.88-3.64-0.06-1.03 0.8-1.94 1.38-2.83 0.37-0.57 0.74-1.13 1.14-1.67 1.95-2.63 4.32-6.1 7.75-5.91z" fill="#2F2E41"/>
 <path opacity=".1" d="m323.05 307.05c11.32 0.63 22.49-2.43 33.83-2.76 1.4-0.08 2.82 0 4.2 0.25 1.44 0.35 2.84 0.85 4.17 1.49 6.07 2.61 12.35 4.78 18.63 6.94l7.21 2.48c1.44 0.49 2.93 1 4.47 0.91 0.69-0.04 1.52-0.13 1.92 0.4 1.17 1.6 0.61 3.97-0.16 5.77-0.25 0.56-0.68 1.21-1.35 1.28-0.48-0.03-0.94-0.14-1.38-0.32-1.31-0.32-2.62 0.49-3.97 0.62-1.67 0.17-3.22-0.71-4.8-1.25-2.6-0.89-5.46-0.86-8.2-1.28-4.61-0.71-8.88-2.69-12.87-4.94-1.52-0.86-3.06-1.78-4.8-2.09-2.01-0.36-4.07 0.11-6.04 0.63-4.69 1.23-9.3 2.68-13.83 4.36-2.35 0.94-4.76 1.76-7.22 2.43-5.37 1.31-11.04 1-16.2-0.87-1.84-0.66-3.78-1.83-3.88-3.64-0.06-1.03 0.8-1.94 1.38-2.83 0.37-0.57 0.74-1.13 1.14-1.67 1.95-2.63 4.32-6.1 7.75-5.91z" fill="#000"/>
 <path d="m380.2 318.23c-1.77 0.56-3.56 1.07-5.35 1.54-1.01-1.53-2.9-2.6-3.33-4.35-0.02-0.07-0.02-0.15 0-0.23 0.05-0.07 0.12-0.13 0.2-0.17 1.29-0.66 2.73-1.04 4.2-1.13 1.16-0.07 1.69 1.05 2.22 1.84 0.18 0.32 1.59 2.65 2.06 2.5z" fill="#FBBEBE"/>
 <path d="m377.71 317.11c0.53-0.08 1.03-0.26 1.48-0.53 0.45-0.28 0.83-0.63 1.12-1.05 0.25-0.4 0.51-0.95 1.02-0.92 0.5 0.03 0.67 0.54 0.77 0.97 0.34 1.58 0.84 3.14 1.47 4.65 0.64 1.51 1.72 2.83 3.13 3.8 0.66 0.42 1.38 0.73 2.03 1.18 0.53 0.44 1.11 0.84 1.71 1.2 0.43 0.18 0.87 0.33 1.32 0.45 0.66 0.21 1.29 0.5 1.88 0.84 0.52 0.28 0.96 0.67 1.28 1.14 0.16 0.23 0.25 0.5 0.27 0.78s-0.03 0.55-0.16 0.8c-0.13 0.21-0.31 0.39-0.52 0.52-0.21 0.14-0.45 0.24-0.7 0.28-0.52 0.08-1.05 0.09-1.57 0.04-2.06-0.14-4.12-0.32-6.18-0.48-0.87-0.05-1.74-0.16-2.59-0.33-0.45-0.11-0.89-0.24-1.34-0.35-0.77-0.18-1.56-0.29-2.36-0.32-0.23-0.01-0.46 0.01-0.69 0.07-0.47 0.14-0.81 0.56-1.3 0.67-0.32 0.02-0.64-0.01-0.93-0.12-1.51-0.29-3.04-0.44-4.58-0.44-0.68-0.03-1.47-0.15-1.78-0.71-0.39-0.7 0.25-1.48 0.51-2.23 0.12-0.48 0.2-0.97 0.21-1.46 0.12-1.22 0.5-2.4 1.14-3.48 0.52-0.89 1.22-1.88 0.87-2.83-0.19-0.29-0.3-0.62-0.35-0.97 0.09-1.53 3.91-0.96 4.84-1.17z" fill="#2F2E41"/>
 <path d="m340.02 290.27c2-0.82 3.61-2.29 4.51-4.14 0.18-0.4 0.34-0.81 0.52-1.21 0.59-1.33 1.52-2.52 2.69-3.46 0.13-0.13 0.28-0.23 0.46-0.3 0.17-0.06 0.35-0.1 0.54-0.09 0.18 0.05 0.34 0.14 0.47 0.27s0.22 0.29 0.27 0.46c0.1 0.36 0.13 0.75 0.08 1.13-0.11 0.88-0.27 1.75-0.5 2.61l-0.55 2.31c-0.07 0.36-0.18 0.7-0.34 1.03-0.23 0.39-0.55 0.73-0.92 1.02-0.5 0.43-1.01 0.84-1.52 1.24-0.29 0.24-0.6 0.45-0.93 0.63-0.54 0.23-1.12 0.39-1.72 0.46-2.25 0.39-4.53 0.94-6.43 2.27 0 0 0-1.55 0.05-1.7 0.02-0.45 0.18-0.88 0.47-1.24 0.71-0.71 1.94-0.92 2.85-1.29z" fill="#FBBEBE"/>
 <path opacity=".1" d="m340.02 290.27c2-0.82 3.61-2.29 4.51-4.14 0.18-0.4 0.34-0.81 0.52-1.21 0.59-1.33 1.52-2.52 2.69-3.46 0.13-0.13 0.28-0.23 0.46-0.3 0.17-0.06 0.35-0.1 0.54-0.09 0.18 0.05 0.34 0.14 0.47 0.27s0.22 0.29 0.27 0.46c0.1 0.36 0.13 0.75 0.08 1.13-0.11 0.88-0.27 1.75-0.5 2.61l-0.55 2.31c-0.07 0.36-0.18 0.7-0.34 1.03-0.23 0.39-0.55 0.73-0.92 1.02-0.5 0.43-1.01 0.84-1.52 1.24-0.29 0.24-0.6 0.45-0.93 0.63-0.54 0.23-1.12 0.39-1.72 0.46-2.25 0.39-4.53 0.94-6.43 2.27 0 0 0-1.55 0.05-1.7 0.02-0.45 0.18-0.88 0.47-1.24 0.71-0.71 1.94-0.92 2.85-1.29z" fill="#000"/>
 <path d="m316.98 272.6c-1.52 0-2.75-1.15-2.75-2.56 0-1.42 1.23-2.56 2.75-2.56s2.75 1.14 2.75 2.56c0 1.41-1.23 2.56-2.75 2.56z" fill="#2F2E41"/>
 <path d="m318.68 268.49c0.74-0.16 1.52-0.05 2.18 0.29 0.32 0.26 0.57 0.58 0.74 0.94 0.62 0.98 1.1 2.02 1.43 3.11 0.25 0.94 0.29 1.91 0.62 2.84 0.56 1.7 2.01 3.14 2.17 4.91 0.08 0.8-0.06 1.73 0.56 2.27 0.16 0.12 0.32 0.23 0.5 0.32 0.43 0.27 0.8 0.62 1.08 1.03 0.19 0.37 0.45 0.7 0.77 0.98 0.56 0.39 1.49 0.35 1.76 0.94 0.28 0.6-0.43 1.29-0.27 1.94 0.14 0.52 0.77 0.77 1.23 1.13 0.51 0.51 0.87 1.13 1.04 1.81 0.92 0.16 1.87 0.13 2.78-0.08s1.76-0.6 2.49-1.14c-0.77 1.75-0.79 3.68-0.82 5.57-0.09 0.6 0.09 1.21 0.49 1.7-2.2 0.04-4.33 0.56-6.47 1.03-0.91 0.29-1.9 0.29-2.82 0-0.48-0.24-0.92-0.56-1.29-0.95-1.16-1.09-2.38-2.27-2.66-3.79-0.08-0.86-0.09-1.72-0.05-2.58-0.12-1.06-0.35-2.1-0.71-3.12-0.61-2.1-1.02-4.26-1.22-6.43-0.13-1.34-1.38-2.42-2.04-3.62-1.23-2.26-2.51-4.61-2.61-7.15-0.09-0.83 0.22-1.84 1.12-1.95z" fill="#2F2E41"/>
 <path opacity=".1" d="m318.68 268.49c0.74-0.16 1.52-0.05 2.18 0.29 0.32 0.26 0.57 0.58 0.74 0.94 0.62 0.98 1.1 2.02 1.43 3.11 0.25 0.94 0.29 1.91 0.62 2.84 0.56 1.7 2.01 3.14 2.17 4.91 0.08 0.8-0.06 1.73 0.56 2.27 0.16 0.12 0.32 0.23 0.5 0.32 0.43 0.27 0.8 0.62 1.08 1.03 0.19 0.37 0.45 0.7 0.77 0.98 0.56 0.39 1.49 0.35 1.76 0.94 0.28 0.6-0.43 1.29-0.27 1.94 0.14 0.52 0.77 0.77 1.23 1.13 0.51 0.51 0.87 1.13 1.04 1.81 0.92 0.16 1.87 0.13 2.78-0.08s1.76-0.6 2.49-1.14c-0.77 1.75-0.79 3.68-0.82 5.57-0.09 0.6 0.09 1.21 0.49 1.7-2.2 0.04-4.33 0.56-6.47 1.03-0.91 0.29-1.9 0.29-2.82 0-0.48-0.24-0.92-0.56-1.29-0.95-1.16-1.09-2.38-2.27-2.66-3.79-0.08-0.86-0.09-1.72-0.05-2.58-0.12-1.06-0.35-2.1-0.71-3.12-0.61-2.1-1.02-4.26-1.22-6.43-0.13-1.34-1.38-2.42-2.04-3.62-1.23-2.26-2.51-4.61-2.61-7.15-0.09-0.83 0.22-1.84 1.12-1.95z" fill="#000"/>
 <path d="m321.26 309.25c2.36-1.03 4.08-2.96 5.98-4.62 3.64-3.16 8.09-5.39 11.91-8.35 2.53-1.96 4.8-4.25 7.59-5.89 2.45-1.45 5.23-2.35 8.12-2.63 0.33-0.06 0.67-0.04 0.99 0.04 0.37 0.15 0.69 0.39 0.93 0.68 1.23 1.29 2.33 2.68 3.28 4.16 4.84 7.61 11.72 14 17.43 21.08 0.18 0.16 0.29 0.39 0.3 0.63 0.01 0.23-0.07 0.47-0.24 0.65l-1.15 2.1c-0.65 1.17-1.7 2.54-3.07 2.31-0.63-0.17-1.19-0.5-1.62-0.96l-5.21-4.6-5.46-4.83c-3.2-2.83-6.45-5.72-8.54-9.33-1.63 2.61-4.52 4.32-6.5 6.71-0.76 0.91-1.37 1.91-2.04 2.88-1.09 1.54-2.31 2.99-3.54 4.44l-6.27 7.39c-0.79 1.05-1.77 1.97-2.89 2.72-1.49 0.87-3.29 1.1-5.04 1.24-2.35 0.2-4.71 0.28-7.08 0.24-1.8-0.03-3.67-0.14-5.26-0.88-1.6-0.74-2.95-2.27-2.87-3.93 0.1-0.86 0.41-1.7 0.91-2.45 2.21-3.79 5.14-6.97 9.34-8.8z" fill="#2F2E41"/>
 <path d="m315.29 273.78c-1.17 0-2.11-0.89-2.11-1.97 0-1.09 0.94-1.97 2.11-1.97s2.11 0.88 2.11 1.97c0 1.08-0.94 1.97-2.11 1.97z" fill="#E8E8F0"/>
 <path d="m315.76 270.33c-0.48 0.88-0.56 1.9-0.24 2.83 0.33 0.92 0.79 1.8 1.36 2.61 0.5 0.83 1.09 1.62 1.77 2.33-3.26 0.15-6.43-1.03-9.31-2.47-2.32-1.14-4.64-2.58-5.87-4.74 0.37 0.08 0.75 0.09 1.12 0.03s0.73-0.2 1.04-0.4c0.62-0.4 1.18-0.88 1.66-1.42l1.63-1.7c0.39-0.38 0.73-0.79 1.02-1.23 0.35-0.61 0.51-1.3 0.43-1.98 0.65 0.63 1.38 1.19 2.17 1.67 1.17 0.7 2.45 1.21 3.63 1.91 0.42 0.25 1.34 0.65 1.11 1.13-0.24 0.48-1.19 0.89-1.52 1.43z" fill="#FBBEBE"/>
 <path opacity=".1" d="m315.76 270.33c-0.48 0.88-0.56 1.9-0.24 2.83 0.33 0.92 0.79 1.8 1.36 2.61 0.5 0.83 1.09 1.62 1.77 2.33-3.26 0.15-6.43-1.03-9.31-2.47-2.32-1.14-4.64-2.58-5.87-4.74 0.37 0.08 0.75 0.09 1.12 0.03s0.73-0.2 1.04-0.4c0.62-0.4 1.18-0.88 1.66-1.42l1.63-1.7c0.39-0.38 0.73-0.79 1.02-1.23 0.35-0.61 0.51-1.3 0.43-1.98 0.65 0.63 1.38 1.19 2.17 1.67 1.17 0.7 2.45 1.21 3.63 1.91 0.42 0.25 1.34 0.65 1.11 1.13-0.24 0.48-1.19 0.89-1.52 1.43z" fill="#000"/>
 <path d="m315.71 270.62c0.33 0.44 0.51 0.95 0.51 1.48s-0.18 1.04-0.51 1.48c-0.09 0.1-0.44 0.78-0.61 0.78-0.14-0.01-0.28-0.07-0.37-0.17-0.74-0.72-1.43-1.47-2.07-2.27-0.65-0.8-1.58-1.37-2.64-1.6-1.28-0.18-2.51 0.45-3.63 1.05-0.48 0.22-0.9 0.54-1.23 0.94-0.23 0.39-0.37 0.83-0.41 1.28-0.32 2.7-0.44 5.42-0.36 8.13-0.06 1.96 0.07 3.92 0.41 5.85 0.21 1 0.52 1.98 0.67 2.98 0.11 0.89 0.15 1.79 0.13 2.68v3.74c0.03 0.68-0.03 1.37-0.16 2.04-0.25 0.81-0.55 1.6-0.89 2.37-0.3 0.93-0.5 1.88-0.61 2.84l-0.55 3.87c-0.18 1.22-0.31 2.55 0.49 3.53 0.36 0.45 0.84 0.8 1.23 1.24 1.38 1.62 0.92 3.97 1.53 5.98 0.45 1.48 1.38 2.79 2.66 3.77 0.97 0.77 2.24 1.37 3.5 1.13 1.69-0.29 2.72-1.93 3.18-3.47 0.47-1.55 0.62-3.24 1.64-4.53 0.82-1.08 2.09-1.74 3.23-2.51 1.15-0.76 2.28-1.74 2.53-3.04 0.11-0.56 0.04-1.13 0.1-1.69 0.09-0.73 0.39-1.41 0.87-1.99 0.47-0.58 1.11-1.03 1.84-1.3 0.87-0.31 1.95-0.43 2.45-1.13-1.25-0.73-2.16-1.86-2.55-3.17-0.38-1.29-0.58-2.63-0.61-3.97l-0.3-4.49c-0.12-2.01-0.18-4.01-1.14-5.82-0.43-0.8-0.96-1.56-1.4-2.36-0.6-1.12-1.1-2.28-1.51-3.47-0.69-1.84-1.39-3.68-2.01-5.55-0.25-0.9-0.62-1.77-1.1-2.59-0.57-0.85-1.33-1.86-2.31-2.04z" fill="#E8E8F0"/>
 <path d="m326.51 299.85l-1.28 0.04-0.28-1.8c-0.03-0.35-0.13-0.71-0.27-1.04-0.21-0.36-0.46-0.69-0.74-1.01-1.27-1.65-1.18-3.85-1.49-5.86-0.41-2.68-1.63-5.2-2.83-7.66l-2.5-5.15c-0.22-0.43-0.4-0.87-0.53-1.32-0.11-0.51-0.16-1.02-0.15-1.53 0-0.79-0.28-3.69-0.3-4.48 0-0.3 0.7-0.14 0.84-0.4 0.31-0.56 0.74 0.98 1.33 1.32 0.55 0.39 0.96 0.94 1.15 1.56 0.54 1.29 0.87 2.66 1.38 3.96 0.44 1.34 1.24 2.54 2.33 3.51 0.51 0.42 1.1 0.75 1.59 1.19 1.55 1.42 1.7 3.66 1.75 5.66 0.04 1.24 0.29 13.01 0 13.01z" fill="#2F2E41"/>
 <path d="m307.98 268.48c1.23 0.45 1.94 1.7 2.29 2.91s0.49 2.49 1.17 3.57c1.56 2.52 5.57 3.26 6.68 5.99 0.28 0.92 0.43 1.88 0.44 2.83 0.2 1.96 0.9 3.85 1.1 5.8 0.11 1.53 0.07 3.05-0.11 4.57l-1.4 15.42c-0.28 2.27-0.13 4.57 0.42 6.8-1.44 0.19-2.91-0.03-4.2-0.64-1.32-0.57-2.52-1.31-3.78-1.96-2.18-1.13-4.58-1.9-6.48-3.4-0.35-0.25-0.64-0.55-0.88-0.89-0.3-0.65-0.51-1.33-0.61-2.03-0.16-0.55-0.36-1.08-0.61-1.6-0.71-1.55-1.32-3.14-1.84-4.76-0.36-1.07-0.64-2.16-0.84-3.27-0.15-0.88-0.23-1.76-0.32-2.65-0.09-1.39-0.39-2.76-0.89-4.08-1.21-3.14-1.9-6.43-2.04-9.77-0.04-0.48 0-0.97 0.11-1.44 0.21-0.57 0.49-1.12 0.84-1.63 0.59-1.01 0.93-2.13 1.49-3.16 1.22-2.32 3.42-4.08 5.72-5.56 1.18-0.72 2.47-1.5 3.74-1.05z" fill="#2F2E41"/>
 <path d="m337.23 293.65c0.99-0.48 1.89-1.12 2.66-1.87 0.35-0.38 0.62-0.81 1-1.18 0.9-0.89 2.06-1.5 3.35-1.77 1.27-0.26 2.58-0.37 3.88-0.34 0.87-0.06 1.75 0.04 2.58 0.29 0.42 0.12 0.8 0.34 1.1 0.64s0.51 0.66 0.62 1.06c0.19 0.96-0.49 1.89-1.31 2.5-0.76 0.58-1.65 0.98-2.6 1.18-0.78 0.12-1.57 0.21-2.35 0.25-4.64 0.45-8.77 2.78-12.83 4.9-3.56 1.86-7.2 3.61-10.9 5.23-0.15-1.02-0.21-2.06-0.19-3.09 0-0.77 0.06-1.95 0.86-2.4 0.91-0.54 2.45-0.66 3.46-0.97 2.39-0.72 4.72-1.59 6.98-2.61 1.28-0.57 2.51-1.18 3.69-1.82z" fill="#FBBEBE"/>
 <path d="m316.98 269.45c-4.56 0-8.25-3.43-8.25-7.67s3.69-7.68 8.25-7.68 8.25 3.44 8.25 7.68-3.69 7.67-8.25 7.67z" fill="#FBBEBE"/>
 <path d="m305.62 277.18c0.66 0.85 1.2 1.78 1.6 2.76 1.02 1.94 2.62 3.61 3.42 5.66 0.85 2.14 0.82 4.68 2.45 6.36 0.33 0.26 0.58 0.59 0.72 0.97 0.01 0.23 0.04 0.46 0.08 0.69 0.24 0.62 1.32 0.64 1.52 1.27 0.06 0.18 0 0.38 0.1 0.56 0.17 0.41 0.74 0.46 1.12 0.71 0.81 0.5 0.61 1.67 1.23 2.39 0.25 0.27 0.57 0.48 0.93 0.59 0.36 0.12 0.75 0.15 1.13 0.08 0.75-0.14 1.47-0.4 2.14-0.74 0.24-0.12 0.5-0.2 0.77-0.22 0.32 0 0.63 0.1 0.89 0.28 1.52 0.89 2.24 2.67 2.22 4.35-0.1 1.67-0.53 3.32-1.26 4.86-0.09 0.26-0.23 0.51-0.43 0.72-0.5 0.49-1.38 0.42-2.05 0.14-0.64-0.35-1.31-0.63-2.01-0.83-1.27-0.21-2.52 0.6-3.81 0.53-0.95-0.13-1.84-0.49-2.58-1.05-1.32-0.74-2.49-1.66-3.48-2.75-0.57-0.68-0.98-1.47-1.48-2.19-0.63-0.9-1.33-1.76-2.08-2.58l-4.76-5.38c-0.48-0.52-0.91-1.06-1.28-1.64-0.43-0.78-0.77-1.61-1-2.46-0.51-1.42-0.84-2.89-0.99-4.38-0.02-1.23 0.09-2.46 0.35-3.68 0.16-1.2 0.5-2.38 1.02-3.49 1.06-1.98 3.58-3.63 5.52-1.53z" fill="#2F2E41"/>
 <path d="m289.04 267.18c0-1.36 0.34-2.7 1.01-3.92 0.66-1.21 1.63-2.26 2.82-3.06 0.03-2.42 1-4.75 2.71-6.57 1.72-1.82 4.08-3.02 6.67-3.38 0.5-2.29 1.85-4.34 3.83-5.79 1.98-1.46 4.44-2.22 6.97-2.16 2.52 0.07 4.94 0.95 6.83 2.5 1.88 1.55 3.12 3.67 3.48 5.98 3.44-0.71 6.57 0.22 7.14 2.17 0.62 2.05-1.84 4.44-5.46 5.34-1.14 0.3-2.32 0.41-3.5 0.33-0.84 1.14-1.94 2.11-3.21 2.84s-2.69 1.21-4.18 1.4c-0.43 1.85-1.42 3.55-2.84 4.91-1.43 1.36-3.23 2.32-5.22 2.78-0.54 1.23-1.4 2.32-2.48 3.19 0 0.23 0.04 0.48 0.04 0.73 0.04 0.87-0.11 1.74-0.45 2.55-0.33 0.82-0.84 1.56-1.49 2.19s-1.43 1.13-2.3 1.47-1.8 0.52-2.74 0.52c-0.95 0-1.88-0.18-2.75-0.52-0.86-0.34-1.65-0.84-2.3-1.47s-1.16-1.37-1.49-2.19c-0.34-0.81-0.49-1.68-0.45-2.55 0-0.98 0.23-1.95 0.67-2.84-0.86-1.35-1.31-2.88-1.31-4.45z" fill="#15234A"/>
 <path opacity=".1" d="m328.17 253.34c-0.57-1.95-3.67-2.88-7.13-2.17-0.41-2.35-1.69-4.48-3.64-6.04-1.94-1.55-4.41-2.42-6.98-2.46h-0.71c0.99-0.28 2.02-0.42 3.06-0.41 2.57 0.03 5.05 0.9 6.99 2.45 1.94 1.56 3.23 3.7 3.63 6.04 3.43-0.71 6.57 0.22 7.14 2.17 0.61 2.05-1.84 4.44-5.47 5.34-0.67 0.18-1.36 0.29-2.06 0.33 3.44-0.93 5.76-3.25 5.17-5.25z" fill="#000"/>
 <path opacity=".1" d="m301.32 274.86c0-0.25 0-0.49-0.04-0.73 1.09-0.87 1.94-1.96 2.49-3.18 1.98-0.47 3.78-1.43 5.21-2.79 1.42-1.36 2.4-3.06 2.84-4.9 1.49-0.2 2.91-0.68 4.18-1.41 1.28-0.73 2.37-1.7 3.21-2.84 0.69 0.05 1.38 0.03 2.06-0.05-0.85 1.05-1.91 1.94-3.13 2.61-1.23 0.67-2.58 1.11-3.99 1.29-0.43 1.85-1.42 3.55-2.84 4.91-1.43 1.36-3.23 2.32-5.21 2.78-0.55 1.23-1.41 2.32-2.49 3.19 0 0.23 0.04 0.48 0.04 0.73 0.03 1.73-0.68 3.41-1.98 4.66-1.31 1.25-3.09 1.98-4.97 2.02 1.37-0.49 2.55-1.35 3.38-2.48 0.82-1.12 1.26-2.45 1.24-3.81z" fill="#131F43"/>
 <path d="m313.21 264.59c-0.57-0.39-0.56-1.27 0.01-1.96 0.56-0.69 1.48-0.93 2.04-0.54s0.55 1.27-0.01 1.96c-0.57 0.69-1.48 0.93-2.04 0.54z" fill="#FBBEBE"/>
 <path d="m504.51 317.07l-7.91-4.43c1.07-1.75 2.44-3.31 4.04-4.62l14.92 4.42-11.69-6.55c2.9-1.51 6.15-2.28 9.45-2.23 3.3 0.06 6.53 0.93 9.37 2.53 2.83 1.61 5.19 3.89 6.82 6.62 1.63 2.74 2.49 5.83 2.49 8.98 0 10.01-8.51 10.35-19 10.35s-19-0.34-19-10.35c-0.01-2.54 0.55-5.05 1.63-7.37l8.88 2.65z" fill="#15234A"/>
 <path opacity=".1" d="m502.5 326.8c0.84-0.8 1.78-1.51 2.8-2.1 1.43-0.91 2.92-1.84 4.61-2.15 1.49-0.27 3.02-0.04 4.53-0.12 2.63-0.15 5.11-1.24 6.94-3.04 1.08-1.06 1.93-2.37 3.23-3.19 1.46-0.82 3.17-1.12 4.84-0.84 0.48 0.06 0.96 0.16 1.43 0.28 0.74 1.97 1.12 4.05 1.12 6.15 0 10.01-8.51 10.35-19 10.35-5.09 0-9.71-0.08-13.13-1.3l0.6-1.02c0.53-1.08 1.22-2.1 2.03-3.02z" fill="#000"/>
 <defs>
  <linearGradient id="paint0_linear" y2="240.92" gradientUnits="userSpaceOnUse" x2="355.04" y1="331.35" x1="355.04">
   <stop stop-color="#808080" stop-opacity=".25" offset="0"/>
   <stop stop-color="#808080" stop-opacity=".12" offset=".54"/>
   <stop stop-color="#808080" stop-opacity=".1" offset="1"/>
  </linearGradient>
 </defs>
</svg>
