<svg width="547" height="345" viewBox="0 0 547 345" fill="none" xmlns="http://www.w3.org/2000/svg">
<path d="M0 329.234C0 333.168 25.0242 336.764 66.3974 339.542C73.9216 340.04 81.984 340.516 90.5347 340.962C97.9227 341.344 105.666 341.705 113.765 342.045C121.611 342.365 129.759 342.663 138.206 342.938C164.885 343.814 194.379 344.444 225.711 344.759C233.315 344.839 241.021 344.9 248.827 344.942C256.959 344.984 265.184 345.003 273.503 345C424.555 345 547 337.95 547 329.251C547 320.552 424.555 313.503 273.503 313.503C208.47 313.503 148.75 314.814 101.811 316.99L96.6786 317.231H96.6487C37.5214 320.111 0 324.446 0 329.234Z" fill="#3F3D56"/>
<path opacity="0.15" d="M0 329.234C0 333.168 25.0242 336.764 66.3974 339.542C73.9216 340.04 81.984 340.516 90.5347 340.962C97.9227 341.344 105.666 341.705 113.765 342.045C121.611 342.365 129.759 342.663 138.206 342.938C164.885 343.814 194.379 344.444 225.711 344.759C233.315 344.839 241.02 344.9 248.827 344.942C256.959 344.984 265.184 345.003 273.503 345C424.555 345 547 337.95 547 329.251C547 320.552 424.555 313.503 273.503 313.503C208.47 313.503 148.75 314.814 101.811 316.99L96.6786 317.231H96.6487C37.5214 320.111 0 324.446 0 329.234Z" fill="black"/>
<path d="M25 326.808C25 330.124 48.8805 333.163 88.3628 335.474C95.5384 335.896 103.237 336.294 111.392 336.67C118.446 336.993 125.835 337.298 133.561 337.583C141.049 337.852 148.823 338.105 156.885 338.34C182.349 339.079 210.495 339.611 240.395 339.876C247.645 339.942 254.999 339.992 262.455 340.027C270.215 340.061 278.063 340.079 285.998 340.079C430.146 340.079 547 334.134 547 326.791C547 319.448 430.146 313.503 285.998 313.503C223.943 313.503 166.952 314.606 122.158 316.443L117.26 316.646H117.227C60.7827 319.112 25 322.746 25 326.808Z" fill="#3F3D56"/>
<path d="M232.29 164.109C251.623 164.109 266.859 172.415 277.999 189.026C289.138 205.637 294.708 225.76 294.708 249.395C294.708 273.19 289.322 293.272 278.548 309.642C267.775 326.012 252.578 334.189 232.958 334.173C212.152 334.173 196.476 325.548 185.929 308.299C175.382 291.05 170.107 271.087 170.103 248.408C170.103 225.893 175.562 206.212 186.479 189.363C197.395 172.515 212.666 164.097 232.29 164.109ZM231.723 182.795C219.004 182.795 209.498 188.795 203.205 200.795C196.912 212.794 193.765 227.921 193.765 246.176C193.765 266.495 196.986 283.133 203.426 296.089C209.867 309.045 219.745 315.525 233.06 315.53C258.369 315.53 271.024 293.771 271.024 250.254C271.024 205.277 257.927 182.791 231.734 182.795H231.723ZM225.354 3.85187H253.317L70.2539 330.843H42.8182L225.354 3.85187ZM63.4035 0.497345C83.0274 0.497345 98.326 8.87857 109.3 25.6411C120.273 42.4035 125.782 62.5287 125.828 86.0166C125.828 109.652 120.479 129.654 109.781 146.024C99.0834 162.394 83.849 170.571 64.0778 170.555C43.4189 170.555 27.852 161.93 17.3771 144.681C6.90219 127.432 1.66287 107.47 1.65912 84.7962C1.65912 62.4285 7.0816 42.7837 17.9267 25.8618C28.7718 8.93988 43.9345 0.485077 63.4148 0.497345H63.4035ZM63.0748 19.6617C50.4166 19.6617 40.9616 25.5593 34.7099 37.3543C28.4582 49.1494 25.3324 64.2151 25.3324 82.5517C25.3324 102.176 28.496 118.634 34.8233 131.925C41.1505 145.217 51.0078 151.873 64.3951 151.893C89.8513 151.893 102.579 130.135 102.579 86.6176C102.587 41.9763 89.4226 19.6577 63.0862 19.6617H63.0748Z" fill="#3F3D56"/>
<path d="M232.29 164.109C251.623 164.109 266.859 172.415 277.999 189.026C289.138 205.637 294.708 225.76 294.708 249.395C294.708 273.19 289.322 293.272 278.548 309.642C267.775 326.012 252.578 334.189 232.958 334.173C212.152 334.173 196.476 325.548 185.929 308.299C175.382 291.05 170.107 271.087 170.103 248.408C170.103 225.893 175.562 206.212 186.479 189.363C197.395 172.515 212.666 164.097 232.29 164.109ZM231.723 182.795C219.004 182.795 209.498 188.795 203.205 200.795C196.912 212.794 193.765 227.921 193.765 246.176C193.765 266.495 196.986 283.133 203.426 296.089C209.867 309.045 219.745 315.525 233.06 315.53C258.369 315.53 271.024 293.771 271.024 250.254C271.024 205.277 257.927 182.791 231.734 182.795H231.723ZM225.354 3.85187H253.317L70.2539 330.843H42.8182L225.354 3.85187ZM63.4035 0.497345C83.0274 0.497345 98.326 8.87857 109.3 25.6411C120.273 42.4035 125.782 62.5287 125.828 86.0166C125.828 109.652 120.479 129.654 109.781 146.024C99.0834 162.394 83.849 170.571 64.0778 170.555C43.4189 170.555 27.852 161.93 17.3771 144.681C6.90219 127.432 1.66287 107.47 1.65912 84.7962C1.65912 62.4285 7.0816 42.7837 17.9267 25.8618C28.7718 8.93988 43.9345 0.485077 63.4148 0.497345H63.4035ZM63.0748 19.6617C50.4166 19.6617 40.9616 25.5593 34.7099 37.3543C28.4582 49.1494 25.3324 64.2151 25.3324 82.5517C25.3324 102.176 28.496 118.634 34.8233 131.925C41.1505 145.217 51.0078 151.873 64.3951 151.893C89.8513 151.893 102.579 130.135 102.579 86.6176C102.587 41.9763 89.4226 19.6577 63.0862 19.6617H63.0748Z" fill="#3F3D56"/>
<path d="M249.581 164.109C268.914 164.109 284.151 172.415 295.29 189.026C306.43 205.637 312 225.76 312 249.395C312 273.19 306.613 293.272 295.84 309.642C285.067 326.012 269.87 334.189 250.25 334.173C229.444 334.173 213.767 325.548 203.221 308.299C192.674 291.05 187.399 271.087 187.395 248.408C187.395 225.893 192.853 206.212 203.77 189.363C214.687 172.515 229.957 164.097 249.581 164.109ZM249.015 182.795C236.296 182.795 226.79 188.795 220.497 200.795C214.204 212.794 211.057 227.921 211.057 246.176C211.057 266.495 214.277 283.133 220.718 296.089C227.158 309.045 237.036 315.525 250.352 315.53C275.661 315.53 288.315 293.771 288.315 250.254C288.315 205.277 275.219 182.791 249.026 182.795H249.015ZM242.646 3.85187H270.609L87.5456 330.843H60.1099L242.646 3.85187ZM80.6952 0.497345C100.319 0.497345 115.618 8.87857 126.591 25.6411C137.565 42.4035 143.074 62.5287 143.119 86.0166C143.119 109.652 137.771 129.654 127.073 146.024C116.375 162.394 101.141 170.571 81.3695 170.555C60.7106 170.555 45.1436 161.93 34.6688 144.681C24.1939 127.432 18.9546 107.47 18.9508 84.7962C18.9508 62.4285 24.3733 42.7837 35.2184 25.8618C46.0634 8.93988 61.2262 0.485077 80.7065 0.497345H80.6952ZM80.3665 19.6617C67.7083 19.6617 58.2533 25.5593 52.0016 37.3543C45.7499 49.1494 42.6241 64.2151 42.6241 82.5517C42.6241 102.176 45.7877 118.634 52.115 131.925C58.4422 145.217 68.3032 151.873 81.6981 151.893C107.154 151.893 119.882 130.135 119.882 86.6176C119.882 41.9763 106.714 19.6577 80.3779 19.6617H80.3665Z" fill="#3F3D56"/>
<path opacity="0.15" d="M232.29 164.109C251.623 164.109 266.859 172.415 277.999 189.026C289.138 205.637 294.708 225.76 294.708 249.395C294.708 273.19 289.322 293.272 278.548 309.642C267.775 326.012 252.578 334.189 232.958 334.173C212.152 334.173 196.476 325.548 185.929 308.299C175.382 291.05 170.107 271.087 170.103 248.408C170.103 225.893 175.562 206.212 186.479 189.363C197.395 172.515 212.666 164.097 232.29 164.109ZM231.723 182.795C219.004 182.795 209.498 188.795 203.205 200.795C196.912 212.794 193.765 227.921 193.765 246.176C193.765 266.495 196.986 283.133 203.426 296.089C209.867 309.045 219.745 315.525 233.06 315.53C258.369 315.53 271.024 293.771 271.024 250.254C271.024 205.277 257.927 182.791 231.734 182.795H231.723ZM225.354 3.85187H253.317L70.2538 330.843H42.8182L225.354 3.85187ZM63.4034 0.497345C83.0273 0.497345 98.326 8.87857 109.299 25.6411C120.273 42.4035 125.782 62.5287 125.828 86.0166C125.828 109.652 120.479 129.654 109.781 146.024C99.0834 162.394 83.8489 170.571 64.0777 170.555C43.4188 170.555 27.8519 161.93 17.377 144.681C6.90213 127.432 1.66281 107.47 1.65906 84.7962C1.65906 62.4285 7.08154 42.7837 17.9266 25.8618C28.7717 8.93988 43.9344 0.485077 63.4147 0.497345H63.4034ZM63.0748 19.6617C50.4165 19.6617 40.9615 25.5593 34.7098 37.3543C28.4582 49.1494 25.3324 64.2151 25.3324 82.5517C25.3324 102.176 28.496 118.634 34.8232 131.925C41.1505 145.217 51.0077 151.873 64.395 151.893C89.8513 151.893 102.579 130.135 102.579 86.6176C102.587 41.9763 89.4225 19.6577 63.0861 19.6617H63.0748Z" fill="black"/>
<path d="M162.988 333.244C160.804 328.916 163.284 323.614 166.136 319.75C168.987 315.887 172.463 311.876 172.389 306.953C172.283 299.889 165.266 295.714 159.67 291.964C155.508 289.184 151.669 285.887 148.233 282.141C146.795 280.698 145.605 278.995 144.72 277.11C143.559 274.346 143.596 271.202 143.66 268.177C143.904 258.085 144.37 248.009 145.059 237.948" stroke="#2F2E41" stroke-width="4" stroke-miterlimit="10"/>
<path d="M134.396 237.393C134.476 235.547 134.989 233.753 135.888 232.175C136.788 230.596 138.044 229.286 139.542 228.363L141.853 233.247L141.784 227.332C142.886 226.988 144.034 226.841 145.181 226.896C147.218 226.998 149.182 227.744 150.823 229.039C152.464 230.334 153.709 232.119 154.4 234.171C155.092 236.222 155.199 238.446 154.708 240.562C154.217 242.678 153.149 244.591 151.641 246.059C150.133 247.527 148.252 248.484 146.235 248.809C144.218 249.134 142.156 248.812 140.31 247.885C138.464 246.957 136.917 245.465 135.865 243.598C134.812 241.73 134.301 239.571 134.396 237.393Z" fill="#15234A"/>
<path d="M152.786 312.023C153.868 314.271 155.64 316.052 157.805 317.069C159.97 318.086 162.396 318.276 164.677 317.607C166.957 316.939 168.953 315.453 170.33 313.398C171.708 311.343 172.382 308.845 172.24 306.322C172.099 303.798 171.15 301.404 169.553 299.54C167.956 297.676 165.808 296.455 163.469 296.083C161.13 295.711 158.742 296.21 156.707 297.496C154.671 298.782 153.111 300.777 152.288 303.146L158.732 308.749L151.63 306.982C151.633 308.737 152.03 310.466 152.786 312.023Z" fill="#15234A"/>
<path d="M157.879 290.604C159.232 290.672 160.584 290.454 161.858 289.963C163.132 289.473 164.304 288.718 165.305 287.743C166.307 286.769 167.119 285.593 167.695 284.282C168.271 282.972 168.6 281.553 168.663 280.107C168.744 278.38 168.439 276.658 167.773 275.082C167.157 273.61 166.247 272.299 165.106 271.243C163.965 270.187 162.621 269.411 161.17 268.97L161.228 273.502L158.891 268.562C156.158 268.425 153.487 269.454 151.465 271.423C149.442 273.392 148.234 276.138 148.106 279.059C147.978 281.98 148.941 284.835 150.783 286.997C152.624 289.159 155.194 290.451 157.926 290.587L157.879 290.604Z" fill="#15234A"/>
<path d="M132.843 272.799C134.212 272.897 135.585 272.701 136.883 272.224C138.18 271.747 139.376 270.998 140.399 270.021C141.422 269.045 142.253 267.859 142.843 266.535C143.433 265.211 143.77 263.774 143.834 262.31C143.898 260.845 143.688 259.381 143.217 258.003C142.745 256.626 142.021 255.363 141.088 254.289C140.154 253.214 139.03 252.349 137.779 251.745C136.529 251.14 135.179 250.808 133.808 250.768C131.88 250.668 129.966 251.153 128.285 252.168L130.108 257.504L126.356 253.657C124.342 255.62 123.14 258.356 123.012 261.265C122.965 262.286 123.055 263.308 123.277 264.302C123.79 266.638 125.002 268.731 126.728 270.264C128.454 271.798 130.601 272.688 132.843 272.799Z" fill="#15234A"/>
<path opacity="0.1" d="M135.784 240.333C138.164 240.611 140.475 241.404 142.865 241.563C145.255 241.721 147.878 241.11 149.389 239.121C150.205 238.056 150.608 236.702 151.296 235.535C151.947 234.449 152.839 233.552 153.893 232.924C154.555 234.321 154.931 235.853 154.996 237.418C155.06 238.983 154.812 240.544 154.268 241.999C153.724 243.453 152.896 244.766 151.84 245.852C150.783 246.937 149.523 247.77 148.142 248.294C146.761 248.817 145.291 249.021 143.831 248.89C142.371 248.759 140.954 248.297 139.674 247.535C138.394 246.772 137.28 245.727 136.408 244.469C135.535 243.211 134.923 241.768 134.613 240.237C135.005 240.26 135.392 240.288 135.784 240.333Z" fill="black"/>
<path opacity="0.1" d="M132.843 272.799C134.62 272.886 136.388 272.48 137.975 271.621C139.563 270.762 140.915 269.48 141.902 267.897C142.889 266.315 143.477 264.487 143.608 262.591C143.74 260.694 143.411 258.794 142.653 257.073C141.836 257.665 141.132 258.419 140.581 259.294C139.844 260.478 139.399 261.849 138.535 262.937C136.945 264.959 134.184 265.616 131.698 265.497C129.213 265.378 126.807 264.619 124.326 264.364C123.982 264.33 123.632 264.308 123.267 264.296C123.779 266.635 124.992 268.731 126.72 270.265C128.448 271.8 130.598 272.69 132.843 272.799Z" fill="black"/>
<path opacity="0.1" d="M157.879 290.604C159.232 290.672 160.584 290.454 161.858 289.963C163.132 289.473 164.304 288.718 165.305 287.743C166.307 286.769 167.119 285.593 167.695 284.282C168.271 282.972 168.6 281.553 168.663 280.107C168.744 278.38 168.439 276.658 167.773 275.082C166.923 275.688 166.184 276.456 165.595 277.348C164.795 278.555 164.291 279.948 163.353 281.064C161.615 283.132 158.69 283.863 156.056 283.795C153.422 283.727 151.042 283.07 148.504 282.86C149.133 285.024 150.37 286.928 152.048 288.314C153.725 289.7 155.761 290.499 157.879 290.604Z" fill="black"/>
<path opacity="0.1" d="M152.786 312.023C153.986 314.544 156.047 316.476 158.542 317.418C161.037 318.361 163.775 318.242 166.191 317.086C168.606 315.931 170.513 313.827 171.518 311.21C172.523 308.593 172.548 305.664 171.589 303.027C170.74 303.625 169.977 304.352 169.326 305.186C168.346 306.466 167.699 307.916 166.565 309.106C164.445 311.315 161.053 312.227 158.022 312.312C156.273 312.328 154.524 312.231 152.786 312.023Z" fill="black"/>
<path d="M45.1173 326.64C42.8224 322.312 45.4292 317.01 48.4259 313.146C51.4227 309.283 55.0768 305.272 54.9988 300.349C54.8874 293.285 47.5125 289.11 41.6303 285.359C37.2557 282.58 33.2206 279.283 29.6099 275.536C28.0978 274.093 26.8476 272.39 25.9168 270.506C24.697 267.741 24.7359 264.597 24.8028 261.572C25.059 251.481 25.5492 241.405 26.2733 231.344" stroke="#2F2E41" stroke-width="4" stroke-miterlimit="10"/>
<path d="M15.066 230.789C15.1498 228.943 15.6891 227.148 16.6344 225.57C17.5796 223.992 18.9003 222.681 20.4746 221.759L22.9033 226.642L22.8309 220.728C23.9893 220.384 25.1957 220.236 26.4013 220.292C28.5428 220.394 30.6064 221.139 32.3312 222.434C34.056 223.729 35.3646 225.515 36.0914 227.566C36.8182 229.617 36.9307 231.842 36.4146 233.958C35.8984 236.074 34.7769 237.987 33.1918 239.455C31.6067 240.923 29.6291 241.88 27.5093 242.205C25.3894 242.53 23.2223 242.208 21.2822 241.28C19.3421 240.353 17.716 238.861 16.6095 236.993C15.503 235.126 14.9659 232.967 15.066 230.789Z" fill="#15234A"/>
<path d="M34.3945 305.419C35.5318 307.666 37.3944 309.448 39.6699 310.465C41.9454 311.481 44.4955 311.671 46.8924 311.003C49.2894 310.335 51.3874 308.848 52.8348 306.794C54.2822 304.739 54.9909 302.24 54.8421 299.717C54.6933 297.194 53.696 294.8 52.0174 292.935C50.3389 291.071 48.0811 289.851 45.6228 289.479C43.1645 289.106 40.6551 289.605 38.5154 290.891C36.3757 292.177 34.7359 294.172 33.8708 296.542L40.6442 302.145L33.1801 300.377C33.1833 302.132 33.5997 303.861 34.3945 305.419Z" fill="#15234A"/>
<path d="M39.7472 284C41.1693 284.068 42.5905 283.85 43.9297 283.359C45.269 282.868 46.5001 282.114 47.5527 281.139C48.6053 280.164 49.4588 278.988 50.0644 277.678C50.6701 276.368 51.016 274.949 51.0825 273.503C51.1668 271.776 50.846 270.054 50.1467 268.478C49.4991 267.005 48.5422 265.695 47.3431 264.639C46.144 263.583 44.732 262.807 43.2063 262.365L43.2675 266.897L40.8111 261.957H40.7833C39.3613 261.89 37.9401 262.108 36.6008 262.599C35.2616 263.089 34.0305 263.844 32.978 264.819C31.9254 265.793 31.0719 266.969 30.4662 268.28C29.8605 269.59 29.5146 271.008 29.448 272.455C29.3814 273.901 29.5956 275.346 30.0782 276.708C30.5609 278.07 31.3026 279.322 32.2611 280.393C33.2195 281.463 34.376 282.331 35.6642 282.947C36.9525 283.563 38.3475 283.915 39.7695 283.983L39.7472 284Z" fill="#15234A"/>
<path d="M13.4338 266.195C14.8727 266.292 16.3161 266.096 17.6798 265.619C19.0434 265.142 20.2998 264.394 21.3755 263.417C22.4511 262.44 23.3245 261.255 23.9443 259.931C24.5642 258.607 24.9183 257.17 24.9857 255.705C25.0531 254.24 24.8325 252.776 24.337 251.399C23.8414 250.022 23.0807 248.759 22.0994 247.684C21.1182 246.609 19.936 245.745 18.6221 245.14C17.3082 244.536 15.889 244.204 14.4475 244.164C12.4217 244.063 10.4093 244.549 8.64335 245.563L10.5595 250.899L6.61586 247.053C4.49923 249.015 3.23502 251.751 3.10102 254.661C3.05169 255.681 3.14547 256.704 3.37954 257.697C3.9186 260.033 5.19184 262.126 7.00622 263.66C8.8206 265.193 11.0772 266.083 13.4338 266.195Z" fill="#15234A"/>
<path opacity="0.1" d="M16.5252 233.729C19.0263 234.007 21.4549 234.8 23.967 234.958C26.4792 235.117 29.2365 234.505 30.824 232.517C31.6818 231.452 32.1051 230.098 32.8293 228.931C33.5131 227.844 34.4508 226.947 35.5587 226.319C36.2545 227.717 36.6495 229.249 36.7175 230.813C36.7854 232.378 36.5247 233.94 35.9527 235.394C35.3807 236.848 34.5106 238.162 33.4002 239.247C32.2899 240.333 30.965 241.165 29.5135 241.689C28.0621 242.213 26.5176 242.416 24.9828 242.285C23.4481 242.154 21.9584 241.692 20.613 240.93C19.2676 240.168 18.0974 239.123 17.1803 237.864C16.2631 236.606 15.6202 235.164 15.2943 233.633C15.7064 233.655 16.1131 233.684 16.5252 233.729Z" fill="black"/>
<path opacity="0.1" d="M13.4336 266.195C15.3015 266.282 17.1598 265.876 18.8281 265.017C20.4964 264.158 21.9181 262.875 22.9555 261.293C23.9928 259.711 24.6105 257.883 24.7487 255.986C24.8868 254.09 24.5408 252.189 23.7441 250.469C22.8853 251.061 22.146 251.815 21.5661 252.69C20.7919 253.874 20.324 255.245 19.416 256.332C17.745 258.355 14.8429 259.012 12.2304 258.893C9.61802 258.774 7.08912 258.015 4.48227 257.76C4.1202 257.726 3.75257 257.703 3.36823 257.692C3.90677 260.03 5.18126 262.126 6.99797 263.661C8.81468 265.196 11.0744 266.086 13.4336 266.195Z" fill="black"/>
<path opacity="0.1" d="M39.7472 284C41.1692 284.068 42.5905 283.85 43.9297 283.359C45.269 282.868 46.5001 282.114 47.5527 281.139C48.6053 280.164 49.4588 278.988 50.0644 277.678C50.6701 276.368 51.016 274.949 51.0825 273.503C51.1668 271.776 50.846 270.054 50.1467 268.478C49.2529 269.083 48.4768 269.852 47.8574 270.744C47.0163 271.95 46.4871 273.344 45.5012 274.46C43.6742 276.528 40.5994 277.259 37.831 277.191C35.1462 277.134 32.5616 276.465 29.8935 276.256C30.5549 278.42 31.8555 280.324 33.6186 281.71C35.3816 283.095 37.5215 283.895 39.7472 284Z" fill="black"/>
<path opacity="0.1" d="M34.3943 305.419C35.6557 307.94 37.8216 309.872 40.444 310.814C43.0665 311.756 45.9448 311.637 48.4834 310.482C51.0221 309.326 53.0268 307.222 54.0829 304.606C55.139 301.989 55.1657 299.059 54.1574 296.423C53.265 297.02 52.4636 297.747 51.7789 298.581C50.7484 299.862 50.0689 301.312 48.8768 302.502C46.6488 304.711 43.0838 305.623 39.8977 305.708C38.0592 305.723 36.2215 305.627 34.3943 305.419Z" fill="black"/>
<path d="M441.32 322.417C443.484 318.089 441.026 312.787 438.2 308.923C435.374 305.06 431.928 301.049 432.002 296.126C432.107 289.062 439.061 284.887 444.608 281.137C448.734 278.357 452.539 275.06 455.944 271.314C457.37 269.87 458.549 268.168 459.427 266.283C460.577 263.519 460.54 260.375 460.477 257.349C460.236 247.258 459.774 237.182 459.091 227.121" stroke="#2F2E41" stroke-width="4" stroke-miterlimit="10"/>
<path d="M469.66 226.566C469.581 224.72 469.072 222.926 468.181 221.347C467.289 219.769 466.044 218.459 464.559 217.536L462.269 222.419L462.337 216.505C461.245 216.161 460.107 216.014 458.97 216.069C456.951 216.171 455.005 216.917 453.378 218.212C451.752 219.506 450.517 221.292 449.832 223.343C449.147 225.395 449.041 227.619 449.527 229.735C450.014 231.851 451.072 233.764 452.567 235.232C454.061 236.7 455.926 237.657 457.925 237.982C459.924 238.307 461.968 237.985 463.798 237.057C465.627 236.13 467.161 234.638 468.204 232.771C469.248 230.903 469.754 228.744 469.66 226.566Z" fill="#15234A"/>
<path d="M451.432 301.196C450.359 303.444 448.603 305.225 446.457 306.242C444.311 307.259 441.906 307.449 439.646 306.78C437.386 306.112 435.407 304.626 434.042 302.571C432.677 300.516 432.009 298.017 432.149 295.494C432.29 292.971 433.23 290.577 434.813 288.713C436.396 286.849 438.525 285.628 440.843 285.256C443.162 284.884 445.528 285.382 447.546 286.668C449.564 287.954 451.11 289.95 451.926 292.319L445.538 297.922L452.577 296.154C452.574 297.91 452.182 299.638 451.432 301.196Z" fill="#15234A"/>
<path d="M446.384 279.777C445.043 279.845 443.703 279.627 442.44 279.136C441.177 278.645 440.016 277.891 439.023 276.916C438.03 275.942 437.226 274.765 436.654 273.455C436.083 272.145 435.757 270.726 435.694 269.28C435.615 267.553 435.917 265.831 436.577 264.255C437.188 262.782 438.09 261.472 439.221 260.416C440.352 259.36 441.683 258.584 443.122 258.143L443.064 262.675L445.381 257.735C448.089 257.598 450.737 258.627 452.741 260.596C454.746 262.564 455.944 265.311 456.07 268.232C456.197 271.153 455.243 274.008 453.417 276.17C451.592 278.332 449.045 279.623 446.337 279.76L446.384 279.777Z" fill="#15234A"/>
<path d="M471.946 254.038C470.589 254.135 469.227 253.939 467.941 253.462C466.655 252.985 465.471 252.237 464.456 251.26C463.442 250.283 462.618 249.098 462.034 247.774C461.449 246.45 461.115 245.013 461.052 243.548C460.988 242.083 461.196 240.619 461.663 239.242C462.131 237.865 462.848 236.602 463.773 235.527C464.699 234.452 465.814 233.588 467.053 232.983C468.292 232.379 469.63 232.047 470.989 232.007C472.891 231.912 474.779 232.397 476.437 233.406L474.63 238.743L478.375 234.913C480.367 236.871 481.559 239.601 481.69 242.504C481.736 243.525 481.648 244.547 481.427 245.54C480.919 247.876 479.718 249.97 478.007 251.503C476.296 253.036 474.168 253.926 471.946 254.038Z" fill="#15234A"/>
<path opacity="0.1" d="M467.747 229.506C465.388 229.784 463.098 230.577 460.729 230.736C458.36 230.894 455.76 230.282 454.263 228.294C453.454 227.229 453.055 225.875 452.372 224.708C451.727 223.622 450.842 222.724 449.798 222.096C449.142 223.494 448.769 225.026 448.705 226.591C448.641 228.155 448.887 229.717 449.426 231.171C449.966 232.626 450.786 233.939 451.833 235.025C452.88 236.11 454.13 236.942 455.499 237.466C456.867 237.99 458.324 238.193 459.771 238.063C461.218 237.932 462.623 237.47 463.892 236.707C465.161 235.945 466.264 234.9 467.129 233.642C467.994 232.383 468.6 230.941 468.908 229.41C468.519 229.433 468.136 229.461 467.747 229.506Z" fill="black"/>
<path opacity="0.1" d="M471.296 263.47C469.535 263.556 467.782 263.151 466.209 262.292C464.636 261.433 463.295 260.15 462.317 258.568C461.338 256.986 460.756 255.158 460.626 253.261C460.495 251.365 460.822 249.464 461.573 247.744C462.383 248.336 463.08 249.09 463.627 249.965C464.357 251.149 464.798 252.519 465.655 253.607C467.23 255.629 469.967 256.287 472.431 256.168C474.894 256.049 477.279 255.29 479.738 255.035C480.079 255.001 480.426 254.978 480.788 254.967C480.28 257.305 479.078 259.401 477.365 260.936C475.652 262.471 473.521 263.36 471.296 263.47Z" fill="black"/>
<path opacity="0.1" d="M446.384 279.777C445.043 279.845 443.703 279.627 442.44 279.136C441.177 278.645 440.016 277.891 439.023 276.916C438.03 275.942 437.225 274.765 436.654 273.455C436.083 272.145 435.757 270.726 435.694 269.28C435.615 267.553 435.917 265.831 436.577 264.255C437.42 264.861 438.152 265.629 438.736 266.521C439.529 267.728 440.028 269.121 440.958 270.237C442.681 272.305 445.58 273.036 448.191 272.968C450.723 272.911 453.16 272.243 455.676 272.033C455.053 274.197 453.826 276.101 452.163 277.487C450.501 278.872 448.483 279.672 446.384 279.777Z" fill="black"/>
<path opacity="0.1" d="M451.432 301.196C450.243 303.717 448.2 305.649 445.727 306.591C443.254 307.534 440.54 307.415 438.146 306.259C435.752 305.104 433.861 303 432.865 300.383C431.869 297.766 431.844 294.837 432.795 292.2C433.636 292.798 434.392 293.525 435.038 294.359C436.01 295.639 436.65 297.089 437.775 298.279C439.876 300.488 443.238 301.4 446.242 301.485C447.976 301.501 449.709 301.404 451.432 301.196Z" fill="black"/>
<path d="M290.099 266.189C290.087 264.816 290.424 263.459 291.081 262.227C291.739 260.996 292.699 259.923 293.885 259.097C294.032 253.902 298.038 249.659 303.191 249.002C303.589 247.237 304.482 245.6 305.781 244.255C307.081 242.911 308.74 241.906 310.592 241.343C311.042 241.211 311.503 241.11 311.97 241.042H312.105L312.344 241.014H312.546H312.748H313.012H313.171H313.606C318.862 241.014 323.237 244.73 324.137 249.631C327.537 248.905 330.656 249.846 331.213 251.834C331.357 252.361 331.325 252.916 331.121 253.426C330.545 254.967 328.671 256.44 326.128 257.171L325.797 257.261C325.632 257.306 325.467 257.34 325.301 257.374H325.191C326.126 259.217 326.258 261.322 325.562 263.253C324.865 265.183 323.392 266.793 321.448 267.747C321.524 267.786 321.598 267.829 321.668 267.877C321.982 268.144 322.233 268.468 322.403 268.829C323.018 269.826 323.495 270.89 323.825 271.996C324.07 272.942 324.113 273.933 324.437 274.868C324.995 276.567 326.428 278.057 326.594 279.864C326.667 280.669 326.526 281.615 327.145 282.164C327.299 282.287 327.463 282.399 327.635 282.499C328.069 282.773 328.436 283.128 328.714 283.541C328.894 283.882 329.137 284.193 329.43 284.459C329.988 284.85 330.907 284.81 331.183 285.41C331.458 286.011 330.748 286.719 330.913 287.376C331.048 287.909 331.679 288.152 332.138 288.509C332.652 289.025 333.011 289.655 333.18 290.339C334.095 290.502 335.038 290.477 335.941 290.264C336.845 290.052 337.686 289.657 338.406 289.11C338.159 289.693 337.978 290.299 337.867 290.917C338.596 290.197 339.796 289.988 340.685 289.614C341.83 289.128 342.853 288.426 343.687 287.552L342.082 287.348L349.188 277.377L351.284 276.981L349.403 280.318C349.557 280.386 349.692 280.486 349.798 280.609C349.904 280.733 349.978 280.877 350.015 281.031C350.117 281.401 350.142 281.786 350.089 282.164C349.989 283.059 349.828 283.946 349.605 284.821L349.06 287.166C349.013 287.387 348.954 287.604 348.882 287.818C349.592 287.794 350.303 287.869 350.989 288.039C352.398 287.557 353.865 287.236 355.358 287.081C355.686 287.028 356.023 287.044 356.344 287.127C356.708 287.282 357.024 287.52 357.263 287.818C358.488 289.128 359.576 290.543 360.51 292.044C364.327 298.185 369.424 303.544 374.196 309.095C377.493 310.336 380.813 311.514 384.14 312.681L391.289 315.202C392.717 315.707 394.199 316.222 395.719 316.131C396.405 316.092 397.238 315.995 397.624 316.534C397.812 316.8 397.958 317.09 398.059 317.395C398.31 317.395 398.561 317.451 398.794 317.463H398.837C399.29 316.42 399.683 315.304 400.552 314.545C400.728 314.57 400.893 314.635 401.034 314.734C401.176 314.833 401.288 314.963 401.361 315.112C401.533 315.406 401.637 315.729 401.833 316.001C402.219 316.522 402.887 316.777 403.365 317.219C403.842 317.661 404.143 318.352 404.657 318.783C405.378 319.267 406.222 319.57 407.108 319.661C408.434 319.949 409.713 320.399 410.912 320.998C411.354 321.249 411.828 321.451 412.321 321.598C412.865 321.694 413.421 321.712 413.969 321.649L417.756 321.394C418.092 321.353 418.434 321.367 418.766 321.434C419.156 321.566 419.488 321.814 419.71 322.139C419.932 322.464 420.031 322.847 419.992 323.23C419.946 323.609 419.816 323.976 419.61 324.307C419.405 324.638 419.128 324.927 418.797 325.156C418.14 325.601 417.413 325.951 416.641 326.192C413.351 327.371 409.959 328.29 406.501 328.94V329.648C404.105 330.764 401.459 331.346 398.776 331.347C398.578 331.362 398.38 331.329 398.2 331.251C397.952 331.079 397.78 330.829 397.716 330.549C396.913 328.327 396.404 326.023 396.203 323.688C395.73 323.66 395.266 323.551 394.837 323.366C393.532 323.037 392.239 323.864 390.897 324C389.243 324.164 387.705 323.275 386.143 322.725C385.916 322.646 385.69 322.578 385.463 322.51C385.909 323.043 386.435 323.514 387.025 323.909C387.675 324.34 388.404 324.657 389.041 325.105C389.57 325.552 390.138 325.959 390.738 326.323C391.161 326.505 391.597 326.66 392.043 326.787C392.689 327.005 393.306 327.292 393.881 327.643C394.395 327.923 394.832 328.311 395.155 328.776C395.318 328.992 395.418 329.244 395.446 329.507C395.474 329.77 395.428 330.034 395.314 330.276C395.2 330.518 395.02 330.729 394.793 330.889C394.566 331.049 394.298 331.152 394.016 331.189C393.504 331.273 392.982 331.286 392.466 331.228C390.419 331.087 388.379 330.911 386.339 330.741C385.475 330.688 384.617 330.574 383.772 330.401C383.325 330.299 382.884 330.163 382.437 330.056C381.674 329.87 380.891 329.761 380.102 329.733C379.873 329.716 379.643 329.737 379.422 329.795C378.944 329.937 378.608 330.362 378.124 330.475C377.809 330.503 377.492 330.463 377.198 330.356C375.705 330.056 374.181 329.906 372.653 329.909C371.985 329.875 371.201 329.756 370.888 329.183C370.508 328.475 371.145 327.682 371.397 326.917C371.525 326.431 371.595 325.934 371.605 325.433C371.721 324.199 372.105 322.999 372.732 321.904C373.066 321.393 373.347 320.854 373.572 320.295C370.644 319.265 367.843 317.951 365.215 316.375C363.708 315.508 362.152 314.573 360.449 314.256C358.464 313.888 356.417 314.375 354.463 314.896C349.808 316.142 345.229 317.619 340.746 319.321C338.602 320.131 336.457 320.992 334.264 321.587C333.623 322.387 332.847 323.087 331.967 323.66C330.496 324.538 328.701 324.793 326.974 324.918C324.64 325.115 322.296 325.196 319.953 325.161C318.164 325.133 316.32 325.02 314.721 324.266C314.33 324.081 313.962 323.857 313.624 323.598C312.399 323.802 311.143 323.196 310.181 322.419C308.908 321.418 307.99 320.086 307.547 318.596C306.983 316.551 307.418 314.166 306.058 312.494C305.697 312.047 305.225 311.684 304.869 311.231C304.432 310.624 304.217 309.903 304.257 309.175L304.196 309.09C303.888 308.432 303.682 307.738 303.583 307.028C303.422 306.473 303.217 305.929 302.97 305.402C302.28 303.821 301.678 302.208 301.169 300.57C300.815 299.483 300.537 298.376 300.336 297.256C300.189 296.361 300.103 295.46 300.023 294.559C299.925 293.149 299.629 291.757 299.141 290.418C297.932 287.222 297.248 283.877 297.113 280.493C297.113 280.425 297.113 280.363 297.113 280.295C295.335 280.115 293.693 279.327 292.509 278.087C291.325 276.846 290.684 275.242 290.711 273.588C290.71 272.59 290.935 271.604 291.373 270.693C290.528 269.321 290.088 267.768 290.099 266.189ZM324.744 305.113C324.64 305.459 324.517 305.804 324.394 306.15C324.958 305.634 325.516 305.102 326.085 304.592C325.859 304.654 325.632 304.722 325.411 304.796C325.177 304.882 324.951 304.988 324.738 305.113H324.744ZM327.488 303.414C330.833 300.728 334.705 298.644 338.13 296.049C336.292 296.905 334.454 297.896 332.616 298.848C330.476 299.981 328.311 301.064 326.122 302.099C326.481 302.603 326.938 303.041 327.47 303.391L327.488 303.414ZM326.061 296.65L325.902 296.497C325.902 296.876 325.902 297.233 325.902 297.556C326.202 297.465 326.514 297.375 326.802 297.273C326.538 297.073 326.288 296.857 326.055 296.627L326.061 296.65ZM355.511 303.923C354.133 302.483 352.935 300.904 351.939 299.216C350.616 301.363 348.459 302.909 346.621 304.705C349.574 304.32 352.533 304.02 355.505 303.901L355.511 303.923Z" fill="url(#paint0_linear)"/>
<path d="M350.732 277.808L348.619 278.205L341.42 288.039L344.6 288.435L350.732 277.808Z" fill="#2F2E41"/>
<path d="M401.919 317.723C401.349 319.466 400.647 321.17 399.818 322.822C397.432 322.36 395.086 321.741 392.797 320.969C393.24 320.331 393.727 319.72 394.255 319.139C394.818 318.561 395.49 318.083 396.24 317.729C396.969 317.434 397.869 317.655 398.647 317.695C399.738 317.733 400.828 317.742 401.919 317.723Z" fill="#FBBEBE"/>
<path d="M396.227 320.352C397.416 320.006 398.145 318.896 398.629 317.825C399.113 316.755 399.505 315.588 400.424 314.8C400.599 314.826 400.764 314.891 400.905 314.989C401.046 315.088 401.159 315.218 401.233 315.367C401.41 315.65 401.514 315.973 401.717 316.245C402.096 316.755 402.77 317.004 403.254 317.44C403.738 317.876 404.039 318.539 404.559 318.975C405.282 319.456 406.126 319.756 407.01 319.848C408.345 320.127 409.635 320.569 410.845 321.162C411.293 321.402 411.77 321.592 412.266 321.728C412.814 321.825 413.374 321.842 413.927 321.779L417.743 321.524C418.083 321.485 418.427 321.501 418.76 321.57C419.149 321.695 419.481 321.937 419.704 322.258C419.926 322.578 420.025 322.958 419.986 323.337C419.935 323.715 419.8 324.079 419.589 324.405C419.378 324.732 419.096 325.015 418.76 325.235C418.097 325.674 417.366 326.017 416.592 326.255C413.266 327.411 409.845 328.315 406.36 328.957V329.654C403.939 330.762 401.276 331.343 398.574 331.353C398.364 331.37 398.153 331.337 397.961 331.257C397.713 331.089 397.539 330.843 397.471 330.566C396.555 328.091 396.021 325.508 395.884 322.895C395.814 322.235 395.868 321.568 396.044 320.924C396.252 320.29 395.541 320.556 396.203 320.307" fill="#2F2E41"/>
<path d="M323.053 307.05C334.368 307.685 345.543 304.615 356.877 304.286C358.284 304.207 359.696 304.291 361.08 304.535C362.523 304.893 363.92 305.394 365.246 306.031C371.317 308.642 377.603 310.806 383.882 312.97L391.087 315.452C392.533 315.944 394.022 316.449 395.559 316.364C396.246 316.324 397.085 316.228 397.477 316.76C398.647 318.363 398.09 320.726 397.318 322.527C397.067 323.094 396.644 323.745 395.97 323.813C395.493 323.783 395.026 323.673 394.591 323.49C393.28 323.167 391.969 323.983 390.622 324.113C388.949 324.278 387.399 323.399 385.825 322.861C383.215 321.972 380.36 322 377.615 321.575C373.008 320.867 368.744 318.89 364.749 316.636C363.23 315.78 361.686 314.862 359.946 314.551C357.943 314.188 355.878 314.664 353.912 315.18C349.223 316.407 344.608 317.861 340.084 319.536C337.73 320.482 335.316 321.295 332.855 321.972C327.492 323.278 321.819 322.972 316.657 321.1C314.819 320.437 312.883 319.27 312.779 317.463C312.717 316.432 313.581 315.525 314.157 314.63C314.531 314.064 314.898 313.497 315.303 312.959C317.251 310.33 319.616 306.858 323.053 307.05Z" fill="#2F2E41"/>
<path opacity="0.1" d="M323.053 307.05C334.368 307.685 345.543 304.615 356.877 304.286C358.284 304.207 359.696 304.291 361.08 304.535C362.523 304.893 363.92 305.394 365.246 306.031C371.317 308.642 377.603 310.806 383.882 312.97L391.087 315.452C392.533 315.944 394.022 316.449 395.559 316.364C396.246 316.324 397.085 316.228 397.477 316.76C398.647 318.363 398.09 320.726 397.318 322.527C397.067 323.094 396.644 323.745 395.97 323.813C395.493 323.783 395.026 323.673 394.591 323.49C393.28 323.167 391.969 323.983 390.622 324.113C388.949 324.278 387.399 323.399 385.825 322.861C383.215 321.972 380.36 322 377.615 321.575C373.008 320.867 368.744 318.89 364.749 316.636C363.23 315.78 361.686 314.862 359.946 314.551C357.943 314.188 355.878 314.664 353.912 315.18C349.223 316.407 344.608 317.861 340.084 319.536C337.73 320.482 335.316 321.295 332.855 321.972C327.492 323.278 321.819 322.972 316.657 321.1C314.819 320.437 312.883 319.27 312.779 317.463C312.717 316.432 313.581 315.525 314.157 314.63C314.531 314.064 314.898 313.497 315.303 312.959C317.251 310.33 319.616 306.858 323.053 307.05Z" fill="black"/>
<path d="M380.2 318.233C378.428 318.788 376.643 319.302 374.846 319.774C373.835 318.239 371.948 317.174 371.519 315.423C371.495 315.348 371.495 315.267 371.519 315.191C371.566 315.117 371.636 315.057 371.721 315.021C373.013 314.362 374.446 313.975 375.918 313.888C377.082 313.82 377.609 314.942 378.136 315.729C378.319 316.046 379.728 318.38 380.2 318.233Z" fill="#FBBEBE"/>
<path d="M377.707 317.111C378.236 317.03 378.741 316.847 379.189 316.575C379.637 316.303 380.019 315.947 380.31 315.531C380.562 315.129 380.825 314.585 381.327 314.613C381.83 314.642 382.001 315.151 382.105 315.576C382.445 317.163 382.935 318.72 383.57 320.227C384.21 321.739 385.294 323.056 386.7 324.028C387.356 324.448 388.085 324.765 388.728 325.207C389.264 325.649 389.838 326.05 390.444 326.408C390.87 326.588 391.31 326.739 391.761 326.861C392.421 327.074 393.052 327.357 393.642 327.705C394.158 327.985 394.597 328.373 394.922 328.838C395.079 329.074 395.171 329.342 395.19 329.618C395.209 329.895 395.155 330.171 395.032 330.424C394.9 330.629 394.723 330.807 394.512 330.944C394.301 331.082 394.06 331.177 393.807 331.223C393.291 331.302 392.765 331.314 392.245 331.257C390.18 331.115 388.122 330.945 386.063 330.775C385.192 330.726 384.325 330.616 383.472 330.447C383.018 330.345 382.577 330.209 382.13 330.101C381.358 329.919 380.567 329.813 379.771 329.784C379.54 329.768 379.308 329.789 379.085 329.846C378.607 329.988 378.27 330.413 377.78 330.515C377.464 330.545 377.145 330.506 376.849 330.401C375.342 330.107 373.806 329.959 372.266 329.96C371.592 329.926 370.796 329.807 370.49 329.246C370.104 328.549 370.741 327.767 370.998 327.019C371.125 326.541 371.197 326.051 371.213 325.558C371.329 324.341 371.714 323.159 372.346 322.085C372.873 321.19 373.571 320.205 373.222 319.253C373.034 318.956 372.915 318.626 372.873 318.284C372.959 316.749 376.775 317.315 377.707 317.111Z" fill="#2F2E41"/>
<path d="M340.017 290.271C342.021 289.453 343.627 287.978 344.526 286.13C344.71 285.733 344.869 285.32 345.047 284.917C345.643 283.588 346.566 282.405 347.742 281.462C347.868 281.334 348.023 281.232 348.195 281.165C348.367 281.097 348.554 281.065 348.741 281.071C348.922 281.121 349.085 281.214 349.214 281.342C349.344 281.469 349.434 281.626 349.476 281.796C349.581 282.165 349.608 282.55 349.556 282.929C349.451 283.808 349.287 284.68 349.065 285.541L348.514 287.852C348.445 288.207 348.329 288.553 348.171 288.883C347.935 289.271 347.624 289.614 347.252 289.897C346.75 290.327 346.241 290.741 345.727 291.143C345.443 291.381 345.133 291.59 344.801 291.766C344.258 292.005 343.677 292.161 343.08 292.231C340.831 292.616 338.546 293.171 336.653 294.497C336.653 294.497 336.653 292.95 336.696 292.797C336.719 292.349 336.885 291.917 337.174 291.557C337.885 290.849 339.11 290.639 340.017 290.271Z" fill="#FBBEBE"/>
<path opacity="0.1" d="M340.017 290.271C342.021 289.453 343.627 287.978 344.526 286.13C344.71 285.733 344.869 285.32 345.047 284.917C345.643 283.588 346.566 282.405 347.742 281.462C347.868 281.334 348.023 281.232 348.195 281.165C348.367 281.097 348.554 281.065 348.741 281.071C348.922 281.121 349.085 281.214 349.214 281.342C349.344 281.469 349.434 281.626 349.476 281.796C349.581 282.165 349.608 282.55 349.556 282.929C349.451 283.808 349.287 284.68 349.065 285.541L348.514 287.852C348.445 288.207 348.329 288.553 348.171 288.883C347.935 289.271 347.624 289.614 347.252 289.897C346.75 290.327 346.241 290.741 345.727 291.143C345.443 291.381 345.133 291.59 344.801 291.766C344.258 292.005 343.677 292.161 343.08 292.231C340.831 292.616 338.546 293.171 336.653 294.497C336.653 294.497 336.653 292.95 336.696 292.797C336.719 292.349 336.885 291.917 337.174 291.557C337.885 290.849 339.11 290.639 340.017 290.271Z" fill="black"/>
<path d="M316.981 272.596C315.462 272.596 314.23 271.45 314.23 270.036C314.23 268.622 315.462 267.475 316.981 267.475C318.5 267.475 319.732 268.622 319.732 270.036C319.732 271.45 318.5 272.596 316.981 272.596Z" fill="#2F2E41"/>
<path d="M318.685 268.489C319.423 268.333 320.198 268.436 320.86 268.778C321.177 269.038 321.43 269.359 321.601 269.718C322.22 270.697 322.701 271.744 323.034 272.834C323.28 273.769 323.322 274.743 323.647 275.667C324.211 277.366 325.657 278.811 325.822 280.584C325.896 281.377 325.755 282.312 326.379 282.85C326.535 282.97 326.701 283.078 326.876 283.173C327.311 283.443 327.68 283.794 327.96 284.204C328.147 284.572 328.407 284.904 328.726 285.184C329.29 285.569 330.215 285.529 330.49 286.124C330.766 286.719 330.055 287.41 330.221 288.056C330.356 288.583 330.993 288.826 331.446 289.189C331.963 289.695 332.324 290.318 332.494 290.996C333.414 291.156 334.361 291.13 335.269 290.92C336.178 290.71 337.026 290.32 337.756 289.778C336.991 291.529 336.972 293.46 336.942 295.347C336.853 295.95 337.027 296.561 337.426 297.046C335.232 297.092 333.1 297.613 330.962 298.083C330.048 298.366 329.058 298.366 328.144 298.083C327.655 297.839 327.217 297.517 326.851 297.131C325.687 296.038 324.468 294.865 324.186 293.341C324.112 292.484 324.095 291.623 324.137 290.764C324.025 289.703 323.789 288.656 323.433 287.642C322.817 285.537 322.407 283.385 322.207 281.213C322.079 279.87 320.829 278.794 320.167 277.593C318.942 275.327 317.655 272.976 317.557 270.438C317.472 269.611 317.778 268.597 318.685 268.489Z" fill="#2F2E41"/>
<path opacity="0.1" d="M318.685 268.489C319.423 268.333 320.198 268.436 320.86 268.778C321.177 269.038 321.43 269.359 321.601 269.718C322.22 270.697 322.701 271.744 323.034 272.834C323.28 273.769 323.322 274.743 323.647 275.667C324.211 277.366 325.657 278.811 325.822 280.584C325.896 281.377 325.755 282.312 326.379 282.85C326.535 282.97 326.701 283.078 326.876 283.173C327.311 283.443 327.68 283.794 327.96 284.204C328.147 284.572 328.407 284.904 328.726 285.184C329.29 285.569 330.215 285.529 330.49 286.124C330.766 286.719 330.055 287.41 330.221 288.056C330.356 288.583 330.993 288.826 331.446 289.189C331.963 289.695 332.324 290.318 332.494 290.996C333.414 291.156 334.361 291.13 335.269 290.92C336.178 290.71 337.026 290.32 337.756 289.778C336.991 291.529 336.972 293.46 336.942 295.347C336.853 295.95 337.027 296.561 337.426 297.046C335.232 297.092 333.1 297.613 330.962 298.083C330.048 298.366 329.058 298.366 328.144 298.083C327.655 297.839 327.217 297.517 326.851 297.131C325.687 296.038 324.468 294.865 324.186 293.341C324.112 292.484 324.095 291.623 324.137 290.764C324.025 289.703 323.789 288.656 323.433 287.642C322.817 285.537 322.407 283.385 322.207 281.213C322.079 279.87 320.829 278.794 320.167 277.593C318.942 275.327 317.655 272.976 317.557 270.438C317.472 269.611 317.778 268.597 318.685 268.489Z" fill="black"/>
<path d="M321.258 309.254C323.616 308.217 325.338 306.286 327.243 304.632C330.882 301.471 335.33 299.239 339.153 296.276C341.683 294.316 343.95 292.033 346.738 290.39C349.189 288.944 351.97 288.042 354.861 287.756C355.192 287.702 355.531 287.718 355.854 287.801C356.219 287.952 356.537 288.186 356.779 288.481C358.014 289.768 359.112 291.162 360.057 292.645C364.903 300.247 371.783 306.643 377.486 313.718C377.669 313.885 377.778 314.109 377.79 314.346C377.803 314.583 377.718 314.816 377.554 314.998L376.396 317.1C375.746 318.273 374.705 319.644 373.333 319.411C372.703 319.244 372.139 318.911 371.709 318.454L366.502 313.848L361.043 309.022C357.845 306.189 354.592 303.3 352.503 299.686C350.873 302.298 347.981 304.008 345.996 306.405C345.243 307.311 344.63 308.314 343.956 309.277C342.872 310.823 341.647 312.274 340.421 313.718L334.154 321.111C333.363 322.164 332.383 323.084 331.256 323.83C329.774 324.697 327.966 324.929 326.22 325.071C323.868 325.269 321.506 325.349 319.144 325.309C317.343 325.28 315.468 325.173 313.875 324.431C312.283 323.688 310.929 322.165 311.014 320.505C311.112 319.635 311.42 318.797 311.915 318.052C314.127 314.256 317.055 311.084 321.258 309.254Z" fill="#2F2E41"/>
<path d="M315.291 273.775C314.123 273.775 313.177 272.894 313.177 271.809C313.177 270.723 314.123 269.843 315.291 269.843C316.458 269.843 317.404 270.723 317.404 271.809C317.404 272.894 316.458 273.775 315.291 273.775Z" fill="#E8E8F0"/>
<path d="M315.756 270.33C315.278 271.209 315.195 272.227 315.523 273.163C315.85 274.083 316.307 274.959 316.883 275.769C317.379 276.604 317.973 277.387 318.654 278.103C315.388 278.25 312.221 277.066 309.342 275.627C307.02 274.494 304.704 273.049 303.466 270.891C303.835 270.972 304.217 270.981 304.59 270.918C304.962 270.855 305.316 270.72 305.629 270.523C306.252 270.121 306.811 269.641 307.289 269.095L308.925 267.396C309.311 267.023 309.651 266.61 309.936 266.167C310.294 265.563 310.446 264.874 310.371 264.189C311.022 264.82 311.75 265.379 312.54 265.855C313.71 266.563 314.99 267.073 316.173 267.77C316.589 268.019 317.514 268.421 317.275 268.903C317.036 269.384 316.087 269.786 315.756 270.33Z" fill="#FBBEBE"/>
<path opacity="0.1" d="M315.756 270.33C315.278 271.209 315.195 272.227 315.523 273.163C315.85 274.083 316.307 274.959 316.883 275.769C317.379 276.604 317.973 277.387 318.654 278.103C315.388 278.25 312.221 277.066 309.342 275.627C307.02 274.494 304.704 273.049 303.466 270.891C303.835 270.972 304.217 270.981 304.59 270.918C304.962 270.855 305.316 270.72 305.629 270.523C306.252 270.121 306.811 269.641 307.289 269.095L308.925 267.396C309.311 267.023 309.651 266.61 309.936 266.167C310.294 265.563 310.446 264.874 310.371 264.189C311.022 264.82 311.75 265.379 312.54 265.855C313.71 266.563 314.99 267.073 316.173 267.77C316.589 268.019 317.514 268.421 317.275 268.903C317.036 269.384 316.087 269.786 315.756 270.33Z" fill="black"/>
<path d="M315.713 270.625C316.044 271.056 316.221 271.572 316.221 272.101C316.221 272.629 316.044 273.145 315.713 273.576C315.621 273.684 315.272 274.358 315.101 274.364C314.956 274.352 314.822 274.289 314.727 274.188C313.987 273.473 313.295 272.716 312.656 271.922C312.011 271.118 311.077 270.552 310.022 270.325C308.741 270.138 307.51 270.766 306.389 271.367C305.907 271.588 305.488 271.91 305.164 272.307C304.927 272.701 304.787 273.138 304.753 273.588C304.431 276.288 304.309 279.006 304.386 281.722C304.326 283.681 304.465 285.64 304.802 287.574C305.01 288.571 305.323 289.546 305.47 290.554C305.577 291.442 305.62 292.335 305.599 293.228V296.967C305.626 297.652 305.572 298.337 305.439 299.012C305.186 299.816 304.89 300.609 304.551 301.385C304.253 302.31 304.048 303.258 303.938 304.218L303.387 308.087C303.209 309.311 303.081 310.642 303.883 311.622C304.239 312.07 304.716 312.421 305.108 312.863C306.487 314.483 306.027 316.834 306.64 318.845C307.093 320.321 308.021 321.634 309.299 322.612C310.273 323.377 311.535 323.983 312.797 323.745C314.494 323.45 315.517 321.813 315.983 320.267C316.449 318.72 316.596 317.032 317.619 315.735C318.44 314.664 319.708 313.996 320.853 313.231C321.999 312.466 323.126 311.486 323.378 310.194C323.488 309.628 323.42 309.061 323.482 308.495C323.573 307.773 323.872 307.087 324.349 306.509C324.825 305.931 325.461 305.482 326.19 305.209C327.06 304.898 328.138 304.784 328.64 304.076C327.393 303.352 326.484 302.222 326.092 300.91C325.711 299.616 325.506 298.284 325.479 296.944L325.185 292.446C325.056 290.435 324.995 288.441 324.039 286.634C323.61 285.83 323.077 285.07 322.636 284.272C322.045 283.151 321.542 281.992 321.129 280.805C320.437 278.964 319.738 277.117 319.12 275.253C318.872 274.35 318.502 273.48 318.017 272.664C317.447 271.814 316.694 270.795 315.713 270.625Z" fill="#E8E8F0"/>
<path d="M326.514 299.85L325.228 299.89L324.952 298.094C324.915 297.735 324.825 297.382 324.683 297.046C324.469 296.692 324.221 296.356 323.941 296.043C322.673 294.389 322.765 292.191 322.453 290.18C322.036 287.501 320.823 284.985 319.622 282.516L317.122 277.366C316.9 276.943 316.721 276.501 316.589 276.046C316.48 275.545 316.429 275.034 316.436 274.522C316.436 273.729 316.155 270.834 316.136 270.036C316.136 269.741 316.835 269.905 316.982 269.645C317.294 269.078 317.723 270.619 318.311 270.959C318.865 271.351 319.269 271.897 319.463 272.517C320.002 273.814 320.333 275.179 320.835 276.482C321.276 277.817 322.08 279.024 323.169 279.989C323.678 280.408 324.272 280.737 324.756 281.179C326.312 282.601 326.459 284.844 326.514 286.844C326.551 288.084 326.802 299.85 326.514 299.85Z" fill="#2F2E41"/>
<path d="M307.982 268.478C309.207 268.931 309.918 270.177 310.267 271.39C310.616 272.602 310.763 273.882 311.437 274.958C313.005 277.485 317.006 278.221 318.115 280.952C318.397 281.874 318.548 282.826 318.562 283.784C318.758 285.739 319.457 287.631 319.665 289.585C319.773 291.106 319.734 292.632 319.549 294.146L318.146 309.571C317.874 311.843 318.016 314.141 318.568 316.369C317.13 316.561 315.662 316.337 314.366 315.729C313.048 315.163 311.848 314.415 310.586 313.769C308.411 312.636 306.009 311.871 304.11 310.37C303.765 310.122 303.469 309.821 303.234 309.481C302.929 308.832 302.723 308.148 302.621 307.447C302.46 306.901 302.255 306.367 302.008 305.849C301.305 304.295 300.691 302.706 300.171 301.091C299.814 300.019 299.533 298.928 299.331 297.822C299.178 296.944 299.098 296.055 299.013 295.171C298.915 293.781 298.616 292.409 298.124 291.092C296.909 287.95 296.221 284.655 296.084 281.32C296.042 280.838 296.077 280.354 296.188 279.881C296.4 279.309 296.684 278.761 297.034 278.25C297.616 277.236 297.965 276.12 298.516 275.094C299.742 272.772 301.941 271.01 304.239 269.531C305.415 268.812 306.707 268.03 307.982 268.478Z" fill="#2F2E41"/>
<path d="M337.229 293.647C338.224 293.166 339.125 292.534 339.894 291.778C340.243 291.398 340.507 290.973 340.887 290.599C341.786 289.713 342.954 289.097 344.238 288.832C345.513 288.572 346.817 288.456 348.122 288.486C348.994 288.431 349.869 288.529 350.701 288.775C351.119 288.902 351.495 289.124 351.795 289.421C352.095 289.718 352.309 290.081 352.417 290.475C352.607 291.438 351.927 292.373 351.112 292.984C350.354 293.557 349.463 293.958 348.508 294.157C347.729 294.282 346.944 294.367 346.155 294.412C341.524 294.86 337.388 297.188 333.333 299.312C329.767 301.174 326.132 302.917 322.428 304.541C322.281 303.516 322.219 302.482 322.244 301.448C322.244 300.677 322.305 299.499 323.095 299.046C324.014 298.513 325.546 298.394 326.563 298.077C328.951 297.357 331.282 296.486 333.541 295.471C334.821 294.899 336.047 294.293 337.229 293.647Z" fill="#FBBEBE"/>
<path d="M316.982 269.452C312.424 269.452 308.729 266.015 308.729 261.776C308.729 257.537 312.424 254.1 316.982 254.1C321.539 254.1 325.234 257.537 325.234 261.776C325.234 266.015 321.539 269.452 316.982 269.452Z" fill="#FBBEBE"/>
<path d="M305.623 277.179C306.28 278.033 306.817 278.96 307.222 279.938C308.245 281.881 309.844 283.547 310.641 285.603C311.486 287.739 311.456 290.282 313.091 291.965C313.42 292.22 313.668 292.553 313.808 292.928C313.818 293.162 313.847 293.394 313.894 293.624C314.127 294.236 315.211 294.265 315.413 294.888C315.468 295.069 315.413 295.267 315.511 295.454C315.677 295.856 316.247 295.913 316.632 296.157C317.435 296.661 317.245 297.828 317.858 298.553C318.107 298.822 318.428 299.026 318.79 299.143C319.151 299.261 319.54 299.288 319.916 299.221C320.667 299.075 321.39 298.825 322.06 298.479C322.296 298.357 322.557 298.281 322.826 298.258C323.146 298.265 323.456 298.362 323.715 298.536C325.24 299.431 325.957 301.21 325.945 302.887C325.837 304.564 325.408 306.209 324.676 307.747C324.59 308.013 324.446 308.26 324.254 308.472C323.751 308.965 322.869 308.886 322.195 308.608C321.564 308.263 320.892 307.985 320.192 307.781C318.918 307.566 317.668 308.382 316.375 308.314C315.429 308.181 314.539 307.817 313.796 307.26C312.484 306.523 311.309 305.595 310.316 304.513C309.752 303.827 309.336 303.045 308.84 302.315C308.206 301.417 307.51 300.558 306.757 299.743L301.996 294.355C301.519 293.845 301.09 293.297 300.716 292.718C300.287 291.935 299.952 291.11 299.717 290.26C299.207 288.84 298.876 287.37 298.731 285.881C298.707 284.647 298.824 283.415 299.08 282.204C299.24 281 299.585 279.823 300.103 278.709C301.163 276.726 303.681 275.083 305.623 277.179Z" fill="#2F2E41"/>
<path d="M289.045 267.18C289.038 265.819 289.381 264.477 290.046 263.262C290.711 262.048 291.678 260.997 292.867 260.196C292.903 257.779 293.866 255.454 295.584 253.633C297.302 251.812 299.663 250.614 302.247 250.254C302.747 247.965 304.104 245.913 306.079 244.459C308.055 243.005 310.522 242.242 313.046 242.305C315.57 242.368 317.989 243.252 319.876 244.803C321.764 246.353 323 248.47 323.365 250.78C326.796 250.067 329.933 250.996 330.502 252.95C331.115 254.995 328.664 257.386 325.038 258.292C323.901 258.589 322.717 258.698 321.539 258.615C320.696 259.76 319.603 260.73 318.331 261.461C317.058 262.193 315.635 262.671 314.151 262.864C313.715 264.712 312.73 266.41 311.307 267.768C309.883 269.127 308.078 270.09 306.094 270.551C305.546 271.777 304.694 272.868 303.607 273.735C303.607 273.973 303.65 274.216 303.65 274.466C303.689 275.336 303.538 276.206 303.205 277.021C302.872 277.836 302.364 278.581 301.711 279.21C301.059 279.839 300.275 280.34 299.408 280.682C298.541 281.024 297.608 281.2 296.666 281.2C295.723 281.2 294.79 281.024 293.923 280.682C293.056 280.34 292.273 279.839 291.621 279.21C290.968 278.581 290.46 277.836 290.127 277.021C289.794 276.206 289.642 275.336 289.682 274.466C289.681 273.488 289.909 272.522 290.349 271.633C289.488 270.285 289.037 268.746 289.045 267.18Z" fill="#15234A"/>
<path opacity="0.1" d="M328.174 253.341C327.604 251.387 324.498 250.458 321.037 251.171C320.634 248.825 319.348 246.686 317.405 245.131C315.463 243.576 312.989 242.706 310.42 242.674C310.181 242.674 309.942 242.674 309.709 242.674C310.702 242.394 311.734 242.252 312.772 242.255C315.341 242.287 317.815 243.157 319.758 244.712C321.701 246.266 322.987 248.406 323.389 250.752C326.82 250.038 329.957 250.967 330.527 252.922C331.139 254.967 328.689 257.357 325.062 258.264C324.387 258.437 323.696 258.547 322.997 258.592C326.44 257.663 328.756 255.341 328.174 253.341Z" fill="black"/>
<path opacity="0.1" d="M301.322 274.862C301.322 274.613 301.322 274.369 301.279 274.126C302.366 273.261 303.218 272.173 303.767 270.948C305.749 270.482 307.552 269.516 308.975 268.158C310.398 266.799 311.384 265.102 311.823 263.255C313.307 263.063 314.731 262.585 316.004 261.854C317.276 261.122 318.369 260.152 319.212 259.006C319.898 259.056 320.588 259.039 321.27 258.955C320.423 260.011 319.358 260.9 318.135 261.571C316.913 262.242 315.559 262.681 314.151 262.864C313.715 264.712 312.73 266.41 311.307 267.768C309.884 269.127 308.078 270.09 306.095 270.551C305.546 271.777 304.694 272.868 303.607 273.735C303.607 273.973 303.65 274.216 303.65 274.466C303.682 276.202 302.969 277.88 301.667 279.132C300.365 280.385 298.581 281.11 296.703 281.15C298.073 280.661 299.25 279.797 300.075 278.674C300.901 277.55 301.336 276.22 301.322 274.862Z" fill="#131F43"/>
<path d="M313.206 264.589C312.645 264.195 312.651 263.316 313.218 262.626C313.784 261.936 314.698 261.696 315.259 262.089C315.819 262.483 315.814 263.362 315.247 264.052C314.68 264.742 313.766 264.982 313.206 264.589Z" fill="#FBBEBE"/>
<path d="M504.509 317.07L496.601 312.635C497.67 310.891 499.036 309.331 500.644 308.018L515.559 312.442L503.874 305.888C506.768 304.376 510.024 303.609 513.322 303.662C516.621 303.716 519.848 304.588 522.686 306.192C525.524 307.797 527.875 310.079 529.509 312.813C531.142 315.548 532 318.642 532 321.789C532 331.799 523.492 332.145 513 332.145C502.509 332.145 494 331.799 494 321.789C493.994 319.252 494.55 316.742 495.633 314.425L504.509 317.07Z" fill="#15234A"/>
<path opacity="0.1" d="M502.497 326.803C503.339 325.997 504.28 325.292 505.299 324.701C506.73 323.789 508.22 322.86 509.913 322.554C511.397 322.282 512.929 322.514 514.443 322.429C517.072 322.276 519.547 321.194 521.384 319.393C522.464 318.328 523.313 317.019 524.614 316.204C526.067 315.38 527.782 315.08 529.447 315.359C529.929 315.424 530.407 315.516 530.878 315.637C531.622 317.61 532.002 319.692 532 321.789C532 331.799 523.492 332.145 513 332.145C507.906 332.145 503.286 332.065 499.872 330.836L500.466 329.822C501.005 328.737 501.688 327.722 502.497 326.803Z" fill="black"/>
<defs>
<linearGradient id="paint0_linear" x1="355.039" y1="331.353" x2="355.039" y2="240.918" gradientUnits="userSpaceOnUse">
<stop stop-color="#808080" stop-opacity="0.25"/>
<stop offset="0.54" stop-color="#808080" stop-opacity="0.12"/>
<stop offset="1" stop-color="#808080" stop-opacity="0.1"/>
</linearGradient>
</defs>
</svg>
