<svg width="510" height="496" fill="none" xmlns="http://www.w3.org/2000/svg"><path d="M143.848 280.914v136.74l-22.843 37.275-1.739 2.836H29.134l-1.821-176.851h116.535z" fill="#E6E6E6"/><path opacity=".1" d="M365.962 280.914v136.74l22.843 37.276 1.402-174.016h-24.245z" fill="#000"/><path d="M361.44 277.267v136.741l22.843 37.275 1.738 2.835h90.132l1.822-176.851H361.44z" fill="#E6E6E6"/><path opacity=".1" d="M458.37 277.267v136.741l-22.843 37.275-1.402-174.016h24.245z" fill="#000"/><path d="M0 274.533v8.204h489.81v-11.851l-45.521-23.702H40.059L0 274.533z" fill="#E6E6E6"/><path opacity=".1" d="M509.81 274.533v8.203H20v-11.85l489.81 3.647z" fill="#000"/><path d="M419.707 315.554h21.85l9.105-6.381h-40.97l10.015 6.381zM419.707 341.991h21.85l9.105-6.381h-40.97l10.015 6.381zM419.707 379.367h21.85l9.105-6.382h-40.97l10.015 6.382zM419.707 416.742h21.85l9.105-6.381h-40.97l10.015 6.381zM85.58 319.201H63.73l-9.105-6.382h40.97l-10.015 6.382zM85.58 345.637H63.73l-9.105-6.381h40.97l-10.015 6.381zM85.58 383.013H63.73l-9.105-6.381h40.97l-10.015 6.381zM85.58 420.389H63.73l-9.105-6.381h40.97l-10.015 6.381zM70.7 89.057h183.95a6.949 6.949 0 0 1 6.427 4.3c.35.845.53 1.751.529 2.666v124.073a6.96 6.96 0 0 1-6.956 6.966h-69.829l2.616 16.724s14.951 7.953 4.439 8.187c-10.513.234-60.037 0-60.037 0s-9.577 0 5.607-8.421l2.461-16.49H70.701a6.95 6.95 0 0 1-6.428-4.3 6.972 6.972 0 0 1-.529-2.666V96.023a6.973 6.973 0 0 1 2.037-4.926 6.955 6.955 0 0 1 4.92-2.04z" fill="#3F3D56"/><path d="M70.402 96.425h184.547v103.387H70.402V96.425zM162.675 94.32a1.169 1.169 0 1 1 .002-2.338 1.169 1.169 0 0 1-.002 2.338zM162.675 222.033a4.441 4.441 0 0 1-4.438-4.445 4.441 4.441 0 0 1 4.438-4.444 4.441 4.441 0 0 1 4.439 4.444 4.442 4.442 0 0 1-4.439 4.445z" fill="#F2F2F2"/><path d="M89.59 264.603v2.34h125.68v-1.872l-.173-.468-3.098-8.42H92.16l-2.57 8.42zM271.094 262.075c-.229.98-1.094 2.014-3.047 2.992-7.008 3.508-21.258-.936-21.258-.936s-10.979-1.871-10.979-6.783c.308-.212.63-.403.963-.573 2.946-1.561 12.715-5.412 30.037.163a7.23 7.23 0 0 1 3.293 2.16 3.46 3.46 0 0 1 .991 2.977z" fill="#3F3D56"/><path opacity=".1" d="M271.094 262.075c-8.578 3.291-16.224 3.537-24.071-1.92a17.209 17.209 0 0 0-10.251-3.38c2.947-1.561 12.716-5.412 30.038.163a7.23 7.23 0 0 1 3.293 2.16 3.46 3.46 0 0 1 .991 2.977z" fill="#000"/><path d="M260.339 260.155c1.677 0 3.037-.419 3.037-.936 0-.517-1.36-.935-3.037-.935-1.678 0-3.037.418-3.037.935 0 .517 1.359.936 3.037.936z" fill="#F2F2F2"/><path opacity=".1" d="M89.59 264.604v2.339h125.68v-1.872l-.173-.467H89.591z" fill="#000"/><path d="M431.137.021a6.308 6.308 0 0 1 3.662.82c1.09.747 1.776 2.055 2.477 3.273a39.16 39.16 0 0 0 10.656 12.052c3.166 2.323 7.191 5.218 6.649 9.5a12.826 12.826 0 0 1-1.543 4.01c-2.921 5.904-10.891 10.466-10.107 17.203-2.902-4.864.98-7.27-1.922-12.134-1.382-2.316-3.783-4.931-5.869-3.476-.699.487-1.158 1.36-1.885 1.788-1.736 1.02-3.582-.93-5.119-2.311-5.298-4.762-12.832-3.515-19.425-2.031-3.112.7-6.531 1.62-8.371 4.598-2.419 3.916 2.299 8.146 3.491 12.573a2.413 2.413 0 0 1-2.586 3.003c-1.978-.195-4.322-.356-4.439-1.225-2.489.089-5.538-.193-6.605-2.788a10.922 10.922 0 0 1-.511-3.173c-.391-4.36-2.239-8.336-3.463-12.485-1.224-4.148-1.756-9.01.309-12.689a14.688 14.688 0 0 1 2.707-3.293C400.965 1.877 416.376.004 431.137.02z" fill="#2F2E41"/><path d="M440.382 55.388s-2.55 21.271 6.798 22.973c9.347 1.702-8.498 30.632-8.498 30.632l-42.488 5.105 10.197-34.035s6.798-2.553 2.549-19.57c-4.249-17.017 31.442-5.105 31.442-5.105zM466.3 420.836l-3.4 46.798h-17.844l5.098-46.798H466.3zM335.436 332.346l-2.549 39.14-19.545-8.509 7.648-32.333 14.446 1.702z" fill="#FFB8B8"/><path d="M479.046 242.154s-.849 49.35-5.948 65.516c-5.099 16.167-4.249 17.018-3.399 19.57.85 2.553 1.699.851 1.699 5.106 0 4.254 1.7 71.473 0 77.429-1.699 5.956 5.099 16.166 0 17.017-5.098.851-28.892 0-29.742-5.105-.849-5.105 6.799-6.807 3.4-10.21-3.4-3.404-8.498-73.175-8.498-73.175l-11.897-48.5-22.094-25.526H355.83l-14.446 56.158s5.948 16.166 1.699 16.166c-4.249 0-29.742 5.105-29.742-13.614s8.498-74.025 10.197-75.727c1.7-1.702-.849-7.658 1.7-10.211 2.549-2.552 32.291-20.421 43.338-23.824 11.047-3.403 26.544-7.454 26.544-7.454l83.926 36.384z" fill="#15234A"/><path d="M313.342 356.17s12.746-4.254 18.695 8.509c5.948 12.763 3.399 16.166 3.399 16.166s-19.545 6.807-22.944 3.404c-1.479-1.481-6.175-1.995-11.008-2.104-7.362-.166-9.321-10.595-2.368-13.023a6.91 6.91 0 0 1 .63-.189c6.798-1.702 13.596-12.763 13.596-12.763z" fill="#2F2E41"/><path d="M421.262 69.427c-14.079 0-25.493-11.428-25.493-25.526 0-14.098 11.414-25.526 25.493-25.526 14.08 0 25.493 11.428 25.493 25.526 0 14.098-11.413 25.526-25.493 25.526z" fill="#FFB8B8"/><path d="M454.403 88.997s-41.639 8.509-51.836-5.105c-10.197-13.614-14.446 38.289-14.446 38.289l-5.099 54.456 7.648 29.78s39.94 32.333 52.686 34.886c12.747 2.552 32.291 4.254 32.291 4.254s-5.948-94.446-5.948-96.148c0-1.702-15.296-60.412-15.296-60.412z" fill="#3F3D56"/><path d="M441.74 73.04s9.265-5.315 11.814-.21c2.549 5.106 26.343 17.869 28.892 17.869 2.55 0-5.098 70.622-1.699 79.131 3.399 8.508 19.544 70.622 10.197 75.727-9.348 5.105-2.549-5.105-11.897 7.658-9.347 12.763-55.235 12.763-57.784 7.658-2.55-5.105 20.394-43.395 16.145-79.131-4.248-35.737-11.047-85.087-5.098-91.894 5.948-6.807 9.43-16.809 9.43-16.809zM411.065 78.787l-1.184-4.079s-35.356 11.737-37.056 19.394c-1.699 7.658-.85 61.263 5.099 65.517 5.948 4.255 14.446 11.062 8.498 21.272-5.949 10.21-12.747 21.272-17.846 22.123-5.098.85-14.446 6.807-11.896 12.763 2.549 5.956 33.141-5.106 33.141-5.106s20.394-15.315 19.544-39.14c-.849-23.824 1.7-92.744 1.7-92.744z" fill="#15234A"/><path d="M381.323 179.189l20.394 38.289s29.742 30.632 12.747 34.035c-16.995 3.404-26.343-28.079-26.343-28.079l-22.094-31.482 15.296-12.763z" fill="#FFB8B8"/><path d="M429.895 6.7a5.778 5.778 0 0 1 2.981.58 6.96 6.96 0 0 1 2.017 2.313 29.37 29.37 0 0 0 8.674 8.518c2.577 1.642 5.854 3.688 5.413 6.715a8.432 8.432 0 0 1-1.256 2.834 22.319 22.319 0 0 0-2.706 13.897l-7.087-10.314c-1.125-1.638-3.079-3.486-4.778-2.458-.568.345-.942.962-1.534 1.264-1.413.721-2.916-.657-4.167-1.633-4.312-3.366-10.446-2.484-15.812-1.435-2.534.495-5.317 1.144-6.815 3.25-2.489 3.498.11 8.553-1.342 12.595a3.714 3.714 0 0 1-1.535-2.452c-2.026.063-4.508-.137-5.376-1.971a6.789 6.789 0 0 1-.416-2.243c-.319-3.08-1.823-5.891-2.82-8.824-.996-2.932-1.429-6.368.252-8.968a10.854 10.854 0 0 1 2.203-2.328c9.542-8.028 22.088-9.352 34.104-9.34z" fill="#2F2E41"/><path d="M381.323 90.699l-7.917 2.104s-18.426 47.246-14.177 79.579c4.249 32.333 6.798 25.526 6.798 25.526s6.798-15.315 22.094-11.912l-6.798-95.297z" fill="#15234A"/><path d="M465.123 461.449c2.049 2.788 1.638 6.774 3.453 9.721 1.574 2.554 4.539 3.893 6.507 6.156a16.519 16.519 0 0 1 1.673 2.409c1.825 3.062 3.309 6.987 1.511 10.065-1.446 2.476-4.486 3.444-7.275 4.104-3.524.834-7.186 1.501-10.75.864-3.565-.637-7.049-2.823-8.321-6.218a23.81 23.81 0 0 0-.889-2.514c-1.932-3.809-7.993-3.85-9.97-7.636-1.384-2.649-.112-5.851 1.159-8.556l3.884-8.261c1.289-2.742 6.514-1.165 9.238-1.822 3.552-.857 7.224-1.801 9.78 1.688z" fill="#2F2E41"/><path d="M493.493 196.207l-35.691 55.306s-22.094 28.079-28.892 15.316c-6.798-12.763 23.794-34.035 23.794-34.035l22.944-42.543 17.845 5.956z" fill="#FFB8B8"/><path d="M475.647 92.4l6.799-1.701s13.596 4.254 16.995 22.122c3.399 17.869.85 89.342-3.399 90.193-4.249.85-20.985-12.445-23.664-9.626-2.679 2.819 5.819-11.646 3.269-19.304-2.549-7.658 0-81.683 0-81.683z" fill="#15234A"/></svg>