<svg width="18" height="17" viewBox="0 0 18 17" fill="none" xmlns="http://www.w3.org/2000/svg">
<path d="M16.578 11.0279C15.4677 11.0279 14.3801 10.8708 13.3493 10.5625C12.8472 10.4053 12.275 10.5273 11.9444 10.8321L9.90093 12.231C7.55715 11.0975 6.05652 9.7381 4.82115 7.62733L6.32273 5.81884C6.70073 5.47534 6.8362 4.9747 6.6742 4.50497C6.33083 3.55922 6.15653 2.56977 6.15788 1.57411C6.15788 0.863939 5.52031 0.286011 4.73683 0.286011H1.42105C0.637578 0.286011 0 0.863939 0 1.57411C0 9.86004 7.43778 16.602 16.5789 16.602C16.7655 16.6019 16.9503 16.5684 17.1227 16.5036C17.295 16.4388 17.4516 16.3438 17.5835 16.2241C17.7153 16.1044 17.8199 15.9623 17.8912 15.806C17.9625 15.6497 17.9991 15.4822 17.999 15.313V12.316C17.999 11.6059 17.3614 11.0279 16.578 11.0279ZM17.0526 15.3139C17.0526 15.4277 17.0027 15.537 16.9139 15.6175C16.825 15.698 16.7045 15.7432 16.5789 15.7432C7.95978 15.7432 0.947367 9.38688 0.947367 1.57411C0.947367 1.46024 0.997273 1.35103 1.08611 1.2705C1.17494 1.18998 1.29542 1.14475 1.42105 1.14475V1.1456H4.73589C4.86152 1.1456 4.982 1.19084 5.07083 1.27136C5.15966 1.35188 5.20957 1.4611 5.20957 1.57497C5.20957 2.67243 5.39904 3.74843 5.77136 4.7686C5.82631 4.92919 5.78178 5.09492 5.60841 5.25808L3.8842 7.32763C3.8308 7.39191 3.79839 7.46851 3.79069 7.54868C3.78298 7.62884 3.80028 7.70936 3.84063 7.78105C5.24557 10.2825 6.95178 11.83 9.73135 13.1207C9.81055 13.1574 9.89956 13.1732 9.98819 13.1662C10.0768 13.1592 10.1615 13.1297 10.2325 13.0812L12.5649 11.4788C12.627 11.4229 12.7049 11.3837 12.7901 11.3657C12.8752 11.3477 12.9642 11.3514 13.0471 11.3766C14.1802 11.7158 15.3682 11.8875 16.5789 11.8875C16.7045 11.8875 16.825 11.9328 16.9139 12.0133C17.0027 12.0938 17.0526 12.203 17.0526 12.3169V15.3139Z" fill="white"/>
<path d="M10.8946 1.14474C14.29 1.14474 17.0525 3.64881 17.0525 6.72652C17.0525 6.84039 17.1024 6.9496 17.1912 7.03013C17.2801 7.11065 17.4006 7.15588 17.5262 7.15588C17.6518 7.15588 17.7723 7.11065 17.8611 7.03013C17.95 6.9496 17.9999 6.84039 17.9999 6.72652C17.9999 3.17479 14.8129 0.286011 10.8946 0.286011C10.769 0.286011 10.6485 0.331248 10.5596 0.41177C10.4708 0.492291 10.4209 0.601503 10.4209 0.715378C10.4209 0.829253 10.4708 0.938464 10.5596 1.01899C10.6485 1.09951 10.769 1.14474 10.8946 1.14474Z" fill="white"/>
<path d="M10.8946 4.57968C12.201 4.57968 13.263 5.54319 13.263 6.72652C13.263 6.8404 13.3129 6.94961 13.4017 7.03013C13.4905 7.11065 13.611 7.15589 13.7366 7.15589C13.8623 7.15589 13.9828 7.11065 14.0716 7.03013C14.1604 6.94961 14.2103 6.8404 14.2103 6.72652C14.2103 5.06916 12.723 3.72095 10.8946 3.72095C10.7689 3.72095 10.6485 3.76618 10.5596 3.84671C10.4708 3.92723 10.4209 4.03644 10.4209 4.15032C10.4209 4.26419 10.4708 4.3734 10.5596 4.45392C10.6485 4.53445 10.7689 4.57968 10.8946 4.57968Z" fill="white"/>
</svg>
