<svg width="127" height="66" viewBox="0 0 127 66" fill="none" xmlns="http://www.w3.org/2000/svg">
<g filter="url(#filter0_d)">
<path d="M16.39 26.51V41.96H9.94V26.51H5V20.28H21.31V26.51H16.39Z" stroke="white"/>
<path d="M38.8201 35.01H29.8101C29.6701 34.55 29.6001 34.14 29.6001 33.76C29.6001 33.23 29.7001 32.71 29.8901 32.2H32.9101C32.7001 31.02 32.0401 30.44 30.9201 30.44C30.1801 30.44 29.5801 30.76 29.1101 31.39C28.6401 32.02 28.4101 32.83 28.4101 33.81C28.4101 34.84 28.6301 35.67 29.0801 36.3C29.5301 36.94 30.1201 37.25 30.8501 37.25C31.4401 37.25 32.0101 36.95 32.5701 36.36L35.9501 40.43C34.3701 41.67 32.6201 42.29 30.6901 42.29C28.3401 42.29 26.3601 41.5 24.7701 39.92C23.1701 38.34 22.3701 36.39 22.3701 34.06C22.3701 31.74 23.1801 29.78 24.7901 28.18C26.4001 26.58 28.3901 25.78 30.7401 25.78C33.0401 25.78 34.9701 26.56 36.5301 28.12C38.0901 29.68 38.8701 31.61 38.8701 33.89C38.8801 34.13 38.8601 34.5 38.8201 35.01Z" stroke="white"/>
<path d="M47.22 20.29V41.9701H41.28V20.29H47.22Z" stroke="white"/>
<path d="M56.64 20.29V41.9701H50.7V20.29H56.64Z" stroke="white"/>
<path d="M70.1201 41.97V27.9C70.1201 25.43 70.8601 23.46 72.3401 21.98C73.8201 20.5 75.7801 19.76 78.2401 19.76C80.6901 19.76 82.5601 20.48 83.8501 21.92C85.1501 23.36 85.8001 25.43 85.8001 28.13V41.98H79.3501V28.13C79.3501 26.81 78.8801 26.14 77.9401 26.14C77.0301 26.14 76.5701 26.8 76.5701 28.13V41.98H70.1201V41.97Z" stroke="white"/>
<path d="M104.84 35.01H95.8301C95.6901 34.55 95.6201 34.14 95.6201 33.76C95.6201 33.23 95.7201 32.71 95.9101 32.2H98.9301C98.7201 31.02 98.0601 30.44 96.9401 30.44C96.2001 30.44 95.6001 30.76 95.1301 31.39C94.6601 32.02 94.4301 32.83 94.4301 33.81C94.4301 34.84 94.6501 35.67 95.1001 36.3C95.5501 36.94 96.1401 37.25 96.8701 37.25C97.4601 37.25 98.0301 36.95 98.5901 36.36L101.97 40.43C100.39 41.67 98.6401 42.29 96.7101 42.29C94.3601 42.29 92.3801 41.5 90.7901 39.92C89.1901 38.34 88.3901 36.39 88.3901 34.06C88.3901 31.74 89.2001 29.78 90.8101 28.18C92.4201 26.58 94.4101 25.78 96.7601 25.78C99.0601 25.78 100.99 26.56 102.55 28.12C104.11 29.68 104.89 31.61 104.89 33.89C104.9 34.13 104.88 34.5 104.84 35.01Z" stroke="white"/>
<path d="M117.18 26.51V41.96H110.73V26.51H105.79V20.28H122.1V26.51H117.18Z" stroke="white"/>
<path d="M60.0801 32.36H66.4401" stroke="white"/>
<path d="M99.3298 10.21C93.6998 3.63001 86.2098 0 78.2198 0C70.2398 0 62.7398 3.62001 57.1098 10.21C56.8098 10.56 56.8098 11.14 57.1098 11.5C57.4098 11.85 57.9097 11.85 58.2097 11.5C63.5497 5.26 70.6498 1.82001 78.2198 1.82001C85.7898 1.82001 92.8898 5.26 98.2298 11.5C98.5298 11.85 99.0198 11.86 99.3298 11.5C99.6398 11.14 99.6398 10.57 99.3298 10.21Z" fill="white"/>
<path d="M63.0899 15.5501C62.8099 15.9001 62.8099 16.4801 63.0899 16.8401C63.3699 17.1901 63.8399 17.1901 64.1199 16.8401C72.1099 6.88006 85.0999 6.88006 93.0899 16.8401C93.3699 17.1901 93.8399 17.1901 94.1199 16.8401C94.3999 16.4901 94.3999 15.9101 94.1199 15.5501C85.5699 4.89005 71.6499 4.89005 63.0899 15.5501Z" fill="white"/>
<path d="M78.1197 15.11C74.3597 15.11 70.8297 17.17 68.1797 20.9C67.9297 21.25 67.9297 21.83 68.1797 22.19C68.4297 22.54 68.8397 22.54 69.0897 22.19C71.4997 18.8 74.6997 16.93 78.1097 16.93C81.5197 16.93 84.7297 18.8 87.1297 22.19C87.3797 22.54 87.7897 22.55 88.0397 22.19C88.2897 21.84 88.2897 21.26 88.0397 20.91C85.4097 17.16 81.8797 15.11 78.1197 15.11Z" fill="white"/>
<path d="M5.36914 49.16H6.84915V57.1201H5.36914V49.16Z" fill="white"/>
<path d="M14.1491 51.6501C14.6091 52.1001 14.8391 52.7601 14.8391 53.6401V57.1201H13.4191V53.8201C13.4191 53.2901 13.2891 52.8901 13.0391 52.6201C12.7891 52.3501 12.4291 52.2201 11.9691 52.2201C11.4491 52.2201 11.0291 52.3801 10.7291 52.6901C10.4291 53.0001 10.2791 53.4601 10.2791 54.0501V57.1201H8.85913V51.0501H10.2091V51.8301C10.4391 51.5501 10.7391 51.3401 11.0991 51.1901C11.4591 51.0501 11.8591 50.9701 12.3091 50.9701C13.0691 50.9801 13.6791 51.2001 14.1491 51.6501Z" fill="white"/>
<path d="M20.2991 56.7901C20.1291 56.9301 19.9291 57.0301 19.6891 57.1001C19.4491 57.1701 19.1991 57.2001 18.9291 57.2001C18.2591 57.2001 17.7491 57.0301 17.3791 56.6801C17.0191 56.3301 16.8291 55.8201 16.8291 55.1601V52.2401H15.8291V51.1001H16.8291V49.7101H18.2491V51.1001H19.8791V52.2401H18.2491V55.1301C18.2491 55.4301 18.3191 55.6501 18.4691 55.8101C18.6091 55.9701 18.8191 56.0401 19.0991 56.0401C19.4191 56.0401 19.6791 55.9601 19.8991 55.7901L20.2991 56.7901Z" fill="white"/>
<path d="M26.9493 54.5401H22.1893C22.2693 54.9901 22.4893 55.3401 22.8393 55.6001C23.1893 55.8601 23.6293 55.9901 24.1493 55.9901C24.8193 55.9901 25.3693 55.7701 25.7993 55.3301L26.5593 56.2101C26.2893 56.5401 25.9393 56.7801 25.5293 56.9501C25.1093 57.1201 24.6393 57.2001 24.1193 57.2001C23.4493 57.2001 22.8593 57.0701 22.3593 56.8001C21.8493 56.5301 21.4593 56.1701 21.1793 55.6901C20.8993 55.2201 20.7593 54.6801 20.7593 54.0801C20.7593 53.4901 20.8893 52.9601 21.1593 52.4801C21.4293 52.0101 21.7993 51.6401 22.2793 51.3701C22.7593 51.1001 23.2993 50.9701 23.8893 50.9701C24.4793 50.9701 25.0093 51.1001 25.4793 51.3601C25.9493 51.6201 26.3093 51.9901 26.5693 52.4601C26.8293 52.9301 26.9593 53.4801 26.9593 54.1001C26.9693 54.2101 26.9693 54.3501 26.9493 54.5401ZM22.7493 52.5201C22.4393 52.7901 22.2393 53.1501 22.1793 53.5901H25.6293C25.5693 53.1501 25.3793 52.7901 25.0693 52.5201C24.7593 52.2501 24.3693 52.1101 23.9093 52.1101C23.4493 52.1101 23.0593 52.2501 22.7493 52.5201Z" fill="white"/>
<path d="M31.8491 50.9801V52.3301C31.7291 52.3101 31.6191 52.3001 31.5191 52.3001C30.9691 52.3001 30.5291 52.4601 30.2191 52.7801C29.9091 53.1001 29.7491 53.5701 29.7491 54.1701V57.1101H28.3291V51.0401H29.6791V51.9301C30.0991 51.2901 30.8191 50.9801 31.8491 50.9801Z" fill="white"/>
<path d="M38.3391 51.6501C38.7991 52.1001 39.0291 52.7601 39.0291 53.6401V57.1201H37.6091V53.8201C37.6091 53.2901 37.4791 52.8901 37.2291 52.6201C36.9791 52.3501 36.6191 52.2201 36.1591 52.2201C35.6391 52.2201 35.2191 52.3801 34.9191 52.6901C34.6191 53.0001 34.4691 53.4601 34.4691 54.0501V57.1201H33.0491V51.0501H34.399V51.8301C34.629 51.5501 34.9291 51.3401 35.2891 51.1901C35.6491 51.0501 36.0491 50.9701 36.4991 50.9701C37.2691 50.9801 37.8791 51.2001 38.3391 51.6501Z" fill="white"/>
<path d="M46.5892 54.5401H41.8292C41.9092 54.9901 42.1292 55.3401 42.4792 55.6001C42.8292 55.8601 43.2692 55.9901 43.7892 55.9901C44.4592 55.9901 45.0092 55.7701 45.4392 55.3301L46.1992 56.2101C45.9292 56.5401 45.5792 56.7801 45.1692 56.9501C44.7492 57.1201 44.2792 57.2001 43.7592 57.2001C43.0892 57.2001 42.4992 57.0701 41.9992 56.8001C41.4892 56.5301 41.0992 56.1701 40.8192 55.6901C40.5392 55.2201 40.3992 54.6801 40.3992 54.0801C40.3992 53.4901 40.5292 52.9601 40.7992 52.4801C41.0692 52.0001 41.4392 51.6401 41.9192 51.3701C42.3992 51.1001 42.9392 50.9701 43.5292 50.9701C44.1192 50.9701 44.6492 51.1001 45.1192 51.3601C45.5892 51.6201 45.9492 51.9901 46.2092 52.4601C46.4692 52.9301 46.5992 53.4801 46.5992 54.1001C46.6092 54.2101 46.5992 54.3501 46.5892 54.5401ZM42.3892 52.5201C42.0792 52.7901 41.8792 53.1501 41.8192 53.5901H45.2692C45.2092 53.1501 45.0192 52.7901 44.7092 52.5201C44.3992 52.2501 44.0092 52.1101 43.5492 52.1101C43.0792 52.1101 42.6992 52.2501 42.3892 52.5201Z" fill="white"/>
<path d="M51.6192 56.7901C51.4492 56.9301 51.2492 57.0301 51.0092 57.1001C50.7692 57.1701 50.5192 57.2001 50.2492 57.2001C49.5792 57.2001 49.0692 57.0301 48.6992 56.6801C48.3392 56.3301 48.1492 55.8201 48.1492 55.1601V52.2401H47.1492V51.1001H48.1492V49.7101H49.5692V51.1001H51.1992V52.2401H49.5692V55.1301C49.5692 55.4301 49.6392 55.6501 49.7892 55.8101C49.9292 55.9701 50.1392 56.0401 50.4192 56.0401C50.7392 56.0401 50.9992 55.9601 51.2192 55.7901L51.6192 56.7901Z" fill="white"/>
<path d="M60.299 51.6201C60.769 52.0501 61.009 52.6901 61.009 53.5601V57.1201H59.669V56.3801C59.499 56.6501 59.249 56.8501 58.929 56.9901C58.609 57.1301 58.219 57.2001 57.759 57.2001C57.309 57.2001 56.909 57.1201 56.569 56.9701C56.229 56.8101 55.969 56.6001 55.779 56.3201C55.589 56.0401 55.499 55.7301 55.499 55.3801C55.499 54.8301 55.699 54.4001 56.109 54.0701C56.519 53.7401 57.149 53.5801 58.029 53.5801H59.599V53.4901C59.599 53.0701 59.469 52.7401 59.219 52.5101C58.969 52.2801 58.589 52.1701 58.089 52.1701C57.749 52.1701 57.409 52.2201 57.079 52.3301C56.749 52.4401 56.469 52.5801 56.239 52.7701L55.679 51.7401C55.999 51.5001 56.379 51.3101 56.829 51.1801C57.279 51.0501 57.749 50.9901 58.249 50.9901C59.149 50.9801 59.829 51.1901 60.299 51.6201ZM59.009 55.9201C59.289 55.7601 59.479 55.5201 59.599 55.2201V54.5201H58.129C57.309 54.5201 56.899 54.7901 56.899 55.3301C56.899 55.5901 56.999 55.7901 57.209 55.9401C57.409 56.0901 57.699 56.1701 58.059 56.1701C58.419 56.1601 58.729 56.0801 59.009 55.9201Z" fill="white"/>
<path d="M68.1191 51.6501C68.5791 52.1001 68.8091 52.7601 68.8091 53.6401V57.1201H67.3891V53.8201C67.3891 53.2901 67.2591 52.8901 67.0091 52.6201C66.7591 52.3501 66.3991 52.2201 65.9391 52.2201C65.4191 52.2201 64.9991 52.3801 64.6991 52.6901C64.3991 53.0001 64.2491 53.4601 64.2491 54.0501V57.1201H62.8291V51.0501H64.1791V51.8301C64.4091 51.5501 64.7091 51.3401 65.0691 51.1901C65.4291 51.0501 65.8291 50.9701 66.2791 50.9701C67.0491 50.9801 67.6591 51.2001 68.1191 51.6501Z" fill="white"/>
<path d="M76.6292 48.6801V57.1201H75.2692V56.33C75.0392 56.62 74.7492 56.83 74.3992 56.98C74.0592 57.12 73.6692 57.2 73.2592 57.2C72.6792 57.2 72.1492 57.0701 71.6892 56.8101C71.2192 56.5501 70.8592 56.1901 70.5892 55.7101C70.3192 55.2301 70.1892 54.69 70.1892 54.08C70.1892 53.47 70.3192 52.92 70.5892 52.45C70.8592 51.98 71.2192 51.62 71.6892 51.36C72.1592 51.1 72.6792 50.9701 73.2592 50.9701C73.6592 50.9701 74.0292 51.04 74.3592 51.17C74.6892 51.31 74.9792 51.5101 75.2092 51.7801V48.66H76.6292V48.6801ZM74.3392 55.7501C74.6092 55.5901 74.8292 55.37 74.9892 55.08C75.1492 54.79 75.2292 54.46 75.2292 54.08C75.2292 53.7 75.1492 53.37 74.9892 53.08C74.8292 52.79 74.6092 52.57 74.3392 52.41C74.0692 52.25 73.7592 52.1801 73.4192 52.1801C73.0792 52.1801 72.7692 52.26 72.4992 52.41C72.2292 52.57 72.0092 52.79 71.8492 53.08C71.6892 53.37 71.6092 53.7 71.6092 54.08C71.6092 54.46 71.6892 54.79 71.8492 55.08C72.0092 55.37 72.2292 55.5901 72.4992 55.7501C72.7692 55.9101 73.0792 55.98 73.4192 55.98C73.7592 55.98 74.0692 55.9001 74.3392 55.7501Z" fill="white"/>
<path d="M82.0592 57.0001C81.5892 56.8701 81.2092 56.7101 80.9292 56.5101L81.4792 55.4301C81.7492 55.6101 82.0792 55.7601 82.4592 55.8701C82.8392 55.9801 83.2192 56.0301 83.5892 56.0301C84.4392 56.0301 84.8592 55.8101 84.8592 55.3601C84.8592 55.1501 84.7492 55.0001 84.5392 54.9201C84.3192 54.8401 83.9792 54.7601 83.4992 54.6801C82.9992 54.6001 82.5892 54.5201 82.2792 54.4201C81.9692 54.3201 81.6892 54.1501 81.4592 53.9001C81.2292 53.6501 81.1092 53.3101 81.1092 52.8701C81.1092 52.2901 81.3492 51.8301 81.8292 51.4901C82.3092 51.1501 82.9592 50.9701 83.7792 50.9701C84.1992 50.9701 84.6092 51.0201 85.0292 51.1101C85.4492 51.2001 85.7892 51.3301 86.0492 51.4901L85.4992 52.5701C84.9792 52.2701 84.3992 52.1201 83.7592 52.1201C83.3392 52.1201 83.0292 52.1801 82.8092 52.3101C82.5892 52.4401 82.4892 52.6001 82.4892 52.8001C82.4892 53.0301 82.6092 53.1901 82.8392 53.2801C83.0692 53.3801 83.4292 53.4601 83.9092 53.5501C84.3992 53.6301 84.7892 53.7101 85.0992 53.8101C85.4092 53.9101 85.6792 54.0801 85.8992 54.3101C86.1192 54.5401 86.2392 54.8801 86.2392 55.3101C86.2392 55.8801 85.9892 56.3301 85.4992 56.6701C85.0092 57.0101 84.3392 57.1801 83.4892 57.1801C83.0092 57.2001 82.5292 57.1301 82.0592 57.0001Z" fill="white"/>
<path d="M93.1693 54.5401H88.4092C88.4892 54.9901 88.7092 55.3401 89.0592 55.6001C89.4092 55.8601 89.8492 55.9901 90.3692 55.9901C91.0392 55.9901 91.5893 55.7701 92.0193 55.3301L92.7792 56.2101C92.5092 56.5401 92.1592 56.7801 91.7492 56.9501C91.3292 57.1201 90.8592 57.2001 90.3392 57.2001C89.6692 57.2001 89.0793 57.0701 88.5793 56.8001C88.0693 56.5301 87.6792 56.1701 87.3992 55.6901C87.1192 55.2201 86.9792 54.6801 86.9792 54.0801C86.9792 53.4901 87.1092 52.9601 87.3792 52.4801C87.6492 52.0101 88.0192 51.6401 88.4992 51.3701C88.9792 51.1001 89.5193 50.9701 90.1093 50.9701C90.6993 50.9701 91.2292 51.1001 91.6992 51.3601C92.1692 51.6201 92.5292 51.9901 92.7892 52.4601C93.0492 52.9301 93.1792 53.4801 93.1792 54.1001C93.1892 54.2101 93.1893 54.3501 93.1693 54.5401ZM88.9692 52.5201C88.6592 52.7901 88.4592 53.1501 88.3992 53.5901H91.8492C91.7892 53.1501 91.5992 52.7901 91.2892 52.5201C90.9792 52.2501 90.5892 52.1101 90.1292 52.1101C89.6692 52.1101 89.2792 52.2501 88.9692 52.5201Z" fill="white"/>
<path d="M98.0691 50.9801V52.3301C97.9491 52.3101 97.8391 52.3001 97.7391 52.3001C97.1891 52.3001 96.7491 52.4601 96.4391 52.7801C96.1291 53.1001 95.9691 53.5701 95.9691 54.1701V57.1101H94.5491V51.0401H95.899V51.9301C96.319 51.2901 97.0391 50.9801 98.0691 50.9801Z" fill="white"/>
<path d="M105.189 51.04L102.589 57.11H101.119L98.519 51.04H99.999L101.889 55.54L103.829 51.04H105.189Z" fill="white"/>
<path d="M106.139 49.8001C105.969 49.6401 105.879 49.4301 105.879 49.1901C105.879 48.9501 105.969 48.7401 106.139 48.5801C106.309 48.4201 106.529 48.3401 106.789 48.3401C107.049 48.3401 107.259 48.4201 107.439 48.5701C107.609 48.7301 107.699 48.9201 107.699 49.1601C107.699 49.4101 107.609 49.6201 107.439 49.7901C107.269 49.9601 107.049 50.0501 106.789 50.0501C106.529 50.0401 106.319 49.9601 106.139 49.8001ZM106.079 51.0401H107.499V57.1101H106.079V51.0401Z" fill="white"/>
<path d="M110.449 56.8001C109.949 56.5301 109.559 56.1701 109.279 55.6901C108.999 55.2201 108.859 54.6801 108.859 54.0801C108.859 53.4801 108.999 52.9501 109.279 52.4801C109.559 52.0101 109.949 51.6401 110.449 51.3801C110.949 51.1101 111.509 50.9801 112.149 50.9801C112.749 50.9801 113.269 51.1001 113.719 51.3401C114.169 51.5801 114.509 51.9301 114.739 52.3901L113.649 53.0301C113.479 52.7501 113.259 52.5401 112.999 52.4001C112.739 52.2601 112.449 52.1901 112.139 52.1901C111.609 52.1901 111.169 52.3601 110.819 52.7101C110.469 53.0501 110.299 53.5201 110.299 54.0901C110.299 54.6701 110.469 55.1301 110.819 55.4701C111.159 55.8101 111.609 55.9901 112.139 55.9901C112.449 55.9901 112.739 55.9201 112.999 55.7801C113.259 55.6401 113.479 55.4301 113.649 55.1501L114.739 55.7901C114.509 56.2401 114.159 56.6001 113.709 56.8401C113.259 57.0901 112.739 57.2101 112.149 57.2101C111.519 57.2001 110.949 57.0601 110.449 56.8001Z" fill="white"/>
<path d="M121.559 54.5401H116.799C116.879 54.9901 117.099 55.3401 117.449 55.6001C117.799 55.8601 118.239 55.9901 118.759 55.9901C119.429 55.9901 119.979 55.7701 120.409 55.3301L121.169 56.2101C120.899 56.5401 120.549 56.7801 120.139 56.9501C119.719 57.1201 119.249 57.2001 118.729 57.2001C118.059 57.2001 117.469 57.0701 116.969 56.8001C116.459 56.5301 116.069 56.1701 115.789 55.6901C115.509 55.2201 115.369 54.6801 115.369 54.0801C115.369 53.4901 115.499 52.9601 115.769 52.4801C116.039 52.0101 116.409 51.6401 116.889 51.3701C117.369 51.1001 117.909 50.9701 118.499 50.9701C119.089 50.9701 119.619 51.1001 120.089 51.3601C120.559 51.6201 120.919 51.9901 121.179 52.4601C121.439 52.9301 121.569 53.4801 121.569 54.1001C121.589 54.2101 121.579 54.3501 121.559 54.5401ZM117.359 52.5201C117.049 52.7901 116.849 53.1501 116.789 53.5901H120.239C120.179 53.1501 119.989 52.7901 119.679 52.5201C119.369 52.2501 118.979 52.1101 118.519 52.1101C118.059 52.1101 117.679 52.2501 117.359 52.5201Z" fill="white"/>
</g>
<defs>
<filter id="filter0_d" x="0.5" y="0" width="126.1" height="65.2101" filterUnits="userSpaceOnUse" color-interpolation-filters="sRGB">
<feFlood flood-opacity="0" result="BackgroundImageFix"/>
<feColorMatrix in="SourceAlpha" type="matrix" values="0 0 0 0 0 0 0 0 0 0 0 0 0 0 0 0 0 0 127 0"/>
<feOffset dy="4"/>
<feGaussianBlur stdDeviation="2"/>
<feColorMatrix type="matrix" values="0 0 0 0 0 0 0 0 0 0 0 0 0 0 0 0 0 0 0.25 0"/>
<feBlend mode="normal" in2="BackgroundImageFix" result="effect1_dropShadow"/>
<feBlend mode="normal" in="SourceGraphic" in2="effect1_dropShadow" result="shape"/>
</filter>
</defs>
</svg>
