<?xml version="1.0" encoding="UTF-8" standalone="no"?>
<svg width="127" xmlns="http://www.w3.org/2000/svg" fill="none" viewBox="0 0 127 66" height="66">
 <g filter="url(#filter0_d)">
  <path stroke="#fff" d="m16.39 26.51v15.45h-6.45v-15.45h-4.94v-6.23h16.31v6.23h-4.92z"/>
  <path stroke="#fff" d="m38.82 35.01h-9.01c-0.14-0.46-0.21-0.87-0.21-1.25 0-0.53 0.1-1.05 0.29-1.56h3.02c-0.21-1.18-0.87-1.76-1.99-1.76-0.74 0-1.34 0.32-1.81 0.95s-0.7 1.44-0.7 2.42c0 1.03 0.22 1.86 0.67 2.49 0.45 0.64 1.04 0.95 1.77 0.95 0.59 0 1.16-0.3 1.72-0.89l3.38 4.07c-1.58 1.24-3.33 1.86-5.26 1.86-2.35 0-4.33-0.79-5.92-2.37-1.6-1.58-2.4-3.53-2.4-5.86 0-2.32 0.81-4.28 2.42-5.88s3.6-2.4 5.95-2.4c2.3 0 4.23 0.78 5.79 2.34s2.34 3.49 2.34 5.77c0.01 0.24-0.01 0.61-0.05 1.12z"/>
  <path stroke="#fff" d="m47.22 20.29v21.68h-5.94v-21.68h5.94z"/>
  <path stroke="#fff" d="m56.64 20.29v21.68h-5.94v-21.68h5.94z"/>
  <path stroke="#fff" d="m70.12 41.97v-14.07c0-2.47 0.74-4.44 2.22-5.92s3.44-2.22 5.9-2.22c2.45 0 4.32 0.72 5.61 2.16 1.3 1.44 1.95 3.51 1.95 6.21v13.85h-6.45v-13.85c0-1.32-0.47-1.99-1.41-1.99-0.91 0-1.37 0.66-1.37 1.99v13.85h-6.45v-0.01z"/>
  <path stroke="#fff" d="m104.84 35.01h-9.01c-0.14-0.46-0.21-0.87-0.21-1.25 0-0.53 0.1-1.05 0.29-1.56h3.02c-0.21-1.18-0.87-1.76-1.99-1.76-0.74 0-1.34 0.32-1.81 0.95s-0.7 1.44-0.7 2.42c0 1.03 0.22 1.86 0.67 2.49 0.45 0.64 1.04 0.95 1.77 0.95 0.59 0 1.16-0.3 1.72-0.89l3.38 4.07c-1.58 1.24-3.33 1.86-5.26 1.86-2.35 0-4.33-0.79-5.92-2.37-1.6-1.58-2.4-3.53-2.4-5.86 0-2.32 0.81-4.28 2.42-5.88s3.6-2.4 5.95-2.4c2.3 0 4.23 0.78 5.79 2.34s2.34 3.49 2.34 5.77c0.01 0.24-0.01 0.61-0.05 1.12z"/>
  <path stroke="#fff" d="m117.18 26.51v15.45h-6.45v-15.45h-4.94v-6.23h16.31v6.23h-4.92z"/>
  <path stroke="#fff" d="m60.08 32.36h6.36"/>
  <path d="m99.33 10.21c-5.63-6.58-13.12-10.21-21.11-10.21-7.98 0-15.48 3.62-21.11 10.21-0.3 0.35-0.3 0.93 0 1.29 0.3 0.35 0.8 0.35 1.1 0 5.34-6.24 12.44-9.68 20.01-9.68s14.67 3.44 20.01 9.68c0.3 0.35 0.79 0.36 1.1 0s0.31-0.93 0-1.29z" fill="#fff"/>
  <path d="m63.09 15.55c-0.28 0.35-0.28 0.93 0 1.29 0.28 0.35 0.75 0.35 1.03 0 7.99-9.9599 20.98-9.9599 28.97 0 0.28 0.35 0.75 0.35 1.03 0s0.28-0.93 0-1.29c-8.55-10.66-22.47-10.66-31.03 0z" fill="#fff"/>
  <path d="m78.12 15.11c-3.76 0-7.29 2.06-9.94 5.79-0.25 0.35-0.25 0.93 0 1.29 0.25 0.35 0.66 0.35 0.91 0 2.41-3.39 5.61-5.26 9.02-5.26s6.62 1.87 9.02 5.26c0.25 0.35 0.66 0.36 0.91 0 0.25-0.35 0.25-0.93 0-1.28-2.63-3.75-6.16-5.8-9.92-5.8z" fill="#fff"/>
  <path d="m5.3691 49.16h1.4801v7.96h-1.4801v-7.96z" fill="#fff"/>
  <path d="m14.149 51.65c0.46 0.45 0.69 1.11 0.69 1.99v3.48h-1.42v-3.3c0-0.53-0.13-0.93-0.38-1.2s-0.61-0.4-1.07-0.4c-0.52 0-0.94 0.16-1.24 0.47s-0.45 0.77-0.45 1.36v3.07h-1.4199v-6.07h1.3499v0.78c0.23-0.28 0.53-0.49 0.89-0.64 0.36-0.14 0.76-0.22 1.21-0.22 0.76 0.01 1.37 0.23 1.84 0.68z" fill="#fff"/>
  <path d="m20.299 56.79c-0.17 0.14-0.37 0.24-0.61 0.31s-0.49 0.1-0.76 0.1c-0.67 0-1.18-0.17-1.55-0.52-0.36-0.35-0.55-0.86-0.55-1.52v-2.92h-1v-1.14h1v-1.39h1.42v1.39h1.63v1.14h-1.63v2.89c0 0.3 0.07 0.52 0.22 0.68 0.14 0.16 0.35 0.23 0.63 0.23 0.32 0 0.58-0.08 0.8-0.25l0.4 1z" fill="#fff"/>
  <path d="m26.949 54.54h-4.76c0.08 0.45 0.3 0.8 0.65 1.06s0.79 0.39 1.31 0.39c0.67 0 1.22-0.22 1.65-0.66l0.76 0.88c-0.27 0.33-0.62 0.57-1.03 0.74-0.42 0.17-0.89 0.25-1.41 0.25-0.67 0-1.26-0.13-1.76-0.4-0.51-0.27-0.9-0.63-1.18-1.11-0.28-0.47-0.42-1.01-0.42-1.61 0-0.59 0.13-1.12 0.4-1.6 0.27-0.47 0.64-0.84 1.12-1.11s1.02-0.4 1.61-0.4 1.12 0.13 1.59 0.39 0.83 0.63 1.09 1.1 0.39 1.02 0.39 1.64c0.01 0.11 0.01 0.25-0.01 0.44zm-4.2-2.02c-0.31 0.27-0.51 0.63-0.57 1.07h3.45c-0.06-0.44-0.25-0.8-0.56-1.07s-0.7-0.41-1.16-0.41-0.85 0.14-1.16 0.41z" fill="#fff"/>
  <path d="m31.849 50.98v1.35c-0.12-0.02-0.23-0.03-0.33-0.03-0.55 0-0.99 0.16-1.3 0.48s-0.47 0.79-0.47 1.39v2.94h-1.42v-6.07h1.35v0.89c0.42-0.64 1.14-0.95 2.17-0.95z" fill="#fff"/>
  <path d="m38.339 51.65c0.46 0.45 0.69 1.11 0.69 1.99v3.48h-1.42v-3.3c0-0.53-0.13-0.93-0.38-1.2s-0.61-0.4-1.07-0.4c-0.52 0-0.94 0.16-1.24 0.47s-0.45 0.77-0.45 1.36v3.07h-1.42v-6.07h1.35v0.78c0.23-0.28 0.53-0.49 0.89-0.64 0.36-0.14 0.76-0.22 1.21-0.22 0.77 0.01 1.38 0.23 1.84 0.68z" fill="#fff"/>
  <path d="m46.589 54.54h-4.76c0.08 0.45 0.3 0.8 0.65 1.06s0.79 0.39 1.31 0.39c0.67 0 1.22-0.22 1.65-0.66l0.76 0.88c-0.27 0.33-0.62 0.57-1.03 0.74-0.42 0.17-0.89 0.25-1.41 0.25-0.67 0-1.26-0.13-1.76-0.4-0.51-0.27-0.9-0.63-1.18-1.11-0.28-0.47-0.42-1.01-0.42-1.61 0-0.59 0.13-1.12 0.4-1.6s0.64-0.84 1.12-1.11 1.02-0.4 1.61-0.4 1.12 0.13 1.59 0.39 0.83 0.63 1.09 1.1 0.39 1.02 0.39 1.64c0.01 0.11 0 0.25-0.01 0.44zm-4.2-2.02c-0.31 0.27-0.51 0.63-0.57 1.07h3.45c-0.06-0.44-0.25-0.8-0.56-1.07s-0.7-0.41-1.16-0.41c-0.47 0-0.85 0.14-1.16 0.41z" fill="#fff"/>
  <path d="m51.619 56.79c-0.17 0.14-0.37 0.24-0.61 0.31s-0.49 0.1-0.76 0.1c-0.67 0-1.18-0.17-1.55-0.52-0.36-0.35-0.55-0.86-0.55-1.52v-2.92h-1v-1.14h1v-1.39h1.42v1.39h1.63v1.14h-1.63v2.89c0 0.3 0.07 0.52 0.22 0.68 0.14 0.16 0.35 0.23 0.63 0.23 0.32 0 0.58-0.08 0.8-0.25l0.4 1z" fill="#fff"/>
  <path d="m60.299 51.62c0.47 0.43 0.71 1.07 0.71 1.94v3.56h-1.34v-0.74c-0.17 0.27-0.42 0.47-0.74 0.61s-0.71 0.21-1.17 0.21c-0.45 0-0.85-0.08-1.19-0.23-0.34-0.16-0.6-0.37-0.79-0.65s-0.28-0.59-0.28-0.94c0-0.55 0.2-0.98 0.61-1.31s1.04-0.49 1.92-0.49h1.57v-0.09c0-0.42-0.13-0.75-0.38-0.98s-0.63-0.34-1.13-0.34c-0.34 0-0.68 0.05-1.01 0.16s-0.61 0.25-0.84 0.44l-0.56-1.03c0.32-0.24 0.7-0.43 1.15-0.56s0.92-0.19 1.42-0.19c0.9-0.01 1.58 0.2 2.05 0.63zm-1.29 4.3c0.28-0.16 0.47-0.4 0.59-0.7v-0.7h-1.47c-0.82 0-1.23 0.27-1.23 0.81 0 0.26 0.1 0.46 0.31 0.61 0.2 0.15 0.49 0.23 0.85 0.23 0.36-0.01 0.67-0.09 0.95-0.25z" fill="#fff"/>
  <path d="m68.119 51.65c0.46 0.45 0.69 1.11 0.69 1.99v3.48h-1.42v-3.3c0-0.53-0.13-0.93-0.38-1.2s-0.61-0.4-1.07-0.4c-0.52 0-0.94 0.16-1.24 0.47s-0.45 0.77-0.45 1.36v3.07h-1.42v-6.07h1.35v0.78c0.23-0.28 0.53-0.49 0.89-0.64 0.36-0.14 0.76-0.22 1.21-0.22 0.77 0.01 1.38 0.23 1.84 0.68z" fill="#fff"/>
  <path d="m76.629 48.68v8.44h-1.36v-0.79c-0.23 0.29-0.52 0.5-0.87 0.65-0.34 0.14-0.73 0.22-1.14 0.22-0.58 0-1.11-0.13-1.57-0.39-0.47-0.26-0.83-0.62-1.1-1.1s-0.4-1.02-0.4-1.63 0.13-1.16 0.4-1.63 0.63-0.83 1.1-1.09 0.99-0.39 1.57-0.39c0.4 0 0.77 0.07 1.1 0.2 0.33 0.14 0.62 0.34 0.85 0.61v-3.12h1.42v0.02zm-2.29 7.07c0.27-0.16 0.49-0.38 0.65-0.67s0.24-0.62 0.24-1-0.08-0.71-0.24-1-0.38-0.51-0.65-0.67-0.58-0.23-0.92-0.23-0.65 0.08-0.92 0.23c-0.27 0.16-0.49 0.38-0.65 0.67s-0.24 0.62-0.24 1 0.08 0.71 0.24 1 0.38 0.51 0.65 0.67 0.58 0.23 0.92 0.23 0.65-0.08 0.92-0.23z" fill="#fff"/>
  <path d="m82.059 57c-0.47-0.13-0.85-0.29-1.13-0.49l0.55-1.08c0.27 0.18 0.6 0.33 0.98 0.44s0.76 0.16 1.13 0.16c0.85 0 1.27-0.22 1.27-0.67 0-0.21-0.11-0.36-0.32-0.44-0.22-0.08-0.56-0.16-1.04-0.24-0.5-0.08-0.91-0.16-1.22-0.26s-0.59-0.27-0.82-0.52-0.35-0.59-0.35-1.03c0-0.58 0.24-1.04 0.72-1.38s1.13-0.52 1.95-0.52c0.42 0 0.83 0.05 1.25 0.14s0.76 0.22 1.02 0.38l-0.55 1.08c-0.52-0.3-1.1-0.45-1.74-0.45-0.42 0-0.73 0.06-0.95 0.19s-0.32 0.29-0.32 0.49c0 0.23 0.12 0.39 0.35 0.48 0.23 0.1 0.59 0.18 1.07 0.27 0.49 0.08 0.88 0.16 1.19 0.26s0.58 0.27 0.8 0.5 0.34 0.57 0.34 1c0 0.57-0.25 1.02-0.74 1.36s-1.16 0.51-2.01 0.51c-0.48 0.02-0.96-0.05-1.43-0.18z" fill="#fff"/>
  <path d="m93.169 54.54h-4.76c0.08 0.45 0.3 0.8 0.65 1.06s0.79 0.39 1.31 0.39c0.67 0 1.22-0.22 1.65-0.66l0.76 0.88c-0.27 0.33-0.62 0.57-1.03 0.74-0.42 0.17-0.89 0.25-1.41 0.25-0.67 0-1.26-0.13-1.76-0.4-0.51-0.27-0.9-0.63-1.18-1.11-0.28-0.47-0.42-1.01-0.42-1.61 0-0.59 0.13-1.12 0.4-1.6 0.27-0.47 0.64-0.84 1.12-1.11s1.02-0.4 1.61-0.4 1.12 0.13 1.59 0.39 0.83 0.63 1.09 1.1 0.39 1.02 0.39 1.64c0.01 0.11 0.01 0.25-0.01 0.44zm-4.2-2.02c-0.31 0.27-0.51 0.63-0.57 1.07h3.45c-0.06-0.44-0.25-0.8-0.56-1.07s-0.7-0.41-1.16-0.41-0.85 0.14-1.16 0.41z" fill="#fff"/>
  <path d="m98.069 50.98v1.35c-0.12-0.02-0.23-0.03-0.33-0.03-0.55 0-0.99 0.16-1.3 0.48s-0.47 0.79-0.47 1.39v2.94h-1.42v-6.07h1.35v0.89c0.42-0.64 1.14-0.95 2.17-0.95z" fill="#fff"/>
  <path d="m105.19 51.04l-2.6 6.07h-1.47l-2.601-6.07h1.48l1.891 4.5 1.94-4.5h1.36z" fill="#fff"/>
  <path d="m106.14 49.8c-0.17-0.16-0.26-0.37-0.26-0.61s0.09-0.45 0.26-0.61 0.39-0.24 0.65-0.24 0.47 0.08 0.65 0.23c0.17 0.16 0.26 0.35 0.26 0.59 0 0.25-0.09 0.46-0.26 0.63s-0.39 0.26-0.65 0.26c-0.26-0.01-0.47-0.09-0.65-0.25zm-0.06 1.24h1.42v6.07h-1.42v-6.07z" fill="#fff"/>
  <path d="m110.45 56.8c-0.5-0.27-0.89-0.63-1.17-1.11-0.28-0.47-0.42-1.01-0.42-1.61s0.14-1.13 0.42-1.6 0.67-0.84 1.17-1.1c0.5-0.27 1.06-0.4 1.7-0.4 0.6 0 1.12 0.12 1.57 0.36s0.79 0.59 1.02 1.05l-1.09 0.64c-0.17-0.28-0.39-0.49-0.65-0.63s-0.55-0.21-0.86-0.21c-0.53 0-0.97 0.17-1.32 0.52-0.35 0.34-0.52 0.81-0.52 1.38 0 0.58 0.17 1.04 0.52 1.38 0.34 0.34 0.79 0.52 1.32 0.52 0.31 0 0.6-0.07 0.86-0.21s0.48-0.35 0.65-0.63l1.09 0.64c-0.23 0.45-0.58 0.81-1.03 1.05-0.45 0.25-0.97 0.37-1.56 0.37-0.63-0.01-1.2-0.15-1.7-0.41z" fill="#fff"/>
  <path d="m121.56 54.54h-4.76c0.08 0.45 0.3 0.8 0.65 1.06s0.79 0.39 1.31 0.39c0.67 0 1.22-0.22 1.65-0.66l0.76 0.88c-0.27 0.33-0.62 0.57-1.03 0.74-0.42 0.17-0.89 0.25-1.41 0.25-0.67 0-1.26-0.13-1.76-0.4-0.51-0.27-0.9-0.63-1.18-1.11-0.28-0.47-0.42-1.01-0.42-1.61 0-0.59 0.13-1.12 0.4-1.6 0.27-0.47 0.64-0.84 1.12-1.11s1.02-0.4 1.61-0.4 1.12 0.13 1.59 0.39 0.83 0.63 1.09 1.1 0.39 1.02 0.39 1.64c0.02 0.11 0.01 0.25-0.01 0.44zm-4.2-2.02c-0.31 0.27-0.51 0.63-0.57 1.07h3.45c-0.06-0.44-0.25-0.8-0.56-1.07s-0.7-0.41-1.16-0.41-0.84 0.14-1.16 0.41z" fill="#fff"/>
 </g>
 <defs>
  <filter id="filter0_d" height="65.21" width="126.1" color-interpolation-filters="sRGB" y="0" x=".5" filterUnits="userSpaceOnUse">
   <feFlood flood-opacity="0" result="BackgroundImageFix"/>
   <feColorMatrix values="0 0 0 0 0 0 0 0 0 0 0 0 0 0 0 0 0 0 127 0" type="matrix" in="SourceAlpha"/>
   <feOffset dy="4"/>
   <feGaussianBlur stdDeviation="2"/>
   <feColorMatrix values="0 0 0 0 0 0 0 0 0 0 0 0 0 0 0 0 0 0 0.25 0" type="matrix"/>
   <feBlend mode="normal" in2="BackgroundImageFix" result="effect1_dropShadow"/>
   <feBlend result="shape" mode="normal" in2="effect1_dropShadow" in="SourceGraphic"/>
  </filter>
 </defs>
</svg>
