<?xml version="1.0" encoding="UTF-8" standalone="no"?>
<svg width="490" xmlns="http://www.w3.org/2000/svg" viewBox="0 0 490 348" height="348">
 <path d="m99.946 28.541l-3.845 31.091c4.719 9.236 9.719 19.735 14.489 31.061l9.05-46.882 0.46 0.418c-6.62-6.698-13.58-12.151-20.619-16.063l0.465 0.375z" fill="#15234A"/>
 <path d="m95.271 58.013l3.724-30.117c-7.912-4.319-15.905-6.678-23.592-6.636-0.4 0.002-0.795 0.016-1.189 0.031 1.544 2.36 10.512 16.27 21.057 36.722z" fill="#15234A"/>
 <path d="m156.8 106.52l0.42 0.56c-1.38-4.18-2.89-8.282-4.55-12.296l-23.35 52.306-0.2-0.25c0.59 2.58 1.14 5.13 1.63 7.65l26.05-47.97z" fill="#15234A"/>
 <path d="m140.99 71.762l0.45 0.498c-5.85-9.979-12.86-19.23-20.88-27.561l-9.23 47.775c4.42 10.636 8.23 21.016 11.42 31.146l18.24-51.858z" fill="#15234A"/>
 <path d="m37.549 69.314c-0.614 8.215-0.396 16.471 0.65 24.643l81.441 22.863c-2.96-8.72-6.13-16.985-9.29-24.559l-72.702-22.259-0.099-0.688z" fill="#15234A"/>
 <path d="m39.67 103.43l-0.11-0.69 82.63 21.94c-0.67-2.15-1.36-4.29-2.07-6.4l-81.732-22.949-0.106-0.689c0.367 2.879 0.83 5.808 1.388 8.788z" fill="#15234A"/>
 <path d="m151.92 93.48l0.43 0.532c-3.03-7.262-6.55-14.311-10.53-21.099l-18.48 52.557c2.09 6.77 3.9 13.39 5.43 19.88l23.15-51.87z" fill="#15234A"/>
 <path d="m134.53 183.61c0.85 15.01-0.25 28.87-3.27 41.43 6.41-9.18 31.41-47.53 31.41-87.28l-28.14 45.85z" fill="#01217B"/>
 <path d="m50.027 135.26c3.407 6.75 7.263 13.26 11.542 19.49l-0.078-0.76 71.989 28.25c-0.55-8.4-1.6-16.75-3.15-25.02l-80.303-21.96z" fill="#15234A"/>
 <path d="m94.54 58.405c-11.415-22.124-20.951-36.508-21.089-36.714l0.264-0.379c-11.666 0.61-20.911 6.879-27.18 17.181l48.005 19.912z" fill="#15234A"/>
 <path d="m131.13 156.45c0.15 0.78 0.3 1.57 0.44 2.35 1.35 7.46 2.29 14.99 2.83 22.56l27.86-45.41 0.39 0.56c-0.05-7-1-13.97-2.81-20.73-0.72-2.65-1.51-5.28-2.35-7.87l-26.36 48.54z" fill="#01217B"/>
 <path d="m109.72 90.751c-4.72-11.194-9.67-21.568-14.333-30.696l-49.106-20.369-0.062-0.675c-4.641 7.85-7.589 17.969-8.613 29.663l72.114 22.077z" fill="#15234A"/>
 <path d="m133.57 183.57l-71.471-28.04c25.643 37.38 65.011 69.45 67.531 71.48 3.73-13.87 4.76-28.61 3.94-43.44z" fill="#15234A"/>
 <path d="m130.03 155.82l0.03-0.05c-1.94-10.01-4.42-19.9-7.43-29.64l-82.829-22.01c0.775 4.03 1.729 8.14 2.862 12.31 1.672 5.95 3.883 11.75 6.607 17.3l80.76 22.09z" fill="#15234A"/>
 <path d="m239.58 159.61l-22.8 21.49c-2.25 10.12-5.1 21.4-8.65 33.16l36.87-30.33 0.09 0.61c-0.83-9.38-2.71-18.02-5.63-25.52l0.12 0.59z" fill="#15234A"/>
 <path d="m217.18 179.32l22.07-20.82c-3.34-8.37-7.99-15.28-13.93-20.15-0.31-0.26-0.63-0.5-0.94-0.74-0.32 2.8-2.28 19.24-7.2 41.71z" fill="#15234A"/>
 <path d="m233.63 255.93l-0.04 0.7c1.61-4.1 3.06-8.23 4.34-12.37l-51.35 25.39 0.01-0.32c-1.19 2.36-2.39 4.67-3.62 6.93l50.66-20.33z" fill="#15234A"/>
 <path d="m243.62 219.08l0.02 0.66c1.86-11.41 2.37-23.01 1.5-34.54l-37.58 30.91c-3.38 11.01-7.06 21.43-11.06 31.27l47.12-28.3z" fill="#15234A"/>
 <path d="m165.51 151.21c-5.71 5.94-10.81 12.44-15.22 19.4l48.14 69.55c3.3-8.6 6.12-16.99 8.52-24.84l-41.8-63.51 0.36-0.6z" fill="#15234A"/>
 <path d="m145.39 178.84l0.35-0.6 49.64 69.6c0.86-2.09 1.69-4.17 2.5-6.24l-48.32-69.81 0.36-0.6c-1.55 2.45-3.06 5-4.53 7.65z" fill="#15234A"/>
 <path d="m238.19 242.77l-0.01 0.69c2.29-7.53 4.08-15.2 5.34-22.97l-47.76 28.69c-2.7 6.55-5.53 12.81-8.49 18.78l50.92-25.19z" fill="#15234A"/>
 <path d="m167.31 301.1c-8.92 12.1-18.61 22.08-28.95 29.82 10.8-2.98 54.51-16.57 79.86-47.19l-50.91 17.37z" fill="#15234A"/>
 <path d="m133.06 209.96c-1.68 7.37-2.86 14.85-3.54 22.38l0.42-0.64 37.44 67.68c4.92-6.82 9.44-13.93 13.52-21.28l-47.84-68.14z" fill="#15234A"/>
 <path d="m216.36 179.16c5.32-24.32 7.15-41.48 7.18-41.73l0.44-0.12c-9.37-6.97-20.49-8.04-31.89-4.1l24.27 45.95z" fill="#15234A"/>
 <path d="m182.01 278.01c-0.39 0.69-0.77 1.4-1.16 2.09-3.72 6.61-7.8 13.01-12.22 19.18l50.43-17.2-0.05 0.68c4.42-5.43 8.13-11.4 11.05-17.76 1.13-2.5 2.21-5.03 3.21-7.56l-51.26 20.57z" fill="#15234A"/>
 <path d="m207.42 213.75c3.5-11.63 6.31-22.77 8.54-32.78l-24.83-47.01 0.39-0.56c-8.58 3.09-17.31 9-25.56 17.36l41.46 62.99z" fill="#15234A"/>
 <path d="m166.59 300.45l-37.16-67.17c-4.09 45.14 5.78 94.95 6.42 98.12 11.72-8.31 21.91-19 30.74-30.95z" fill="#15234A"/>
 <path d="m181.57 276.82l0.04-0.02c4.89-8.94 9.3-18.14 13.19-27.56l-49.76-69.78c-1.97 3.6-3.85 7.36-5.64 11.3-2.51 5.66-4.5 11.53-5.95 17.54l48.12 68.52z" fill="#15234A"/>
 <path d="m49.141 160.68l5.954 30.75c7.343 7.33 15.342 15.77 23.376 25.07l-5.88-47.39 0.564 0.26c-8.366-4.33-16.673-7.36-24.572-8.91l0.558 0.22z" fill="#15234A"/>
 <path d="m53.804 190.15l-5.766-29.79c-8.86-1.66-17.192-1.44-24.488 0.98-0.38 0.12-0.752 0.26-1.122 0.4 2.198 1.76 15.026 12.22 31.376 28.41z" fill="#15234A"/>
 <path d="m127.32 217.26l0.56 0.41c-2.6-3.55-5.31-6.99-8.12-10.29l-6.04 56.96-0.27-0.17c1.36 2.27 2.67 4.52 3.92 6.77l9.95-53.68z" fill="#15234A"/>
 <path d="m101.54 189.1l0.57 0.33c-8.644-7.68-18.169-14.31-28.374-19.75l5.991 48.28c7.491 8.75 14.322 17.45 20.493 26.09l1.32-54.95z" fill="#15234A"/>
 <path d="m2.4026 218.74c1.9554 8 4.7142 15.79 8.2344 23.24l84.517-3.43c-5.504-7.39-11.077-14.26-16.423-20.49l-76.022 1.3-0.3064-0.62z" fill="#15234A"/>
 <path d="m14.964 250.53l-0.319-0.63 85.365-4.66c-1.305-1.85-2.618-3.66-3.939-5.45l-84.829 3.43-0.314-0.62c1.239 2.63 2.584 5.27 4.036 7.93z" fill="#15234A"/>
 <path d="m118.64 206.37l0.58 0.37c-5.13-5.96-10.66-11.58-16.54-16.81l-1.33 55.7c4.08 5.79 7.85 11.53 11.31 17.23l5.98-56.49z" fill="#15234A"/>
 <path d="m129.96 297.46c5.44 14.01 8.69 27.54 9.7 40.42 3.26-10.72 15.18-54.91 2.89-92.72l-12.59 52.3z" fill="#15234A"/>
 <path d="m34.653 277.6c5.326 5.36 11.006 10.37 17.001 14.97l-0.308-0.7 77.194 4.61c-3.11-7.81-6.7-15.43-10.73-22.81l-83.157 3.93z" fill="#15234A"/>
 <path d="m53.23 190.75c-17.694-17.51-31.21-28.24-31.404-28.4l0.134-0.44c-10.906 4.19-17.76 13.01-20.539 24.74l51.809 4.1z" fill="#15234A"/>
 <path d="m118.33 272.68c0.38 0.7 0.77 1.4 1.15 2.1 3.59 6.68 6.81 13.56 9.66 20.59l12.46-51.81 0.55 0.41c-2.22-6.63-5.27-12.96-9.08-18.83-1.51-2.3-3.07-4.56-4.67-6.77l-10.07 54.31z" fill="#15234A"/>
 <path d="m77.662 216.82c-7.95-9.18-15.858-17.52-23.116-24.76l-52.998-4.2-0.2672-0.62c-1.9868 8.9-1.663 19.44 0.9776 30.88l75.404-1.3z" fill="#15234A"/>
 <path d="m129.03 297.72l-76.63-4.57c35.941 27.62 83.29 45.95 86.31 47.1-0.73-14.35-4.31-28.67-9.68-42.53z" fill="#15234A"/>
 <path d="m117.1 272.42v-0.05c-4.94-8.92-10.35-17.56-16.22-25.9l-85.576 4.68c1.982 3.59 4.157 7.2 6.525 10.82 3.431 5.15 7.324 9.97 11.631 14.41l83.64-3.96z" fill="#15234A"/>
 <path d="m57.5 347.02s120.01-47.56 264.93 0h-264.93z" fill="#2F2E41"/>
 <path d="m144.75 310.53c0.1 1.28 0.25 2.54 0.47 3.8 0 0 10.33 7.02 11.16-0.83 0.53-5.11-0.68-7.42-1.6-8.41l-0.01-0.01c-0.55-0.59-0.86-1.36-0.87-2.16v-9.24l-9.09 2.89 0.41 7.85c-0.61 1.63-0.62 4.06-0.47 6.11z" fill="#FFB9B9"/>
 <path opacity=".05" d="m144.75 310.53c0.09 1.28 0.25 2.54 0.47 3.8 0 0 10.33 7.02 11.16-0.83 0.53-5.11-0.68-7.42-1.6-8.41-0.36-0.27-0.78-0.44-1.23-0.48-0.45-0.05-0.9 0.03-1.3 0.22-1.66-0.74-3.47 0.49-4.98 2.08-1.02 1.07-1.87 2.29-2.52 3.62z"/>
 <path d="m152.25 305.66s4.54-2.48 5.37 8.67c0.82 11.15 1.24 9.91 1.24 9.91s4.13 9.92-4.55 8.68c-8.67-1.24-12.8-2.07-12.39-7.02 0.25-2.99 0.95-7.33 1.46-10.3 0.5-2.95 1.85-5.69 3.89-7.87 1.51-1.59 3.32-2.81 4.98-2.07z" fill="#2F2E41"/>
 <path d="m200.78 319.83l4.73 2.29s14.8 2.27 10.11-6.16c-1.36-2.51-2.4-5.19-3.09-7.97-0.99-3.86-1.54-7.83-1.64-11.82l-12.51 1.75c4.08 5.44 3.56 14.25 2.93 18.87-0.26 1.86-0.53 3.04-0.53 3.04z" fill="#FFB9B9"/>
 <path opacity=".05" d="m200.78 319.83l4.73 2.29s14.8 2.27 10.11-6.16c-1.36-2.51-2.4-5.19-3.09-7.97-2.87 0.56-5.06 4.69-5.06 4.69-2.32 8.05-4.4 6.04-6.16 4.11-0.26 1.86-0.53 3.04-0.53 3.04z"/>
 <path d="m207.74 313.46s3.69-6.97 7.78-4.03c4.1 2.95 2.06 7.16 15.32 11.28 13.25 4.12 4.49 12.87-3.62 12.2s-25.4-3.82-25.4-3.82-4.49-12.87-2.4-13.16c2.08-0.29 4.96 9.21 8.32-2.47z" fill="#2F2E41"/>
 <path opacity=".3" d="m226.68 331.35c5.26 0.44 10.8-3.1 10.41-6.76 2.52 4.14-3.85 8.82-9.87 8.32-8.11-0.67-25.4-3.81-25.4-3.81s-0.21-0.61-0.52-1.56c0.51 0.09 17.39 3.16 25.38 3.81z" fill="#fff"/>
 <path opacity=".3" d="m141.94 325.66c0.48 3.72 4.6 4.5 12.37 5.61 3.95 0.56 5.25-1.19 5.48-3.27 0.26 2.66-0.49 5.63-5.48 4.92-8.67-1.24-12.8-2.07-12.39-7.02 0-0.08 0.01-0.16 0.02-0.24z" fill="#fff"/>
 <path d="m123.04 164.42l-1.37 20.57s-1.09 20.84 7.41 22.49c8.5 1.64 0-26.61 0-26.61v-18.65l-6.04 2.2z" fill="#FBBEBE"/>
 <path d="m130.18 89.545l-1.1 2.468s0.27 17.277 0 18.647c-0.28 1.37-3.84 12.07-3.84 13.17 0 1.09-2.74 32.91-3.29 34.83s-3.02 7.95-0.83 8.77c2.2 0.83 6.31-2.47 7.96 0 1.64 2.47 3.02 0 3.02-0.82s0.54-16.45 3.84-20.84c3.29-4.39 6.3-14.26 6.85-16.18s1.37-29.624 1.65-30.172c0.27-0.549-1.1-7.954-1.1-7.954l-13.16-1.919z" fill="#3F3D56"/>
 <path d="m145.81 118.62s-3.29 12.89-5.49 15.35c-2.19 2.47-13.16 20.85-9.87 45.26s9.05 56.22 9.05 56.22 0.82 11.24-0.27 14.26c-1.1 3.02 4.93 51.01 4.93 51.01s8.5 6.58 13.17-1.64c0 0-1.1-17.83 0-19.48 1.09-1.64 0-31.26 0-31.26s0.82-73.78 5.21-70.76 17.82 54.3 17.82 54.3 5.76 19.75 5.49 21.4c-0.27 1.64 4.94 22.21 4.94 22.21s4.93 28.52 6.85 29.07 13.72 0.82 14.81-2.19l-3.29-25.78s-3.29-29.35-4.94-33.46c-1.64-4.11-4.38-62.53-12.34-79.81 0 0-3.01-27.7-5.21-31.81 0 0-1.29-5.66 0.3-10.93 0 0-38.15 0.23-41.16-1.96z" fill="#2F2E41"/>
 <path d="m162.13 67.193c12.72 0 23.03-13.077 23.03-29.209 0-16.131-10.31-29.208-23.03-29.208-12.73 0.0001-23.04 13.077-23.04 29.208 0 16.132 10.31 29.209 23.04 29.209z" fill="#2F2E41"/>
 <path d="m209.44 72.267l-3.57 7.679-42.23 12.341s-29.35 8.503-32.37-5.211c-3.01-13.712 11.52-15.084 11.52-15.084s5.49-3.839 12.34-7.679c2.3-1.286 3.06-3.368 3.05-5.57-0.01-0.655-0.07-1.308-0.18-1.953-0.14-0.745-0.32-1.48-0.55-2.199-0.58-1.777-1.36-3.483-2.32-5.088 0 0 18.1-7.13 17.83-3.291-0.12 1.383 0.03 2.776 0.44 4.103 0.37 1.162 0.88 2.278 1.5 3.327 0.31 0.529 0.65 1.078 1.04 1.659 0.49 0.754 1.05 1.558 1.68 2.43 3.57 4.937 15.36 4.937 15.36 4.937 9.32-1.097 16.46 9.599 16.46 9.599z" fill="#FBBEBE"/>
 <path d="m253.04 116.15s19.75 14.53 23.59 14.26 26.33-1.65 21.12 3.56-28.8 1.92-28.8 1.92l-21.67-13.71 5.76-6.03z" fill="#FBBEBE"/>
 <path opacity=".1" d="m173.4 50.315c-2 2.13-4.55 3.659-7.37 4.414-2.82 0.756-5.79 0.708-8.58-0.138-0.58-1.777-1.36-3.483-2.32-5.088 0 0 18.1-7.13 17.83-3.291-0.12 1.383 0.03 2.776 0.44 4.103z"/>
 <path d="m161.99 53.343c8.63 0 15.63-6.999 15.63-15.633 0-8.633-7-15.632-15.63-15.632s-15.63 6.999-15.63 15.632c0 8.634 7 15.633 15.63 15.633z" fill="#FBBEBE"/>
 <path d="m142.52 83.237s68.01-15.358 68.29-13.164c0.27 2.194 3.01 6.582 3.01 6.582l-15.9 18.101s1.92 8.774-1.92 10.694-4.39 16.46-7.96 16.73c-3.56 0.28-45.25-0.27-45.52-2.47-0.28-2.19 1.09-3.56 0-4.11-1.1-0.55-2.74-0.55-1.37-3.29s1.37-14.263 1.37-14.263l-12.89-6.034s-1.77-5.11 1.45-5.983c3.21-0.873 11.44-2.793 11.44-2.793z" fill="#3F3D56"/>
 <path d="m211.36 76.106h2.46s7.41 4.937 9.33 9.325 8.77 10.147 10.42 11.793 24.13 17.276 23.86 19.476c-0.27 2.19-6.58 4.38-6.86 6.85-0.27 2.47 2.75 3.57 0.83 3.57s-13.72-6.86-18.1-9.33c-4.39-2.47-13.44-9.6-14.54-11.52-1.1-1.91-8.5-5.21-9.32-6.578-0.83-1.371-13.72-7.679-13.72-7.679l15.64-15.907z" fill="#3F3D56"/>
 <path d="m139.09 29.071c4.85 0 8.77-3.929 8.77-8.776s-3.92-8.776-8.77-8.776-8.78 3.929-8.78 8.776 3.93 8.776 8.78 8.776z" fill="#2F2E41"/>
 <path d="m177.76 17.552c4.85 0 8.78-3.929 8.78-8.7758 0-4.847-3.93-8.7762-8.78-8.7762s-8.78 3.9292-8.78 8.7762c0 4.8468 3.93 8.7758 8.78 8.7758z" fill="#2F2E41"/>
 <path d="m164.18 37.573c9.02 0 16.32-4.482 16.32-10.01 0-5.529-7.3-10.011-16.32-10.011-9.01 0-16.32 4.482-16.32 10.011 0 5.528 7.31 10.01 16.32 10.01z" fill="#2F2E41"/>
 <path d="m174.9 53.642c-7.52 2.959-13.46 3.31-16.9 3.148 0.11 0.645 0.17 1.298 0.18 1.953 0.4 0.017 0.83 0.025 1.29 0.025 3.8 0 9.49-0.661 16.47-3.467l-1.04-1.659z" fill="#2F2E41"/>
 <path d="m477.87 136.3h-214.06c-6.7 0-12.14 5.43-12.14 12.13v118.39c0 6.7 5.44 12.13 12.14 12.13h214.06c6.7 0 12.13-5.43 12.13-12.13v-118.39c0-6.7-5.43-12.13-12.13-12.13z" fill="#E6E6E6"/>
 <path opacity=".3" d="m464.18 236.35h-186.81v6.8h186.81v-6.8z" fill="#01217B"/>
 <path opacity=".3" d="m464.3 218.52h-186.81v6.8h186.81v-6.8z" fill="#01217B"/>
 <path opacity=".3" d="m464.3 194.18h-33.4v6.79h33.4v-6.79z" fill="#01217B"/>
 <path opacity=".3" d="m464.3 176.06h-122.27v6.8h122.27v-6.8z" fill="#01217B"/>
 <path opacity=".3" d="m370.9 254.47h-93.53v6.79h93.53v-6.79z" fill="#01217B"/>
 <path d="m318.72 153.99h-35.47c-3.18 0-5.76 2.57-5.76 5.75v35.48c0 3.18 2.58 5.75 5.76 5.75h35.47c3.18 0 5.76-2.57 5.76-5.75v-35.48c0-3.18-2.58-5.75-5.76-5.75z" fill="#15234A"/>
</svg>
