<svg width="490" height="348" viewBox="0 0 490 348" fill="none" xmlns="http://www.w3.org/2000/svg">
<path d="M99.9461 28.5406L96.1013 59.6315C100.821 68.8675 105.819 79.3672 110.586 90.693L119.641 43.8111L120.098 44.2286C113.478 37.5307 106.515 32.0783 99.4812 28.166L99.9461 28.5406Z" fill="#15234A"/>
<path d="M95.2706 58.0129L98.9953 27.8961C91.0829 23.5772 83.0896 21.2175 75.4033 21.2598C75.0034 21.2621 74.6083 21.2758 74.2139 21.2909C75.7577 23.6507 84.726 37.5614 95.2706 58.0129Z" fill="#15234A"/>
<path d="M156.805 106.522L157.219 107.081C155.843 102.897 154.327 98.7977 152.669 94.7839L129.32 147.092L129.12 146.844C129.711 149.418 130.255 151.966 130.753 154.49L156.805 106.522Z" fill="#15234A"/>
<path d="M140.994 71.7617L141.435 72.2599C135.588 62.2809 128.579 53.0296 120.556 44.6992L111.329 92.4743C115.748 103.11 119.557 113.492 122.754 123.62L140.994 71.7617Z" fill="#15234A"/>
<path d="M37.5494 69.3142C36.9354 77.5293 37.153 85.7854 38.1989 93.9567L119.635 116.824C116.685 108.095 113.51 99.8351 110.35 92.2611L37.6476 70.0025L37.5494 69.3142Z" fill="#15234A"/>
<path d="M39.6704 103.426L39.5595 102.736L122.187 124.684C121.516 122.526 120.829 120.392 120.125 118.283L38.3885 95.331L38.2822 94.6416C38.6488 97.5214 39.1115 100.449 39.6704 103.426Z" fill="#15234A"/>
<path d="M151.921 93.4801L152.349 94.012C149.319 86.7503 145.801 79.7014 141.822 72.9133L123.335 125.473C125.429 132.238 127.239 138.865 128.766 145.352L151.921 93.4801Z" fill="#15234A"/>
<path d="M134.533 183.608C135.376 198.615 134.284 212.479 131.255 225.043C137.674 215.855 162.672 177.514 162.666 137.759L134.533 183.608Z" fill="#01217B"/>
<path d="M50.0269 135.26C53.4344 142.008 57.2903 148.52 61.5686 154.752L61.4909 153.994L133.485 182.238C132.934 173.844 131.881 165.491 130.33 157.223L50.0269 135.26Z" fill="#15234A"/>
<path d="M94.5395 58.4054C83.1254 36.2813 73.5887 21.8969 73.4513 21.6908L73.7149 21.3118C62.0491 21.9221 52.8044 28.1913 46.5347 38.4933L94.5395 58.4054Z" fill="#15234A"/>
<path d="M131.127 156.446C131.276 157.23 131.429 158.016 131.568 158.795C132.919 166.26 133.863 173.794 134.395 181.362L162.262 135.948L162.654 136.507C162.595 129.507 161.649 122.544 159.839 115.783C159.116 113.129 158.333 110.503 157.489 107.906L131.127 156.446Z" fill="#01217B"/>
<path d="M109.717 90.7513C104.996 79.5574 100.053 69.1831 95.3868 60.0554L46.2806 39.686L46.2187 39.0112C41.5782 46.8613 38.63 56.9803 37.606 68.674L109.717 90.7513Z" fill="#15234A"/>
<path d="M133.566 183.571L62.0989 155.533C87.7423 192.91 127.111 224.976 129.627 227.007C133.359 213.135 134.386 198.401 133.566 183.571Z" fill="#15234A"/>
<path d="M130.032 155.819L130.057 155.773C128.116 145.765 125.637 135.868 122.632 126.127L39.8008 104.125C40.576 108.154 41.5302 112.255 42.6632 116.429C44.3348 122.385 46.5462 128.176 49.2699 133.731L130.032 155.819Z" fill="#15234A"/>
<path d="M239.575 159.608L216.783 181.101C214.527 191.225 211.68 202.5 208.128 214.263L245.003 183.93L245.089 184.544C244.263 175.163 242.377 166.522 239.455 159.022L239.575 159.608Z" fill="#15234A"/>
<path d="M217.176 179.324L239.253 158.504C235.914 150.131 231.263 143.216 225.316 138.346C225.006 138.092 224.693 137.851 224.38 137.611C224.064 140.413 222.098 156.847 217.176 179.324Z" fill="#15234A"/>
<path d="M233.629 255.933L233.591 256.628C235.2 252.528 236.647 248.403 237.93 244.255L186.583 269.649L186.588 269.331C185.402 271.69 184.195 274 182.969 276.262L233.629 255.933Z" fill="#15234A"/>
<path d="M243.622 219.076L243.644 219.741C245.505 208.326 246.008 196.731 245.142 185.198L207.563 216.108C204.184 227.118 200.495 237.543 196.498 247.383L243.622 219.076Z" fill="#15234A"/>
<path d="M165.511 151.213C159.799 157.149 154.7 163.646 150.294 170.607L198.43 240.161C201.726 231.556 204.548 223.169 206.946 215.32L165.148 151.806L165.511 151.213Z" fill="#15234A"/>
<path d="M145.388 178.838L145.742 178.237L195.382 247.842C196.242 245.751 197.073 243.67 197.877 241.597L149.563 171.786L149.921 171.188C148.366 173.639 146.855 176.19 145.388 178.838Z" fill="#15234A"/>
<path d="M238.186 242.774L238.176 243.456C240.473 235.93 242.26 228.258 243.525 220.491L195.764 249.181C193.061 255.728 190.229 261.986 187.267 267.956L238.186 242.774Z" fill="#15234A"/>
<path d="M167.308 301.098C158.386 313.195 148.702 323.175 138.356 330.921C149.16 327.938 192.868 314.353 218.22 283.73L167.308 301.098Z" fill="#15234A"/>
<path d="M133.06 209.962C131.38 217.333 130.197 224.807 129.517 232.336L129.941 231.703L167.375 299.375C172.305 292.559 176.821 285.453 180.9 278.097L133.06 209.962Z" fill="#15234A"/>
<path d="M216.362 179.16C221.682 154.84 223.512 137.679 223.537 137.433L223.982 137.309C214.608 130.338 203.489 129.27 192.09 133.206L216.362 179.16Z" fill="#15234A"/>
<path d="M182.01 278.006C181.624 278.705 181.24 279.408 180.851 280.097C177.13 286.708 173.052 293.112 168.634 299.281L219.063 282.077L219.009 282.758C223.427 277.329 227.14 271.362 230.059 265.001C231.194 262.496 232.266 259.974 233.273 257.435L182.01 278.006Z" fill="#15234A"/>
<path d="M207.421 213.753C210.924 202.12 213.734 190.977 215.962 180.972L191.133 133.963L191.516 133.403C182.935 136.49 174.21 142.403 165.963 150.756L207.421 213.753Z" fill="#15234A"/>
<path d="M166.587 300.454L129.427 233.276C125.338 278.419 135.207 328.226 135.849 331.395C147.572 323.091 157.76 312.399 166.587 300.454Z" fill="#15234A"/>
<path d="M181.566 276.825L181.614 276.805C186.503 267.859 190.906 258.656 194.804 249.236L145.042 179.46C143.07 183.057 141.189 186.824 139.399 190.762C136.888 196.415 134.897 202.286 133.452 208.301L181.566 276.825Z" fill="#15234A"/>
<path d="M49.1409 160.678L55.0946 191.434C62.4375 198.759 70.4368 207.2 78.4712 216.498L72.591 169.113L73.1553 169.369C64.7893 165.045 56.4816 162.012 48.583 160.465L49.1409 160.678Z" fill="#15234A"/>
<path d="M53.8042 190.152L48.0375 160.358C39.1775 158.697 30.8463 158.923 23.5496 161.339C23.1699 161.465 22.7985 161.6 22.428 161.737C24.6256 163.504 37.4545 173.961 53.8042 190.152Z" fill="#15234A"/>
<path d="M127.318 217.265L127.885 217.669C125.284 214.115 122.574 210.685 119.758 207.38L113.72 264.344L113.453 264.17C114.811 266.435 116.116 268.691 117.37 270.937L127.318 217.265Z" fill="#15234A"/>
<path d="M101.537 189.095L102.111 189.432C93.4658 181.749 83.941 175.117 73.7356 169.675L79.7274 217.962C87.2179 226.711 94.0489 235.407 100.22 244.051L101.537 189.095Z" fill="#15234A"/>
<path d="M2.40259 218.741C4.35796 226.744 7.11685 234.528 10.6372 241.976L95.154 238.552C89.65 231.162 84.0771 224.288 78.7314 218.062L2.70879 219.365L2.40259 218.741Z" fill="#15234A"/>
<path d="M14.9635 250.527L14.645 249.905L100.01 245.238C98.7049 243.393 97.3918 241.577 96.071 239.788L11.2423 243.225L10.9282 242.602C12.167 245.227 13.5121 247.869 14.9635 250.527Z" fill="#15234A"/>
<path d="M118.643 206.372L119.215 206.745C114.088 200.776 108.564 195.159 102.681 189.934L101.346 245.633C105.428 251.421 109.198 257.163 112.656 262.861L118.643 206.372Z" fill="#15234A"/>
<path d="M129.964 297.46C135.405 311.472 138.651 324.995 139.655 337.88C142.92 327.157 154.842 282.968 142.549 245.161L129.964 297.46Z" fill="#15234A"/>
<path d="M34.6526 277.601C39.979 282.965 45.6588 287.966 51.6539 292.57L51.3457 291.874L128.544 296.482C125.426 288.669 121.842 281.051 117.812 273.667L34.6526 277.601Z" fill="#15234A"/>
<path d="M53.23 190.751C35.5363 173.238 22.0205 162.506 21.8261 162.353L21.9596 161.911C11.0538 166.097 4.19956 174.917 1.42114 186.652L53.23 190.751Z" fill="#15234A"/>
<path d="M118.33 272.682C118.713 273.381 119.102 274.081 119.475 274.779C123.068 281.462 126.294 288.335 129.139 295.368L141.604 243.564L142.15 243.974C139.93 237.336 136.878 231.006 133.067 225.135C131.559 222.835 130.002 220.58 128.397 218.37L118.33 272.682Z" fill="#15234A"/>
<path d="M77.6619 216.822C69.7122 207.635 61.8044 199.297 54.5459 192.058L1.54822 187.865L1.28079 187.242C-0.706038 196.142 -0.382189 206.677 2.25844 218.115L77.6619 216.822Z" fill="#15234A"/>
<path d="M129.034 297.725L52.4004 293.15C88.3409 320.77 135.693 339.097 138.714 340.252C137.975 325.905 134.398 311.575 129.034 297.725Z" fill="#15234A"/>
<path d="M117.095 272.424L117.104 272.373C112.165 263.454 106.749 254.809 100.879 246.473L15.3037 251.152C17.2862 254.743 19.4613 258.349 21.829 261.968C25.2598 267.116 29.1529 271.94 33.4601 276.381L117.095 272.424Z" fill="#15234A"/>
<path d="M57.5 347.017C57.5 347.017 177.512 299.465 322.433 347.017H57.5Z" fill="#2F2E41"/>
<path d="M144.753 310.533C144.846 311.806 145.003 313.073 145.224 314.33C145.224 314.33 155.551 321.352 156.377 313.503C156.914 308.389 155.7 306.08 154.783 305.093L154.768 305.077C154.217 304.494 153.907 303.725 153.899 302.923V293.675L144.811 296.566L145.224 304.415C144.612 306.047 144.604 308.484 144.753 310.533Z" fill="#FFB9B9"/>
<path opacity="0.05" d="M144.753 310.533C144.845 311.806 145.003 313.073 145.224 314.33C145.224 314.33 155.551 321.352 156.377 313.503C156.914 308.389 155.7 306.08 154.783 305.093C154.424 304.822 153.998 304.654 153.551 304.608C153.104 304.561 152.653 304.637 152.246 304.828C150.594 304.093 148.776 305.32 147.273 306.906C146.254 307.981 145.404 309.204 144.753 310.533Z" fill="black"/>
<path d="M152.246 305.655C152.246 305.655 156.79 303.176 157.616 314.33C158.443 325.483 158.856 324.244 158.856 324.244C158.856 324.244 162.987 334.158 154.312 332.919C145.637 331.68 141.506 330.854 141.919 325.896C142.168 322.909 142.867 318.57 143.383 315.595C143.875 312.647 145.228 309.911 147.271 307.731C148.778 306.144 150.594 304.92 152.246 305.655Z" fill="#2F2E41"/>
<path d="M200.777 319.834L205.513 322.118C205.513 322.118 220.309 324.389 215.616 315.964C214.258 313.446 213.221 310.768 212.53 307.993C211.541 304.127 210.992 300.162 210.892 296.173L198.375 297.919C202.456 303.355 201.939 312.173 201.308 316.791C201.052 318.653 200.777 319.834 200.777 319.834Z" fill="#FFB9B9"/>
<path opacity="0.05" d="M200.777 319.834L205.513 322.118C205.513 322.118 220.308 324.389 215.616 315.964C214.258 313.446 213.221 310.768 212.53 307.993C209.656 308.546 207.469 312.683 207.469 312.683C205.151 320.73 203.066 318.719 201.307 316.791C201.052 318.652 200.777 319.834 200.777 319.834Z" fill="black"/>
<path d="M207.741 313.463C207.741 313.463 211.431 306.486 215.523 309.433C219.615 312.379 217.584 316.589 230.838 320.711C244.092 324.834 235.333 333.581 227.224 332.913C219.114 332.245 201.824 329.094 201.824 329.094C201.824 329.094 197.329 316.225 199.415 315.933C201.501 315.642 204.38 325.139 207.741 313.463Z" fill="#2F2E41"/>
<path opacity="0.3" d="M226.679 331.353C231.944 331.787 237.48 328.252 237.091 324.591C239.607 328.726 233.238 333.409 227.224 332.913C219.114 332.245 201.824 329.095 201.824 329.095C201.824 329.095 201.612 328.489 201.303 327.539C201.806 327.631 218.69 330.695 226.679 331.353Z" fill="white"/>
<path opacity="0.3" d="M141.94 325.658C142.417 329.375 146.538 330.156 154.312 331.266C158.265 331.831 159.555 330.079 159.793 328.005C160.051 330.661 159.297 333.631 154.312 332.919C145.637 331.679 141.506 330.853 141.919 325.896C141.925 325.819 141.933 325.737 141.94 325.658Z" fill="white"/>
<path d="M123.045 164.417L121.674 184.986C121.674 184.986 120.577 205.83 129.079 207.475C137.58 209.121 129.079 180.872 129.079 180.872V162.223L123.045 164.417Z" fill="#FBBEBE"/>
<path d="M130.175 89.5447L129.078 92.013C129.078 92.013 129.353 109.291 129.078 110.662C128.804 112.034 125.239 122.73 125.239 123.827C125.239 124.924 122.496 156.738 121.948 158.657C121.399 160.577 118.931 166.611 121.125 167.434C123.319 168.256 127.433 164.965 129.078 167.434C130.724 169.902 132.095 167.434 132.095 166.611C132.095 165.788 132.644 150.155 135.935 145.767C139.226 141.379 142.243 131.506 142.791 129.586C143.34 127.666 144.163 99.9664 144.437 99.4179C144.711 98.8694 143.34 91.4645 143.34 91.4645L130.175 89.5447Z" fill="#3F3D56"/>
<path d="M145.808 118.616C145.808 118.616 142.517 131.506 140.323 133.974C138.129 136.443 127.159 154.818 130.45 179.227C133.741 203.636 139.5 235.449 139.5 235.449C139.5 235.449 140.323 246.694 139.226 249.711C138.129 252.728 144.163 300.722 144.163 300.722C144.163 300.722 152.665 307.305 157.327 299.077C157.327 299.077 156.23 281.25 157.327 279.605C158.424 277.959 157.327 248.339 157.327 248.339C157.327 248.339 158.15 174.564 162.538 177.581C166.926 180.598 180.365 231.884 180.365 231.884C180.365 231.884 186.124 251.63 185.85 253.276C185.575 254.922 190.786 275.491 190.786 275.491C190.786 275.491 195.723 304.014 197.643 304.562C199.562 305.111 211.355 305.385 212.452 302.368L209.161 276.588C209.161 276.588 205.87 247.242 204.225 243.129C202.579 239.015 199.837 180.598 191.883 163.32C191.883 163.32 188.866 135.62 186.672 131.506C186.672 131.506 185.385 125.854 186.974 120.578C186.974 120.578 148.825 120.81 145.808 118.616Z" fill="#2F2E41"/>
<path d="M162.126 67.1928C174.85 67.1928 185.164 54.1158 185.164 37.9845C185.164 21.8531 174.85 8.77612 162.126 8.77612C149.403 8.77612 139.089 21.8531 139.089 37.9845C139.089 54.1158 149.403 67.1928 162.126 67.1928Z" fill="#2F2E41"/>
<path d="M209.436 72.2666L205.871 79.9458L163.635 92.2874C163.635 92.2874 134.29 100.789 131.273 87.0764C128.256 73.3636 142.791 71.9923 142.791 71.9923C142.791 71.9923 148.277 68.1527 155.133 64.3132C157.426 63.0269 158.186 60.9453 158.18 58.743C158.174 58.0881 158.113 57.4348 157.996 56.7903C157.864 56.0454 157.681 55.3105 157.448 54.5907C156.867 52.8144 156.091 51.1081 155.133 49.5033C155.133 49.5033 173.234 42.3726 172.96 46.2122C172.844 47.5953 172.993 48.9878 173.399 50.3151C173.773 51.4773 174.278 52.5934 174.904 53.6418C175.211 54.1711 175.554 54.7197 175.935 55.3011C176.429 56.0553 176.991 56.8588 177.622 57.731C181.187 62.6676 192.98 62.6676 192.98 62.6676C202.305 61.5706 209.436 72.2666 209.436 72.2666Z" fill="#FBBEBE"/>
<path d="M253.043 116.148C253.043 116.148 272.789 130.683 276.629 130.409C280.469 130.135 302.958 128.764 297.747 133.974C292.536 139.185 268.95 135.894 268.95 135.894L247.283 122.181L253.043 116.148Z" fill="#FBBEBE"/>
<path opacity="0.1" d="M173.398 50.3151C171.403 52.4447 168.852 53.9737 166.033 54.7293C163.214 55.4849 160.24 55.4369 157.448 54.5907C156.867 52.8144 156.091 51.1081 155.133 49.5033C155.133 49.5033 173.234 42.3726 172.959 46.2122C172.844 47.5953 172.993 48.9878 173.398 50.3151Z" fill="black"/>
<path d="M161.99 53.3429C170.623 53.3429 177.622 46.3439 177.622 37.7103C177.622 29.0766 170.623 22.0776 161.99 22.0776C153.356 22.0776 146.357 29.0766 146.357 37.7103C146.357 46.3439 153.356 53.3429 161.99 53.3429Z" fill="#FBBEBE"/>
<path d="M142.517 83.237C142.517 83.237 210.533 67.8786 210.807 70.0727C211.081 72.2667 213.824 76.6549 213.824 76.6549L197.917 94.7558C197.917 94.7558 199.837 103.532 195.997 105.452C192.158 107.372 191.609 121.907 188.044 122.181C184.479 122.456 142.792 121.907 142.517 119.713C142.243 117.519 143.614 116.148 142.517 115.599C141.42 115.051 139.775 115.051 141.146 112.308C142.517 109.566 142.517 98.0469 142.517 98.0469L129.627 92.0133C129.627 92.0133 127.859 86.9028 131.075 86.0298C134.29 85.1568 142.517 83.237 142.517 83.237Z" fill="#3F3D56"/>
<path d="M211.356 76.1062H213.824C213.824 76.1062 221.229 81.0428 223.149 85.4309C225.068 89.819 231.925 95.5784 233.57 97.224C235.216 98.8695 257.705 114.502 257.431 116.696C257.156 118.89 250.849 121.084 250.574 123.553C250.3 126.021 253.317 127.118 251.397 127.118C249.477 127.118 237.684 120.262 233.296 117.793C228.908 115.325 219.858 108.194 218.76 106.274C217.663 104.355 210.259 101.064 209.436 99.6923C208.613 98.321 195.723 92.0131 195.723 92.0131L211.356 76.1062Z" fill="#3F3D56"/>
<path d="M139.089 29.0712C143.936 29.0712 147.865 25.142 147.865 20.295C147.865 15.448 143.936 11.5188 139.089 11.5188C134.242 11.5188 130.312 15.448 130.312 20.295C130.312 25.142 134.242 29.0712 139.089 29.0712Z" fill="#2F2E41"/>
<path d="M177.759 17.5524C182.606 17.5524 186.535 13.6232 186.535 8.77621C186.535 3.92924 182.606 0 177.759 0C172.912 0 168.983 3.92924 168.983 8.77621C168.983 13.6232 172.912 17.5524 177.759 17.5524Z" fill="#2F2E41"/>
<path d="M164.183 37.5732C173.196 37.5732 180.502 33.0914 180.502 27.5629C180.502 22.0343 173.196 17.5525 164.183 17.5525C155.171 17.5525 147.865 22.0343 147.865 27.5629C147.865 33.0914 155.171 37.5732 164.183 37.5732Z" fill="#2F2E41"/>
<path d="M174.904 53.6418C167.384 56.6011 161.441 56.9521 157.996 56.7903C158.113 57.4348 158.174 58.0881 158.18 58.743C158.58 58.7595 159.011 58.7677 159.469 58.7677C163.273 58.7677 168.955 58.1067 175.935 55.3011L174.904 53.6418Z" fill="#2F2E41"/>
<path d="M477.867 136.297H263.807C257.106 136.297 251.674 141.729 251.674 148.43V266.82C251.674 273.521 257.106 278.953 263.807 278.953H477.867C484.568 278.953 490 273.521 490 266.82V148.43C490 141.729 484.568 136.297 477.867 136.297Z" fill="#E6E6E6"/>
<path opacity="0.3" d="M464.182 236.354H277.371V243.147H464.182V236.354Z" fill="#01217B"/>
<path opacity="0.3" d="M464.303 218.522H277.491V225.315H464.303V218.522Z" fill="#01217B"/>
<path opacity="0.3" d="M464.303 194.18H430.903V200.973H464.303V194.18Z" fill="#01217B"/>
<path opacity="0.3" d="M464.303 176.065H342.026V182.858H464.303V176.065Z" fill="#01217B"/>
<path opacity="0.3" d="M370.897 254.469H277.371V261.262H370.897V254.469Z" fill="#01217B"/>
<path d="M318.723 153.987H283.246C280.068 153.987 277.491 156.564 277.491 159.742V195.219C277.491 198.397 280.068 200.973 283.246 200.973H318.723C321.901 200.973 324.477 198.397 324.477 195.219V159.742C324.477 156.564 321.901 153.987 318.723 153.987Z" fill="#15234A"/>
</svg>
