<svg width="420" height="370" fill="none" xmlns="http://www.w3.org/2000/svg"><g filter="url(#filter0_d)"><path d="M309.74 362c52.967 0 95.905-7.887 95.905-17.617s-42.938-17.617-95.905-17.617-95.905 7.887-95.905 17.617S256.773 362 309.74 362z" fill="#3F3D56"/><path d="M394.925 343.883c-.099-.162-2.433-4.065-3.243-12.171-.742-7.436-.265-19.97 6.227-37.453 12.297-33.122-2.834-59.847-2.989-60.113l.746-.434c.04.068 3.944 6.881 6.251 17.731a77.466 77.466 0 0 1-3.2 43.117c-12.276 33.065-3.149 48.718-3.056 48.873l-.736.45zM390.116 232.201a5.612 5.612 0 0 0 5.608-5.616 5.611 5.611 0 0 0-5.608-5.616 5.612 5.612 0 0 0-5.608 5.616 5.613 5.613 0 0 0 5.608 5.616z" fill="#3F3D56"/><path d="M407.803 252.937a5.611 5.611 0 0 0 5.608-5.616 5.611 5.611 0 0 0-5.608-5.616 5.612 5.612 0 0 0-5.608 5.616 5.612 5.612 0 0 0 5.608 5.616z" fill="#3F3D56"/><path d="M395.724 266.761a5.611 5.611 0 0 0 5.608-5.616 5.611 5.611 0 0 0-5.608-5.616 5.612 5.612 0 0 0-5.608 5.616 5.612 5.612 0 0 0 5.608 5.616zM410.392 278.425a5.612 5.612 0 0 0 5.608-5.616 5.612 5.612 0 0 0-5.608-5.616 5.612 5.612 0 0 0-5.608 5.616 5.612 5.612 0 0 0 5.608 5.616z" fill="#15234A"/><path d="M391.411 296.569a5.612 5.612 0 0 0 5.608-5.616 5.613 5.613 0 0 0-5.608-5.616 5.613 5.613 0 0 0-5.608 5.616 5.612 5.612 0 0 0 5.608 5.616zM398.313 344.09s-5.608-13.824 11.216-24.193l-11.216 24.193zM391.416 343.839s-2.552-14.701-22.307-14.575l22.307 14.575zM41.036 182.137l88.527 60.238 8.43-6.507 7.46.648-14.187 13.815-90.23-56.829v-11.365z" fill="#3F3D56"/><path d="M222.324 154.006l37.477 44.327-7.403 9.092-43.954-49.441 13.88-3.978z" fill="#2F2E41"/><path d="M37.063 179.295c4.701 0 8.512-4.325 8.512-9.661 0-5.335-3.81-9.661-8.512-9.661-4.701 0-8.512 4.326-8.512 9.661 0 5.336 3.81 9.661 8.512 9.661z" fill="#15234A"/><path d="M233.842 150.886c15.216-57.184-5.654-112.401-46.614-123.332-40.961-10.93-86.502 26.565-101.719 83.749-15.216 57.183 5.654 112.401 46.615 123.331 40.961 10.931 86.502-26.565 101.718-83.748z" fill="#3F3D56"/><path d="M227.576 149.214c13.931-52.352-5.175-102.904-42.675-112.91-37.5-10.008-79.193 24.32-93.125 76.671-13.93 52.352 5.176 102.904 42.676 112.911 37.5 10.008 79.193-24.32 93.124-76.672z" fill="#E6E6E6"/><path d="M143.75 129.286a1.704 1.704 0 0 0 0-3.41c-.94 0-1.702.763-1.702 1.705 0 .941.762 1.705 1.702 1.705zM134.103 169.634a1.704 1.704 0 1 0 0-3.41c-.94 0-1.702.764-1.702 1.705 0 .942.762 1.705 1.702 1.705zM181.772 132.695c.94 0 1.702-.763 1.702-1.704a1.703 1.703 0 1 0-1.702 1.704zM172.125 173.612c.94 0 1.702-.763 1.702-1.705a1.703 1.703 0 1 0-3.405 0c0 .942.763 1.705 1.703 1.705z" fill="#15234A"/><path d="M43.873 196.344l-5.584 1.119-.09.017-13.053-3.409-3.972-26.142 2.406-1.125 6.106-2.853c10.782 0 13.052 6.251 13.052 6.251l1.135 26.142z" fill="#3F3D56"/><path opacity=".1" d="M38.29 197.463l-.092.017-13.052-3.409-3.972-26.142 2.406-1.125c4.977.659 10.8 2.074 12.916 5.103l1.793 25.556z" fill="#000"/><path d="M65.152 132.412a1.707 1.707 0 0 1-.87-.241c-16.788-10.016-33.11-10.016-49.898 0a1.703 1.703 0 0 1-1.743-2.929c17.712-10.567 35.672-10.567 53.384 0a1.702 1.702 0 0 1 .77 1.918 1.703 1.703 0 0 1-1.643 1.252zM58.626 146.54c-.306 0-.607-.083-.87-.24-12.588-7.51-24.826-7.51-37.414 0a1.703 1.703 0 0 1-1.742-2.929c13.57-8.096 27.33-8.096 40.899 0a1.704 1.704 0 0 1 .16 2.821c-.298.226-.66.349-1.033.348zM70.26 116.499a1.687 1.687 0 0 1-.87-.24c-16.754-9.996-45.062-9.996-61.816 0a1.71 1.71 0 0 1-1.29.19 1.703 1.703 0 0 1-.947-2.674 1.69 1.69 0 0 1 .494-.445c17.699-10.56 47.603-10.56 65.302 0a1.701 1.701 0 0 1 .77 1.918 1.703 1.703 0 0 1-1.643 1.251z" fill="#15234A"/><path d="M349.883 310.747l3.594 14.398-15.815 4.32-1.438-15.119 13.659-3.599zM292.371 328.745v13.678l-15.816 2.88-2.875-7.2 5.751-12.238 12.94 2.88z" fill="#FBBEBE"/><path d="M324.002 179.723l-2.156 19.438 1.437 37.435s2.157 0 2.157 2.16-2.157 1.44 0 2.879a37.271 37.271 0 0 0 3.595 2.16l23.004 69.831s-5.751 7.2-16.534 5.04l-2.157-7.199s-4.313-4.32-4.313-6.479c0-2.16 1.437-2.88 0-5.04-1.438-2.16-23.005-46.074-23.005-46.074l-10.064-17.998-2.876 24.477s5.751 30.956 4.313 45.354c-1.437 14.399-4.313 29.517-4.313 29.517l-17.253-2.88a12.04 12.04 0 0 0-2.157-6.479c-2.157-2.88-5.032-2.16-2.157-4.32 2.876-2.159 6.47 0 3.595-2.879-2.876-2.88-2.876-5.76-2.876-5.76v-2.159l-4.313-55.433-7.908-72.711 63.981-2.88z" fill="#2F2E41"/><path d="M275.118 48.7c10.72 0 19.41-8.703 19.41-19.438s-8.69-19.438-19.41-19.438-19.41 8.703-19.41 19.438 8.69 19.438 19.41 19.438z" fill="#FBBEBE"/><path d="M292.012 29.622l7.907 19.438-18.691 13.678-11.502-20.158 22.286-12.958z" fill="#FBBEBE"/><path d="M293.09 44.38l7.189-3.6 4.313 10.08s28.037 8.638 25.88 48.233-7.189 54.713-7.189 54.713 12.221 25.917 5.032 28.797c-7.188 2.879-68.294 13.678-69.732 3.599-1.438-10.078 5.032-69.111 5.032-69.111s-2.156-42.475 15.816-51.114l-3.595-7.919L293.09 44.38z" fill="#15234A"/><path d="M253.551 184.043s-16.534 17.278-7.189 21.597c9.346 4.32 15.097-19.438 15.097-19.438l-7.908-2.159z" fill="#FBBEBE"/><path d="M287.339 338.823l7.908-2.879s8.627 19.437 1.438 19.437h-18.692s-10.783-3.599-16.534-3.599c-5.751 0-16.535-10.799-8.627-15.838 7.908-5.04 17.973-3.6 17.973-3.6l2.875-6.479 3.595 10.079s4.313 7.199 10.064 2.879zM345.569 322.985s4.502-2.844 6.924-1.782c2.422 1.062 3.86 12.581 3.86 12.581s7.189 8.639-8.627 10.079c-15.816 1.439-19.41-1.44-20.848-5.76-1.438-4.319 1.438-8.639 1.438-8.639l4.313-1.439s5.033-3.6 3.595-5.04c-1.438-1.44 0-4.319 0-4.319s5.032 10.078 9.345 4.319zM281.757 28.95a9.607 9.607 0 0 0-.422-1.85c-1.044-2.19-5.114-1.551-5.839-3.868-.142-.453-.113-.947-.252-1.4-.354-1.16-1.715-1.734-2.924-1.678-1.208.055-2.34.573-3.504.903-2.844.809-5.87.5-8.809.185-1.299-.14-2.648-.295-3.761-.98-1.113-.686-1.915-2.067-1.51-3.31.389-1.194 1.692-1.85 2.278-2.958.931-1.761-.207-4.036.549-5.88 1.211-2.957 5.795-2.363 8.123-4.549.566-.53.973-1.209 1.515-1.763 1.607-1.645 4.146-1.964 6.433-1.737 2.288.227 4.535.9 6.834.859 2.179-.039 4.464-.703 6.472.146 1.218.515 2.149 1.522 3.04 2.5l5.152 5.658a6.36 6.36 0 0 1 1.592 2.402c.31 1.084.024 2.248.156 3.367.302 2.554 2.689 4.483 3.012 7.034a9.174 9.174 0 0 1-.114 2.37l-.722 5.327a3.966 3.966 0 0 1-.406 1.493c-.21.359-.527.642-.763.984-.667.967-.606 2.244-.938 3.37-.331 1.127-1.52 2.242-2.56 1.699-.678-.355-1.127-3.284-1.951-4.044-1.147-1.06-1.747-.93-3.164-.911-2.837.035-6.609.28-7.517-3.368z" fill="#2F2E41"/><path d="M285.182 71.017s21.567 8.639 15.097 28.076c-6.47 19.438-23.723 79.19-23.723 79.19l-10.065 5.04-2.875 7.919-13.659-5.04 2.156-10.798s.719-.72.719-3.6c0-2.879-2.875-3.599.719-3.599s3.594-3.6 3.594-3.6l12.941-80.63s0-13.678 15.096-12.958z" fill="#15234A"/><path opacity=".1" d="M301.357 103.053l-22.285 76.31-9.346 9.359 5.392-9.719 26.239-75.95z" fill="#000"/></g><defs><filter id="filter0_d" x=".998" y="0" width="419.002" height="370" filterUnits="userSpaceOnUse" color-interpolation-filters="sRGB"><feFlood flood-opacity="0" result="BackgroundImageFix"/><feColorMatrix in="SourceAlpha" values="0 0 0 0 0 0 0 0 0 0 0 0 0 0 0 0 0 0 127 0"/><feOffset dy="4"/><feGaussianBlur stdDeviation="2"/><feColorMatrix values="0 0 0 0 0 0 0 0 0 0 0 0 0 0 0 0 0 0 0.25 0"/><feBlend in2="BackgroundImageFix" result="effect1_dropShadow"/><feBlend in="SourceGraphic" in2="effect1_dropShadow" result="shape"/></filter></defs></svg>