<svg width="75" height="62" viewBox="0 0 75 62" fill="none" xmlns="http://www.w3.org/2000/svg">
<path fill-rule="evenodd" clip-rule="evenodd" d="M75 4.05787C75 6.18945 73.2632 7.9263 71.1316 7.9263C69.4737 7.9263 68.0526 6.89998 67.5 5.32103H51.0789C62.6053 10.2158 70.9737 21.0316 72.3947 33.9789H74.9211V41.6368H67.2632V33.9789H69.3947C67.6579 19.2947 55.9737 7.61051 41.2895 5.87366V8.00524H33.6316V5.87366C18.9474 7.61051 7.26316 19.2947 5.52632 33.9789H7.65789V41.6368H0V33.9789H2.52632C3.94737 21.0316 12.3158 10.2158 23.8421 5.32103H7.5C6.94737 6.82103 5.52632 7.9263 3.86842 7.9263C1.73684 7.9263 0 6.18945 0 4.05787C0 1.9263 1.73684 0.189453 3.86842 0.189453C5.52632 0.189453 6.94737 1.29472 7.5 2.79472H33.3158H33.6316V0.2684H41.2895V2.79472H41.6053H67.5C68.0526 1.29472 69.4737 0.189453 71.1316 0.189453C73.2632 0.189453 75 1.9263 75 4.05787ZM40.7162 15.9789C40.3214 15.2684 39.6899 14.7158 38.9793 14.4V31.3737C40.7162 32.0052 41.9004 33.6631 41.9004 35.5579C41.9004 38.0052 39.9267 39.9789 37.4793 39.9789C35.032 39.9789 33.0583 38.0052 33.0583 35.5579C33.0583 33.6631 34.3214 32.0052 35.9793 31.3737V14.4789C35.2688 14.7947 34.7162 15.3473 34.2425 15.9789L23.6636 34.4526C22.953 35.6368 22.7162 37.0579 23.032 38.4L25.5583 50.9526C25.7162 51.5842 26.2688 52.1368 26.9793 52.1368H48.0583C48.7688 52.1368 49.3214 51.6631 49.4793 50.9526L52.0057 38.4C52.3214 37.0579 52.0846 35.6368 51.3741 34.4526L40.7162 15.9789ZM48 55.4526H27.4737C26.6842 55.4526 26.0526 56.0842 26.0526 56.8737V60.1895C26.0526 60.9789 26.6842 61.6105 27.4737 61.6105H48C48.7895 61.6105 49.4211 60.9789 49.4211 60.1895V56.8737C49.4211 56.0842 48.7895 55.4526 48 55.4526Z" fill="url(#paint0_linear)"/>
<defs>
<linearGradient id="paint0_linear" x1="-51.6451" y1="-0.156764" x2="25.1173" y2="113.375" gradientUnits="userSpaceOnUse">
<stop stop-color="#F7618B"/>
<stop offset="1" stop-color="#2A7AFF"/>
</linearGradient>
</defs>
</svg>
