<svg width="77" height="77" viewBox="0 0 77 77" fill="none" xmlns="http://www.w3.org/2000/svg">
<path fill-rule="evenodd" clip-rule="evenodd" d="M38.5 77C59.763 77 77 59.763 77 38.5C77 17.237 59.763 0 38.5 0C17.237 0 0 17.237 0 38.5C0 59.763 17.237 77 38.5 77Z" fill="#4ED0E5"/>
<path fill-rule="evenodd" clip-rule="evenodd" d="M58.7929 40.0788C61.9648 36.897 63.6851 33.1753 63.9554 28.9131C64.2625 24.6525 62.9828 21.04 60.1164 18.0765C57.2878 15.1877 53.7462 13.834 49.493 14.0162C45.2772 14.2357 41.6003 15.9278 38.4652 19.0916L30.193 27.3219L30.1119 27.4322C29.4632 28.4192 29.0842 29.0963 28.9766 29.4618V29.5166L20.2189 38.2693L26.5978 44.8535L17.6509 53.7697C16.6594 54.7568 16.1188 55.8904 16.029 57.171C15.8842 58.5795 16.2815 59.7411 17.2179 60.6552C18.0651 61.5523 19.1198 62 20.3806 62L20.6509 61.972C21.949 61.9171 23.0935 61.3953 24.0839 60.4083L33.0043 51.4921L39.5465 58.1861L46.2768 51.4378C47.5749 51.1267 48.8902 50.1934 50.2239 48.6384L58.7929 40.0788ZM58.1982 19.9969C55.9449 17.693 53.0887 16.6038 49.6282 16.7328C46.1141 16.9155 43.0233 18.3508 40.3574 21.04L32.2745 29.0508C31.8798 29.5446 31.7263 30.039 31.8149 30.5322L31.7338 30.614L31.7749 30.6557L31.7338 30.7791L31.8014 30.6826L31.8966 30.8066C32.1669 31.0809 32.4275 31.2455 32.6799 31.2999C32.9502 31.3366 33.266 31.273 33.626 31.1078C34.2024 30.8335 34.9057 30.2848 35.7345 29.4618C36.3649 28.7858 37.2391 28.3924 38.3566 28.2821C39.5827 28.118 40.6456 28.5202 41.5463 29.4897C42.5919 30.5509 42.753 31.8485 42.0328 33.3854C41.4922 34.4828 40.3834 35.8265 38.708 37.4183C37.3207 38.6989 36.4735 39.6492 36.1675 40.2714C36.0048 40.6012 35.9416 40.8937 35.9772 41.1499C36.0324 41.388 36.1854 41.6432 36.4379 41.9175C36.7979 42.3197 37.2845 42.3658 37.897 42.0547L38.0046 42.0272C38.2571 41.9175 38.6004 41.7348 39.0318 41.4785L41.0051 39.8599C42.5729 38.4328 43.6985 37.4825 44.3841 37.0067L44.4651 36.9793C46.1589 36.0098 47.5559 36.0828 48.655 37.1982C49.0508 37.601 49.3033 38.0674 49.4119 38.5979C49.5557 39.2377 49.4741 39.8786 49.1681 40.5183C48.9335 41.1581 48.5199 41.799 47.9252 42.4388L47.87 42.4936L46.4109 43.7562L46.3298 43.811C46.0238 44.0305 45.6362 44.3136 45.1674 44.6609C44.1948 45.6491 43.6807 46.4815 43.6266 47.158C43.5909 47.5234 43.7261 47.862 44.0321 48.1731C44.3213 48.4666 44.6911 48.6587 45.1409 48.7498L45.0869 48.8046C45.1199 48.7936 45.1512 48.7799 45.1809 48.764C45.1955 48.7706 45.2096 48.775 45.222 48.7766L45.2345 48.7498C46.4644 48.347 47.4602 47.6974 48.2215 46.8014L48.2755 46.7191L56.8715 38.1327C59.539 35.4441 61.0074 32.3072 61.2777 28.7227C61.4961 25.2643 60.4684 22.3568 58.1982 19.9969ZM54.1976 19.5585L54.7106 19.7511C55.1437 19.897 55.6567 20.1714 56.2514 20.5741L56.6845 20.9033L56.0628 21.7812L55.6308 21.4794C55.2518 21.2051 54.8285 20.9675 54.3592 20.7662L53.8462 20.601L54.1976 19.5585ZM40.7894 24.14L40.0325 23.3439L40.438 22.9604C43.0692 20.4364 46.0605 19.0916 49.4135 18.9275C50.0439 18.854 50.7197 18.8633 51.4409 18.9544L51.9815 19.0098L51.8464 20.1072L51.3057 20.0254C50.8008 19.97 50.1969 19.9612 49.4936 19.9974C46.3947 20.1988 43.6196 21.4515 41.1689 23.756L40.7894 24.14ZM46.7363 39.1466L46.7904 39.1741L46.6828 39.4747C46.5201 39.8588 46.2865 40.2067 45.9795 40.5173L44.763 41.5598C43.9894 42.1265 43.5023 42.5019 43.3039 42.684C41.682 44.3306 40.8808 45.8757 40.8986 47.3215C40.9164 48.3448 41.3122 49.2688 42.0875 50.0918C42.3756 50.3848 42.6913 50.6323 43.0336 50.8326L39.5735 54.3178L33.0319 47.6233L32.4637 48.2L29.8416 45.4565L30.4098 44.8799L24.0298 38.2956L29.8151 32.5344L29.9768 32.727C30.6439 33.4041 31.3916 33.8244 32.2204 33.989C33.0313 34.136 33.878 34.0071 34.7608 33.6054C35.5718 33.2208 36.5363 32.49 37.6543 31.4107C37.87 31.1912 38.1949 31.054 38.6269 30.9992H38.6809C39.0064 30.963 39.321 31.1001 39.627 31.4107C39.7714 31.5561 39.7622 31.8123 39.6005 32.1783C39.1853 32.9646 38.2755 34.0433 36.8698 35.415C35.2658 36.9157 34.2299 38.1135 33.7612 39.0095C33.3292 39.8687 33.1762 40.7197 33.3017 41.5609C33.4465 42.402 33.852 43.1614 34.5181 43.8374C35.1128 44.4601 35.7978 44.8354 36.573 44.9627C37.3472 45.0917 38.1581 44.9627 39.0059 44.5792C39.5097 44.3597 40.006 44.0936 40.4926 43.783L40.6277 43.7007L42.7903 41.9175C44.3576 40.5096 45.3669 39.6492 45.8178 39.3387C46.2865 39.0643 46.5925 39.0001 46.7363 39.1466ZM27.166 48.1456L19.5431 55.745C19.0382 56.2388 18.7587 56.7875 18.7046 57.391C18.6689 57.9759 18.8041 58.4242 19.1101 58.7348C19.5058 59.1013 19.9751 59.2747 20.5157 59.2566C21.1472 59.2006 21.7057 58.9361 22.1917 58.4604L29.7876 50.8891L27.166 48.1456ZM31.7079 48.9681L30.5715 50.1204L27.9235 47.3769L29.0588 46.2247L31.7079 48.9681Z" fill="#292A49"/>
</svg>
