<svg width="146" height="44" viewBox="0 0 146 44" fill="none" xmlns="http://www.w3.org/2000/svg">
<path fill-rule="evenodd" clip-rule="evenodd" d="M140.225 33.7103C140.59 33.6825 144.488 33.1376 145.685 32.8601C145.982 32.7915 146.087 32.5385 145.921 32.2879C145.749 32.0263 145.505 31.6406 145.205 31.168L145.205 31.1677C144.342 29.807 143.022 27.726 141.657 25.8113C140.575 24.2943 139.455 22.8941 138.638 21.8719L138.638 21.8717L138.638 21.8716C138.177 21.2955 137.812 20.8394 137.604 20.5501C137.464 20.355 137.471 20.163 137.624 20.0116C138.722 18.9241 143.312 14.3657 145.037 12.4832C145.706 11.7509 145.304 11.4359 144.737 11.2648C143.641 10.9338 141.868 10.5212 140.859 10.3058C140.434 10.2148 139.922 10.2467 139.551 10.6338C137.825 12.2636 132.559 17.617 130.987 19.2173C130.704 19.506 130.539 19.4419 130.538 19.0293C130.525 15.9441 130.465 2.73483 130.356 0.562156C130.349 0.274908 130.007 0.056813 129.815 0.0464698C128.827 -0.00583763 126.33 -0.0209093 125.345 0.0376041C125.07 0.069225 124.806 0.353813 124.782 0.594368C124.555 4.06852 124.879 29.5715 125.013 33.139C125.023 33.397 125.213 33.5971 125.455 33.6116C126.436 33.6692 128.865 33.6654 129.998 33.6438C130.556 33.6438 130.625 33.2466 130.625 33.2466L130.709 26.4032C130.709 26.4032 130.766 26.0988 130.859 25.9983C131.259 25.5624 132.365 24.362 132.836 23.8981C132.949 23.7866 133.128 23.7946 133.243 23.9521C133.59 24.4251 134.332 25.556 135.198 26.8755L135.199 26.8769C135.734 27.6923 136.316 28.5796 136.882 29.4282C138.125 31.2933 139.292 32.9667 139.552 33.3395L139.601 33.4094C139.806 33.705 140.045 33.7168 140.225 33.7112V33.7103H140.225ZM61.181 9.86401C55.4526 9.86401 52.3004 12.9218 52.3004 17.3008H52.301C52.301 21.8445 55.8885 23.3333 60.3477 24.1841C63.1437 24.7178 64.8995 25.4552 64.9234 26.7173C64.9514 28.15 63.6116 29.0005 61.3972 29.0549C61.2081 29.0599 61.0156 29.0588 60.8213 29.052C58.3594 28.9651 56.2237 27.6553 54.926 26.8385C54.5546 26.6053 53.8401 26.6647 53.5693 27.0389C53.0824 27.6213 52.4618 28.7183 52.0942 29.6755C51.7729 30.419 52.3722 31.0373 52.4259 31.084C54.0002 32.4593 56.9382 33.8767 61.0795 33.9615C67.3613 34.0747 70.5675 30.3818 70.5675 26.2956C70.5675 21.4839 67.0757 20.1133 62.4604 19.3124C59.9778 18.8804 57.9285 18.3411 57.9687 16.8496C57.9764 16.6191 58.0235 16.3917 58.1079 16.1775C58.5388 15.0457 59.7625 14.5306 61.2271 14.4975C61.6506 14.4881 62.0743 14.5066 62.4954 14.5531C64.094 14.7229 65.8287 15.6151 66.941 16.1871L67.0725 16.2547C67.3771 16.411 67.9717 16.4686 68.2045 16.0313C68.6045 15.2806 69.1621 14.1251 69.4661 13.3568C69.7033 12.6434 69.3076 12.2598 69.0859 12.1017C67.5364 10.9944 64.6763 9.86401 61.181 9.86401ZM86.7011 26.9375C86.7843 24.4483 89.6674 23.5777 92.812 23.536L92.8117 23.5354C93.6546 23.57 94.1491 23.6581 94.8173 23.9433C94.9512 24.0003 95.257 24.2967 95.261 24.4533C95.2771 25.1892 95.2368 26.9109 94.9722 27.371C94.2565 28.6125 92.6323 29.5481 90.5025 29.7559C88.2822 29.883 86.7003 28.9128 86.7011 26.9375ZM82.3487 13.506C83.8191 12.1732 86.7347 10.0987 91.3812 10.208C97.5131 10.3371 100.753 13.2489 101.054 20.2144C101.174 22.9746 100.988 30.4808 100.93 32.8344L100.923 33.0953C100.916 33.3817 100.821 33.5797 100.439 33.587C99.4297 33.6281 97.0968 33.6119 96.0249 33.5977C95.4839 33.5711 95.4212 33.2992 95.4142 33.0146L95.4112 32.9011L95.4042 32.6425C95.3976 32.4006 95.3892 32.0953 95.3824 31.8263C95.3763 31.5875 95.1548 31.5943 95.0982 31.6555C93.6599 33.2111 91.3042 33.9624 88.7992 33.9624C84.9917 33.9624 81.1959 31.6936 81.2076 27.2008C81.2193 22.5995 84.4403 20.3299 87.9787 19.7947C90.2445 19.4531 92.7986 19.7569 94.7327 20.5353C94.8564 20.5855 95.109 20.5128 95.1111 20.3352C95.119 19.7489 95.0909 18.6316 94.9798 18.102C94.6959 16.7526 93.5846 15.6669 91.2499 15.3743C90.7691 15.3143 90.2851 15.2945 89.8005 15.3335C88.1329 15.4663 86.1604 16.6633 85.1064 17.3029C84.9874 17.3751 84.8801 17.4402 84.7863 17.4959C84.5687 17.6247 84.2279 17.5304 84.1176 17.3865C83.5779 16.6802 82.2212 14.6145 82.1144 14.2844C82.0076 13.9552 82.1582 13.678 82.3481 13.5048L82.3487 13.506ZM114.622 10.1929C107.454 10.2405 103.04 15.6542 103.076 22.0714L103.077 22.0723C103.113 28.5123 106.973 34.0549 114.755 33.9996C118.472 33.9783 121.281 32.4097 122.735 30.5458C122.861 30.3839 123.124 29.9808 122.773 29.5688C122.237 28.8274 121.27 27.7502 120.596 27.0525C120.253 26.7806 119.942 26.6476 119.641 26.9133C118.684 27.7889 116.905 28.8578 115.069 28.8111C111.557 28.7269 109.098 26.4038 109.071 22.1766C109.043 17.7716 111.61 15.3773 115.057 15.3767C116.958 15.3767 118.889 16.2151 119.905 16.9007C119.957 16.9358 120.008 16.9725 120.058 17.0085C120.36 17.2254 120.627 17.4173 120.876 17.0934C121.558 16.2068 122.514 14.6423 122.893 13.8326C122.973 13.6035 123.033 13.4135 122.917 13.186C122.344 12.2173 119.095 10.1634 114.622 10.1929ZM78.0239 33.6937C76.8715 33.6952 74.2705 33.6982 73.9276 33.6866H73.9282C73.4961 33.6719 73.2773 33.4668 73.2309 33.043C73.1842 32.6198 73.0354 10.2724 73.256 0.579296C73.2616 0.404938 73.3654 0.269293 73.5416 0.222896C74.4426 -0.0158854 77.2534 -0.0472107 78.2425 0.0869563C78.4616 0.116509 78.599 0.238559 78.6118 0.563633C78.7665 4.32415 78.8712 28.1391 78.6264 33.1411C78.6136 33.4038 78.412 33.7014 78.0239 33.6937Z" fill="#31414E"/>
<path d="M3.67571 23.9999C2.06441 24.0125 0.699471 23.0301 0.196197 21.4967C0.177527 21.4388 0.160121 21.3805 0.143993 21.3218C-0.404446 19.3582 0.658998 17.3039 2.56504 16.6462L33.1369 6.16697C33.4999 6.05952 33.8755 6.00339 34.2534 6.00013C35.9075 5.98693 37.31 6.99095 37.8256 8.55669L37.8713 8.70792C38.4432 10.7532 37.0223 12.5788 35.3198 13.1639C35.3186 13.1648 35.0089 13.2719 4.91747 23.7835C4.51749 23.923 4.09826 23.9961 3.67571 23.9999Z" fill="#31414E"/>
<path d="M8.6811 38.9994C7.06163 39.0113 5.69575 38.0506 5.1997 36.5514C5.18087 36.4944 5.16331 36.4369 5.14705 36.3791C4.59251 34.4081 5.65187 32.3491 7.55915 31.6958L38.0486 21.2064C38.4426 21.0724 38.8494 21.004 39.2586 21.0001C40.8824 20.9876 42.3092 21.9972 42.8125 23.5133L42.8593 23.6711C43.1539 24.719 42.9798 25.8968 42.3943 26.8263C41.9579 27.5174 40.5815 28.1257 40.5815 28.1257L9.97621 38.7747C9.5588 38.9185 9.12175 38.9945 8.6811 39V38.9994Z" fill="#31414E"/>
<path d="M34.2237 38.9998C32.5714 39.0155 31.0967 37.978 30.5706 36.4298L20.2002 5.98261L20.1484 5.81172C19.5865 3.87011 20.667 1.84481 22.6037 1.19957C22.9912 1.07082 23.3918 1.00364 23.7952 1.00011C24.3943 0.995687 24.9741 1.12915 25.5202 1.3958C26.4287 1.83989 27.1206 2.62375 27.4425 3.57371L37.812 34.0182L37.8422 34.116C38.4246 36.1319 37.3464 38.1584 35.4098 38.8036C35.0272 38.9299 34.627 38.9961 34.2237 38.9998Z" fill="#31414E"/>
<path d="M19.2143 43.9998C17.5621 44.0154 16.0876 42.9769 15.562 41.4275L5.20077 10.9792C4.87653 10.0305 4.94717 8.9932 5.3971 8.09607C5.84704 7.19893 6.63931 6.51568 7.59917 6.19701C7.98204 6.07042 8.38262 6.004 8.7863 6.00019C10.4379 5.98406 11.912 7.02176 12.4377 8.57044L22.7992 39.0199C23.1236 39.9691 23.0528 41.0069 22.6023 41.9043C22.1518 42.8017 21.3587 43.4849 20.3982 43.803C20.016 43.9297 19.6161 43.996 19.2131 43.9995H19.2143V43.9998Z" fill="#31414E"/>
<path d="M29.2232 32L36 29.6559L33.7846 23L27 25.3195L29.2232 32Z" fill="#31414E"/>
<path d="M14.2351 37L21 34.6693L18.7716 28L12 30.3074L14.2351 37Z" fill="#31414E"/>
<path d="M24.207 17L31 14.6378L28.8056 8L22 10.3223L24.207 17Z" fill="#31414E"/>
<path d="M9.22725 22L16 19.6598L13.7853 13L7 15.3004L9.22725 22Z" fill="#31414E"/>
</svg>
