<svg width="24" height="24" viewBox="0 0 24 24" fill="none" xmlns="http://www.w3.org/2000/svg">
<path fill-rule="evenodd" clip-rule="evenodd" d="M12 24C18.6274 24 24 18.6274 24 12C24 5.37258 18.6274 0 12 0C5.37258 0 0 5.37258 0 12C0 18.6274 5.37258 24 12 24Z" fill="#7EEAA6"/>
<path d="M23.5 12C23.5 18.3513 18.3513 23.5 12 23.5C5.64873 23.5 0.5 18.3513 0.5 12C0.5 5.64873 5.64873 0.5 12 0.5C18.3513 0.5 23.5 5.64873 23.5 12Z" stroke="white"/>
<path fill-rule="evenodd" clip-rule="evenodd" d="M13.5844 8.7037V5.82305C13.5844 5.36849 13.9529 5 14.4074 5C14.862 5 15.2305 5.36849 15.2305 5.82305V8.7037H13.5844ZM16.465 9.11523H7.41152C7.18423 9.11523 7 9.29946 7 9.52675V10.3498C7 10.5771 7.18423 10.7613 7.41152 10.7613H7.82305V11.5844C7.82305 13.5753 9.23686 15.2359 11.1152 15.6172V18.1687H12.7613V15.6172C14.6397 15.2359 16.0535 13.5753 16.0535 11.5844V10.7613H16.465C16.6923 10.7613 16.8765 10.5771 16.8765 10.3498V9.52675C16.8765 9.29946 16.6923 9.11523 16.465 9.11523ZM10.2922 5.82305V8.7037H8.64609V5.82305C8.64609 5.36849 9.01458 5 9.46914 5C9.92369 5 10.2922 5.36849 10.2922 5.82305Z" fill="black"/>
</svg>
