<?xml version="1.0" encoding="UTF-8"?>
<svg width="16px" height="16px" viewBox="0 0 16 16" version="1.1" xmlns="http://www.w3.org/2000/svg" xmlns:xlink="http://www.w3.org/1999/xlink">
    <!-- Generator: Sketch 62 (91390) - https://sketch.com -->
    <title>Favicon</title>
    <desc>Created with Sketch.</desc>
    <g id="Favicon" stroke="none" stroke-width="1" fill="none" fill-rule="evenodd">
        <g id="Group" transform="translate(2.500000, 0.000000)">
            <path d="M9.625,4.66666667 C9.625,2.58333333 7.44433594,1.33333333 5.5,1.33333333 C3.55566406,1.33333333 1.375,2.58333333 1.375,4.66666667 C1.375,5.33333333 1.65429687,6.03125 2.10546875,6.54166667 C2.30957031,6.77083333 2.54589844,6.98958333 2.76074219,7.22916667 C3.5234375,8.11458333 4.16796875,9.15625 4.27539062,10.3333333 L6.72460938,10.3333333 C6.83203125,9.15625 7.4765625,8.11458333 8.23925781,7.22916667 C8.45410156,6.98958333 8.69042969,6.77083333 8.89453125,6.54166667 C9.34570313,6.03125 9.625,5.33333333 9.625,4.66666667 Z" id="Path" fill="#FFFFFF"></path>
            <path d="M7.90625,4.66666667 C7.90625,4.84375 7.74511719,5 7.56249713,5 C7.37988281,5 7.21875,4.84375 7.21875,4.66666667 C7.21875,3.94791667 6.06933594,3.66666667 5.5,3.66666667 C5.31738281,3.66666667 5.15625,3.51041667 5.15625,3.33333333 C5.15625,3.15625 5.31738281,3 5.5,3 C6.49902344,3 7.90625,3.51041667 7.90625,4.66666667 Z M9.625,4.66666667 C9.625,2.58333333 7.44433594,1.33333333 5.5,1.33333333 C3.55566406,1.33333333 1.375,2.58333333 1.375,4.66666667 C1.375,5.33333333 1.65429688,6.03125 2.10546875,6.54166667 C2.30957031,6.77083333 2.54589844,6.98958333 2.76074219,7.22916667 C3.5234375,8.11458333 4.16796875,9.15625 4.27539063,10.3333333 L6.72460938,10.3333333 C6.83203125,9.15625 7.4765625,8.11458333 8.23925781,7.22916667 C8.45410156,6.98958333 8.69042969,6.77083333 8.89453125,6.54166667 C9.34570313,6.03125 9.625,5.33333333 9.625,4.66666667 Z M11,4.6666611 C11,5.73958333 10.6347656,6.66666667 9.89355469,7.45833333 C9.15234375,8.25 8.17480469,9.36458333 8.08886719,10.4791667 C8.40039062,10.65625 8.59375,10.9895833 8.59375,11.3333333 C8.59375,11.5833333 8.49707031,11.8229167 8.32519531,12 C8.49707031,12.1770833 8.59375,12.4166667 8.59375,12.6666667 C8.59375,13.0104167 8.41113281,13.3229167 8.11035156,13.5104167 C8.19628906,13.65625 8.25,13.8333333 8.25,14 C8.25,14.6770833 7.70214844,15 7.07910156,15 C6.79980469,15.6041667 6.17675781,16 5.5,16 C4.82324219,16 4.20019531,15.6041667 3.92089844,15 C3.29785156,15 2.75,14.6770833 2.75,14 C2.75,13.8333333 2.80371094,13.65625 2.88964844,13.5104167 C2.58886719,13.3229167 2.40624713,13.0104167 2.40624713,12.6666667 C2.40624713,12.4166667 2.50292969,12.1770833 2.67480469,12 C2.50292969,11.8229167 2.40624713,11.5833333 2.40624713,11.3333333 C2.40624713,10.9895833 2.59960938,10.65625 2.91113281,10.4791667 C2.82519531,9.36458333 1.84765625,8.25 1.10644531,7.45833333 C0.365234375,6.66666667 0,5.73958333 0,4.6666611 C0,1.83333333 2.78222656,0 5.5,0 C8.21777344,0 11,1.83333333 11,4.6666611 Z" id="" fill="#15161A" fill-rule="nonzero"></path>
        </g>
    </g>
</svg>