<?xml version="1.0" encoding="UTF-8"?>
<svg width="110px" height="71px" viewBox="0 0 110 71" version="1.1" xmlns="http://www.w3.org/2000/svg" xmlns:xlink="http://www.w3.org/1999/xlink">
    <!-- Generator: sketchtool 59.1 (101010) - https://sketch.com -->
    <title>3AB2FF77-69C6-4669-B3D5-1772C3FFF2FF</title>
    <desc>Created with sketchtool.</desc>
    <g id="Page-1" stroke="none" stroke-width="1" fill="none" fill-rule="evenodd">
        <g id="Landing_Final" transform="translate(-540.000000, -361.000000)">
            <g id="Car" transform="translate(540.000000, 358.000000)">
                <g id="carcass" transform="translate(0.000000, 11.000000)">
                    <path d="M56.6319758,14 L8.54145802,14 C6.39989216,14 4.63825706,15.6867065 4.54523339,17.8262511 L3.00377537,53.2797856 C2.99551347,53.4698092 3.00081573,53.6601802 3.0196418,53.8494493 C3.23829953,56.0477405 5.19762371,57.6525504 7.39589734,57.4338944 L49.6603489,53.2292191 L49.9682385,53.8457542 C51.2292502,56.3708738 53.8098722,58 56.6826971,58 L78.2541257,58 C82.3962613,58 85.7541257,54.6421356 85.7541257,50.5 L85.7541257,42.7947965 C85.7541257,39.1593361 83.1468331,36.0473535 79.5675641,35.4107001 L70.7627128,33.8446576 L60.0653595,15.9477143 C59.3432531,14.739662 58.0393948,14 56.6319758,14 Z" id="Combined-Shape" stroke="#15161A" stroke-width="2" fill="#ED6638" transform="translate(44.377063, 36.000000) scale(-1, 1) translate(-44.377063, -36.000000) "></path>
                    <path d="M56.6319758,14 L8.54145802,14 C6.39989216,14 4.63825706,15.6867065 4.54523339,17.8262511 L3.00377537,53.2797856 C2.99551347,53.4698092 3.00081573,53.6601802 3.0196418,53.8494493 C3.23829953,56.0477405 5.19762371,57.6525504 7.39589734,57.4338944 L49.6603489,53.2292191 L49.9682385,53.8457542 C51.2292502,56.3708738 53.8098722,58 56.6826971,58 L78.2541257,58 C82.3962613,58 85.7541257,54.6421356 85.7541257,50.5 L85.7541257,42.7947965 C85.7541257,39.1593361 83.1468331,36.0473535 79.5675641,35.4107001 L70.7627128,33.8446576 L60.0653595,15.9477143 C59.3432531,14.739662 58.0393948,14 56.6319758,14 Z" id="Combined-Shape" stroke="#15161A" stroke-width="2" fill="#ED6638" transform="translate(44.377063, 36.000000) scale(-1, 1) translate(-44.377063, -36.000000) "></path>
                    <path d="M26.2662576,20 L17.9914252,33.8446554 L17.118267,33.9999565 L40,34 C42.209139,34 44,32.209139 44,30 L44,24 C44,21.790861 42.209139,20 40,20 L26.2662576,20 Z" id="Combined-Shape" stroke="#15161A" stroke-width="2" fill="#C7F3FF"></path>
                    <rect id="Rectangle" stroke="#15161A" stroke-width="2" fill="#FFBE51" x="1" y="53" width="86" height="5" rx="2"></rect>
                    <polyline id="Path-9" stroke="#15161A" stroke-width="2" stroke-linecap="round" points="23 47 47.13596 47 56.5804661 37 84 37"></polyline>
                    <path d="M49.1873264,14 L68.8669511,14 L67.5678909,3.62720061 C67.3799126,2.12622288 66.1038471,1 64.5911442,1 L53.9571488,1 C52.4971144,1 51.2490943,2.05111792 51.0008354,3.48989102 L49.1873264,14 Z" id="Rectangle" stroke="#15161A" stroke-width="2" fill="#FFBE51"></path>
                    <polygon id="Path" fill="#000000" fill-rule="nonzero" points="60.3333333 4 57.6666667 4 57.6666667 6.66666667 55 6.66666667 55 9.33333333 57.6666667 9.33333333 57.6666667 12 60.3333333 12 60.3333333 9.33333333 63 9.33333333 63 6.66666667 60.3333333 6.66666667"></polygon>
                    <line x1="62" y1="25" x2="65" y2="25" id="Line-8" stroke="#15161A" stroke-width="2" stroke-linecap="round"></line>
                    <line x1="69" y1="25" x2="77" y2="25" id="Line-8" stroke="#15161A" stroke-width="2" stroke-linecap="round"></line>
                    <line x1="62" y1="29" x2="77" y2="29" id="Line-8" stroke="#15161A" stroke-width="2" stroke-linecap="round"></line>
                    <line x1="29" y1="25" x2="34" y2="30" id="Line-8" stroke="#15161A" stroke-width="2" stroke-linecap="round" transform="translate(31.500000, 27.500000) scale(-1, 1) translate(-31.500000, -27.500000) "></line>
                    <line x1="35.4644661" y1="24" x2="39" y2="27.5355339" id="Line-8" stroke="#15161A" stroke-width="2" stroke-linecap="round" transform="translate(37.232233, 25.767767) scale(-1, 1) translate(-37.232233, -25.767767) "></line>
                </g>
                <g id="moving-parts" transform="translate(10.000000, 0.198204)">
                    <g id="siren---right" transform="translate(62.999973, 8.500000) scale(-1, 1) rotate(35.000000) translate(-62.999973, -8.500000) translate(58.999973, 2.000000)" fill="#15161A" fill-rule="nonzero">
                        <path d="M3.38713807,0.209856915 C1.15335976,1.94234868 -1.77191595e-13,4.07987576 -1.77191595e-13,6.55996107 C-1.77191595e-13,9.04754977 1.16111806,11.1530771 3.40742596,12.8055629 C3.85230015,13.1328325 4.47824638,13.0374952 4.80551599,12.592621 C5.13278559,12.1477468 5.03744824,11.5218005 4.59257404,11.1945309 C2.83888194,9.9044356 2,8.38323901 2,6.55996107 C2,4.72917972 2.84664024,3.16009738 4.61286193,1.79023694 C5.04927182,1.45176264 5.12866431,0.823594888 4.79019001,0.387184996 C4.45171571,-0.0492248969 3.82354796,-0.128617383 3.38713807,0.209856915 Z" id="Path-6"></path>
                        <path d="M6.40498353,2.19633342 C4.8296536,3.36260381 4,4.83031378 4,6.53817411 C4,8.25358326 4.83769882,9.70358664 6.42532616,10.8184295 C6.87730636,11.1358131 7.50099894,11.026701 7.81838254,10.5747208 C8.13576614,10.1227406 8.02665403,9.49904799 7.57467384,9.18166439 C6.49563452,8.42395556 6,7.56604373 6,6.53817411 C6,5.50275566 6.50367973,4.61171418 7.59501647,3.80376043 C8.03889518,3.47514191 8.13233203,2.84890917 7.8037135,2.40503045 C7.47509498,1.96115174 6.84886224,1.8677149 6.40498353,2.19633342 Z" id="Path-6"></path>
                    </g>
                    <g id="siren---left" transform="translate(36.000027, 8.500000) rotate(35.000000) translate(-36.000027, -8.500000) translate(32.000027, 2.000000)" fill="#15161A" fill-rule="nonzero">
                        <path d="M3.38713807,0.209856915 C1.15335976,1.94234868 1.64179781e-12,4.07987576 1.64179781e-12,6.55996107 C1.64179781e-12,9.04754977 1.16111806,11.1530771 3.40742596,12.8055629 C3.85230015,13.1328325 4.47824638,13.0374952 4.80551599,12.592621 C5.13278559,12.1477468 5.03744824,11.5218005 4.59257404,11.1945309 C2.83888194,9.9044356 2,8.38323901 2,6.55996107 C2,4.72917972 2.84664024,3.16009738 4.61286193,1.79023694 C5.04927182,1.45176264 5.12866431,0.823594888 4.79019001,0.387184996 C4.45171571,-0.0492248969 3.82354796,-0.128617383 3.38713807,0.209856915 Z" id="Path-6"></path>
                        <path d="M6.40498353,2.19633342 C4.8296536,3.36260381 4,4.83031378 4,6.53817411 C4,8.25358326 4.83769882,9.70358664 6.42532616,10.8184295 C6.87730636,11.1358131 7.50099894,11.026701 7.81838254,10.5747208 C8.13576614,10.1227406 8.02665403,9.49904799 7.57467384,9.18166439 C6.49563452,8.42395556 6,7.56604373 6,6.53817411 C6,5.50275566 6.50367973,4.61171418 7.59501647,3.80376043 C8.03889518,3.47514191 8.13233203,2.84890917 7.8037135,2.40503045 C7.47509498,1.96115174 6.84886224,1.8677149 6.40498353,2.19633342 Z" id="Path-6"></path>
                    </g>
                    <path d="M97,46.8017963 L99,46.8017963 C99.5522847,46.8017963 100,46.354081 100,45.8017963 C100,45.2495115 99.5522847,44.8017963 99,44.8017963 L97,44.8017963 C96.4477153,44.8017963 96,45.2495115 96,45.8017963 C96,46.354081 96.4477153,46.8017963 97,46.8017963 Z" id="Line-8-1" fill="#15161A" fill-rule="nonzero" transform="translate(98.000000, 45.801796) scale(-1, 1) translate(-98.000000, -45.801796) "></path>
                    <path d="M87,46.8017963 L93,46.8017963 C93.5522847,46.8017963 94,46.354081 94,45.8017963 C94,45.2495115 93.5522847,44.8017963 93,44.8017963 L87,44.8017963 C86.4477153,44.8017963 86,45.2495115 86,45.8017963 C86,46.354081 86.4477153,46.8017963 87,46.8017963 Z" id="Line-8-2" fill="#15161A" fill-rule="nonzero" transform="translate(90.000000, 45.801796) scale(-1, 1) translate(-90.000000, -45.801796) "></path>
                    <path d="M82,50.8017963 L94,50.8017963 C94.5522847,50.8017963 95,50.354081 95,49.8017963 C95,49.2495115 94.5522847,48.8017963 94,48.8017963 L82,48.8017963 C81.4477153,48.8017963 81,49.2495115 81,49.8017963 C81,50.354081 81.4477153,50.8017963 82,50.8017963 Z" id="Line-8-3" fill="#15161A" fill-rule="nonzero" transform="translate(88.000000, 49.801796) scale(-1, 1) translate(-88.000000, -49.801796) "></path>
                    <path d="M83,42.8017963 L93,42.8017963 C93.5522847,42.8017963 94,42.354081 94,41.8017963 C94,41.2495115 93.5522847,40.8017963 93,40.8017963 L83,40.8017963 C82.4477153,40.8017963 82,41.2495115 82,41.8017963 C82,42.354081 82.4477153,42.8017963 83,42.8017963 Z" id="Line-8-4" fill="#15161A" fill-rule="nonzero" transform="translate(88.000000, 41.801796) scale(-1, 1) translate(-88.000000, -41.801796) "></path>
                    <g id="wheel-1" transform="translate(62.000000, 64.801796) scale(-1, 1) translate(-62.000000, -64.801796) translate(53.000000, 55.801796)">
                        <circle id="Oval" stroke="#15161A" stroke-width="2" fill="#AFB8C9" cx="9" cy="9" r="8"></circle>
                        <circle id="Oval" fill="#15161A" cx="9" cy="9" r="3"></circle>
                    </g>
                    <g id="wheel-2" transform="translate(9.000000, 64.801796) scale(-1, 1) translate(-9.000000, -64.801796) translate(0.000000, 55.801796)">
                        <circle id="Oval" stroke="#15161A" stroke-width="2" fill="#AFB8C9" cx="9" cy="9" r="8"></circle>
                        <circle id="Oval" fill="#15161A" cx="9" cy="9" r="3"></circle>
                    </g>
                    <line x1="83" y1="72.8017963" x2="86" y2="72.8017963" id="Line-8-5" stroke="#15161A" stroke-width="2" stroke-linecap="round" transform="translate(84.500000, 72.801796) scale(-1, 1) translate(-84.500000, -72.801796) "></line>
                    <line x1="71" y1="72.8017963" x2="79" y2="72.8017963" id="Line-8-6" stroke="#15161A" stroke-width="2" stroke-linecap="round" transform="translate(75.000000, 72.801796) scale(-1, 1) translate(-75.000000, -72.801796) "></line>
                    <line x1="26" y1="72.8017963" x2="28" y2="72.8017963" id="Line-8-7" stroke="#15161A" stroke-width="2" stroke-linecap="round" transform="translate(27.000000, 72.801796) scale(-1, 1) translate(-27.000000, -72.801796) "></line>
                    <line x1="18" y1="72.8017963" x2="23" y2="72.8017963" id="Line-8-8" stroke="#15161A" stroke-width="2" stroke-linecap="round" transform="translate(20.500000, 72.801796) scale(-1, 1) translate(-20.500000, -72.801796) "></line>
                </g>
            </g>
        </g>
    </g>
</svg>