<svg width="153" height="29" viewBox="0 0 153 29" fill="none" xmlns="http://www.w3.org/2000/svg">
<path fill-rule="evenodd" clip-rule="evenodd" d="M13.1 0C14.4 0 15.6 0.101 16.7 0.4C17.8 0.6 18.7 1 19.5 1.5C20.3 2 20.9 2.7 21.3 3.601C21.7 4.5 21.9 5.601 21.9 6.801C21.9 8.2 21.6 9.401 20.9 10.301C20.3 11.2 19.3 12 18.1 12.6C19.8 13.1 21.1 13.999 21.9 15.2C22.7 16.4 23.2 17.9 23.2 19.6C23.2 20.999 22.9 22.2 22.4 23.2C21.9 24.2 21.1 25.1 20.2 25.7C19.3 26.301 18.2 26.801 17 27.1C15.8 27.399 14.6 27.6 13.4 27.6H0V0H13.1ZM12.3 11.2C13.4 11.2 14.3 10.9 15 10.4C15.7 9.9 16 9 16 7.9C16 7.3 15.9 6.7 15.7 6.3C15.5 5.9 15.2 5.6 14.8 5.3C14.4 5.1 14 4.9 13.5 4.8C13 4.7 12.5 4.7 11.9 4.7H6.1V11.2H12.3ZM14.3 22.801C13.8 22.9 13.2 23 12.6 23H6.1V15.3H12.7C14 15.3 15.1 15.599 15.9 16.199C16.7 16.9 17.1 17.9 17.1 19.3C17.1 19.999 16.9 20.6 16.7 21.1C16.4 21.6 16.1 21.9 15.7 22.2C15.3 22.5 14.8 22.7 14.3 22.801ZM31.9 22.9C32.7 23.7 33.9 24.1 35.5 24.1C36.6 24.1 37.6 23.8 38.4 23.3C39.2 22.699 39.7 22.1 39.9 21.499H44.8C44 23.899 42.8 25.6 41.2 26.699C39.6 27.699 37.7 28.3 35.4 28.3C33.8 28.3 32.4 27.999 31.1 27.499C29.8 26.999 28.8 26.3 27.9 25.3C27 24.4 26.3 23.3 25.9 21.999C25.4 20.699 25.2 19.3 25.2 17.699C25.2 16.199 25.4 14.8 25.9 13.499C26.4 12.199 27.1 11.1 28 10.1C28.9 9.2 30 8.4 31.2 7.9C32.5 7.4 33.8 7.1 35.4 7.1C37.1 7.1 38.6 7.4 39.9 8.1C41.2 8.8 42.2 9.6 43 10.8C43.8 11.9 44.4 13.199 44.8 14.6C45 16 45.1 17.4 45 19H30.5C30.5 20.6 31.1 22.1 31.9 22.9ZM35.1 11.3C36.4 11.3 37.5 11.7 38.2 12.4C38.9 13.1 39.4 14.1 39.6 15.6H30.6C30.6 15.2682 30.6685 14.9377 30.7488 14.5502C30.7655 14.4695 30.7828 14.3862 30.8 14.3C30.9 13.8 31.1 13.301 31.5 12.9C31.9 12.499 32.3 12.1 32.9 11.8C33.5 11.499 34.2 11.3 35.1 11.3ZM52.8 0V10.4H52.9C53.6 9.2 54.5 8.4 55.6 7.9C56.7 7.4 57.7 7.1 58.8 7.1C60.3 7.1 61.5 7.3 62.4 7.7C63.3 8.1 64.1 8.7 64.6 9.4C65.1 10.1 65.5 11 65.7 12C65.9 13 66 14.101 66 15.4V27.7H60.5V16.4C60.5 14.7 60.2 13.5 59.7 12.7C59.2 11.9 58.3 11.5 57 11.5C55.5 11.5 54.4 12 53.8 12.801C53.1 13.7 52.8 15.2 52.8 17.2V27.7H47.3V0H52.8ZM72.2 8.499C71.3 9.1 70.6 9.7 70 10.6C69.5 11.4 69.1 12.5 69.1 13.7H74.6C74.7 12.7 75.1 11.9 75.7 11.4C76.3 10.9 77.1 10.7 78.2 10.7C78.7 10.7 79.2 10.7 79.6 10.801C80 10.9 80.399 11 80.7 11.2C81 11.4 81.3 11.7 81.5 12C81.7 12.3 81.8 12.8 81.8 13.4C81.8 14 81.7 14.4 81.3 14.7C80.9 15 80.4 15.2 79.8 15.4C79.2 15.5 78.5 15.6 77.7 15.7L75.3 16C74.4072 16.1002 73.6128 16.2978 72.8192 16.4952L72.8 16.5C72 16.7 71.2 17.101 70.6 17.5C70 18 69.5 18.6 69.1 19.3C68.7 19.999 68.5 20.999 68.5 22.1C68.5 23.2 68.7 24 69 24.801C69.4 25.6 69.9 26.2 70.5 26.7C71.2 27.2 71.9 27.601 72.7 27.801C73.6 28.1 74.4 28.2 75.4 28.2C76.6 28.2 77.8 28.1 79 27.7C80.2 27.301 81.2 26.7 82.1 25.801C82.1 26.101 82.1 26.5 82.2 26.801L82.2117 26.8368L82.2233 26.8728L82.2474 26.9493C82.3332 27.2215 82.4308 27.5316 82.6 27.7H88.2C87.899 27.301 87.601 26.601 87.5 25.801C87.4 25 87.3 24.1 87.3 23.2V12.7C87.3 11.5 87 10.5 86.501 9.799C85.9 9.099 85.3 8.498 84.4 8.099C83.601 7.698 82.601 7.399 81.601 7.299L81.3236 7.27367C80.3307 7.18279 79.4154 7.099 78.5 7.099C77.399 7.099 76.3 7.199 75.2 7.399C74.1 7.6 73.1 7.999 72.2 8.499ZM80.899 18.4C80.6 18.5 80.2 18.6 79.799 18.7C79.5844 18.7542 79.3699 18.7793 79.1399 18.8062C78.9411 18.8295 78.7308 18.8541 78.499 18.9C78.2993 18.9501 78.0743 18.975 77.8491 19.0001C77.6243 19.0251 77.3993 19.0501 77.199 19.1L75.999 19.4C75.599 19.5 75.199 19.7 74.999 19.9C74.699 20.1 74.499 20.4 74.299 20.7C74 21.1 74 21.5 74 22C74 22.5 74.1 22.9 74.3 23.2L74.3024 23.2036C74.5016 23.5024 74.7012 23.8018 75 24C75.3 24.2 75.7 24.301 76.1 24.4C76.5 24.499 76.899 24.5 77.399 24.5C78.5 24.5 79.299 24.301 79.899 24C80.5 23.601 80.899 23.2 81.2 22.7C81.5 22.2 81.7 21.7 81.7 21.2C81.8 20.7 81.8 20.301 81.8 20V17.9L81.7914 17.9058C81.4942 18.1039 81.1971 18.302 80.899 18.4ZM95.601 10.4V7.6H90.2V27.8H95.7V17.3C95.7 15.3 96 13.8 96.7 12.9C97.399 12 98.5 11.4 100 11.4C101.4 11.4 102.3 11.9 102.8 12.7C103.3 13.5 103.601 14.7 103.601 16.4V27.7H109.101V15.4C109.101 14.101 109 13 108.8 12C108.5 11 108.101 10.1 107.601 9.4C107.101 8.7 106.4 8.1 105.4 7.7C104.5 7.3 103.3 7.1 101.8 7.1C100.701 7.1 99.501 7.4 98.4 7.9C97.301 8.4 96.4 9.2 95.701 10.4H95.601ZM121.399 11.2C120.5 11.2 119.799 11.4 119.2 11.801C118.6 12.2 118.1 12.7 117.7 13.401C117.3 14.001 117.1 14.701 116.899 15.501C116.7 16.302 116.7 17.001 116.7 17.802C116.7 18.501 116.8 19.302 116.899 20.001C117.1 20.802 117.299 21.401 117.7 22.001C118.1 22.602 118.5 23.102 119.1 23.501C119.7 23.901 120.399 24.102 121.299 24.102C122.6 24.102 123.6 23.702 124.399 23.001C125.1 22.302 125.6 21.302 125.7 20.001H131C130.601 22.701 129.601 24.701 127.899 26.102C126.2 27.501 124 28.202 121.299 28.202C119.799 28.202 118.399 27.902 117.199 27.402C115.898 26.902 114.898 26.202 113.999 25.302C113.1 24.402 112.398 23.302 111.898 22.102C111.398 20.802 111.199 19.501 111.199 18.001C111.199 16.401 111.398 15.001 111.898 13.701C112.398 12.401 112.999 11.201 113.898 10.201C114.798 9.201 115.898 8.501 117.099 7.901C118.398 7.401 119.798 7.101 121.398 7.101C122.599 7.101 123.699 7.301 124.798 7.601C125.897 7.901 126.898 8.401 127.698 9C128.598 9.601 129.298 10.4 129.798 11.4C130.298 12.3 130.599 13.5 130.698 14.8H125.298C125.101 12.4 123.8 11.2 121.399 11.2ZM40.6 1.9H29.4V4.6H40.6V1.9ZM139.3 22.9C140.101 23.7 141.4 24.1 142.9 24.1C144.001 24.1 145.001 23.8 145.8 23.3C146.601 22.699 147.101 22.1 147.3 21.499H152.101C151.3 23.899 150.101 25.6 148.5 26.699C146.899 27.699 145 28.3 142.7 28.3C141.1 28.3 139.7 27.999 138.399 27.499C137.168 27.0401 136.069 26.2848 135.2 25.3C134.3 24.4 133.6 23.3 133.2 21.999C132.7 20.699 132.5 19.3 132.5 17.699C132.5 16.199 132.7 14.8 133.2 13.499C133.682 12.2448 134.394 11.092 135.3 10.1C136.2 9.2 137.3 8.4 138.5 7.9C139.8 7.4 141.2 7.1 142.7 7.1C144.399 7.1 145.899 7.4 147.1 8.1C148.399 8.8 149.399 9.6 150.2 10.8C151 11.9 151.6 13.199 152 14.6C152.399 15.999 152.5 17.499 152.399 19.1H137.899C137.899 20.6 138.5 22.1 139.3 22.9ZM142.6 11.3C143.899 11.3 145 11.7 145.7 12.4C146.3 13.1 146.8 14.1 147.101 15.6H138.101C138.101 15.2705 138.169 14.9423 138.248 14.5584C138.265 14.4751 138.282 14.3892 138.3 14.3C138.399 13.8 138.701 13.301 139 12.9C139.299 12.499 139.799 12.1 140.399 11.8C140.999 11.499 141.7 11.3 142.6 11.3Z" fill="#31414E"/>
</svg>
