<svg width="149" height="38" viewBox="0 0 149 38" fill="none" xmlns="http://www.w3.org/2000/svg">
<path fill-rule="evenodd" clip-rule="evenodd" d="M56.9376 29.0045C57.0322 28.8501 57.1304 28.6897 57.2355 28.5217C58.0522 31.4727 58.4553 32.4665 59.4169 33.9089C60.3391 35.2891 61.4631 36.4503 62.9504 37.2012C65.6401 38.5592 68.4192 37.8622 70.1427 35.3665C70.5326 34.8006 70.8755 34.1777 71.1129 33.5331C71.3773 32.8154 71.5893 32.0779 71.8075 31.3187C71.9009 30.9938 71.9954 30.6649 72.0957 30.3319C73.8521 30.882 75.3654 30.5291 76.306 28.5957C77.0607 31.4852 77.6895 32.9209 78.8947 34.5099C79.8811 35.8097 81.0621 36.8635 82.5901 37.4624C84.8467 38.3462 87.0542 37.8241 88.691 36.0145C89.4578 35.1672 89.9964 34.1768 90.3423 33.0876C90.5378 32.4704 90.7077 31.845 90.8828 31.2008L90.8828 31.2008L90.8828 31.2007C90.9609 30.9135 91.0399 30.6227 91.1227 30.3271C92.8315 30.8461 94.3391 30.5584 95.3741 28.8057C95.3967 28.8612 95.4153 28.9027 95.4302 28.936L95.4305 28.9367L95.4306 28.937L95.4307 28.9371C95.4545 28.9903 95.4687 29.0221 95.4748 29.0556C95.7661 30.6492 96.412 32.1005 97.2396 33.4694C98.1921 35.0438 99.3908 36.3844 101.055 37.196C103.161 38.2233 105.206 38.1737 107.089 36.6429C108.229 35.7167 108.939 34.4751 109.393 33.0863C109.593 32.4757 109.76 31.8533 109.929 31.2206L109.93 31.2198L109.93 31.2196C110.007 30.9322 110.084 30.6427 110.166 30.3512C111.515 30.6285 112.899 30.644 114.277 30.2308C114.303 30.2871 114.325 30.341 114.347 30.3929C114.393 30.5014 114.434 30.6005 114.489 30.6919C114.679 31.0118 114.862 31.3364 115.046 31.6609L115.046 31.661L115.046 31.6611L115.046 31.6613L115.046 31.6615L115.047 31.6619L115.047 31.6623L115.047 31.6625C115.483 32.4326 115.918 33.2027 116.436 33.9116C117.513 35.3839 118.929 36.4326 120.75 36.7818C122.411 37.0997 124.011 36.7639 125.514 36.0766C126.353 35.6934 127.155 35.2288 127.968 34.7584L127.968 34.7584C128.333 34.5468 128.7 34.3341 129.074 34.1271C129.114 34.1647 129.156 34.2046 129.199 34.2463C129.24 34.2865 129.283 34.3284 129.327 34.3715L129.329 34.3727C129.546 34.5849 129.794 34.8263 130.061 35.0429C131.866 36.5054 133.964 37.1945 136.238 37.3572C141.3 37.7202 145.402 35.8761 148.517 31.7872C148.844 31.3572 149.016 30.8692 148.999 30.3292C148.965 29.2619 148.519 28.3629 147.816 27.5998C147.418 27.1664 147.11 27.2122 146.754 27.6842C146.629 27.85 146.508 28.0187 146.386 28.1875L146.386 28.1883C146.212 28.4301 146.038 28.6718 145.853 28.9045C143.973 31.2688 141.683 32.9108 138.592 33.1052C136.836 33.215 135.138 33.0025 133.6 32.0401C133.51 31.9833 133.426 31.9152 133.328 31.8357L133.328 31.8353L133.327 31.8342C133.281 31.7967 133.231 31.7568 133.177 31.7143C134.71 31.281 136.049 30.6385 137.241 29.7106C139.482 27.9646 141.107 25.8045 141.534 22.8779C142.025 19.5088 139.549 16.5048 136.208 16.3866C134.03 16.3098 132.135 17.0537 130.599 18.5735C127.437 21.7037 126.278 25.5278 127.06 29.9449C127.123 30.3079 127.06 30.5163 126.779 30.7513C125.459 31.8536 123.954 32.3461 122.254 32.3086C121.625 32.2946 121.107 32.077 120.687 31.6269C120.421 31.3437 120.149 31.049 119.965 30.7117C119.382 29.6478 118.833 28.5628 118.29 27.4764C118.239 27.3728 118.285 27.1667 118.359 27.0613C118.519 26.834 118.695 26.6185 118.871 26.403L118.871 26.403L118.871 26.4028C118.961 26.2939 119.05 26.1849 119.137 26.0745C120.68 24.1176 122.093 22.0831 122.961 19.7048C123.845 17.2832 124.073 14.7601 124.111 12.2065C124.145 9.79892 123.989 7.41054 123.294 5.09103C122.84 3.57212 122.193 2.15531 120.985 1.08286C119.186 -0.514064 117.029 -0.331514 115.524 1.54305C115.325 1.79103 115.142 2.05128 114.975 2.32231C114.15 3.6669 113.612 5.13705 113.254 6.66815C111.762 13.0601 111.421 19.4768 112.887 25.9319C112.932 26.1284 112.85 26.4624 112.707 26.5743C112.394 26.8193 112.019 27.0412 111.638 27.1271C111.342 27.1937 111.028 27.1748 110.715 27.1559C110.595 27.1487 110.476 27.1414 110.358 27.139C110.004 27.1314 109.831 26.9961 109.764 26.5828C109.399 24.3087 108.381 22.3546 106.808 20.7038C106.316 20.1875 105.746 19.7587 105.04 19.603C104.712 19.5304 104.353 19.5106 104.022 19.5615C103.38 19.6603 102.994 20.2335 102.969 21.0588C102.935 22.1139 103.242 23.0979 103.641 24.0515C104.31 25.6536 105.114 27.167 106.454 28.3193C106.563 28.4135 106.608 28.6543 106.593 28.8188C106.459 30.3262 105.983 31.7177 105.076 32.9215C104.743 33.364 104.319 33.7611 103.869 34.0814C103.037 34.6741 102.177 34.6208 101.365 33.9988C101.127 33.8141 100.907 33.6054 100.709 33.3759C100.047 32.6128 99.6281 31.707 99.2763 30.7653C98.5359 28.7789 98.3579 26.6962 98.2824 24.6004C98.2747 24.2724 98.347 23.9477 98.4928 23.655C100.441 19.8312 102.17 15.9151 103.345 11.767C103.948 9.63771 104.41 7.48125 104.25 5.24067C104.146 3.78515 103.62 2.53229 102.468 1.60979C101.172 0.571482 99.6164 0.663823 98.5827 1.96422C97.9904 2.70814 97.5064 3.58005 97.1461 4.46689C96.1276 6.97108 95.7317 9.63436 95.4164 12.3065C95.0474 15.4439 94.9293 18.5951 94.9578 21.7536C94.9596 21.9578 94.8999 22.1897 94.7953 22.3635C94.3882 23.0432 93.9716 23.7177 93.5551 24.3921L93.555 24.3922L93.5548 24.3926L93.5545 24.3931L93.5534 24.3949L93.5525 24.3962C93.3012 24.8033 93.0498 25.2102 92.8006 25.6183C92.6735 25.8252 92.5426 26.0419 92.4757 26.2738C92.2377 27.1006 91.9197 27.3045 91.1042 27.1143C90.8899 27.0646 90.7823 26.9714 90.7457 26.7178C90.4463 24.633 89.5438 22.8236 88.2367 21.2145C87.704 20.5596 87.0827 20.0013 86.2857 19.6877C84.8467 19.1215 83.8819 19.8011 83.9188 21.3562L83.9199 21.4051C83.9226 21.5351 83.9254 21.6674 83.9586 21.789C84.0183 22.0083 84.0733 22.2297 84.1284 22.4512L84.1285 22.4513C84.2697 23.019 84.411 23.5871 84.6294 24.1222C85.2717 25.7018 86.0831 27.1829 87.4007 28.3145C87.5113 28.4098 87.5623 28.6476 87.5476 28.8103C87.4121 30.3173 86.9418 31.7119 86.0322 32.9142C85.689 33.3676 85.2505 33.7687 84.7907 34.0994C84.0066 34.6641 83.1763 34.6141 82.395 34.0515C82.1396 33.8652 81.9051 33.6511 81.6954 33.413C81.0006 32.6359 80.5771 31.6994 80.2165 30.7303C79.4399 28.6451 79.2952 26.4557 79.2208 24.2587C79.2154 24.0803 79.3148 23.8878 79.4026 23.718L79.4136 23.6968C81.3852 19.869 83.1122 15.9352 84.294 11.7741C84.8977 9.64502 85.3578 7.48856 85.2001 5.24829C85.0997 3.80983 84.5905 2.56338 83.4575 1.6427C82.1108 0.549539 80.5543 0.653767 79.4798 2.02091C78.9094 2.74654 78.4508 3.59711 78.0971 4.45775C77.1659 6.72667 76.7679 9.13943 76.4558 11.5623C76.0224 14.9274 75.8708 18.3099 75.9127 21.7018C75.9131 21.732 75.9146 21.7634 75.9162 21.7954L75.9162 21.796C75.9219 21.915 75.9279 22.0403 75.8777 22.1279C75.5258 22.7423 75.1553 23.3451 74.7807 23.9458C74.642 24.1684 74.4986 24.3882 74.3553 24.6079L74.3552 24.6081L74.3551 24.6082L74.355 24.6083L74.3549 24.6085L74.3548 24.6086L74.3547 24.6087C74.1203 24.9681 73.8859 25.3275 73.672 25.6993C73.5708 25.8759 73.5025 26.0714 73.4342 26.2673L73.4341 26.2674C73.3829 26.4144 73.3315 26.5616 73.2661 26.7011C73.0587 27.1439 72.7749 27.214 72.1308 27.135C71.7587 27.0901 71.7223 26.8598 71.6815 26.6022C71.6759 26.5666 71.6702 26.5304 71.6635 26.4941C71.2519 24.2459 70.2706 22.2854 68.6674 20.6849C68.2229 20.2402 67.645 19.8654 67.0602 19.6487C65.7322 19.1565 64.8539 19.8492 64.8674 21.2776C64.8686 21.4519 64.8824 21.6259 64.9085 21.7981C65.2049 23.7071 66.025 25.3894 67.119 26.9394C67.3104 27.2104 67.5396 27.4534 67.7691 27.6968L67.7691 27.6968L67.7692 27.6969C67.9357 27.8735 68.1025 28.0502 68.255 28.238C68.3832 28.3952 68.5112 28.6308 68.495 28.8179C68.3719 30.2634 67.922 31.6061 67.0791 32.7807C66.7502 33.2374 66.358 33.6433 65.9147 33.9857C64.9786 34.7061 64.0147 34.6781 63.1422 33.8818C62.6821 33.4618 62.2856 32.9443 61.9544 32.411C61.6295 31.888 61.3918 31.3014 61.1703 30.7214C60.4195 28.7539 60.2579 26.6819 60.1881 24.6001C60.1796 24.2725 60.2508 23.9479 60.3952 23.655C62.3434 19.8306 64.0714 15.9136 65.2472 11.7661C65.8511 9.63679 66.3109 7.48033 66.1509 5.23975C66.0484 3.801 65.5394 2.55332 64.4023 1.63813C63.0412 0.542835 61.5117 0.658033 60.424 2.02456C59.8931 2.69168 59.4591 3.47125 59.1258 4.2627C58.1388 6.60598 57.7258 9.10316 57.4024 11.6128C56.9666 14.992 56.826 18.3891 56.8596 21.7954C56.8614 21.9722 56.8095 22.1736 56.7187 22.3226L56.5825 22.547L56.5824 22.5471L56.5823 22.5473L56.5823 22.5474L56.5822 22.5475L56.5821 22.5477L56.582 22.5478C54.9689 25.2049 53.3559 27.8618 51.7169 30.502C51.3994 31.0122 51.0047 31.4903 50.5743 31.9075C49.7998 32.6585 48.751 32.5515 48.1279 31.6607C47.8605 31.2791 47.6645 30.8223 47.535 30.3707C47.1709 29.0986 47.1933 27.7802 47.2236 26.4737C47.2476 25.4446 47.293 24.4158 47.3385 23.387C47.3778 22.4986 47.417 21.6101 47.4424 20.7214C47.4859 19.18 46.9185 18.3437 45.5182 17.7677C44.1793 17.217 43.7249 17.4633 43.4965 18.917C43.0016 22.0694 42.7807 25.2395 42.9624 28.433C42.9717 28.5954 42.9543 28.8042 42.862 28.9191L42.6964 29.1257C42.129 29.8338 41.5606 30.5433 40.9413 31.2033C40.6143 31.5519 40.1872 31.8359 39.7559 32.0426C38.9988 32.4055 38.3001 32.1532 37.8934 31.4102C37.7144 31.0801 37.58 30.7269 37.4938 30.3603C37.1354 28.8432 37.1902 27.3002 37.2702 25.7594C37.2946 25.2905 37.3324 24.8217 37.3701 24.353L37.3702 24.3527C37.4328 23.5749 37.4955 22.7971 37.4968 22.0188C37.5001 20.0266 36.6348 18.9718 34.713 18.5845C33.9234 18.4254 33.1235 18.3195 32.3235 18.2136C31.933 18.1619 31.5424 18.1102 31.1531 18.0524C30.2355 17.9162 30.2327 17.9045 30.0261 17.0555L30.0087 16.9839C29.6188 15.3863 28.8179 14.0811 27.2755 13.4036C25.6192 12.6761 24.0363 13.5666 23.8301 15.3803C23.6056 17.356 24.3409 18.9977 25.7831 20.3073C26.0247 20.5264 26.0364 20.6925 25.9516 20.9646C25.1774 23.4411 24.0148 25.7249 22.7349 27.9676C21.6706 29.8331 20.296 31.3218 18.4278 32.3391C17.906 32.6228 17.6416 32.6182 17.2613 32.1568C16.9247 31.7488 16.6465 31.2852 16.3846 30.8217C16.3027 30.6772 16.2955 30.4264 16.36 30.2676C18.7935 24.2874 19.9924 18.0518 20.0892 11.5918C20.1174 9.69835 20.0275 7.80612 19.461 5.98275C18.9709 4.40411 18.2234 2.97175 16.8518 1.98769C15.215 0.813459 13.2461 1.12005 12.0034 2.70844C11.3887 3.49441 11.0047 4.39954 10.7068 5.34398C9.5061 9.15132 9.43746 13.0604 9.7264 16.9973C9.77293 17.6282 9.84427 18.2573 9.91617 18.8914C9.9494 19.1845 9.98276 19.4787 10.0138 19.7745C8.48342 19.1425 6.90985 19.0632 5.36085 19.4277C3.32 19.908 2.02518 21.3757 1.1164 23.2079C0.0514644 25.3543 -0.214395 27.6379 0.161165 29.9976C0.687788 33.3076 2.36657 35.8121 5.36805 37.2551C7.95111 38.4973 10.4194 38.2121 12.557 36.2019C13.116 35.6765 13.6099 35.0795 14.0923 34.4964L14.0924 34.4963L14.0924 34.4963L14.0924 34.4963L14.0924 34.4962L14.0925 34.4962L14.0925 34.4962C14.3088 34.2347 14.5228 33.976 14.7394 33.7279C14.9147 33.8705 15.0919 34.0244 15.273 34.1817L15.2731 34.1818L15.2732 34.1819L15.2733 34.1819C15.6822 34.537 16.1112 34.9096 16.5845 35.2099C18.5045 36.4283 20.4977 36.2534 22.2074 34.7515C22.7028 34.3176 23.1695 33.8327 23.5727 33.3097C25.4951 30.8159 27.0564 28.0975 28.2955 25.194C28.6251 24.4216 28.9152 23.6312 29.2098 22.8284L29.2099 22.8283L29.2099 22.8281L29.2104 22.827C29.3459 22.4578 29.4824 22.0859 29.6242 21.7119C29.8723 21.7487 30.1229 21.7833 30.375 21.8182H30.375C30.9462 21.8972 31.5248 21.9773 32.0981 22.0849C32.6979 22.198 32.9452 22.5347 32.9601 23.1567C32.9685 23.4901 32.9497 23.826 32.9152 24.1576C32.7153 26.0864 32.6553 28.0176 32.8606 29.9477C33.0351 31.5915 33.3909 33.1878 34.2912 34.6037C35.2063 36.0425 36.496 36.8379 38.1961 36.9293C39.7118 37.0113 40.9935 36.4149 42.1426 35.4958C42.6375 35.1004 43.1 34.6636 43.5608 34.2284L43.5609 34.2284L43.5613 34.2279C43.7659 34.0347 43.9702 33.8418 44.1769 33.6529C44.2723 33.7948 44.3669 33.9418 44.4627 34.0908C44.6764 34.4232 44.8965 34.7653 45.1471 35.0831C46.5136 36.8172 49.3055 37.8528 51.6572 35.8606C52.3355 35.2861 53.0129 34.676 53.5485 33.9714C54.2979 32.9846 54.9901 31.9528 55.6824 30.921C55.908 30.5848 56.1336 30.2485 56.3611 29.9138C56.557 29.6258 56.7393 29.3281 56.9376 29.0045ZM10.6274 32.731C9.82441 33.8007 8.65787 34.1759 7.34446 34.1442C7.20559 34.1272 7.0659 34.1138 6.92621 34.1005C6.6109 34.0703 6.29554 34.0401 5.98938 33.9689C5.12467 33.769 4.49194 33.2262 4.16014 32.3988C3.24897 30.1265 3.08831 27.822 4.11638 25.5482C4.41431 24.889 4.8663 24.2725 5.35516 23.7385C6.81753 22.1404 9.24294 22.347 10.6316 23.7321C10.7536 23.854 10.8246 24.0472 10.8762 24.2197C11.3927 25.9547 11.9036 27.6914 12.4087 29.4299C12.4458 29.5579 12.4863 29.7365 12.4293 29.8318C12.2849 30.0737 12.1432 30.318 12.0014 30.5623C11.5703 31.3053 11.1387 32.0491 10.6274 32.731ZM14.2658 24.597L14.3099 24.5948C14.3498 24.5927 14.3895 24.5907 14.4291 24.5891C14.5295 24.1569 14.6331 23.7254 14.7366 23.2939L14.7367 23.2937C14.9645 22.3442 15.1924 21.3948 15.3865 20.4383C16.1541 16.6572 16.6597 12.845 16.5434 8.97151C16.5072 7.76376 16.3957 6.56088 15.9398 5.42535C15.6802 4.77805 15.3697 4.72715 14.9054 5.24524C14.3716 5.84165 14.0997 6.57581 13.8881 7.33466C13.3648 9.21227 13.2602 11.1435 13.2278 13.0778C13.1805 15.8886 13.3864 18.6866 13.7407 21.4717C13.8325 22.1915 13.9624 22.9063 14.0922 23.6211C14.1513 23.9463 14.2103 24.2714 14.2658 24.597ZM118.146 20.2195C117.762 21.0426 117.3 21.8195 116.644 22.5481C116.305 21.025 116.146 19.563 116.195 18.0795C116.287 15.2324 116.443 12.3881 116.968 9.58499C117.157 8.57344 117.451 7.58048 117.745 6.59168L117.827 6.31311C117.928 5.96965 118.085 5.51678 118.522 5.52318C118.943 5.52937 119.119 5.93307 119.272 6.28397L119.288 6.3186C119.779 7.43706 119.944 8.63536 120.013 9.83824C120.219 13.4484 119.684 16.9309 118.146 20.2195ZM131.336 28.2072L131.502 28.263C131.566 28.2381 131.63 28.2137 131.694 28.1894L131.695 28.1892L131.695 28.189C131.844 28.1328 131.992 28.0766 132.137 28.0134C134.065 27.168 135.683 25.9459 136.61 23.9762C136.866 23.4332 137.006 22.7868 137.019 22.1837C137.041 21.1551 136.199 20.5535 135.213 20.7924C134.465 20.9741 133.869 21.4141 133.358 21.9798C132.375 23.0684 131.797 24.3688 131.554 25.8094C131.461 26.3534 131.425 26.9077 131.39 27.4621C131.374 27.7107 131.358 27.9594 131.336 28.2072ZM62.8365 4.99534C61.5884 6.02511 60.0205 14.2953 60.3382 15.7746C61.5159 13.9442 63.1296 7.02959 62.8365 4.99534ZM81.9187 5.063C80.8073 5.99921 79.094 14.2612 79.4079 15.888C80.8391 12.3446 81.7089 8.78561 81.9187 5.063ZM101.011 5.07092C100.733 8.77281 99.8266 12.3232 98.4067 15.7487C98.6288 12.031 99.3068 8.42569 100.791 5.01759L101.011 5.07092Z" fill="#31414E"/>
<path d="M43 12.2819C43.0012 10.5081 44.1309 9.16853 45.7587 9.01089C47.2372 8.86775 48.6721 10.1528 48.9379 11.8591C49.0757 12.7438 48.9895 13.5994 48.6252 14.4075C48.1011 15.5702 47.0319 16.1642 45.8599 15.9605C44.1686 15.667 42.9986 14.1619 43 12.2819Z" fill="#31414E"/>
</svg>
