<svg width="149" height="31" viewBox="0 0 149 31" fill="none" xmlns="http://www.w3.org/2000/svg">
<path fill-rule="evenodd" clip-rule="evenodd" d="M3.54374 30.4166H9.55043V15.4979H13.5583L14.0891 10.3575H9.55043L9.55798 7.78453C9.55798 6.44378 9.68157 5.72515 11.5561 5.72515H14.0616V0.583374H10.053C5.23835 0.583374 3.54442 3.07676 3.54442 7.27092V10.3582H0.54245V15.4986H3.54374V30.4166ZM57.3911 14.6975C55.3511 14.6975 54.8856 15.8466 54.8856 17.2698V18.0695H59.8939V17.2698C59.8939 15.8466 59.4283 14.6975 57.3911 14.6975ZM76.9177 15.2161C75.6927 15.2161 74.8097 15.6282 73.9143 16.0481V25.5496C74.7719 25.6335 75.2635 25.6335 76.0772 25.6335C79.0174 25.6335 79.4204 24.2519 79.4204 22.3228V17.7849C79.4204 16.3603 78.9597 15.2161 76.9177 15.2161ZM21.2246 26.2979C20.082 26.2979 19.5643 25.7131 19.5643 24.5872C19.5643 23.455 20.1219 23.2127 21.3908 23.2127H24.0707V25.4665C23.9843 25.5072 23.8994 25.5478 23.8155 25.5879L23.8152 25.5881C23.0309 25.9633 22.3317 26.2979 21.2246 26.2979ZM95.9121 15.2161C93.8686 15.2161 93.1607 16.3603 93.1607 17.7849V22.9837C93.1607 24.4118 93.8686 25.5595 95.9121 25.5595C97.95 25.5595 98.6634 24.4118 98.6634 22.9837V17.7849C98.6627 16.3603 97.9493 15.2161 95.9121 15.2161ZM30.0788 30.4554H25.0725L24.8562 29.1562C22.5704 30.4554 20.5304 30.6661 19.1846 30.6661C15.5132 30.6661 13.559 28.1494 13.559 24.669C13.559 20.5629 15.8393 19.0974 19.9186 19.0974H24.0707V18.2097C24.0707 16.1137 23.8366 15.4986 20.6952 15.4986H15.5592L16.0611 10.3582H21.675C28.5675 10.3582 30.0788 12.5924 30.0788 18.2513V30.4554ZM41.5937 15.2069C43.0926 15.2069 43.9873 15.3274 47.1025 15.8755V10.8641C44.3739 10.2335 42.5962 10.068 41.0938 10.068C34.6449 10.068 32.0817 13.5541 32.0817 18.5852V22.1861C32.0817 27.2131 34.6449 30.6928 41.0938 30.6928C42.5962 30.6928 44.3739 30.528 47.1025 29.9002V24.886C43.9873 25.4362 43.0926 25.5588 41.5937 25.5588C38.9014 25.5588 38.0877 24.9466 38.0877 22.6004V18.1625C38.0877 15.8164 38.9014 15.2069 41.5937 15.2069ZM65.8999 22.1861H54.8849V22.6004C54.8849 24.9466 55.6992 25.5588 58.3908 25.5588C60.8105 25.5588 62.2875 25.4362 65.3973 24.886V29.9002C62.398 30.528 60.8353 30.6928 57.893 30.6928C51.4435 30.6928 48.8789 27.2131 48.8789 22.1861V18.0688C48.8789 13.6703 50.7815 10.068 57.3904 10.068C63.9993 10.068 65.8999 13.6287 65.8999 18.0688V22.1861ZM75.874 30.6837C84.0724 30.6837 85.4258 27.1398 85.4258 22.2813H85.4251V17.2705C85.4251 12.8312 84.4246 10.0687 78.4193 10.0687C76.8909 10.0687 75.2114 10.3202 73.9136 10.8148V1.09981L67.909 2.12774V29.9009C71.1767 30.4166 72.9132 30.6837 75.874 30.6837ZM104.674 22.3869C104.674 26.5783 102.988 30.6435 95.932 30.6435C88.8727 30.6435 87.1547 26.5783 87.1547 22.3869V18.34C87.1547 14.1466 88.8727 10.0806 95.932 10.0806C102.988 10.0806 104.674 14.1466 104.674 18.34V22.3869ZM115.167 30.6435C122.221 30.6435 123.91 26.5783 123.91 22.3869V18.34C123.91 14.1466 122.221 10.0806 115.167 10.0806C108.107 10.0806 106.389 14.1466 106.389 18.34V22.3869C106.389 26.5783 108.107 30.6435 115.167 30.6435ZM143.65 30.4166H137.141L131.636 20.9877V30.4166H125.63V2.12703L131.636 1.0991V19.3109L137.141 10.3582H143.65L137.64 20.1282L143.65 30.4166ZM112.398 17.7849C112.398 16.3603 113.106 15.2161 115.146 15.2161C117.183 15.2161 117.904 16.3603 117.904 17.7849V22.9837C117.904 24.4118 117.183 25.5595 115.146 25.5595C113.106 25.5595 112.398 24.4118 112.398 22.9837V17.7849ZM147.078 26.8981C148.09 26.8981 148.895 27.7443 148.895 28.8011C148.895 29.8741 148.089 30.7111 147.071 30.7111C146.057 30.7111 145.235 29.8741 145.235 28.8011C145.235 27.7443 146.057 26.8981 147.071 26.8981H147.078ZM145.589 28.8011C145.589 27.9134 146.256 27.1941 147.071 27.1941H147.078C147.901 27.1941 148.558 27.9141 148.558 28.8096C148.558 29.7051 147.901 30.4237 147.078 30.4152C146.256 30.4152 145.589 29.7051 145.589 28.8011ZM146.725 29.9087H146.396V27.7852L146.412 27.7829C146.579 27.759 146.741 27.7359 146.981 27.7359C147.294 27.7359 147.498 27.8035 147.624 27.8958C147.746 27.9895 147.811 28.1325 147.811 28.3347C147.811 28.6151 147.631 28.7835 147.409 28.8519V28.8681C147.59 28.9026 147.713 29.0703 147.754 29.3824C147.803 29.7128 147.853 29.8389 147.885 29.908H147.54C147.491 29.8389 147.441 29.6452 147.399 29.3655C147.351 29.0956 147.218 28.9942 146.955 28.9942H146.726V29.9087H146.725ZM146.964 28.7335H146.725V28.0134C146.781 28.0057 146.856 27.9972 146.964 27.9972C147.334 27.9972 147.465 28.1825 147.465 28.3685C147.465 28.6313 147.235 28.7335 146.964 28.7335Z" fill="#31414E"/>
</svg>
