<svg width="145" height="47" viewBox="0 0 145 47" fill="none" xmlns="http://www.w3.org/2000/svg">
<path fill-rule="evenodd" clip-rule="evenodd" d="M50.5 37C56.8366 37 62 31.9089 62 25C62 18.0424 56.8366 13 50.5 13C44.1634 13 39 18.0424 39 25C39 31.9089 44.1634 37 50.5 37ZM50.5 17.7286C53.9733 17.7286 56.9658 20.6826 56.9658 25C56.9658 29.2687 53.9733 32.2714 50.5 32.2714C47.0267 32.2714 44.0342 29.2741 44.0342 25C44.0342 20.6826 47.0267 17.7286 50.5 17.7286Z" fill="#31414E"/>
<path fill-rule="evenodd" clip-rule="evenodd" d="M74.5 37C80.8366 37 86 31.9089 86 25C86 18.0424 80.8366 13 74.5 13C68.1634 13 63 18.0478 63 25C63 31.9089 68.1634 37 74.5 37ZM74.5 17.7286C77.9733 17.7286 80.9658 20.6826 80.9658 25C80.9658 29.2687 77.9733 32.2714 74.5 32.2714C71.0267 32.2714 68.0342 29.2741 68.0342 25C68.0342 20.6826 71.0267 17.7286 74.5 17.7286Z" fill="#31414E"/>
<path fill-rule="evenodd" clip-rule="evenodd" d="M112 34.7879V13.7146H106.996V15.6256H106.813C105.628 14.244 103.356 13 100.495 13C94.4958 13 89 18.1558 89 24.7833C89 31.3631 94.4958 36.4766 100.495 36.4766C103.361 36.4766 105.633 35.2326 106.813 33.8087H106.996V35.4973C106.996 39.9914 104.546 42.3788 100.592 42.3788C97.3681 42.3788 95.3667 40.1238 94.5499 38.2128L89.9628 40.0814C91.2827 43.194 94.7825 47 100.597 47C106.775 47 112 43.4587 112 34.7879ZM100.965 17.6265C104.552 17.6265 107.37 20.6491 107.37 24.7833C107.37 28.8751 104.552 31.8554 100.965 31.8554C97.3302 31.8554 94.2848 28.8751 94.2848 24.7833C94.2848 20.6491 97.3302 17.6265 100.965 17.6265Z" fill="#31414E"/>
<path d="M120 1V36H115V1H120Z" fill="#31414E"/>
<path fill-rule="evenodd" clip-rule="evenodd" d="M144.774 31.6817L140.709 28.9549C139.353 30.9567 137.504 32.2768 134.836 32.2768C132.174 32.2768 130.276 31.0487 129.055 28.6411L145 21.9973L144.457 20.6339C143.467 17.9558 140.44 13 134.25 13C128.103 13 123 17.8638 123 25C123 31.7304 128.06 37 134.836 37C140.3 37 143.462 33.6348 144.774 31.6817ZM138.853 20.1849L128.195 24.6375C128.06 20.0063 131.766 17.642 134.428 17.642C136.503 17.642 138.267 18.6862 138.853 20.1849Z" fill="#31414E"/>
<path d="M18.7376 21.9916V16.9368H35.7479C35.9142 17.8178 36 18.8599 36 19.9879C36 23.7803 34.9647 28.4698 31.6281 31.811C28.3827 35.1951 24.236 37 18.743 37C8.56147 37 0 28.6954 0 18.5C0 8.30459 8.56147 0 18.743 0C24.3755 0 28.388 2.21312 31.4028 5.09771L27.8409 8.66449C25.679 6.634 22.7501 5.05473 18.7376 5.05473C11.3026 5.05473 5.48771 11.0549 5.48771 18.5C5.48771 25.9451 11.3026 31.9453 18.7376 31.9453C23.5601 31.9453 26.3067 30.0061 28.0662 28.2442C29.4931 26.8153 30.4318 24.7741 30.802 21.9862L18.7376 21.9916Z" fill="#31414E"/>
</svg>
