<svg width="129" height="61" viewBox="0 0 129 61" fill="none" xmlns="http://www.w3.org/2000/svg">
<path d="M65.619 51.3C56.72 51.4 47.02 51.2 37.32 50.6C36.32 50.5 35.72 51 35.12 51.6C32.62 54.401 30.12 57.201 27.52 60C27.12 60.4 26.72 61.2 26.02 60.9C25.32 60.599 25.62 59.799 25.62 59.2C25.62 56.9 25.52 54.5 25.62 52.2C25.72 50.4 25.32 49.5 23.22 49.5C20.72 49.4 18.12 49.1 15.62 48.6C7.02003 46.6 1.22003 41.901 0.420029 32.1C0.0200288 27.8 -0.279971 23.6 0.420029 19.3C1.82003 10.5 6.92003 5.49997 15.72 3.99997C28.52 1.89997 41.42 1.19997 54.32 0.99997C67.82 0.79997 81.32 1.19997 94.82 1.89997C101.32 2.19997 107.82 3.09997 114.22 4.39997C121.919 5.99997 127.118 11.9 127.82 19.9C128.22 24.5 128.32 29.1 127.619 33.7C126.721 39.8 123.32 44.099 117.721 46.599C112.821 48.7 107.619 49.4 102.42 49.799C90.32 50.7 78.42 51.4 65.619 51.3Z" fill="#31414E"/>
<path fill-rule="evenodd" clip-rule="evenodd" d="M26.8 14.7C26.6906 14.7273 26.544 14.7173 26.3885 14.7067C25.9752 14.6784 25.5 14.646 25.5 15.3C25.5 15.7666 25.9234 15.8098 26.3469 15.853C26.4679 15.8654 26.5889 15.8777 26.7 15.9C32.4 16.8 35.1 19.5 35.8 25.3C35.8251 25.4258 35.8313 25.5707 35.8376 25.7186V25.7186C35.8563 26.1583 35.8762 26.6251 36.4 26.7C37.0715 26.7 37.0384 26.1363 37.0105 25.6596C37.0051 25.5683 37 25.4803 37 25.4C37.1 19.9 32.3 14.9 26.8 14.7ZM32.6 38.2C34.4 38.2 36.5 36.5 37.1 34.8C37.64 33.36 36.722 32.649 35.804 31.938C35.702 31.859 35.6 31.78 35.5 31.7C35.0024 31.2735 34.4544 30.8975 33.9276 30.5362L33.9275 30.5362L33.9275 30.5361C33.7132 30.3891 33.5024 30.2446 33.3 30.1C31.8 29 30.4 29 29.3 30.7C28.7 31.7 27.8 31.7 26.9 31.3C24.4 30.1 22.4 28.4 21.2 25.8C20.7 24.7 20.7 23.6 21.9 22.8C22.5 22.4 23.2 21.9 23.1 20.9C23 19.7 20.1 15.6 18.9 15.2C18.4 15 17.9 15 17.4 15.2C14.7 16.1 13.5 18.4 14.6 21C17.8 29 23.6 34.5 31.4 37.9C31.6842 38.0137 31.9685 38.0627 32.1977 38.1023C32.3715 38.1323 32.5137 38.1568 32.6 38.2ZM68.3 18V26.5V35.5C68.3 36.7 68.599 37.7 69.7 38.2C70.8 38.7 71.9 38.6 72.6 37.6C73.0702 36.9416 73.2751 37.0794 73.7979 37.4309L73.8178 37.4443L73.901 37.5C77.5 39.7 81.5 38.6 83.6 35C85.701 31.4 85.5 27.8 83.6 24.2C82 21.2 78.8 19.9 75.5 20.9C73.1 21.6 73.1 21.6 73.1 19V17.9C73.1 16.2 72.6 14.9 70.8 14.9C68.901 14.9 68.3 16.3 68.3 18ZM80.2 29.6C80.2 26.9 78.7 24.9 76.7 24.8C74.6 24.7 73 26.6 73 29.3C73 31.901 74.5 34 76.5 34.1C78.6 34.3 80.2 32.3 80.2 29.6ZM54.5 18.4C53.2 22 51.9 25.5 50.3 29.7C49.6885 28.0094 49.1029 26.4095 48.5385 24.8675L48.538 24.866L48.5379 24.8658C47.5335 22.1214 46.5962 19.5607 45.7 17C45.1 15.5 44.3 14.4 42.5 15C40.7 15.6 40.4 17 41 18.6C42.15 21.55 43.325 24.525 44.5 27.5C45.675 30.475 46.85 33.45 48 36.4C48.4 37.599 49.1 38.4 50.5 38.4C51.7 38.3 52.4 37.5 52.8 36.5C53.4999 34.8001 54.1998 33.0003 54.8998 31.2005L54.9 31.2C55.8307 28.6986 56.7953 26.231 57.7544 23.7776L57.7545 23.7773L57.7549 23.7764C58.4443 22.0127 59.1309 20.2563 59.8 18.5C60.3 16.9 60.1 15.6 58.4 15C56.8 14.4 55.8 15.2 55.2 16.6C54.9 17.2 54.7 17.8 54.5 18.4ZM96.1 31.1H91.8C90.7 31.1 90.6 31.6 91.1 32.4C92 34.1 94.6 34.8 96.8 34C97.3967 33.7762 97.9379 33.4967 98.5064 33.2032L98.5066 33.2031C98.7001 33.1031 98.8968 33.0015 99.1 32.9C100.201 32.299 101.201 32.4 101.901 33.5C102.701 34.7 102.201 35.7 101.201 36.4C98 38.6 94.5 39.3 90.9 37.8C87.4 36.3 85.9 33.3 85.9 29.6C85.8 24.8 89.1 21 93.4 20.5C97.799 20.1 101.7 23.1 102.5 27.6C103 30.1 102.3 31 99.7 31.1H96.1ZM94.4142 27.9213C94.2702 27.9105 94.1298 27.9 94 27.9C93.8 27.9 93.6 27.925 93.4 27.95C93.2 27.975 93 28 92.8 28C92.5765 27.968 92.3326 27.9973 92.0945 28.0258C91.5869 28.0867 91.1052 28.1445 90.901 27.6C90.6 26.7 91.3 26 91.901 25.4C93.1 24.3 94.401 24.2 95.8 24.9C96.8 25.4 97.8 26.3 97.5 27.5C97.3642 28.1109 96.7677 28.0307 96.1483 27.9474C95.8552 27.9079 95.557 27.8678 95.3 27.9C95.0298 27.9675 94.714 27.9438 94.4142 27.9213Z" fill="#102131"/>
<path fill-rule="evenodd" clip-rule="evenodd" d="M26.8 14.7C32.3 14.9 37.1 19.9 37 25.4C37 25.4803 37.0051 25.5683 37.0105 25.6596C37.0384 26.1363 37.0715 26.7 36.4 26.7C35.7321 26.7 35.7612 26.1424 35.789 25.6091C35.7945 25.5036 35.8 25.3991 35.8 25.3C35.1 19.5 32.4 16.8 26.7 15.9C26.5889 15.8777 26.4679 15.8654 26.3469 15.853C25.9234 15.8098 25.5 15.7666 25.5 15.3C25.5726 14.6464 26.0144 14.6784 26.404 14.7066C26.551 14.7172 26.6905 14.7273 26.8 14.7ZM32.6 38.2C32.481 38.1599 32.3464 38.1357 32.196 38.1088C31.9671 38.0677 31.7017 38.0201 31.4 37.9C23.5 34.5 17.8 29 14.6 21C13.5 18.3 14.6 16.1 17.4 15.2C17.9 15 18.4 15 18.9 15.2C20.1 15.6 23 19.7 23.1 20.9C23.1928 21.735 22.5968 22.2257 22.0311 22.6916C21.9871 22.7278 21.9433 22.7639 21.9 22.8C20.7 23.6 20.7 24.6 21.2 25.8C22.4 28.4 24.3 30.2 26.9 31.3C27.8 31.7 28.7 31.7 29.3 30.7C30.4 29 31.8 29.1 33.3 30.1C34.1 30.6 34.8 31.1 35.5 31.7C35.625 31.8 35.7532 31.8969 35.8806 31.9932L35.8807 31.9933L35.8808 31.9933L35.8808 31.9934C36.7721 32.6671 37.6249 33.3118 37.1 34.8C36.5 36.501 34.4 38.2 32.6 38.2ZM104.1 29.3V23.3C104.1 22.2 104.5 21.4 105.5 20.9C106.6 20.4 107.7 20.5 108.4 21.4C108.964 22.2454 109.262 21.9437 109.71 21.4895C109.739 21.4602 109.769 21.4303 109.799 21.4C110.499 20.8 111.4 20.5 112.4 20.6C113.5 20.8 114.2 21.4 114.4 22.5C114.599 23.6 114.2 24.5 113.299 24.7C109.199 25.7 108.599 28.5 108.999 32.099C109.099 33.4 109.099 34.7 108.899 35.9C108.699 37.4 107.798 38.299 106.298 38.2C104.899 38.099 104.198 37.099 104.098 35.7C104.1 33.7 104.1 31.5 104.1 29.3ZM61.5 24.4V30.1V35.701C61.5 37.3 62.2 38.3 63.8 38.401C65.4 38.401 66.2 37.401 66.2 35.8V24.3C66.2 22.8 65.5 21.8 63.9 21.8C62.2 21.8 61.5 22.8 61.5 24.4ZM64.1 20.2C65.701 20.1 66.401 19.1 66.6 17.6C66.4 16 65.5 15.1 64.1 14.9C62.7 14.8 61.4 16.1 61.4 17.6C61.4 19.1 62.6 20.3 64.1 20.2Z" fill="#102131"/>
<path d="M34.2 24.4C34.1 24.8 34.4 25.5 33.7 25.6C32.8 25.7 33 24.9 32.9 24.4C32.3 20.9 31.1 19.6 27.5 18.8C27 18.7 26.2 18.8 26.3 18C26.4 17.2 27.2 17.5 27.7 17.6C31.3 18 34.2 21 34.2 24.4Z" fill="#102131"/>
<path d="M31.5 23.8C31.5 24.2 31.5 24.7 30.9 24.8C30.5 24.8 30.3 24.5 30.2 24.1C30.1 22.6 29.3 21.8 27.8 21.6C27.4 21.5 26.9 21.4 27.1 20.8C27.2 20.4 27.6 20.4 28 20.4C29.7 20.3 31.5 22.1 31.5 23.8Z" fill="#102131"/>
</svg>
