<svg width="14" height="14" viewBox="0 0 14 14" fill="none" xmlns="http://www.w3.org/2000/svg">
<path fill-rule="evenodd" clip-rule="evenodd" d="M7 14C10.866 14 14 10.866 14 7C14 3.13401 10.866 0 7 0C3.13401 0 0 3.13401 0 7C0 10.866 3.13401 14 7 14Z" fill="#FFC563"/>
<path d="M13.5 7C13.5 10.5899 10.5899 13.5 7 13.5C3.41015 13.5 0.5 10.5899 0.5 7C0.5 3.41015 3.41015 0.5 7 0.5C10.5899 0.5 13.5 3.41015 13.5 7Z" stroke="white"/>
<path fill-rule="evenodd" clip-rule="evenodd" d="M8.49094 7.12053L10.0127 8.6423C10.2011 8.83073 10.2011 9.13743 10.0127 9.32716L9.32785 10.012C9.13942 10.2018 8.83272 10.2018 8.64299 10.012L7.12122 8.49025C6.82103 8.19006 6.76385 7.74172 6.94059 7.38044L5.55527 5.99513H4.74825L3.50069 4.33171L4.3324 3.5L5.99582 4.74756V5.55458L7.38113 6.9399C7.7424 6.76186 8.19075 6.82034 8.49094 7.12053ZM8.78462 6.82684C8.52471 6.56693 8.17903 6.42398 7.81126 6.42398C7.70469 6.42398 7.59553 6.43697 7.49027 6.46166L6.42334 5.39474C6.41424 4.90741 6.58838 4.41878 6.95875 4.04841C7.43959 3.56758 8.11795 3.40383 8.73393 3.55588C8.85219 3.58577 8.89378 3.73262 8.80801 3.81839L7.84115 4.78525L7.98799 5.66764L8.87039 5.81449L9.83725 4.84763C9.92302 4.76186 10.0699 4.80215 10.0985 4.9191C10.2518 5.53509 10.0881 6.21345 9.60593 6.69558C9.43699 6.86452 9.24205 6.98928 9.03673 7.07895L8.78462 6.82684ZM6.46101 7.4896L5.72417 6.75276L3.74366 8.73457C3.41878 9.05945 3.41878 9.58577 3.74366 9.91066C4.06855 10.2355 4.59487 10.2355 4.91975 9.91066L6.52599 8.30442C6.42723 8.04581 6.39734 7.76381 6.46101 7.4896ZM4.02043 9.32196C4.02043 9.4935 4.16078 9.63385 4.33232 9.63385C4.50516 9.63385 4.64421 9.4935 4.64421 9.32196C4.64421 9.14912 4.50516 9.01007 4.33232 9.01007C4.15948 9.01007 4.02043 9.14912 4.02043 9.32196Z" fill="black"/>
</svg>
