<svg width="491" height="491" viewBox="0 0 491 491" fill="#1c4512" xmlns="http://www.w3.org/2000/svg">
<g clip-path="url(#clip0)">
<path d="M18.359 274.159L245.474 47.023L472.589 274.159C476.826 278.252 483.579 278.134 487.672 273.897C491.664 269.763 491.664 263.21 487.672 259.077L253.005 24.41C248.84 20.246 242.088 20.246 237.922 24.41L3.255 259.077C-0.837995 263.314 -0.720002 270.067 3.517 274.16C7.651 278.153 14.204 278.153 18.338 274.16L18.359 274.159Z" fill="#1c4512"/>
<path d="M18.359 466.159L245.474 239.023L472.589 466.159C476.826 470.252 483.579 470.134 487.672 465.897C491.664 461.763 491.664 455.21 487.672 451.076L253.005 216.409C248.84 212.245 242.088 212.245 237.922 216.409L3.255 451.076C-0.981995 455.169 -1.09899 461.921 2.99301 466.159C7.08601 470.396 13.838 470.513 18.076 466.421C18.165 466.335 18.252 466.248 18.338 466.159H18.359Z" fill="#1c4512"/>
<path d="M245.474 21.2729C248.305 21.2679 251.022 22.388 253.026 24.388L487.693 259.055C491.786 263.292 491.668 270.045 487.431 274.138C483.297 278.13 476.744 278.13 472.611 274.138L245.475 47.0229L18.3601 274.159C14.1231 278.252 7.37013 278.134 3.27713 273.897C-0.71587 269.763 -0.71587 263.21 3.27713 259.076L237.943 24.409C239.939 22.408 242.647 21.2799 245.474 21.2729Z" fill="#1c4512"/>
<path d="M245.474 213.273C248.305 213.268 251.022 214.388 253.026 216.388L487.693 451.055C491.786 455.292 491.668 462.045 487.431 466.138C483.297 470.13 476.744 470.13 472.61 466.138L245.474 239.023L18.3591 466.159C14.2661 470.396 7.51412 470.513 3.27612 466.421C-0.961877 462.329 -1.07787 455.576 3.01413 451.338C3.10013 451.249 3.18712 451.162 3.27612 451.076L237.943 216.409C239.939 214.408 242.647 213.28 245.474 213.273Z" fill="#1c4512"/>
</g>
<defs>
<clipPath id="clip0">
<rect width="490.688" height="490.688" fill="#1c4512" transform="translate(490.688 490.688) rotate(-180)"/>
</clipPath>
</defs>
</svg>
