<svg xmlns="http://www.w3.org/2000/svg" viewBox="0 0 200 200" width="200" height="200" fill="none"
     role="img" aria-label="HELL_YEAH logo">
  <!-- SVG created with Arrow, by QuiverAI (https://quiver.ai) — refactored -->

  <defs>
    <!-- Main flame outline: full-width 3-stop horizontal -->
    <linearGradient id="flame-main" x1="2.417" x2="198.2" y1="100" y2="100" gradientUnits="userSpaceOnUse">
      <stop offset="0" stop-color="#9E0000"/>
      <stop offset=".5104" stop-color="#F03C00"/>
      <stop offset="1" stop-color="#910014"/>
    </linearGradient>

    <!-- Small flame tongues (18 paths share this) — horizontal, bbox-relative -->
    <linearGradient id="flame-decor" x1="0" x2="1" y1="0.5" y2="0.5">
      <stop offset="0" stop-color="#F03C00"/>
      <stop offset="1" stop-color="#910014"/>
    </linearGradient>

    <!-- Back triangle (largest) -->
    <linearGradient id="tri-back-fill" x1="9.041" x2="189.5" y1="111.6" y2="111.6" gradientUnits="userSpaceOnUse">
      <stop offset="0" stop-color="#FFC700"/>
      <stop offset=".5" stop-color="#FFA800"/>
      <stop offset="1" stop-color="#D41200"/>
    </linearGradient>
    <linearGradient id="tri-back-stroke" x1="99.29" x2="99.29" y1="38.96" y2="184.2" gradientUnits="userSpaceOnUse">
      <stop offset="0" stop-color="#F26500"/>
      <stop offset="1" stop-color="#F26500" stop-opacity=".12"/>
    </linearGradient>

    <!-- Middle triangle -->
    <linearGradient id="tri-mid-fill" x1="99.58" x2="99.58" y1="52.03" y2="162.2" gradientUnits="userSpaceOnUse">
      <stop offset="0" stop-color="#F03C00"/>
      <stop offset=".5" stop-color="#FFC700"/>
      <stop offset="1" stop-color="#F03C00"/>
    </linearGradient>

    <!-- Front triangle (smallest) -->
    <linearGradient id="tri-front-fill" x1="100.6" x2="100.6" y1="57.74" y2="151.3" gradientUnits="userSpaceOnUse">
      <stop offset="0" stop-color="#D41200"/>
      <stop offset="1" stop-color="#F03C00"/>
    </linearGradient>

    <!-- Banner ribbon -->
    <linearGradient id="banner-fill" x1="13.17" x2="185" y1="96.1" y2="96.1" gradientUnits="userSpaceOnUse">
      <stop offset="0" stop-color="#F03C00"/>
      <stop offset=".5" stop-color="#FFA800"/>
      <stop offset="1" stop-color="#D41200"/>
    </linearGradient>
    <linearGradient id="banner-stroke" x1="99.09" x2="99.09" y1="77.66" y2="114.5" gradientUnits="userSpaceOnUse">
      <stop offset="0" stop-color="#A32300"/>
      <stop offset="1" stop-color="#F26500"/>
    </linearGradient>

    <!-- Letters (9 paths share this) — vertical, bbox-relative -->
    <linearGradient id="letter-grad" x1="0.5" x2="0.5" y1="0" y2="1">
      <stop offset="0" stop-color="#910014"/>
      <stop offset="1" stop-color="#F03C00"/>
    </linearGradient>

  </defs>

  <!-- ============================================================ -->
  <!-- Flame: outline + decorative tongues                          -->
  <!-- ============================================================ -->
  <g id="flame">
    <path fill="url(#flame-main)" stroke="#9E0000" stroke-miterlimit="10" stroke-width=".75"
          d="m193.3 26.06c-1.51-1.7-2.69-1.35-4.29-0.25-1.61 1.1-2.07 1.47-3.24-0.3s-0.52-3.67 0.3-5.48c-0.98-2.75-3.3-1.54-3.01 1.41 0.29 2.96 1.15 5.11 0.12 6.35 0.37-2.48-2.26-5.67-4.1-6.69 3.98 5.37 0.4 11.87-4.7 13.94 5.25-6.2 3.52-11.3-1.32-15.35s-2.35-8.46-0.41-11.17c-3.24 0.26-8.87 3.37-7.74 8.96 0.7 3.54 2.71 5.48 1.22 8.47-1.22 2.67-6.53 2.89-7.08-0.04-0.55-2.92 2.12-4.1 4.87-3.58-1.92-3.2-9.06-5-13.82 0.44-3.94 4.55-3.98 7.51-6.43 8.95-2.02 1.14-2.29-2.99-1.96-3.85-1.1-1.85-2.43-2.36-2.98-2.21 2.07 1.73 1.25 5.53-2.55 7.05-3.27 1.28-4.58-1.56-5.44-4.09-1.85-5.59-8.48-3.48-12.92-2.85-1.35 0.29-1.22 2.96-0.87 3.34 2.3-1.13 4.82 0.6 4.82 3.2 0 2.96-4.67 4.14-7.87 1.91-4.3-2.92-3.79-8.8 0.93-11.76 5.27-3.2 13.87-5.72 14.14-11.85 0.15-3.55-1.59-5.78-3.61-6.61 1.13 5.13-2.75 8.96-12.56 9.55-9.8 0.59-14.95 7.13-16.69 15.52-0.71 3.51-2.91 5.19-6.12 4.69-2.79-0.46-3.38-3.7-0.25-5.74 6.52-4.01 4.22-12.86 0.24-15.13 1.32 5.1-2.08 8.77-5.06 9.44-6.29 1.15-7.27 3.58-8.92 7.17-1.29 3.04-4.65 4.94-8.49 6.03 3.3-3.52 5.22-8.65 3.26-13.46-2.56-6.46-6.75-5.76-10.32-5.45 3.4 1.25 5.06 2.31 4.63 4.1-0.63 2.63-3.68 2.2-5.95-0.71-3.01-3.84-0.67-7 2.77-9.6-5.48 0.55-10.7 3.3-11.08 8.39-0.29 4.01 4.08 5.32 4.31 8.32-3.52-2.41-9.82-4.39-14.22-0.7-3.98 3.35-3.71 7.52-6.34 9.43 1.7-2.92 1.89-7.91-2.55-9.08-4.44-1.16-10.92-1.5-11.07-5.33-0.08-2.11 3.19-6.32 4.96-9.1-5.44 2.6-11.81 6.65-12.36 11.01-0.45 3.59 3.66 4.76 4.16 7.47 0.63 3.28-2.61 4.06-3.93 1.58-1.09-2.19 0.08-5.39-5.67-7.01 3.3 1.77 2.06 5.39-0.69 8.94-2.52 3.4-4.25 7.84-0.53 12.05 4.02 4.55 2.18 6.78-0.19 5.88-2.94-1.14-3.41-7.23-3.68-9.94-2.43 6.5-2.43 16.61 8.12 22.2 3.57 2 8.92 2.67 11.07 7.4 1.1 2.64-1.5 3.95-3.01 1.24-2.49-4.4-6.9-3.99-10.81-3.04 4.92 0.37 7.67 4.5 8.32 7.66l0.09 0.67 20.1 35.11c1.32 5.13 3.91 10.02 12.31 11.83 6.56 1.44 9.5 3.88 10.59 8.01 0.7 2.75-2.42 1.66-4.69-0.65-2.26-2.31-4.11-2.56-6.74-2.07 3.32 2.19 4.55 4.5 4.55 8.55 0 4.62 2.67 7.71 7.39 9.19 3.84 1.22 5.86 1.3 6.35 4.42 0.46 3.09 1.28 7.89 9.57 10.24 6.98 2.07 9.5 3.84 9.95 6.7 0.38 2.38-1.76 2.64-3.37 0.91-2.52-2.81-5.79-1.4-8.31-0.19 3.4-0.19 4.46 2.29 5.59 5.41s3.28 6.24 7.38 6.91c5.63 0.94 11.84 8.09 12.11 13.18 0-5.74 5.13-9.57 11.99-11.53 5.53-1.65 10.33-6.24 11.46-12.33 0.75-4.05 3.2-5.39 5.5-5.43-2.52-1.48-5.92-0.74-8.4 2.26-2.49 3-5.01 1.56-5.01-0.81 0-2.45 2.23-4.25 6.99-4.85 5.06-0.63 5.92-6.9 12.17-9.9 5.79-2.75 8.99-4.69 10.8-12.45 1.17-5.21 3.69-6.35 10.87-7.63-2.34-0.15-5.04 1.13-6.18 4.29-1-2.41-3.3-3.89-6.95-2.44-4.09 1.6-3.64 4.6-6.16 4.6-2.05 0-1.86-4.72 0.96-7.17 3.3-2.85 7.46-2.44 11.86-3.88 7.43-2.52 9.45-7.37 10.58-14.87l25-36.46c-1.25-2.44-4.91-3.42-8.25-1.35 0.29-4.13 2.82-5.86 8.06-6.53 5.74-0.76 8.26-5.53 7.99-10.3-0.19-3.2 0.59-4.6 2.25-6.54-3.83 0.46-3.83 3.5-4.29 6.02-0.62 3.04-5.31 2.78-4.72-1.27 0.7-4.77 7.41-8.42 11.02-13.86 3.49-5.16 0.55-12.83-3.82-17.51zm-41.6 92.92c-2.7-1.02-1.97-4.99-1.48-6.2l6.86 0.15c0 3.2-1.77 7.33-5.38 6.05z"/>

    <g fill="url(#flame-decor)" id="flame-decor-tongues">
      <path d="m125.1 8.06c-2.4 5.59-7.32 6.18-14.49 6.26-7.43 0.07-11.73 5.86-13.2 10.59 3.23-5.33 5.5-6.46 9.48-6.46 6.03 0 12.85-2.48 18.21-10.39z"/>
      <path d="m155.4 21.14c-4.26 1.59-5.96 8.27-9.16 11.47-1.95 1.94-4.77 2.54-6.43 3.2 4.14-0.08 8.98-0.9 11.33-7.39 1.85-5.43 4.6-6.56 8.21-7.02-0.55-0.79-2.16-0.98-3.95-0.26z"/>
      <path d="m157.5 26.94c0.67 2.71 4.97 2.97 7.57 0.78-2.67 0.59-4.94-0.19-5.99-2.97-0.66-2.04-2.33-0.94-1.58 2.19z"/>
      <path d="m120.1 26.73c4.84-0.71 8.18 0.39 9.65 4.98-1.01-4.43-4.66-6.55-9.65-4.98z"/>
      <path d="m189.1 26.18c5.99 3.98 8.09 11.63 4.79 18.13-2.86 5.8-7.81 8.32-8.11 12.12 2.02-4.73 6.24-6.32 9.22-10.87 3.79-5.84 0.75-14.3-5.9-19.38z"/>
      <path d="m189.7 59.64c-1.25 2.82-4.54 3.23-6.91 3.53-4.59 0.55-7.65 3.75-8.55 8.97 2.36-5.59 5.66-4.31 10.22-4.98 4.57-0.7 7.36-4.14 7.78-9.54-0.63 0.94-1.64 0.12-2.54 2.02z"/>
      <path d="m148.8 134.6c1.03-1.6 3.41-1.71 6.03-1.41-2.02 0.86-4.69 3.57-4.88 4.12-0.92-0.19-1.15-2.71-1.15-2.71z"/>
      <path d="m149.2 134c-4.92-0.15-6.17 4.1-7.83 9.08-1.84 5.76-8.26 7.87-10.6 8.93-3.5 1.56-4.75 4.48-6.08 5.92 1.92-4.36 3.17-5.92 5.19-6.74 6.71-2.82 11.11-4.1 12.58-11.72 0.78-4.13 3.98-5.83 6.74-5.47z"/>
      <path d="m130.4 140c-2.84-1.63-2.35-4.22-2.3-5.08-2.67 3.52-4.24 8.25-0.77 11.49 3.57-0.3 7.87-2.13 10.93-7.72-1.95 1.9-4.66 3-7.86 1.31z"/>
      <path d="m118 172c-1.51 2.56-4.11 4.05-8.02 3.15 0.63 1.59-0.88 3.78-4.79 6.53 6.86-0.59 11.97-4.46 12.81-9.68z"/>
      <path d="m60.62 26.06c2.19 2.75-2.01 8.55-7.01 9.01-3.87 0.34-7-1.35-7.5-4.14-0.74-3.92 3.17-5.32 5.02-5.13-3.73-0.55-5.3 1.41-5.72 2.97-1.29 4.99 3.96 7.26 8.26 6.36 4.26-0.91 8.86-5.14 6.95-9.07z"/>
      <path d="m32.11 27.24c4.06 1.53 3.01 6.37 0.61 8.82 1.95-0.38 4.44-2.15 3.43-6.56-0.74-3.36-4.61-3.32-8.97-4.3 1.84 0.98 2.74 1.24 4.93 2.04z"/>
      <path d="m85.72 24.16c-4.44 0.26-5.66 2.07-6.99 5.27 1.74-2.04 2.89-2.81 5.38-3.07 3.56-0.41 5.37-3.44 5.83-5.14-1.13 1.49-1.59 2.74-4.22 2.94z"/>
      <path d="m5.73 52.33c0.98 2.82 3.8 4.03 6.39 3.44-1.66 1.81-3.81 1.66-5.41 0.52 1.51 2.33 5 2.64 6.85 1.01-2.75 0.67-4.48-3.17-4.37-5.08-0.97 1.49-2.48 1.64-3.46 0.11z"/>
      <path d="m41.76 113c0.29 4.62 2.78 6.63 7.57 7.11-4.22 0.59-8.05-1.21-9.56-7.11h1.99z"/>
      <path d="m57.43 133.7c2.14 3.2 5.9 3.05 6.8-0.32 1.1-4.09-4.16-8.22-7.4-9.32 4.19 2.53 6.29 5.16 5.47 7.83-0.78 2.75-2.73 2.49-4.87 1.81z"/>
      <path d="m55.92 148.8c1.84 2.14 2.97 2.89 7.99 2.48-1.77-0.59-3.68-1.22-4.93-2.2-1.07-0.86-2.17-0.82-3.06-0.28z"/>
      <path d="m84.26 174.9c1.66 1.25 3.61 1.88 5.73 1.58-0.82-0.9-1.23-2.38-1.16-3.32-0.63 1.37-2.1 2.23-4.57 1.74z"/>
    </g>
  </g>

  <!-- ============================================================ -->
  <!-- Triangle stack (back → middle → front)                        -->
  <!-- ============================================================ -->
  <g id="triangles">
    <!-- back + middle triangles use evenodd fill-rule so the inner front-triangle
         sub-path becomes a transparent hole (works everywhere, no mask needed) -->
    <path fill="url(#tri-back-fill)" stroke="url(#tri-back-stroke)" stroke-miterlimit="10" stroke-width="1.5" fill-rule="evenodd"
          d="M99.36 183.4 L9.04 39.7 H189.54 L99.36 183.4 Z M99.17 151.3 L155.44 57.75 L45.84 57.83 L54.2 78.1 L99.18 151.3 Z"/>
    <path fill="url(#tri-mid-fill)" fill-rule="evenodd"
          d="M99.36 162.2 L50.54 89.83 L32.15 52.07 H167.05 L150.08 80.15 L99.4 162.2 Z M99.17 151.3 L155.44 57.75 L45.84 57.83 L54.2 78.1 L99.18 151.3 Z"/>
  </g>

  <!-- ============================================================ -->
  <!-- Banner ribbon                                                 -->
  <!-- ============================================================ -->
  <path id="banner" fill="url(#banner-fill)" stroke="url(#banner-stroke)" stroke-miterlimit="10" stroke-width="1.5"
        d="m13.17 78.56 171.8-0.15v35.23l-171.8 0.15v-35.23z"/>

  <!-- ============================================================ -->
  <!-- HELL_YEAH lettering (9 path-glyphs)                           -->
  <!-- ============================================================ -->
  <g id="lettering" fill="url(#letter-grad)" stroke="#7A0000" stroke-miterlimit="10" stroke-width="1.2">
    <path d="m20.09 99.1c0-2.03 1.2-3.33 2.65-3.49l0.88-0.12 4.3-11.74c1.1-3.12 2.11-2.82 3.36-2.82 1.99 0 3.08 2.13 2.3 4.73l-2.92 8.04 4.3-0.67 3.8-9.82c0.78-2.07 1.56-2.03 2.57-1.88 2.31 0.34 3.44 3.05 2.31 5.84l-3.02 7.51 1.01-0.18c1.32-0.27 1.66 0.63 1.13 1.65-0.54 1.02-1.64 1.69-3.15 1.95l-0.63 0.11-3.05 9.35c-0.67 2.27-1.42 2.12-2.24 1.82-1.47-0.6-2.13-1.94-1.4-4.46l2.03-7.19-5.51 1.13-2.3 8.24c-0.78 2.63-2.62 3.09-4.02 2.54-1.36-0.59-2.18-1.22-1.36-4.01l1.51-5.8-1.35 0.12c-1.01 0.11-1.2-0.27-1.2-0.85z"/>
    <path d="m41.39 103.1 6.56-19c0.74-2.31 1.6-2.77 3.21-2.01 1.01 0.52 1.75 0.6 3.45 0.33l3.98-0.63c2.15-0.37 2.82 0.61 2.47 2.92-0.38 2.19-1.36 2.97-3.54 2.68l-5.51 0.45-1.8 4.85 5.08-1.1c1.73-0.41 2.62 0.45 2.16 2.31-0.46 1.85-1.63 2.63-3.67 3.09l-5.51 1.44-1.01 3.76 8.37-3.12c2.34-0.86 3.39-0.27 2.73 1.77-0.63 1.96-1.99 2.95-4.44 4.14l-6.86 3.62c-3.88 2-6.74-0.92-5.67-5.5z"/>
    <path d="m58.2 105.1 8.21-21.52c0.98-2.82 2.23-2.89 3.62-2.16 2.19 1.14 2.78 3.85 1.39 7.22l-5.53 13.95 4.92-0.98c2.15-0.46 2.81 0.44 2.35 2.59-0.53 2.44-2.11 3.5-4.45 3.99l-3.98 1.31c-3.21 1.56-6.91-0.81-6.53-4.4z"/>
    <path d="m72.48 105.1 8.21-21.52c0.97-2.82 2.22-2.89 3.62-2.16 2.19 1.14 2.78 3.85 1.39 7.22l-5.53 13.95 4.3-0.98c1.63-0.46 2.41 0.44 1.95 2.59-0.38 1.73-1.51 2.36-3.47 3.03l-3.98 2.07c-2.86 1.76-6.56-0.61-6.49-4.2z"/>
    <path d="m85.62 109.6c0-1.19 1-1.89 2.64-1.89l13.82-0.59c1.84-0.11 2.76 0.35 2.57 1.37-0.34 1.63-1.88 2.22-4.33 2.3l-11.09 0.86c-2.08 0.19-3.61-0.79-3.61-2.05z"/>
    <path d="m105.2 85.06c-0.92-2.48 0.47-3.34 2.96-3 1.7 0.26 2.32 0.96 3.06 3.11l2.56 5.59 7.69-9.73c1.32-1.87 2.71-1.2 3.61-0.11 1.09 1.44 0.64 3.51-1.1 6.51l-12.5 19.74c-0.98 1.8-2.3 1.65-2.96 2.75-1.25 2.19-3.06 1.47-3.32-0.72-0.19-1.44 0.55-3.13 1.37-5.17l3.49-8.61c-2.19-2.82-3.7-7.01-4.86-10.36z"/>
    <path d="m118.9 103.1 7.91-19c0.89-2.31 1.52-2.45 2.84-2.01 1.13 0.45 1.95 0.33 3.72 0l3.49-0.37c1.89-0.26 2.79 0.72 2.44 2.52-0.53 2.37-2.04 2.93-4 3.38l-4.69 1.28-1.46 3.37 4.06-0.68c2.05-0.37 3.34 0.76 2.67 2.62-0.78 2.27-2.62 2.86-5.38 3.53l-4.84 1.25-1.01 2.71 10.8-3.92c2.26-0.94 3.51-0.08 2.85 1.96-0.82 2.6-2.89 4.05-5.65 5.43l-6.86 3.52c-4.16 2.01-8.14-0.99-6.89-5.59z"/>
    <path d="m135.6 106.2 11.75-22.41c1.15-2.37 2.4-2.41 4.35-2.11 2.02 0.34 2.9 1.49 2.83 3.94l-0.23 8.26c-0.07 1.25 0.23 1.88 1.05 2.14 0.74 0.25 0.66 1.66-0.59 2.39l-1.01 0.6-1.32 8.46c-0.38 2.45-2.32 2.26-2.99 0.13-0.53-1.81-0.44-5.01-0.59-8.52l-3.65 0.98-4.09 6.79c-0.74 1.25-1.64 0.95-2.55 0.75-0.86 1.7-3.56 1.29-2.96-1.4zm11.48-11.48 2.19-0.59 0.08-4.13-2.27 4.72z"/>
    <path d="m153.7 107.1 2.89-9.04-0.9-0.22c-1.1-0.31-0.95-2.62 1-3.44l1.91-0.82 3.69-9.73c1.01-2.71 2.51-2.56 3.91-1.89 1.69 0.82 2.39 2.19 1.41 4.79l-2.75 7.19 5.22-0.82 3.27-8.86c0.86-2.44 2.37-2.7 3.84-1.8 1.6 1.02 1.87 3.15 0.55 6.07l-2.83 5.97 0.74 0.07c1.54 0.19 1.15 2.23-0.89 2.76l-1.32 0.45-4.19 10.62c-0.9 2.27-2.03 1.68-3.01 0.82-1.25-1.14-1.14-2.62-0.4-5.25l1.85-5.97-5.26 0.98-2.74 9.08c-0.98 2.85-2.3 2.7-3.55 1.84-1.13-0.89-3.01-0.89-2.44-2.8z"/>
  </g>
</svg>
