<svg width="68" height="62" viewBox="0 0 68 62" fill="none" xmlns="http://www.w3.org/2000/svg">
<g id="Behance">
<path id="Combined Shape" fill-rule="evenodd" clip-rule="evenodd" d="M33.491 0C14.9944 0 0 13.8792 0 31C0 48.1208 14.9944 62 33.491 62C51.9875 62 66.9819 48.1208 66.9819 31C66.9819 13.8792 51.9875 0 33.491 0ZM47.8475 24.1153H38.4009V21.6065H47.8475V24.1153ZM47.0148 26.2213C48.1537 26.6854 49.0912 27.4219 49.8295 28.427C50.5028 29.3131 50.9348 30.3412 51.132 31.5092C51.2473 32.1921 51.2935 33.1817 51.2746 34.4687H39.3971C39.4684 35.9629 40.0305 37.012 41.1044 37.6124C41.7546 37.9864 42.5369 38.1744 43.4556 38.1744C44.4225 38.1744 45.2132 37.9461 45.8193 37.4915C46.1528 37.2441 46.4464 36.9027 46.6981 36.4654H51.0502C50.9348 37.3477 50.4063 38.2472 49.4708 39.1602C48.0111 40.6083 45.9661 41.3333 43.3381 41.3333C41.1673 41.3333 39.2524 40.7234 37.5976 39.4997C35.9344 38.2779 35.108 36.287 35.108 33.5327C35.108 30.9492 35.8568 28.9679 37.3522 27.5888C38.8518 26.2136 40.7919 25.5212 43.1808 25.5212C44.6007 25.5212 45.878 25.7552 47.0148 26.2213ZM32.9833 25.8914C32.9833 24.6964 32.6457 23.6722 31.9724 22.8148C30.8503 21.4185 28.948 20.7031 26.2591 20.6667H15.6066V40.8251H25.5397C26.6597 40.8251 27.6959 40.7368 28.6544 40.5546C29.6129 40.3705 30.4413 40.0348 31.1439 39.5419C31.769 39.1123 32.2891 38.5829 32.7044 37.9557C33.3609 37.0082 33.6881 35.936 33.6881 34.7411C33.6881 33.5826 33.4007 32.5968 32.8302 31.7873C32.2535 30.976 31.4061 30.3834 30.2819 30.0074C31.0223 29.6622 31.5823 29.2786 31.964 28.8604C32.6457 28.1124 32.9833 27.1208 32.9833 25.8914Z" fill="#677897"/>
<path id="Combined Shape_2" fill-rule="evenodd" clip-rule="evenodd" d="M20.0005 24.167V28.6149H25.3614C26.3157 28.6149 27.0938 28.448 27.6937 28.1143C28.2893 27.7805 28.5893 27.1898 28.5893 26.3459C28.5893 25.4041 28.1949 24.7846 27.4063 24.4815C26.7226 24.2725 25.8543 24.167 24.7993 24.167H20.0005ZM40.6387 29.5892C40.0368 30.157 39.6571 30.9261 39.5019 31.8966H46.849C46.7714 30.8609 46.3897 30.0783 45.7144 29.5394C45.0306 29.0042 44.1896 28.7376 43.1828 28.7376C42.0922 28.7376 41.2407 29.0215 40.6387 29.5892ZM20.0005 37.3265V31.9503H25.4285C26.3723 31.958 27.1085 32.0731 27.6329 32.2917C28.5704 32.6849 29.036 33.4042 29.036 34.4553C29.036 35.6943 28.5536 36.5306 27.5867 36.9717C27.0561 37.2076 26.3094 37.3265 25.353 37.3265H20.0005Z" fill="#677897"/>
</g>
</svg>
