<svg width="66" height="62" viewBox="0 0 66 62" fill="none" xmlns="http://www.w3.org/2000/svg">
<g id="Medium">
<path id="Combined Shape" fill-rule="evenodd" clip-rule="evenodd" d="M0 31C0 13.8792 14.7746 0 33 0C51.2254 0 66 13.8792 66 31C66 48.1208 51.2254 62 33 62C14.7746 62 0 48.1208 0 31ZM27.6932 22.6518L17.1276 17.748C17.0372 17.706 16.9511 17.6862 16.8732 17.6862C16.7623 17.6862 16.6685 17.7267 16.6025 17.8006C16.5379 17.8728 16.5 17.9773 16.5 18.108V39.1603C16.5 39.5186 16.7825 39.9427 17.1276 40.1029L26.8914 44.6346C27.0271 44.6977 27.1563 44.7275 27.2731 44.7275C27.6021 44.7275 27.8328 44.4912 27.8328 44.0946V22.8617C27.8328 22.7729 27.7787 22.6916 27.6932 22.6518ZM49.556 44.6277L40.0683 40.2242L50.4973 24.4926V44.0875C50.4973 44.625 50.0737 44.868 49.556 44.6277ZM28.8345 24.2276V35.0166L39.1657 39.8117L28.8345 24.2276ZM39.4795 17.6024L50.249 22.6009C50.3831 22.6631 50.4309 22.8187 50.3523 22.9373L39.7537 38.9246L32.3438 27.7471L38.9818 17.7341C39.0523 17.6277 39.1827 17.5667 39.3137 17.5667C39.3155 17.5667 39.3174 17.5669 39.3192 17.5672C39.3208 17.5675 39.3225 17.5677 39.3241 17.5678C39.3773 17.5691 39.4306 17.5796 39.4795 17.6024Z" fill="#677897"/>
</g>
</svg>
