<svg width="66" height="62" viewBox="0 0 66 62" fill="none" xmlns="http://www.w3.org/2000/svg">
<g id="Instagram">
<path id="Combined Shape" fill-rule="evenodd" clip-rule="evenodd" d="M33 0C14.7746 0 0 13.8792 0 31C0 48.1208 14.7746 62 33 62C51.2254 62 66 48.1208 66 31C66 13.8792 51.2254 0 33 0ZM25.7445 14.5666C27.6219 14.4863 28.2217 14.4667 33.0016 14.4667H32.9961C37.7775 14.4667 38.3752 14.4863 40.2526 14.5666C42.1262 14.6472 43.4059 14.9258 44.5279 15.3347C45.6866 15.7566 46.6656 16.3215 47.6446 17.2412C48.6236 18.1602 49.225 19.0826 49.676 20.17C50.1087 21.2213 50.4057 22.4227 50.4937 24.1829C50.578 25.9464 50.6 26.5099 50.6 31.0002C50.6 35.4904 50.578 36.0525 50.4937 37.8161C50.4057 39.5756 50.1087 40.7773 49.676 41.8289C49.225 42.916 48.6236 43.8384 47.6446 44.7574C46.6667 45.6771 45.6862 46.2434 44.529 46.6657C43.4092 47.0745 42.1288 47.3532 40.2551 47.4338C38.3778 47.514 37.7797 47.5337 32.9995 47.5337C28.2199 47.5337 27.6204 47.514 25.743 47.4338C23.8697 47.3532 22.5904 47.0745 21.4706 46.6657C20.3138 46.2434 19.3318 45.6771 18.3539 44.7574C17.3753 43.8384 16.7739 42.916 16.324 41.8286C15.8891 40.7773 15.5925 39.5759 15.5063 37.8158C15.4213 36.0522 15.4 35.4904 15.4 31.0002C15.4 26.5099 15.422 25.9461 15.506 24.1825C15.5903 22.4231 15.8873 21.2213 16.3236 20.1697C16.7746 19.0826 17.376 18.1602 18.355 17.2412C19.3333 16.3219 20.3152 15.757 21.4728 15.3347C22.5919 14.9258 23.8708 14.6472 25.7445 14.5666Z" fill="#677897"/>
<path id="Combined Shape_2" fill-rule="evenodd" clip-rule="evenodd" d="M31.4228 17.4465C31.7294 17.4461 32.0592 17.4462 32.4151 17.4464L33.0017 17.4465C37.701 17.4465 38.2579 17.4624 40.1137 17.5416C41.8297 17.6153 42.761 17.8847 43.3814 18.111C44.2028 18.4106 44.7883 18.7689 45.404 19.3475C46.02 19.9262 46.4013 20.4773 46.7211 21.2489C46.962 21.831 47.2491 22.7059 47.3272 24.3179C47.4115 26.0608 47.4298 26.5844 47.4298 30.9968C47.4298 35.4091 47.4115 35.9327 47.3272 37.6756C47.2487 39.2876 46.962 40.1625 46.7211 40.7446C46.4021 41.5162 46.02 42.0656 45.404 42.6439C44.788 43.2226 44.2031 43.5808 43.3814 43.8805C42.7618 44.1078 41.8297 44.3765 40.1137 44.4502C38.2583 44.5294 37.701 44.5467 33.0017 44.5467C28.3021 44.5467 27.7451 44.5294 25.8898 44.4502C24.1738 44.3758 23.2424 44.1065 22.6217 43.8801C21.8003 43.5805 21.2136 43.2223 20.5976 42.6436C19.9816 42.0649 19.6003 41.5152 19.2805 40.7433C19.0396 40.1611 18.7525 39.2862 18.6744 37.6742C18.5901 35.9313 18.5732 35.4078 18.5732 30.9926C18.5732 26.5775 18.5901 26.0567 18.6744 24.3138C18.7529 22.7018 19.0396 21.8269 19.2805 21.2441C19.5996 20.4725 19.9816 19.9214 20.5976 19.3427C21.2136 18.764 21.8003 18.4058 22.6217 18.1054C23.2421 17.8781 24.1738 17.6094 25.8898 17.5354C27.5134 17.4665 28.1426 17.4458 31.4228 17.4424V17.4465ZM42.3966 20.1918C41.2305 20.1918 40.2845 21.0794 40.2845 22.1751C40.2845 23.2704 41.2305 24.1591 42.3966 24.1591C43.5626 24.1591 44.5086 23.2704 44.5086 22.1751C44.5086 21.0798 43.5626 20.1911 42.3966 20.1911V20.1918ZM23.9633 31.0005C23.9633 26.3117 28.01 22.5101 33.0014 22.5099C37.9928 22.5099 42.0387 26.3116 42.0387 31.0005C42.0387 35.6895 37.9932 39.4895 33.0017 39.4895C28.0102 39.4895 23.9633 35.6895 23.9633 31.0005Z" fill="#677897"/>
<path id="Shape" fill-rule="evenodd" clip-rule="evenodd" d="M33.0017 25.4893C36.2416 25.4893 38.8685 27.9565 38.8685 31.0004C38.8685 34.044 36.2416 36.5116 33.0017 36.5116C29.7615 36.5116 27.135 34.044 27.135 31.0004C27.135 27.9565 29.7615 25.4893 33.0017 25.4893V25.4893Z" fill="#677897"/>
</g>
</svg>
