<svg width="14" height="14" viewBox="0 0 14 14" fill="none" xmlns="http://www.w3.org/2000/svg">
<path fill-rule="evenodd" clip-rule="evenodd" d="M7 14C10.866 14 14 10.866 14 7C14 3.13401 10.866 0 7 0C3.13401 0 0 3.13401 0 7C0 10.866 3.13401 14 7 14Z" fill="#FFC563"/>
<path d="M13.5 7C13.5 10.5899 10.5899 13.5 7 13.5C3.41015 13.5 0.5 10.5899 0.5 7C0.5 3.41015 3.41015 0.5 7 0.5C10.5899 0.5 13.5 3.41015 13.5 7Z" stroke="white"/>
<path fill-rule="evenodd" clip-rule="evenodd" d="M7.79213 5.35185V3.91152C7.79213 3.68425 7.97637 3.5 8.20365 3.5C8.43092 3.5 8.61517 3.68425 8.61517 3.91152V5.35185H7.79213ZM9.23251 5.55762H4.70576C4.59212 5.55762 4.5 5.64973 4.5 5.76338V6.1749C4.5 6.28855 4.59212 6.38066 4.70576 6.38066H4.91152V6.79218C4.91152 7.78763 5.61843 8.61794 6.55761 8.80859V10.0844H7.38066V8.80859C8.31984 8.61794 9.02675 7.78763 9.02675 6.79218V6.38066H9.23251C9.34615 6.38066 9.43827 6.28855 9.43827 6.1749V5.76338C9.43827 5.64973 9.34615 5.55762 9.23251 5.55762ZM6.14614 3.91152V5.35185H5.32309V3.91152C5.32309 3.68425 5.50734 3.5 5.73462 3.5C5.96189 3.5 6.14614 3.68425 6.14614 3.91152Z" fill="black"/>
</svg>
