<svg width="16" height="16" viewBox="0 0 16 16" fill="none" xmlns="http://www.w3.org/2000/svg">
<path fill-rule="evenodd" clip-rule="evenodd" d="M9.58436 4.7037V1.82305C9.58436 1.36849 9.95285 1 10.4074 1C10.862 1 11.2305 1.36849 11.2305 1.82305V4.7037H9.58436ZM12.465 5.11523H3.41152C3.18423 5.11523 3 5.29946 3 5.52675V6.34979C3 6.57708 3.18423 6.76132 3.41152 6.76132H3.82305V7.58436C3.82305 9.57526 5.23686 11.2359 7.11523 11.6172V14.1687H8.76132V11.6172C10.6397 11.2359 12.0535 9.57526 12.0535 7.58436V6.76132H12.465C12.6923 6.76132 12.8765 6.57708 12.8765 6.34979V5.52675C12.8765 5.29946 12.6923 5.11523 12.465 5.11523ZM6.29218 1.82305V4.7037H4.64609V1.82305C4.64609 1.36849 5.01458 1 5.46914 1C5.92369 1 6.29218 1.36849 6.29218 1.82305Z" fill="black"/>
</svg>
