<svg width="16" height="16" viewBox="0 0 16 16" fill="none" xmlns="http://www.w3.org/2000/svg">
<path fill-rule="evenodd" clip-rule="evenodd" d="M10.9818 8.24107L14.0253 11.2846C14.4022 11.6615 14.4022 12.2749 14.0253 12.6543L12.6556 14.024C12.2788 14.4035 11.6654 14.4035 11.2859 14.024L8.24236 10.9805C7.64198 10.3801 7.52762 9.48343 7.88109 8.76088L5.11046 5.99025H3.49643L1.0013 2.66342L2.66472 1L5.99155 3.49513V5.10916L8.76218 7.87979C9.48473 7.52372 10.3814 7.64068 10.9818 8.24107ZM11.5692 7.65367C11.0494 7.13385 10.358 6.84795 9.62248 6.84795C9.40936 6.84795 9.19103 6.87394 8.98051 6.92333L6.84665 4.78947C6.82846 3.81482 7.17674 2.83756 7.91748 2.09682C8.87914 1.13515 10.2359 0.807667 11.4678 1.11176C11.7044 1.17154 11.7875 1.46524 11.616 1.63678L9.68226 3.5705L9.97596 5.33528L11.7407 5.62898L13.6745 3.69526C13.846 3.52372 14.1397 3.60429 14.1969 3.83821C14.5036 5.07018 14.1761 6.4269 13.2118 7.39116C12.8739 7.72904 12.4841 7.97856 12.0734 8.15789L11.5692 7.65367ZM6.92203 8.97921L5.44834 7.50552L1.48733 11.4691C0.837557 12.1189 0.837557 13.1715 1.48733 13.8213C2.1371 14.4711 3.18973 14.4711 3.83951 13.8213L7.05198 10.6088C6.85445 10.0916 6.79467 9.52762 6.92203 8.97921ZM2.04094 12.6439C2.04094 12.987 2.32164 13.2677 2.66472 13.2677C3.0104 13.2677 3.2885 12.987 3.2885 12.6439C3.2885 12.2982 3.0104 12.0201 2.66472 12.0201C2.31904 12.0201 2.04094 12.2982 2.04094 12.6439Z" fill="black"/>
</svg>
