<svg width="66" height="62" viewBox="0 0 66 62" fill="none" xmlns="http://www.w3.org/2000/svg">
<g id="Dribbble">
<path id="Combined Shape" fill-rule="evenodd" clip-rule="evenodd" d="M33 0C14.7746 0 0 13.8792 0 31C0 48.1208 14.7746 62 33 62C51.2254 62 66 48.1208 66 31C66 13.8792 51.2254 0 33 0ZM50.2408 34.3002C50.4788 33.2118 50.6 32.0952 50.6 30.9771C50.6 29.8581 50.4788 28.7392 50.2408 27.6532C50.0087 26.5906 49.665 25.5459 49.2147 24.5503C48.7747 23.57 48.2289 22.6252 47.5913 21.7448C46.9631 20.8693 46.2394 20.0502 45.4445 19.3013C44.6479 18.5563 43.7712 17.88 42.8404 17.2883C41.9002 16.6909 40.8939 16.179 39.8505 15.763C38.7874 15.3414 37.6744 15.0181 36.5443 14.802C35.3841 14.5796 34.1912 14.4667 32.9993 14.4667C31.8064 14.4667 30.6135 14.5796 29.455 14.802C28.3231 15.0181 27.2103 15.3413 26.148 15.763C25.1047 16.179 24.0974 16.6909 23.1572 17.2883C22.2265 17.88 21.3499 18.5563 20.5549 19.3013C19.7591 20.0502 19.0354 20.8693 18.4063 21.7448C17.7721 22.6252 17.2255 23.57 16.7838 24.5503C16.3334 25.5459 15.9888 26.5906 15.7559 27.6532C15.5203 28.7392 15.4 29.8581 15.4 30.9771C15.4 32.0952 15.5203 33.2118 15.7558 34.3002C15.9887 35.3626 16.3333 36.4058 16.7837 37.4031C17.2254 38.3826 17.772 39.3266 18.4063 40.2069C19.0354 41.0817 19.759 41.9023 20.5548 42.6504C21.3498 43.3953 22.2264 44.0733 23.1572 44.6659C24.0973 45.2608 25.1046 45.7727 26.1479 46.1879C27.2102 46.6087 28.3231 46.9312 29.455 47.1488C30.6135 47.373 31.8063 47.4874 32.9992 47.4874C34.1912 47.4874 35.3841 47.373 36.5443 47.1488C37.6744 46.9312 38.7874 46.6087 39.8505 46.1879C40.8939 45.7727 41.9002 45.2608 42.8404 44.6659C43.7711 44.0732 44.6477 43.3953 45.4444 42.6504C46.2394 41.9023 46.963 41.0817 47.5912 40.2069C48.2289 39.3266 48.7747 38.3826 49.2147 37.4031C49.665 36.4058 50.0087 35.3627 50.2408 34.3002Z" fill="#677897"/>
<path id="Combined Shape_2" fill-rule="evenodd" clip-rule="evenodd" d="M32.9992 16.8789C36.8047 16.8789 40.2793 18.2066 42.9255 20.3954L42.9242 20.3973C42.8532 20.497 40.7013 23.5203 35.0764 25.4984C32.5766 21.1928 29.8379 17.7518 29.4819 17.3047L29.4575 17.2739C30.5928 17.0176 31.7779 16.8789 32.9992 16.8789ZM37.2318 29.6438C36.9199 28.956 36.5821 28.2717 36.2332 27.5993C42.1295 25.3404 44.5471 22.1003 44.6057 22.0218L44.6066 22.0206C46.7155 24.4222 47.9901 27.4897 48.0245 30.832L48.0066 30.8285C47.6122 30.7515 42.6212 29.7763 37.5567 30.3742C37.451 30.1324 37.3427 29.8905 37.2318 29.6438ZM47.8387 33.2118C47.1701 37.1412 44.7732 40.5336 41.3983 42.6699C41.2453 41.8202 40.4443 37.6813 38.4728 32.5991C43.3242 31.8695 47.5294 33.1183 47.8387 33.2118ZM35.6565 33.2522L35.62 33.2632C35.5987 33.2694 35.5776 33.2757 35.5568 33.2828C26.6886 36.1829 23.7926 42.0272 23.7612 42.091C26.3129 43.9525 29.5134 45.0755 32.9992 45.0755C35.0806 45.0755 37.0633 44.6779 38.8672 43.9581C38.6446 42.7263 37.7715 38.4085 35.6565 33.2522ZM33.4125 28.52C25.6735 30.6934 18.2472 30.537 17.9808 30.5274C17.9795 30.5744 17.9778 30.6209 17.9761 30.6673C17.9724 30.7704 17.9688 30.8726 17.9688 30.9772C17.9688 34.5993 19.4255 37.9013 21.8198 40.3981C21.8146 40.3908 25.9279 33.5456 34.0391 31.0852C34.235 31.024 34.4344 30.9691 34.632 30.9159C34.2548 30.1146 33.8431 29.3117 33.4125 28.52ZM18.291 28.0701C19.2665 23.7039 22.3947 20.081 26.5862 18.2244C26.7864 18.4751 29.5658 22.0133 32.1672 26.3489C25.0266 28.1286 18.8191 28.0747 18.3055 28.0703C18.3 28.0702 18.2952 28.0702 18.291 28.0701Z" fill="#677897"/>
</g>
</svg>
