<svg width="68" height="68" viewBox="0 0 68 68" fill="none" xmlns="http://www.w3.org/2000/svg">
<path d="M33.7771 65.8378C27.3468 65.8147 21.0734 63.8498 15.7788 60.2006C10.4841 56.5513 6.41522 51.388 4.10505 45.3869C4.08721 45.34 4.07877 45.29 4.08024 45.2398C4.08171 45.1896 4.09305 45.1402 4.11361 45.0944C4.13417 45.0486 4.16356 45.0073 4.20008 44.9728C4.23661 44.9384 4.27956 44.9115 4.32649 44.8936C4.37342 44.8758 4.4234 44.8673 4.47359 44.8688C4.52378 44.8703 4.57319 44.8816 4.61899 44.9022C4.6648 44.9227 4.70611 44.9521 4.74056 44.9886C4.77501 45.0252 4.80193 45.0681 4.81977 45.115C6.82729 50.3941 10.2399 55.0238 14.6885 58.5035C19.137 61.9831 24.4523 64.1804 30.0594 64.8575C35.6665 65.5347 41.3521 64.666 46.5011 62.3454C51.6502 60.0247 56.0668 56.3405 59.2734 51.6912C62.4799 47.0419 64.3543 41.6044 64.6938 35.9667C65.0333 30.3291 63.8251 24.7059 61.1997 19.7054C58.5744 14.7048 54.6318 10.5171 49.7985 7.59533C44.9652 4.67352 39.425 3.12873 33.7771 3.12804C33.6757 3.12804 33.5785 3.08776 33.5068 3.01605C33.435 2.94434 33.3948 2.84708 33.3948 2.74566C33.3948 2.64425 33.435 2.54699 33.5068 2.47528C33.5785 2.40357 33.6757 2.36329 33.7771 2.36329C37.9463 2.36124 42.0749 3.18064 45.9273 4.77467C49.7796 6.3687 53.2801 8.70612 56.2288 11.6534C59.1776 14.6007 61.5167 18.1001 63.1126 21.9516C64.7086 25.8032 65.53 29.9314 65.53 34.1005C65.53 38.2697 64.7086 42.3979 63.1126 46.2495C61.5167 50.101 59.1776 53.6004 56.2288 56.5477C53.2801 59.495 49.7796 61.8324 45.9273 63.4264C42.0749 65.0205 37.9463 65.8399 33.7771 65.8378Z" fill="white"/>
<path d="M33.9682 68C26.7263 67.9932 19.6757 65.6743 13.8436 61.381C8.01151 57.0877 3.7026 51.0444 1.54461 44.1315C-0.613384 37.2186 -0.507708 29.7972 1.84624 22.9485C4.20019 16.0998 8.67943 10.1816 14.6314 6.05617C20.5834 1.9307 27.6971 -0.186537 34.9363 0.0129017C42.1755 0.21234 49.1619 2.71804 54.8777 7.16495C60.5935 11.6119 64.7401 17.7677 66.7134 24.7356C68.6868 31.7035 68.3837 39.1194 65.8483 45.9031C65.8309 45.9503 65.8043 45.9936 65.77 46.0305C65.7358 46.0674 65.6946 46.0972 65.6488 46.1182C65.603 46.1391 65.5536 46.1508 65.5033 46.1526C65.4529 46.1544 65.4028 46.1462 65.3556 46.1286C65.3085 46.1109 65.2653 46.0841 65.2285 46.0498C65.1917 46.0154 65.1621 45.9741 65.1413 45.9282C65.1206 45.8823 65.1091 45.8328 65.1075 45.7825C65.1059 45.7322 65.1143 45.682 65.1321 45.6349C67.6191 38.9963 67.9207 31.7368 65.993 24.9148C64.0652 18.0927 60.0089 12.0647 54.4153 7.70937C48.8217 3.35407 41.9833 0.899195 34.8968 0.702573C27.8104 0.505952 20.8463 2.57787 15.0198 6.61631C9.19338 10.6547 4.80907 16.4486 2.50602 23.1533C0.202962 29.8579 0.101563 37.123 2.2166 43.8893C4.33164 50.6556 8.55254 56.5696 14.264 60.7691C19.9755 64.9685 26.879 67.234 33.9682 67.2352C34.0697 67.2352 34.1669 67.2755 34.2386 67.3472C34.3103 67.4189 34.3506 67.5162 34.3506 67.6176C34.3506 67.719 34.3103 67.8163 34.2386 67.888C34.1669 67.9597 34.0697 68 33.9682 68Z" fill="white"/>
<path d="M29.0596 23.6938V19.55H38.7283V23.6938" stroke="white" stroke-miterlimit="10" stroke-linecap="round" stroke-linejoin="round"/>
<path d="M30.4408 38.8876H18.7002V25.0751C18.7002 24.312 19.3183 23.6938 20.0814 23.6938H47.7064C48.4696 23.6938 49.0877 24.312 49.0877 25.0751V38.8876H37.3471" stroke="white" stroke-miterlimit="10" stroke-linecap="round" stroke-linejoin="round"/>
<path d="M47.7065 42.3406V47.175C47.7065 47.9381 47.0884 48.5562 46.3253 48.5562H21.4628C20.6997 48.5562 20.0815 47.9381 20.0815 47.175V42.3406" stroke="white" stroke-miterlimit="10" stroke-linecap="round" stroke-linejoin="round"/>
<path d="M37.3472 36.125H30.4409V41.65H37.3472V36.125Z" stroke="white" stroke-miterlimit="10" stroke-linecap="round" stroke-linejoin="round"/>
</svg>
