<?xml version="1.0" encoding="UTF-8" standalone="no"?>
<svg width="67" xmlns="http://www.w3.org/2000/svg" fill="none" viewBox="0 0 67 67" height="67">
 <path d="m0.24457 33.422c0.0066-7.073 2.2715-13.959 6.4648-19.656 4.1936-5.6961 10.096-9.9047 16.848-12.012 6.752-2.1082 14.001-2.005 20.69 0.2941 6.69 2.2992 12.47 6.6742 16.499 12.488 4.03 5.813 6.098 12.761 5.903 19.832s-2.642 13.894-6.985 19.477c-4.344 5.583-10.356 9.633-17.162 11.56-6.806 1.928-14.049 1.632-20.675-0.845-0.046-0.017-0.088-0.043-0.124-0.076-0.036-0.034-0.065-0.074-0.086-0.118-0.021-0.045-0.032-0.094-0.034-0.143-0.001-0.049 0.007-0.098 0.024-0.144s0.043-0.088 0.077-0.124c0.033-0.036 0.074-0.065 0.119-0.085 0.044-0.02 0.093-0.032 0.142-0.033 0.049-0.002 0.098 0.006 0.144 0.024 6.484 2.429 13.575 2.723 20.238 0.841 6.663-1.883 12.551-5.845 16.805-11.308 4.254-5.464 6.651-12.143 6.843-19.065 0.192-6.921-1.831-13.723-5.776-19.414-3.944-5.6908-9.603-9.973-16.152-12.222-6.548-2.2499-13.644-2.3489-20.253-0.2831s-12.385 6.1884-16.487 11.767c-4.1016 5.578-6.3143 12.321-6.3155 19.245 0.00002 0.099-0.03933 0.194-0.10937 0.264s-0.16503 0.11-0.26409 0.11c-0.09905 0-0.19404-0.04-0.26408-0.11s-0.10939-0.165-0.10939-0.264z" fill="#fff"/>
 <path d="m2.8439 33.138c0.0226-6.28 1.9417-12.408 5.506-17.579 3.5641-5.171 8.6071-9.1456 14.469-11.402 0.046-0.0175 0.094-0.0257 0.143-0.0243 0.049 0.0015 0.098 0.0125 0.142 0.0326 0.045 0.0201 0.086 0.0488 0.119 0.0845 0.034 0.0356 0.06 0.0776 0.077 0.1234 0.018 0.0459 0.026 0.0947 0.025 0.1437-0.002 0.049-0.013 0.0973-0.033 0.142-0.02 0.0448-0.049 0.0851-0.084 0.1188-0.036 0.0336-0.078 0.0599-0.124 0.0773-5.156 1.9608-9.678 5.294-13.076 9.639-3.3992 4.345-5.5453 9.537-6.2067 15.013-0.6614 5.477 0.1871 11.03 2.4537 16.059s5.865 9.343 10.406 12.475 9.852 4.963 15.359 5.294c5.506 0.332 10.998-0.848 15.882-3.412 4.885-2.565 8.975-6.415 11.829-11.136 2.853-4.721 4.362-10.132 4.363-15.649 0-0.099 0.039-0.194 0.109-0.264s0.165-0.109 0.264-0.109 0.194 0.039 0.264 0.109c0.071 0.07 0.11 0.165 0.11 0.264 0.002 4.072-0.799 8.105-2.355 11.868-1.557 3.762-3.84 7.181-6.719 10.061-2.879 2.881-6.297 5.165-10.059 6.724-3.761 1.559-7.794 2.361-11.866 2.361s-8.104-0.802-11.866-2.361-7.18-3.843-10.058-6.724c-2.8789-2.88-5.162-6.299-6.7189-10.061-1.5569-3.763-2.3572-7.796-2.3552-11.868z" fill="#fff"/>
 <path stroke-linejoin="round" stroke="#fff" stroke-linecap="round" stroke-miterlimit="10" d="m45.906 37.584v-5.07c0-0.36-0.143-0.704-0.397-0.958s-0.598-0.397-0.957-0.397h-23.028c-0.359 0-0.704 0.143-0.958 0.397s-0.397 0.598-0.397 0.958v5.07c0 5.055 4.098 9.153 9.153 9.153h7.432c5.054 0 9.152-4.098 9.152-9.153z"/>
 <path stroke="#fff" stroke-linecap="round" stroke-miterlimit="10" d="m45.229 35.223h-24.382"/>
 <path stroke="#fff" stroke-linecap="round" stroke-miterlimit="10" d="m37.779 28.45c0-1.692 1.354-1.692 1.354-3.385s-1.354-1.693-1.354-3.386 1.354-1.695 1.354-3.388"/>
 <path stroke="#fff" stroke-linecap="round" stroke-miterlimit="10" d="m34.392 28.45c0-1.692 1.355-1.692 1.355-3.385s-1.355-1.693-1.355-3.386 1.355-1.695 1.355-3.388"/>
 <path stroke="#fff" stroke-linecap="round" stroke-miterlimit="10" d="m31.006 28.45c0-1.692 1.354-1.692 1.354-3.385s-1.354-1.693-1.354-3.386 1.354-1.695 1.354-3.388"/>
 <path stroke="#fff" stroke-linecap="round" stroke-miterlimit="10" d="m27.62 28.45c0-1.692 1.354-1.692 1.354-3.385s-1.354-1.693-1.354-3.386 1.354-1.695 1.354-3.388"/>
</svg>
