<?xml version="1.0" encoding="UTF-8" standalone="no"?>
<svg width="66" xmlns="http://www.w3.org/2000/svg" fill="none" viewBox="0 0 66 66" height="66">
 <path d="m32.97 65.883c-6.94-0.007-13.697-2.229-19.286-6.343s-9.7183-9.906-11.786-16.531c-2.0683-6.624-1.9671-13.736 0.2888-20.299 2.2558-6.564 6.5483-12.235 12.252-16.188 5.704-3.954 12.521-5.983 19.458-5.7919 6.938 0.19116 13.633 2.5924 19.11 6.8539 5.478 4.262 9.452 10.161 11.343 16.838 1.891 6.678 1.6 13.784-0.829 20.285-0.017 0.045-0.043 0.087-0.075 0.122-0.033 0.036-0.073 0.064-0.117 0.084-0.043 0.02-0.091 0.032-0.139 0.033-0.048 0.002-0.096-0.006-0.142-0.023-0.045-0.017-0.086-0.042-0.121-0.075-0.036-0.033-0.064-0.073-0.084-0.117s-0.031-0.091-0.032-0.139c-0.002-0.049 0.006-0.097 0.023-0.142 2.384-6.362 2.673-13.318 0.825-19.856-1.847-6.538-5.734-12.314-11.095-16.488-5.36-4.174-11.914-6.5265-18.704-6.7149-6.792-0.1885-13.465 1.7971-19.049 5.6671-5.5834 3.8698-9.7849 9.4228-11.992 15.848-2.207 6.425-2.3042 13.387-0.2773 19.871 2.0268 6.485 6.0718 12.152 11.545 16.176 5.473 4.025 12.089 6.196 18.883 6.197 0.097 0 0.19 0.039 0.259 0.107 0.068 0.069 0.107 0.162 0.107 0.259 0 0.098-0.039 0.191-0.107 0.26-0.069 0.068-0.162 0.107-0.259 0.107z" fill="#fff"/>
 <path d="m33.062 64.492c-6.162-0.022-12.174-1.905-17.248-5.402-5.074-3.498-8.9732-8.446-11.187-14.196-0.0171-0.045-0.0252-0.093-0.0238-0.141 0.0014-0.049 0.0123-0.096 0.032-0.14s0.0478-0.083 0.0828-0.116 0.0762-0.059 0.1212-0.076c0.0449-0.017 0.0928-0.025 0.1409-0.024s0.0955 0.012 0.1394 0.032 0.0835 0.048 0.1165 0.083 0.0588 0.076 0.0759 0.121c1.9238 5.059 5.1941 9.496 9.4571 12.83 4.263 3.335 9.357 5.441 14.73 6.089 5.374 0.649 10.822-0.183 15.757-2.407 4.934-2.224 9.166-5.755 12.239-10.21s4.869-9.666 5.195-15.069c0.325-5.402-0.833-10.791-3.349-15.583-2.515-4.792-6.294-8.805-10.925-11.606-4.632-2.7995-9.942-4.2799-15.354-4.2806-0.097 0-0.19-0.0386-0.259-0.1073s-0.107-0.1619-0.107-0.2591 0.038-0.1904 0.107-0.2591 0.162-0.1073 0.259-0.1073c3.995-0.002 7.952 0.7832 11.644 2.3108 3.691 1.5276 7.046 3.7676 9.872 6.5916 2.826 2.825 5.067 6.178 6.596 9.869 1.53 3.691 2.317 7.647 2.317 11.643 0 3.995-0.787 7.951-2.317 11.642-1.529 3.691-3.77 7.045-6.596 9.869-2.826 2.825-6.181 5.064-9.872 6.592-3.692 1.528-7.649 2.313-11.644 2.311z" fill="#fff"/>
 <path stroke-linejoin="round" stroke="#fff" stroke-linecap="round" stroke-miterlimit="10" d="m46.068 35.006v-12.275c0-0.362-0.144-0.709-0.4-0.965s-0.602-0.399-0.964-0.399h-5.456"/>
 <path stroke-linejoin="round" stroke="#fff" stroke-linecap="round" stroke-miterlimit="10" d="m25.608 21.367h-4.091c-0.362 0-0.709 0.143-0.965 0.399s-0.399 0.603-0.399 0.965v23.868c0 0.362 0.143 0.709 0.399 0.965 0.256 0.255 0.603 0.399 0.965 0.399h19.095"/>
 <path stroke-linejoin="round" stroke="#fff" stroke-linecap="round" stroke-miterlimit="10" d="m36.52 21.367h-8.184"/>
 <path stroke-linejoin="round" stroke="#fff" stroke-linecap="round" stroke-miterlimit="10" d="m26.972 24.706c-0.361 0-0.708-0.144-0.964-0.4-0.256-0.255-0.4-0.602-0.4-0.964v-3.339c0-0.362 0.144-0.709 0.4-0.964 0.256-0.256 0.603-0.4 0.964-0.4 0.362 0 0.709 0.144 0.965 0.4 0.255 0.255 0.399 0.602 0.399 0.964v3.339c0 0.362-0.144 0.709-0.399 0.964-0.256 0.256-0.603 0.4-0.965 0.4z"/>
 <path stroke-linejoin="round" stroke="#fff" stroke-linecap="round" stroke-miterlimit="10" d="m37.884 24.706c-0.362 0-0.709-0.144-0.965-0.4-0.256-0.255-0.399-0.602-0.399-0.964v-3.339c0-0.362 0.143-0.709 0.399-0.964 0.256-0.256 0.603-0.4 0.965-0.4 0.361 0 0.708 0.144 0.964 0.4 0.256 0.255 0.399 0.602 0.399 0.964v3.339c0 0.362-0.143 0.709-0.399 0.964-0.256 0.256-0.603 0.4-0.964 0.4z"/>
 <path stroke-linejoin="round" stroke="#fff" stroke-linecap="round" stroke-miterlimit="10" d="m41.635 47.963c3.955 0 7.161-3.206 7.161-7.16 0-3.955-3.206-7.161-7.161-7.161s-7.16 3.206-7.16 7.161c0 3.954 3.205 7.16 7.16 7.16z"/>
 <path stroke-linejoin="round" stroke="#fff" stroke-linecap="round" stroke-miterlimit="10" d="m41.294 37.734v3.41l3.409 2.728"/>
 <path stroke-linejoin="round" stroke="#fff" stroke-linecap="round" stroke-miterlimit="10" d="m25.608 30.233v-2.728h2.728"/>
 <path stroke-linejoin="round" stroke="#fff" stroke-linecap="round" stroke-miterlimit="10" d="m31.746 30.233v-2.728h2.728"/>
 <path stroke-linejoin="round" stroke="#fff" stroke-linecap="round" stroke-miterlimit="10" d="m37.884 30.233v-2.728h2.728"/>
 <path stroke-linejoin="round" stroke="#fff" stroke-linecap="round" stroke-miterlimit="10" d="m25.608 36.37v-2.728h2.728"/>
 <path stroke-linejoin="round" stroke="#fff" stroke-linecap="round" stroke-miterlimit="10" d="m31.746 36.37v-2.728h2.728"/>
 <path stroke-linejoin="round" stroke="#fff" stroke-linecap="round" stroke-miterlimit="10" d="m25.608 43.19v-2.728h2.728"/>
 <path stroke-linejoin="round" stroke="#fff" stroke-linecap="round" stroke-miterlimit="10" d="m31.746 43.19v-2.728h2.728"/>
</svg>
