<?xml version="1.0" encoding="UTF-8" standalone="no"?>
<svg width="68" xmlns="http://www.w3.org/2000/svg" fill="none" viewBox="0 0 68 68" height="68">
 <path d="m33.968 68c-7.242-0.007-14.292-2.326-20.124-6.619-5.8325-4.293-10.141-10.337-12.299-17.249-2.1584-6.913-2.0527-14.335 0.3012-21.184 2.354-6.848 6.8332-12.766 12.785-16.892 5.952-4.1253 13.066-6.2425 20.305-6.0431 7.24 0.19944 14.226 2.7051 19.942 7.1521s9.862 10.603 11.835 17.571c1.974 6.968 1.671 14.383-0.865 21.167-0.017 0.047-0.044 0.091-0.078 0.127-0.034 0.037-0.075 0.067-0.121 0.088s-0.095 0.033-0.146 0.035c-0.05 0.001-0.1-0.007-0.147-0.024-0.048-0.018-0.091-0.045-0.128-0.079-0.036-0.035-0.066-0.076-0.087-0.122-0.02-0.046-0.032-0.095-0.033-0.146-0.002-0.05 0.006-0.1 0.024-0.147 2.487-6.639 2.789-13.898 0.861-20.72s-5.984-12.85-11.578-17.206c-5.593-4.3549-12.432-6.8098-19.518-7.0064-7.087-0.19665-14.051 1.8753-19.877 5.9137-5.8266 4.0387-10.211 9.8327-12.514 16.537-2.303 6.705-2.4044 13.97-0.2894 20.736 2.115 6.767 6.3359 12.681 12.047 16.88 5.712 4.199 12.615 6.465 19.704 6.466 0.102 0 0.199 0.041 0.271 0.112 0.071 0.072 0.112 0.169 0.112 0.271 0 0.101-0.041 0.198-0.112 0.27-0.072 0.072-0.169 0.112-0.271 0.112z" fill="#fff"/>
 <path d="m33.777 65.838c-6.43-0.023-12.704-1.988-17.998-5.637-5.295-3.65-9.3638-8.813-11.674-14.814-0.0178-0.047-0.0262-0.097-0.0248-0.147 0.0015-0.05 0.0128-0.1 0.0334-0.146 0.0206-0.045 0.05-0.087 0.0865-0.121 0.0365-0.035 0.0795-0.061 0.1264-0.079s0.0969-0.027 0.1471-0.025c0.0502 0.001 0.0996 0.013 0.1454 0.033 0.0458 0.021 0.0871 0.05 0.1216 0.087 0.0344 0.036 0.0613 0.079 0.0792 0.126 2.0075 5.279 5.4202 9.909 9.8682 13.389 4.449 3.479 9.764 5.676 15.371 6.354 5.607 0.677 11.293-0.192 16.442-2.513 5.149-2.32 9.566-6.004 12.772-10.654 3.207-4.649 5.081-10.087 5.421-15.724 0.339-5.638-0.869-11.261-3.494-16.262-2.626-5-6.568-9.188-11.402-12.11-4.833-2.9215-10.373-4.4663-16.021-4.467-0.101 0-0.199-0.0402-0.27-0.112-0.072-0.0717-0.112-0.1689-0.112-0.2703 0-0.1015 0.04-0.1987 0.112-0.2704 0.071-0.0717 0.169-0.112 0.27-0.112 4.169-0.0021 8.298 0.8173 12.15 2.4114 3.853 1.594 7.353 3.9314 10.302 6.8783 2.949 2.948 5.288 6.447 6.884 10.299 1.596 3.851 2.417 7.979 2.417 12.149 0 4.169-0.821 8.297-2.417 12.149-1.596 3.851-3.935 7.35-6.884 10.298-2.949 2.947-6.449 5.284-10.302 6.878-3.852 1.594-7.981 2.414-12.15 2.412z" fill="#fff"/>
 <path stroke-linejoin="round" stroke="#fff" stroke-linecap="round" stroke-miterlimit="10" d="m49.041 29.556c-2.271-6.056-6.487-10.075-9.418-8.976-0.631 0.237-1.149 0.691-1.554 1.32-0.666 1.036-1.765 1.713-2.998 1.713h-2.694c-1.232 0-2.332-0.677-2.998-1.713-0.404-0.629-0.923-1.083-1.554-1.32-2.93-1.099-7.147 2.92-9.418 8.976s-1.737 11.856 1.194 12.955c2.258 0.847 5.276-1.348 7.581-5.171 1.162-1.926 3.2-3.15 5.45-3.15h2.185c2.249 0 4.287 1.224 5.449 3.15 2.305 3.823 5.323 6.018 7.581 5.171 2.931-1.099 3.465-6.899 1.194-12.955v0z"/>
 <path stroke-linejoin="round" stroke="#fff" stroke-linecap="round" stroke-miterlimit="10" d="m23.713 34c1.043 0 1.889-0.846 1.889-1.889 0-1.044-0.846-1.889-1.889-1.889-1.044 0-1.889 0.845-1.889 1.889 0 1.043 0.845 1.889 1.889 1.889z"/>
 <path stroke-linejoin="round" stroke="#fff" stroke-linecap="round" stroke-miterlimit="10" d="m26.358 27.954c0.417 0 0.755-0.338 0.755-0.755s-0.338-0.756-0.755-0.756c-0.418 0-0.756 0.339-0.756 0.756s0.338 0.755 0.756 0.755z"/>
 <path stroke-linejoin="round" stroke="#fff" stroke-linecap="round" stroke-miterlimit="10" d="m44.491 34.755c0.835 0 1.511-0.676 1.511-1.511 0-0.834-0.676-1.511-1.511-1.511s-1.511 0.677-1.511 1.511c0 0.835 0.676 1.511 1.511 1.511z"/>
 <path stroke-linejoin="round" stroke="#fff" stroke-linecap="round" stroke-miterlimit="10" d="m41.091 30.222c1.461 0 2.645-1.184 2.645-2.645 0-1.46-1.184-2.644-2.645-2.644-1.46 0-2.644 1.184-2.644 2.644 0 1.461 1.184 2.645 2.644 2.645z"/>
 <path stroke-linejoin="round" stroke="#fff" stroke-linecap="round" stroke-miterlimit="10" d="m21.069 37.777c0.417 0 0.756-0.338 0.756-0.755 0-0.418-0.339-0.756-0.756-0.756s-0.755 0.338-0.755 0.756c0 0.417 0.338 0.755 0.755 0.755z"/>
 <path stroke-linejoin="round" stroke="#fff" stroke-linecap="round" stroke-miterlimit="10" d="m30.891 27.199h2.266v0.756h-2.266v-0.756z"/>
 <path stroke-linejoin="round" stroke="#fff" stroke-linecap="round" stroke-miterlimit="10" d="m44.491 42.31s-0.944 5.006-8.311 2.267-12.183 1.133-12.089 3.022"/>
</svg>
