<svg width="67" height="35" viewBox="0 0 67 35" fill="none" xmlns="http://www.w3.org/2000/svg">
<path opacity="0.191989" fill-rule="evenodd" clip-rule="evenodd" d="M27.456 33.648L25.776 28.896H13.152L11.424 33.648H0L14.208 0H25.632L39.312 33.648H27.456ZM16.032 20.928H23.04L19.584 11.088L16.032 20.928ZM63.144 9.48C65.272 11.192 66.336 13.584 66.336 16.656V33.648H55.728V30.816C54.128 33.024 51.664 34.128 48.336 34.128C45.584 34.128 43.432 33.384 41.88 31.896C40.328 30.408 39.552 28.4 39.552 25.872C39.552 23.28 40.416 21.312 42.144 19.968C43.872 18.624 46.4 17.92 49.728 17.856H55.728C55.696 16.928 55.336 16.216 54.648 15.72C53.96 15.224 52.96 14.976 51.648 14.976C50.624 14.976 49.4 15.12 47.976 15.408C46.552 15.696 45.12 16.112 43.68 16.656L41.28 9.456C43.52 8.624 45.752 7.992 47.976 7.56C50.2 7.128 52.288 6.912 54.24 6.912C58.048 6.912 61.016 7.76799 63.144 9.48ZM54.12 26.736C54.776 26.384 55.312 25.888 55.728 25.248V22.848H51.984C50.448 22.848 49.68 23.552 49.68 24.96C49.68 25.696 49.888 26.264 50.304 26.664C50.72 27.064 51.312 27.264 52.08 27.264C52.784 27.264 53.464 27.088 54.12 26.736Z" fill="#986CC0"/>
</svg>
