<svg width="40" height="50" viewBox="0 0 40 50" fill="none" xmlns="http://www.w3.org/2000/svg">
<path fill-rule="evenodd" clip-rule="evenodd" d="M38.6092 11.5558L31.9524 6.71866C31.4368 6.32559 30.8373 6.13946 30.2407 6.11809C29.4349 6.07817 28.6527 6.34584 28.0549 6.90422C28.1787 5.45793 27.3352 4.05099 25.9108 3.59607L18.0996 1.05436C17.7903 0.950891 17.4793 0.910404 17.1712 0.888473C16.0358 0.888473 14.9854 1.48791 14.409 2.46017C14.12 1.05436 12.8643 0 11.3573 0H3.15239C1.42043 0 0 1.40525 0 3.1434V44.8111C0 46.5464 1.42043 47.9523 3.15239 47.9523H8.84256L11.0019 49.3176C12.6495 50.4557 14.6722 50.0548 15.6191 48.9627L39.6613 15.3582C40.2175 14.0356 39.8255 12.4442 38.6092 11.5558ZM1.15445 3.14171C1.15445 2.02606 2.04011 1.17807 3.15296 1.17807H11.3573C12.4718 1.17807 13.3164 2.02549 13.3164 3.14171V11.6784H1.15445V3.14171ZM1.15389 35.0958H13.317V24.555H1.15389V35.0958ZM13.317 23.3978H1.15389V12.857H13.317V23.3978ZM15.2339 3.45211L14.4917 5.7464V12.1951L24.1805 15.3571L26.8173 7.21407C27.149 6.15971 26.5923 5.04462 25.5402 4.71397L17.7267 2.17114C17.4591 2.08791 17.1903 2.0463 16.944 2.06767C16.182 2.1284 15.4808 2.66654 15.2339 3.45211ZM14.49 13.4356L14.4906 13.4358V24.4932L20.571 26.4782L23.8083 16.4733L14.4906 13.4358V13.4356H14.49ZM14.49 25.7342V36.7918L16.9845 37.5976L20.2223 27.5944L14.4906 25.7342H14.49ZM19.6459 41.111L17.5417 39.6017L20.9635 29.0609L25.809 32.5957L19.6459 41.111ZM21.3352 27.9026L26.5091 31.6235L32.6722 23.1093L24.7569 17.3629L21.3352 27.9026ZM38.3641 15.275L33.3549 22.1787L25.15 16.186L27.1496 9.98408L28.511 8.10366C28.9215 7.54415 29.5412 7.25568 30.18 7.27648C30.5505 7.29616 30.9639 7.421 31.2934 7.66842L37.9322 12.4842C38.8173 13.146 39.0034 14.3865 38.3641 15.275ZM3.43299 3.03374C3.43299 3.33282 3.19055 3.57526 2.89147 3.57526C2.5924 3.57526 2.34996 3.33282 2.34996 3.03374C2.34996 2.73467 2.5924 2.49222 2.89147 2.49222C3.19055 2.49222 3.43299 2.73467 3.43299 3.03374ZM6.14171 3.57526C6.44078 3.57526 6.68323 3.33282 6.68323 3.03374C6.68323 2.73467 6.44078 2.49222 6.14171 2.49222C5.84264 2.49222 5.60019 2.73467 5.60019 3.03374C5.60019 3.33282 5.84264 3.57526 6.14171 3.57526ZM8.41407 3.03374C8.41407 3.3325 8.17187 3.5747 7.87311 3.5747C7.57435 3.5747 7.33215 3.3325 7.33215 3.03374C7.33215 2.73498 7.57435 2.49279 7.87311 2.49279C8.17187 2.49279 8.41407 2.73498 8.41407 3.03374ZM11.3376 3.5747C11.6364 3.5747 11.8786 3.3325 11.8786 3.03374C11.8786 2.73498 11.6364 2.49279 11.3376 2.49279C11.0388 2.49279 10.7966 2.73498 10.7966 3.03374C10.7966 3.3325 11.0388 3.5747 11.3376 3.5747ZM3.43299 4.76514C3.43299 5.06421 3.19055 5.30666 2.89147 5.30666C2.5924 5.30666 2.34996 5.06421 2.34996 4.76514C2.34996 4.46607 2.5924 4.22362 2.89147 4.22362C3.19055 4.22362 3.43299 4.46607 3.43299 4.76514ZM6.14171 5.30666C6.44078 5.30666 6.68323 5.06421 6.68323 4.76514C6.68323 4.46607 6.44078 4.22362 6.14171 4.22362C5.84264 4.22362 5.60019 4.46607 5.60019 4.76514C5.60019 5.06421 5.84264 5.30666 6.14171 5.30666ZM8.41407 4.76514C8.41407 5.0639 8.17187 5.3061 7.87311 5.3061C7.57435 5.3061 7.33215 5.0639 7.33215 4.76514C7.33215 4.46638 7.57435 4.22418 7.87311 4.22418C8.17187 4.22418 8.41407 4.46638 8.41407 4.76514ZM11.3376 5.3061C11.6364 5.3061 11.8786 5.0639 11.8786 4.76514C11.8786 4.46638 11.6364 4.22418 11.3376 4.22418C11.0388 4.22418 10.7966 4.46638 10.7966 4.76514C10.7966 5.0639 11.0388 5.3061 11.3376 5.3061ZM3.43299 6.5702C3.43299 6.86928 3.19055 7.11172 2.89147 7.11172C2.5924 7.11172 2.34996 6.86928 2.34996 6.5702C2.34996 6.27113 2.5924 6.02868 2.89147 6.02868C3.19055 6.02868 3.43299 6.27113 3.43299 6.5702ZM6.14171 7.11172C6.44078 7.11172 6.68323 6.86928 6.68323 6.5702C6.68323 6.27113 6.44078 6.02868 6.14171 6.02868C5.84264 6.02868 5.60019 6.27113 5.60019 6.5702C5.60019 6.86928 5.84264 7.11172 6.14171 7.11172ZM8.41407 6.5702C8.41407 6.86897 8.17187 7.11116 7.87311 7.11116C7.57435 7.11116 7.33215 6.86897 7.33215 6.5702C7.33215 6.27144 7.57435 6.02925 7.87311 6.02925C8.17187 6.02925 8.41407 6.27144 8.41407 6.5702ZM11.3376 7.11116C11.6364 7.11116 11.8786 6.86897 11.8786 6.5702C11.8786 6.27144 11.6364 6.02925 11.3376 6.02925C11.0388 6.02925 10.7966 6.27144 10.7966 6.5702C10.7966 6.86897 11.0388 7.11116 11.3376 7.11116ZM3.43299 8.30216C3.43299 8.60124 3.19055 8.84368 2.89147 8.84368C2.5924 8.84368 2.34996 8.60124 2.34996 8.30216C2.34996 8.00309 2.5924 7.76065 2.89147 7.76065C3.19055 7.76065 3.43299 8.00309 3.43299 8.30216ZM6.14171 8.84368C6.44078 8.84368 6.68323 8.60124 6.68323 8.30216C6.68323 8.00309 6.44078 7.76065 6.14171 7.76065C5.84264 7.76065 5.60019 8.00309 5.60019 8.30216C5.60019 8.60124 5.84264 8.84368 6.14171 8.84368ZM8.41407 8.30216C8.41407 8.60093 8.17187 8.84312 7.87311 8.84312C7.57435 8.84312 7.33215 8.60093 7.33215 8.30216C7.33215 8.0034 7.57435 7.76121 7.87311 7.76121C8.17187 7.76121 8.41407 8.0034 8.41407 8.30216ZM11.3376 8.84312C11.6364 8.84312 11.8786 8.60093 11.8786 8.30216C11.8786 8.0034 11.6364 7.76121 11.3376 7.76121C11.0388 7.76121 10.7966 8.0034 10.7966 8.30216C10.7966 8.60093 11.0388 8.84312 11.3376 8.84312ZM3.43299 9.96159C3.43299 10.2607 3.19055 10.5031 2.89147 10.5031C2.5924 10.5031 2.34996 10.2607 2.34996 9.96159C2.34996 9.66251 2.5924 9.42007 2.89147 9.42007C3.19055 9.42007 3.43299 9.66251 3.43299 9.96159ZM4.35521 3.5747C4.65397 3.5747 4.89616 3.3325 4.89616 3.03374C4.89616 2.73498 4.65397 2.49279 4.35521 2.49279C4.05644 2.49279 3.81425 2.73498 3.81425 3.03374C3.81425 3.3325 4.05644 3.5747 4.35521 3.5747ZM4.89616 4.76514C4.89616 5.0639 4.65397 5.3061 4.35521 5.3061C4.05644 5.3061 3.81425 5.0639 3.81425 4.76514C3.81425 4.46638 4.05644 4.22418 4.35521 4.22418C4.65397 4.22418 4.89616 4.46638 4.89616 4.76514ZM4.35521 7.11116C4.65397 7.11116 4.89616 6.86897 4.89616 6.5702C4.89616 6.27144 4.65397 6.02925 4.35521 6.02925C4.05644 6.02925 3.81425 6.27144 3.81425 6.5702C3.81425 6.86897 4.05644 7.11116 4.35521 7.11116ZM4.89616 8.30216C4.89616 8.60093 4.65397 8.84312 4.35521 8.84312C4.05644 8.84312 3.81425 8.60093 3.81425 8.30216C3.81425 8.0034 4.05644 7.76121 4.35521 7.76121C4.65397 7.76121 4.89616 8.0034 4.89616 8.30216ZM4.35521 10.5025C4.65397 10.5025 4.89616 10.2603 4.89616 9.96159C4.89616 9.66282 4.65397 9.42063 4.35521 9.42063C4.05644 9.42063 3.81425 9.66282 3.81425 9.96159C3.81425 10.2603 4.05644 10.5025 4.35521 10.5025ZM6.68323 9.96159C6.68323 10.2607 6.44078 10.5031 6.14171 10.5031C5.84264 10.5031 5.60019 10.2607 5.60019 9.96159C5.60019 9.66251 5.84264 9.42007 6.14171 9.42007C6.44078 9.42007 6.68323 9.66251 6.68323 9.96159ZM7.87311 10.5025C8.17187 10.5025 8.41407 10.2603 8.41407 9.96159C8.41407 9.66282 8.17187 9.42063 7.87311 9.42063C7.57435 9.42063 7.33215 9.66282 7.33215 9.96159C7.33215 10.2603 7.57435 10.5025 7.87311 10.5025ZM10.146 3.03374C10.146 3.3325 9.90383 3.5747 9.60507 3.5747C9.30631 3.5747 9.06411 3.3325 9.06411 3.03374C9.06411 2.73498 9.30631 2.49279 9.60507 2.49279C9.90383 2.49279 10.146 2.73498 10.146 3.03374ZM9.60507 5.3061C9.90383 5.3061 10.146 5.0639 10.146 4.76514C10.146 4.46638 9.90383 4.22418 9.60507 4.22418C9.30631 4.22418 9.06411 4.46638 9.06411 4.76514C9.06411 5.0639 9.30631 5.3061 9.60507 5.3061ZM10.146 6.5702C10.146 6.86897 9.90383 7.11116 9.60507 7.11116C9.30631 7.11116 9.06411 6.86897 9.06411 6.5702C9.06411 6.27144 9.30631 6.02925 9.60507 6.02925C9.90383 6.02925 10.146 6.27144 10.146 6.5702ZM9.60507 8.84312C9.90383 8.84312 10.146 8.60093 10.146 8.30216C10.146 8.0034 9.90383 7.76121 9.60507 7.76121C9.30631 7.76121 9.06411 8.0034 9.06411 8.30216C9.06411 8.60093 9.30631 8.84312 9.60507 8.84312ZM10.146 9.96159C10.146 10.2603 9.90383 10.5025 9.60507 10.5025C9.30631 10.5025 9.06411 10.2603 9.06411 9.96159C9.06411 9.66282 9.30631 9.42063 9.60507 9.42063C9.90383 9.42063 10.146 9.66282 10.146 9.96159ZM11.3376 10.5025C11.6364 10.5025 11.8786 10.2603 11.8786 9.96159C11.8786 9.66282 11.6364 9.42063 11.3376 9.42063C11.0388 9.42063 10.7966 9.66282 10.7966 9.96159C10.7966 10.2603 11.0388 10.5025 11.3376 10.5025ZM3.43131 14.5563C3.43131 14.8551 3.18911 15.0973 2.89035 15.0973C2.59159 15.0973 2.34939 14.8551 2.34939 14.5563C2.34939 14.2576 2.59159 14.0154 2.89035 14.0154C3.18911 14.0154 3.43131 14.2576 3.43131 14.5563ZM6.14171 15.0979C6.44078 15.0979 6.68323 14.8554 6.68323 14.5563C6.68323 14.2573 6.44078 14.0148 6.14171 14.0148C5.84264 14.0148 5.60019 14.2573 5.60019 14.5563C5.60019 14.8554 5.84264 15.0979 6.14171 15.0979ZM8.41407 16.2883C8.41407 16.5871 8.17187 16.8293 7.87311 16.8293C7.57435 16.8293 7.33215 16.5871 7.33215 16.2883C7.33215 15.9895 7.57435 15.7473 7.87311 15.7473C8.17187 15.7473 8.41407 15.9895 8.41407 16.2883ZM11.3376 16.8293C11.6364 16.8293 11.8786 16.5871 11.8786 16.2883C11.8786 15.9895 11.6364 15.7473 11.3376 15.7473C11.0388 15.7473 10.7966 15.9895 10.7966 16.2883C10.7966 16.5871 11.0388 16.8293 11.3376 16.8293ZM3.43131 18.0928C3.43131 18.3916 3.18911 18.6338 2.89035 18.6338C2.59159 18.6338 2.34939 18.3916 2.34939 18.0928C2.34939 17.794 2.59159 17.5518 2.89035 17.5518C3.18911 17.5518 3.43131 17.794 3.43131 18.0928ZM6.14171 18.6343C6.44078 18.6343 6.68323 18.3919 6.68323 18.0928C6.68323 17.7937 6.44078 17.5513 6.14171 17.5513C5.84264 17.5513 5.60019 17.7937 5.60019 18.0928C5.60019 18.3919 5.84264 18.6343 6.14171 18.6343ZM8.41407 19.8253C8.41407 20.1241 8.17187 20.3663 7.87311 20.3663C7.57435 20.3663 7.33215 20.1241 7.33215 19.8253C7.33215 19.5266 7.57435 19.2844 7.87311 19.2844C8.17187 19.2844 8.41407 19.5266 8.41407 19.8253ZM11.3376 20.3663C11.6364 20.3663 11.8786 20.1241 11.8786 19.8253C11.8786 19.5266 11.6364 19.2844 11.3376 19.2844C11.0388 19.2844 10.7966 19.5266 10.7966 19.8253C10.7966 20.1241 11.0388 20.3663 11.3376 20.3663ZM3.43131 21.4842C3.43131 21.7829 3.18911 22.0251 2.89035 22.0251C2.59159 22.0251 2.34939 21.7829 2.34939 21.4842C2.34939 21.1854 2.59159 20.9432 2.89035 20.9432C3.18911 20.9432 3.43131 21.1854 3.43131 21.4842ZM4.35521 16.8293C4.65397 16.8293 4.89616 16.5871 4.89616 16.2883C4.89616 15.9895 4.65397 15.7473 4.35521 15.7473C4.05644 15.7473 3.81425 15.9895 3.81425 16.2883C3.81425 16.5871 4.05644 16.8293 4.35521 16.8293ZM4.89616 19.8253C4.89616 20.1241 4.65397 20.3663 4.35521 20.3663C4.05644 20.3663 3.81425 20.1241 3.81425 19.8253C3.81425 19.5266 4.05644 19.2844 4.35521 19.2844C4.65397 19.2844 4.89616 19.5266 4.89616 19.8253ZM6.14171 22.0257C6.44078 22.0257 6.68323 21.7833 6.68323 21.4842C6.68323 21.1851 6.44078 20.9427 6.14171 20.9427C5.84264 20.9427 5.60019 21.1851 5.60019 21.4842C5.60019 21.7833 5.84264 22.0257 6.14171 22.0257ZM10.146 14.5563C10.146 14.8551 9.90383 15.0973 9.60507 15.0973C9.30631 15.0973 9.06411 14.8551 9.06411 14.5563C9.06411 14.2576 9.30631 14.0154 9.60507 14.0154C9.90383 14.0154 10.146 14.2576 10.146 14.5563ZM9.60507 18.6338C9.90383 18.6338 10.146 18.3916 10.146 18.0928C10.146 17.794 9.90383 17.5518 9.60507 17.5518C9.30631 17.5518 9.06411 17.794 9.06411 18.0928C9.06411 18.3916 9.30631 18.6338 9.60507 18.6338ZM10.146 21.4842C10.146 21.7829 9.90383 22.0251 9.60507 22.0251C9.30631 22.0251 9.06411 21.7829 9.06411 21.4842C9.06411 21.1854 9.30631 20.9432 9.60507 20.9432C9.90383 20.9432 10.146 21.1854 10.146 21.4842ZM5.66936 26.8814C5.96812 26.8814 6.21032 26.6392 6.21032 26.3404C6.21032 26.0417 5.96812 25.7995 5.66936 25.7995C5.3706 25.7995 5.1284 26.0417 5.1284 26.3404C5.1284 26.6392 5.3706 26.8814 5.66936 26.8814ZM11.4068 26.3404C11.4068 26.6395 11.1643 26.8819 10.8652 26.8819C10.5662 26.8819 10.3237 26.6395 10.3237 26.3404C10.3237 26.0413 10.5662 25.7989 10.8652 25.7989C11.1643 25.7989 11.4068 26.0413 11.4068 26.3404ZM3.07142 28.6133C3.37018 28.6133 3.61237 28.3711 3.61237 28.0724C3.61237 27.7736 3.37018 27.5314 3.07142 27.5314C2.77266 27.5314 2.53046 27.7736 2.53046 28.0724C2.53046 28.3711 2.77266 28.6133 3.07142 28.6133ZM8.80938 28.0724C8.80938 28.3715 8.56694 28.6139 8.26786 28.6139C7.96879 28.6139 7.72634 28.3715 7.72634 28.0724C7.72634 27.7733 7.96879 27.5309 8.26786 27.5309C8.56694 27.5309 8.80938 27.7733 8.80938 28.0724ZM5.66936 30.3447C5.96812 30.3447 6.21032 30.1025 6.21032 29.8038C6.21032 29.505 5.96812 29.2628 5.66936 29.2628C5.3706 29.2628 5.1284 29.505 5.1284 29.8038C5.1284 30.1025 5.3706 30.3447 5.66936 30.3447ZM11.4068 29.8038C11.4068 30.1029 11.1643 30.3453 10.8652 30.3453C10.5662 30.3453 10.3237 30.1029 10.3237 29.8038C10.3237 29.5047 10.5662 29.2623 10.8652 29.2623C11.1643 29.2623 11.4068 29.5047 11.4068 29.8038ZM3.07142 32.0773C3.37018 32.0773 3.61237 31.8351 3.61237 31.5363C3.61237 31.2375 3.37018 30.9953 3.07142 30.9953C2.77266 30.9953 2.53046 31.2375 2.53046 31.5363C2.53046 31.8351 2.77266 32.0773 3.07142 32.0773ZM8.80938 31.5363C8.80938 31.8354 8.56694 32.0778 8.26786 32.0778C7.96879 32.0778 7.72634 31.8354 7.72634 31.5363C7.72634 31.2372 7.96879 30.9948 8.26786 30.9948C8.56694 30.9948 8.80938 31.2372 8.80938 31.5363ZM5.66936 33.8103C5.96812 33.8103 6.21032 33.5681 6.21032 33.2694C6.21032 32.9706 5.96812 32.7284 5.66936 32.7284C5.3706 32.7284 5.1284 32.9706 5.1284 33.2694C5.1284 33.5681 5.3706 33.8103 5.66936 33.8103ZM11.4068 33.2694C11.4068 33.5685 11.1643 33.8109 10.8652 33.8109C10.5662 33.8109 10.3237 33.5685 10.3237 33.2694C10.3237 32.9703 10.5662 32.7279 10.8652 32.7279C11.1643 32.7279 11.4068 32.9703 11.4068 33.2694Z" fill="url(#paint0_linear)"/>
<defs>
<linearGradient id="paint0_linear" x1="80.0757" y1="6.73802" x2="7.26309" y2="-36.8251" gradientUnits="userSpaceOnUse">
<stop stop-color="#F7618B"/>
<stop offset="1" stop-color="#2A7AFF"/>
</linearGradient>
</defs>
</svg>
