<svg width="18" height="18" viewBox="0 0 18 18" fill="none" xmlns="http://www.w3.org/2000/svg">
<g opacity="0.8">
<path d="M8.06141 1.95628L8.14536 16.1139C8.14863 16.6662 8.59899 17.1112 9.15127 17.108C9.70354 17.1047 10.1486 16.6543 10.1453 16.102L10.0614 1.94442C10.0581 1.39215 9.60774 0.947095 9.05546 0.95037C8.50319 0.953644 8.05814 1.40401 8.06141 1.95628Z" fill="#6266D7"/>
<path d="M16.1763 7.98713L2.01867 8.07108C1.46639 8.07435 1.02134 8.52471 1.02461 9.07699C1.02789 9.62926 1.47825 10.0743 2.03052 10.071L16.1881 9.9871C16.7404 9.98382 17.1855 9.53346 17.1822 8.98118C17.1789 8.42891 16.7286 7.98386 16.1763 7.98713Z" fill="#6266D7"/>
</g>
</svg>
