<svg width="18" height="18" viewBox="0 0 18 18" fill="none" xmlns="http://www.w3.org/2000/svg">
<path fill-rule="evenodd" clip-rule="evenodd" d="M15.7407 3.36766C16.3145 3.94141 16.3893 4.83946 15.8904 5.48804L15.7657 5.66266C15.6908 5.76245 15.7158 5.86223 15.7407 5.91212C15.7657 5.96201 15.8155 6.03685 15.9403 6.06179L16.1648 6.11168C16.963 6.21147 17.5617 6.885 17.5617 7.70821V9.87848C17.5617 10.6767 16.963 11.3752 16.1648 11.475L15.9403 11.4999C15.8155 11.5249 15.7657 11.5997 15.7407 11.6496C15.7158 11.6995 15.6908 11.7993 15.7657 11.8991L15.9153 12.0986C16.4142 12.7472 16.3394 13.6453 15.7657 14.219L14.219 15.7657C13.9197 16.065 13.4956 16.2396 13.0715 16.2396C12.7223 16.2396 12.373 16.1398 12.0986 15.9153L11.924 15.7906C11.8242 15.7158 11.7245 15.7407 11.6746 15.7657C11.6247 15.7906 11.5498 15.8405 11.5249 15.9652L11.475 16.1897C11.3752 16.988 10.7017 17.5867 9.87848 17.5867H7.70821C6.90995 17.5867 6.21147 16.988 6.11168 16.1897L6.08674 15.9652C6.06179 15.8405 5.98696 15.7906 5.93707 15.7657C5.88717 15.7407 5.78739 15.7158 5.68761 15.7906L5.48804 15.9153C5.21364 16.1149 4.8644 16.2396 4.51516 16.2396C4.09109 16.2396 3.66701 16.065 3.36766 15.7657L1.82103 14.219C1.24728 13.6453 1.17245 12.7472 1.67136 12.0986L1.79609 11.924C1.87092 11.8242 1.84598 11.7245 1.82103 11.6746C1.79609 11.6247 1.7462 11.5498 1.62147 11.5249L1.39696 11.475C0.598696 11.3752 0 10.7017 0 9.87848V7.70821C0 6.90995 0.598696 6.21147 1.39696 6.11168L1.62147 6.08674C1.7462 6.06179 1.79609 5.98696 1.82103 5.93707C1.84598 5.88717 1.87092 5.78739 1.79609 5.68761L1.67136 5.48804C1.17245 4.83946 1.24728 3.94141 1.82103 3.36766L3.36766 1.82103C3.94141 1.24728 4.83946 1.17245 5.48804 1.67136L5.66266 1.79609C5.76245 1.87092 5.86223 1.84598 5.91212 1.82103C5.96201 1.79609 6.03685 1.7462 6.06179 1.62147L6.11168 1.39696C6.21147 0.598696 6.885 0 7.70821 0H9.87848C10.6767 0 11.3752 0.598696 11.475 1.39696L11.4999 1.62147C11.5249 1.7462 11.5997 1.79609 11.6496 1.82103C11.6995 1.84598 11.7993 1.87092 11.8991 1.79609L12.0737 1.67136C12.7223 1.17245 13.6203 1.24728 14.1941 1.82103L15.7407 3.36766ZM15.9403 7.55853H15.9153L15.6659 7.50864C15.0672 7.40886 14.5683 7.00973 14.3438 6.46092C14.1192 5.91212 14.1941 5.28848 14.5433 4.78957L14.668 4.59L14.693 4.56505C14.7429 4.51516 14.7429 4.44033 14.693 4.39044L13.1464 2.8438C13.0965 2.79391 13.0216 2.79391 12.9967 2.81886L12.9717 2.8438L12.7722 2.99348C12.2982 3.34272 11.6496 3.41755 11.1008 3.19304C10.552 2.96853 10.1529 2.46962 10.0531 1.87092L10.0032 1.64641V1.62147C10.0032 1.57158 9.92837 1.52168 9.87848 1.52168H7.70821C7.63337 1.52168 7.58348 1.57158 7.58348 1.62147V1.64641L7.53359 1.89587C7.4338 2.49457 7.03467 2.99348 6.48587 3.21799C5.93707 3.4425 5.31342 3.36766 4.81451 3.01842L4.61495 2.8937L4.59 2.86875C4.54011 2.81886 4.46527 2.81886 4.41538 2.86875L2.86875 4.41538C2.81886 4.46527 2.81886 4.54011 2.8438 4.56505L2.86875 4.59L3.01842 4.78957C3.36766 5.26353 3.4425 5.91212 3.21799 6.46092C2.99348 7.00973 2.49457 7.40886 1.89587 7.50864L1.67136 7.55853H1.64641C1.59652 7.55853 1.54663 7.63337 1.54663 7.68326V9.85353C1.54663 9.92837 1.59652 9.97826 1.64641 9.97826H1.67136L1.92082 10.0282C2.51951 10.1279 3.01842 10.5271 3.24293 11.0759C3.46745 11.6247 3.39261 12.2483 3.04337 12.7472L2.91864 12.9468L2.8937 12.9717C2.8438 13.0216 2.8438 13.0965 2.8937 13.1464L4.44033 14.693C4.49022 14.7429 4.51516 14.7429 4.54011 14.7429C4.54011 14.7429 4.56505 14.7429 4.59 14.7179L4.61495 14.693L4.81451 14.5433C5.11386 14.3188 5.4631 14.219 5.81234 14.219C6.03685 14.219 6.26136 14.244 6.48587 14.3438C7.03467 14.5683 7.4338 15.0672 7.53359 15.6659L7.58348 15.9153V15.9403C7.58348 15.9902 7.65832 16.0401 7.70821 16.0401H9.87848C9.95332 16.0401 10.0032 15.9902 10.0032 15.9403V15.9153L10.0531 15.6659C10.1529 15.0672 10.552 14.5683 11.1008 14.3438C11.6496 14.1192 12.2733 14.1941 12.7722 14.5433L12.9468 14.6431L12.9717 14.668C13.0466 14.7179 13.0965 14.7179 13.1464 14.668L14.693 13.1214C14.7429 13.0715 14.7429 12.9967 14.7179 12.9717L14.693 12.9468L14.5433 12.7472C14.1941 12.2733 14.1192 11.6247 14.3438 11.0759C14.5683 10.5271 15.0672 10.1279 15.6659 10.0282L15.9153 9.97826H15.9403C15.9902 9.97826 16.0401 9.90342 16.0401 9.85353V7.68326C16.0401 7.60842 15.9902 7.55853 15.9403 7.55853Z" fill="#6266D7"/>
<path fill-rule="evenodd" clip-rule="evenodd" d="M5.48127 5.89085C5.606 5.74117 5.73073 5.5915 5.8804 5.49171C8.12551 3.8453 10.4455 4.444 11.7426 5.74117C13.0398 7.03835 13.6136 9.35829 11.9921 11.6034C11.8674 11.7531 11.7426 11.9027 11.593 12.0025C10.645 12.701 9.6472 13.0004 8.74915 13.0004C7.55176 13.0004 6.4791 12.5014 5.73073 11.7531C4.43356 10.4559 3.85981 8.13595 5.48127 5.89085ZM10.7448 10.7802C10.7448 10.7552 10.7698 10.7303 10.7947 10.7303C11.9671 9.08389 11.4682 7.58715 10.6949 6.81383C10.2459 6.36481 9.54742 6.01557 8.74915 6.01557C8.15046 6.01557 7.47693 6.21514 6.77845 6.71405C6.76303 6.71405 6.75714 6.72358 6.749 6.73675C6.74397 6.74489 6.73808 6.75441 6.72856 6.76394C5.53117 8.38541 6.05502 9.9071 6.82834 10.6804C7.60165 11.4537 9.09839 11.9526 10.7448 10.7802Z" fill="#6266D7"/>
</svg>
