<svg width="24" height="24" viewBox="0 0 24 24" fill="none" xmlns="http://www.w3.org/2000/svg">
<path d="M9 0H1C0.448 0 0 0.448 0 1V9C0 9.552 0.448 10 1 10H9C9.552 10 10 9.552 10 9V1C10 0.448 9.552 0 9 0Z" fill="white"/>
<path d="M19 10C21.757 10 24 7.757 24 5C24 2.243 21.757 0 19 0C16.243 0 14 2.243 14 5C14 7.757 16.243 10 19 10Z" fill="white"/>
<path d="M5.8945 14.5525C5.725 14.214 5.3785 14 5 14C4.6215 14 4.275 14.214 4.1055 14.5525L0.105502 22.5525C-0.0494976 22.8625 -0.0329976 23.2305 0.149502 23.5255C0.331502 23.8205 0.653502 24 1 24H9C9.3465 24 9.6685 23.8205 9.8505 23.526C10.033 23.231 10.049 22.863 9.8945 22.553L5.8945 14.5525Z" fill="white"/>
<path fill-rule="evenodd" clip-rule="evenodd" d="M20.0616 24H21C22.6545 24 24 22.6545 24 21V20.0616L20.0616 24ZM24 17.2331L17.2331 24H17C16.4445 24 15.9239 23.8483 15.4773 23.5843L23.5843 15.4773C23.8483 15.9239 24 16.4445 24 17V17.2331ZM14.1878 22.0454L22.0454 14.1878C21.7197 14.0664 21.3675 14 21 14H20.5616L14 20.5616V21C14 21.3675 14.0664 21.7197 14.1878 22.0454ZM17.7331 14L14 17.7331V17C14 15.3455 15.3455 14 17 14H17.7331Z" fill="white"/>
</svg>
