<svg width="148" height="31" viewBox="0 0 148 31" fill="none" xmlns="http://www.w3.org/2000/svg">
<path d="M9 5H1C0.448 5 0 5.448 0 6V14C0 14.552 0.448 15 1 15H9C9.552 15 10 14.552 10 14V6C10 5.448 9.552 5 9 5Z" fill="white"/>
<path d="M19 15C21.757 15 24 12.757 24 10C24 7.243 21.757 5 19 5C16.243 5 14 7.243 14 10C14 12.757 16.243 15 19 15Z" fill="white"/>
<path d="M5.8945 19.5525C5.725 19.214 5.3785 19 5 19C4.6215 19 4.275 19.214 4.1055 19.5525L0.105502 27.5525C-0.0494976 27.8625 -0.0329976 28.2305 0.149502 28.5255C0.331502 28.8205 0.653502 29 1 29H9C9.3465 29 9.6685 28.8205 9.8505 28.526C10.033 28.231 10.049 27.863 9.8945 27.553L5.8945 19.5525Z" fill="white"/>
<path fill-rule="evenodd" clip-rule="evenodd" d="M20.0616 29H21C22.6545 29 24 27.6545 24 26V25.0616L20.0616 29ZM24 22.2331L17.2331 29H17C16.4445 29 15.9239 28.8483 15.4773 28.5843L23.5843 20.4773C23.8483 20.9239 24 21.4445 24 22V22.2331ZM14.1878 27.0454L22.0454 19.1878C21.7197 19.0664 21.3675 19 21 19H20.5616L14 25.5616V26C14 26.3675 14.0664 26.7197 14.1878 27.0454ZM17.7331 19L14 22.7331V22C14 20.3455 15.3455 19 17 19H17.7331Z" fill="white"/>
<path fill-rule="evenodd" clip-rule="evenodd" d="M47.936 30L46.176 25.072H37.92L36.128 30H32.064L40.48 7.72801H43.616L52.032 30H47.936ZM43.552 17.264L42.08 12.688H41.984L40.544 17.168L39.04 21.776H45.024L43.552 17.264ZM61.628 30V28.528L61.564 28.464C61.0093 29.0827 60.38 29.52 59.676 29.776C58.972 30.032 58.2787 30.16 57.596 30.16C56.3373 30.16 55.3347 29.9147 54.588 29.424C53.8413 28.9333 53.276 28.2987 52.892 27.52C52.508 26.7413 52.2573 25.8613 52.14 24.88C52.0227 23.8987 51.964 22.928 51.964 21.968C51.964 21.072 52.0493 20.1493 52.22 19.2C52.3907 18.2507 52.7 17.3867 53.148 16.608C53.596 15.8293 54.2093 15.1947 54.988 14.704C55.7667 14.2133 56.764 13.968 57.98 13.968C58.6627 13.968 59.3293 14.096 59.98 14.352C60.6307 14.608 61.1587 14.992 61.564 15.504L61.628 15.472V6.76801H65.244V30H61.628ZM61.628 22.064C61.628 21.5733 61.6013 21.056 61.548 20.512C61.4947 19.968 61.3667 19.4667 61.164 19.008C60.9613 18.5493 60.668 18.1707 60.284 17.872C59.9 17.5733 59.3773 17.424 58.716 17.424C58.012 17.424 57.4627 17.5787 57.068 17.888C56.6733 18.1973 56.3693 18.5867 56.156 19.056C55.9427 19.5253 55.8093 20.048 55.756 20.624C55.7027 21.2 55.676 21.7547 55.676 22.288C55.676 22.7787 55.7027 23.2907 55.756 23.824C55.8093 24.3573 55.9427 24.8427 56.156 25.28C56.3693 25.7173 56.668 26.0747 57.052 26.352C57.436 26.6293 57.9693 26.768 58.652 26.768C59.3133 26.768 59.8413 26.6133 60.236 26.304C60.6307 25.9947 60.9347 25.6053 61.148 25.136C61.3613 24.6667 61.4947 24.16 61.548 23.616C61.6013 23.072 61.628 22.5547 61.628 22.064ZM76.408 30V28.528L76.344 28.464C75.7893 29.0827 75.16 29.52 74.456 29.776C73.752 30.032 73.0587 30.16 72.376 30.16C71.1173 30.16 70.1147 29.9147 69.368 29.424C68.6213 28.9333 68.056 28.2987 67.672 27.52C67.288 26.7413 67.0373 25.8613 66.92 24.88C66.8027 23.8987 66.744 22.928 66.744 21.968C66.744 21.072 66.8293 20.1493 67 19.2C67.1707 18.2507 67.48 17.3867 67.928 16.608C68.376 15.8293 68.9893 15.1947 69.768 14.704C70.5467 14.2133 71.544 13.968 72.76 13.968C73.4427 13.968 74.1093 14.096 74.76 14.352C75.4107 14.608 75.9387 14.992 76.344 15.504L76.408 15.472V6.76801H80.024V30H76.408ZM76.408 22.064C76.408 21.5733 76.3813 21.056 76.328 20.512C76.2747 19.968 76.1467 19.4667 75.944 19.008C75.7413 18.5493 75.448 18.1707 75.064 17.872C74.68 17.5733 74.1573 17.424 73.496 17.424C72.792 17.424 72.2427 17.5787 71.848 17.888C71.4533 18.1973 71.1493 18.5867 70.936 19.056C70.7227 19.5253 70.5893 20.048 70.536 20.624C70.4827 21.2 70.456 21.7547 70.456 22.288C70.456 22.7787 70.4827 23.2907 70.536 23.824C70.5893 24.3573 70.7227 24.8427 70.936 25.28C71.1493 25.7173 71.448 26.0747 71.832 26.352C72.216 26.6293 72.7493 26.768 73.432 26.768C74.0933 26.768 74.6213 26.6133 75.016 26.304C75.4107 25.9947 75.7147 25.6053 75.928 25.136C76.1413 24.6667 76.2747 24.16 76.328 23.616C76.3813 23.072 76.408 22.5547 76.408 22.064ZM93.844 25.168C93.844 25.9573 93.6733 26.6613 93.332 27.28C92.9907 27.8987 92.5267 28.4267 91.94 28.864C91.3533 29.3013 90.6707 29.632 89.892 29.856C89.1133 30.08 88.276 30.192 87.38 30.192C86.2067 30.192 85.0387 30.032 83.876 29.712C82.7133 29.392 81.588 28.752 80.5 27.792L82.452 25.2C83.1987 25.8827 83.9933 26.368 84.836 26.656C85.6787 26.944 86.58 27.088 87.54 27.088C88.308 27.088 88.9587 26.928 89.492 26.608C90.0253 26.288 90.292 25.84 90.292 25.264C90.292 24.7093 90.068 24.2987 89.62 24.032C89.172 23.7653 88.4573 23.5787 87.476 23.472C86.772 23.3867 86.0627 23.28 85.348 23.152C84.6333 23.024 83.988 22.8 83.412 22.48C82.836 22.16 82.3667 21.7227 82.004 21.168C81.6413 20.6133 81.46 19.8773 81.46 18.96C81.46 18.1493 81.62 17.4347 81.94 16.816C82.26 16.1973 82.6867 15.68 83.22 15.264C83.7533 14.848 84.3773 14.5333 85.092 14.32C85.8067 14.1067 86.5693 14 87.38 14C88.596 14 89.6947 14.1333 90.676 14.4C91.6573 14.6667 92.5853 15.1307 93.46 15.792L91.732 18.544C90.9853 18.0533 90.244 17.7013 89.508 17.488C88.772 17.2747 88.084 17.168 87.444 17.168C86.5907 17.168 85.9507 17.3333 85.524 17.664C85.0973 17.9947 84.884 18.3947 84.884 18.864C84.884 19.3973 85.1827 19.7813 85.78 20.016C86.3773 20.2507 87.3373 20.4427 88.66 20.592C89.3 20.656 89.9347 20.7787 90.564 20.96C91.1933 21.1413 91.748 21.4027 92.228 21.744C92.708 22.0853 93.0973 22.5333 93.396 23.088C93.6947 23.6427 93.844 24.336 93.844 25.168ZM100.048 30C98.8747 30 97.904 29.6587 97.136 28.976C96.368 28.2933 95.984 27.312 95.984 26.032V17.072H94.16V14.128H96.016V10H99.536V14.128H101.968V17.072H99.568V25.04C99.568 25.5947 99.6747 26.032 99.888 26.352C100.101 26.672 100.485 26.832 101.04 26.832H102.224V30H100.048ZM110.156 17.36C109.281 17.36 108.567 17.6267 108.012 18.16C107.457 18.6933 107.18 19.472 107.18 20.496V30.032H103.564V14.16H107.116V16.048H107.244C108.204 14.6827 109.484 14 111.084 14C111.681 14 112.225 14.064 112.716 14.192C113.207 14.32 113.665 14.5333 114.092 14.832L112.748 18.096C112.3 17.8187 111.863 17.6267 111.436 17.52C111.009 17.4133 110.583 17.36 110.156 17.36ZM119.432 14C120.328 14 121.171 14.08 121.96 14.24C122.749 14.4 123.443 14.6827 124.04 15.088C124.637 15.4933 125.112 16.032 125.464 16.704C125.816 17.376 125.992 18.224 125.992 19.248V30H122.376V28.592L122.312 28.56C121.885 29.1147 121.293 29.52 120.536 29.776C119.779 30.032 118.995 30.16 118.184 30.16C116.499 30.16 115.165 29.7493 114.184 28.928C113.203 28.1067 112.712 26.928 112.712 25.392C112.712 24.752 112.829 24.144 113.064 23.568C113.299 22.992 113.64 22.4853 114.088 22.048C114.536 21.6107 115.096 21.264 115.768 21.008C116.44 20.752 117.213 20.624 118.088 20.624H122.376V19.472C122.376 19.1733 122.328 18.8853 122.232 18.608C122.136 18.3307 121.971 18.0907 121.736 17.888C121.501 17.6853 121.181 17.52 120.776 17.392C120.371 17.264 119.859 17.2 119.24 17.2C118.365 17.2 117.629 17.312 117.032 17.536C116.435 17.76 115.912 18.0853 115.464 18.512L113.544 16.08C114.312 15.312 115.208 14.7733 116.232 14.464C117.256 14.1547 118.323 14 119.432 14ZM116.136 25.136C116.136 25.3707 116.184 25.6053 116.28 25.84C116.376 26.0747 116.536 26.2827 116.76 26.464C116.984 26.6453 117.272 26.7947 117.624 26.912C117.976 27.0293 118.419 27.088 118.952 27.088C119.357 27.088 119.752 27.0507 120.136 26.976C120.52 26.9013 120.867 26.7787 121.176 26.608C121.485 26.4373 121.747 26.2133 121.96 25.936C122.173 25.6587 122.301 25.3067 122.344 24.88C122.365 24.752 122.376 24.592 122.376 24.4V23.376H118.696C117.779 23.376 117.123 23.5467 116.728 23.888C116.333 24.2293 116.136 24.6453 116.136 25.136ZM139.62 27.856C138.852 28.6027 137.999 29.1787 137.06 29.584C136.121 29.9893 135.108 30.192 134.02 30.192C133.06 30.192 132.143 30.0373 131.268 29.728C130.393 29.4187 129.62 28.9387 128.948 28.288C128.276 27.6373 127.743 26.8 127.348 25.776C126.953 24.752 126.756 23.5253 126.756 22.096C126.756 20.6667 126.964 19.44 127.38 18.416C127.796 17.392 128.345 16.5493 129.028 15.888C129.711 15.2267 130.5 14.7467 131.396 14.448C132.292 14.1493 133.209 14 134.148 14C136.26 14 138.063 14.7467 139.556 16.24L137.22 18.768C136.281 17.7867 135.279 17.296 134.212 17.296C132.996 17.296 132.068 17.68 131.428 18.448C130.788 19.216 130.468 20.432 130.468 22.096C130.468 23.7387 130.783 24.944 131.412 25.712C132.041 26.48 132.964 26.864 134.18 26.864C134.713 26.864 135.247 26.7253 135.78 26.448C136.313 26.1707 136.804 25.808 137.252 25.36L139.62 27.856ZM145.408 30C144.235 30 143.264 29.6587 142.496 28.976C141.728 28.2933 141.344 27.312 141.344 26.032V17.072H139.52V14.128H141.376V10H144.896V14.128H147.328V17.072H144.928V25.04C144.928 25.5947 145.035 26.032 145.248 26.352C145.461 26.672 145.845 26.832 146.4 26.832H147.584V30H145.408Z" fill="white"/>
</svg>
