<svg width="20" height="24" viewBox="0 0 20 24" fill="none" xmlns="http://www.w3.org/2000/svg">
<path fill-rule="evenodd" clip-rule="evenodd" d="M2.92786 2.96243C6.83168 -0.987478 13.1683 -0.987478 17.0721 2.96243C20.976 6.91234 20.976 13.3238 17.0721 17.2737L10.7921 23.6565C10.5658 23.8855 10.2829 24 10 24C9.71711 24 9.43423 23.8855 9.20792 23.6565L2.92786 17.3023C-0.975955 13.3524 -0.975955 6.91234 2.92786 2.96243ZM5.25403 9.76801C5.25403 12.4174 7.38153 14.57 10 14.57C12.6185 14.57 14.746 12.4174 14.746 9.76801C14.746 7.11863 12.6185 4.96601 10 4.96601C7.38153 4.96601 5.25403 7.11863 5.25403 9.76801Z" fill="#677897"/>
</svg>
