<?xml version="1.0" encoding="UTF-8"?>
<svg width="1050px" height="182px" viewBox="0 0 1050 182" version="1.1" xmlns="http://www.w3.org/2000/svg" xmlns:xlink="http://www.w3.org/1999/xlink">
    <!-- Generator: sketchtool 59.1 (101010) - https://sketch.com -->
    <title>4EFE4C38-AAA5-4C50-907B-2F725C508C75</title>
    <desc>Created with sketchtool.</desc>
    <g id="Page-1" stroke="none" stroke-width="1" fill="none" fill-rule="evenodd">
        <g id="Landing_Final" transform="translate(-203.000000, -244.000000)">
            <g id="Cityscape" transform="translate(203.000000, 244.000000)">
                <g id="light" transform="translate(159.000000, 138.000000)" fill="#FFFFFF" stroke="#15161A" stroke-width="2">
                    <ellipse id="Oval" cx="6.5" cy="7.04" rx="2.9" ry="2.52"></ellipse>
                    <rect id="Rectangle" x="7.06666667" y="10.68" width="1" height="32.32"></rect>
                    <path d="M3.16244904,1 C3.01418915,1 2.86778424,1.03296657 2.73383337,1.09651308 C2.23485133,1.33323098 2.02224423,1.92963362 2.25896212,2.42861567 L3.28366965,4.58861567 C3.44921622,4.93757435 3.8009211,5.16 4.18715656,5.16 L8.81284344,5.16 C9.1990789,5.16 9.55078378,4.93757435 9.71633035,4.58861567 L10.7410379,2.42861567 C10.8045844,2.2946648 10.837551,2.14825989 10.837551,2 C10.837551,1.44771525 10.3898357,1 9.83755096,1 L3.16244904,1 Z" id="Rectangle" transform="translate(6.500000, 3.080000) scale(1, -1) translate(-6.500000, -3.080000) "></path>
                </g>
                <g id="Skyscraper" transform="translate(523.000000, 24.000000)">
                    <g id="Group-9" transform="translate(12.320000, 0.000000)" fill="#FFFFFF" stroke="#15161A" stroke-width="2">
                        <rect id="Rectangle" x="1" y="1" width="13.8162162" height="9.54748603" rx="2"></rect>
                        <rect id="Rectangle" x="14.9837838" y="5.27684668" width="4" height="5.27063935"></rect>
                        <rect id="Rectangle" x="18.9837838" y="5.27684668" width="4" height="5.27063935"></rect>
                        <rect id="Rectangle" x="22.9837838" y="5.27684668" width="4" height="5.27063935" rx="2"></rect>
                        <ellipse id="Oval" cx="7.90810811" cy="5.98758535" rx="1.4972973" ry="1.56610801"></ellipse>
                    </g>
                    <path d="M1,157 L65,157 L65,14.6592179 C65,12.4500789 63.209139,10.6592179 61,10.6592179 L5,10.6592179 C2.790861,10.6592179 1,12.4500789 1,14.6592179 L1,157 Z" id="Rectangle" stroke="#15161A" stroke-width="2" fill="#FFFFFF"></path>
                    <g id="Group-8" transform="translate(33.500000, 96.500000) scale(-1, 1) translate(-33.500000, -96.500000) translate(10.000000, 90.000000)">
                        <line x1="0.32" y1="11.5" x2="46.134286" y2="11.5" id="Line-7" stroke="#15161A" stroke-width="2" stroke-linecap="round"></line>
                        <rect id="Rectangle" fill="#000000" x="19" y="4" width="5" height="2" rx="1"></rect>
                        <line x1="0.32" y1="1" x2="46.134286" y2="1" id="Line-7" stroke="#15161A" stroke-width="2" stroke-linecap="round"></line>
                        <rect id="Rectangle" stroke="#15161A" stroke-width="2" fill="#FFFFFF" x="3.08421053" y="1" width="12.1726316" height="10.4357542"></rect>
                        <rect id="Rectangle" stroke="#15161A" stroke-width="2" fill="#FFFFFF" x="32.2631579" y="1" width="12.1726316" height="10.4357542"></rect>
                    </g>
                    <g id="Group-8" transform="translate(9.680000, 112.000000)" stroke="#15161A" stroke-width="2">
                        <line x1="0.32" y1="11.5" x2="46.134286" y2="11.5" id="Line-7" stroke-linecap="round"></line>
                        <line x1="0.32" y1="1" x2="46.134286" y2="1" id="Line-7" stroke-linecap="round"></line>
                        <rect id="Rectangle" fill="#FFFFFF" x="3.08421053" y="1" width="12.1726316" height="10.4357542"></rect>
                        <rect id="Rectangle" fill="#FFFFFF" x="32.2631579" y="1" width="12.1726316" height="10.4357542"></rect>
                    </g>
                    <rect id="Rectangle" fill="#000000" x="10" y="127" width="4" height="2" rx="1"></rect>
                    <rect id="Rectangle" fill="#000000" x="42" y="127" width="5" height="2" rx="1"></rect>
                    <rect id="Rectangle" fill="#000000" x="17" y="127" width="22" height="2" rx="1"></rect>
                    <g id="Group-8" transform="translate(10.000000, 67.000000)" stroke="#15161A" stroke-width="2">
                        <line x1="0.32" y1="11.5" x2="46.134286" y2="11.5" id="Line-7" stroke-linecap="round"></line>
                        <line x1="0.32" y1="1" x2="46.134286" y2="1" id="Line-7" stroke-linecap="round"></line>
                        <rect id="Rectangle" fill="#FFFFFF" x="3.08421053" y="1" width="12.1726316" height="10.4357542"></rect>
                        <rect id="Rectangle" fill="#FFFFFF" x="32.2631579" y="1" width="12.1726316" height="10.4357542"></rect>
                    </g>
                    <rect id="Rectangle" fill="#000000" x="20" y="82" width="4" height="2" rx="1"></rect>
                    <rect id="Rectangle" fill="#000000" x="52" y="82" width="5" height="2" rx="1"></rect>
                    <rect id="Rectangle" fill="#000000" x="27" y="82" width="22" height="2" rx="1"></rect>
                    <g id="Group-8" transform="translate(33.500000, 51.500000) scale(-1, 1) translate(-33.500000, -51.500000) translate(10.000000, 45.000000)" stroke="#15161A" stroke-width="2">
                        <line x1="0.32" y1="11.5" x2="46.134286" y2="11.5" id="Line-7" stroke-linecap="round"></line>
                        <line x1="0.32" y1="1" x2="46.134286" y2="1" id="Line-7" stroke-linecap="round"></line>
                        <rect id="Rectangle" fill="#FFFFFF" x="3.08421053" y="1" width="12.1726316" height="10.4357542"></rect>
                        <rect id="Rectangle" fill="#FFFFFF" x="32.2631579" y="1" width="12.1726316" height="10.4357542"></rect>
                    </g>
                    <rect id="Rectangle" fill="#000000" x="10" y="41" width="4" height="2" rx="1"></rect>
                    <rect id="Rectangle" fill="#000000" x="42" y="41" width="5" height="2" rx="1"></rect>
                    <rect id="Rectangle" fill="#000000" x="17" y="41" width="22" height="2" rx="1"></rect>
                    <g id="Group-8" transform="translate(10.000000, 22.000000)">
                        <line x1="0.32" y1="11.5" x2="46.134286" y2="11.5" id="Line-7" stroke="#15161A" stroke-width="2" stroke-linecap="round"></line>
                        <rect id="Rectangle" fill="#000000" x="18" y="7" width="5" height="2" rx="1"></rect>
                        <line x1="0.32" y1="1" x2="46.134286" y2="1" id="Line-7" stroke="#15161A" stroke-width="2" stroke-linecap="round"></line>
                        <rect id="Rectangle" stroke="#15161A" stroke-width="2" fill="#FFFFFF" x="3.08421053" y="1" width="12.1726316" height="10.4357542"></rect>
                        <rect id="Rectangle" stroke="#15161A" stroke-width="2" fill="#FFFFFF" x="32.2631579" y="1" width="12.1726316" height="10.4357542"></rect>
                    </g>
                    <g id="Group-7" transform="translate(9.680000, 136.681564)" stroke="#15161A" stroke-width="2">
                        <g id="Group-6" transform="translate(2.501053, 0.000000)">
                            <rect id="Rectangle" fill="#FFFFFF" x="1" y="1" width="21" height="19.3184358"></rect>
                            <rect id="Rectangle" fill="#FFFFFF" x="21.8421053" y="1" width="19.6757895" height="19.3184358"></rect>
                            <line x1="25.3189474" y1="7.44343575" x2="25.3189474" y2="14.1934358" id="Line-6" stroke-linecap="round"></line>
                            <line x1="18.3189474" y1="7.44343575" x2="18.3189474" y2="14.1934358" id="Line-6" stroke-linecap="round"></line>
                        </g>
                        <line x1="0.505714286" y1="0.918435754" x2="46.3200003" y2="0.918435754" id="Line-7" stroke-linecap="round"></line>
                    </g>
                </g>
                <g id="Hospital" transform="translate(191.000000, 93.000000)">
                    <path d="M67.2,40.6534653 L67.2,88 L90,88 L90,42.6534653 C90,41.5488958 89.1045695,40.6534653 88,40.6534653 L67.2,40.6534653 Z" id="Rectangle" stroke="#15161A" stroke-width="2" fill="#F1F3F8"></path>
                    <path d="M1,88 L23.8,88 L23.8,40.6534653 L4,40.6534653 C2.34314575,40.6534653 1,41.9966111 1,43.6534653 L1,88 Z" id="Rectangle" stroke="#15161A" stroke-width="2" fill="#F1F3F8"></path>
                    <rect id="Rectangle" stroke="#15161A" stroke-width="2" fill="#F1F3F8" x="23.9142857" y="24.7920792" width="43.1714286" height="63.2079208"></rect>
                    <rect id="Rectangle" stroke="#15161A" stroke-width="2" fill="#FFBE51" transform="translate(45.500000, 22.470297) scale(1, -1) translate(-45.500000, -22.470297) " x="20.3714286" y="19.5049505" width="50.2571429" height="5.93069307" rx="2"></rect>
                    <path d="M30,45.2178218 L42,45.2178218 L42,36 C42,34.8954305 41.1045695,34 40,34 L32,34 C30.8954305,34 30,34.8954305 30,36 L30,45.2178218 Z" id="Rectangle" stroke="#15161A" stroke-width="2" fill="#C7F3FF"></path>
                    <line x1="33" y1="41.4142136" x2="34.4142136" y2="40" id="Line-5" stroke="#15161A" stroke-width="2" stroke-linecap="round"></line>
                    <path d="M30,37 L42,37 L42,36 C42,34.8954305 41.1045695,34 40,34 L32,34 C30.8954305,34 30,34.8954305 30,36 L30,37 Z" id="Rectangle" stroke="#15161A" stroke-width="2" fill="#C7F3FF"></path>
                    <path d="M30,63.2178218 L42,63.2178218 L42,54 C42,52.8954305 41.1045695,52 40,52 L32,52 C30.8954305,52 30,52.8954305 30,54 L30,63.2178218 Z" id="Rectangle" stroke="#15161A" stroke-width="2" fill="#C7F3FF"></path>
                    <path d="M30,55 L42,55 L42,54 C42,52.8954305 41.1045695,52 40,52 L32,52 C30.8954305,52 30,52.8954305 30,54 L30,55 Z" id="Rectangle" stroke="#15161A" stroke-width="2" fill="#C7F3FF"></path>
                    <g id="Group-2" transform="translate(32.657143, 68.732673)" stroke="#15161A" stroke-width="2">
                        <rect id="Rectangle" fill="#FFBE51" x="1" y="1" width="12" height="18.2673267"></rect>
                        <rect id="Rectangle" fill="#FFBE51" x="12.6857143" y="1" width="12" height="18.2673267"></rect>
                        <line x1="15.8428571" y1="7.76732673" x2="15.8428571" y2="10.7673267" id="Line-6" stroke-linecap="round"></line>
                        <line x1="9.84285714" y1="7.76732673" x2="9.84285714" y2="10.7673267" id="Line-6" stroke-linecap="round"></line>
                    </g>
                    <path d="M48,44.8217822 L60,44.8217822 L60,35.6039604 C60,34.4993909 59.1045695,33.6039604 58,33.6039604 L50,33.6039604 C48.8954305,33.6039604 48,34.4993909 48,35.6039604 L48,44.8217822 Z" id="Rectangle" stroke="#15161A" stroke-width="2" fill="#C7F3FF"></path>
                    <path d="M48,36.6039604 L60,36.6039604 L60,35.6039604 C60,34.4993909 59.1045695,33.6039604 58,33.6039604 L50,33.6039604 C48.8954305,33.6039604 48,34.4993909 48,35.6039604 L48,36.6039604 Z" id="Rectangle" stroke="#15161A" stroke-width="2" fill="#C7F3FF"></path>
                    <path d="M48,63.3267327 L60,63.3267327 L60,54.1089109 C60,53.0043414 59.1045695,52.1089109 58,52.1089109 L50,52.1089109 C48.8954305,52.1089109 48,53.0043414 48,54.1089109 L48,63.3267327 Z" id="Rectangle" stroke="#15161A" stroke-width="2" fill="#C7F3FF"></path>
                    <line x1="56" y1="60.356" x2="57.4142136" y2="58.9417864" id="Line-5" stroke="#15161A" stroke-width="2" stroke-linecap="round"></line>
                    <path d="M48,55.1089109 L60,55.1089109 L60,54.1089109 C60,53.0043414 59.1045695,52.1089109 58,52.1089109 L50,52.1089109 C48.8954305,52.1089109 48,53.0043414 48,54.1089109 L48,55.1089109 Z" id="Rectangle" stroke="#15161A" stroke-width="2" fill="#C7F3FF"></path>
                    <path d="M72.4,58.039604 L84.5714286,58.039604 L84.5714286,48.8217822 C84.5714286,47.7172127 83.6759981,46.8217822 82.5714286,46.8217822 L74.4,46.8217822 C73.2954305,46.8217822 72.4,47.7172127 72.4,48.8217822 L72.4,58.039604 Z" id="Rectangle" stroke="#15161A" stroke-width="2" fill="#C7F3FF"></path>
                    <path d="M72.4,49.8217822 L84.5714286,49.8217822 L84.5714286,48.8217822 C84.5714286,47.7172127 83.6759981,46.8217822 82.5714286,46.8217822 L74.4,46.8217822 C73.2954305,46.8217822 72.4,47.7172127 72.4,48.8217822 L72.4,49.8217822 Z" id="Rectangle" stroke="#15161A" stroke-width="2" fill="#C7F3FF"></path>
                    <path d="M72.4,77.4257426 L84.5714286,77.4257426 L84.5714286,68.2079208 C84.5714286,67.1033513 83.6759981,66.2079208 82.5714286,66.2079208 L74.4,66.2079208 C73.2954305,66.2079208 72.4,67.1033513 72.4,68.2079208 L72.4,77.4257426 Z" id="Rectangle" stroke="#15161A" stroke-width="2" fill="#C7F3FF"></path>
                    <line x1="78" y1="73.4142136" x2="79.4142136" y2="72" id="Line-5" stroke="#15161A" stroke-width="2" stroke-linecap="round"></line>
                    <path d="M72.4,69.2079208 L84.5714286,69.2079208 L84.5714286,68.2079208 C84.5714286,67.1033513 83.6759981,66.2079208 82.5714286,66.2079208 L74.4,66.2079208 C73.2954305,66.2079208 72.4,67.1033513 72.4,68.2079208 L72.4,69.2079208 Z" id="Rectangle" stroke="#15161A" stroke-width="2" fill="#C7F3FF"></path>
                    <path d="M6.31428571,58.039604 L18.4857143,58.039604 L18.4857143,48.8217822 C18.4857143,47.7172127 17.5902838,46.8217822 16.4857143,46.8217822 L8.31428571,46.8217822 C7.20971621,46.8217822 6.31428571,47.7172127 6.31428571,48.8217822 L6.31428571,58.039604 Z" id="Rectangle" stroke="#15161A" stroke-width="2" fill="#C7F3FF"></path>
                    <line x1="11" y1="54.4142136" x2="12.4142136" y2="53" id="Line-5" stroke="#15161A" stroke-width="2" stroke-linecap="round"></line>
                    <path d="M6.31428571,49.8217822 L18.4857143,49.8217822 L18.4857143,48.8217822 C18.4857143,47.7172127 17.5902838,46.8217822 16.4857143,46.8217822 L8.31428571,46.8217822 C7.20971621,46.8217822 6.31428571,47.7172127 6.31428571,48.8217822 L6.31428571,49.8217822 Z" id="Rectangle" stroke="#15161A" stroke-width="2" fill="#C7F3FF"></path>
                    <path d="M6.31428571,77.4257426 L18.4857143,77.4257426 L18.4857143,68.2079208 C18.4857143,67.1033513 17.5902838,66.2079208 16.4857143,66.2079208 L8.31428571,66.2079208 C7.20971621,66.2079208 6.31428571,67.1033513 6.31428571,68.2079208 L6.31428571,77.4257426 Z" id="Rectangle" stroke="#15161A" stroke-width="2" fill="#C7F3FF"></path>
                    <path d="M6.31428571,69.2079208 L18.4857143,69.2079208 L18.4857143,68.2079208 C18.4857143,67.1033513 17.5902838,66.2079208 16.4857143,66.2079208 L8.31428571,66.2079208 C7.20971621,66.2079208 6.31428571,67.1033513 6.31428571,68.2079208 L6.31428571,69.2079208 Z" id="Rectangle" stroke="#15161A" stroke-width="2" fill="#C7F3FF"></path>
                    <circle id="Oval" stroke="#15161A" stroke-width="2" fill="#ED6638" cx="46" cy="14" r="13"></circle>
                    <path d="M48.6666667,6 L48.666,11.333 L54,11.3333333 L54,16.6666667 L48.666,16.666 L48.6666667,22 L43.3333333,22 L43.333,16.666 L38,16.6666667 L38,11.3333333 L43.333,11.333 L43.3333333,6 L48.6666667,6 Z" id="Combined-Shape" fill="#FFFFFF"></path>
                    <path d="M5.9490656,88 L18.622363,88 C20.1548844,86.3918779 21.0285714,84.2595251 21.0285714,81.9860448 C21.0285714,77.1656893 17.1145881,73.2574257 12.2857143,73.2574257 C7.4568405,73.2574257 3.54285714,77.1656893 3.54285714,81.9860448 C3.54285714,84.2595251 4.4165442,86.3918779 5.9490656,88 Z" id="Path" stroke="#15161A" stroke-width="2" fill="#8BEDAF"></path>
                    <path d="M14.7218205,88 L25.7924652,88 C26.7167017,86.7949056 27.2285714,85.3174138 27.2285714,83.7583181 C27.2285714,79.9053702 24.1072242,76.7821782 20.2571429,76.7821782 C16.4070615,76.7821782 13.2857143,79.9053702 13.2857143,83.7583181 C13.2857143,85.3174138 13.797584,86.7949056 14.7218205,88 Z" id="Path" stroke="#15161A" stroke-width="2" fill="#8BEDAF"></path>
                    <line x1="31.1857143" y1="69.5" x2="59.1857143" y2="69.5" id="Line-7" stroke="#15161A" stroke-width="2" stroke-linecap="round"></line>
                </g>
                <g id="government" transform="translate(773.000000, 89.000000)">
                    <g id="Group-4">
                        <rect id="Rectangle-2" stroke="#15161A" stroke-width="2" fill="#FFFFFF" x="7" y="42" width="80" height="43"></rect>
                        <g id="Group-3" transform="translate(28.206612, 64.443983)" stroke="#15161A" stroke-width="2">
                            <rect id="Rectangle" fill="#FFFFFF" x="3.79338843" y="1.22406639" width="14" height="19"></rect>
                            <rect id="Rectangle" fill="#FFFFFF" x="17.7933884" y="1.22406639" width="14" height="19"></rect>
                            <line x1="0.79338843" y1="1.0560166" x2="33.7933884" y2="1.0560166" id="Line-7" stroke-linecap="round"></line>
                            <line x1="14.2933884" y1="9.0560166" x2="14.2933884" y2="12.0560166" id="Line-6" stroke-linecap="round"></line>
                            <line x1="21.2933884" y1="9.0560166" x2="21.2933884" y2="12.0560166" id="Line-6" stroke-linecap="round"></line>
                        </g>
                        <rect id="Rectangle" stroke="#15161A" stroke-width="2" fill="#FFFFFF" x="15.4855372" y="42" width="10" height="43"></rect>
                        <rect id="Rectangle" stroke="#15161A" stroke-width="2" fill="#FFFFFF" x="15.4855372" y="42" width="5" height="43"></rect>
                        <rect id="Rectangle" stroke="#15161A" stroke-width="2" fill="#FFFFFF" x="68.4855372" y="42" width="10" height="43"></rect>
                        <rect id="Rectangle" stroke="#15161A" stroke-width="2" fill="#FFFFFF" x="68.4855372" y="42" width="5" height="43"></rect>
                        <rect id="Rectangle" stroke="#15161A" stroke-width="2" fill="#FFFFFF" transform="translate(47.000000, 10.804979) scale(1, -1) translate(-47.000000, -10.804979) " x="47" y="1" width="1" height="19.6099585"></rect>
                        <rect id="Rectangle" stroke="#15161A" stroke-width="2" fill="#FFFFFF" x="42" y="18" width="10" height="14.2074689" rx="2"></rect>
                        <path d="M47.3688566,23.1820656 C47.1513788,23.1043342 46.9136996,23.1042754 46.6961835,23.1818991 L16.2188193,34.0581749 C15.8207058,34.2002474 15.5549228,34.5772957 15.5549228,35 C15.5549228,35.5522847 16.0026381,36 16.5549228,36 L77.4620674,36 C77.8845902,36 78.2615177,35.7344418 78.403726,35.3365696 C78.5896083,34.8165059 78.3187007,34.2442237 77.798637,34.0583414 L47.3688566,23.1820656 Z" id="Rectangle" stroke="#15161A" stroke-width="2" fill="#FFFFFF"></path>
                        <rect id="Rectangle" stroke="#15161A" stroke-width="2" fill="#FFFFFF" transform="translate(47.000000, 38.166667) scale(1, -1) translate(-47.000000, -38.166667) " x="2" y="34" width="90" height="8.33333333" rx="2"></rect>
                        <path d="M2.58387511,85 C2.49929953,85 2.4150656,85.0107294 2.33319062,85.0319312 C1.79854096,85.1703804 1.47735704,85.7160348 1.61580627,86.2506845 L2.91057211,91.2506845 C3.02481782,91.6918674 3.42290588,92 3.87864095,92 L90.1213591,92 C90.5770941,92 90.9751822,91.6918674 91.0894279,91.2506845 L92.3841937,86.2506845 C92.4053955,86.1688095 92.4161249,86.0845756 92.4161249,86 C92.4161249,85.4477153 91.9684096,85 91.4161249,85 L2.58387511,85 Z" id="Rectangle" stroke="#15161A" stroke-width="2" fill="#FFFFFF" transform="translate(47.000000, 88.500000) scale(1, -1) translate(-47.000000, -88.500000) "></path>
                        <circle id="Oval" stroke="#15161A" stroke-width="2" fill="#FFFFFF" cx="46" cy="53" r="5"></circle>
                        <rect id="Rectangle" fill="#000000" x="45" y="48" width="2" height="6"></rect>
                        <rect id="Rectangle" fill="#000000" transform="translate(48.453154, 54.211309) rotate(115.000000) translate(-48.453154, -54.211309) " x="47.4531539" y="51.7113091" width="2" height="5"></rect>
                    </g>
                    <rect id="Rectangle" stroke="#15161A" stroke-width="2" fill="#FFFFFF" x="47" y="2.77142857" width="10.4" height="5.97142857" rx="1"></rect>
                </g>
                <g id="Cloud2" transform="translate(392.000000, 0.000000)">
                    <rect id="Rectangle" fill="#000000" x="0" y="12.25" width="47" height="1.75"></rect>
                    <path d="M4.20192084,13.0000701 L43.5824681,13.0000701 C43.0644959,6.2901055 37.3775043,1 30.4322388,1 C25.2293874,1 20.5812407,3.99594651 18.4458591,8.57100503 L18.009542,9.50581509 L17.0887637,9.04061661 C15.7414533,8.35992433 14.2462322,8 12.6963898,8 C9.08292768,8 5.85271083,9.97629498 4.20192084,13.0000701 Z" id="Path" stroke="#15161A" stroke-width="2" fill="#FFFFFF"></path>
                </g>
                <g id="Cloud4" transform="translate(303.000000, 52.000000)">
                    <path d="M4.01270517,16.999991 L46.5432597,16.9996048 C45.3610456,14.5706276 43.0252111,12.7628989 40.2206913,12.2097004 L39.5120584,12.0699208 L39.4220157,11.3532681 C38.6842451,5.48132931 33.4540468,1 27.2003945,1 C21.481504,1 16.5619107,4.75904826 15.2369497,9.98941581 L14.9720404,11.0351624 L13.9493427,10.6918662 C13.1604172,10.4270421 12.3257788,10.290063 11.4701381,10.290063 C7.48350316,10.290063 4.23981578,13.2660822 4.01270517,16.999991 Z" id="Path" stroke="#15161A" stroke-width="2" fill="#FFFFFF"></path>
                    <rect id="Rectangle" fill="#000000" x="0" y="16" width="50" height="2"></rect>
                </g>
                <g id="Group-5" transform="translate(863.000000, 53.000000)">
                    <path d="M3.13933491,15 L38.979897,15 C38.9932697,14.8264509 39,14.6516784 39,14.4759366 C39,11.0981835 36.4936974,8.27515633 33.2177823,7.89933917 L32.5284801,7.82026155 L32.3612408,7.14689552 C31.4698702,3.55791328 28.2724561,1 24.5742574,1 C23.260671,1 21.9945867,1.31940174 20.8577977,1.92280997 L20.3829741,2.17484658 L19.910831,1.91782376 C18.8091201,1.3180801 17.5767787,1 16.2970297,1 C12.6723667,1 9.56252834,3.57681579 8.81299757,7.12870108 L8.66815109,7.81510129 L7.97343332,7.91253311 C5.14047725,8.30984564 3,10.7785244 3,13.7140452 C3,14.1515657 3.04712414,14.5819673 3.13933491,15 Z" id="Path" stroke="#15161A" stroke-width="2" fill="#FFFFFF"></path>
                    <rect id="Rectangle" fill="#000000" x="0" y="14" width="42" height="2"></rect>
                </g>
                <g id="Cloud-1" transform="translate(736.000000, 33.000000)">
                    <path d="M3.1765703,20 L46.6479747,20 C46.156927,19.1714757 45.2239314,18.6125407 44.1562104,18.6125407 C44.0505744,18.6125407 43.9473767,18.6179649 43.8469007,18.6287427 L42.8765143,18.7328337 L42.748839,17.7652678 C42.3049682,14.4014675 39.312124,11.8384866 35.7354864,11.8384866 C34.2149953,11.8384866 32.7704486,12.2995654 31.571377,13.141484 L30.2620454,14.0608207 L30.0092968,12.4810589 C28.9593829,5.91875167 23.0680832,1 16.0871305,1 C8.29928421,1 2,7.08095344 2,14.5642163 C2,16.4621655 2.40460514,18.3030483 3.1765703,20 Z" id="Path" stroke="#15161A" stroke-width="2" fill="#FFFFFF"></path>
                    <rect id="Rectangle" fill="#000000" x="0" y="19" width="49" height="2"></rect>
                </g>
                <path d="M142.147623,28 L186.416772,28 C188.009672,26.9819904 189,25.2213039 189,23.2872334 C189,20.1996997 186.49525,17.6965069 183.405172,17.6965069 C182.988528,17.6965069 182.579848,17.7418426 182.183913,17.830945 L180.791013,18.1444078 L180.97247,16.7282496 C181.048054,16.1383712 181.086207,15.5411753 181.086207,14.9389799 C181.086207,7.24083317 174.84149,1 167.137931,1 C160.511359,1 154.83711,5.65399124 153.490027,12.0504923 L153.267649,13.1064343 L152.231657,12.8044641 C151.368937,12.5529992 150.469492,12.4239258 149.551724,12.4239258 C144.276313,12.4239258 140,16.6975798 140,21.9690881 C140,24.2016915 140.768784,26.3124653 142.147623,28 Z" id="Path" stroke="#15161A" stroke-width="2" fill="#FFFFFF"></path>
                <g id="Plant" transform="translate(874.000000, 149.000000)" fill="#FFFFFF" stroke="#15161A" stroke-width="2">
                    <ellipse id="Oval" cx="7" cy="7.13513514" rx="6" ry="6.13513514"></ellipse>
                    <rect id="Rectangle" x="7.125" y="13.4864865" width="1" height="9.59459459"></rect>
                    <path d="M12.9824906,21.1891892 L1.0175094,21.1891892 C1.01472453,21.4411499 1.01200426,21.73255 1.00968351,22.0446713 C1.00447203,22.7455704 1,23.6832477 1,23.8903751 L1,27.3938679 C1,29.3211973 2.03479268,31.0634452 3.66642436,32 L10.3335756,32 C11.9652073,31.0634452 13,29.3211973 13,27.3938679 L13,23.8903751 C13,23.6832477 12.995528,22.7455704 12.9903165,22.0446713 C12.9879957,21.73255 12.9852755,21.4411499 12.9824906,21.1891892 Z" id="Path"></path>
                </g>
                <g id="Plant" transform="translate(752.000000, 149.000000)" fill="#FFFFFF" stroke="#15161A" stroke-width="2">
                    <ellipse id="Oval" cx="7" cy="7.13513514" rx="6" ry="6.13513514"></ellipse>
                    <rect id="Rectangle" x="7.125" y="13.4864865" width="1" height="9.59459459"></rect>
                    <path d="M12.9936147,21.1891892 L1.0175094,21.1891892 C1.01472453,21.4411499 1.01200426,21.73255 1.00968351,22.0446713 C1.00447203,22.7455704 1,23.6832477 1,23.8903751 L1,27.3938679 C1,29.3211973 2.03479268,31.0634452 3.66642436,32 L10.3335756,32 C11.9652073,31.0634452 13,29.3211973 13,27.3938679 L13,23.8903751 C13,22.5448372 12.9982361,21.7140199 12.9936147,21.1891892 Z" id="Path"></path>
                </g>
                <g id="Tree-1" transform="translate(444.000000, 89.000000)" stroke="#15161A" stroke-width="2">
                    <path d="M18.6170213,1 C12.1859003,1 6.95744681,6.42170858 6.95744681,13.1275 C6.95744681,15.2065022 7.46024941,17.2069353 8.40497223,18.983575 L8.81462793,19.7539708 L8.10684918,20.2642421 C3.69040459,23.4482668 1,28.6676483 1,34.3631618 C1,43.8410571 8.39558584,51.51 17.5,51.51 C26.6044142,51.51 34,43.8410571 34,34.3631618 C34,29.3256077 31.8990389,24.6464453 28.3112785,21.4107167 L27.664767,20.8276411 L28.1532738,20.1070056 C29.5273594,18.0799823 30.2765957,15.6638328 30.2765957,13.1275 C30.2765957,6.42170858 25.0481422,1 18.6170213,1 Z" id="Path" fill="#FFFFFF"></path>
                    <line x1="17.5" y1="44.5" x2="24.5" y2="38.5" id="Line-2" stroke-linecap="round"></line>
                    <line x1="17.5" y1="15.5" x2="17.5" y2="91.5" id="Line-3" stroke-linecap="round"></line>
                    <line x1="11.25" y1="37.25" x2="17.75" y2="31.75" id="Line-2" stroke-linecap="round" transform="translate(14.250000, 34.750000) scale(-1, 1) translate(-14.250000, -34.750000) "></line>
                    <line x1="17.5" y1="24.5" x2="21" y2="21" id="Line-2" stroke-linecap="round"></line>
                </g>
                <g id="Tree" transform="translate(476.000000, 133.000000)" stroke="#15161A" stroke-width="2">
                    <path d="M15,1 C10.4058588,1 6.68965517,4.64199372 6.68965517,9.12442396 C6.68965517,9.51493328 6.71776208,9.90171519 6.77335449,10.2829281 L6.90200144,11.1650967 L6.04032969,11.3937741 C3.06447699,12.1835296 1,14.6646871 1,17.4884793 C1,19.4379395 1.97833654,21.2480268 3.63958789,22.4503672 L4.20716082,22.8611514 L4.01488916,23.534883 C3.73145804,24.5280429 3.5862069,25.5605259 3.5862069,26.6129032 C3.5862069,32.9150735 8.80766007,38.0322581 15.2586207,38.0322581 C21.7095813,38.0322581 26.9310345,32.9150735 26.9310345,26.6129032 C26.9310345,26.168909 26.9051829,25.7288353 26.8538998,25.2945229 L26.7969075,24.8118603 L27.1412121,24.4688359 C28.3261631,23.2882912 29,21.7083953 29,20.0230415 C29,16.8514942 26.6031601,14.1724204 23.4130273,13.7353819 L22.0977575,13.555194 L22.6339515,12.3407401 C23.0782554,11.3344128 23.3103448,10.2461869 23.3103448,9.12442396 C23.3103448,4.64199372 19.5941412,1 15,1 Z" id="Path" fill="#FFFFFF"></path>
                    <line x1="15.75" y1="31.5" x2="20" y2="27" id="Line-2" stroke-linecap="round"></line>
                    <line x1="15" y1="13" x2="15" y2="47" id="Line-3" stroke-linecap="round"></line>
                    <line x1="8.5" y1="24.25" x2="15" y2="18.75" id="Line-2" stroke-linecap="round" transform="translate(11.500000, 21.750000) scale(-1, 1) translate(-11.500000, -21.750000) "></line>
                </g>
                <g id="Tree" transform="translate(600.000000, 139.000000)" stroke="#15161A" stroke-width="2">
                    <path d="M11,1 C7.6862915,1 5,3.6862915 5,7 C5,7.34100855 5.02834616,7.67910748 5.0841027,8.01145593 L5.18334994,8.60303974 L4.70814892,8.96910724 C2.38623019,10.7577797 1,13.5132293 1,16.5 C1,20.2393481 3.17973872,23.5825012 6.5134105,25.1241549 L7.22615537,25.4537631 L7.07496027,26.2243388 C7.02526439,26.4776172 7,26.7369048 7,27 C7,29.209139 8.790861,31 11,31 C13.209139,31 15,29.209139 15,27 L15,26 L16,26 C18.209139,26 20,24.209139 20,22 C20,21.3730449 19.8563572,20.7688256 19.5837442,20.2209943 L19.4009482,19.8536554 L19.5288394,19.4637887 C19.8397314,18.5160574 20,17.5195143 20,16.5 C20,13.8636753 18.9221186,11.4018852 17.0506812,9.62031389 L16.6147125,9.20528033 L16.7774022,8.62575154 C16.9245503,8.10158483 17,7.5563152 17,7 C17,3.6862915 14.3137085,1 11,1 Z" id="Combined-Shape" fill="#FFFFFF"></path>
                    <line x1="11.75" y1="25.5" x2="15" y2="22" id="Line-2" stroke-linecap="round"></line>
                    <line x1="11" y1="7" x2="11" y2="41" id="Line-3" stroke-linecap="round"></line>
                    <line x1="7.5" y1="18.25" x2="11" y2="15" id="Line-2" stroke-linecap="round" transform="translate(9.000000, 16.750000) scale(-1, 1) translate(-9.000000, -16.750000) "></line>
                </g>
                <g id="townhouse" transform="translate(43.000000, 71.000000)">
                    <g id="Group-11">
                        <path d="M1,110 L47,110 L47,16 C47,14.3431458 45.6568542,13 44,13 L4,13 C2.34314575,13 1,14.3431458 1,16 L1,110 Z" id="Rectangle" stroke="#15161A" stroke-width="2" fill="#FFFFFF"></path>
                        <rect id="Rectangle" stroke="#15161A" stroke-width="2" fill="#FFFFFF" transform="translate(36.000000, 6.660000) scale(1, -1) translate(-36.000000, -6.660000) " x="33.8888889" y="1" width="4.22222222" height="11.32" rx="2"></rect>
                        <g id="Group-10" transform="translate(6.222222, 78.144000)">
                            <path d="M1,20.0706957 L11.8843996,20.0706957 L11.8843996,2 C11.8843996,1.44771525 11.4366843,1 10.8843996,1 L2,1 C1.44771525,1 1,1.44771525 1,2 L1,20.0706957 Z" id="Rectangle" stroke="#15161A" stroke-width="2" fill="#FFFFFF"></path>
                            <line x1="5.55555556" y1="12.712" x2="8.55555556" y2="9.712" id="Line-5" stroke="#15161A" stroke-width="2" stroke-linecap="round"></line>
                            <line x1="6.55555556" y1="15.712" x2="7.96976912" y2="14.2977864" id="Line-5" stroke="#15161A" stroke-width="2" stroke-linecap="round"></line>
                            <path d="M21.6150393,20.0706957 L32.4994388,20.0706957 L32.4994388,2 C32.4994388,1.44771525 32.0517236,1 31.4994388,1 L22.6150393,1 C22.0627545,1 21.6150393,1.44771525 21.6150393,2 L21.6150393,20.0706957 Z" id="Rectangle" stroke="#15161A" stroke-width="2" fill="#FFFFFF"></path>
                            <rect id="Rectangle" stroke="#15161A" stroke-width="2" fill="#FFFFFF" x="24.5600449" y="4.92843478" width="4.99438833" height="4.07121739" rx="2"></rect>
                            <path d="M21.4265674,19.856 L18.9022769,31.856 L35.2122012,31.856 L32.6879107,19.856 L21.4265674,19.856 Z" id="Rectangle" stroke="#15161A" stroke-width="2" fill="#FFFFFF"></path>
                            <rect id="Rectangle" fill="#000000" x="19.8787879" y="23.9991304" width="14.3569024" height="2"></rect>
                            <rect id="Rectangle" fill="#000000" x="19.1425365" y="27.7133913" width="15.8294052" height="2"></rect>
                            <path d="M1,5.07121739 L11.8843996,5.07121739 L11.8843996,2 C11.8843996,1.44771525 11.4366843,1 10.8843996,1 L2,1 C1.44771525,1 1,1.44771525 1,2 L1,5.07121739 Z" id="Rectangle" stroke="#15161A" stroke-width="2" fill="#FFFFFF"></path>
                        </g>
                        <g id="Group-10" transform="translate(7.111111, 47.952000)" stroke="#15161A" stroke-width="2">
                            <path d="M1,20.312 L11.4444444,20.312 L11.4444444,2 C11.4444444,1.44771525 10.9967292,1 10.4444444,1 L2,1 C1.44771525,1 1,1.44771525 1,2 L1,20.312 Z" id="Rectangle" fill="#FFFFFF"></path>
                            <line x1="5.16666667" y1="15.404" x2="8.16666667" y2="12.404" id="Line-5" stroke-linecap="round"></line>
                            <line x1="6.16666667" y1="10.404" x2="7.58088023" y2="8.98978644" id="Line-5" stroke-linecap="round"></line>
                            <path d="M1,5.14074576 L11.4444444,5.14074576 L11.4444444,2 C11.4444444,1.44771525 10.9967292,1 10.4444444,1 L2,1 C1.44771525,1 1,1.44771525 1,2 L1,5.14074576 Z" id="Rectangle" fill="#FFFFFF"></path>
                        </g>
                        <g id="Group-10" transform="translate(7.111111, 18.648000)" stroke="#15161A" stroke-width="2">
                            <path d="M1,20.312 L11.4444444,20.312 L11.4444444,2 C11.4444444,1.44771525 10.9967292,1 10.4444444,1 L2,1 C1.44771525,1 1,1.44771525 1,2 L1,20.312 Z" id="Rectangle" fill="#FFFFFF"></path>
                            <line x1="5.16666667" y1="11.708" x2="8.16666667" y2="8.708" id="Line-5" stroke-linecap="round"></line>
                            <line x1="6.16666667" y1="14.708" x2="7.58088023" y2="13.2937864" id="Line-5" stroke-linecap="round"></line>
                            <path d="M1,5.14074576 L11.4444444,5.14074576 L11.4444444,2 C11.4444444,1.44771525 10.9967292,1 10.4444444,1 L2,1 C1.44771525,1 1,1.44771525 1,2 L1,5.14074576 Z" id="Rectangle" fill="#FFFFFF"></path>
                        </g>
                        <g id="Group-10" transform="translate(28.444444, 47.952000)" stroke="#15161A" stroke-width="2">
                            <path d="M1,20.312 L11.4444444,20.312 L11.4444444,2 C11.4444444,1.44771525 10.9967292,1 10.4444444,1 L2,1 C1.44771525,1 1,1.44771525 1,2 L1,20.312 Z" id="Rectangle" fill="#FFFFFF"></path>
                            <line x1="4.83333333" y1="11.404" x2="7.83333333" y2="8.404" id="Line-5" stroke-linecap="round"></line>
                            <line x1="5.83333333" y1="16.404" x2="7.2475469" y2="14.9897864" id="Line-5" stroke-linecap="round"></line>
                            <path d="M1,5.14074576 L11.4444444,5.14074576 L11.4444444,2 C11.4444444,1.44771525 10.9967292,1 10.4444444,1 L2,1 C1.44771525,1 1,1.44771525 1,2 L1,5.14074576 Z" id="Rectangle" fill="#FFFFFF"></path>
                        </g>
                        <g id="Group-10" transform="translate(28.444444, 18.648000)" fill="#FFFFFF" stroke="#15161A" stroke-width="2">
                            <path d="M1,20.312 L11.4444444,20.312 L11.4444444,2 C11.4444444,1.44771525 10.9967292,1 10.4444444,1 L2,1 C1.44771525,1 1,1.44771525 1,2 L1,20.312 Z" id="Rectangle"></path>
                            <path d="M1,5.14074576 L11.4444444,5.14074576 L11.4444444,2 C11.4444444,1.44771525 10.9967292,1 10.4444444,1 L2,1 C1.44771525,1 1,1.44771525 1,2 L1,5.14074576 Z" id="Rectangle"></path>
                        </g>
                        <line x1="33.2777778" y1="34.356" x2="36.2777778" y2="31.356" id="Line-5" stroke="#15161A" stroke-width="2" stroke-linecap="round"></line>
                        <line x1="34.2777778" y1="29.356" x2="35.6919913" y2="27.9417864" id="Line-5" stroke="#15161A" stroke-width="2" stroke-linecap="round"></line>
                        <path d="M7.22222222,13 L41.6666667,13 L41.6666667,10 C41.6666667,9.44771525 41.2189514,9 40.6666667,9 L8.22222222,9 C7.66993747,9 7.22222222,9.44771525 7.22222222,10 L7.22222222,13 Z" id="Rectangle" stroke="#15161A" stroke-width="2" fill="#FFFFFF"></path>
                    </g>
                    <g id="Group-11" transform="translate(80.000000, 56.000000) scale(-1, 1) translate(-80.000000, -56.000000) translate(56.000000, 0.000000)">
                        <path d="M1,110 L47,110 L47,16 C47,14.3431458 45.6568542,13 44,13 L4,13 C2.34314575,13 1,14.3431458 1,16 L1,110 Z" id="Rectangle" stroke="#15161A" stroke-width="2" fill="#FFFFFF"></path>
                        <rect id="Rectangle" stroke="#15161A" stroke-width="2" fill="#FFFFFF" transform="translate(36.000000, 6.660000) scale(1, -1) translate(-36.000000, -6.660000) " x="33.8888889" y="1" width="4.22222222" height="11.32" rx="2"></rect>
                        <g id="Group-10" transform="translate(6.222222, 78.144000)">
                            <path d="M1,20.0706957 L11.8843996,20.0706957 L11.8843996,2 C11.8843996,1.44771525 11.4366843,1 10.8843996,1 L2,1 C1.44771525,1 1,1.44771525 1,2 L1,20.0706957 Z" id="Rectangle" stroke="#15161A" stroke-width="2" fill="#FFFFFF"></path>
                            <line x1="5.55555556" y1="12.712" x2="8.55555556" y2="9.712" id="Line-5" stroke="#15161A" stroke-width="2" stroke-linecap="round" transform="translate(7.277778, 11.356000) scale(-1, 1) translate(-7.277778, -11.356000) "></line>
                            <line x1="6.55555556" y1="15.712" x2="7.96976912" y2="14.2977864" id="Line-5" stroke="#15161A" stroke-width="2" stroke-linecap="round" transform="translate(7.262662, 15.004893) scale(-1, 1) translate(-7.262662, -15.004893) "></line>
                            <path d="M21.6150393,20.0706957 L32.4994388,20.0706957 L32.4994388,2 C32.4994388,1.44771525 32.0517236,1 31.4994388,1 L22.6150393,1 C22.0627545,1 21.6150393,1.44771525 21.6150393,2 L21.6150393,20.0706957 Z" id="Rectangle" stroke="#15161A" stroke-width="2" fill="#FFFFFF"></path>
                            <rect id="Rectangle" stroke="#15161A" stroke-width="2" fill="#FFFFFF" x="24.5600449" y="4.92843478" width="4.99438833" height="4.07121739" rx="2"></rect>
                            <path d="M21.4265674,19.856 L18.9022769,31.856 L35.2122012,31.856 L32.6879107,19.856 L21.4265674,19.856 Z" id="Rectangle" stroke="#15161A" stroke-width="2" fill="#FFFFFF"></path>
                            <rect id="Rectangle" fill="#000000" x="19.8787879" y="23.9991304" width="14.3569024" height="2"></rect>
                            <rect id="Rectangle" fill="#000000" x="19.1425365" y="27.7133913" width="15.8294052" height="2"></rect>
                            <path d="M1,5.07121739 L11.8843996,5.07121739 L11.8843996,2 C11.8843996,1.44771525 11.4366843,1 10.8843996,1 L2,1 C1.44771525,1 1,1.44771525 1,2 L1,5.07121739 Z" id="Rectangle" stroke="#15161A" stroke-width="2" fill="#FFFFFF"></path>
                        </g>
                        <g id="Group-10" transform="translate(7.111111, 47.952000)" stroke="#15161A" stroke-width="2">
                            <path d="M1,20.312 L11.4444444,20.312 L11.4444444,2 C11.4444444,1.44771525 10.9967292,1 10.4444444,1 L2,1 C1.44771525,1 1,1.44771525 1,2 L1,20.312 Z" id="Rectangle" fill="#FFFFFF"></path>
                            <line x1="5.16666667" y1="15.404" x2="8.16666667" y2="12.404" id="Line-5" stroke-linecap="round" transform="translate(6.888889, 14.048000) scale(-1, 1) translate(-6.888889, -14.048000) "></line>
                            <line x1="6.16666667" y1="10.404" x2="7.58088023" y2="8.98978644" id="Line-5" stroke-linecap="round" transform="translate(6.873773, 9.696893) scale(-1, 1) translate(-6.873773, -9.696893) "></line>
                            <path d="M1,5.14074576 L11.4444444,5.14074576 L11.4444444,2 C11.4444444,1.44771525 10.9967292,1 10.4444444,1 L2,1 C1.44771525,1 1,1.44771525 1,2 L1,5.14074576 Z" id="Rectangle" fill="#FFFFFF"></path>
                        </g>
                        <g id="Group-10" transform="translate(7.111111, 18.648000)" stroke="#15161A" stroke-width="2">
                            <path d="M1,20.312 L11.4444444,20.312 L11.4444444,2 C11.4444444,1.44771525 10.9967292,1 10.4444444,1 L2,1 C1.44771525,1 1,1.44771525 1,2 L1,20.312 Z" id="Rectangle" fill="#FFFFFF"></path>
                            <line x1="5.16666667" y1="11.708" x2="8.16666667" y2="8.708" id="Line-5" stroke-linecap="round" transform="translate(6.888889, 10.352000) scale(-1, 1) translate(-6.888889, -10.352000) "></line>
                            <line x1="6.16666667" y1="14.708" x2="7.58088023" y2="13.2937864" id="Line-5" stroke-linecap="round" transform="translate(6.873773, 14.000893) scale(-1, 1) translate(-6.873773, -14.000893) "></line>
                            <path d="M1,5.14074576 L11.4444444,5.14074576 L11.4444444,2 C11.4444444,1.44771525 10.9967292,1 10.4444444,1 L2,1 C1.44771525,1 1,1.44771525 1,2 L1,5.14074576 Z" id="Rectangle" fill="#FFFFFF"></path>
                        </g>
                        <g id="Group-10" transform="translate(28.444444, 47.952000)" stroke="#15161A" stroke-width="2">
                            <path d="M1,20.312 L11.4444444,20.312 L11.4444444,2 C11.4444444,1.44771525 10.9967292,1 10.4444444,1 L2,1 C1.44771525,1 1,1.44771525 1,2 L1,20.312 Z" id="Rectangle" fill="#FFFFFF"></path>
                            <line x1="4.83333333" y1="11.404" x2="7.83333333" y2="8.404" id="Line-5" stroke-linecap="round" transform="translate(6.555556, 10.048000) scale(-1, 1) translate(-6.555556, -10.048000) "></line>
                            <line x1="5.83333333" y1="16.404" x2="7.2475469" y2="14.9897864" id="Line-5" stroke-linecap="round" transform="translate(6.540440, 15.696893) scale(-1, 1) translate(-6.540440, -15.696893) "></line>
                            <path d="M1,5.14074576 L11.4444444,5.14074576 L11.4444444,2 C11.4444444,1.44771525 10.9967292,1 10.4444444,1 L2,1 C1.44771525,1 1,1.44771525 1,2 L1,5.14074576 Z" id="Rectangle" fill="#FFFFFF"></path>
                        </g>
                        <g id="Group-10" transform="translate(28.444444, 18.648000)" fill="#FFFFFF" stroke="#15161A" stroke-width="2">
                            <path d="M1,20.312 L11.4444444,20.312 L11.4444444,2 C11.4444444,1.44771525 10.9967292,1 10.4444444,1 L2,1 C1.44771525,1 1,1.44771525 1,2 L1,20.312 Z" id="Rectangle"></path>
                            <path d="M1,5.14074576 L11.4444444,5.14074576 L11.4444444,2 C11.4444444,1.44771525 10.9967292,1 10.4444444,1 L2,1 C1.44771525,1 1,1.44771525 1,2 L1,5.14074576 Z" id="Rectangle"></path>
                        </g>
                        <line x1="33.2777778" y1="34.356" x2="36.2777778" y2="31.356" id="Line-5" stroke="#15161A" stroke-width="2" stroke-linecap="round" transform="translate(35.000000, 33.000000) scale(-1, 1) translate(-35.000000, -33.000000) "></line>
                        <line x1="34.2777778" y1="29.356" x2="35.6919913" y2="27.9417864" id="Line-5" stroke="#15161A" stroke-width="2" stroke-linecap="round" transform="translate(34.984885, 28.648893) scale(-1, 1) translate(-34.984885, -28.648893) "></line>
                        <path d="M7.22222222,13 L41.6666667,13 L41.6666667,10 C41.6666667,9.44771525 41.2189514,9 40.6666667,9 L8.22222222,9 C7.66993747,9 7.22222222,9.44771525 7.22222222,10 L7.22222222,13 Z" id="Rectangle" stroke="#15161A" stroke-width="2" fill="#FFFFFF"></path>
                    </g>
                </g>
                <g id="store" transform="translate(333.000000, 131.000000)" stroke="#15161A" stroke-width="2">
                    <path d="M3,50 L94,50 L94,10 C94,8.8954305 93.1045695,8 92,8 L5,8 C3.8954305,8 3,8.8954305 3,10 L3,50 Z" id="Rectangle" fill="#FFFFFF"></path>
                    <rect id="Rectangle" fill="#FFFFFF" x="42.9714286" y="24.557377" width="18" height="18" rx="3"></rect>
                    <rect id="Rectangle" fill="#FFFFFF" x="52" y="25" width="1" height="17"></rect>
                    <rect id="Rectangle" fill="#FFFFFF" transform="translate(52.000000, 33.500000) rotate(90.000000) translate(-52.000000, -33.500000) " x="52" y="25" width="1" height="17"></rect>
                    <rect id="Rectangle" fill="#FFFFFF" x="68.5428571" y="24.557377" width="18" height="18" rx="3"></rect>
                    <rect id="Rectangle" fill="#FFFFFF" x="77.5" y="25" width="1" height="17"></rect>
                    <rect id="Rectangle" fill="#FFFFFF" transform="translate(77.500000, 33.500000) rotate(90.000000) translate(-77.500000, -33.500000) " x="77.5" y="25" width="1" height="17"></rect>
                    <g id="Group-3" transform="translate(7.314286, 23.557377)">
                        <rect id="Rectangle" fill="#FFFFFF" x="2.51182266" y="1" width="13" height="25.442623"></rect>
                        <rect id="Rectangle" fill="#FFFFFF" x="15.1103448" y="1" width="12.1103448" height="25.442623"></rect>
                        <line x1="18.1857143" y1="15.942623" x2="18.1857143" y2="18.942623" id="Line-6" stroke-linecap="round"></line>
                        <line x1="12.1857143" y1="15.942623" x2="12.1857143" y2="18.942623" id="Line-6" stroke-linecap="round"></line>
                        <line x1="0.185714286" y1="0.942622951" x2="29.1857143" y2="0.942622951" id="Line-7" stroke-linecap="round"></line>
                    </g>
                    <path d="M1,10.4225611 L1.06928841,10.8352161 C1.47046466,13.2244663 3.54938508,15 6,15 C8.45061492,15 10.5295353,13.2244663 10.9307116,10.8352161 L11.0708163,10.0008069 L14.9291837,10.0008069 L15.0692884,10.8352161 C15.4704647,13.2244663 17.5493851,15 20,15 C22.4506149,15 24.5295353,13.2244663 24.9307116,10.8352161 L25.0708163,10.0008069 L28.9291837,10.0008069 L29.0692884,10.8352161 C29.4704647,13.2244663 31.5493851,15 34,15 C36.4506149,15 38.5295353,13.2244663 38.9307116,10.8352161 L39.0708163,10.0008069 L43.9291837,10.0008069 L44.0692884,10.8352161 C44.4704647,13.2244663 46.5493851,15 49,15 C51.4506149,15 53.5295353,13.2244663 53.9307116,10.8352161 L54.0708163,10.0008069 L57.9291837,10.0008069 L58.0692884,10.8352161 C58.4704647,13.2244663 60.5493851,15 63,15 C65.4506149,15 67.5295353,13.2244663 67.9307116,10.8352161 L68.0708163,10.0008069 L71.9291837,10.0008069 L72.0692884,10.8352161 C72.4704647,13.2244663 74.5493851,15 77,15 C79.4506149,15 81.5295353,13.2244663 81.9307116,10.8352161 L82.0708163,10.0008069 L85.9291837,10.0008069 L86.0692884,10.8352161 C86.4704647,13.2244663 88.5493851,15 91,15 C93.4506149,15 95.5295353,13.2244663 95.9307116,10.8352161 L96,10.4225611 L96,6 C96,3.23857625 93.7614237,1 91,1 L6,1 C3.23857625,1 1,3.23857625 1,6 L1,10.4225611 Z" id="Combined-Shape" fill="#FFFFFF"></path>
                </g>
                <path d="M1008.01446,181 L1048.90075,181 C1048.96658,180.594248 1049,180.180825 1049,179.762506 C1049,175.616293 1045.71085,172.262881 1041.67744,172.262781 L1040.90385,172.273744 L1040.60269,171.814104 C1040.05668,170.980755 1039.1465,170.473487 1038.15306,170.473487 C1037.95428,170.473487 1037.7595,170.493523 1037.57144,170.532782 L1036.69939,170.714836 L1036.4182,169.869521 C1035.65406,167.572316 1033.53815,166 1031.13265,166 C1028.90239,166 1026.91059,167.351113 1026.02362,169.406281 L1025.49103,170.640342 L1024.46209,169.775562 C1023.62636,169.073173 1022.58318,168.684092 1021.47959,168.684092 C1019.83175,168.684092 1018.32976,169.558018 1017.47634,170.969336 L1017.22556,171.384047 L1016.74466,171.444161 C1011.95781,172.042547 1008.27256,176.08409 1008.01446,181 Z" id="Bush" stroke="#15161A" stroke-width="2" fill="#FFFFFF"></path>
                <path d="M1.33800172,180.99951 L27.1446293,180.999989 C27.7040052,179.870806 28,178.624059 28,177.332784 C28,172.732457 24.2384995,169 19.5945946,169 C16.74828,169 14.1459964,170.412042 12.5966745,172.715369 L12.0760735,173.48933 L11.2678046,173.023774 C10.2347915,172.428768 9.06094213,172.110928 7.83783784,172.110928 C4.05967659,172.110928 1,175.14698 1,178.888248 C1,179.61537 1.11524348,180.325393 1.33800172,180.99951 Z" id="bush-1" stroke="#15161A" stroke-width="2" fill="#FFFFFF"></path>
                <g id="Billboard" transform="translate(647.000000, 91.000000)">
                    <rect id="Rectangle" stroke="#15161A" stroke-width="2" fill="#FFFFFF" x="45" y="32" width="1" height="57"></rect>
                    <rect id="Rectangle" stroke="#15161A" stroke-width="2" fill="#FFFFFF" x="36" y="60" width="18" height="4" rx="2"></rect>
                    <rect id="Rectangle" stroke="#15161A" stroke-width="2" fill="#FFFFFF" x="1" y="8" width="88" height="45" rx="7"></rect>
                    <rect id="Rectangle" stroke="#15161A" stroke-width="2" fill="#FFFFFF" x="10" y="17" width="29" height="27" rx="7"></rect>
                    <rect id="Rectangle" fill="#000000" x="45" y="18" width="37" height="2" rx="1"></rect>
                    <rect id="Rectangle" fill="#000000" x="45" y="23" width="24" height="2" rx="1"></rect>
                    <rect id="Rectangle" fill="#000000" x="45" y="28" width="10" height="2" rx="1"></rect>
                    <rect id="Rectangle" fill="#000000" x="63" y="33" width="19" height="2" rx="1"></rect>
                    <rect id="Rectangle" fill="#000000" x="45" y="33" width="15" height="2" rx="1"></rect>
                    <rect id="Rectangle" fill="#000000" x="45" y="38" width="4" height="2" rx="1"></rect>
                    <rect id="Rectangle" fill="#000000" x="77" y="38" width="5" height="2" rx="1"></rect>
                    <rect id="Rectangle" fill="#000000" x="52" y="38" width="22" height="2" rx="1"></rect>
                    <rect id="Rectangle" fill="#000000" x="58" y="28" width="17" height="2" rx="1"></rect>
                    <rect id="Rectangle" fill="#000000" x="78" y="28" width="4" height="2" rx="1"></rect>
                    <rect id="Rectangle" fill="#000000" transform="translate(77.000000, 24.000000) scale(-1, 1) translate(-77.000000, -24.000000) " x="72" y="23" width="10" height="2" rx="1"></rect>
                    <rect id="Rectangle" fill="#000000" x="45" y="43" width="24" height="2" rx="1"></rect>
                    <rect id="Rectangle" fill="#000000" transform="translate(77.000000, 44.000000) scale(-1, 1) translate(-77.000000, -44.000000) " x="72" y="43" width="10" height="2" rx="1"></rect>
                    <g id="Group-12" transform="translate(10.000000, 0.000000)" fill="#FFFFFF" stroke="#15161A" stroke-width="2">
                        <ellipse id="Oval" cx="4.5" cy="1.73684211" rx="1" ry="1"></ellipse>
                        <path d="M4.34210526,3.02631579 C2.49631149,3.02631579 1,4.52262728 1,6.36842105 L1,8.71052632 C1,9.26281107 1.44771525,9.71052632 2,9.71052632 L7,9.71052632 C7.55228475,9.71052632 8,9.26281107 8,8.71052632 L8,6.36842105 C8,4.52262728 6.50368851,3.02631579 4.65789474,3.02631579 L4.34210526,3.02631579 Z" id="Rectangle"></path>
                    </g>
                    <g id="Group-12" transform="translate(71.000000, 0.000000)" fill="#FFFFFF" stroke="#15161A" stroke-width="2">
                        <ellipse id="Oval" cx="4.5" cy="1.73684211" rx="1" ry="1"></ellipse>
                        <path d="M4.34210526,3.02631579 C2.49631149,3.02631579 1,4.52262728 1,6.36842105 L1,8.71052632 C1,9.26281107 1.44771525,9.71052632 2,9.71052632 L7,9.71052632 C7.55228475,9.71052632 8,9.26281107 8,8.71052632 L8,6.36842105 C8,4.52262728 6.50368851,3.02631579 4.65789474,3.02631579 L4.34210526,3.02631579 Z" id="Rectangle"></path>
                    </g>
                    <g id="Group-12" transform="translate(41.000000, 0.000000)" fill="#FFFFFF" stroke="#15161A" stroke-width="2">
                        <ellipse id="Oval" cx="4.5" cy="1.73684211" rx="1" ry="1"></ellipse>
                        <path d="M4.34210526,3.02631579 C2.49631149,3.02631579 1,4.52262728 1,6.36842105 L1,8.71052632 C1,9.26281107 1.44771525,9.71052632 2,9.71052632 L7,9.71052632 C7.55228475,9.71052632 8,9.26281107 8,8.71052632 L8,6.36842105 C8,4.52262728 6.50368851,3.02631579 4.65789474,3.02631579 L4.34210526,3.02631579 Z" id="Rectangle"></path>
                    </g>
                </g>
                <g id="Circle" transform="translate(902.000000, 83.000000)">
                    <g id="ground-base" transform="translate(18.000000, 76.000000)" fill="#FFFFFF" stroke="#15161A" stroke-width="2">
                        <path d="M6.65184866,1.22785465 L1.29983094,21.4051081 L8.78638669,21.4051081 L13.6374972,3.11862448 L6.65184866,1.22785465 Z" id="Path"></path>
                        <path d="M47.2672333,1.22785465 L41.9152156,21.4051081 L49.4017713,21.4051081 L54.2528819,3.11862448 L47.2672333,1.22785465 Z" id="Path" transform="translate(48.044982, 11.202554) scale(-1, 1) translate(-48.044982, -11.202554) "></path>
                    </g>
                    <g id="Group-16">
                        <g id="base" transform="translate(5.158057, 2.543697)" fill="#000000">
                            <g id="Group-15" transform="translate(21.937393, 0.000000)">
                                <polygon id="Rectangle" transform="translate(17.858365, 38.627714) rotate(-23.000000) translate(-17.858365, -38.627714) " points="15.947891 -2.4827581 19.6403005 -2.47700265 19.7688383 79.7381855 16.0764289 79.7324301"></polygon>
                                <polygon id="Rectangle" transform="translate(17.858365, 38.627714) rotate(23.000000) translate(-17.858365, -38.627714) " points="16.0764289 -2.47700266 19.7688383 -2.48275811 19.6403005 79.7324301 15.9478911 79.7381855"></polygon>
                            </g>
                            <g id="Group-15" transform="translate(39.423615, 38.768041) rotate(90.000000) translate(-39.423615, -38.768041) translate(21.423615, -0.231959)">
                                <polygon id="Rectangle" transform="translate(17.858365, 38.627714) rotate(-23.000000) translate(-17.858365, -38.627714) " points="15.947891 -2.4827581 19.6403005 -2.47700265 19.7688383 79.7381855 16.0764289 79.7324301"></polygon>
                                <polygon id="Rectangle" transform="translate(17.858365, 38.627714) rotate(23.000000) translate(-17.858365, -38.627714) " points="16.0764289 -2.47700266 19.7688383 -2.48275811 19.6403005 79.7324301 15.9478911 79.7381855"></polygon>
                            </g>
                        </g>
                        <g id="oval" transform="translate(31.898734, 28.378378)" stroke="#15161A" stroke-width="2">
                            <ellipse id="Oval" fill="#FFFFFF" cx="13.6708861" cy="13.6216216" rx="12.6708861" ry="12.6216216"></ellipse>
                            <ellipse id="Oval" fill="#15161A" cx="13.6708861" cy="13.6216216" rx="3.55696203" ry="3.54054054"></ellipse>
                        </g>
                        <path d="M45.5696203,1 C22.8412476,1 4.41772152,19.357135 4.41772152,42 C4.41772152,64.642865 22.8412476,83 45.5696203,83 C68.2979929,83 86.721519,64.642865 86.721519,42 C86.721519,19.357135 68.2979929,1 45.5696203,1 Z M45.5696203,5.81081081 C65.6258384,5.81081081 81.8860759,22.0124529 81.8860759,42 C81.8860759,61.9875471 65.6258384,78.1891892 45.5696203,78.1891892 C25.5134021,78.1891892 9.25316456,61.9875471 9.25316456,42 C9.25316456,22.0124529 25.5134021,5.81081081 45.5696203,5.81081081 Z" id="Combined-Shape" stroke="#15161A" stroke-width="2" fill="#FFFFFF"></path>
                        <path d="M35.7167294,1 L23.4006158,1 C23.2717311,1 23.1690044,1.10228177 23.1690044,1.22627737 L23.1690044,3.06569343 C23.1690044,6.5759605 26.028787,9.42335766 29.5586726,9.42335766 C33.0885581,9.42335766 35.9483407,6.5759605 35.9483407,3.06569343 L35.9483407,1.22627737 C35.9483407,1.10228177 35.8456141,1 35.7167294,1 Z" id="Path" stroke="#15161A" stroke-width="2" fill="#FFFFFF"></path>
                        <path d="M66.5070133,1 L54.1908998,1 C54.0620151,1 53.9592884,1.10228177 53.9592884,1.22627737 L53.9592884,3.06569343 C53.9592884,6.5759605 56.819071,9.42335766 60.3489566,9.42335766 C63.8788421,9.42335766 66.7386247,6.5759605 66.7386247,3.06569343 L66.7386247,1.22627737 C66.7386247,1.10228177 66.635898,1 66.5070133,1 Z" id="Path" stroke="#15161A" stroke-width="2" fill="#FFFFFF"></path>
                        <path d="M35.1932946,73.4415072 L22.877181,73.4415072 C22.7482963,73.4415072 22.6455696,73.543789 22.6455696,73.6677846 L22.6455696,75.5072006 C22.6455696,79.0174677 25.5053522,81.8648649 29.0352378,81.8648649 C32.5651233,81.8648649 35.4249059,79.0174677 35.4249059,75.5072006 L35.4249059,73.6677846 C35.4249059,73.543789 35.3221793,73.4415072 35.1932946,73.4415072 Z" id="Path" stroke="#15161A" stroke-width="2" fill="#FFFFFF"></path>
                        <path d="M68.1696887,73.4415072 L55.8535751,73.4415072 C55.7246904,73.4415072 55.6219637,73.543789 55.6219637,73.6677846 L55.6219637,75.5072006 C55.6219637,79.0174677 58.4817463,81.8648649 62.0116319,81.8648649 C65.5415174,81.8648649 68.4013,79.0174677 68.4013,75.5072006 L68.4013,73.6677846 C68.4013,73.543789 68.2985734,73.4415072 68.1696887,73.4415072 Z" id="Path" stroke="#15161A" stroke-width="2" fill="#FFFFFF"></path>
                        <path d="M88.7683886,53.8210692 L76.4522751,53.8210692 C76.3233904,53.8210692 76.2206637,53.923351 76.2206637,54.0473466 L76.2206637,55.8867627 C76.2206637,59.3970297 79.0804463,62.2444269 82.6103319,62.2444269 C86.1402174,62.2444269 89,59.3970297 89,55.8867627 L89,54.0473466 C89,53.923351 88.8972733,53.8210692 88.7683886,53.8210692 Z" id="Path" stroke="#15161A" stroke-width="2" fill="#FFFFFF"></path>
                        <path d="M14.6869654,53.8210692 L2.37085186,53.8210692 C2.24196717,53.8210692 2.13924051,53.923351 2.13924051,54.0473466 L2.13924051,55.8867627 C2.13924051,59.3970297 4.99902311,62.2444269 8.52890866,62.2444269 C12.0587942,62.2444269 14.9185768,59.3970297 14.9185768,55.8867627 L14.9185768,54.0473466 C14.9185768,53.923351 14.8158501,53.8210692 14.6869654,53.8210692 Z" id="Path" stroke="#15161A" stroke-width="2" fill="#FFFFFF"></path>
                        <path d="M88.7683886,23.7772736 L76.4522751,23.7772736 C76.3233904,23.7772736 76.2206637,23.8795554 76.2206637,24.003551 L76.2206637,25.8429671 C76.2206637,29.3532341 79.0804463,32.2006313 82.6103319,32.2006313 C86.1402174,32.2006313 89,29.3532341 89,25.8429671 L89,24.003551 C89,23.8795554 88.8972733,23.7772736 88.7683886,23.7772736 Z" id="Path" stroke="#15161A" stroke-width="2" fill="#FFFFFF"></path>
                        <path d="M13.5477249,23.7772736 L1.23161136,23.7772736 C1.10272666,23.7772736 1,23.8795554 1,24.003551 L1,25.8429671 C1,29.3532341 3.8597826,32.2006313 7.38966815,32.2006313 C10.9195537,32.2006313 13.7793363,29.3532341 13.7793363,25.8429671 L13.7793363,24.003551 C13.7793363,23.8795554 13.6766096,23.7772736 13.5477249,23.7772736 Z" id="Path" stroke="#15161A" stroke-width="2" fill="#FFFFFF"></path>
                    </g>
                </g>
                <g id="Bench" transform="translate(638.000000, 164.000000)">
                    <path d="M1.87878788,12 L27.1212121,12 L27.1212121,3 C27.1212121,1.8954305 26.2257816,1 25.1212121,1 L3.87878788,1 C2.77421838,1 1.87878788,1.8954305 1.87878788,3 L1.87878788,12 Z" id="Rectangle" stroke="#15161A" stroke-width="2" fill="#FFFFFF"></path>
                    <rect id="Rectangle" fill="#000000" x="1.75757576" y="4.5" width="26.3636364" height="1.8"></rect>
                    <rect id="Rectangle" fill="#000000" x="1.75757576" y="8.1" width="26.3636364" height="1.8"></rect>
                    <g id="Group-13" transform="translate(4.272727, 10.600000)" fill="#FFFFFF" stroke="#15161A" stroke-width="2">
                        <path d="M-0.214354067,3.22870813 L3.18564593,3.22870813 L3.18564593,4.17129187 L4.12822967,3.22870813 L4.18564593,3.22870813 L4.1569378,3.2 L4.18564593,3.17129187 L4.12822967,3.17129187 L3.18564593,2.22870813 L3.18564593,3.17129187 L-0.214354067,3.17129187 L-0.214354067,2.22870813 L-1.1569378,3.17129187 L-1.21435407,3.17129187 L-1.18564593,3.2 L-1.21435407,3.22870813 L-1.1569378,3.22870813 L-0.214354067,4.17129187 L-0.214354067,3.22870813 Z" id="Rectangle" transform="translate(1.485646, 3.200000) rotate(90.000000) translate(-1.485646, -3.200000) "></path>
                        <path d="M17.2688995,3.22870813 L20.6688995,3.22870813 L20.6688995,4.17129187 L21.6114833,3.22870813 L21.6688995,3.22870813 L21.6401914,3.2 L21.6688995,3.17129187 L21.6114833,3.17129187 L20.6688995,2.22870813 L20.6688995,3.17129187 L17.2688995,3.17129187 L17.2688995,2.22870813 L16.3263158,3.17129187 L16.2688995,3.17129187 L16.2976077,3.2 L16.2688995,3.22870813 L16.3263158,3.22870813 L17.2688995,4.17129187 L17.2688995,3.22870813 Z" id="Rectangle" transform="translate(18.968900, 3.200000) rotate(90.000000) translate(-18.968900, -3.200000) "></path>
                    </g>
                    <line x1="3.26849658e-13" y1="12" x2="29" y2="12" id="Line-7" stroke="#15161A" stroke-width="2" fill="#000000" stroke-linecap="round"></line>
                </g>
                <g id="Bush-2" transform="translate(293.000000, 167.000000)" fill="#FFFFFF" stroke="#15161A" stroke-width="2">
                    <path d="M2.32989212,14 L16.6701079,14 C17.5327492,12.6563164 18,11.0923226 18,9.45620431 C18,4.78700865 14.1954521,1 9.5,1 C4.80454789,1 1,4.78700865 1,9.45620431 C1,11.0923226 1.46725084,12.6563164 2.32989212,14 Z" id="Path"></path>
                    <path d="M9.4533721,14 L24.5466279,14 C23.1253424,10.9812897 20.2324148,9 17,9 C13.7675852,9 10.8746576,10.9812897 9.4533721,14 Z" id="Path"></path>
                </g>
            </g>
        </g>
    </g>
</svg>