<svg width="20" height="20" viewBox="0 0 20 20" fill="none" xmlns="http://www.w3.org/2000/svg">
<path fill-rule="evenodd" clip-rule="evenodd" d="M9.99911 0.909003C15.0199 0.909003 19.09 4.97914 19.09 9.99991C19.09 15.0207 15.0199 19.0908 9.99911 19.0908C4.97834 19.0908 0.908203 15.0207 0.908203 9.99991C0.908203 4.97914 4.97834 0.909003 9.99911 0.909003Z" fill="#00BD83"/>
<path d="M14.546 11.0962C14.546 10.906 14.4643 10.727 14.3301 10.5927L13.8925 10.1731C13.7524 10.0388 13.5599 9.96051 13.3615 9.96051C13.1631 9.96051 12.9705 10.0388 12.8363 10.1731L11.1209 11.8124V5.20009C11.1209 4.79727 10.7708 4.5455 10.374 4.5455H9.62709C9.23031 4.5455 8.88022 4.79727 8.88022 5.20009V11.8124L7.16473 10.1731C7.03052 10.0388 6.83797 9.96051 6.63958 9.96051C6.44119 9.96051 6.24864 10.0388 6.11443 10.1731L5.67681 10.5927C5.53677 10.727 5.45508 10.906 5.45508 11.0962C5.45508 11.2865 5.53677 11.4711 5.67681 11.6054L9.47538 15.2476C9.60959 15.3819 9.80214 15.4546 10.0005 15.4546C10.1989 15.4546 10.3915 15.3819 10.5315 15.2476L14.3301 11.6054C14.4643 11.4711 14.546 11.2865 14.546 11.0962Z" fill="white"/>
</svg>
