<svg width="121" height="18" viewBox="0 0 121 18" fill="none" xmlns="http://www.w3.org/2000/svg">
<path fill-rule="evenodd" clip-rule="evenodd" d="M25.12 17.56V15.2H18V1.19995H20.46V12.86H23.78V1.19995H26.26V12.86H27.54V17.56H25.12ZM31.6 12.88H36.38V15.2H29.14V1.19995H36.18V3.51995H31.6V6.97995H35.8V9.21995H31.6V12.88ZM46.76 1.19995H44.28V6.95995H40.9V1.19995H38.44V15.2H40.9V9.29995H44.28V15.2H46.76V1.19995ZM56.56 1.19995V3.53995H53.74V15.2H51.22V3.53995H48.4V1.19995H56.56ZM66.4 5.85995C66.4 2.91995 64.74 1.19995 61.92 1.19995H58.04V15.2H60.5V10.5H61.92C64.74 10.5 66.4 8.79995 66.4 5.85995ZM61.9 8.17995C63.22 8.17995 63.88 7.39995 63.88 5.85995C63.88 4.31995 63.22 3.53995 61.9 3.53995H60.5V8.17995H61.9ZM72.58 12.66L73.14 15.2H75.7L72.26 1.19995H69.62L66.18 15.2H68.74L69.3 12.66H72.58ZM69.8 10.32H72.08L71.52 7.71995C71.3434 6.87234 71.1512 5.57258 71.0123 4.63287L71.0122 4.63252L70.96 4.27995H70.9C70.78 5.21995 70.56 6.75995 70.36 7.71995L69.8 10.32ZM76.06 13.2V15.42C78.2 15.42 79.54 14.76 80 11.76C80.26 10.14 80.46 7.39995 80.66 3.51995H83.26V15.2H85.72V1.19995H78.3C78.04 7.03995 77.88 9.71995 77.64 11.16C77.36 12.78 76.92 13.2 76.06 13.2ZM88.36 15.2V1.19995H90.82V6.63995H92.2C95.14 6.63995 96.54 8.39995 96.54 10.96C96.54 13.82 95.14 15.2 92.2 15.2H88.36ZM92.02 12.94H90.82V8.97995H92.02C93.3 8.97995 93.98 9.59995 93.98 10.96C93.98 12.32 93.3 12.94 92.02 12.94Z" fill="#15161A"/>
<path fill-rule="evenodd" clip-rule="evenodd" d="M103.98 11.32C103.98 13.86 105.44 15.4 107.84 15.4C110.28 15.4 111.74 13.86 111.74 11.32V5.12C111.74 2.56 110.28 1 107.84 1C105.44 1 103.98 2.56 103.98 5.12V11.32ZM101.74 1.2H100.16L97.4004 3.04V5.64L99.4004 4.38V15.2H101.74V1.2ZM107.84 13.22C108.88 13.22 109.44 12.56 109.44 11.34V5.14C109.44 3.88 108.88 3.22 107.84 3.22C106.82 3.22 106.26 3.88 106.26 5.14V11.34C106.26 12.56 106.82 13.22 107.84 13.22ZM120.44 10.22C120.44 8.42 119.46 6.84 117.7 6.68L120.12 2.76V1.2H113.36V3.34H117.26L115.12 6.86V8.44H116.42C117.48 8.44 118.08 8.86 118.08 10.3V11.08C118.08 12.5 117.7 13.14 116.64 13.14C115.74 13.14 115.28 12.62 115.2 11.38H112.88C112.96 14 114.32 15.44 116.66 15.44C119.28 15.44 120.44 13.94 120.44 11.12V10.22Z" fill="#5AC9E6"/>
<path fill-rule="evenodd" clip-rule="evenodd" d="M10.7185 8.47668C11.4886 7.62846 11.868 6.63516 11.868 5.4856C11.868 2.44988 8.97741 0.485596 6.15375 0.485596C3.33008 0.485596 0.439453 2.44988 0.439453 5.4856C0.439453 6.63516 0.818918 7.62846 1.58901 8.47668C2.3591 9.32489 3.37472 10.5191 3.46401 11.7133C3.14035 11.903 2.93945 12.2602 2.93945 12.6285C2.93945 12.8963 3.0399 13.153 3.21847 13.3428C3.0399 13.5325 2.93945 13.7892 2.93945 14.057C2.93945 14.4253 3.12919 14.7602 3.44169 14.9611C3.3524 15.1173 3.2966 15.307 3.2966 15.4856C3.2966 16.2111 3.8658 16.557 4.51312 16.557C4.8033 17.2044 5.45062 17.6285 6.15375 17.6285C6.85687 17.6285 7.50419 17.2044 7.79437 16.557C8.44169 16.557 9.01089 16.2111 9.01089 15.4856C9.01089 15.307 8.95509 15.1173 8.8658 14.9611C9.1783 14.7602 9.36804 14.4253 9.36804 14.057C9.36804 13.7892 9.26759 13.5325 9.08902 13.3428C9.26759 13.153 9.36804 12.8963 9.36804 12.6285C9.36804 12.2602 9.16714 11.903 8.84348 11.7133C8.93277 10.5191 9.94839 9.32489 10.7185 8.47668ZM10.4395 5.4856C10.4395 3.25346 8.17384 1.91417 6.15375 1.91417C4.13365 1.91417 1.86803 3.25346 1.86803 5.4856C1.86803 6.19989 2.15821 6.94766 2.62696 7.49453C2.7336 7.61802 2.84872 7.73868 2.9652 7.86078C3.08034 7.98146 3.19681 8.10354 3.30776 8.23114C4.10017 9.1798 4.76982 10.2959 4.88142 11.557H7.42607C7.53768 10.2959 8.20732 9.1798 8.99973 8.23114C9.11068 8.10355 9.22715 7.98147 9.34227 7.8608L9.34229 7.86078C9.45878 7.73868 9.57389 7.61802 9.68054 7.49453C10.1493 6.94766 10.4395 6.19989 10.4395 5.4856ZM8.65375 5.4856C8.65375 5.67533 8.48634 5.84274 8.2966 5.84274C8.10687 5.84274 7.93946 5.67533 7.93946 5.4856C7.93946 4.71551 6.74526 4.41417 6.15375 4.41417C5.96401 4.41417 5.7966 4.24676 5.7966 4.05703C5.7966 3.8673 5.96401 3.69989 6.15375 3.69989C7.19169 3.69989 8.65375 4.24676 8.65375 5.4856Z" fill="#15161A"/>
</svg>
