<svg width="820" height="553" viewBox="0 0 820 553" fill="none" xmlns="http://www.w3.org/2000/svg">
<g opacity="0.9">
<path fill-rule="evenodd" clip-rule="evenodd" d="M530.241 432.839L533.329 439.554L533.944 442.616L540.034 444.319L536.646 450.243L532.07 449.372L531.175 453.403L523.687 452.463L517.621 459.432H511.586L498.779 465.617L497.181 468.019L496.936 472.88L488.464 474.53L480.072 482.052L481.274 487.85L486.54 489.672L489.338 488.472L492.828 484.982L502.188 484.738L515.995 496.965L521.083 497.176L524.902 496.222L535.754 503.768L538.8 514.78L537.82 520.666L533.105 523.357L532.909 526.319L533.618 532.702L528.699 537.387L526.723 540.945L529.634 544.238L537.37 545.375L540.797 550.4L548.521 552.839L550.044 548.279L553.477 552.237L559.702 550.367L567.242 543.94L572.363 538.822L578.287 526.74L592.448 519.551L599.071 519.988L602.666 515.669L608.792 520.666L610.701 518.583L611.396 513.033L615.181 510.904L617.279 507.87L621.87 506.996L623.628 499.743L629.839 494.488L635.781 493.994L645.51 503.268L652.788 502.851L656.3 497.468L664.626 500.939L670.272 497.244L674.771 495.683L670.515 488.444L673.359 479.678L676.332 475.962L682.98 475.341L681.619 471.604L669.847 470.733L655.867 469.641L651.452 480.331L645.689 476.661L642.977 472.986L637.783 479.638L630.696 483.068L623.421 488.463L612.972 484.051L607.39 483.116L601.672 476.897L606.036 470.468L602.289 463.602L594.372 460.889L592.632 457.625H586.935V451.313L581.113 449.157L577.527 445.125L572.65 443.964L570.626 439.017L563.142 437.805L559.632 445.287L555.989 442.857L555.537 436.288L553.177 434.608L549.51 439.654L540.567 431.432L535.908 426.776L530.241 432.839" fill="#ED6638"/>
<path fill-rule="evenodd" clip-rule="evenodd" d="M109.691 112.563L114.363 109.927L122.078 116.976L118.739 122.67L120.06 125.888L124.587 124.729L130.221 131.804L137.629 130.067L145.117 131.849L147.509 130.786L147.603 128.129L144.701 126.284L146.574 123.548L147.359 119.222L153.846 118.75V114.517L156.896 114.987L156.691 112.299L159.934 110.459L168.504 109.342L178.872 113.373L180.187 110.741L179.685 104.328L183.485 102.753L186.311 99.8189V93.8848L191.21 91.9036L190.061 87.5816L185.269 87.4612L183.908 82.4767L189.69 79.7158L190.703 77.0321L183.684 73.0096L180.651 65.1917H170.495V56.648L168.839 53.3359L172.283 51.4227L172.181 47.2195L169.09 44.4833L168.674 40.5844L174.456 33.5988L174.502 29.6767L169.331 24.0838L161.796 26.5977L158.042 21.0774L150.948 25.8086L123.024 23.5573L118.679 28.5232L118.904 34.9437L105.56 44.7134L97.2215 38.6898L86.9877 39.3151L86.8039 42.8358L92.1085 53.9087L86.543 61.0287L97.6137 73.6474L99.1889 86.7092L110.139 96.411L98.494 97.3575L103.389 106.746L109.691 112.563" fill="#FFBE51"/>
<path fill-rule="evenodd" clip-rule="evenodd" d="M331.947 81.3295L332.23 85.7673L340.997 90.2314L341.366 97.7204L338.135 100.637L342.952 106.415L341.227 110.174L344.598 111.86L345.52 118.671L340.631 123.398L342.556 128.683L339.287 136.46L345.702 138.024L347.098 144.62L349.59 149.112L350.631 157.942L347.521 162.034L348.392 165.511L352.171 169.654L346.341 175.841L337.215 179.369V184.681L339.804 189.502L342.867 192.027L338.933 195.279L341.758 198.327L340.201 201.563L341.509 202.985L341.372 206.639L338.337 209.78L348.075 218.132L348.284 222.19L353.95 222.089L357.062 215.987L360.445 215.857L366.599 210.351L369.572 214.761L372.251 214.645L377.086 217.117L379.163 210.546L386.185 211.038L389.84 206.84L392.355 211.481L394.715 209.946L400.707 210.964L401.677 207.091L406.791 201.5L411.629 195.314L408.803 191.463L412.253 189.873L411.669 178.636L415.141 172.209L423.353 170.412L432.071 175.004L437.005 171.494L441.492 163.9L441.001 158.005L445.184 154.68L446.912 148.269L450.926 147.415L454.061 140.178L446.502 133.94L449.002 128.586L441.45 123.188L429.584 130.822L420.066 131.571L412.29 125.867L413.743 120.896L406.351 113.84L393.061 114.592L394.36 108.234L389.658 103.877L386.368 98.3056L387.795 89.1242L380.52 79.39L380.497 79.3962L376.01 76.1551L373.296 66.427L369.803 63.7603L357.929 63.3249L354.509 67.6577L349.104 66.8486L348.448 62.6702L345.316 62.8416L338.933 71.9643L335.97 71.4856L337.49 75.6208L331.947 81.3295" fill="#7EEAA6"/>
<path fill-rule="evenodd" clip-rule="evenodd" d="M249.33 222.753L253.483 219.512L258.976 223.78L262.907 222.068L263.344 217.162L261.934 207.88L257.504 199.513L259.323 196.386L260.725 191.378L261.273 188.404L259.329 185.283L262.869 181.857L256.95 177.354L250.349 170.508L252.303 161.132L255.96 160.068L256.512 152.869L254.757 146.256L251.745 148.405L246.03 143.079L237.972 134.133L241.669 129.693L238.684 122.87L236.087 123.165L232.156 123.744L227.409 126.79L223.067 126.319L216.38 133.24L210.335 140.374L206.018 143.416H201.969L198.34 148.864L194.765 148.368L195.97 151.456L194.446 156.665L191.604 161.757L191.031 168.059L193.527 175.31L194.274 186.128L188.598 191.922L191.246 200.095L192.483 209.015L189.393 214.248L191.283 221.816L189.458 228.498L188.99 237.512L190.681 241.845L189.606 251.107L196.229 261.039L201.165 261.286L202.887 267.266L204.185 266.747L204.559 259.195L207.986 259.365L209.451 261.777L211.076 256.906L216.093 257.347L218.082 262.166L221.107 258.312L223.953 258.979L224.636 261.476L228.103 261.283L230.368 258.486L234.036 261.327L236.853 257.147L241.661 248.594L241.181 230.472L245.63 223.86L249.33 222.753" fill="#ED6638"/>
<path fill-rule="evenodd" clip-rule="evenodd" d="M257.341 66.5721L254.543 64.3702L254.641 70.2472L251.011 72.9432L252.052 77.3316L248.501 83.0835L247.632 88.6625L240.609 92.7066L240.391 98.9526L242.499 102.305L241.054 105.799L244.201 111.489L240.942 116.883L239.815 122.067L243.253 129.914L239.766 134.1L246.997 142.128L251.862 146.659L255.562 144.015L257.884 152.744L257.236 161.11L253.463 162.208L251.826 170.083L257.849 176.343L264.026 181.037L268.589 179.439L276.278 179.562L282.906 177.72L287.383 179.896L291.545 175.855L298.267 178.471L303.503 177.91L307.924 173.602L314.084 172.767L315.394 181.94L314.111 188.126L317.351 193.097H326.743L333.831 189.016L338.104 189.209L335.862 185.021V178.438L345.57 174.689L350.32 169.643L347.161 166.183L346.049 161.732L349.222 157.56L348.274 149.535L345.813 145.105L344.556 139.139L337.423 137.398L341.1 128.651L339.058 123.03L344.085 118.172L343.351 112.754L339.449 110.798L341.365 106.628L336.265 100.508L339.977 97.149L339.682 91.0883L330.926 86.6242L330.552 80.8183L335.92 75.2903L334.436 71.237L331.226 70.7212L326.625 64.1803L327.303 56.7082L324.23 51.9894L320.97 51.8133L317.817 59.0182H311.662L309.222 63.2909L308.68 71.7357L302.702 65.1809L302.041 57.2718L294.787 55.0575L291.086 59.7363L285.229 50.4993L280.684 56.7036L273.379 57.9636L269.919 51.6141L267.783 60.3601L263.715 62.7983L261.425 60.7183L257.341 66.5721" fill="#ED6638"/>
<path fill-rule="evenodd" clip-rule="evenodd" d="M132.672 226.296L138.035 226.413L139.45 228.986L142.841 230.922L145.023 236.207L153.296 235.862L161.256 241.794L162.436 248.999L167.216 250.932L173.407 256.204L179.005 252.992L182.595 255.61L185.873 261.469L193.261 263.122L194.964 261.59L188.205 251.445L189.294 242.03L187.622 237.73L188.111 228.292L189.882 221.804L187.943 214.037L191.076 208.736L189.918 200.404L187.056 191.562L192.88 185.616L192.186 175.585L189.654 168.226L190.279 161.343L193.189 156.138L194.54 151.523L192.651 146.68L192.98 141.795L185.738 141.04L181.097 142.511L174.764 147.991L166.397 147.488L162.24 146.829L159.962 149.722L158.895 158.837L157.388 165.236L150.487 169.07L143.562 168.717L141.346 171.332L142.497 177.707L136.596 178.479L133.034 184.18L126.665 185.977L123.91 189.964L127.363 193.083L128.458 200.31L130.56 207.839L128.833 212.031L128.541 215.385H134.033L135.089 218.36L130.458 221.564L132.672 226.296" fill="#7EEAA6"/>
<path fill-rule="evenodd" clip-rule="evenodd" d="M170.386 43.8131L173.523 46.591L173.659 52.2101L170.637 53.8916L171.849 56.3314V63.8389H181.581L184.779 72.0707L192.38 76.4313L190.761 80.6993L185.517 83.2101L186.311 86.1316L191.106 86.2505L192.831 92.7096L187.667 94.8019V100.37L184.26 103.903L181.118 105.203L181.573 111.011L179.532 115.087L168.333 110.731L160.37 111.77L158.107 113.049L158.38 116.586L155.2 116.099V120.011L148.503 120.496L147.856 124.076L146.61 125.898L148.983 127.402L148.835 131.691L145.694 133.078L144.279 136.311L145.011 137.309L148.538 135.365L150.509 138.643L148.96 141.609L148.625 147.729L151.811 153.118L158.144 153.638L158.662 149.183L161.661 145.366L166.544 146.14L174.292 146.606L180.421 141.302L185.601 139.657L194.417 140.579L194.024 146.472L194.197 146.915L197.684 147.401L201.241 142.065H205.582L209.41 139.361L215.375 132.329L222.553 124.902L227.081 125.39L231.67 122.445L235.912 121.823L238.545 121.518L239.663 116.369L242.631 111.462L239.551 105.884L240.979 102.433L239.021 99.3169L239.28 91.9066L246.39 87.8085L247.204 82.6001L250.6 77.0953L249.482 72.3842L253.276 69.5677L253.14 61.5474L257.05 64.6172L260.665 59.4443L261.626 53.4763L258.554 53.8608L254.922 49.7997L249.545 54.5355L245.542 53.9642L244.855 47.082L240.967 45.7077L240.964 40.7835L234.936 39.227L232.739 42.516H227.629L219.063 36.2052L210.117 36.8969L207.168 32.8065L198.804 33.032L194.071 26.4972L184.923 27.1643L182.398 25.2681L175.858 29.7677L175.804 34.0943L170.085 41.0074L170.386 43.8131" fill="#7EEAA6"/>
<path fill-rule="evenodd" clip-rule="evenodd" d="M39.1335 218.231L41.4452 224.336L48.8885 225.754L54.1606 233.181L60.0906 234.367L64.7975 239.072L66.6305 232.256L66.876 223.334L71.1737 218.81L76.0041 211.436L80.7187 212.835L87.1027 210.831L95.6455 211.189L102.735 209.75L108.415 210.315L109.706 208.294L105.723 206.191L105.191 201.012L107.379 194.696L108.517 187.87L113.974 186.137L120.803 187.15L122.895 189.043L125.826 184.806L132.163 183.015L135.787 177.214L140.908 176.545L139.901 170.943L142.958 167.328L150.17 167.694L156.205 164.343L157.564 158.598L157.989 154.984L151.002 154.41L147.247 148.061L147.622 141.246L148.955 138.697L148.048 137.184L144.623 139.074L142.724 136.48L144.228 133.033L137.626 131.461L129.696 133.319L124.072 126.257L119.256 127.497L117.228 122.562L120.354 117.238L114.172 111.59L109.499 114.226L103.608 108.787L103.989 116.429L98.2121 123.643L84.9284 124.547L79.8462 132.715L63.5265 145.184L54.0108 156.05L38.0232 170.003L31.2207 179.44L32.0577 184.897L36.9329 192.093L32.2152 202.201L38.1668 208.589L39.1335 218.231" fill="#7EEAA6"/>
<path fill-rule="evenodd" clip-rule="evenodd" d="M439.646 302.772L446.89 308.632L445.197 316.201L454.463 315.752L458.137 320.092L463.392 314.387L470.655 315.919L477.486 317.998L483.461 315.39L483.802 309.28L485.427 302.103L489.952 303.911L496.037 298.064L500.837 299.623L513.296 287.994L521.099 281.911L517.135 265.342L532.253 255.302L524.631 251.436L521.444 246.803L525.934 244.702L533.805 245.54L535.631 244.481L528.337 238.774L520.83 238.889L511.466 237.12L509.78 229.51L501.492 226.785L488.362 226.336L488.509 226.709L488.379 233.664L476.728 237.804L470.148 230.61L462.836 230.282L459 234.439L457.936 242.439L452.469 239.186L445.956 245.574L442.951 239.696L437.665 239.257L430.428 240.461L430.652 245.619L424.35 253.846L418.273 252.112L412.018 254.877L405.016 252.299L392.992 251.375L386.639 258.634L385.453 267.332L379.775 264.105L371.51 272.848L368.408 269.741L362.725 273.351L358.307 278.676L354.194 275.651L351.078 278.862L358.744 284.499L360.605 288.716L362.703 293.019L371.09 293.254L372.406 294.744L376.174 291.435L384.99 291.938L388.59 293.899L392.246 289.559L395.605 289.254L397.919 293.532L403.578 291.077L408.163 286.489L414.856 287.561L418.381 295.428L425.672 293.947L430.326 295.212L430.054 298.655L435.127 294.183L442.867 294.874L441.732 300.99L439.646 302.772" fill="#FFBE51"/>
<path fill-rule="evenodd" clip-rule="evenodd" d="M674.036 252.015L669.381 254.989L667.944 248.971L665.53 248.472L664.713 251.863L659.802 251.575L656.644 248.204L651.907 256.201L647.192 256.961L646.299 250.329L640.053 245.764L639.585 240.136L632.892 237.623L632.043 230.247L627.952 227.889L621.736 232.906L614.417 229.185L605.814 229.066L593.481 217.933L586.086 218.047L580.165 218.163L575.39 218.746L569.707 222.057L564.049 224.179L556.473 231.87L554.703 237.066L557.08 241.346L555.463 248.372L546.666 248.113L539.321 245.821L536.951 245.282L534.106 246.938L526.167 246.096L523.471 247.355L525.556 250.383L534.948 255.142L518.676 265.947L522.62 282.442L514.174 289.023L501.661 300.712L501.11 306.768L503.87 310.119L502.855 319.995L498.516 324.107L499.004 326.446L502.361 330.449L506.689 329.765L514.423 332.174L516.208 335.748L524.53 328.953L530.834 335.129L541.136 333.506L549.935 331.797L557.387 334.281L563.16 331.507L571.367 327.958L578.298 329.053L588.697 327.81L590.019 317.282L586.055 314.998L586.876 309.498L583.769 308.61L582.412 305.154L586.263 300.854L582.713 298.3L583.947 289.231L588.019 290.32L592 288.09L605.009 287.97L609.515 286.469L614.44 289.4L622.011 284.109L628.771 288.697L635.179 285.362L635.987 288.986L640.217 289.482L639.957 294.168L643.751 298.689L642.216 302.953L643.476 304.138L647.745 302.238L651.565 305.136L653.979 302.946L660.059 302.94L661.479 300.215L665.581 296.327L662.4 293.475L663.331 284.659L670.697 284.1L672.036 286.779L676.482 286.875L677.583 282.572L675.552 280.002L677.89 278.347L677.995 272.749L672.862 269.883L672.488 258.526L675.438 253.42L674.036 252.015" fill="#7EEAA6"/>
<path fill-rule="evenodd" clip-rule="evenodd" d="M517.708 306.329L519.226 304.929L520.17 303.222L521.528 300.883L522.018 299.835L521.528 298.629L522.018 297.991L522.64 298.629L523.276 297.366V296.886L522.64 296.177C522.64 296.177 522.939 295.538 522.64 294.999C522.341 294.46 522.018 293.924 522.018 293.924L522.64 292.938L523.276 291.765L524.522 292.236L525.57 291.765L524.522 290.08L526.439 289.414L526.859 287.365L527.535 287C527.535 287 528.781 287.365 528.781 287.365C528.781 287.365 529.488 288.178 529.488 288.178V288.771V289.414H530V290.445V291.372V292.552L529.488 292.938V293.924H528.781L527.535 296.177L526.859 296.665L527.535 297.366L526.125 297.991L525.57 297.366L525.391 297.743V298.105C525.391 298.105 525.074 298.307 525.074 298.307C525.074 298.307 525.285 299.033 525.285 299.033L524.609 300.121L524.097 300.72H523.854L523.598 301.121L523.474 301.504L523.08 301.758L522.86 301.836L522.976 302.169L523.474 302.51L523.675 302.699L523.598 303.375L523.474 303.659L524.097 303.222L524.326 303.298L524.609 304.124H525.285V304.416H525.732L525.57 305.149L525.732 305.377L525.486 306.18L525.285 305.996L525.163 306.329L523.752 307.906L523.08 309.3L524.001 309.549L523.598 309.887L523.752 310.591L522.86 310.757L523.276 311.724V313.661L524.787 313.383L525.163 314.921L525.57 315.107L525.654 315.74L525.57 315.94H525.074L525.486 317.603C525.486 317.603 524.686 317.756 524.686 317.756C524.686 317.756 524.888 318.114 524.888 318.114L524.44 318.337L524.001 317.517H523.752L523.276 318.414L523.474 318.589L523.675 319.031L523.276 319.125L523.08 318.837V317.009L522.72 316.892L522.375 315.94L521.246 316.802V317.291L520.865 316.534L520.611 316.688V317.009L520.016 317.291L519.376 316.802C519.376 316.802 518.964 316.574 518.964 316.688C518.964 316.802 518.539 317.009 518.539 317.009V317.517H518.845L518.539 317.878L519.074 318.194V318.684H519.376V318.837L519.226 319.031L519.376 319.842L520.611 318.589L520.717 319.281L520.865 320.2V320.857L520.016 320.977C520.016 320.977 519.831 320.625 519.831 320.625C519.831 320.625 518.845 320.625 518.845 320.625V320.307L517.93 320.025L517.165 318.837L517.468 318.194V317.756L516.397 318.114L516.229 318.589L516.856 319.125L516.776 319.603L516.513 319.763L516.602 320.025L516.08 320.307H515.799L515.589 320.977V321.172L514.776 321.929H513.15V322.342H512.617V322.629L512.165 324.298L510.616 324.541L510.365 323.93L509.504 325L509.071 324.873L508.575 323.93C508.575 323.93 508.464 322.527 508.464 322.527C508.464 322.527 508.706 322.045 508.706 322.045L507.869 323.001L507.375 324.873H507.076L507.375 324.426L506.63 323.93V323.435L506.909 321.784L507.076 322.527H507.453C507.453 322.527 507.332 322.822 507.453 322.725C507.574 322.629 507.727 322.342 507.727 322.342L507.282 321.488L509.071 318.414L509.326 319.031L509.663 319.125L511.769 318.414L511.889 318.001H512.388L512.529 317.517L512.815 316.688V316.186L513.15 315.86H512.529L512.165 316.892L511.889 316.534L512.165 316.186H511.586L510.204 316.688L509.326 316.802L507.627 316.688L506.254 315.94L506 315.303L506.909 314.782L507.076 314.634L507.869 314.782L508.194 315.107H508.911V314.782H509.326V314.281L508.911 313.971L509.326 313.809L509.504 313.248H509.926L510.02 312.886H510.365L510.204 313.248L510.365 313.383L510.616 312.996L510.827 311.51L511.311 310.948V310.43L511.586 310.286H512.815L513.65 310.43V310.181L514.525 309.887H514.897C514.897 309.887 515.426 309.722 515.426 309.722C515.426 309.722 515.7 309.887 515.7 309.887L515.021 311.15C515.021 311.15 514.87 312.62 515.021 312.62C515.172 312.62 515.799 312.717 515.799 312.717L516.08 312.233V311.41L516.856 309.549L516.229 309.179C516.229 309.179 515.935 309.179 515.935 309.179C515.935 309.179 515.799 308.759 515.799 308.759H515.426V308.193H515.589L515.7 308.37L515.799 308.193L516.229 308.37H516.856C516.856 308.37 516.992 308.053 516.992 308.053C516.992 308.053 517.468 308.193 517.468 308.193L518 307.262C518 307.262 517.165 306.851 517.165 306.851C517.165 306.851 517.468 306.52 517.468 306.52V305.285L516.992 305.149L516.513 305.522L516.602 306.18H516.397C516.397 306.18 516.08 306.329 516.08 306.329C516.08 306.329 515.7 305.996 515.7 305.996L516.08 304.687L515.589 303.889H517.556L518.159 303.222L517.708 302.169L518.159 301.378H518.769C518.769 301.378 518.964 301.758 518.964 301.758C518.964 301.758 519.226 301.592 519.226 301.592V301.836L519.074 302.055L518.769 302.51L518.643 303.476L518.373 303.375L518 303.985L517.556 304.687L517.708 305.377V306.329Z" fill="#ED6638"/>
<path fill-rule="evenodd" clip-rule="evenodd" d="M600.357 136.972L595.851 138.512L591.493 144.989L586.712 143.274L579.845 149.662L579.63 149.648L578.655 152.854L580.197 155.809L575.48 160.409L577.332 161.876L578.361 166.096L584.945 167.155L586.54 169.998L592.379 168.726V176.158L596.683 181.449L599.79 181.247L602.208 178.824L604.724 182.339L603.461 184.638L606.971 187.783L604.821 191.062L606.812 195.184L599.699 195.067L601.543 198.356L599.974 203.583L594.92 208.768L588.356 207.323L586.968 205.837L585.265 208.081L584.161 213.047L586.446 216.685L593.996 216.569L606.347 227.715L614.752 227.834L621.569 231.299L627.821 226.254L633.311 229.41L634.141 236.644L640.861 239.164L641.352 245.034L647.565 249.575L648.349 255.401L651.064 254.961L656.393 245.956L660.421 250.247L663.659 250.44L664.414 247.317L664.076 235.509L668.721 237.421L672.069 234.416H677.235L679.88 236.453L681.475 233.263L690.271 224.344L691.341 218.648L696.394 211.816L701.283 218.047L704.322 215.244L706.784 217.544L706.895 221.265L712.433 222.65L714.02 225.48L719.623 224.514L724.625 220.958L724.847 216.192L724.615 209.696L720.549 204.357L715.328 197.439L712.566 189.267L716.049 183.015L714.499 177.277L717.005 172.268L714.746 165.251L716.707 159.489L717.021 155.326L708.799 146.234L703.594 145.551L695.316 136.331L695.959 128.666L689.854 128.883L687.834 121.471L681.274 122.24L680.842 127.235L675.386 130.461L664.383 129.784L656.659 136.653L656.182 141.872L651.668 142.715L643.675 132.78L641.002 137.507L636.619 136.96L630.102 126.844L619.249 127.269L610.296 137.406L608.629 135.136L605.442 138.214L600.357 136.972" fill="#7EEAA6"/>
<path fill-rule="evenodd" clip-rule="evenodd" d="M548.224 132.357L546.147 125.15L539.267 130.001L531.961 125.927L524.382 131.256L517.091 129.279H507.98L503.613 126.142L501.556 128.307L495.294 128.552L486.061 137.188L480.418 139.951L471.195 139.327L465.944 136.018L463.263 138.075L458.871 142.337L455.242 140.857L452.248 147.786L460.419 153.853L461.504 159.998L469.283 166.925L467.63 175.293L474.776 178.69L475.753 183.942L485.465 192.072L481.824 209.522L487.829 224.96L501.728 225.437L510.936 228.465L512.601 235.95L520.961 237.534L528.797 237.412L537.134 243.931L539.67 244.515L546.891 246.763L554.388 246.984L555.644 241.547L553.229 237.202L555.293 231.137L563.292 223.013L569.125 220.825L574.953 217.426L580.068 216.812L584.861 216.714L582.716 213.3L584.007 207.493L586.855 203.737L589.06 206.086L594.476 207.278L598.769 202.877L600.077 198.52L597.37 193.668L604.635 193.793L603.269 190.964L605.193 188.012L601.751 184.927L603.123 182.433L602.041 180.918L600.392 182.57L596.069 182.85L591.026 176.639V170.409L585.845 171.536L584.086 168.391L577.254 167.29L576.127 162.65L573.427 160.517L578.53 155.54L577.197 152.985L578.244 149.542L575.07 149.294L568.178 152.86L556.953 154.05L558.609 145.88L552.537 140.999L553.014 135.979L548.224 132.357" fill="#FFBE51"/>
<path fill-rule="evenodd" clip-rule="evenodd" d="M360.295 270.24L362.332 271.997L368.6 268.013L371.487 270.899L379.52 262.396L384.378 265.161L385.351 258.046L392.419 249.97L405.314 250.962L411.971 253.414L418.174 250.673L423.838 252.29L429.277 245.185L429.021 239.32L437.602 237.887L443.812 238.406L446.324 243.312L452.267 237.484L456.865 240.221L457.716 233.84L462.264 228.899L470.767 229.282L477.125 236.231L487.042 232.704L487.15 226.958L480.415 209.639L483.972 192.587L474.507 184.664L473.573 179.617L466.095 176.063L467.799 167.421L460.247 160.695L459.176 154.62L451.249 148.734L448.005 149.424L446.378 155.463L442.413 158.613L442.882 164.217L438.021 172.435L432.176 176.592L423.164 171.843L416.04 173.4L413.044 178.946L413.654 190.714L410.876 191.999L413.325 195.34L407.826 202.371L402.906 207.758L401.72 212.511L395.013 211.372L391.86 213.424L389.584 209.208L386.767 212.437L380.134 211.971L377.9 219.057L371.951 216.015L368.875 216.145L366.34 212.405L360.989 217.198L357.906 217.313L354.79 223.431L348.354 223.546L348.469 225.852L342.15 230.502L342.586 233.726L345.718 232.679L344.927 238.448L347.651 239.246L348.792 245.956L350.099 250.971L354.372 251.094L355.091 257.47L360.087 257.833L359.954 264.175L360.295 270.24" fill="#ED6638"/>
<path fill-rule="evenodd" clip-rule="evenodd" d="M509.267 19.2337L505.163 23.3396L505.289 29.3478L495.758 34.1099L493.189 39.0248L493.518 44.8308L496.629 46.7455L497.631 62.5173L491.297 68.2676L494.958 75.9512L489.512 83.8248L490.238 87.4596L499.489 93.4648L500.521 102.617L497.142 105.991L499.901 112.215L494.829 117.291L497.933 121.539L495.984 127.169L500.945 126.976L503.442 124.35L508.417 127.924H517.277L524.125 129.775L531.881 124.329L539.187 128.398L546.926 122.948L549.403 131.549L554.434 135.356L553.957 140.399L560.104 145.341L558.647 152.503L567.785 151.535L574.789 147.914L579.358 148.264L586.389 141.719L590.959 143.359L594.983 137.378L600.294 135.561L605.038 136.719L607.822 134.034L604.661 129.727L605.075 126.265L598.234 125.163L596.082 113.918L598.535 105.226L590.091 91.0775L592.521 87.7607L590.256 85.1465L583.819 87.7716L581.971 77.1201L574.548 77.3286L567.554 80.2563L560.222 80.7627L559.763 75.7304L551.734 75.5235L546.495 78.3817L542.818 74.9908L545.94 68.9671L539.021 64.3548L542.526 60.3478V55.2166L535.299 47.5222L539.669 42.1224L548.251 40.5798L548.817 36.4384L534.394 22.4687L534.169 12.3067L520.999 0L511.034 7.41338L508.6 1.56266L505.686 1.30325L502.487 12.3253L509.267 19.2337" fill="#7EEAA6"/>
<path fill-rule="evenodd" clip-rule="evenodd" d="M387.783 98.0354L390.721 103.008L395.841 107.754L394.747 113.139L406.86 112.451L415.281 120.486L413.859 125.337L420.461 130.177L429.144 129.492L441.486 121.549L450.71 128.135L448.172 133.564L455.236 139.387L458.567 140.745L462.378 137.051L465.868 134.366L471.639 138.001L480.149 138.575L485.285 136.064L494.431 127.505L496.418 121.767L493.053 117.15L498.282 111.917L495.528 105.688L499.097 102.115L498.214 94.2538L489.015 88.2827L488.064 83.5314L493.396 75.8277L489.636 67.9403L496.24 61.9506L495.32 47.5346L492.205 45.6168L491.813 38.7269L494.759 33.0954L503.914 28.5155L503.8 22.7837L507.361 19.226L500.967 12.7129L504.312 1.18129L496.645 0.498779L486.827 9.40997L482.016 7.34855L476.928 10.8182L469.726 4.77602L461.763 4.97985L460.201 20.1232L451.301 24.6938L444.837 23.4955L441.483 21.2612L418.958 20.1587L413.603 26.7228L410.585 21.9499H403.361L402.086 27.4933L392.805 36.5481L389.577 48.2789L385.953 49.1868L384.288 54.5882L384.5 59.5943L387.225 61.8657L387.224 68.612L390.226 70.6919L388.939 78.1547L382.049 79.1646L389.227 88.7645L387.783 98.0354" fill="#7EEAA6"/>
<path fill-rule="evenodd" clip-rule="evenodd" d="M694.394 361.458L695.515 356.781L689.303 353.161L682.269 348.016L683.228 340.6L689.513 340.118L690.686 335.195L695.446 333.648L696.484 327.342L690.098 325.433L683.943 320.46L675.962 320.216L673.088 314.081L666.491 307.489L663.267 300.386L662.576 301.038L660.884 304.294H654.506L651.64 306.901L647.562 303.806L643.204 305.74L640.631 303.332L642.209 298.962L638.571 294.623L638.795 290.681L634.874 290.22L634.242 287.378L628.678 290.274L622.021 285.754L614.496 291.01L609.357 287.951L605.23 289.321L592.361 289.438L588.205 291.77L585.086 290.938L584.167 297.681L588.281 300.633L583.98 305.442L584.784 307.492L588.386 308.524L587.529 314.286L591.474 316.555L589.918 329.025L578.269 330.421L571.544 329.357L563.722 332.74L558.469 335.268L561.588 339.46V346.494L566.108 349.304L569.414 344.476L573.209 350.013V358.532L577.787 365.755L577.224 370.369L584.034 372.795L587.837 380.147L580.876 388.363L586.838 390.429L584.426 396.584L594.414 400.846L601.123 402.239L603.786 413.329L607.755 410.089L610.129 404.748L612.641 410.605L615.771 411.341L628.385 398.29L639.862 386.13L652.617 384.74H656.348L659.412 388.831L666.902 379.421L673.351 377.122L678.439 374.697L683.31 377.877L686.22 371.845L689.962 369.35L689.592 363.433L694.394 361.458" fill="#7EEAA6"/>
<path fill-rule="evenodd" clip-rule="evenodd" d="M594.012 402.149L582.687 397.308L585.06 391.246L578.563 388.993L586.218 379.963L583.076 373.899L575.744 371.287L576.38 366.075L571.852 358.93V350.438L569.418 346.874L566.495 351.143L560.235 347.244V339.907L557.019 335.588L549.846 333.193L541.368 334.844L530.366 336.574L524.448 330.769L515.755 337.872L513.471 333.296L506.589 331.151L503.838 331.588L506.462 333.449L506.873 341.732L502.717 342.166L503.929 344.267L505.983 345.938L506.49 355.949L504.652 358.354L498.605 360.252L496.159 364.932L502.421 368.458L503.781 373.295L500.611 373.805V378.465L494.74 379.545V384.339L486.737 385.724L484.421 381.209H479.93L477.924 384.282L471.497 385.097L470.665 388.851L466.115 385.737L464.315 387.63L462.76 390.879L453.919 391.68L455.159 394.949L462.244 400.532L468.821 399.587L469.551 401.527L478.633 402.758L472.377 411.459L464.976 406.199L455.934 405.539L443.983 405.305L440.271 402.906L433.783 405.384L438.941 411.687L445.527 408.171L451.97 411.159L458.935 409.962L460.368 415.665L451.666 419.148L447.53 417.629L444.295 420.859L445.144 423.227L451.877 424.068L459.169 423.126L463.694 428.562L468.103 428.097L471.726 435.564L478.838 434.934L487.026 431.295L495.025 431.985L504.183 431.548L507.063 427.362L509.364 431.038L514.826 424.147L516.853 432.498L522.167 433.134L525.537 435.089L530.202 430.947L530.208 430.96L535.673 425.106L539.261 419.592L543.476 424.034L547.318 420.642L554.105 427.865L559.381 417.086L566.45 427.34L569.017 423.058L574.206 427.207L576.69 430.242L573.89 432.805L576.778 438.191L580.617 437.093L582.07 431.296L580.852 425.685L585.937 423.705L588.487 427.102L587.285 431.182V434.53L590.743 436.535L593.191 433.52L593.831 427.979L592.232 422.49L594.174 415.832L597.257 418.654L602.614 414.281L600.005 403.394L594.012 402.149" fill="#7EEAA6"/>
<path fill-rule="evenodd" clip-rule="evenodd" d="M775.286 280.805L766.299 280.433L764.863 273.6L758.267 273.244L754.355 264.95L748.061 265.884L745.283 263.258L747.632 259.055L745.292 254.796L739.492 252.382L736.09 243.568L737.063 235.797L736.484 228.274L732.347 222.8L725.47 222.023L720.161 225.795L713.306 226.981L711.535 223.825L705.572 222.33L705.446 218.147L704.314 217.093L701.12 220.04L696.427 214.051L692.618 219.2L691.532 225.002L682.592 234.06L680.358 238.531L676.77 235.774H672.59L668.992 238.999L665.491 237.559L665.766 247.135L669.055 247.819L670.254 252.819L674.222 250.284L677.133 253.198L673.855 258.872L674.198 269.073L679.368 271.956L679.232 279.062L677.504 280.283L679.064 282.258L677.529 288.26L671.188 288.115L669.891 285.518L664.562 285.922L663.82 292.925L667.584 296.294L664.308 299.401L667.624 306.696L674.21 313.283L676.843 318.887L684.441 319.121L690.741 324.212L698.013 326.38L696.656 334.686L691.83 336.246L690.605 341.391L684.431 341.869L683.718 347.393L690.045 352.03L697.07 356.114L695.553 362.451L691.01 364.318L691.269 368.479L699.329 363.11L703.608 361.6L706.661 364.046L714.316 350.055L718.825 348.469L721.166 351.038L726.17 350.634L728.211 347.678L741.422 347.441L743.822 352.235L746.16 345.211L743.597 339.153L748.98 333.766L742.917 332.035L747.107 324.884V311.331L754.572 307.236L760.641 306.334L767.062 301.844L769.362 288.957L777.649 288.084L777.108 282.822L775.286 280.805" fill="#FFBE51"/>
<path fill-rule="evenodd" clip-rule="evenodd" d="M817.844 254.641L810.666 256.692L813.477 249.025L809.043 243.701L809.256 237.038L800.487 235.689L799.991 225.138L805.845 218.553L813.157 219.698L816.647 216.983L816.053 214.614L811.442 216.921L806.983 213.167L801.623 212.945L796.746 210.124L798.079 204.5L807.36 201.787L808.88 196.14L815.576 187.663L814.731 180.471L807.291 172.336L812.541 164.257L806.458 165.653L800.311 172.03L795.953 168.883L789.563 169.118L787.022 160.59L781.526 158.757L775.618 161.831L768.063 151.611L761.225 158.663L753.697 153.955H748.824L744.577 148.813L736.692 150.127L729.341 148.411L728.439 143.459L724.888 142.78L724.015 152.815L718.369 155.525L718.043 159.762L716.176 165.262L718.468 172.379L715.945 177.427L717.506 183.194L714.047 189.405L716.55 196.798L721.632 203.535L725.955 209.216L726.202 216.202L725.992 220.72L733.075 221.517L737.805 227.78L738.426 235.834L737.476 243.395L740.546 251.354L746.251 253.73L749.182 259.054L746.977 262.995L748.513 264.45L755.157 263.46L759.15 271.937L765.972 272.3L767.412 279.119L775.911 279.471L778.411 282.246L779.026 288.197L782.842 291.01L788.865 286.92L791.87 286.1L795.658 290.334L802.173 287.289L809.601 288.64L813.945 286.077L811.513 273.035L813.133 267.743L814.068 260.219L819.777 257.055L817.844 254.641" fill="#ED6638"/>
<path fill-rule="evenodd" clip-rule="evenodd" d="M106.03 281.514L106.268 273.478L98.8463 265.947L94.9625 268.656L90.9505 265.646L90.7297 255.534L85.0329 257.941L78.8405 252.657L75.8523 245.486L70.1818 241.176L64.8557 241.056L59.423 235.616L53.3695 234.405L48.102 226.984L40.4456 225.522L37.6428 218.124L31.7901 212.477L26.4392 212.012L25.1111 209.139L22.9307 209.295L21.4018 216.95L12.1487 224.168L10.3573 236.488L8.05793 239.805L2.67774 240.48L0 245.426L0.50806 252.546L5.82957 252.881L9.23002 266.114L17.3482 266.789L20.6575 278.041L28.0622 275.016L32.2116 285.735H38.54L44.9193 277.587L56.9197 289.931L61.5849 286.6L74.1382 295.422L80.6503 290.968L90.8007 300.778L100.409 293.492L109.559 295.127L110.717 290.008L110.935 286.179L106.03 281.514" fill="#FFBE51"/>
<path fill-rule="evenodd" clip-rule="evenodd" d="M241.536 258.08L237.79 258.179L234.348 263.285L230.585 260.368L228.775 262.606L223.618 262.89L222.863 260.112L221.639 259.83L217.713 264.836L215.154 258.631L212.024 258.353L209.811 264.982L207.2 260.685L205.844 260.616L205.498 267.681L201.999 269.082L200.132 262.595L196.098 262.396L193.652 264.596L184.987 262.662L181.554 256.533L178.918 254.603L173.253 257.856L166.507 252.106L161.936 250.259L157.867 253.414L159.878 258.103L159.621 264.142L154.65 269.383L152.64 267.368L147.677 268.662L140.378 275.85L132.869 283.115L126.062 290.976L125.268 299.25L127.864 302.829L123.771 312.182H129.813L141.679 300.996L164.01 300.993L167.431 296.896L181.592 298.243L189.69 284.077L208.601 282.388L212.802 270.832L221.531 276.069L225.206 272.393L232.648 275.439L237.41 270.336L241.862 272.393L246.629 268.222L244.722 262.146L241.536 258.08" fill="#ED6638"/>
<path fill-rule="evenodd" clip-rule="evenodd" d="M123.869 299.629L124.754 290.413L131.886 282.182L139.429 274.879L146.987 267.44L153.05 265.861L154.628 267.44L158.286 263.577L158.51 258.352L156.209 252.986L161.095 249.195L160.005 242.558L152.872 237.233L144.132 237.606L141.764 231.87L138.446 229.975L137.221 227.753L131.802 227.631L128.746 221.106L133.465 217.837L133.075 216.742H127.066L127.497 211.711L129.129 207.755L127.139 200.595L126.092 193.764L120.196 188.435L114.083 187.529L109.718 188.914L108.702 195.022L106.572 201.171L106.997 205.332L111.645 207.78L109.103 211.75L102.801 211.117L95.75 212.55L87.2829 212.196L80.7306 214.256L76.5827 213.025L72.2295 219.645L68.2175 223.89L67.9812 232.455L66.0293 239.726L70.6528 239.834L76.9642 244.623L79.9693 251.834L85.2785 256.369L92.0392 253.502L92.2925 264.953L94.9918 266.982L99.01 264.181L107.641 272.936L107.405 280.952L112.328 285.63L112.068 290.184L110.81 295.751L122.659 311.343L126.309 302.993L123.869 299.629" fill="#7EEAA6"/>
<path fill-rule="evenodd" clip-rule="evenodd" d="M463.181 386.855L465.928 383.962L469.775 386.595L470.377 383.876L477.13 383.016L479.199 379.858H485.247L487.484 384.216L493.382 383.197V378.41L499.253 377.337V372.647L502.068 372.198L501.268 369.369L494.353 365.473L497.664 359.127L503.835 357.19L505.114 355.523L504.655 346.608L502.879 345.166L500.499 341.037L505.452 340.515L505.141 334.177L501.625 331.683L497.743 327.05L497.034 323.642L501.559 319.362L502.461 310.544L499.706 307.196L500.285 300.87L496.395 299.602L490.259 305.496L486.399 303.955L485.151 309.477L484.77 316.302L477.573 319.444L470.32 317.23L463.865 315.871L458.096 322.14L453.861 317.14L443.489 317.644L445.386 309.163L437.535 302.803L440.482 300.269L441.26 296.086L435.587 295.579L428.435 301.892L428.884 296.225L425.634 295.342L417.581 296.972L413.922 288.787L408.633 287.938L404.357 292.219L397.314 295.272L394.838 290.685L392.926 290.856L388.911 295.621L384.609 293.276L376.648 292.823L373.308 295.757L374.596 297.213L369.973 299.841L372.287 305.11L375.805 307.749L374.97 315.656L380.131 319.492L378.954 328.636L385.173 330.244L391.68 328.868L393.431 331.345L395.807 328.142L401.957 336.065L399.965 342.919L399.503 349.446L403.057 354.769L408.096 355.731L410.866 353.463L415.659 356.551L412.398 360.272L417.8 362.604L421.616 367.21L418.958 375.587L411.014 375.464L408.777 377.12L409.263 380.045L416.385 385.721V392.335L413.539 397.398H418.195L421.764 400.128L429.331 392.983L430.39 387.956L434.518 390.493L434.018 394.745L433.641 399.242L435.441 398.825L438.128 395.411L446.106 399.515L450.217 395.601L448.577 389.274L452.507 387.959L453.421 390.369L461.868 389.6L463.181 386.855" fill="#7EEAA6"/>
<path fill-rule="evenodd" clip-rule="evenodd" d="M415.027 386.373L408.009 380.784L407.3 376.526L410.572 374.103L417.966 374.219L420.099 367.505L416.967 363.723L410.149 360.782L413.602 356.838L410.963 355.139L408.464 357.181L402.239 355.99L398.119 349.811L398.62 342.681L400.462 336.35L395.826 330.382L393.408 333.651L391.088 330.379L385.138 331.636L377.459 329.646L378.685 320.108L373.538 316.28L374.378 308.369L371.187 305.98L368.233 299.265L372.472 296.861L370.463 294.592L361.84 294.348L359.65 289.858L354.319 291.788L349.752 289.501L345.159 290.965L344.425 297.205L335.209 297.735L333.155 294.713L329.55 297.985L322.784 297.208L318.298 292.835L314.882 293.215L314.651 298.752L308.366 302.483L312.929 309.069L317.938 303.731L323.021 309.205V316.454L325.45 322.351L322.281 330.095L318.814 337.654L327.266 342.201L333.276 354.235L337.093 348.514L341.768 351.918L340.65 356.015L339.326 365.599L342.435 370.439L339.697 376.801L347.387 381.788L353.954 381.32L357.862 389.617L356.275 398.909L357.678 402.662L355.759 406.074L363.409 412.854L360.551 418.199L350.443 415.168L345.678 409.573L340.148 417.315L332.552 412.251L332.198 408.542L321.129 418.724L319.175 412.864L319.585 405.301L312.977 407.049L308.301 411.727L307.011 423.534L313.594 428.473L308.366 434.898L309.306 442.208L298.777 444.955L297.653 454.387L290.214 457.409L285.37 463.519L287.79 469.68L286.243 476.363L276.077 474.949L271.424 476.622L274.82 481.426L276.585 488.469L286.845 493.27L296.918 495.37L298.783 483.502L303.262 486.485L304.872 492.121L320.771 480.585H332.47L340.823 485.353L342.362 494.978L345.157 489.715L344.31 481.625L338.789 477.546L341.292 474.36L337.021 470.946L337.495 461.709L340.037 452.821L345.412 456.498L345.182 465.177L347.758 467.909L348.555 464.722L347.807 459.469L353.714 458.334L353.28 453.559L359.144 449.829L361.823 453.542L364.773 448.088L367.778 452.474L374.727 442.164L379.554 437.757L374.361 430.07L365.268 427.116L362.797 422.17L363.023 419.266L366.711 412.762L374.358 415.144L379.681 425.322L383.247 431.671L389.019 424.312L388.551 417.104L395.157 413.917L395.613 404.079L403.452 402.416L410.748 397.398H411.976L415.027 391.979V386.373" fill="#7EEAA6"/>
<path fill-rule="evenodd" clip-rule="evenodd" d="M313.578 291.997L318.786 291.421L323.404 295.911L329.094 296.569L333.398 292.659L335.9 296.336L343.215 295.914L343.913 289.94L349.868 288.039L354.406 290.314L359.078 288.622L357.651 285.376L349.02 279.031L354.051 273.858L358.083 276.823L361.323 272.918L358.969 270.886L358.596 264.203L358.701 259.09L353.872 258.738L353.154 252.413L349.04 252.299L347.466 246.24L346.459 240.31L343.428 239.426L344.08 234.656L341.459 235.528L340.698 229.884L347.077 225.193L346.75 218.777L336.362 209.872L340.037 206.069L340.134 203.494L338.574 201.801L340.131 198.569L336.965 195.144L340.733 192.03L339.011 190.612L334.162 190.385L327.111 194.453H316.612L312.67 188.4L314.021 181.891L312.935 174.292L308.549 174.887L304.113 179.211L298.086 179.851L291.862 177.435L287.64 181.538L282.77 179.164L276.466 180.918L268.811 180.798L264.266 182.388L261.062 185.494L262.707 188.129L262.046 191.682L260.586 196.917L259.053 199.542L263.241 207.459L264.71 217.104L264.185 222.988L258.773 225.345L253.484 221.231L249.97 223.98L246.483 225.026L242.546 230.873L243.024 248.933L238.605 256.802L242.184 256.704L245.944 261.504L247.988 268.035L253.024 271.811L259.22 271.12L266.387 279.652L272.497 280.015V285.123L282.713 286.109L288.953 295.301L294.057 291.798L304.883 293.96L307.357 301.022L307.59 301.361L313.327 297.962L313.578 291.997" fill="#FFBE51"/>
<path fill-rule="evenodd" clip-rule="evenodd" d="M401.979 138.663H403.448H404.679L406.318 139.843L407.039 141.079V143.252L406.318 144.742H404.509H402.669L401.979 145.416L400.907 146.726V148.763L401.979 149.654V150.899L403.448 151.983H405.473L406.318 152.625L407.039 153.85L405.473 155.337V156.806H404.509H403.448L403.973 158.78L402.669 159.722H400.907V158.78L399.91 159.722V160.56V161.664L398.632 162.481L398.04 161.664C398.04 161.664 397.192 160.886 397.192 160.886C397.192 160.886 396.889 159.925 396.889 159.925C396.889 159.925 396.77 159.33 396.465 159.33C396.159 159.33 395.631 159.047 395.426 159.047C395.221 159.047 393.946 159.33 393.946 159.33C393.946 159.33 393.709 160.279 393.709 160.279C393.709 160.279 394.242 161.423 394.242 161.664C394.242 161.905 394.553 162.481 394.553 162.481C394.553 162.481 395.426 163.926 395.426 163.926C395.426 163.926 395.63 164.003 395.248 164.388C394.866 164.773 394.553 165.629 394.553 165.629C394.553 165.629 394.553 165.511 394.553 166.267C394.553 167.023 393.946 167.252 393.946 167.252C393.946 167.252 393.837 167.334 393.523 167.735C393.209 168.137 393.113 168.972 393.161 169.278C393.209 169.583 393.327 169.712 393.327 170.078C393.327 170.444 393.327 170.939 393.327 171.348C393.327 171.756 393.327 172.041 393.327 172.444C393.327 172.847 393.382 173.175 392.976 173.175C392.569 173.175 392.673 173.463 392.367 173.463C392.06 173.463 391.909 173.781 391.443 173.781C390.978 173.781 391.609 174.099 390.728 173.781C389.847 173.463 389.816 173.752 389.605 173.463C389.394 173.175 389.515 173.176 389.306 172.81C389.096 172.444 388.897 171.348 388.897 171.348L388.636 169.837C388.636 169.837 388.633 168.984 388.351 168.578C388.068 168.173 388.03 168.219 387.851 167.977C387.672 167.735 387.501 167.609 387.501 167.252C387.501 166.895 387.162 165.629 387.162 165.629C387.162 165.629 386.714 164.388 386.451 164.388C386.188 164.388 385.498 164.026 385.199 163.658C384.901 163.29 384.977 163.261 384.723 163.07C384.469 162.879 384.118 162.852 384.118 162.666C384.118 162.481 384.118 161.879 384.118 161.879C384.118 161.879 383.731 161.213 383.731 161.213C383.731 161.213 383.798 160.559 383.329 160.886C382.86 161.213 381.584 161.213 381.584 161.213C381.584 161.213 381.344 161.213 381.092 161.213C380.84 161.213 378.811 161.052 379.04 160.886C379.27 160.72 380.39 160.129 380.39 159.925C380.39 159.722 380.613 159.965 380.39 159.506C380.167 159.047 380.108 159.081 380.108 158.581C380.108 158.08 380.108 157.855 380.108 157.855C380.108 157.855 380.799 157.917 379.92 157.675C379.04 157.434 378.998 157.357 378.486 157.357C377.974 157.357 377.469 156.806 377.469 156.806C377.469 156.806 376.975 155.839 376.975 155.839C376.975 155.839 376.795 155.048 376.795 154.77C376.795 154.492 376.795 154.656 376.795 154.253C376.795 153.85 376.315 153.676 376.315 153.327C376.315 152.979 376.053 152.866 376.053 152.625C376.053 152.384 376.485 152.215 376.053 151.983C375.621 151.751 375.206 151.396 374.904 151.396C374.603 151.396 374.447 151.396 374.276 151.396C374.106 151.396 373.656 151.196 373.487 151.396C373.317 151.596 373.172 151.983 372.593 151.983C372.013 151.983 371.701 152.006 371.701 152.185C371.701 152.365 371.632 152.348 371.441 152.625C371.25 152.903 371.318 152.701 371.079 153.107C370.839 153.513 372.013 153.448 370.803 153.85C369.593 154.253 369.471 154.253 369.088 154.253C368.705 154.253 368.913 154.253 368.192 154.253C367.471 154.253 367 153.85 367 153.85C367 153.85 367 153.589 367 153.107C367 152.625 367.33 151.685 367.33 151.983C367.33 152.281 367.617 151.396 367.617 151.396C367.617 151.396 367.375 151.845 367.617 151.18C367.858 150.514 368.192 150.15 368.192 150.15C368.192 150.15 368.525 148.647 368.72 148.454C368.916 148.262 369.171 147.648 369.382 147.365C369.593 147.082 369.514 147.147 369.719 146.937C369.924 146.726 370.023 146.717 370.237 146.462C370.451 146.207 370.545 146.273 370.545 146.006C370.545 145.74 370.803 145.92 370.803 145.416C370.803 144.912 370.716 144.482 371.079 144.482C371.441 144.482 371.543 144.332 371.701 144.011C371.859 143.689 371.744 143.447 372.012 143.078C372.279 142.71 373.487 142.268 373.487 142.268C373.487 142.268 372.888 142.323 373.487 142.111C374.085 141.899 373.649 142.236 374.276 141.658C374.904 141.079 374.904 141.216 374.904 140.707C374.904 140.198 375.078 140.106 375.078 139.843C375.078 139.58 374.861 139.409 375.078 139.216C375.294 139.022 375.791 138.663 376.053 138.663C376.315 138.663 377.024 138.296 377.247 138.296C377.469 138.296 378.683 138.296 378.862 138.296C379.04 138.296 380.506 138.461 380.799 138.461C381.092 138.461 381.763 138.461 381.763 138.461L382.764 138.296L383.731 139.548C383.731 139.548 384.118 140.145 384.118 140.303C384.118 140.46 384.118 141.079 384.118 141.079C384.118 141.079 384.358 141.373 384.358 141.658C384.358 141.942 384.723 142.743 384.723 142.743C384.723 142.743 384.415 142.904 385.037 143.078C385.66 143.252 385.968 143.576 386.293 143.576C386.617 143.576 386.463 143.576 386.812 143.576C387.162 143.576 388.375 143.576 388.636 143.576C388.897 143.576 389.297 143.252 389.605 143.252C389.913 143.252 390.347 143.078 390.728 143.078C391.109 143.078 390.951 143.252 391.659 143.252C392.367 143.252 392.402 143.252 392.578 143.252C392.754 143.252 392.995 143.078 393.161 143.078C393.327 143.078 393.946 142.495 393.946 142.495C393.946 142.495 395.248 142.341 395.248 142.111C395.248 141.881 395.426 141.722 395.426 141.4C395.426 141.079 395.426 140.287 395.426 140.065C395.426 139.843 395.598 138.666 395.598 138.296C395.598 137.926 396.884 137.433 397.192 137.245C397.5 137.057 397.855 136.966 398.04 137.012C398.225 137.057 398.707 137.245 398.945 137.245C399.183 137.245 398.913 137.09 399.91 137.775C400.907 138.461 401.134 138.348 401.33 138.663C401.526 138.979 401.979 138.663 401.979 138.663Z" fill="#FFBE51"/>
</g>
</svg>
