<svg width="916" height="490" viewBox="0 0 916 490" fill="none" xmlns="http://www.w3.org/2000/svg">
<rect x="447" y="36.5" width="425" height="1" transform="rotate(90 447 36.5)" stroke="#15161A" stroke-width="2" stroke-linecap="square"/>
<path d="M446 179H447V177H446V179ZM274.293 177.293C273.902 177.683 273.902 178.317 274.293 178.707L280.657 185.071C281.047 185.462 281.681 185.462 282.071 185.071C282.462 184.681 282.462 184.047 282.071 183.657L276.414 178L282.071 172.343C282.462 171.953 282.462 171.319 282.071 170.929C281.681 170.538 281.047 170.538 280.657 170.929L274.293 177.293ZM446 177H275V179H446V177Z" fill="#15161A"/>
<path d="M445.502 111L446.502 110.998L446.498 108.998L445.498 109L445.502 111ZM155.292 109.794C154.902 110.185 154.903 110.818 155.294 111.208L161.669 117.561C162.06 117.951 162.693 117.95 163.083 117.559C163.473 117.168 163.472 116.534 163.081 116.145L157.414 110.498L163.061 104.831C163.451 104.44 163.45 103.807 163.059 103.417C162.668 103.027 162.034 103.028 161.645 103.419L155.292 109.794ZM445.498 109L155.998 109.5L156.002 111.5L445.502 111L445.498 109Z" fill="#15161A"/>
<path d="M446 331H447V329H446V331ZM274.293 329.293C273.902 329.683 273.902 330.317 274.293 330.707L280.657 337.071C281.047 337.462 281.681 337.462 282.071 337.071C282.462 336.681 282.462 336.047 282.071 335.657L276.414 330L282.071 324.343C282.462 323.953 282.462 323.319 282.071 322.929C281.681 322.538 281.047 322.538 280.657 322.929L274.293 329.293ZM446 329H275V331H446V329Z" fill="#15161A"/>
<path d="M448 248H447V250H448V248ZM553.082 249.707C553.473 249.317 553.473 248.683 553.082 248.293L546.718 241.929C546.328 241.538 545.694 241.538 545.304 241.929C544.913 242.319 544.913 242.953 545.304 243.343L550.961 249L545.304 254.657C544.913 255.047 544.913 255.681 545.304 256.071C545.694 256.462 546.328 256.462 546.718 256.071L553.082 249.707ZM448 250H552.375V248H448V250Z" fill="#15161A"/>
<path d="M446 37C446.552 37 447 36.5523 447 36C447 35.4477 446.552 35 446 35V37ZM274.293 35.2929C273.902 35.6834 273.902 36.3166 274.293 36.7071L280.657 43.0711C281.047 43.4616 281.681 43.4616 282.071 43.0711C282.462 42.6805 282.462 42.0474 282.071 41.6569L276.414 36L282.071 30.3431C282.462 29.9526 282.462 29.3195 282.071 28.9289C281.681 28.5384 281.047 28.5384 280.657 28.9289L274.293 35.2929ZM446 35L275 35V37L446 37V35Z" fill="#15161A"/>
<path d="M446 462H447V460H446V462ZM274.293 460.293C273.902 460.683 273.902 461.317 274.293 461.707L280.657 468.071C281.047 468.462 281.681 468.462 282.071 468.071C282.462 467.681 282.462 467.047 282.071 466.657L276.414 461L282.071 455.343C282.462 454.953 282.462 454.319 282.071 453.929C281.681 453.538 281.047 453.538 280.657 453.929L274.293 460.293ZM446 460H275V462H446V460Z" fill="#15161A"/>
<path d="M307.146 55.6464C306.951 55.8417 306.951 56.1583 307.146 56.3536L310.328 59.5355C310.524 59.7308 310.84 59.7308 311.036 59.5355C311.231 59.3403 311.231 59.0237 311.036 58.8284L308.207 56L311.036 53.1716C311.231 52.9763 311.231 52.6597 311.036 52.4645C310.84 52.2692 310.524 52.2692 310.328 52.4645L307.146 55.6464ZM465.439 56H465.939V55.5H465.439V56ZM465.439 219H464.939V219.5H465.439V219ZM553.854 219.354C554.049 219.158 554.049 218.842 553.854 218.646L550.672 215.464C550.476 215.269 550.16 215.269 549.964 215.464C549.769 215.66 549.769 215.976 549.964 216.172L552.793 219L549.964 221.828C549.769 222.024 549.769 222.34 549.964 222.536C550.16 222.731 550.476 222.731 550.672 222.536L553.854 219.354ZM307.5 56.5L465.439 56.5V55.5L307.5 55.5V56.5ZM464.939 56V219H465.939V56H464.939ZM465.439 219.5H553.5V218.5H465.439V219.5Z" fill="#ED6638"/>
<path d="M464.854 156.354C465.049 156.158 465.049 155.842 464.854 155.646L461.672 152.464C461.476 152.269 461.16 152.269 460.964 152.464C460.769 152.66 460.769 152.976 460.964 153.172L463.793 156L460.964 158.828C460.769 159.024 460.769 159.34 460.964 159.536C461.16 159.731 461.476 159.731 461.672 159.536L464.854 156.354ZM308.146 155.646C307.951 155.842 307.951 156.158 308.146 156.354L311.328 159.536C311.524 159.731 311.84 159.731 312.036 159.536C312.231 159.34 312.231 159.024 312.036 158.828L309.207 156L312.036 153.172C312.231 152.976 312.231 152.66 312.036 152.464C311.84 152.269 311.524 152.269 311.328 152.464L308.146 155.646ZM464.5 155.5H308.5V156.5H464.5V155.5Z" fill="#ED6638"/>
<path d="M464.854 123.354C465.049 123.158 465.049 122.842 464.854 122.646L461.672 119.464C461.476 119.269 461.16 119.269 460.964 119.464C460.769 119.66 460.769 119.976 460.964 120.172L463.793 123L460.964 125.828C460.769 126.024 460.769 126.34 460.964 126.536C461.16 126.731 461.476 126.731 461.672 126.536L464.854 123.354ZM184.146 122.646C183.951 122.842 183.951 123.158 184.146 123.354L187.328 126.536C187.524 126.731 187.84 126.731 188.036 126.536C188.231 126.34 188.231 126.024 188.036 125.828L185.207 123L188.036 120.172C188.231 119.976 188.231 119.66 188.036 119.464C187.84 119.269 187.524 119.269 187.328 119.464L184.146 122.646ZM464.5 122.5L184.5 122.5V123.5L464.5 123.5V122.5Z" fill="#ED6638"/>
<path d="M654.548 217.145H627.451C626.83 217.145 626.322 217.653 626.322 218.274V244.242H655.677V218.274C655.677 217.653 655.169 217.145 654.548 217.145Z" fill="#F1F3F8"/>
<path d="M636.484 257.79V271.339H607.129V257.79C607.129 256.548 608.145 255.532 609.387 255.532H621.806H626.322H634.226C635.468 255.532 636.484 256.548 636.484 257.79Z" fill="#5AC9E6"/>
<rect x="627" y="235.125" width="28" height="8.75" fill="#5AC9E6"/>
<path fill-rule="evenodd" clip-rule="evenodd" d="M661.323 254.403H672.613C674.48 254.403 676 255.923 676 257.79V273.597C676 275.464 674.48 276.984 672.613 276.984H665.839V279.242H670.355V281.5H650.032V279.242H654.548V276.984H647.774C645.907 276.984 644.387 275.464 644.387 273.597V258.919H637.613V273.597C637.613 275.464 636.093 276.984 634.226 276.984H627.452V279.242H631.968V281.5H611.645V279.242H616.161V276.984H609.387C607.52 276.984 606 275.464 606 273.597V257.79C606 255.923 607.52 254.403 609.387 254.403H620.677V217.145C620.677 214.032 623.21 211.5 626.323 211.5H655.677C658.79 211.5 661.323 214.032 661.323 217.145V254.403ZM673.742 270.21V257.79C673.742 257.168 673.236 256.661 672.613 256.661H647.774C647.151 256.661 646.645 257.168 646.645 257.79V270.21H673.742ZM634.226 254.403H627.452V245.371H654.548V254.403H647.774C646.304 254.403 645.062 255.35 644.595 256.661H637.404C636.938 255.35 635.696 254.403 634.226 254.403ZM627.452 225.048H654.548V218.274H627.452V225.048ZM627.452 227.306H654.548V234.081H627.452V227.306ZM654.548 236.339H627.452V243.113H654.548V236.339ZM622.935 217.145C622.935 215.278 624.455 213.758 626.323 213.758H655.677C657.545 213.758 659.065 215.278 659.065 217.145V254.403H656.806V218.274C656.806 217.029 655.794 216.016 654.548 216.016H627.452C626.206 216.016 625.194 217.029 625.194 218.274V254.403H622.935V217.145ZM634.226 256.661H609.387C608.764 256.661 608.258 257.168 608.258 257.79V270.21H635.355V257.79C635.355 257.168 634.849 256.661 634.226 256.661ZM625.194 279.242H618.419V276.984H625.194V279.242ZM609.387 274.726H634.226C634.849 274.726 635.355 274.219 635.355 273.597V272.468H608.258V273.597C608.258 274.219 608.764 274.726 609.387 274.726ZM663.581 279.242H656.806V276.984H663.581V279.242ZM647.774 274.726H672.613C673.236 274.726 673.742 274.219 673.742 273.597V272.468H646.645V273.597C646.645 274.219 647.151 274.726 647.774 274.726Z" fill="#15161A"/>
<path d="M629.709 220.532H631.967V222.79H629.709V220.532Z" fill="#15161A"/>
<path d="M634.227 220.532H636.485V222.79H634.227V220.532Z" fill="#15161A"/>
<path d="M638.742 220.532H641V222.79H638.742V220.532Z" fill="#15161A"/>
<path d="M650.033 229.564H652.291V231.823H650.033V229.564Z" fill="#15161A"/>
<path d="M645.516 229.564H647.774V231.823H645.516V229.564Z" fill="#15161A"/>
<path d="M641 229.564H643.258V231.823H641V229.564Z" fill="#15161A"/>
<path d="M629.709 238.597H631.967V240.855H629.709V238.597Z" fill="#15161A"/>
<path d="M634.227 238.597H636.485V240.855H634.227V238.597Z" fill="#15161A"/>
<path d="M638.742 238.597H641V240.855H638.742V238.597Z" fill="#15161A"/>
<path fill-rule="evenodd" clip-rule="evenodd" d="M637.613 251.016C637.613 249.149 639.133 247.629 641 247.629C642.868 247.629 644.387 249.149 644.387 251.016C644.387 252.883 642.868 254.403 641 254.403C639.133 254.403 637.613 252.883 637.613 251.016ZM639.871 251.016C639.871 251.638 640.377 252.145 641 252.145C641.624 252.145 642.129 251.638 642.129 251.016C642.129 250.394 641.624 249.887 641 249.887C640.377 249.887 639.871 250.394 639.871 251.016Z" fill="#15161A"/>
<path fill-rule="evenodd" clip-rule="evenodd" d="M665.838 252.145V228.228C664.527 227.76 663.58 226.518 663.58 225.048C663.58 223.181 665.1 221.661 666.967 221.661C668.835 221.661 670.354 223.181 670.354 225.048C670.354 226.518 669.407 227.76 668.096 228.228V252.145H665.838ZM668.096 225.048C668.096 224.426 667.59 223.919 666.967 223.919C666.344 223.919 665.838 224.426 665.838 225.048C665.838 225.67 666.344 226.177 666.967 226.177C667.59 226.177 668.096 225.67 668.096 225.048Z" fill="#15161A"/>
<path fill-rule="evenodd" clip-rule="evenodd" d="M672.614 252.145C670.746 252.145 669.227 250.625 669.227 248.758C669.227 247.288 670.174 246.046 671.485 245.579V221.661H673.743V245.579C675.053 246.046 676.001 247.288 676.001 248.758C676.001 250.625 674.481 252.145 672.614 252.145ZM671.485 248.758C671.485 249.38 671.99 249.887 672.614 249.887C673.237 249.887 673.743 249.38 673.743 248.758C673.743 248.136 673.237 247.629 672.614 247.629C671.99 247.629 671.485 248.136 671.485 248.758Z" fill="#15161A"/>
<path fill-rule="evenodd" clip-rule="evenodd" d="M608.258 252.145V228.228C606.947 227.76 606 226.518 606 225.048C606 223.181 607.52 221.661 609.387 221.661C611.255 221.661 612.774 223.181 612.774 225.048C612.774 226.518 611.827 227.76 610.516 228.228V252.145H608.258ZM610.516 225.048C610.516 224.426 610.01 223.919 609.387 223.919C608.764 223.919 608.258 224.426 608.258 225.048C608.258 225.67 608.764 226.177 609.387 226.177C610.01 226.177 610.516 225.67 610.516 225.048Z" fill="#15161A"/>
<path fill-rule="evenodd" clip-rule="evenodd" d="M615.032 252.145C613.164 252.145 611.645 250.625 611.645 248.758C611.645 247.288 612.592 246.046 613.903 245.579V221.661H616.161V245.579C617.471 246.046 618.419 247.288 618.419 248.758C618.419 250.625 616.899 252.145 615.032 252.145ZM613.903 248.758C613.903 249.38 614.408 249.887 615.032 249.887C615.655 249.887 616.161 249.38 616.161 248.758C616.161 248.136 615.655 247.629 615.032 247.629C614.408 247.629 613.903 248.136 613.903 248.758Z" fill="#15161A"/>
<path d="M648.902 258.919H651.16V261.177H648.902V258.919Z" fill="#15161A"/>
<path d="M653.42 258.919H655.678V261.177H653.42V258.919Z" fill="#15161A"/>
<path d="M657.936 258.919H660.194V261.177H657.936V258.919Z" fill="#15161A"/>
<path d="M630.838 265.693H633.096V267.951H630.838V265.693Z" fill="#15161A"/>
<path d="M626.322 265.693H628.58V267.951H626.322V265.693Z" fill="#15161A"/>
<path d="M621.807 265.693H624.065V267.951H621.807V265.693Z" fill="#15161A"/>
<path d="M181.166 39H191.666V64.6667H181.166V39Z" fill="#5AC9E6"/>
<path d="M170.666 39H181.166V64.6667H170.666V39Z" fill="#5AC9E6"/>
<path d="M188.166 11.0002V15.6668H183.499V20.3335H178.833V15.6668H174.166V11.0002H178.833V6.3335H183.499V11.0002H188.166Z" fill="#5AC9E6"/>
<path fill-rule="evenodd" clip-rule="evenodd" d="M177.667 20.3332V16.8332H174.167C173.522 16.8332 173 16.3108 173 15.6665V10.9998C173 10.3555 173.522 9.83317 174.167 9.83317H177.667V6.33317C177.667 5.68884 178.189 5.1665 178.833 5.1665H183.5C184.144 5.1665 184.667 5.68884 184.667 6.33317V9.83317H188.167C188.811 9.83317 189.333 10.3555 189.333 10.9998V15.6665C189.333 16.3108 188.811 16.8332 188.167 16.8332H184.667V20.3332C184.667 20.9775 184.144 21.4998 183.5 21.4998H178.833C178.189 21.4998 177.667 20.9775 177.667 20.3332ZM178.833 12.1665H175.333V14.4998H178.833C179.478 14.4998 180 15.0222 180 15.6665V19.1665H182.333V15.6665C182.333 15.0222 182.856 14.4998 183.5 14.4998H187V12.1665H183.5C182.856 12.1665 182.333 11.6442 182.333 10.9998V7.49984H180V10.9998C180 11.6442 179.478 12.1665 178.833 12.1665Z" fill="#15161A"/>
<path fill-rule="evenodd" clip-rule="evenodd" d="M229 16.8335C229 17.4778 228.478 18.0001 227.833 18.0001H226.667V63.5001H227.833C228.478 63.5001 229 64.0225 229 64.6668V69.3335C229 69.9778 228.478 70.5001 227.833 70.5001H160.167C159.522 70.5001 159 69.9778 159 69.3335V64.6668C159 64.0225 159.522 63.5001 160.167 63.5001H161.333V18.0001H160.167C159.522 18.0001 159 17.4778 159 16.8335V9.83347C159 9.18914 159.522 8.6668 160.167 8.6668H169.22C171.139 3.74283 175.882 0.500488 181.167 0.500488C186.451 0.500488 191.195 3.74283 193.113 8.6668H227.833C228.478 8.6668 229 9.18914 229 9.83347V16.8335ZM191.667 13.3335C191.667 7.53448 186.966 2.83347 181.167 2.83347C175.371 2.84246 170.676 7.53821 170.667 13.3335C170.667 19.1325 175.368 23.8335 181.167 23.8335C186.966 23.8335 191.667 19.1325 191.667 13.3335ZM181.167 26.1668C186.448 26.1553 191.185 22.9168 193.113 18.0001H224.333V63.5001H192.833V39.0001C192.833 38.3558 192.311 37.8335 191.667 37.8335H170.667C170.022 37.8335 169.5 38.3558 169.5 39.0001V63.5001H163.667V18.0001H169.22C171.148 22.9168 175.886 26.1553 181.167 26.1668ZM190.5 63.5001V40.1668H182.333V63.5001H190.5ZM180 40.1668V63.5001H171.833V40.1668H180ZM168.555 11.0001H161.333V15.6668H168.555C168.259 14.1253 168.259 12.5417 168.555 11.0001ZM226.667 65.8335V68.1668H161.333V65.8335H226.667ZM193.778 11.0001C194.074 12.5417 194.074 14.1253 193.778 15.6668H226.667V11.0001H193.778Z" fill="#15161A"/>
<path fill-rule="evenodd" clip-rule="evenodd" d="M220.834 49.5002V39.0002C220.834 38.3558 220.312 37.8335 219.667 37.8335H198.667C198.023 37.8335 197.501 38.3558 197.501 39.0002V49.5002H196.334V51.8335H222.001V49.5002H220.834ZM208.001 49.5002H199.834V44.2968H208.001V49.5002ZM199.834 41.9635H208.001V40.1668H199.834V41.9635ZM218.501 49.5002H210.334V44.2968H218.501V49.5002ZM210.334 41.9635H218.501V40.1668H210.334V41.9635Z" fill="#15161A"/>
<path d="M176.5 49.5H178.833V51.8333H176.5V49.5Z" fill="black"/>
<path d="M183.5 49.5H185.833V51.8333H183.5V49.5Z" fill="black"/>
<path d="M84.166 109H94.666V134.667H84.166V109Z" fill="#5AC9E6"/>
<path d="M73.666 109H84.166V134.667H73.666V109Z" fill="#5AC9E6"/>
<path d="M91.166 81.0002V85.6668H86.4993V90.3335H81.8327V85.6668H77.166V81.0002H81.8327V76.3335H86.4993V81.0002H91.166Z" fill="#5AC9E6"/>
<path fill-rule="evenodd" clip-rule="evenodd" d="M80.6667 90.3332V86.8332H77.1667C76.5223 86.8332 76 86.3108 76 85.6665V80.9998C76 80.3555 76.5223 79.8332 77.1667 79.8332H80.6667V76.3332C80.6667 75.6888 81.189 75.1665 81.8333 75.1665H86.5C87.1443 75.1665 87.6667 75.6888 87.6667 76.3332V79.8332H91.1667C91.811 79.8332 92.3333 80.3555 92.3333 80.9998V85.6665C92.3333 86.3108 91.811 86.8332 91.1667 86.8332H87.6667V90.3332C87.6667 90.9775 87.1443 91.4998 86.5 91.4998H81.8333C81.189 91.4998 80.6667 90.9775 80.6667 90.3332ZM81.8333 82.1665H78.3333V84.4998H81.8333C82.4777 84.4998 83 85.0222 83 85.6665V89.1665H85.3333V85.6665C85.3333 85.0222 85.8557 84.4998 86.5 84.4998H90V82.1665H86.5C85.8557 82.1665 85.3333 81.6442 85.3333 80.9998V77.4998H83V80.9998C83 81.6442 82.4777 82.1665 81.8333 82.1665Z" fill="#15161A"/>
<path fill-rule="evenodd" clip-rule="evenodd" d="M132 86.8335C132 87.4778 131.478 88.0001 130.833 88.0001H129.667V133.5H130.833C131.478 133.5 132 134.022 132 134.667V139.333C132 139.978 131.478 140.5 130.833 140.5H63.1667C62.5223 140.5 62 139.978 62 139.333V134.667C62 134.022 62.5223 133.5 63.1667 133.5H64.3333V88.0001H63.1667C62.5223 88.0001 62 87.4778 62 86.8335V79.8335C62 79.1891 62.5223 78.6668 63.1667 78.6668H72.22C74.1388 73.7428 78.882 70.5005 84.1667 70.5005C89.4513 70.5005 94.1946 73.7428 96.1133 78.6668H130.833C131.478 78.6668 132 79.1891 132 79.8335V86.8335ZM94.6667 83.3335C94.6667 77.5345 89.9657 72.8335 84.1667 72.8335C78.3714 72.8425 73.6757 77.5382 73.6667 83.3335C73.6667 89.1325 78.3677 93.8335 84.1667 93.8335C89.9657 93.8335 94.6667 89.1325 94.6667 83.3335ZM84.1667 96.1668C89.4478 96.1553 94.1853 92.9168 96.1133 88.0001H127.333V133.5H95.8333V109C95.8333 108.356 95.311 107.833 94.6667 107.833H73.6667C73.0223 107.833 72.5 108.356 72.5 109V133.5H66.6667V88.0001H72.22C74.148 92.9168 78.8855 96.1553 84.1667 96.1668ZM93.5 133.5V110.167H85.3333V133.5H93.5ZM83 110.167V133.5H74.8333V110.167H83ZM71.555 81.0001H64.3333V85.6668H71.555C71.2594 84.1253 71.2594 82.5417 71.555 81.0001ZM129.667 135.833V138.167H64.3333V135.833H129.667ZM96.7783 81.0001C97.0739 82.5417 97.0739 84.1253 96.7783 85.6668H129.667V81.0001H96.7783Z" fill="#15161A"/>
<path fill-rule="evenodd" clip-rule="evenodd" d="M123.834 119.5V109C123.834 108.356 123.312 107.833 122.667 107.833H101.667C101.023 107.833 100.501 108.356 100.501 109V119.5H99.334V121.833H125.001V119.5H123.834ZM111.001 119.5H102.834V114.297H111.001V119.5ZM102.834 111.963H111.001V110.167H102.834V111.963ZM121.501 119.5H113.334V114.297H121.501V119.5ZM113.334 111.963H121.501V110.167H113.334V111.963Z" fill="#15161A"/>
<path d="M79.5 119.5H81.8333V121.833H79.5V119.5Z" fill="black"/>
<path d="M86.5 119.5H88.8333V121.833H86.5V119.5Z" fill="black"/>
<path d="M188.166 182H198.666V207.667H188.166V182Z" fill="#5AC9E6"/>
<path d="M177.666 182H188.166V207.667H177.666V182Z" fill="#5AC9E6"/>
<path d="M195.166 154V158.667H190.499V163.333H185.833V158.667H181.166V154H185.833V149.333H190.499V154H195.166Z" fill="#5AC9E6"/>
<path fill-rule="evenodd" clip-rule="evenodd" d="M184.667 163.333V159.833H181.167C180.522 159.833 180 159.311 180 158.667V154C180 153.356 180.522 152.833 181.167 152.833H184.667V149.333C184.667 148.689 185.189 148.167 185.833 148.167H190.5C191.144 148.167 191.667 148.689 191.667 149.333V152.833H195.167C195.811 152.833 196.333 153.356 196.333 154V158.667C196.333 159.311 195.811 159.833 195.167 159.833H191.667V163.333C191.667 163.978 191.144 164.5 190.5 164.5H185.833C185.189 164.5 184.667 163.978 184.667 163.333ZM185.833 155.167H182.333V157.5H185.833C186.478 157.5 187 158.022 187 158.667V162.167H189.333V158.667C189.333 158.022 189.856 157.5 190.5 157.5H194V155.167H190.5C189.856 155.167 189.333 154.644 189.333 154V150.5H187V154C187 154.644 186.478 155.167 185.833 155.167Z" fill="#15161A"/>
<path fill-rule="evenodd" clip-rule="evenodd" d="M236 159.833C236 160.478 235.478 161 234.833 161H233.667V206.5H234.833C235.478 206.5 236 207.022 236 207.667V212.333C236 212.978 235.478 213.5 234.833 213.5H167.167C166.522 213.5 166 212.978 166 212.333V207.667C166 207.022 166.522 206.5 167.167 206.5H168.333V161H167.167C166.522 161 166 160.478 166 159.833V152.833C166 152.189 166.522 151.667 167.167 151.667H176.22C178.139 146.743 182.882 143.5 188.167 143.5C193.451 143.5 198.195 146.743 200.113 151.667H234.833C235.478 151.667 236 152.189 236 152.833V159.833ZM198.667 156.333C198.667 150.534 193.966 145.833 188.167 145.833C182.371 145.842 177.676 150.538 177.667 156.333C177.667 162.132 182.368 166.833 188.167 166.833C193.966 166.833 198.667 162.132 198.667 156.333ZM188.167 169.167C193.448 169.155 198.185 165.917 200.113 161H231.333V206.5H199.833V182C199.833 181.356 199.311 180.833 198.667 180.833H177.667C177.022 180.833 176.5 181.356 176.5 182V206.5H170.667V161H176.22C178.148 165.917 182.886 169.155 188.167 169.167ZM197.5 206.5V183.167H189.333V206.5H197.5ZM187 183.167V206.5H178.833V183.167H187ZM175.555 154H168.333V158.667H175.555C175.259 157.125 175.259 155.542 175.555 154ZM233.667 208.833V211.167H168.333V208.833H233.667ZM200.778 154C201.074 155.542 201.074 157.125 200.778 158.667H233.667V154H200.778Z" fill="#15161A"/>
<path fill-rule="evenodd" clip-rule="evenodd" d="M227.834 192.5V182C227.834 181.356 227.312 180.833 226.667 180.833H205.667C205.023 180.833 204.501 181.356 204.501 182V192.5H203.334V194.833H229.001V192.5H227.834ZM215.001 192.5H206.834V187.297H215.001V192.5ZM206.834 184.963H215.001V183.167H206.834V184.963ZM225.501 192.5H217.334V187.297H225.501V192.5ZM217.334 184.963H225.501V183.167H217.334V184.963Z" fill="#15161A"/>
<path d="M183.5 192.5H185.833V194.833H183.5V192.5Z" fill="black"/>
<path d="M190.5 192.5H192.833V194.833H190.5V192.5Z" fill="black"/>
<g clip-path="url(#clip0)">
<path d="M226.886 349.339V354.984C226.886 356.858 225.428 358.371 223.62 358.371H199.668C197.861 358.371 196.402 356.858 196.402 354.984V349.339H226.886Z" fill="#5AC9E6"/>
<path d="M226.886 309.258V314.903H196.402V309.258C196.402 307.384 197.861 305.871 199.668 305.871H223.62C225.428 305.871 226.886 307.384 226.886 309.258Z" fill="#5AC9E6"/>
<path d="M216.726 291.561C219.569 291.561 222.242 292.633 224.253 294.581L225.758 293.123C223.345 290.786 220.137 289.5 216.726 289.5C213.314 289.5 210.106 290.786 207.693 293.123L209.198 294.581C211.208 292.633 213.882 291.561 216.726 291.561Z" fill="#15161A"/>
<path d="M222.935 296.48C221.276 294.891 219.071 294.016 216.726 294.016C214.379 294.016 212.174 294.891 210.516 296.481L212.069 297.968C213.312 296.775 214.966 296.119 216.726 296.119C218.486 296.119 220.139 296.775 221.384 297.967L222.935 296.48Z" fill="#15161A"/>
<path d="M213.338 299.475L214.89 301.355C215.719 300.349 217.164 300.349 217.995 301.355L219.548 299.475C217.889 297.465 214.997 297.465 213.338 299.475Z" fill="#15161A"/>
<path fill-rule="evenodd" clip-rule="evenodd" d="M199.639 304.742H223.65C226.057 304.742 228.015 306.706 228.015 309.122V355.119C228.015 357.535 226.057 359.5 223.65 359.5H199.639C197.231 359.5 195.273 357.535 195.273 355.119V309.122C195.273 306.706 197.231 304.742 199.639 304.742ZM223.65 306.932H199.639C198.435 306.932 197.456 307.914 197.456 309.122V313.503H225.833V309.122C225.833 307.914 224.854 306.932 223.65 306.932ZM225.833 315.693V348.548H197.456V315.693H225.833ZM199.639 357.309H223.65C224.854 357.309 225.833 356.327 225.833 355.119V350.738H197.456V355.119C197.456 356.327 198.435 357.309 199.639 357.309Z" fill="#15161A"/>
<path d="M206.564 352.726H217.29V354.984H206.564V352.726Z" fill="#15161A"/>
<path d="M203.873 331.936L203.766 328.435L201.606 328.444L201.778 334.105L216.607 334.039L216.541 331.88L203.873 331.936Z" fill="#15161A"/>
<path d="M211.964 322.184C217.422 322.184 221.865 326.625 221.865 332.085C221.865 334.361 221.07 336.587 219.629 338.347L221.332 339.742C223.095 337.588 224.065 334.869 224.065 332.085C224.065 325.413 218.636 319.984 211.964 319.984C209.18 319.984 206.461 320.955 204.307 322.717L205.701 324.42C207.462 322.978 209.687 322.184 211.964 322.184Z" fill="#15161A"/>
<path d="M211.325 344.258C214.109 344.258 216.829 343.287 218.983 341.525L217.589 339.822C215.828 341.264 213.602 342.058 211.325 342.058C205.867 342.058 201.425 337.617 201.425 332.157C201.425 329.881 202.219 327.655 203.66 325.895L201.957 324.5C200.195 326.654 199.225 329.373 199.225 332.157C199.225 338.829 204.653 344.258 211.325 344.258Z" fill="#040C34"/>
<path d="M205.435 343.693V349.691C205.435 351.683 203.842 353.29 201.867 353.29H175.697C173.723 353.29 172.129 351.683 172.129 349.691V343.693H205.435Z" fill="#F1F3F8"/>
<path d="M205.435 299.873V305.871H172.129V299.873C172.129 297.881 173.723 296.274 175.697 296.274H201.867C203.842 296.274 205.435 297.881 205.435 299.873Z" fill="#F1F3F8"/>
<path d="M205.435 305.871V343.693H172.129V305.871H205.435Z" fill="#F1F3F8"/>
<path d="M200.919 325.064C200.919 331.612 195.611 336.919 189.064 336.919C182.516 336.919 177.209 331.612 177.209 325.064C177.209 318.517 182.516 313.209 189.064 313.209C195.611 313.209 200.919 318.517 200.919 325.064Z" fill="#5AC9E6"/>
<path fill-rule="evenodd" clip-rule="evenodd" d="M175.742 295.145H201.823C204.438 295.145 206.565 297.272 206.565 299.887V349.677C206.565 352.293 204.438 354.419 201.823 354.419H175.742C173.127 354.419 171 352.293 171 349.677V299.887C171 297.272 173.127 295.145 175.742 295.145ZM201.823 297.516H175.742C174.434 297.516 173.371 298.579 173.371 299.887V304.629H204.194V299.887C204.194 298.579 203.13 297.516 201.823 297.516ZM204.194 307V342.564H173.371V307H204.194ZM175.742 352.048H201.823C203.13 352.048 204.194 350.985 204.194 349.677V344.935H173.371V349.677C173.371 350.985 174.434 352.048 175.742 352.048Z" fill="#15161A"/>
<path d="M182.855 347.081H194.71V349.339H182.855V347.081Z" fill="#15161A"/>
<path d="M184.966 329.101L182.264 326.424L180.598 328.075L184.966 332.403L196.404 321.07L194.738 319.419L184.966 329.101Z" fill="#15161A"/>
<path d="M188.911 313.905C194.838 313.905 199.661 318.727 199.661 324.654C199.661 327.126 198.798 329.542 197.233 331.453L199.083 332.968C200.996 330.629 202.049 327.677 202.049 324.654C202.049 317.41 196.155 311.516 188.911 311.516C185.889 311.516 182.936 312.57 180.598 314.484L182.111 316.332C184.023 314.767 186.439 313.905 188.911 313.905Z" fill="#15161A"/>
<path d="M188.653 338.048C191.676 338.048 194.629 336.994 196.967 335.081L195.454 333.232C193.542 334.797 191.126 335.66 188.653 335.66C182.727 335.66 177.904 330.838 177.904 324.91C177.904 322.438 178.767 320.022 180.332 318.111L178.482 316.597C176.569 318.935 175.516 321.888 175.516 324.91C175.516 332.154 181.41 338.048 188.653 338.048Z" fill="#15161A"/>
</g>
<path d="M903.145 223.878H891.621V221.573V212.354L903.145 223.878Z" fill="#5AC9E6"/>
<path d="M864.551 228.146L851.072 241.683L875.783 275.525L893.755 257.476L864.551 228.146Z" fill="#5AC9E6"/>
<path d="M887.353 257.74L876.073 269.122V256.602L871.561 253.187V248.634L874.945 245.22L887.353 257.74Z" fill="#F1F3F8"/>
<path d="M875.829 268.921V275.7C875.829 278.197 873.817 280.219 871.333 280.219H842.109V241.805H851.101H856.721H866.837C869.321 241.805 871.333 243.827 871.333 246.324V248.584V253.103L875.829 256.493V268.921Z" fill="#F1F3F8"/>
<path d="M842.111 242.03V280.22H839.834C837.319 280.22 835.281 278.209 835.281 275.727V237.537C835.281 240.019 837.319 242.03 839.834 242.03H842.111Z" fill="#5AC9E6"/>
<path fill-rule="evenodd" clip-rule="evenodd" d="M904 265.694V223.452L892.048 211.5H858.839V231.823H839.645C836.532 231.823 834 234.355 834 237.468V275.855C834 278.968 836.532 281.5 839.645 281.5H871.258C874.192 281.5 876.584 279.241 876.85 276.375L887.532 265.694H904ZM892.71 215.355L900.145 222.79H892.71V215.355ZM890.452 225.048V213.758H861.097V230.226L864.484 226.839L872.387 234.742V227.306H899.484V261.177H892.048L889.79 263.435H901.742V225.048H890.452ZM872.387 249.225L874.645 246.967L885.468 257.79L876.903 266.355V256.097L872.387 252.71V249.225ZM888.661 257.79L876.903 269.548V273.129L892.242 257.79L864.484 230.032L853.661 240.855H856.113L863.686 233.282L865.282 234.879L859.306 240.855H866.742C869.709 240.855 872.123 243.164 872.344 246.075L874.645 243.775L888.661 257.79ZM874.645 237V229.565H897.226V258.919H894.306L895.435 257.79L874.645 237ZM857.242 234.081H839.645C837.778 234.081 836.258 235.6 836.258 237.468C836.258 239.335 837.778 240.855 839.645 240.855H850.468L857.242 234.081ZM836.258 275.855V241.982C837.202 242.691 838.375 243.113 839.645 243.113H840.774V279.242H839.645C837.778 279.242 836.258 277.722 836.258 275.855ZM871.258 279.242C873.125 279.242 874.645 277.722 874.645 275.855V257.226L870.129 253.839V246.5C870.129 244.633 868.609 243.113 866.742 243.113H843.032V279.242H871.258Z" fill="#15161A"/>
<path d="M870.281 275.098H872.415V277.232H870.281V275.098Z" fill="#15161A"/>
<path d="M865.586 275.098H867.72V277.232H865.586V275.098Z" fill="#15161A"/>
<path d="M861.316 275.098H863.451V277.232H861.316V275.098Z" fill="#15161A"/>
<path d="M858.756 269.976H872.414V272.11H858.756V269.976Z" fill="#15161A"/>
<path d="M845.523 245.646H847.658V247.781H845.523V245.646Z" fill="#15161A"/>
<path d="M845.523 249.915H847.658V252.049H845.523V249.915Z" fill="#15161A"/>
<path d="M845.523 254.61H847.658V256.744H845.523V254.61Z" fill="#15161A"/>
<path d="M863.451 215.768H865.585V217.902H863.451V215.768Z" fill="#15161A"/>
<path d="M868.146 215.768H888.207V217.902H868.146V215.768Z" fill="#15161A"/>
<path d="M863.451 220.89H888.207V223.024H863.451V220.89Z" fill="#15161A"/>
<path d="M888.207 231.988H895.036V234.122H888.207V231.988Z" fill="#15161A"/>
<path d="M888.207 236.256H895.036V238.39H888.207V236.256Z" fill="#15161A"/>
<path d="M888.207 240.951H895.036V243.085H888.207V240.951Z" fill="#15161A"/>
<path d="M888.207 245.646H895.036V247.781H888.207V245.646Z" fill="#15161A"/>
<path d="M420.148 280.355C419.952 280.16 419.951 279.844 420.145 279.648L423.315 276.454C423.51 276.258 423.826 276.257 424.022 276.451C424.218 276.646 424.219 276.962 424.025 277.158L421.207 279.997L424.046 282.815C424.242 283.01 424.243 283.326 424.049 283.522C423.854 283.718 423.538 283.719 423.342 283.525L420.148 280.355ZM554.352 279.145C554.548 279.34 554.549 279.656 554.355 279.852L551.185 283.046C550.99 283.242 550.674 283.243 550.478 283.049C550.282 282.854 550.281 282.538 550.475 282.342L553.293 279.503L550.454 276.685C550.258 276.49 550.257 276.174 550.451 275.978C550.646 275.782 550.962 275.781 551.158 275.975L554.352 279.145ZM420.498 279.5L553.998 279L554.002 280L420.502 280.5L420.498 279.5Z" fill="#ED6638"/>
<path d="M306.646 198.146C306.451 198.342 306.451 198.658 306.646 198.854L309.828 202.036C310.024 202.231 310.34 202.231 310.536 202.036C310.731 201.84 310.731 201.524 310.536 201.328L307.707 198.5L310.536 195.672C310.731 195.476 310.731 195.16 310.536 194.964C310.34 194.769 310.024 194.769 309.828 194.964L306.646 198.146ZM419 198.5H419.5V198H419V198.5ZM419 315.5V316H419.5V315.5H419ZM306.646 315.146C306.451 315.342 306.451 315.658 306.646 315.854L309.828 319.036C310.024 319.231 310.34 319.231 310.536 319.036C310.731 318.84 310.731 318.524 310.536 318.328L307.707 315.5L310.536 312.672C310.731 312.476 310.731 312.16 310.536 311.964C310.34 311.769 310.024 311.769 309.828 311.964L306.646 315.146ZM307 199H419V198H307V199ZM418.5 198.5V315.5H419.5V198.5H418.5ZM419 315H307V316H419V315Z" fill="#ED6638"/>
<path d="M727 248H726V250H727V248ZM786.382 249.707C786.773 249.317 786.773 248.683 786.382 248.293L780.018 241.929C779.628 241.538 778.995 241.538 778.604 241.929C778.214 242.319 778.214 242.953 778.604 243.343L784.261 249L778.604 254.657C778.214 255.047 778.214 255.681 778.604 256.071C778.995 256.462 779.628 256.462 780.018 256.071L786.382 249.707ZM727 250H785.675V248H727V250Z" fill="#15161A"/>
<path d="M727 218H726V220H727V218ZM786.382 219.707C786.773 219.317 786.773 218.683 786.382 218.293L780.018 211.929C779.628 211.538 778.995 211.538 778.604 211.929C778.214 212.319 778.214 212.953 778.604 213.343L784.261 219L778.604 224.657C778.214 225.047 778.214 225.681 778.604 226.071C778.995 226.462 779.628 226.462 780.018 226.071L786.382 219.707ZM727 220H785.675V218H727V220Z" fill="#15161A"/>
<path d="M727 278H726V280H727V278ZM786.382 279.707C786.773 279.317 786.773 278.683 786.382 278.293L780.018 271.929C779.628 271.538 778.995 271.538 778.604 271.929C778.214 272.319 778.214 272.953 778.604 273.343L784.261 279L778.604 284.657C778.214 285.047 778.214 285.681 778.604 286.071C778.995 286.462 779.628 286.462 780.018 286.071L786.382 279.707ZM727 280H785.675V278H727V280Z" fill="#15161A"/>
<path d="M219.48 488.34H179.645L180.316 483.496L183.06 463.692L183.372 461.434C183.903 457.606 187.176 454.755 191.041 454.755H208.083C211.948 454.755 215.222 457.606 215.752 461.434L216.064 463.692L218.808 483.496L219.48 488.34Z" fill="#5AC9E6"/>
<path d="M222.627 479.537C221.979 481.419 220.601 482.81 218.809 483.496C217.996 483.806 217.098 483.972 216.143 483.972H212.022V478.356H216.143C217.093 478.356 217.244 477.917 217.317 477.705C217.601 476.882 217.401 475.13 215.985 472.683C215.029 471.031 213.247 468.6 209.969 465.596V488.34H189.156V465.596C185.878 468.6 184.096 471.031 183.14 472.683C181.724 475.13 181.525 476.882 181.808 477.705C181.881 477.917 182.033 478.356 182.982 478.356H187.103V483.972H182.982C182.027 483.972 181.129 483.806 180.316 483.496C178.524 482.81 177.146 481.419 176.498 479.537C175.849 477.653 175.631 474.448 178.279 469.871C179.449 467.848 181.048 465.783 183.06 463.691C184.394 462.303 185.912 460.904 187.605 459.499C188.589 458.682 189.829 458.233 191.108 458.233H208.017C209.296 458.233 210.536 458.682 211.52 459.499C213.213 460.904 214.731 462.303 216.065 463.691C218.077 465.783 219.676 467.848 220.846 469.871C223.494 474.448 223.276 477.653 222.627 479.537Z" fill="#F1F3F8"/>
<path d="M188.318 458.234L190.474 460.927C190.933 461.502 191.629 461.836 192.365 461.836H199.562H206.76C207.495 461.836 208.191 461.501 208.651 460.927L210.806 458.234V456.993H188.318V458.234Z" fill="#5AC9E6"/>
<path d="M203.001 468.15H199.736H199.388H196.122L194.381 470.196L198.125 476.413H200.998L204.743 470.196L203.001 468.15Z" fill="#5AC9E6"/>
<path d="M210.627 477.164H209.347C208.387 477.164 207.609 477.942 207.609 478.902V483.401C207.609 484.36 208.387 485.138 209.347 485.138H210.627C211.398 485.138 212.023 484.514 212.023 483.743V478.56C212.023 477.789 211.398 477.164 210.627 477.164Z" fill="#F1F3F8"/>
<path d="M188.499 477.164H189.779C190.739 477.164 191.517 477.942 191.517 478.902V483.401C191.517 484.36 190.739 485.138 189.779 485.138H188.499C187.728 485.138 187.104 484.514 187.104 483.743V478.56C187.104 477.789 187.728 477.164 188.499 477.164Z" fill="#F1F3F8"/>
<path fill-rule="evenodd" clip-rule="evenodd" d="M222.887 471.649C222.665 471.129 222.064 470.888 221.544 471.109C221.024 471.331 220.782 471.932 221.004 472.452C222.368 475.648 222.113 477.887 221.66 479.203C221.122 480.767 219.979 481.952 218.445 482.54C217.732 482.811 216.958 482.949 216.143 482.949H213.046V479.379H216.143C217.528 479.379 218.072 478.652 218.286 478.037C218.508 477.392 218.814 475.527 216.871 472.171C215.951 470.58 214.127 468.017 210.66 464.842C210.361 464.567 209.928 464.496 209.556 464.66C209.185 464.823 208.945 465.191 208.945 465.596V476.173C207.613 476.369 206.586 477.516 206.586 478.901V483.4C206.586 484.786 207.613 485.933 208.945 486.129V488.34C208.945 488.905 209.403 489.363 209.969 489.363C210.534 489.363 210.992 488.905 210.992 488.34V486.131C211.712 486.021 212.328 485.594 212.692 484.995H216.143C216.765 484.995 217.372 484.931 217.958 484.807L218.467 488.48C218.538 488.993 218.976 489.363 219.479 489.363C219.526 489.363 219.574 489.36 219.621 489.354C220.181 489.276 220.572 488.759 220.494 488.2L219.929 484.117C221.66 483.235 222.947 481.752 223.595 479.87C224.166 478.214 224.506 475.444 222.887 471.649ZM215.099 473.196C216.382 475.412 216.493 476.826 216.367 477.316C216.32 477.325 216.247 477.332 216.143 477.332H212.708C212.346 476.72 211.723 476.282 210.992 476.171V468.005C213.173 470.229 214.414 472.01 215.099 473.196ZM208.633 478.901V483.4C208.633 483.794 208.953 484.115 209.347 484.114H209.958H209.979H210.627C210.832 484.114 210.999 483.947 210.999 483.742V478.559C210.999 478.354 210.832 478.187 210.627 478.187H209.347C208.953 478.187 208.633 478.507 208.633 478.901Z" fill="black"/>
<path d="M194.625 445.749C194.893 446.41 195.286 447.004 195.795 447.513C196.803 448.518 198.141 449.072 199.562 449.072C201.742 449.072 203.679 447.768 204.498 445.75C204.71 445.226 204.458 444.63 203.934 444.417C203.41 444.205 202.813 444.457 202.601 444.981C202.097 446.223 200.904 447.025 199.562 447.025C198.687 447.025 197.862 446.684 197.242 446.065C196.929 445.752 196.687 445.388 196.524 444.982C196.312 444.458 195.716 444.205 195.192 444.416C194.667 444.628 194.414 445.224 194.625 445.749Z" fill="black"/>
<path d="M194.244 440.629C194.809 440.629 195.267 440.171 195.267 439.606V439.093C195.267 438.527 194.809 438.069 194.244 438.069C193.679 438.069 193.221 438.527 193.221 439.093V439.606C193.221 440.171 193.679 440.629 194.244 440.629Z" fill="black"/>
<path d="M204.881 440.629C205.446 440.629 205.904 440.171 205.904 439.606V439.093C205.904 438.527 205.446 438.069 204.881 438.069C204.316 438.069 203.857 438.527 203.857 439.093V439.606C203.857 440.171 204.316 440.629 204.881 440.629Z" fill="black"/>
<path fill-rule="evenodd" clip-rule="evenodd" d="M203.001 467.126C203.301 467.126 203.586 467.258 203.78 467.487L205.522 469.533C205.807 469.868 205.846 470.347 205.619 470.724L201.875 476.941C201.69 477.249 201.357 477.437 200.998 477.437H198.125C197.766 477.437 197.434 477.249 197.248 476.941L193.504 470.724C193.277 470.347 193.316 469.868 193.601 469.533L195.343 467.487C195.537 467.258 195.822 467.126 196.122 467.126H203.001ZM198.703 475.39H200.42L203.486 470.299L202.528 469.173H196.595L195.637 470.299L198.703 475.39Z" fill="#15161A"/>
<path fill-rule="evenodd" clip-rule="evenodd" d="M190.181 476.173V465.596C190.181 465.19 189.941 464.823 189.57 464.66C189.198 464.496 188.765 464.568 188.466 464.842C184.999 468.017 183.175 470.58 182.256 472.171C180.313 475.527 180.618 477.392 180.842 478.043C181.054 478.652 181.598 479.379 182.983 479.379H186.08V482.949H182.983C182.169 482.949 181.394 482.811 180.683 482.54C179.147 481.952 178.005 480.767 177.467 479.203C176.887 477.521 176.712 474.625 179.165 470.384C180.289 468.441 181.847 466.43 183.795 464.404L183.797 464.403L183.798 464.401C185.103 463.045 186.603 461.66 188.258 460.287C188.337 460.222 188.419 460.159 188.502 460.1L189.675 461.566C190.333 462.388 191.313 462.859 192.365 462.859H196.731C197.568 463.423 198.54 463.72 199.563 463.72C200.588 463.72 201.561 463.422 202.396 462.859H206.761C207.813 462.859 208.794 462.388 209.452 461.566L210.625 460.1C210.707 460.159 210.788 460.221 210.867 460.286C212.523 461.66 214.024 463.045 215.328 464.401L215.331 464.404L215.331 464.404C216.798 465.929 218.046 467.448 219.042 468.92C219.24 469.212 219.562 469.369 219.89 469.369C220.088 469.369 220.287 469.312 220.463 469.193C220.931 468.877 221.054 468.24 220.737 467.772C219.729 466.283 218.483 464.756 217.035 463.227L216.767 461.294C216.169 456.983 212.437 453.732 208.085 453.732H206.663C206.986 453.483 207.298 453.219 207.595 452.935C209.525 451.097 210.75 448.691 211.104 446.078H212.616C214.549 446.078 216.122 444.506 216.122 442.574V441.399C216.122 440.069 215.376 438.91 214.281 438.316V428.472C214.281 425.202 211.621 422.543 208.352 422.543H206.992C205.967 420.685 203.979 419.5 201.845 419.5H194.897C192.566 419.5 190.296 420.316 188.503 421.796C188.067 422.156 188.006 422.801 188.366 423.237C188.726 423.673 189.371 423.734 189.807 423.374C191.233 422.196 193.041 421.547 194.897 421.547H201.845C204.336 421.547 205.249 423.591 205.413 423.957L205.413 423.957C205.427 423.989 205.436 424.009 205.439 424.013C205.61 424.365 205.968 424.59 206.36 424.59H208.352C210.493 424.59 212.234 426.331 212.234 428.472V437.895H211.212V434.117C211.212 431.167 209.957 428.34 207.769 426.36C207.372 425.999 206.81 425.883 206.303 426.057C205.796 426.231 205.423 426.668 205.33 427.197C204.692 430.826 201.549 433.459 197.858 433.459H188.938C188.373 433.459 187.915 433.917 187.915 434.482V437.895H186.892V429.55C186.892 428.415 187.125 427.319 187.583 426.294C187.813 425.778 187.582 425.172 187.066 424.942C186.549 424.712 185.944 424.943 185.714 425.459C185.138 426.749 184.846 428.126 184.846 429.55V438.316C183.751 438.91 183.005 440.069 183.005 441.399V442.574C183.005 444.506 184.578 446.078 186.511 446.078H188.024C188.441 449.123 190.065 451.876 192.467 453.732H191.042C186.69 453.732 182.957 456.983 182.36 461.294L182.093 463.225C180.136 465.289 178.555 467.352 177.394 469.359C174.554 474.268 174.814 477.784 175.531 479.869C176.179 481.751 177.466 483.234 179.198 484.117L178.632 488.2C178.555 488.759 178.945 489.276 179.505 489.354C179.553 489.36 179.6 489.364 179.647 489.364C180.15 489.364 180.588 488.993 180.659 488.48L181.169 484.807C181.755 484.931 182.361 484.996 182.983 484.996H186.434C186.799 485.594 187.414 486.021 188.134 486.131V488.34C188.134 488.905 188.593 489.363 189.158 489.363C189.723 489.363 190.181 488.905 190.181 488.34V486.129C191.513 485.933 192.541 484.786 192.541 483.4V478.901C192.54 477.516 191.513 476.369 190.181 476.173ZM196.512 458.622V455.779C196.587 455.779 196.729 455.808 196.93 455.851C197.445 455.958 198.353 456.147 199.563 456.147C200.55 456.147 201.517 456.025 202.469 455.78L202.477 455.779H202.614V458.622C202.614 460.31 201.246 461.673 199.563 461.673C197.909 461.673 196.512 460.337 196.512 458.622ZM212.172 458.709C213.018 459.411 213.825 460.116 214.588 460.819C213.831 457.898 211.161 455.779 208.085 455.779H204.661V458.622C204.661 459.393 204.491 460.137 204.17 460.812H206.761C207.188 460.812 207.586 460.621 207.853 460.287L210.008 457.594C210.361 457.153 211.005 457.081 211.446 457.434C211.755 457.681 211.882 458.07 211.81 458.432C211.934 458.52 212.055 458.612 212.172 458.709ZM189.976 445.002C189.948 444.458 189.499 444.031 188.954 444.031H186.51C185.706 444.031 185.052 443.378 185.052 442.574V441.399C185.052 440.596 185.706 439.942 186.51 439.942H188.938C189.503 439.942 189.961 439.484 189.961 438.919V435.506H197.858C202.182 435.506 205.913 432.659 207.102 428.598C208.423 430.121 209.165 432.083 209.165 434.117V438.919C209.165 439.484 209.624 439.942 210.189 439.942H212.616C213.421 439.942 214.075 440.596 214.075 441.399V442.574C214.075 443.378 213.421 444.031 212.616 444.031H210.172C209.628 444.031 209.179 444.458 209.15 445.002C209.024 447.461 207.97 449.752 206.183 451.453C205.326 452.27 204.338 452.915 203.245 453.369C202.078 453.854 200.84 454.1 199.563 454.1C198.263 454.1 197.003 453.835 195.882 453.369C192.482 451.956 190.164 448.672 189.976 445.002ZM194.465 455.779H191.042C187.966 455.779 185.295 457.898 184.539 460.819C185.302 460.116 186.108 459.412 186.952 458.711C187.071 458.613 187.193 458.521 187.316 458.432C187.245 458.07 187.372 457.681 187.68 457.434C188.122 457.081 188.766 457.153 189.119 457.594L191.273 460.288C191.54 460.621 191.938 460.812 192.365 460.812H194.957C194.637 460.139 194.465 459.395 194.465 458.622V455.779ZM182.759 477.316C182.633 476.821 182.747 475.408 184.027 473.196C184.713 472.01 185.954 470.229 188.134 468.005V476.171C187.404 476.282 186.78 476.72 186.418 477.333H182.983C182.879 477.333 182.807 477.325 182.759 477.316ZM189.779 484.115C190.173 484.115 190.493 483.794 190.493 483.4V478.902C190.493 478.508 190.173 478.187 189.779 478.187H188.499C188.294 478.187 188.127 478.354 188.127 478.56V483.742C188.127 483.948 188.294 484.115 188.499 484.115H189.147H189.168H189.779Z" fill="#15161A"/>
<defs>
<clipPath id="clip0">
<rect x="80" y="289.5" width="149" height="70" fill="white"/>
</clipPath>
</defs>
</svg>
