<svg width="274" height="414" viewBox="0 0 274 414" fill="none" xmlns="http://www.w3.org/2000/svg">
<rect x="173.5" y="24.5" width="369" height="2" transform="rotate(90 173.5 24.5)" fill="#15161A"/>
<path d="M171.5 197H172.5V195H171.5V197ZM61.7929 195.293C61.4024 195.683 61.4024 196.317 61.7929 196.707L68.1569 203.071C68.5474 203.462 69.1805 203.462 69.5711 203.071C69.9616 202.681 69.9616 202.047 69.5711 201.657L63.9142 196L69.5711 190.343C69.9616 189.953 69.9616 189.319 69.5711 188.929C69.1805 188.538 68.5474 188.538 68.1569 188.929L61.7929 195.293ZM171.5 195H62.5V197H171.5V195Z" fill="#15161A"/>
<path d="M172.047 98H173.047V96H172.047V98ZM61.7929 96.2929C61.4024 96.6834 61.4024 97.3166 61.7929 97.7071L68.1569 104.071C68.5474 104.462 69.1805 104.462 69.5711 104.071C69.9616 103.681 69.9616 103.047 69.5711 102.657L63.9142 97L69.5711 91.3431C69.9616 90.9526 69.9616 90.3195 69.5711 89.9289C69.1805 89.5384 68.5474 89.5384 68.1569 89.9289L61.7929 96.2929ZM172.047 96H62.5V98H172.047V96Z" fill="#15161A"/>
<path d="M172 296H173V294H172V296ZM61.7929 294.293C61.4024 294.683 61.4024 295.317 61.7929 295.707L68.1569 302.071C68.5474 302.462 69.1805 302.462 69.5711 302.071C69.9616 301.681 69.9616 301.047 69.5711 300.657L63.9142 295L69.5711 289.343C69.9616 288.953 69.9616 288.319 69.5711 287.929C69.1805 287.538 68.5474 287.538 68.1569 287.929L61.7929 294.293ZM172 294H62.5V296H172V294Z" fill="#15161A"/>
<path d="M172 26C172.552 26 173 25.5523 173 25C173 24.4477 172.552 24 172 24V26ZM61.7929 24.2929C61.4024 24.6834 61.4024 25.3166 61.7929 25.7071L68.1569 32.0711C68.5474 32.4616 69.1805 32.4616 69.5711 32.0711C69.9616 31.6805 69.9616 31.0474 69.5711 30.6569L63.9142 25L69.5711 19.3431C69.9616 18.9526 69.9616 18.3195 69.5711 17.9289C69.1805 17.5384 68.5474 17.5384 68.1569 17.9289L61.7929 24.2929ZM172 24L62.5 24V26L172 26V24Z" fill="#15161A"/>
<path d="M171.5 394H172.5V392H171.5V394ZM61.7929 392.293C61.4024 392.683 61.4024 393.317 61.7929 393.707L68.1569 400.071C68.5474 400.462 69.1805 400.462 69.5711 400.071C69.9616 399.681 69.9616 399.047 69.5711 398.657L63.9142 393L69.5711 387.343C69.9616 386.953 69.9616 386.319 69.5711 385.929C69.1805 385.538 68.5474 385.538 68.1569 385.929L61.7929 392.293ZM171.5 392H62.5V394H171.5V392Z" fill="#15161A"/>
<path d="M174.5 145H173.5V147H174.5V145ZM204.207 146.707C204.598 146.317 204.598 145.683 204.207 145.293L197.843 138.929C197.453 138.538 196.819 138.538 196.429 138.929C196.038 139.319 196.038 139.953 196.429 140.343L202.086 146L196.429 151.657C196.038 152.047 196.038 152.681 196.429 153.071C196.819 153.462 197.453 153.462 197.843 153.071L204.207 146.707ZM174.5 147H203.5V145H174.5V147Z" fill="#15161A"/>
<path d="M60.6465 39.6464C60.4512 39.8417 60.4512 40.1583 60.6465 40.3536L63.8284 43.5355C64.0237 43.7308 64.3403 43.7308 64.5355 43.5355C64.7308 43.3403 64.7308 43.0237 64.5355 42.8284L61.7071 40L64.5355 37.1716C64.7308 36.9763 64.7308 36.6597 64.5355 36.4645C64.3403 36.2692 64.0237 36.2692 63.8284 36.4645L60.6465 39.6464ZM186.963 40H187.463V39.5H186.963V40ZM186.963 130H186.463V130.5H186.963V130ZM204.354 130.354C204.549 130.158 204.549 129.842 204.354 129.646L201.172 126.464C200.976 126.269 200.66 126.269 200.464 126.464C200.269 126.66 200.269 126.976 200.464 127.172L203.293 130L200.464 132.828C200.269 133.024 200.269 133.34 200.464 133.536C200.66 133.731 200.976 133.731 201.172 133.536L204.354 130.354ZM61 40.5L186.963 40.5V39.5L61 39.5V40.5ZM186.463 40V130H187.463V40H186.463ZM186.963 130.5H196.468V129.5H186.963V130.5ZM196.468 130.5H199.012V129.5H196.468V130.5ZM199.012 130.5H204V129.5H199.012V130.5Z" fill="#ED6638"/>
<path d="M60.6465 39.6464C60.4512 39.8417 60.4512 40.1583 60.6465 40.3536L63.8284 43.5355C64.0237 43.7308 64.3403 43.7308 64.5355 43.5355C64.7308 43.3403 64.7308 43.0237 64.5355 42.8284L61.7071 40L64.5355 37.1716C64.7308 36.9763 64.7308 36.6597 64.5355 36.4645C64.3403 36.2692 64.0237 36.2692 63.8284 36.4645L60.6465 39.6464ZM186.963 40H187.463V39.5H186.963V40ZM186.963 130H186.463V130.5H186.963V130ZM204.354 130.354C204.549 130.158 204.549 129.842 204.354 129.646L201.172 126.464C200.976 126.269 200.66 126.269 200.464 126.464C200.269 126.66 200.269 126.976 200.464 127.172L203.293 130L200.464 132.828C200.269 133.024 200.269 133.34 200.464 133.536C200.66 133.731 200.976 133.731 201.172 133.536L204.354 130.354ZM61 40.5L186.963 40.5V39.5L61 39.5V40.5ZM186.463 40V130H187.463V40H186.463ZM186.963 130.5H196.468V129.5H186.963V130.5ZM196.468 130.5H199.012V129.5H196.468V130.5ZM199.012 130.5H204V129.5H199.012V130.5Z" fill="#ED6638"/>
<path d="M58.6464 177.354C58.4512 177.158 58.4512 176.842 58.6464 176.646L61.8284 173.464C62.0237 173.269 62.3403 173.269 62.5355 173.464C62.7308 173.66 62.7308 173.976 62.5355 174.172L59.7071 177L62.5355 179.828C62.7308 180.024 62.7308 180.34 62.5355 180.536C62.3403 180.731 62.0237 180.731 61.8284 180.536L58.6464 177.354ZM159.418 177H159.918V177.5H159.418V177ZM159.418 112H158.918V111.5H159.418V112ZM59 176.5H159.418V177.5H59V176.5ZM158.918 177V112H159.918V177H158.918ZM159.418 111.5H166.995V112.5H159.418V111.5ZM166.995 111.5H169.023V112.5H166.995V111.5ZM169.023 111.5H186V112.5H169.023V111.5Z" fill="#ED6638"/>
<path d="M185.854 112.354C186.049 112.158 186.049 111.842 185.854 111.646L182.672 108.464C182.476 108.269 182.16 108.269 181.964 108.464C181.769 108.66 181.769 108.976 181.964 109.172L184.793 112L181.964 114.828C181.769 115.024 181.769 115.34 181.964 115.536C182.16 115.731 182.476 115.731 182.672 115.536L185.854 112.354ZM59.1464 111.646C58.9512 111.842 58.9512 112.158 59.1464 112.354L62.3284 115.536C62.5237 115.731 62.8403 115.731 63.0355 115.536C63.2308 115.34 63.2308 115.024 63.0355 114.828L60.2071 112L63.0355 109.172C63.2308 108.976 63.2308 108.66 63.0355 108.464C62.8403 108.269 62.5237 108.269 62.3284 108.464L59.1464 111.646ZM185.5 111.5L59.5 111.5V112.5L185.5 112.5V111.5Z" fill="#ED6638"/>
<path d="M254.677 119.032H235.322C234.879 119.032 234.516 119.395 234.516 119.839V138.387H255.483V119.839C255.483 119.395 255.12 119.032 254.677 119.032Z" fill="#F1F3F8"/>
<path d="M241.774 148.065V157.742H220.807V148.065C220.807 147.177 221.532 146.452 222.42 146.452H231.291H234.516H240.161C241.049 146.452 241.774 147.177 241.774 148.065Z" fill="#5AC9E6"/>
<rect x="235" y="131.875" width="20" height="6.25" fill="#5AC9E6"/>
<path fill-rule="evenodd" clip-rule="evenodd" d="M259.516 145.645H267.581C268.915 145.645 270 146.731 270 148.065V159.355C270 160.689 268.915 161.774 267.581 161.774H262.742V163.387H265.968V165H251.452V163.387H254.677V161.774H249.839C248.505 161.774 247.419 160.689 247.419 159.355V148.871H242.581V159.355C242.581 160.689 241.495 161.774 240.161 161.774H235.323V163.387H238.548V165H224.032V163.387H227.258V161.774H222.419C221.085 161.774 220 160.689 220 159.355V148.065C220 146.731 221.085 145.645 222.419 145.645H230.484V119.032C230.484 116.809 232.293 115 234.516 115H255.484C257.707 115 259.516 116.809 259.516 119.032V145.645ZM268.387 156.935V148.065C268.387 147.62 268.026 147.258 267.581 147.258H249.839C249.394 147.258 249.032 147.62 249.032 148.065V156.935H268.387ZM240.161 145.645H235.323V139.194H254.677V145.645H249.839C248.789 145.645 247.902 146.322 247.568 147.258H242.431C242.098 146.322 241.211 145.645 240.161 145.645ZM235.323 124.677H254.677V119.839H235.323V124.677ZM235.323 126.29H254.677V131.129H235.323V126.29ZM254.677 132.742H235.323V137.581H254.677V132.742ZM232.097 119.032C232.097 117.698 233.182 116.613 234.516 116.613H255.484C256.818 116.613 257.903 117.698 257.903 119.032V145.645H256.29V119.839C256.29 118.949 255.567 118.226 254.677 118.226H235.323C234.433 118.226 233.71 118.949 233.71 119.839V145.645H232.097V119.032ZM240.161 147.258H222.419C221.974 147.258 221.613 147.62 221.613 148.065V156.935H240.968V148.065C240.968 147.62 240.606 147.258 240.161 147.258ZM233.71 163.387H228.871V161.774H233.71V163.387ZM222.419 160.161H240.161C240.606 160.161 240.968 159.799 240.968 159.355V158.548H221.613V159.355C221.613 159.799 221.974 160.161 222.419 160.161ZM261.129 163.387H256.29V161.774H261.129V163.387ZM249.839 160.161H267.581C268.026 160.161 268.387 159.799 268.387 159.355V158.548H249.032V159.355C249.032 159.799 249.394 160.161 249.839 160.161Z" fill="#15161A"/>
<path d="M236.936 121.452H238.548V123.065H236.936V121.452Z" fill="#15161A"/>
<path d="M240.162 121.452H241.775V123.065H240.162V121.452Z" fill="#15161A"/>
<path d="M243.387 121.452H245V123.065H243.387V121.452Z" fill="#15161A"/>
<path d="M251.451 127.903H253.064V129.516H251.451V127.903Z" fill="#15161A"/>
<path d="M248.227 127.903H249.839V129.516H248.227V127.903Z" fill="#15161A"/>
<path d="M245 127.903H246.613V129.516H245V127.903Z" fill="#15161A"/>
<path d="M236.936 134.354H238.548V135.967H236.936V134.354Z" fill="#15161A"/>
<path d="M240.162 134.354H241.775V135.967H240.162V134.354Z" fill="#15161A"/>
<path d="M243.387 134.354H245V135.967H243.387V134.354Z" fill="#15161A"/>
<path fill-rule="evenodd" clip-rule="evenodd" d="M242.58 143.226C242.58 141.892 243.666 140.807 244.999 140.807C246.333 140.807 247.419 141.892 247.419 143.226C247.419 144.56 246.333 145.645 244.999 145.645C243.666 145.645 242.58 144.56 242.58 143.226ZM244.193 143.226C244.193 143.67 244.554 144.032 244.999 144.032C245.445 144.032 245.806 143.67 245.806 143.226C245.806 142.782 245.445 142.42 244.999 142.42C244.554 142.42 244.193 142.782 244.193 143.226Z" fill="#15161A"/>
<path fill-rule="evenodd" clip-rule="evenodd" d="M262.742 144.032V126.948C261.806 126.614 261.129 125.727 261.129 124.677C261.129 123.343 262.214 122.258 263.548 122.258C264.882 122.258 265.968 123.343 265.968 124.677C265.968 125.727 265.291 126.614 264.355 126.948V144.032H262.742ZM264.355 124.677C264.355 124.233 263.993 123.871 263.548 123.871C263.103 123.871 262.742 124.233 262.742 124.677C262.742 125.122 263.103 125.484 263.548 125.484C263.993 125.484 264.355 125.122 264.355 124.677Z" fill="#15161A"/>
<path fill-rule="evenodd" clip-rule="evenodd" d="M267.581 144.032C266.248 144.032 265.162 142.947 265.162 141.613C265.162 140.563 265.839 139.676 266.775 139.342V122.258H268.388V139.342C269.324 139.676 270.001 140.563 270.001 141.613C270.001 142.947 268.915 144.032 267.581 144.032ZM266.775 141.613C266.775 142.057 267.136 142.419 267.581 142.419C268.027 142.419 268.388 142.057 268.388 141.613C268.388 141.168 268.027 140.806 267.581 140.806C267.136 140.806 266.775 141.168 266.775 141.613Z" fill="#15161A"/>
<path fill-rule="evenodd" clip-rule="evenodd" d="M221.613 144.032V126.948C220.677 126.614 220 125.727 220 124.677C220 123.343 221.085 122.258 222.419 122.258C223.753 122.258 224.839 123.343 224.839 124.677C224.839 125.727 224.162 126.614 223.226 126.948V144.032H221.613ZM223.226 124.677C223.226 124.233 222.865 123.871 222.419 123.871C221.974 123.871 221.613 124.233 221.613 124.677C221.613 125.122 221.974 125.484 222.419 125.484C222.865 125.484 223.226 125.122 223.226 124.677Z" fill="#15161A"/>
<path fill-rule="evenodd" clip-rule="evenodd" d="M226.453 144.032C225.119 144.032 224.033 142.947 224.033 141.613C224.033 140.563 224.71 139.676 225.646 139.342V122.258H227.259V139.342C228.195 139.676 228.872 140.563 228.872 141.613C228.872 142.947 227.786 144.032 226.453 144.032ZM225.646 141.613C225.646 142.057 226.007 142.419 226.453 142.419C226.898 142.419 227.259 142.057 227.259 141.613C227.259 141.168 226.898 140.806 226.453 140.806C226.007 140.806 225.646 141.168 225.646 141.613Z" fill="#15161A"/>
<path d="M250.645 148.871H252.257V150.484H250.645V148.871Z" fill="#15161A"/>
<path d="M253.871 148.871H255.484V150.484H253.871V148.871Z" fill="#15161A"/>
<path d="M257.098 148.871H258.711V150.484H257.098V148.871Z" fill="#15161A"/>
<path d="M237.742 153.71H239.355V155.323H237.742V153.71Z" fill="#15161A"/>
<path d="M234.516 153.71H236.129V155.323H234.516V153.71Z" fill="#15161A"/>
<path d="M231.291 153.71H232.904V155.323H231.291V153.71Z" fill="#15161A"/>
<path d="M15.834 27.4995H23.334V45.8328H15.834V27.4995Z" fill="#5AC9E6"/>
<path d="M8.33398 27.4995H15.834V45.8328H8.33398V27.4995Z" fill="#5AC9E6"/>
<path d="M20.834 7.49984V10.8332H17.5007V14.1665H14.1673V10.8332H10.834V7.49984H14.1673V4.1665H17.5007V7.49984H20.834Z" fill="#5AC9E6"/>
<path fill-rule="evenodd" clip-rule="evenodd" d="M13.3333 14.1663V11.6663H10.8333C10.3731 11.6663 10 11.2932 10 10.833V7.49967C10 7.03944 10.3731 6.66634 10.8333 6.66634H13.3333V4.16634C13.3333 3.7061 13.7064 3.33301 14.1667 3.33301H17.5C17.9602 3.33301 18.3333 3.7061 18.3333 4.16634V6.66634H20.8333C21.2936 6.66634 21.6667 7.03944 21.6667 7.49967V10.833C21.6667 11.2932 21.2936 11.6663 20.8333 11.6663H18.3333V14.1663C18.3333 14.6266 17.9602 14.9997 17.5 14.9997H14.1667C13.7064 14.9997 13.3333 14.6266 13.3333 14.1663ZM14.1667 8.33301H11.6667V9.99967H14.1667C14.6269 9.99967 15 10.3728 15 10.833V13.333H16.6667V10.833C16.6667 10.3728 17.0398 9.99967 17.5 9.99967H20V8.33301H17.5C17.0398 8.33301 16.6667 7.95991 16.6667 7.49967V4.99967H15V7.49967C15 7.95991 14.6269 8.33301 14.1667 8.33301Z" fill="#15161A"/>
<path fill-rule="evenodd" clip-rule="evenodd" d="M50 11.6664C50 12.1267 49.6269 12.4997 49.1667 12.4997H48.3333V44.9997H49.1667C49.6269 44.9997 50 45.3728 50 45.8331V49.1664C50 49.6267 49.6269 49.9997 49.1667 49.9997H0.833333C0.373096 49.9997 0 49.6267 0 49.1664V45.8331C0 45.3728 0.373096 44.9997 0.833333 44.9997H1.66667V12.4997H0.833333C0.373096 12.4997 0 12.1267 0 11.6664V6.66642C0 6.20618 0.373096 5.83308 0.833333 5.83308H7.3C8.67055 2.31595 12.0586 0 15.8333 0C19.6081 0 22.9961 2.31595 24.3667 5.83308H49.1667C49.6269 5.83308 50 6.20618 50 6.66642V11.6664ZM23.3333 9.16642C23.3333 5.02428 19.9755 1.66642 15.8333 1.66642C11.6939 1.67284 8.33976 5.02694 8.33333 9.16642C8.33333 13.3086 11.6912 16.6664 15.8333 16.6664C19.9755 16.6664 23.3333 13.3086 23.3333 9.16642ZM15.8333 18.3331C19.6056 18.3249 22.9895 16.0116 24.3667 12.4997H46.6667V44.9997H24.1667V27.4997C24.1667 27.0395 23.7936 26.6664 23.3333 26.6664H8.33333C7.8731 26.6664 7.5 27.0395 7.5 27.4997V44.9997H3.33333V12.4997H7.3C8.67717 16.0116 12.0611 18.3249 15.8333 18.3331ZM22.5 44.9997V28.3331H16.6667V44.9997H22.5ZM15 28.3331V44.9997H9.16667V28.3331H15ZM6.825 7.49975H1.66667V10.8331H6.825C6.61388 9.732 6.61388 8.60083 6.825 7.49975ZM48.3333 48.3331H1.66667V46.6664H48.3333V48.3331ZM24.8417 7.49975C25.0528 8.60083 25.0528 9.732 24.8417 10.8331H48.3333V7.49975H24.8417Z" fill="#15161A"/>
<path fill-rule="evenodd" clip-rule="evenodd" d="M44.166 34.9998V27.4998C44.166 27.0396 43.7929 26.6665 43.3327 26.6665H28.3327C27.8724 26.6665 27.4993 27.0396 27.4993 27.4998V34.9998H26.666V36.6665H44.9993V34.9998H44.166ZM34.9993 34.9998H29.166V31.2832H34.9993V34.9998ZM29.166 29.6165H34.9993V28.3332H29.166V29.6165ZM42.4993 34.9998H36.666V31.2832H42.4993V34.9998ZM36.666 29.6165H42.4993V28.3332H36.666V29.6165Z" fill="#15161A"/>
<path d="M12.5 34.9995H14.1667V36.6662H12.5V34.9995Z" fill="black"/>
<path d="M17.5 34.9995H19.1667V36.6662H17.5V34.9995Z" fill="black"/>
<path d="M15.834 101.5H23.334V119.833H15.834V101.5Z" fill="#5AC9E6"/>
<path d="M8.33398 101.5H15.834V119.833H8.33398V101.5Z" fill="#5AC9E6"/>
<path d="M20.834 81.4998V84.8332H17.5007V88.1665H14.1673V84.8332H10.834V81.4998H14.1673V78.1665H17.5007V81.4998H20.834Z" fill="#5AC9E6"/>
<path fill-rule="evenodd" clip-rule="evenodd" d="M13.3333 88.1663V85.6663H10.8333C10.3731 85.6663 10 85.2932 10 84.833V81.4997C10 81.0394 10.3731 80.6663 10.8333 80.6663H13.3333V78.1663C13.3333 77.7061 13.7064 77.333 14.1667 77.333H17.5C17.9602 77.333 18.3333 77.7061 18.3333 78.1663V80.6663H20.8333C21.2936 80.6663 21.6667 81.0394 21.6667 81.4997V84.833C21.6667 85.2932 21.2936 85.6663 20.8333 85.6663H18.3333V88.1663C18.3333 88.6266 17.9602 88.9997 17.5 88.9997H14.1667C13.7064 88.9997 13.3333 88.6266 13.3333 88.1663ZM14.1667 82.333H11.6667V83.9997H14.1667C14.6269 83.9997 15 84.3728 15 84.833V87.333H16.6667V84.833C16.6667 84.3728 17.0398 83.9997 17.5 83.9997H20V82.333H17.5C17.0398 82.333 16.6667 81.9599 16.6667 81.4997V78.9997H15V81.4997C15 81.9599 14.6269 82.333 14.1667 82.333Z" fill="#15161A"/>
<path fill-rule="evenodd" clip-rule="evenodd" d="M50 85.6664C50 86.1267 49.6269 86.4997 49.1667 86.4997H48.3333V119H49.1667C49.6269 119 50 119.373 50 119.833V123.166C50 123.627 49.6269 124 49.1667 124H0.833333C0.373096 124 0 123.627 0 123.166V119.833C0 119.373 0.373096 119 0.833333 119H1.66667V86.4997H0.833333C0.373096 86.4997 0 86.1267 0 85.6664V80.6664C0 80.2062 0.373096 79.8331 0.833333 79.8331H7.3C8.67055 76.316 12.0586 74 15.8333 74C19.6081 74 22.9961 76.316 24.3667 79.8331H49.1667C49.6269 79.8331 50 80.2062 50 80.6664V85.6664ZM23.3333 83.1664C23.3333 79.0243 19.9755 75.6664 15.8333 75.6664C11.6939 75.6728 8.33976 79.0269 8.33333 83.1664C8.33333 87.3086 11.6912 90.6664 15.8333 90.6664C19.9755 90.6664 23.3333 87.3086 23.3333 83.1664ZM15.8333 92.3331C19.6056 92.3249 22.9895 90.0116 24.3667 86.4997H46.6667V119H24.1667V101.5C24.1667 101.04 23.7936 100.666 23.3333 100.666H8.33333C7.8731 100.666 7.5 101.04 7.5 101.5V119H3.33333V86.4997H7.3C8.67717 90.0116 12.0611 92.3249 15.8333 92.3331ZM22.5 119V102.333H16.6667V119H22.5ZM15 102.333V119H9.16667V102.333H15ZM6.825 81.4997H1.66667V84.8331H6.825C6.61388 83.732 6.61388 82.6008 6.825 81.4997ZM48.3333 122.333H1.66667V120.666H48.3333V122.333ZM24.8417 81.4997C25.0528 82.6008 25.0528 83.732 24.8417 84.8331H48.3333V81.4997H24.8417Z" fill="#15161A"/>
<path fill-rule="evenodd" clip-rule="evenodd" d="M44.166 109V101.5C44.166 101.04 43.7929 100.667 43.3327 100.667H28.3327C27.8724 100.667 27.4993 101.04 27.4993 101.5V109H26.666V110.667H44.9993V109H44.166ZM34.9993 109H29.166V105.283H34.9993V109ZM29.166 103.617H34.9993V102.333H29.166V103.617ZM42.4993 109H36.666V105.283H42.4993V109ZM36.666 103.617H42.4993V102.333H36.666V103.617Z" fill="#15161A"/>
<path d="M12.5 109H14.1667V110.666H12.5V109Z" fill="black"/>
<path d="M17.5 109H19.1667V110.666H17.5V109Z" fill="black"/>
<path d="M15.834 193.5H23.334V211.833H15.834V193.5Z" fill="#5AC9E6"/>
<path d="M8.33398 193.5H15.834V211.833H8.33398V193.5Z" fill="#5AC9E6"/>
<path d="M20.834 173.5V176.833H17.5007V180.167H14.1673V176.833H10.834V173.5H14.1673V170.167H17.5007V173.5H20.834Z" fill="#5AC9E6"/>
<path fill-rule="evenodd" clip-rule="evenodd" d="M13.3333 180.166V177.666H10.8333C10.3731 177.666 10 177.293 10 176.833V173.5C10 173.039 10.3731 172.666 10.8333 172.666H13.3333V170.166C13.3333 169.706 13.7064 169.333 14.1667 169.333H17.5C17.9602 169.333 18.3333 169.706 18.3333 170.166V172.666H20.8333C21.2936 172.666 21.6667 173.039 21.6667 173.5V176.833C21.6667 177.293 21.2936 177.666 20.8333 177.666H18.3333V180.166C18.3333 180.627 17.9602 181 17.5 181H14.1667C13.7064 181 13.3333 180.627 13.3333 180.166ZM14.1667 174.333H11.6667V176H14.1667C14.6269 176 15 176.373 15 176.833V179.333H16.6667V176.833C16.6667 176.373 17.0398 176 17.5 176H20V174.333H17.5C17.0398 174.333 16.6667 173.96 16.6667 173.5V171H15V173.5C15 173.96 14.6269 174.333 14.1667 174.333Z" fill="#15161A"/>
<path fill-rule="evenodd" clip-rule="evenodd" d="M50 177.666C50 178.127 49.6269 178.5 49.1667 178.5H48.3333V211H49.1667C49.6269 211 50 211.373 50 211.833V215.166C50 215.627 49.6269 216 49.1667 216H0.833333C0.373096 216 0 215.627 0 215.166V211.833C0 211.373 0.373096 211 0.833333 211H1.66667V178.5H0.833333C0.373096 178.5 0 178.127 0 177.666V172.666C0 172.206 0.373096 171.833 0.833333 171.833H7.3C8.67055 168.316 12.0586 166 15.8333 166C19.6081 166 22.9961 168.316 24.3667 171.833H49.1667C49.6269 171.833 50 172.206 50 172.666V177.666ZM23.3333 175.166C23.3333 171.024 19.9755 167.666 15.8333 167.666C11.6939 167.673 8.33976 171.027 8.33333 175.166C8.33333 179.309 11.6912 182.666 15.8333 182.666C19.9755 182.666 23.3333 179.309 23.3333 175.166ZM15.8333 184.333C19.6056 184.325 22.9895 182.012 24.3667 178.5H46.6667V211H24.1667V193.5C24.1667 193.04 23.7936 192.666 23.3333 192.666H8.33333C7.8731 192.666 7.5 193.04 7.5 193.5V211H3.33333V178.5H7.3C8.67717 182.012 12.0611 184.325 15.8333 184.333ZM22.5 211V194.333H16.6667V211H22.5ZM15 194.333V211H9.16667V194.333H15ZM6.825 173.5H1.66667V176.833H6.825C6.61388 175.732 6.61388 174.601 6.825 173.5ZM48.3333 214.333H1.66667V212.666H48.3333V214.333ZM24.8417 173.5C25.0528 174.601 25.0528 175.732 24.8417 176.833H48.3333V173.5H24.8417Z" fill="#15161A"/>
<path fill-rule="evenodd" clip-rule="evenodd" d="M44.166 201V193.5C44.166 193.04 43.7929 192.667 43.3327 192.667H28.3327C27.8724 192.667 27.4993 193.04 27.4993 193.5V201H26.666V202.667H44.9993V201H44.166ZM34.9993 201H29.166V197.283H34.9993V201ZM29.166 195.617H34.9993V194.333H29.166V195.617ZM42.4993 201H36.666V197.283H42.4993V201ZM36.666 195.617H42.4993V194.333H36.666V195.617Z" fill="#15161A"/>
<path d="M12.5 201H14.1667V202.666H12.5V201Z" fill="black"/>
<path d="M17.5 201H19.1667V202.666H17.5V201Z" fill="black"/>
<path d="M42.9187 300.742V304.774C42.9187 306.113 41.8768 307.193 40.5858 307.193H23.4775C22.1865 307.193 21.1445 306.113 21.1445 304.774V300.742H42.9187Z" fill="#5AC9E6"/>
<path d="M42.9187 272.113V276.145H21.1445V272.113C21.1445 270.774 22.1865 269.693 23.4775 269.693H40.5858C41.8768 269.693 42.9187 270.774 42.9187 272.113Z" fill="#5AC9E6"/>
<path d="M35.6606 259.472C37.6915 259.472 39.6009 260.238 41.037 261.629L42.1122 260.588C40.3884 258.919 38.0976 258 35.6606 258C33.2236 258 30.9324 258.919 29.209 260.588L30.2838 261.629C31.7195 260.238 33.6297 259.472 35.6606 259.472Z" fill="#15161A"/>
<path d="M40.0956 262.985C38.9109 261.851 37.3354 261.226 35.6607 261.226C33.984 261.226 32.4089 261.851 31.2246 262.986L32.3342 264.048C33.2221 263.197 34.4037 262.728 35.6607 262.728C36.9177 262.728 38.0985 263.197 38.9879 264.047L40.0956 262.985Z" fill="#15161A"/>
<path d="M33.2402 265.125L34.3489 266.468C34.9408 265.749 35.9733 265.749 36.567 266.468L37.6757 265.125C36.4909 263.689 34.4251 263.689 33.2402 265.125Z" fill="#15161A"/>
<path fill-rule="evenodd" clip-rule="evenodd" d="M23.4562 268.887H40.6067C42.3265 268.887 43.725 270.291 43.725 272.016V304.871C43.725 306.597 42.3265 308 40.6067 308H23.4562C21.7364 308 20.3379 306.597 20.3379 304.871V272.016C20.3379 270.291 21.7364 268.887 23.4562 268.887ZM40.6067 270.452H23.4562C22.5963 270.452 21.897 271.153 21.897 272.016V275.145H42.1658V272.016C42.1658 271.153 41.4666 270.452 40.6067 270.452ZM42.1658 276.71V300.178H21.897V276.71H42.1658ZM23.4562 306.436H40.6067C41.4666 306.436 42.1658 305.734 42.1658 304.871V301.742H21.897V304.871C21.897 305.734 22.5963 306.436 23.4562 306.436Z" fill="#15161A"/>
<path d="M28.4023 303.161H36.0636V304.774H28.4023V303.161Z" fill="#15161A"/>
<path d="M26.481 288.312L26.4047 285.811L24.8617 285.818L24.9851 289.861L35.5767 289.814L35.5297 288.272L26.481 288.312Z" fill="#15161A"/>
<path d="M32.2587 281.346C36.1575 281.346 39.3305 284.518 39.3305 288.418C39.3305 290.044 38.763 291.634 37.7336 292.891L38.9502 293.887C40.2091 292.349 40.902 290.406 40.902 288.418C40.902 283.652 37.0242 279.774 32.2587 279.774C30.2701 279.774 28.3276 280.468 26.7891 281.727L27.7847 282.943C29.0427 281.913 30.6323 281.346 32.2587 281.346Z" fill="#15161A"/>
<path d="M31.8035 297.113C33.792 297.113 35.7345 296.419 37.2731 295.16L36.2774 293.945C35.0194 294.974 33.4298 295.541 31.8035 295.541C27.9046 295.541 24.7317 292.369 24.7317 288.47C24.7317 286.843 25.2991 285.254 26.3285 283.996L25.1119 283C23.8531 284.539 23.1602 286.481 23.1602 288.47C23.1602 293.235 27.0379 297.113 31.8035 297.113Z" fill="#040C34"/>
<path d="M27.597 296.709V300.994C27.597 302.416 26.4586 303.564 25.048 303.564H6.3556C4.94504 303.564 3.80664 302.416 3.80664 300.994V296.709H27.597Z" fill="#F1F3F8"/>
<path d="M27.597 265.409V269.694H3.80664V265.409C3.80664 263.987 4.94504 262.839 6.3556 262.839H25.048C26.4586 262.839 27.597 263.987 27.597 265.409Z" fill="#F1F3F8"/>
<path d="M27.597 269.693V296.709H3.80664V269.693H27.597Z" fill="#F1F3F8"/>
<path d="M24.371 283.403C24.371 288.08 20.58 291.871 15.9033 291.871C11.2266 291.871 7.43555 288.08 7.43555 283.403C7.43555 278.727 11.2266 274.936 15.9033 274.936C20.58 274.936 24.371 278.727 24.371 283.403Z" fill="#5AC9E6"/>
<path fill-rule="evenodd" clip-rule="evenodd" d="M6.3871 262.032H25.0161C26.8842 262.032 28.4032 263.551 28.4032 265.419V300.984C28.4032 302.852 26.8842 304.371 25.0161 304.371H6.3871C4.51907 304.371 3 302.852 3 300.984V265.419C3 263.551 4.51907 262.032 6.3871 262.032ZM25.0161 263.726H6.3871C5.45308 263.726 4.69355 264.485 4.69355 265.419V268.806H26.7097V265.419C26.7097 264.485 25.9501 263.726 25.0161 263.726ZM26.7097 270.5V295.903H4.69355V270.5H26.7097ZM6.3871 302.677H25.0161C25.9501 302.677 26.7097 301.918 26.7097 300.984V297.597H4.69355V300.984C4.69355 301.918 5.45308 302.677 6.3871 302.677Z" fill="#15161A"/>
<path d="M11.4668 299.129H19.9345V300.742H11.4668V299.129Z" fill="#15161A"/>
<path d="M12.9756 286.287L11.0457 284.375L9.85547 285.554L12.9756 288.645L21.1458 280.55L19.9556 279.371L12.9756 286.287Z" fill="#15161A"/>
<path d="M15.7939 275.432C20.0269 275.432 23.4718 278.876 23.4718 283.11C23.4718 284.876 22.8558 286.601 21.7381 287.966L23.059 289.048C24.4258 287.378 25.178 285.269 25.178 283.11C25.178 277.936 20.9679 273.726 15.7939 273.726C13.6349 273.726 11.5259 274.479 9.85547 275.845L10.9364 277.166C12.3023 276.048 14.0281 275.432 15.7939 275.432Z" fill="#15161A"/>
<path d="M15.6107 292.678C17.7697 292.678 19.8788 291.924 21.5491 290.558L20.4682 289.238C19.1023 290.355 17.3765 290.971 15.6107 290.971C11.3777 290.971 7.93277 287.527 7.93277 283.293C7.93277 281.528 8.54886 279.802 9.66648 278.437L8.34558 277.355C6.97886 279.025 6.22656 281.134 6.22656 283.293C6.22656 288.467 10.4367 292.678 15.6107 292.678Z" fill="#15161A"/>
<path d="M269.39 268.842H261.158V267.195V260.61L269.39 268.842Z" fill="#5AC9E6"/>
<path d="M241.823 271.89L232.195 281.559L249.846 305.732L262.683 292.84L241.823 271.89Z" fill="#5AC9E6"/>
<path d="M258.111 293.029L250.053 301.159V292.216L246.83 289.777V286.524L249.247 284.085L258.111 293.029Z" fill="#F1F3F8"/>
<path d="M249.878 301.015V305.857C249.878 307.641 248.441 309.086 246.667 309.086H225.793V281.646H232.216H236.23H243.456C245.23 281.646 246.667 283.091 246.667 284.875V286.489V289.717L249.878 292.138V301.015Z" fill="#F1F3F8"/>
<path d="M225.792 281.807V309.085H224.166C222.369 309.085 220.914 307.649 220.914 305.876V278.598C220.914 280.371 222.369 281.807 224.166 281.807H225.792Z" fill="#5AC9E6"/>
<path fill-rule="evenodd" clip-rule="evenodd" d="M270 298.71V268.537L261.463 260H237.742V274.516H224.032C221.809 274.516 220 276.325 220 278.548V305.968C220 308.191 221.809 310 224.032 310H246.613C248.709 310 250.417 308.386 250.607 306.34L258.237 298.71H270ZM261.935 262.753L267.247 268.065H261.935V262.753ZM260.323 269.677V261.613H239.355V273.376L241.774 270.956L247.419 276.602V271.29H266.774V295.484H261.463L259.85 297.097H268.387V269.677H260.323ZM247.419 286.947L249.032 285.334L256.763 293.065L250.645 299.182V291.855L247.419 289.435V286.947ZM259.044 293.065L250.645 301.463V304.021L261.602 293.065L241.774 273.237L234.044 280.968H235.795L241.204 275.559L242.344 276.699L238.076 280.968H243.387C245.506 280.968 247.231 282.617 247.389 284.697L249.032 283.053L259.044 293.065ZM249.032 278.215V272.903H265.161V293.871H263.076L263.882 293.065L249.032 278.215ZM236.602 276.129H224.032C222.698 276.129 221.613 277.215 221.613 278.548C221.613 279.882 222.698 280.968 224.032 280.968H231.763L236.602 276.129ZM221.613 305.968V281.773C222.287 282.279 223.125 282.581 224.032 282.581H224.839V308.387H224.032C222.698 308.387 221.613 307.302 221.613 305.968ZM246.613 308.387C247.947 308.387 249.032 307.302 249.032 305.968V292.661L245.806 290.242V285C245.806 283.666 244.721 282.581 243.387 282.581H226.452V308.387H246.613Z" fill="#15161A"/>
<path d="M245.914 305.427H247.438V306.951H245.914V305.427Z" fill="#15161A"/>
<path d="M242.561 305.427H244.085V306.951H242.561V305.427Z" fill="#15161A"/>
<path d="M239.512 305.427H241.036V306.951H239.512V305.427Z" fill="#15161A"/>
<path d="M237.684 301.769H247.44V303.293H237.684V301.769Z" fill="#15161A"/>
<path d="M228.232 284.39H229.757V285.915H228.232V284.39Z" fill="#15161A"/>
<path d="M228.232 287.439H229.757V288.963H228.232V287.439Z" fill="#15161A"/>
<path d="M228.232 290.793H229.757V292.317H228.232V290.793Z" fill="#15161A"/>
<path d="M241.037 263.049H242.561V264.573H241.037V263.049Z" fill="#15161A"/>
<path d="M244.391 263.049H258.72V264.573H244.391V263.049Z" fill="#15161A"/>
<path d="M241.037 266.707H258.72V268.231H241.037V266.707Z" fill="#15161A"/>
<path d="M258.719 274.634H263.597V276.158H258.719V274.634Z" fill="#15161A"/>
<path d="M258.719 277.683H263.597V279.207H258.719V277.683Z" fill="#15161A"/>
<path d="M258.719 281.037H263.597V282.561H258.719V281.037Z" fill="#15161A"/>
<path d="M258.719 284.39H263.597V285.915H258.719V284.39Z" fill="#15161A"/>
<path d="M158.646 258.854C158.451 258.658 158.451 258.342 158.646 258.146L161.828 254.964C162.024 254.769 162.34 254.769 162.536 254.964C162.731 255.16 162.731 255.476 162.536 255.672L159.707 258.5L162.536 261.328C162.731 261.524 162.731 261.84 162.536 262.036C162.34 262.231 162.024 262.231 161.828 262.036L158.646 258.854ZM187.077 258.5H187.577V259H187.077V258.5ZM187.077 162.246H186.577V161.746H187.077V162.246ZM204.354 161.893C204.549 162.088 204.549 162.404 204.354 162.6L201.172 165.782C200.976 165.977 200.66 165.977 200.464 165.782C200.269 165.586 200.269 165.27 200.464 165.075L203.293 162.246L200.464 159.418C200.269 159.222 200.269 158.906 200.464 158.711C200.66 158.515 200.976 158.515 201.172 158.711L204.354 161.893ZM159 258H187.077V259H159V258ZM186.577 258.5V162.246H187.577V258.5H186.577ZM187.077 161.746H204V162.746H187.077V161.746Z" fill="#ED6638"/>
<path d="M60.1464 210.646C59.9512 210.842 59.9512 211.158 60.1464 211.354L63.3284 214.536C63.5237 214.731 63.8403 214.731 64.0355 214.536C64.2308 214.34 64.2308 214.024 64.0355 213.828L61.2071 211L64.0355 208.172C64.2308 207.976 64.2308 207.66 64.0355 207.464C63.8403 207.269 63.5237 207.269 63.3284 207.464L60.1464 210.646ZM157.5 211H158V210.5H157.5V211ZM157.5 280V280.5H158V280H157.5ZM60.1464 279.646C59.9512 279.842 59.9512 280.158 60.1464 280.354L63.3284 283.536C63.5237 283.731 63.8403 283.731 64.0355 283.536C64.2308 283.34 64.2308 283.024 64.0355 282.828L61.2071 280L64.0355 277.172C64.2308 276.976 64.2308 276.66 64.0355 276.464C63.8403 276.269 63.5237 276.269 63.3284 276.464L60.1464 279.646ZM60.5 211.5H157.5V210.5H60.5V211.5ZM157 211V280H158V211H157ZM157.5 279.5H60.5V280.5H157.5V279.5Z" fill="#ED6638"/>
<path d="M247 226.5V225.5H245V226.5H247ZM245.293 246.103C245.683 246.493 246.317 246.493 246.707 246.103L253.071 239.739C253.462 239.348 253.462 238.715 253.071 238.324C252.681 237.934 252.047 237.934 251.657 238.324L246 243.981L240.343 238.324C239.953 237.934 239.319 237.934 238.929 238.324C238.538 238.715 238.538 239.348 238.929 239.739L245.293 246.103ZM245 226.5V245.395H247V226.5H245Z" fill="#15161A"/>
<path d="M267 226.5V225.5H265V226.5H267ZM265.293 246.103C265.683 246.493 266.317 246.493 266.707 246.103L273.071 239.739C273.462 239.348 273.462 238.715 273.071 238.324C272.681 237.934 272.047 237.934 271.657 238.324L266 243.981L260.343 238.324C259.953 237.934 259.319 237.934 258.929 238.324C258.538 238.715 258.538 239.348 258.929 239.739L265.293 246.103ZM265 226.5V245.395H267V226.5H265Z" fill="#15161A"/>
<path d="M226 226.5V225.5H224V226.5H226ZM224.293 246.103C224.683 246.493 225.317 246.493 225.707 246.103L232.071 239.739C232.462 239.348 232.462 238.715 232.071 238.324C231.681 237.934 231.047 237.934 230.657 238.324L225 243.981L219.343 238.324C218.953 237.934 218.319 237.934 217.929 238.324C217.538 238.715 217.538 239.348 217.929 239.739L224.293 246.103ZM224 226.5V245.395H226V226.5H224Z" fill="#15161A"/>
<path d="M37.0252 413.172H8.34375L8.82712 409.711L10.8029 395.565L11.0277 393.953C11.4095 391.219 13.7663 389.182 16.549 389.182H28.8198C31.6025 389.182 33.9593 391.219 34.3411 393.953L34.5659 395.565L36.5417 409.711L37.0252 413.172Z" fill="#5AC9E6"/>
<path d="M39.2905 406.883C38.824 408.228 37.8318 409.221 36.5415 409.711C35.9566 409.933 35.3095 410.052 34.6221 410.052H31.655V406.04H34.6221C35.3058 406.04 35.4149 405.726 35.4675 405.575C35.6716 404.988 35.5277 403.736 34.5083 401.988C33.8198 400.808 32.5371 399.072 30.1766 396.926V413.172H15.1918V396.926C12.8313 399.072 11.5485 400.808 10.8601 401.988C9.84074 403.736 9.69681 404.988 9.90087 405.575C9.95353 405.726 10.0626 406.04 10.7463 406.04H13.7134V410.052H10.7463C10.0588 410.052 9.4118 409.933 8.82685 409.711C7.53659 409.221 6.5444 408.228 6.07793 406.883C5.61058 405.538 5.45349 403.248 7.35975 399.979C8.2024 398.534 9.35344 397.059 10.8027 395.565C11.7628 394.574 12.8556 393.574 14.0744 392.571C14.7835 391.987 15.676 391.667 16.5967 391.667H28.7716C29.6923 391.667 30.5847 391.987 31.2938 392.571C32.5127 393.574 33.6055 394.574 34.5656 395.565C36.0148 397.059 37.1659 398.534 38.0085 399.979C39.9149 403.248 39.7578 405.538 39.2905 406.883Z" fill="#F1F3F8"/>
<path d="M14.5898 391.667L16.1417 393.591C16.4727 394.001 16.9737 394.24 17.5034 394.24H22.6855H27.8675C28.3973 394.24 28.8982 394.001 29.2292 393.591L30.7811 391.667V390.78H14.5898V391.667Z" fill="#5AC9E6"/>
<path d="M25.1617 398.75H22.8106H22.5601H20.209L18.9551 400.212L21.651 404.652H23.7197L26.4157 400.212L25.1617 398.75Z" fill="#5AC9E6"/>
<path d="M30.651 405.188H29.7297C29.0387 405.188 28.4785 405.744 28.4785 406.43V409.643C28.4785 410.329 29.0387 410.884 29.7297 410.884H30.651C31.2061 410.884 31.656 410.438 31.656 409.888V406.186C31.656 405.635 31.206 405.188 30.651 405.188Z" fill="#F1F3F8"/>
<path d="M14.7198 405.188H15.6411C16.3321 405.188 16.8923 405.744 16.8923 406.43V409.643C16.8923 410.329 16.3321 410.884 15.6411 410.884H14.7198C14.1647 410.884 13.7148 410.438 13.7148 409.888V406.186C13.7148 405.635 14.1648 405.188 14.7198 405.188Z" fill="#F1F3F8"/>
<path fill-rule="evenodd" clip-rule="evenodd" d="M39.4786 401.249C39.319 400.878 38.8862 400.705 38.5117 400.864C38.1374 401.022 37.9634 401.451 38.1231 401.823C39.105 404.106 38.9219 405.705 38.5954 406.645C38.2079 407.762 37.3855 408.609 36.281 409.028C35.7675 409.222 35.2098 409.321 34.6235 409.321H32.3935V406.771H34.6234C35.6205 406.771 36.012 406.252 36.1663 405.812C36.3259 405.351 36.5461 404.019 35.1474 401.622C34.4852 400.486 33.1718 398.655 30.6754 396.387C30.46 396.191 30.1483 396.14 29.8809 396.257C29.6135 396.374 29.4409 396.636 29.4409 396.926V404.481C28.4817 404.62 27.7422 405.44 27.7422 406.43V409.643C27.7422 410.633 28.4817 411.452 29.4409 411.592V413.171C29.4409 413.575 29.7708 413.902 30.1777 413.902C30.5846 413.902 30.9145 413.575 30.9145 413.171V411.593C31.4331 411.515 31.8762 411.21 32.1386 410.782H34.6233C35.0713 410.782 35.5078 410.736 35.93 410.648L36.2965 413.272C36.3477 413.638 36.6634 413.902 37.0255 413.902C37.0592 413.902 37.0933 413.9 37.1276 413.895C37.5307 413.84 37.8122 413.471 37.7563 413.071L37.3488 410.155C38.5953 409.525 39.5221 408.465 39.9886 407.121C40.3996 405.939 40.6445 403.96 39.4786 401.249ZM33.8718 402.354C34.7955 403.937 34.8756 404.947 34.7846 405.297C34.7504 405.303 34.6984 405.309 34.6234 405.309H32.1502C31.8893 404.872 31.4407 404.559 30.9146 404.479V398.647C32.4847 400.235 33.3782 401.507 33.8718 402.354ZM29.2161 406.429V409.643C29.2161 409.924 29.4467 410.153 29.7304 410.153H30.1702H30.1855H30.6517C30.7995 410.153 30.9198 410.034 30.9198 409.887V406.185C30.9198 406.039 30.7996 405.919 30.6517 405.919H29.7304C29.4467 405.919 29.2161 406.148 29.2161 406.429Z" fill="black"/>
<path d="M19.1319 382.749C19.3242 383.222 19.6074 383.646 19.9742 384.009C20.6998 384.727 21.6629 385.123 22.6861 385.123C24.2556 385.123 25.6505 384.192 26.2398 382.75C26.3928 382.376 26.211 381.95 25.834 381.798C25.457 381.646 25.0272 381.827 24.8742 382.201C24.5116 383.088 23.6526 383.661 22.6862 383.661C22.0559 383.661 21.4624 383.417 21.0157 382.975C20.7904 382.751 20.6164 382.491 20.4987 382.202C20.3463 381.827 19.9169 381.646 19.5396 381.797C19.162 381.949 18.9796 382.375 19.1319 382.749Z" fill="black"/>
<path d="M18.856 379.093C19.2629 379.093 19.5928 378.766 19.5928 378.362V377.995C19.5928 377.591 19.2629 377.264 18.856 377.264C18.449 377.264 18.1191 377.591 18.1191 377.995V378.362C18.1191 378.765 18.449 379.093 18.856 379.093Z" fill="black"/>
<path d="M26.5161 379.093C26.9231 379.093 27.253 378.766 27.253 378.362V377.995C27.253 377.591 26.9231 377.264 26.5161 377.264C26.1092 377.264 25.7793 377.591 25.7793 377.995V378.362C25.7793 378.765 26.1092 379.093 26.5161 379.093Z" fill="black"/>
<path fill-rule="evenodd" clip-rule="evenodd" d="M25.1622 398.019C25.3781 398.019 25.5833 398.113 25.7233 398.276L26.9773 399.738C27.1824 399.977 27.2107 400.32 27.0473 400.589L24.3515 405.03C24.2182 405.249 23.9786 405.383 23.7203 405.383H21.6515C21.3931 405.383 21.1536 405.249 21.0203 405.03L18.3244 400.589C18.161 400.32 18.1892 399.977 18.3945 399.738L19.6484 398.276C19.7883 398.113 19.9934 398.019 20.2094 398.019H25.1622ZM22.0679 403.922H23.3038L25.5114 400.285L24.8217 399.481H20.5499L19.8602 400.285L22.0679 403.922Z" fill="#15161A"/>
<path fill-rule="evenodd" clip-rule="evenodd" d="M15.9305 404.481V396.926C15.9305 396.636 15.7578 396.374 15.4904 396.257C15.223 396.14 14.9113 396.191 14.6959 396.387C12.1995 398.655 10.8861 400.486 10.2243 401.622C8.82533 404.019 9.0455 405.351 9.20652 405.816C9.3594 406.252 9.751 406.771 10.748 406.771H12.9779V409.321H10.748C10.1617 409.321 9.60393 409.222 9.09187 409.029C7.98602 408.609 7.16361 407.762 6.77612 406.645C6.35917 405.443 6.23302 403.375 7.99928 400.346C8.80843 398.958 9.92991 397.521 11.3327 396.075L11.3338 396.073L11.3351 396.072C12.274 395.103 13.3547 394.115 14.5457 393.134C14.6031 393.087 14.662 393.042 14.7218 393L15.5665 394.047C16.0399 394.634 16.7459 394.971 17.5034 394.971H20.6463C21.2494 395.374 21.949 395.586 22.6858 395.586C23.4238 395.586 24.1244 395.373 24.7256 394.971H27.8683C28.6258 394.971 29.3317 394.634 29.8054 394.047L30.6499 393C30.7092 393.042 30.7677 393.086 30.8245 393.133C32.017 394.115 33.0977 395.104 34.0365 396.072L34.0384 396.074L34.0385 396.074C35.0944 397.164 35.9933 398.249 36.7103 399.3C36.8527 399.508 37.0848 399.621 37.3212 399.621C37.4632 399.621 37.607 399.58 37.7335 399.495C38.0706 399.269 38.1588 398.815 37.9307 398.48C37.2052 397.417 36.3079 396.325 35.2652 395.234L35.0724 393.853C34.6421 390.773 31.9547 388.451 28.8213 388.451H27.7975C28.03 388.274 28.2546 388.085 28.4687 387.882C29.8584 386.57 30.7406 384.851 30.9951 382.984H32.084C33.4757 382.984 34.6079 381.862 34.6079 380.481V379.642C34.6079 378.692 34.0712 377.864 33.2826 377.44V370.408C33.2826 368.073 31.3677 366.173 29.0138 366.173H28.0347C27.2966 364.846 25.865 364 24.3285 364H19.3258C17.6481 364 16.0132 364.583 14.7224 365.64C14.4087 365.897 14.3644 366.358 14.6236 366.669C14.8827 366.981 15.3471 367.025 15.661 366.767C16.6882 365.926 17.9898 365.462 19.3258 365.462H24.3285C26.1222 365.462 26.7795 366.922 26.8974 367.184C26.9077 367.207 26.9139 367.22 26.9164 367.223C27.0396 367.475 27.2971 367.635 27.5794 367.635H29.0138C30.555 367.635 31.8089 368.879 31.8089 370.408V377.139H31.0731V374.441C31.0731 372.334 30.1693 370.314 28.5941 368.9C28.3077 368.642 27.9032 368.56 27.5385 368.684C27.1732 368.808 26.9048 369.12 26.8381 369.498C26.3785 372.09 24.1158 373.971 21.4579 373.971H15.0355C14.6286 373.971 14.2987 374.298 14.2987 374.702V377.139H13.5628V371.178C13.5628 370.368 13.73 369.585 14.0599 368.853C14.2257 368.484 14.059 368.052 13.6874 367.887C13.3158 367.723 12.8801 367.888 12.7142 368.257C12.2995 369.178 12.0892 370.161 12.0892 371.178V377.44C11.3006 377.864 10.7639 378.692 10.7639 379.642V380.481C10.7639 381.862 11.8961 382.984 13.2878 382.984H14.3773C14.6779 385.159 15.8471 387.126 17.5763 388.451H16.5506C13.4171 388.451 10.7296 390.773 10.2993 393.853L10.1068 395.232C8.6982 396.707 7.56012 398.18 6.72386 399.614C4.67937 403.12 4.86613 405.632 5.3829 407.121C5.84928 408.465 6.77583 409.524 8.02276 410.155L7.61534 413.071C7.55954 413.471 7.84091 413.84 8.24401 413.896C8.2784 413.9 8.31239 413.903 8.34609 413.903C8.70812 413.903 9.02389 413.638 9.07507 413.272L9.44163 410.648C9.86359 410.737 10.3003 410.783 10.7483 410.783H13.233C13.4954 411.21 13.9385 411.515 14.4571 411.593V413.171C14.4571 413.575 14.787 413.902 15.1939 413.902C15.6008 413.902 15.9307 413.575 15.9307 413.171V411.592C16.8899 411.452 17.6294 410.633 17.6294 409.643V406.43C17.6291 405.44 16.8896 404.62 15.9305 404.481ZM20.4891 391.944V389.913C20.5432 389.914 20.6449 389.935 20.7902 389.965C21.1605 390.041 21.8141 390.176 22.6858 390.176C23.3965 390.176 24.0922 390.089 24.7782 389.915L24.7837 389.913H24.8825V391.944C24.8825 393.15 23.8971 394.124 22.6857 394.124C21.4946 394.124 20.4891 393.169 20.4891 391.944ZM31.7642 392.006C32.3732 392.508 32.954 393.011 33.5037 393.514C32.9589 391.427 31.036 389.913 28.8214 389.913H26.3564V391.945C26.3564 392.495 26.234 393.027 26.0023 393.509H27.8684C28.1759 393.509 28.4625 393.372 28.6547 393.134L30.2059 391.21C30.4602 390.895 30.9238 390.844 31.2416 391.096C31.4637 391.272 31.5552 391.55 31.5038 391.809C31.5924 391.872 31.6795 391.937 31.7642 392.006ZM15.7831 382.216C15.763 381.827 15.4395 381.522 15.0472 381.522H13.2876C12.7085 381.522 12.2374 381.055 12.2374 380.481V379.642C12.2374 379.068 12.7085 378.601 13.2876 378.601H15.0354C15.4424 378.601 15.7723 378.274 15.7723 377.87V375.433H21.4578C24.5711 375.433 27.2576 373.399 28.1135 370.499C29.0649 371.586 29.5994 372.988 29.5994 374.441V377.87C29.5994 378.274 29.9293 378.601 30.3362 378.601H32.084C32.6632 378.601 33.1342 379.068 33.1342 379.642V380.481C33.1342 381.055 32.6632 381.522 32.084 381.522H30.3244C29.9322 381.522 29.6088 381.827 29.5886 382.216C29.4972 383.972 28.7386 385.609 27.4521 386.824C26.8351 387.407 26.1233 387.868 25.3366 388.192C24.4966 388.539 23.6047 388.714 22.6858 388.714C21.7498 388.714 20.8424 388.525 20.0351 388.192C17.5873 387.183 15.9184 384.837 15.7831 382.216ZM19.0154 389.913H16.5504C14.3357 389.913 12.4129 391.427 11.868 393.514C12.4174 393.012 12.9978 392.508 13.606 392.008C13.6912 391.938 13.779 391.872 13.868 391.809C13.8164 391.55 13.908 391.272 14.1301 391.096C14.4478 390.844 14.9115 390.895 15.1658 391.21L16.7171 393.134C16.9092 393.372 17.1959 393.509 17.5034 393.509H19.3694C19.1392 393.028 19.0154 392.497 19.0154 391.944V389.913ZM10.5871 405.297C10.4962 404.943 10.5777 403.935 11.5 402.354C11.9934 401.507 12.8869 400.235 14.4569 398.647V404.479C13.9308 404.559 13.4822 404.872 13.2213 405.309H10.7481C10.6732 405.309 10.6212 405.303 10.5871 405.297ZM15.6411 410.153C15.9248 410.153 16.1554 409.925 16.1554 409.643V406.43C16.1554 406.148 15.9248 405.919 15.6411 405.919H14.7198C14.5719 405.919 14.4516 406.039 14.4516 406.185V409.887C14.4516 410.034 14.5719 410.153 14.7198 410.153H15.186H15.2013H15.6411Z" fill="#15161A"/>
</svg>
