<?xml version="1.0" encoding="UTF-8" standalone="no"?>
<svg width="80" xmlns="http://www.w3.org/2000/svg" viewBox="0 0 80 80" height="80">
 <path d="m77.393 25.794c3.025 7.964 3.429 16.687 1.152 24.897-2.278 8.21-7.117 15.478-13.813 20.746s-14.9 8.26-23.415 8.541c-8.515 0.28-16.898-2.166-23.926-6.981-7.028-4.816-12.336-11.75-15.148-19.792-2.8131-8.043-2.9844-16.773-0.4895-24.919 2.4949-8.147 7.5258-15.284 14.36-20.371 6.833-5.0883 15.113-7.8611 23.633-7.915 0.059-0.00033452 0.118 0.010967 0.172 0.033258 0.055 0.022292 0.105 0.055138 0.147 0.096672 0.042 0.04153 0.075 0.09093 0.098 0.14538s0.035 0.11288 0.035 0.17195c0.001 0.05908-0.011 0.11765-0.033 0.17236s-0.055 0.10448-0.096 0.1465c-0.042 0.04201-0.091 0.07544-0.146 0.09836-0.054 0.02292-0.113 0.0349-0.172 0.03524-8.34 0.04634-16.447 2.7553-23.14 7.7319-6.6927 4.9764-11.621 11.96-14.066 19.934-2.4457 7.974-2.2804 16.52 0.4714 24.393 2.7519 7.873 7.9466 14.662 14.827 19.376 6.88 4.714 15.086 7.108 23.422 6.831 8.336-0.276 16.365-3.207 22.918-8.366 6.553-5.16 11.287-12.277 13.512-20.315 2.224-8.038 1.824-16.577-1.144-24.371-0.042-0.111-0.038-0.235 0.01-0.343 0.049-0.109 0.139-0.194 0.251-0.236 0.111-0.042 0.234-0.039 0.343 0.01 0.109 0.048 0.194 0.138 0.237 0.249z" fill="#fff"/>
 <path d="m75.343 26.685c2.667 7.079 3.134 14.799 1.339 22.148-1.794 7.349-5.767 13.985-11.398 19.038-0.089 0.079-0.206 0.12-0.325 0.113s-0.23-0.061-0.31-0.15c-0.079-0.089-0.12-0.206-0.113-0.325s0.061-0.231 0.15-0.31c4.963-4.418 8.624-10.109 10.587-16.457s2.153-13.111 0.549-19.56c-1.604-6.448-4.94-12.335-9.647-17.024-4.708-4.6889-10.608-8.0017-17.062-9.58-6.455-1.5783-13.218-1.362-19.558 0.6256s-12.017 5.6704-16.415 10.651c-4.3981 4.98-7.351 11.069-8.5393 17.606-1.1882 6.537-0.5665 13.275 1.7979 19.485 0.0425 0.111 0.039 0.235-0.0098 0.344-0.0489 0.109-0.1389 0.194-0.2504 0.236-0.1115 0.043-0.2353 0.039-0.3442-0.01-0.1089-0.048-0.1939-0.138-0.2364-0.25-3.5249-9.254-3.2292-19.529 0.8219-28.565 4.0513-9.036 11.526-16.093 20.78-19.618 9.254-3.5249 19.529-3.2293 28.565 0.8218s16.093 11.526 19.618 20.78z" fill="#fff"/>
 <path d="m26.379 38.899c-0.445 0-0.88-0.132-1.249-0.379-0.37-0.247-0.659-0.598-0.829-1.01-0.17-0.411-0.215-0.863-0.128-1.299 0.087-0.437 0.301-0.837 0.616-1.152 0.314-0.314 0.715-0.529 1.151-0.615 0.437-0.087 0.889-0.043 1.3 0.128 0.411 0.17 0.762 0.458 1.009 0.828s0.379 0.805 0.379 1.25c0 0.596-0.237 1.168-0.659 1.589-0.422 0.422-0.993 0.659-1.59 0.66zm0-3.599c-0.267 0-0.528 0.079-0.75 0.228-0.221 0.148-0.395 0.359-0.497 0.605-0.102 0.247-0.128 0.518-0.076 0.78s0.18 0.502 0.369 0.691 0.429 0.317 0.691 0.369 0.533 0.026 0.78-0.077c0.246-0.102 0.457-0.275 0.605-0.496 0.149-0.222 0.228-0.483 0.228-0.75-0.001-0.358-0.143-0.701-0.396-0.954s-0.596-0.396-0.954-0.396z" fill="#fff"/>
 <path d="m60.569 51.495h-6.298c-0.12 0-0.234-0.048-0.319-0.132-0.084-0.084-0.131-0.199-0.131-0.318s0.047-0.234 0.131-0.318c0.085-0.085 0.199-0.132 0.319-0.132h5.848v-15.745c-0.001-0.835-0.333-1.635-0.924-2.226-0.59-0.59-1.39-0.922-2.225-0.923h-32.39c-0.835 0.001-1.635 0.333-2.226 0.923-0.59 0.591-0.922 1.391-0.923 2.226v15.745h5.848c0.119 0 0.234 0.047 0.318 0.132 0.085 0.084 0.132 0.199 0.132 0.318s-0.047 0.234-0.132 0.318c-0.084 0.084-0.199 0.132-0.318 0.132h-6.298c-0.059 0-0.117-0.012-0.172-0.035-0.055-0.022-0.104-0.055-0.146-0.097s-0.075-0.091-0.098-0.146c-0.022-0.055-0.034-0.113-0.034-0.172v-16.195c0.001-1.073 0.428-2.103 1.187-2.862s1.788-1.186 2.862-1.187h32.39c1.073 0.001 2.102 0.428 2.861 1.187s1.186 1.789 1.187 2.862v16.195c0 0.059-0.011 0.117-0.034 0.172-0.022 0.055-0.056 0.104-0.097 0.146-0.042 0.042-0.092 0.075-0.146 0.097-0.055 0.023-0.113 0.035-0.172 0.035z" fill="#fff"/>
 <path d="m54.27 60.492h-26.991c-0.059 0-0.118-0.012-0.172-0.034-0.055-0.023-0.104-0.056-0.146-0.098s-0.075-0.091-0.098-0.146c-0.022-0.054-0.034-0.113-0.034-0.172v-17.095c0-0.059 0.012-0.117 0.034-0.172 0.023-0.054 0.056-0.104 0.098-0.146 0.042-0.041 0.091-0.075 0.146-0.097 0.054-0.023 0.113-0.034 0.172-0.034h26.991c0.06 0 0.118 0.011 0.173 0.034 0.054 0.022 0.104 0.056 0.146 0.097 0.041 0.042 0.075 0.092 0.097 0.146 0.023 0.055 0.034 0.113 0.034 0.172v17.095c0 0.059-0.011 0.118-0.034 0.172-0.022 0.055-0.056 0.104-0.097 0.146-0.042 0.042-0.092 0.075-0.146 0.098-0.055 0.022-0.113 0.034-0.173 0.034zm-26.541-0.9h26.092v-16.195h-26.092v16.195z" fill="#fff"/>
 <path d="m54.27 30.801c-0.059 0-0.117-0.011-0.172-0.034-0.054-0.023-0.104-0.056-0.146-0.097-0.042-0.042-0.075-0.092-0.097-0.146-0.023-0.055-0.035-0.114-0.034-0.173v-8.547h-26.092v8.547c0 0.12-0.048 0.234-0.132 0.318-0.084 0.085-0.199 0.132-0.318 0.132s-0.234-0.047-0.318-0.132c-0.085-0.084-0.132-0.198-0.132-0.318v-8.997c0-0.059 0.012-0.117 0.034-0.172 0.023-0.055 0.056-0.104 0.098-0.146s0.091-0.075 0.146-0.098c0.054-0.022 0.113-0.034 0.172-0.034h26.991c0.06 0 0.118 0.012 0.173 0.034 0.054 0.023 0.104 0.056 0.146 0.098 0.041 0.042 0.075 0.091 0.097 0.146 0.023 0.055 0.034 0.113 0.034 0.172v8.997c0 0.059-0.011 0.118-0.034 0.173-0.022 0.054-0.056 0.104-0.097 0.146-0.042 0.041-0.092 0.074-0.146 0.097-0.055 0.023-0.113 0.034-0.173 0.034z" fill="#fff"/>
 <path d="m56.97 43.397h-31.49c-0.12 0-0.234-0.047-0.318-0.131-0.085-0.085-0.132-0.199-0.132-0.319 0-0.119 0.047-0.233 0.132-0.318 0.084-0.084 0.198-0.131 0.318-0.131h31.49c0.119 0 0.233 0.047 0.318 0.131 0.084 0.085 0.132 0.199 0.132 0.318 0 0.12-0.048 0.234-0.132 0.319-0.085 0.084-0.199 0.131-0.318 0.131z" fill="#fff"/>
 <path d="m48.872 46.996h-17.094v0.9h17.094v-0.9z" fill="#fff"/>
 <path d="m48.872 50.595h-17.094v0.9h17.094v-0.9z" fill="#fff"/>
 <path d="m48.872 54.194h-17.094v0.9h17.094v-0.9z" fill="#fff"/>
</svg>
