<?xml version="1.0" encoding="UTF-8" standalone="no"?>
<svg width="80" xmlns="http://www.w3.org/2000/svg" viewBox="0 0 80 80" height="80">
 <path d="m77.393 25.794c3.025 7.965 3.429 16.687 1.152 24.897-2.278 8.21-7.117 15.479-13.813 20.747s-14.9 8.26-23.415 8.54c-8.515 0.281-16.898-2.165-23.926-6.981-7.028-4.815-12.336-11.749-15.148-19.792-2.8131-8.042-2.9844-16.772-0.4895-24.919 2.4949-8.146 7.5258-15.284 14.36-20.371 6.833-5.0882 15.113-7.8611 23.633-7.915 0.119-0.00068326 0.234 0.04605 0.319 0.12993 0.085 0.08387 0.133 0.19802 0.133 0.31733 0.001 0.11932-0.046 0.23401-0.129 0.31887-0.084 0.08485-0.198 0.13291-0.318 0.1336-8.34 0.04634-16.447 2.7553-23.14 7.732-6.6927 4.9763-11.621 11.961-14.066 19.934-2.4457 7.974-2.2804 16.521 0.4714 24.394 2.7519 7.873 7.9466 14.662 14.827 19.376 6.88 4.714 15.086 7.107 23.422 6.831s16.365-3.207 22.918-8.367c6.553-5.159 11.287-12.276 13.512-20.314 2.224-8.039 1.824-16.577-1.144-24.372-0.042-0.111-0.038-0.234 0.01-0.343 0.049-0.109 0.139-0.193 0.251-0.236 0.111-0.042 0.234-0.039 0.343 0.01 0.109 0.048 0.194 0.138 0.237 0.249z" fill="#fff"/>
 <path d="m75.343 26.685c2.667 7.079 3.134 14.799 1.339 22.149-1.794 7.349-5.767 13.985-11.398 19.038-0.089 0.079-0.206 0.12-0.325 0.113s-0.23-0.061-0.31-0.15c-0.079-0.089-0.12-0.206-0.113-0.325 0.007-0.12 0.061-0.231 0.15-0.31 4.963-4.418 8.624-10.109 10.587-16.457s2.153-13.112 0.549-19.56-4.94-12.335-9.647-17.025c-4.708-4.6888-10.608-8.0017-17.062-9.58-6.455-1.5783-13.218-1.362-19.558 0.6256-6.34 1.9877-12.017 5.6704-16.415 10.651-4.3981 4.981-7.351 11.069-8.5393 17.606-1.1882 6.538-0.5665 13.276 1.7979 19.485 0.0211 0.056 0.031 0.114 0.0293 0.173s-0.015 0.118-0.0391 0.171c-0.0242 0.054-0.0588 0.103-0.1017 0.144-0.043 0.04-0.0935 0.072-0.1487 0.093s-0.114 0.031-0.1731 0.029c-0.059-0.002-0.1172-0.015-0.1711-0.039s-0.1025-0.059-0.1431-0.102c-0.0405-0.043-0.0722-0.093-0.0933-0.148-1.7453-4.583-2.5711-9.464-2.43-14.365 0.141-4.901 1.246-9.727 3.2519-14.201s4.8733-8.51 8.4383-11.876c3.566-3.3658 7.76-5.9966 12.342-7.742s9.463-2.5711 14.364-2.4301 9.727 1.246 14.201 3.2519c4.474 2.006 8.509 4.8732 11.875 8.4392 3.367 3.565 5.997 7.759 7.743 12.341z" fill="#fff"/>
 <path d="m51.925 59.742h-23.393c-0.596-0.001-1.168-0.238-1.589-0.66-0.422-0.422-0.659-0.993-0.66-1.59v-33.29c0.001-0.596 0.238-1.168 0.66-1.589 0.421-0.422 0.993-0.659 1.589-0.66h23.393c0.596 0.001 1.168 0.238 1.59 0.66 0.421 0.421 0.659 0.993 0.659 1.589v33.29c0 0.597-0.238 1.168-0.659 1.59-0.422 0.422-0.994 0.659-1.59 0.66zm-23.393-36.889c-0.357 0-0.7 0.143-0.953 0.396s-0.396 0.596-0.396 0.953v33.29c0 0.358 0.143 0.701 0.396 0.954s0.596 0.395 0.953 0.396h23.393c0.358-0.001 0.701-0.143 0.954-0.396s0.395-0.596 0.396-0.954v-33.29c-0.001-0.357-0.143-0.7-0.396-0.953s-0.596-0.396-0.954-0.396h-23.393z" fill="#fff"/>
 <path d="m53.724 31.85h-26.991v0.9h26.991v-0.9z" fill="#fff"/>
 <path d="m47.639 54.984c-0.444 0-0.879-0.132-1.249-0.379s-0.658-0.598-0.829-1.009c-0.17-0.411-0.214-0.863-0.128-1.3 0.087-0.436 0.301-0.837 0.616-1.151 0.315-0.315 0.715-0.529 1.152-0.616 0.436-0.087 0.888-0.042 1.299 0.128s0.762 0.459 1.01 0.829c0.247 0.369 0.379 0.804 0.379 1.249-0.001 0.597-0.238 1.168-0.66 1.59-0.421 0.422-0.993 0.659-1.59 0.659zm0-3.598c-0.267 0-0.527 0.079-0.749 0.227s-0.395 0.359-0.497 0.606c-0.103 0.246-0.129 0.518-0.077 0.779 0.052 0.262 0.18 0.503 0.369 0.692 0.189 0.188 0.429 0.317 0.691 0.369s0.533 0.025 0.78-0.077c0.246-0.102 0.457-0.275 0.606-0.497 0.148-0.222 0.227-0.483 0.227-0.75 0-0.358-0.143-0.701-0.396-0.954s-0.596-0.395-0.954-0.395z" fill="#fff"/>
 <path d="m33.244 40.588c-0.445 0-0.88-0.132-1.25-0.379s-0.658-0.598-0.828-1.009-0.215-0.863-0.128-1.3c0.087-0.436 0.301-0.837 0.615-1.151 0.315-0.315 0.716-0.529 1.152-0.616s0.889-0.042 1.3 0.128 0.762 0.459 1.009 0.829c0.247 0.369 0.379 0.804 0.379 1.249-0.001 0.597-0.238 1.168-0.659 1.59-0.422 0.422-0.994 0.659-1.59 0.659zm0-3.598c-0.267 0-0.528 0.079-0.75 0.227s-0.395 0.359-0.497 0.606c-0.102 0.246-0.129 0.518-0.077 0.779 0.052 0.262 0.181 0.503 0.37 0.692 0.188 0.188 0.429 0.317 0.691 0.369 0.261 0.052 0.533 0.025 0.779-0.077 0.247-0.102 0.458-0.275 0.606-0.497s0.228-0.483 0.228-0.75c-0.001-0.358-0.143-0.701-0.396-0.954s-0.596-0.395-0.954-0.395z" fill="#fff"/>
 <path d="m33.244 47.787c-0.445 0-0.88-0.132-1.25-0.379-0.37-0.248-0.658-0.599-0.828-1.01s-0.215-0.863-0.128-1.299c0.087-0.437 0.301-0.837 0.615-1.152 0.315-0.315 0.716-0.529 1.152-0.616s0.889-0.042 1.3 0.128c0.411 0.171 0.762 0.459 1.009 0.829s0.379 0.804 0.379 1.249c-0.001 0.597-0.238 1.169-0.659 1.59-0.422 0.422-0.994 0.659-1.59 0.66zm0-3.599c-0.267 0-0.528 0.079-0.75 0.227-0.222 0.149-0.395 0.359-0.497 0.606s-0.129 0.518-0.077 0.78c0.052 0.261 0.181 0.502 0.37 0.691 0.188 0.188 0.429 0.317 0.691 0.369 0.261 0.052 0.533 0.025 0.779-0.077 0.247-0.102 0.458-0.275 0.606-0.497s0.228-0.483 0.228-0.75c-0.001-0.357-0.143-0.701-0.396-0.953-0.253-0.254-0.596-0.396-0.954-0.396z" fill="#fff"/>
 <path d="m33.244 54.984c-0.445 0-0.88-0.132-1.25-0.379s-0.658-0.598-0.828-1.009-0.215-0.863-0.128-1.3c0.087-0.436 0.301-0.837 0.615-1.151 0.315-0.315 0.716-0.529 1.152-0.616s0.889-0.042 1.3 0.128 0.762 0.459 1.009 0.829c0.247 0.369 0.379 0.804 0.379 1.249-0.001 0.597-0.238 1.168-0.659 1.59-0.422 0.422-0.994 0.659-1.59 0.659zm0-3.598c-0.267 0-0.528 0.079-0.75 0.227s-0.395 0.359-0.497 0.606c-0.102 0.246-0.129 0.518-0.077 0.779 0.052 0.262 0.181 0.503 0.37 0.692 0.188 0.188 0.429 0.317 0.691 0.369 0.261 0.052 0.533 0.025 0.779-0.077 0.247-0.102 0.458-0.275 0.606-0.497s0.228-0.483 0.228-0.75c-0.001-0.358-0.143-0.701-0.396-0.954s-0.596-0.395-0.954-0.395z" fill="#fff"/>
 <path d="m40.442 40.588c-0.445 0-0.88-0.132-1.25-0.379s-0.658-0.598-0.828-1.009c-0.171-0.411-0.215-0.863-0.128-1.3 0.086-0.436 0.301-0.837 0.615-1.151 0.315-0.315 0.715-0.529 1.152-0.616 0.436-0.087 0.888-0.042 1.299 0.128s0.763 0.459 1.01 0.829c0.247 0.369 0.379 0.804 0.379 1.249-0.001 0.597-0.238 1.168-0.66 1.59-0.421 0.422-0.993 0.659-1.589 0.659zm0-3.598c-0.267 0-0.528 0.079-0.75 0.227s-0.395 0.359-0.497 0.606c-0.102 0.246-0.129 0.518-0.077 0.779 0.052 0.262 0.181 0.503 0.369 0.692 0.189 0.188 0.43 0.317 0.691 0.369 0.262 0.052 0.534 0.025 0.78-0.077 0.247-0.102 0.458-0.275 0.606-0.497s0.227-0.483 0.227-0.75c0-0.358-0.143-0.701-0.395-0.954-0.254-0.253-0.596-0.395-0.954-0.395z" fill="#fff"/>
 <path d="m40.442 47.787c-0.445 0-0.88-0.132-1.25-0.379-0.37-0.248-0.658-0.599-0.828-1.01-0.171-0.411-0.215-0.863-0.128-1.299 0.086-0.437 0.301-0.837 0.615-1.152 0.315-0.315 0.715-0.529 1.152-0.616 0.436-0.087 0.888-0.042 1.299 0.128 0.411 0.171 0.763 0.459 1.01 0.829s0.379 0.804 0.379 1.249c-0.001 0.597-0.238 1.169-0.66 1.59-0.421 0.422-0.993 0.659-1.589 0.66zm0-3.599c-0.267 0-0.528 0.079-0.75 0.227-0.222 0.149-0.395 0.359-0.497 0.606s-0.129 0.518-0.077 0.78c0.052 0.261 0.181 0.502 0.369 0.691 0.189 0.188 0.43 0.317 0.691 0.369 0.262 0.052 0.534 0.025 0.78-0.077 0.247-0.102 0.458-0.275 0.606-0.497s0.227-0.483 0.227-0.75c0-0.357-0.143-0.701-0.395-0.953-0.254-0.254-0.596-0.396-0.954-0.396z" fill="#fff"/>
 <path d="m40.442 54.984c-0.445 0-0.88-0.132-1.25-0.379s-0.658-0.598-0.828-1.009c-0.171-0.411-0.215-0.863-0.128-1.3 0.086-0.436 0.301-0.837 0.615-1.151 0.315-0.315 0.715-0.529 1.152-0.616 0.436-0.087 0.888-0.042 1.299 0.128s0.763 0.459 1.01 0.829c0.247 0.369 0.379 0.804 0.379 1.249-0.001 0.597-0.238 1.168-0.66 1.59-0.421 0.422-0.993 0.659-1.589 0.659zm0-3.598c-0.267 0-0.528 0.079-0.75 0.227s-0.395 0.359-0.497 0.606c-0.102 0.246-0.129 0.518-0.077 0.779 0.052 0.262 0.181 0.503 0.369 0.692 0.189 0.188 0.43 0.317 0.691 0.369 0.262 0.052 0.534 0.025 0.78-0.077 0.247-0.102 0.458-0.275 0.606-0.497s0.227-0.483 0.227-0.75c0-0.358-0.143-0.701-0.395-0.954-0.254-0.253-0.596-0.395-0.954-0.395z" fill="#fff"/>
 <path d="m47.639 40.588c-0.444 0-0.879-0.132-1.249-0.379s-0.658-0.598-0.829-1.009c-0.17-0.411-0.214-0.863-0.128-1.3 0.087-0.436 0.301-0.837 0.616-1.151 0.315-0.315 0.715-0.529 1.152-0.616 0.436-0.087 0.888-0.042 1.299 0.128s0.762 0.459 1.01 0.829c0.247 0.369 0.379 0.804 0.379 1.249-0.001 0.597-0.238 1.168-0.66 1.59-0.421 0.422-0.993 0.659-1.59 0.659zm0-3.598c-0.267 0-0.527 0.079-0.749 0.227s-0.395 0.359-0.497 0.606c-0.103 0.246-0.129 0.518-0.077 0.779 0.052 0.262 0.18 0.503 0.369 0.692 0.189 0.188 0.429 0.317 0.691 0.369s0.533 0.025 0.78-0.077c0.246-0.102 0.457-0.275 0.606-0.497 0.148-0.222 0.227-0.483 0.227-0.75 0-0.358-0.143-0.701-0.396-0.954s-0.596-0.395-0.954-0.395z" fill="#fff"/>
 <path d="m47.639 47.787c-0.444 0-0.879-0.132-1.249-0.379-0.37-0.248-0.658-0.599-0.829-1.01-0.17-0.411-0.214-0.863-0.128-1.299 0.087-0.437 0.301-0.837 0.616-1.152s0.715-0.529 1.152-0.616c0.436-0.087 0.888-0.042 1.299 0.128 0.411 0.171 0.762 0.459 1.01 0.829 0.247 0.37 0.379 0.804 0.379 1.249-0.001 0.597-0.238 1.169-0.66 1.59-0.421 0.422-0.993 0.659-1.59 0.66zm0-3.599c-0.267 0-0.527 0.079-0.749 0.227-0.222 0.149-0.395 0.359-0.497 0.606-0.103 0.247-0.129 0.518-0.077 0.78 0.052 0.261 0.18 0.502 0.369 0.691 0.189 0.188 0.429 0.317 0.691 0.369s0.533 0.025 0.78-0.077c0.246-0.102 0.457-0.275 0.606-0.497 0.148-0.222 0.227-0.483 0.227-0.75 0-0.357-0.143-0.701-0.396-0.953-0.253-0.254-0.596-0.396-0.954-0.396z" fill="#fff"/>
 <path d="m49.889 28.442h-9.897v0.9h9.897v-0.9z" fill="#fff"/>
</svg>
