<?xml version="1.0" encoding="UTF-8" standalone="no"?>
<svg width="80" xmlns="http://www.w3.org/2000/svg" fill="none" viewBox="0 0 80 80" height="80">
 <path stroke-linejoin="round" stroke="#fff" stroke-linecap="round" d="m39.58 37.1h17.994"/>
 <path stroke-linejoin="round" stroke="#fff" stroke-linecap="round" d="m57.574 56.557h-17.994"/>
 <path stroke-linejoin="round" stroke="#fff" stroke-linecap="round" d="m54.875 62.116h-13.496c-0.715 0-1.402-0.292-1.908-0.814-0.507-0.521-0.791-1.228-0.791-1.965v-24.09c0-0.737 0.284-1.444 0.791-1.966 0.506-0.521 1.193-0.814 1.908-0.814h13.496c0.716 0 1.402 0.293 1.909 0.814 0.506 0.522 0.79 1.229 0.79 1.966v24.09c0 0.737-0.284 1.444-0.79 1.965-0.507 0.522-1.193 0.814-1.909 0.814z"/>
 <path stroke-linejoin="round" stroke="#fff" stroke-linecap="round" d="m38.231 50.535c-0.239 0-0.468-0.098-0.636-0.272-0.169-0.173-0.264-0.409-0.264-0.655s0.095-0.481 0.264-0.655c0.168-0.174 0.397-0.271 0.636-0.271"/>
 <path stroke-linejoin="round" stroke="#fff" stroke-linecap="square" d="m57.574 34.32v-11.118c0-0.492-0.189-0.963-0.527-1.311-0.337-0.347-0.795-0.542-1.272-0.542h-34.189c-0.478 0-0.935 0.195-1.273 0.542-0.337 0.348-0.527 0.819-0.527 1.311v28.722c0 0.492 0.19 0.963 0.527 1.311 0.338 0.347 0.795 0.543 1.273 0.543h16.194"/>
 <path stroke-linejoin="round" stroke="#fff" d="m53.976 31.541v-6.486h-30.591v20.384h14.396"/>
 <path stroke-linejoin="round" stroke="#fff" stroke-linecap="round" d="m41.38 62.116h-10.797"/>
 <path stroke-linejoin="round" stroke="#fff" stroke-linecap="round" d="m35.981 54.704v7.412"/>
 <path d="m54.986 3.1069c6.944 3.091 12.82 8.2701 16.857 14.858 4.038 6.589 6.049 14.279 5.769 22.065-0.004 0.122-0.056 0.238-0.144 0.321-0.088 0.084-0.204 0.128-0.323 0.123-0.119-0.006-0.232-0.059-0.313-0.149-0.08-0.091-0.123-0.211-0.118-0.333 0.272-6.837-1.276-13.62-4.477-19.617-3.201-5.996-7.933-10.977-13.684-14.404-5.751-3.4271-12.303-5.1696-18.946-5.0392-6.643 0.1303-13.125 2.1286-18.746 5.7787-5.62 3.6505-10.164 8.8135-13.141 14.93-2.9765 6.119-4.2725 12.958-3.7476 19.779 0.525 6.821 2.8508 13.365 6.7256 18.923 3.876 5.559 9.153 9.92 15.261 12.613 0.055 0.024 0.104 0.059 0.145 0.102 0.041 0.044 0.074 0.095 0.096 0.152 0.022 0.056 0.033 0.117 0.032 0.177 0 0.061-0.013 0.122-0.036 0.177-0.023 0.056-0.057 0.107-0.099 0.15-0.043 0.042-0.093 0.076-0.147 0.098-0.055 0.023-0.114 0.034-0.173 0.033-0.059 0-0.117-0.013-0.172-0.037-4.509-1.985-8.595-4.866-12.023-8.478-3.429-3.612-6.1325-7.884-7.9572-12.572-1.8248-4.688-2.7347-9.701-2.678-14.751 0.0568-5.05 1.0792-10.04 3.0088-14.683 1.9297-4.643 4.7284-8.85 8.2374-12.379 3.509-3.5291 7.658-6.3118 12.211-8.1892 4.553-1.8773 9.421-2.8125 14.325-2.752 4.904 0.060362 9.749 1.1152 14.257 3.1041z" fill="#fff"/>
 <path d="m55.77 0.95125c7.83 3.4592 14.383 9.4028 18.704 16.964 4.321 7.562 6.184 16.347 5.319 25.076-0.865 8.728-4.414 16.944-10.13 23.451-5.716 6.506-13.299 10.964-21.646 12.722s-17.022 0.726-24.759-2.946c-7.738-3.672-14.135-9.793-18.259-17.471-4.1244-7.677-5.7604-16.51-4.67-25.212 1.0905-8.702 4.8505-16.818 10.732-23.165 0.083-0.088 0.196-0.139 0.315-0.142 0.119-0.002 0.234 0.044 0.32 0.128 0.086 0.085 0.136 0.201 0.139 0.324 0.003 0.122-0.041 0.241-0.123 0.33-5.7625 6.209-9.4485 14.151-10.521 22.669-1.072 8.517 0.5255 17.165 4.5599 24.682s10.295 13.511 17.869 17.107c7.573 3.597 16.065 4.608 24.236 2.887s15.594-6.085 21.188-12.456c5.594-6.37 9.066-14.414 9.91-22.959 0.844-8.544-0.984-17.144-5.218-24.543-4.234-7.4-10.653-13.214-18.32-16.594-0.054-0.0238-0.104-0.0585-0.145-0.102s-0.074-0.095-0.096-0.1515-0.033-0.1169-0.033-0.1779c0.001-0.0608 0.013-0.121 0.037-0.177 0.023-0.056 0.057-0.1067 0.099-0.1493 0.042-0.0425 0.092-0.07603 0.147-0.09863 0.055-0.02261 0.114-0.03385 0.173-0.03306s0.118 0.01358 0.172 0.03764z" fill="#fff"/>
</svg>
