<?xml version="1.0" encoding="UTF-8" standalone="no"?>
<svg width="80" xmlns="http://www.w3.org/2000/svg" viewBox="0 0 80 80" height="80">
 <path d="m79.999 41.991c-0.424 8.51-3.556 16.661-8.939 23.268-5.384 6.606-12.737 11.322-20.989 13.461-8.253 2.138-16.973 1.587-24.89-1.572-7.917-3.16-14.618-8.764-19.126-15.995-4.5086-7.231-6.589-15.711-5.9382-24.207 0.65081-8.495 3.9987-16.56 9.556-23.021 5.5572-6.4608 13.033-10.98 21.34-12.898 8.306-1.9182 17.008-1.1359 24.838 2.2332 0.11 0.0474 0.196 0.1363 0.239 0.247 0.044 0.1107 0.042 0.2343-0.005 0.3436-0.047 0.1094-0.135 0.1956-0.246 0.2397-0.111 0.0442-0.235 0.0427-0.344-0.0041-7.663-3.3039-16.181-4.0755-24.313-2.2023-8.132 1.8731-15.453 6.2931-20.896 12.616-5.4421 6.322-8.7218 14.217-9.3605 22.532-0.63869 8.316 1.397 16.619 5.8103 23.697 4.4132 7.079 10.973 12.563 18.724 15.655s16.287 3.628 24.364 1.532c8.078-2.097 15.274-6.716 20.54-13.187 5.266-6.47 8.327-14.451 8.736-22.782 0.003-0.059 0.017-0.117 0.042-0.17 0.026-0.054 0.061-0.102 0.105-0.142s0.095-0.071 0.151-0.091 0.115-0.028 0.174-0.026c0.059 0.003 0.117 0.018 0.171 0.043 0.053 0.026 0.101 0.061 0.141 0.105s0.07 0.095 0.09 0.151 0.028 0.115 0.025 0.174z" fill="#fff"/>
 <path d="m77.69 41.997c-0.395 7.555-3.065 14.814-7.659 20.827-4.594 6.012-10.898 10.498-18.087 12.869-0.056 0.019-0.115 0.026-0.174 0.021-0.059-0.004-0.117-0.02-0.17-0.047s-0.1-0.063-0.138-0.109c-0.039-0.044-0.068-0.097-0.086-0.153-0.019-0.056-0.026-0.116-0.021-0.175s0.021-0.116 0.048-0.169 0.064-0.099 0.109-0.138c0.045-0.038 0.097-0.067 0.154-0.085 6.322-2.057 11.961-5.802 16.307-10.83 4.346-5.029 7.234-11.149 8.352-17.699 1.117-6.55 0.421-13.281-2.012-19.464-2.434-6.183-6.513-11.584-11.796-15.618-5.283-4.0342-11.569-6.548-18.178-7.2696-6.609-0.7217-13.29 0.3762-19.32 3.1749-6.031 2.7987-11.18 7.1917-14.892 12.704-3.7127 5.513-5.8464 11.934-6.1707 18.571-0.0062 0.119-0.0593 0.231-0.1477 0.31-0.0883 0.08-0.2048 0.122-0.3237 0.116-0.119-0.006-0.2308-0.059-0.311-0.147s-0.1222-0.204-0.1168-0.323c0.4821-9.891 4.8761-19.185 12.215-25.838 3.634-3.2946 7.882-5.8414 12.501-7.4952 4.619-1.6537 9.518-2.3821 14.419-2.1435 4.9 0.2385 9.706 1.4394 14.142 3.534s8.416 5.0417 11.712 8.6737 5.844 7.877 7.499 12.493 2.384 9.512 2.145 14.41z" fill="#fff"/>
 <path d="m38.819 58.761h-13.504c-0.597-0.001-1.169-0.238-1.591-0.659-0.422-0.422-0.659-0.994-0.66-1.59v-12.596c0.001-0.596 0.238-1.168 0.66-1.59s0.994-0.659 1.591-0.66h13.504c0.596 0.001 1.168 0.238 1.59 0.66s0.66 0.994 0.66 1.59v12.596c0 0.596-0.238 1.168-0.66 1.59-0.422 0.421-0.994 0.658-1.59 0.659zm-13.504-16.195c-0.358 0.001-0.702 0.143-0.955 0.396s-0.395 0.596-0.396 0.954v12.596c0.001 0.358 0.143 0.701 0.396 0.954s0.597 0.395 0.955 0.395h13.504c0.358 0 0.701-0.142 0.954-0.395s0.396-0.596 0.396-0.954v-12.596c0-0.358-0.143-0.701-0.396-0.954s-0.596-0.395-0.954-0.396h-13.504z" fill="#fff"/>
 <path d="m28.916 41.666h-0.004c-0.12-0.001-0.234-0.05-0.317-0.134-0.084-0.085-0.13-0.2-0.129-0.319 0.125-2.426 1.149-4.718 2.872-6.431 2.144-2.082 5.269-3.089 9.291-3.012 12.325 0.269 12.703-6.109 12.988-11.222 0.019-0.328 0.037-0.647 0.057-0.955 0.004-0.059 0.019-0.117 0.045-0.171 0.026-0.053 0.062-0.101 0.107-0.14 0.044-0.04 0.096-0.07 0.153-0.089 0.056-0.019 0.116-0.027 0.175-0.023s0.117 0.02 0.171 0.046c0.053 0.027 0.1 0.064 0.139 0.109s0.069 0.097 0.087 0.153c0.019 0.057 0.026 0.116 0.022 0.176-0.021 0.304-0.039 0.62-0.057 0.944-0.274 4.916-0.698 12.35-13.906 12.071-3.768-0.079-6.67 0.848-8.634 2.749-1.546 1.554-2.474 3.616-2.61 5.803-0.001 0.118-0.049 0.231-0.134 0.315-0.084 0.083-0.198 0.13-0.316 0.13z" fill="#fff"/>
 <path d="m39.719 55.162h-15.305c-0.119 0-0.233-0.047-0.318-0.131-0.084-0.085-0.132-0.199-0.132-0.318 0-0.12 0.048-0.234 0.132-0.319 0.085-0.084 0.199-0.131 0.318-0.131h15.305c0.119 0 0.234 0.047 0.318 0.131 0.085 0.085 0.132 0.199 0.132 0.319 0 0.119-0.047 0.233-0.132 0.318-0.084 0.084-0.199 0.131-0.318 0.131z" fill="#fff"/>
</svg>
