<?xml version="1.0" encoding="UTF-8" standalone="no"?>
<svg width="80" xmlns="http://www.w3.org/2000/svg" viewBox="0 0 80 80" height="80">
 <path d="m77.393 25.794c3.025 7.965 3.429 16.687 1.152 24.897-2.278 8.21-7.117 15.479-13.813 20.747s-14.9 8.26-23.415 8.54c-8.515 0.281-16.898-2.165-23.926-6.981-7.028-4.815-12.336-11.749-15.148-19.792-2.8131-8.042-2.9844-16.772-0.4895-24.919 2.4949-8.146 7.5258-15.284 14.36-20.371 6.833-5.0882 15.113-7.8611 23.633-7.915 0.119-0.00068326 0.234 0.046052 0.319 0.12993 0.085 0.08388 0.133 0.19803 0.133 0.31734 0.001 0.11931-0.046 0.23401-0.129 0.31886-0.084 0.08485-0.198 0.13291-0.318 0.1336-8.34 0.04634-16.447 2.7553-23.14 7.732-6.6927 4.9763-11.621 11.961-14.066 19.934-2.4457 7.974-2.2804 16.521 0.4714 24.394 2.7519 7.873 7.9466 14.662 14.827 19.376 6.88 4.714 15.086 7.107 23.422 6.831s16.365-3.207 22.918-8.367c6.553-5.159 11.287-12.276 13.512-20.314 2.224-8.039 1.824-16.577-1.144-24.372-0.042-0.111-0.038-0.234 0.01-0.343 0.049-0.109 0.139-0.193 0.251-0.236 0.111-0.042 0.234-0.039 0.343 0.01 0.109 0.048 0.194 0.138 0.237 0.249z" fill="#fff"/>
 <path d="m74.835 26.662c2.661 7.051 3.127 14.74 1.336 22.06s-5.755 13.929-11.373 18.961c-0.089 0.079-0.206 0.12-0.325 0.113s-0.23-0.061-0.309-0.15c-0.079-0.088-0.12-0.205-0.113-0.323 0.007-0.119 0.061-0.23 0.15-0.309 4.953-4.4 8.606-10.068 10.564-16.39 1.959-6.323 2.148-13.06 0.548-19.482-1.601-6.422-4.929-12.285-9.627-16.956-4.698-4.6698-10.585-7.9694-17.026-9.5414-6.44-1.5719-13.189-1.3564-19.516 0.6232-6.326 1.9796-11.99 5.6482-16.379 10.608-4.3891 4.961-7.3358 11.024-8.5214 17.536-1.1857 6.511-0.5653 13.222 1.794 19.406 0.0424 0.111 0.0388 0.234-0.0098 0.343-0.0488 0.108-0.1386 0.193-0.2499 0.235-0.1112 0.043-0.2348 0.039-0.3434-0.01-0.1087-0.048-0.1935-0.138-0.2359-0.249-3.5174-9.217-3.2224-19.451 0.8201-28.451 4.0423-8.999 11.501-16.028 20.735-19.538 9.235-3.5111 19.488-3.2167 28.505 0.8182 9.017 4.0348 16.058 11.48 19.576 20.697v-0.001z" fill="#fff"/>
 <path d="m33.786 43.704h-0.828c-0.251 0.005-0.496-0.078-0.69-0.235s-0.324-0.377-0.367-0.621l-0.106-0.594c-0.49-0.139-0.959-0.338-1.397-0.593l-0.456 0.32c-0.206 0.15-0.46 0.221-0.715 0.2s-0.493-0.133-0.671-0.314l-0.551-0.557c-0.181-0.181-0.29-0.418-0.309-0.671-0.019-0.252 0.054-0.503 0.206-0.707l0.314-0.457c-0.264-0.449-0.464-0.931-0.595-1.433l-0.569-0.102c-0.245-0.052-0.465-0.186-0.622-0.378-0.157-0.193-0.241-0.432-0.24-0.679v-0.805c-0.007-0.247 0.074-0.488 0.23-0.681 0.156-0.194 0.377-0.326 0.623-0.375l0.581-0.105c0.138-0.498 0.338-0.977 0.596-1.426l-0.327-0.475c-0.148-0.204-0.218-0.453-0.198-0.703 0.021-0.25 0.131-0.485 0.31-0.663l0.259-0.292 0.34-0.312c0.18-0.178 0.42-0.284 0.674-0.301 0.255-0.016 0.506 0.06 0.708 0.213l0.436 0.307c0.436-0.262 0.91-0.456 1.406-0.574l0.101-0.57c0.047-0.243 0.179-0.462 0.372-0.62 0.194-0.157 0.437-0.244 0.688-0.245h0.828c0.251-0.005 0.495 0.079 0.689 0.236s0.325 0.376 0.369 0.62l0.105 0.595c0.49 0.138 0.959 0.337 1.397 0.592l0.456-0.319c0.205-0.151 0.46-0.223 0.715-0.202s0.494 0.133 0.671 0.316l0.551 0.557c0.181 0.18 0.29 0.418 0.309 0.67s-0.054 0.503-0.206 0.707l-0.315 0.458c0.261 0.449 0.46 0.93 0.593 1.431l0.572 0.103 0.019 0.004c0.249 0.053 0.469 0.194 0.618 0.396 0.15 0.203 0.218 0.452 0.192 0.701l0.002 0.762c0.008 0.246-0.074 0.487-0.23 0.681-0.156 0.193-0.376 0.326-0.622 0.374l-0.582 0.105c-0.137 0.498-0.337 0.977-0.596 1.427l0.328 0.474c0.148 0.205 0.217 0.453 0.197 0.703-0.021 0.25-0.13 0.485-0.309 0.663l-0.552 0.557c-0.179 0.183-0.421 0.295-0.679 0.314-0.257 0.019-0.513-0.055-0.719-0.209l-0.438-0.308c-0.438 0.258-0.91 0.457-1.402 0.59l-0.104 0.586c-0.047 0.242-0.179 0.461-0.372 0.619-0.194 0.157-0.437 0.244-0.688 0.245zm-3.403-3.027c0.092 0 0.181 0.027 0.256 0.078 0.506 0.333 1.068 0.573 1.661 0.709 0.086 0.02 0.163 0.065 0.223 0.128 0.06 0.064 0.1 0.143 0.116 0.228l0.153 0.867c0.002 0.019 0.008 0.037 0.018 0.054s0.023 0.031 0.038 0.043c0.016 0.012 0.033 0.021 0.052 0.026 0.019 0.004 0.039 0.006 0.058 0.003h0.828c0.041-0.001 0.08-0.016 0.111-0.043 0.031-0.026 0.052-0.062 0.059-0.101l0.15-0.848c0.015-0.086 0.055-0.165 0.115-0.228 0.06-0.064 0.138-0.109 0.223-0.129 0.591-0.129 1.151-0.367 1.651-0.702 0.077-0.055 0.169-0.084 0.264-0.085 0.095 0 0.188 0.029 0.265 0.083l0.706 0.496c0.029 0.025 0.067 0.038 0.106 0.036s0.076-0.018 0.102-0.047l0.552-0.557c0.03-0.03 0.049-0.07 0.052-0.112 0.004-0.042-0.007-0.084-0.032-0.119l-0.5-0.725c-0.05-0.072-0.077-0.157-0.078-0.245-0.001-0.087 0.025-0.173 0.073-0.247 0.333-0.517 0.572-1.087 0.705-1.684 0.02-0.085 0.065-0.162 0.129-0.222s0.144-0.1 0.231-0.116l0.859-0.155c0.022-0.005 0.118-0.024 0.118-0.18v-0.805c0.011-0.128-0.055-0.171-0.101-0.183l-0.845-0.153c-0.087-0.016-0.168-0.056-0.231-0.116-0.064-0.06-0.109-0.137-0.129-0.222-0.127-0.595-0.364-1.162-0.698-1.674-0.052-0.074-0.08-0.161-0.08-0.251-0.001-0.089 0.027-0.177 0.078-0.251l0.49-0.712c0.029-0.035 0.043-0.079 0.041-0.124-0.002-0.044-0.02-0.087-0.051-0.12l-0.552-0.557c-0.024-0.027-0.058-0.044-0.094-0.048-0.037-0.004-0.073 0.007-0.102 0.028l-0.718 0.505c-0.076 0.053-0.166 0.082-0.259 0.083s-0.184-0.027-0.26-0.078c-0.506-0.333-1.069-0.573-1.661-0.709-0.086-0.02-0.163-0.065-0.223-0.128-0.061-0.064-0.101-0.143-0.116-0.228l-0.153-0.867c-0.002-0.019-0.009-0.037-0.018-0.054-0.01-0.017-0.023-0.031-0.038-0.043-0.016-0.012-0.034-0.02-0.053-0.025-0.018-0.005-0.038-0.006-0.057-0.004h-0.828c-0.041 0.001-0.08 0.016-0.111 0.043-0.031 0.026-0.052 0.061-0.059 0.101l-0.149 0.849c-0.016 0.089-0.06 0.172-0.124 0.236-0.066 0.065-0.149 0.109-0.24 0.126-0.586 0.1-1.141 0.327-1.626 0.665-0.077 0.055-0.17 0.085-0.264 0.085-0.096 0-0.188-0.029-0.266-0.083l-0.704-0.495c-0.015-0.013-0.032-0.023-0.05-0.03-0.018-0.006-0.037-0.009-0.057-0.008-0.019 0.001-0.038 0.006-0.056 0.014-0.017 0.008-0.033 0.02-0.046 0.034l-0.566 0.571c-0.036 0.03-0.059 0.071-0.066 0.117s0.004 0.093 0.029 0.132l0.5 0.724c0.05 0.072 0.077 0.158 0.078 0.245 0.001 0.088-0.025 0.174-0.073 0.247-0.333 0.517-0.571 1.087-0.705 1.685-0.02 0.084-0.065 0.161-0.129 0.221s-0.144 0.1-0.231 0.116l-0.858 0.155c-0.022 0.005-0.119 0.024-0.119 0.181v0.805c-0.002 0.041 0.011 0.082 0.036 0.116 0.025 0.033 0.061 0.057 0.102 0.068l0.839 0.151c0.088 0.016 0.169 0.057 0.233 0.118 0.064 0.06 0.109 0.138 0.128 0.224 0.122 0.595 0.359 1.162 0.697 1.67 0.052 0.074 0.08 0.161 0.08 0.251s-0.027 0.177-0.078 0.251l-0.49 0.712c-0.029 0.035-0.044 0.079-0.042 0.124s0.021 0.087 0.052 0.12l0.552 0.557c0.024 0.027 0.058 0.045 0.094 0.048 0.037 0.004 0.073-0.006 0.102-0.028l0.718-0.505c0.077-0.054 0.169-0.083 0.263-0.083z" fill="#fff"/>
 <path d="m33.388 39.402c-0.591 0.013-1.172-0.148-1.67-0.461s-0.889-0.764-1.124-1.297c-0.236-0.533-0.304-1.122-0.197-1.694 0.107-0.571 0.385-1.098 0.798-1.513s0.942-0.7 1.521-0.818c0.578-0.118 1.179-0.064 1.726 0.155 0.548 0.219 1.016 0.594 1.345 1.076 0.33 0.482 0.506 1.049 0.506 1.63 0.008 0.766-0.294 1.504-0.838 2.051-0.545 0.548-1.288 0.861-2.067 0.871zm0-4.952c-0.412-0.014-0.818 0.094-1.166 0.309-0.349 0.215-0.624 0.528-0.791 0.898s-0.217 0.78-0.145 1.178c0.072 0.399 0.263 0.767 0.549 1.058 0.287 0.29 0.655 0.49 1.057 0.574 0.403 0.084 0.822 0.048 1.203-0.104 0.382-0.152 0.708-0.412 0.939-0.748 0.23-0.335 0.352-0.731 0.352-1.135 0.008-0.53-0.198-1.041-0.572-1.421-0.375-0.381-0.888-0.6-1.426-0.609z" fill="#fff"/>
 <path d="m42.224 45.078c-0.106 0-0.211-0.02-0.309-0.06l-0.477-0.191c-0.182-0.069-0.333-0.199-0.428-0.367-0.094-0.167-0.125-0.362-0.089-0.55l0.055-0.274c-0.202-0.163-0.387-0.345-0.552-0.545l-0.228 0.054c-0.193 0.048-0.397 0.026-0.575-0.062s-0.317-0.236-0.393-0.417l-0.192-0.449c-0.08-0.181-0.091-0.384-0.031-0.573 0.059-0.188 0.185-0.349 0.354-0.455l0.188-0.125c-0.034-0.265-0.039-0.532-0.014-0.798l-0.219-0.137c-0.162-0.107-0.281-0.265-0.34-0.447-0.059-0.183-0.052-0.38 0.017-0.559l0.183-0.464c0.065-0.182 0.195-0.336 0.366-0.431 0.17-0.096 0.371-0.128 0.564-0.089l0.253 0.051c0.161-0.202 0.342-0.389 0.541-0.557l-0.057-0.247c-0.049-0.189-0.028-0.389 0.059-0.564s0.235-0.314 0.416-0.392l0.492-0.213c0.183-0.075 0.388-0.082 0.576-0.02 0.188 0.061 0.348 0.188 0.448 0.357l0.12 0.183c0.254-0.033 0.51-0.034 0.764-0.004l0.127-0.208c0.105-0.162 0.265-0.284 0.452-0.344 0.187-0.059 0.389-0.053 0.572 0.017l0.477 0.192c0.182 0.07 0.333 0.199 0.428 0.367 0.094 0.167 0.125 0.362 0.089 0.55l-0.055 0.274c0.202 0.163 0.386 0.345 0.552 0.545l0.227-0.054c0.194-0.049 0.398-0.027 0.576 0.062 0.178 0.088 0.318 0.237 0.393 0.419l0.192 0.448c0.079 0.181 0.09 0.384 0.031 0.572s-0.185 0.349-0.354 0.455l-0.189 0.126c0.033 0.264 0.037 0.531 0.013 0.796l0.221 0.138 0.016 0.011c0.164 0.11 0.282 0.275 0.332 0.464s0.028 0.389-0.062 0.564l-0.164 0.424c-0.066 0.182-0.195 0.335-0.366 0.431-0.171 0.095-0.371 0.127-0.563 0.089l-0.254-0.051c-0.161 0.202-0.342 0.389-0.541 0.556l0.057 0.248c0.049 0.189 0.028 0.389-0.059 0.564-0.088 0.175-0.235 0.314-0.417 0.392l-0.444 0.194c-0.185 0.079-0.394 0.09-0.586 0.03-0.193-0.061-0.356-0.188-0.46-0.358l-0.121-0.184c-0.253 0.031-0.509 0.035-0.763 0.012l-0.134 0.218c-0.077 0.117-0.183 0.214-0.308 0.282-0.125 0.067-0.265 0.103-0.407 0.104zm-1.615-2.934c0.074 0 0.148 0.018 0.213 0.052 0.066 0.034 0.122 0.084 0.163 0.145 0.205 0.292 0.46 0.546 0.755 0.75 0.071 0.05 0.125 0.119 0.157 0.198 0.032 0.08 0.04 0.167 0.023 0.25l-0.108 0.535 0.384 0.103 0.251-0.409c0.046-0.076 0.114-0.136 0.195-0.173 0.081-0.038 0.171-0.051 0.26-0.038 0.345 0.058 0.699 0.051 1.042-0.02 0.091-0.022 0.188-0.016 0.276 0.019 0.087 0.034 0.162 0.094 0.213 0.172l0.265 0.403 0.382-0.166-0.162-0.467c-0.02-0.085-0.013-0.175 0.018-0.257 0.032-0.083 0.088-0.154 0.161-0.205 0.292-0.209 0.543-0.467 0.743-0.762 0.05-0.074 0.122-0.13 0.205-0.163s0.175-0.041 0.263-0.022l0.455 0.093 0.151-0.384-0.392-0.245c-0.074-0.046-0.132-0.112-0.169-0.19-0.036-0.078-0.049-0.164-0.037-0.249 0.059-0.353 0.052-0.713-0.02-1.064-0.021-0.088-0.015-0.18 0.019-0.264 0.033-0.084 0.091-0.156 0.167-0.207l0.444-0.297-0.185-0.331-0.462 0.11c-0.09 0.022-0.185 0.015-0.271-0.018s-0.16-0.091-0.211-0.167c-0.205-0.292-0.461-0.546-0.755-0.75-0.071-0.05-0.125-0.118-0.157-0.198s-0.04-0.166-0.023-0.25l0.108-0.535-0.384-0.103-0.251 0.41c-0.049 0.078-0.122 0.14-0.207 0.177-0.086 0.037-0.181 0.047-0.273 0.029-0.333-0.073-0.678-0.071-1.01 0.006-0.091 0.022-0.188 0.016-0.275-0.018-0.088-0.035-0.163-0.095-0.214-0.173l-0.267-0.406-0.383 0.17 0.14 0.477c0.02 0.086 0.014 0.175-0.018 0.258-0.032 0.082-0.088 0.153-0.161 0.204-0.292 0.209-0.543 0.467-0.743 0.763-0.05 0.073-0.122 0.129-0.205 0.162s-0.175 0.041-0.263 0.023l-0.455-0.094-0.163 0.416 0.422 0.221c0.074 0.046 0.133 0.113 0.169 0.191 0.037 0.079 0.049 0.166 0.036 0.252-0.061 0.351-0.054 0.711 0.021 1.06 0.021 0.087 0.014 0.179-0.019 0.263-0.033 0.085-0.091 0.157-0.167 0.207l-0.444 0.297 0.184 0.331 0.463-0.11c0.035-0.008 0.071-0.012 0.106-0.012zm4.117 2.03l0.001 0.002-0.001-0.002zm-4.751-1.892l-0.007 0.001 0.007-0.001zm6.838-3.348l-0.006 0.002 0.006-0.002zm-4.66-1.893l-0.007 0.002 0.007-0.002zm-0.091-0.018l0.001 0.002-0.001-0.002z" fill="#fff"/>
 <path d="m43.391 42.59c-0.251 0-0.499-0.049-0.731-0.142-0.488-0.203-0.876-0.584-1.082-1.063s-0.215-1.019-0.023-1.503c0.094-0.244 0.237-0.467 0.421-0.656 0.183-0.188 0.403-0.339 0.647-0.442 0.237-0.101 0.491-0.154 0.749-0.156 0.257-0.003 0.513 0.045 0.751 0.142 0.488 0.202 0.876 0.583 1.082 1.062s0.213 1.018 0.021 1.503c-0.094 0.244-0.236 0.467-0.42 0.655-0.183 0.189-0.403 0.339-0.646 0.442-0.243 0.104-0.504 0.157-0.769 0.158zm0-3.071c-0.141 0-0.28 0.029-0.409 0.083-0.133 0.057-0.252 0.14-0.352 0.243s-0.178 0.225-0.229 0.358c-0.107 0.267-0.105 0.564 0.007 0.829s0.325 0.477 0.594 0.59c0.127 0.052 0.263 0.077 0.4 0.076s0.273-0.03 0.398-0.084c0.133-0.057 0.253-0.139 0.352-0.242 0.1-0.103 0.178-0.225 0.229-0.358 0.107-0.267 0.105-0.564-0.007-0.829s-0.325-0.477-0.593-0.59h-0.001c-0.123-0.05-0.256-0.076-0.389-0.076z" fill="#fff"/>
 <path d="m51.75 50.169h-30.396c-0.908-0.001-1.778-0.343-2.419-0.953-0.642-0.609-1.003-1.436-1.004-2.298v-19.26c0.001-0.862 0.362-1.689 1.004-2.298 0.641-0.61 1.511-0.952 2.419-0.953h30.396c0.907 0.001 1.777 0.343 2.419 0.953 0.641 0.609 1.003 1.436 1.003 2.298v19.26c0 0.862-0.362 1.689-1.003 2.298-0.642 0.61-1.512 0.952-2.419 0.953zm-30.396-24.902c-0.667 0.001-1.307 0.253-1.779 0.701-0.471 0.448-0.737 1.056-0.738 1.69v19.26c0.001 0.634 0.266 1.242 0.738 1.69s1.111 0.7 1.779 0.701h30.396c0.667-0.001 1.306-0.253 1.778-0.701s0.738-1.056 0.738-1.69v-19.26c0-0.634-0.266-1.242-0.738-1.69s-1.111-0.7-1.778-0.701h-30.396z" fill="#fff"/>
 <path d="m49.509 48.814h-25.914c-0.77-0.001-1.508-0.299-2.053-0.828-0.545-0.53-0.851-1.247-0.852-1.996v-16.048c0.001-0.749 0.307-1.466 0.852-1.996 0.545-0.529 1.283-0.826 2.053-0.827h25.914c0.77 0.001 1.509 0.298 2.053 0.827 0.545 0.53 0.851 1.247 0.852 1.996v16.048c-0.001 0.749-0.307 1.466-0.852 1.996-0.544 0.529-1.283 0.827-2.053 0.828zm-25.914-20.862c-0.543 0-1.063 0.21-1.447 0.583s-0.6 0.879-0.601 1.407v16.048c0.001 0.528 0.217 1.034 0.601 1.407s0.904 0.583 1.447 0.583h25.914c0.543 0 1.063-0.21 1.447-0.583s0.6-0.879 0.601-1.407v-16.048c-0.001-0.528-0.217-1.034-0.601-1.407s-0.904-0.583-1.447-0.583h-25.914z" fill="#fff"/>
 <path d="m59.679 58.291h-32.399c-0.51 0.057-1.024-0.059-1.456-0.329-0.432-0.269-0.755-0.675-0.915-1.149l-5.443-4.602c-0.049-0.042-0.088-0.093-0.115-0.15-0.027-0.058-0.041-0.12-0.041-0.183 0-0.95 1.05-1.694 2.39-1.694h32.399c0.51-0.057 1.024 0.059 1.456 0.328s0.755 0.675 0.915 1.149l5.443 4.603c0.049 0.041 0.088 0.092 0.115 0.15 0.027 0.057 0.041 0.119 0.041 0.182 0 0.951-1.05 1.695-2.39 1.695zm-39.423-6.582l5.386 4.555c0.048 0.041 0.088 0.092 0.115 0.15 0.027 0.057 0.041 0.119 0.041 0.182 0 0.384 0.633 0.813 1.482 0.813h32.399c0.278 0.025 0.557-0.021 0.811-0.135 0.253-0.112 0.471-0.288 0.633-0.509l-5.386-4.554c-0.049-0.042-0.088-0.093-0.115-0.151-0.027-0.057-0.041-0.119-0.041-0.182 0-0.384-0.634-0.812-1.482-0.812h-32.399c-0.278-0.025-0.557 0.021-0.811 0.134-0.253 0.113-0.472 0.288-0.633 0.509z" fill="#fff"/>
 <path d="m51.035 51.525h-24.828v1.356h24.828v-1.356z" fill="#fff"/>
 <path d="m55.172 54.237h-24.827v1.356h24.827v-1.356z" fill="#fff"/>
</svg>
