<svg width="80" height="80" viewBox="0 0 80 80" fill="none" xmlns="http://www.w3.org/2000/svg">
<path d="M77.3926 25.7941C80.4183 33.7587 80.8219 42.4814 78.5446 50.6914C76.2673 58.9014 71.4281 66.1698 64.7319 71.4377C58.0357 76.7056 49.8324 79.6977 41.3171 79.9783C32.8018 80.2588 24.4194 77.8131 17.391 72.9974C10.3626 68.1817 5.05544 61.2476 2.24269 53.2053C-0.570063 45.163 -0.741443 36.4326 1.75349 28.2861C4.24841 20.1396 9.2793 13.0025 16.1133 7.91464C22.9472 2.82677 31.2272 0.0539034 39.747 7.55073e-06C39.8663 -0.000683259 39.981 0.0460521 40.0658 0.129929C40.1507 0.213806 40.1987 0.327957 40.1994 0.447268C40.2001 0.566579 40.1534 0.681277 40.0695 0.766131C39.9856 0.850985 39.8715 0.899041 39.7522 0.899731C31.4121 0.946066 23.3048 3.65502 16.612 8.63172C9.91933 13.6084 4.99108 20.5927 2.54568 28.5664C0.100277 36.5402 0.26556 45.0866 3.01745 52.9598C5.76933 60.8331 10.964 67.6216 17.8441 72.3357C24.7242 77.0499 32.9302 79.4434 41.2659 79.1672C49.6015 78.891 57.6311 75.9596 64.1841 70.8004C70.7371 65.6411 75.471 58.5236 77.6957 50.4855C79.9204 42.4474 79.5197 33.9088 76.5518 26.1144C76.5098 26.003 76.5137 25.8795 76.5625 25.7709C76.6114 25.6624 76.7013 25.5776 76.8126 25.5353C76.9238 25.4929 77.0473 25.4963 77.1561 25.5448C77.2648 25.5934 77.3498 25.683 77.3926 25.7941L77.3926 25.7941Z" fill="white"/>
<path d="M74.8346 26.6625C77.4963 33.7134 77.9622 41.4023 76.1713 48.722C74.3804 56.0416 70.4161 62.6507 64.7979 67.6833C64.709 67.7623 64.5922 67.8028 64.4734 67.7959C64.3545 67.789 64.2433 67.7353 64.1642 67.6465C64.085 67.5578 64.0444 67.4413 64.0513 67.3227C64.0582 67.2041 64.112 67.093 64.201 67.014C69.1535 62.614 72.8066 56.9462 74.7651 50.6237C76.7236 44.3011 76.913 37.5645 75.3127 31.1423C73.7125 24.7201 70.3836 18.8568 65.6861 14.1865C60.9885 9.51615 55.1011 6.21659 48.6605 4.64464C42.2199 3.07269 35.4713 3.28817 29.1445 5.26778C22.8178 7.24739 17.1537 10.9158 12.7648 15.8762C8.37587 20.8367 5.42925 26.9004 4.24356 33.4115C3.05787 39.9227 3.67826 46.6335 6.03762 52.8181C6.08 52.9292 6.07645 53.0525 6.02775 53.1609C5.97905 53.2694 5.88919 53.354 5.77793 53.3963C5.66668 53.4386 5.54313 53.4351 5.43449 53.3865C5.32585 53.3379 5.241 53.2482 5.19862 53.1371C1.68123 43.9203 1.97624 33.6863 6.01871 24.6865C10.0612 15.6867 17.52 8.65838 26.7543 5.14763C35.9886 1.63689 46.242 1.93132 55.2588 5.96616C64.2756 10.001 71.3172 17.4457 74.8346 26.6626V26.6625Z" fill="white"/>
<path d="M33.7861 43.7042H32.9582C32.707 43.7092 32.4622 43.6256 32.2682 43.4686C32.0742 43.3116 31.9438 43.0915 31.9006 42.8481L31.7947 42.2536C31.3052 42.1154 30.8357 41.9162 30.3976 41.6609L29.942 41.9808C29.7365 42.1309 29.4824 42.2021 29.2272 42.1811C28.9721 42.1601 28.7336 42.0483 28.5563 41.8668L28.0047 41.3097C27.8242 41.1293 27.7147 40.8917 27.6959 40.6393C27.6771 40.3869 27.7501 40.1362 27.902 39.9318L28.2163 39.4748C27.9524 39.0263 27.7523 38.5444 27.6213 38.0425L27.0524 37.9398C26.807 37.8878 26.5873 37.7544 26.4304 37.5618C26.2734 37.3693 26.1886 37.1295 26.1904 36.8827V36.0776C26.1828 35.831 26.2643 35.5897 26.4204 35.3966C26.5765 35.2034 26.7971 35.0708 27.0431 35.0222L27.6244 34.9173C27.7615 34.4192 27.9615 33.9399 28.2198 33.4907L27.8927 33.0159C27.7446 32.8117 27.6747 32.5627 27.6953 32.3128C27.7159 32.063 27.8256 31.8283 28.0051 31.6502L28.2641 31.3581L28.6045 31.0457C28.7845 30.8682 29.024 30.7615 29.2783 30.7454C29.5327 30.7292 29.7842 30.8049 29.9858 30.9582L30.4223 31.2646C30.8577 31.0026 31.3322 30.8092 31.8284 30.6914L31.9293 30.1208C31.9764 29.8781 32.1079 29.6591 32.3012 29.5013C32.4946 29.3435 32.7379 29.2568 32.9892 29.2561H33.8166C34.0678 29.2513 34.3125 29.3348 34.5065 29.4917C34.7005 29.6486 34.8311 29.8685 34.8747 30.1117L34.9801 30.7067C35.4696 30.8448 35.9392 31.044 36.3773 31.2994L36.8333 30.9795C37.0385 30.8288 37.2927 30.7573 37.5479 30.7783C37.8031 30.7993 38.0417 30.9114 38.2186 31.0935L38.7702 31.6506C38.9507 31.831 39.0601 32.0686 39.079 32.321C39.0978 32.5734 39.0247 32.8241 38.8729 33.0285L38.5581 33.4859C38.8192 33.9352 39.0185 34.4165 39.1509 34.9173L39.7229 35.0205L39.742 35.0244C39.9907 35.0769 40.211 35.2179 40.3604 35.4204C40.5099 35.6228 40.578 35.8724 40.5517 36.1212L40.5539 36.8828C40.5615 37.1293 40.4801 37.3705 40.3241 37.5637C40.1681 37.7568 39.9476 37.8895 39.7017 37.9382L39.1199 38.0431C38.9831 38.5413 38.783 39.0205 38.5245 39.4697L38.8517 39.9445C38.9995 40.1486 39.0694 40.3974 39.0489 40.6472C39.0284 40.897 38.9189 41.1316 38.7396 41.3098L38.188 41.8668C38.0086 42.0498 37.767 42.1615 37.5093 42.1808C37.2515 42.2002 36.9955 42.1258 36.7899 41.9717L36.3516 41.664C35.9135 41.922 35.4418 42.1206 34.9495 42.2542L34.8459 42.8395C34.7986 43.0821 34.6671 43.301 34.4737 43.4587C34.2804 43.6164 34.0373 43.7032 33.7861 43.7042ZM30.3834 40.6773C30.4747 40.6773 30.5639 40.7045 30.6393 40.7552C31.1447 41.088 31.7074 41.328 32.2999 41.4637C32.3855 41.4844 32.4631 41.5291 32.5232 41.5924C32.5834 41.6557 32.6234 41.7348 32.6386 41.8202L32.7922 42.6867C32.7944 42.7058 32.8005 42.7242 32.8101 42.741C32.8197 42.7577 32.8326 42.7724 32.8481 42.7842C32.8636 42.796 32.8813 42.8046 32.9002 42.8095C32.9191 42.8144 32.9388 42.8156 32.9582 42.8129H33.7861C33.8269 42.8116 33.8661 42.7966 33.897 42.7704C33.928 42.7442 33.9488 42.7083 33.9561 42.6688L34.1057 41.8206C34.1208 41.7352 34.1609 41.656 34.221 41.5926C34.2811 41.5292 34.3588 41.4845 34.4444 41.4637C35.0347 41.3346 35.5948 41.0966 36.0948 40.7622C36.1718 40.7074 36.2643 40.6777 36.3593 40.6774C36.4543 40.6771 36.547 40.7061 36.6243 40.7604L37.3296 41.2557C37.3588 41.2812 37.397 41.2944 37.436 41.2924C37.475 41.2905 37.5117 41.2735 37.5381 41.2452L38.0897 40.6882C38.12 40.6579 38.1386 40.6183 38.1423 40.576C38.146 40.5338 38.1346 40.4915 38.1101 40.4566L37.6103 39.7324C37.5603 39.66 37.5332 39.5746 37.5323 39.4871C37.5314 39.3995 37.5569 39.3136 37.6054 39.2402C37.9382 38.7234 38.1767 38.1534 38.3102 37.5559C38.3303 37.4713 38.375 37.3943 38.4389 37.3343C38.5029 37.2743 38.5832 37.234 38.6702 37.2182L39.5286 37.0633C39.5512 37.0585 39.6472 37.0393 39.6472 36.8827V36.0775C39.6579 35.95 39.5915 35.9069 39.5463 35.8947L38.7007 35.742C38.6138 35.7262 38.5334 35.6859 38.4695 35.6259C38.4055 35.5659 38.3608 35.4889 38.3408 35.4043C38.214 34.8089 37.9774 34.2415 37.6426 33.73C37.5909 33.6562 37.5632 33.5687 37.5628 33.4791C37.5625 33.3895 37.5897 33.3019 37.6408 33.2277L38.1313 32.5162C38.1597 32.4811 38.1742 32.4371 38.1723 32.3924C38.1703 32.3476 38.152 32.305 38.1207 32.2725L37.5686 31.715C37.5446 31.6878 37.5111 31.6707 37.4747 31.6671C37.4384 31.6634 37.402 31.6735 37.3729 31.6953L36.6548 32.1997C36.5792 32.2528 36.4889 32.2817 36.396 32.2826C36.3031 32.2836 36.2122 32.2565 36.1355 32.205C35.63 31.8722 35.0674 31.6321 34.4749 31.4964C34.3893 31.4757 34.3117 31.4309 34.2515 31.3675C34.1914 31.3042 34.1513 31.225 34.1362 31.1396L33.983 30.2731C33.9807 30.254 33.9745 30.2356 33.9648 30.2189C33.9551 30.2022 33.9421 30.1876 33.9266 30.1759C33.9111 30.1642 33.8934 30.1556 33.8745 30.1507C33.8556 30.1458 33.8359 30.1446 33.8166 30.1473H32.9891C32.9484 30.1485 32.9092 30.1634 32.8783 30.1895C32.8473 30.2156 32.8265 30.2514 32.8191 30.2909L32.6695 31.1396C32.6537 31.2292 32.6104 31.3118 32.5455 31.3765C32.4805 31.4413 32.397 31.4849 32.3061 31.5017C31.7204 31.6018 31.1649 31.8292 30.68 32.1671C30.603 32.2219 30.5105 32.2516 30.4155 32.2519C30.3205 32.2522 30.2278 32.2232 30.1505 32.1689L29.4457 31.6736C29.4313 31.6608 29.4145 31.6509 29.3963 31.6444C29.378 31.638 29.3586 31.6352 29.3393 31.6361C29.3199 31.637 29.3009 31.6417 29.2834 31.6499C29.2659 31.658 29.2501 31.6695 29.2371 31.6836L28.6709 32.2546C28.6352 32.2847 28.6118 32.3265 28.605 32.3723C28.5982 32.4181 28.6086 32.4647 28.6341 32.5036L29.134 33.2278C29.184 33.3002 29.2111 33.3856 29.2119 33.4731C29.2128 33.5607 29.1874 33.6466 29.1388 33.72C28.8063 34.2372 28.5676 34.8072 28.4336 35.4047C28.4136 35.4892 28.369 35.5662 28.3051 35.6261C28.2412 35.686 28.1609 35.7263 28.0741 35.742L27.2161 35.8969C27.1935 35.9017 27.097 35.9209 27.097 36.0775V36.8827C27.0952 36.9242 27.1079 36.9651 27.1329 36.9987C27.158 37.0322 27.1939 37.0564 27.2347 37.0672L28.0741 37.2182C28.1618 37.234 28.2427 37.2748 28.3069 37.3356C28.3711 37.3963 28.4156 37.4743 28.435 37.5598C28.5569 38.1552 28.7935 38.7222 29.1322 39.2302C29.1838 39.304 29.2116 39.3914 29.2119 39.481C29.2123 39.5706 29.1851 39.6582 29.134 39.7324L28.6435 40.444C28.6151 40.479 28.6005 40.523 28.6025 40.5678C28.6044 40.6126 28.6228 40.6551 28.6541 40.6877L29.2062 41.2452C29.2301 41.2725 29.2637 41.2898 29.3002 41.2934C29.3367 41.2971 29.3732 41.2868 29.4023 41.2648L30.1199 40.7604C30.1967 40.7063 30.2889 40.6772 30.3834 40.6773Z" fill="white"/>
<path d="M33.3875 39.4015C32.7969 39.4147 32.2157 39.2545 31.718 38.9414C31.2204 38.6283 30.8289 38.1766 30.5936 37.6439C30.3583 37.1111 30.2898 36.5215 30.3969 35.9504C30.5039 35.3792 30.7817 34.8523 31.1947 34.437C31.6078 34.0217 32.1373 33.7368 32.7157 33.6187C33.2942 33.5006 33.8953 33.5546 34.4425 33.7738C34.9896 33.993 35.4578 34.3675 35.7874 34.8495C36.117 35.3315 36.2931 35.8992 36.2931 36.48C36.3009 37.2458 35.9993 37.9835 35.4547 38.5312C34.91 39.0789 34.1666 39.3919 33.3875 39.4015ZM33.3875 34.4497C32.9762 34.4365 32.5702 34.5443 32.2216 34.7594C31.8731 34.9744 31.5977 35.287 31.431 35.6568C31.2642 36.0267 31.2136 36.4371 31.2856 36.8354C31.3577 37.2338 31.5491 37.6019 31.8353 37.8926C32.1215 38.1833 32.4895 38.3834 32.8921 38.4672C33.2948 38.551 33.7137 38.5147 34.0952 38.3629C34.4767 38.2111 34.8034 37.9508 35.0335 37.6154C35.2635 37.2799 35.3864 36.8845 35.3864 36.48C35.3944 35.9504 35.1885 35.4393 34.8138 35.0588C34.4391 34.6782 33.9262 34.4592 33.3875 34.4497Z" fill="white"/>
<path d="M42.2242 45.0778C42.118 45.0781 42.0129 45.0578 41.9147 45.0181L41.4375 44.8271C41.2559 44.7577 41.1048 44.628 41.0105 44.4604C40.9162 44.2929 40.8846 44.0981 40.9212 43.9101L40.9761 43.6363C40.7743 43.4731 40.5893 43.2906 40.4241 43.0914L40.1965 43.1454C40.0034 43.1934 39.7992 43.1713 39.6213 43.0833C39.4434 42.9953 39.3037 42.8473 39.2278 42.6662L39.0357 42.2171C38.9563 42.0359 38.9454 41.8329 39.0047 41.6445C39.064 41.456 39.1897 41.2946 39.3593 41.1891L39.5466 41.0638C39.513 40.7993 39.5084 40.532 39.5329 40.2665L39.3142 40.1294C39.1525 40.0223 39.0326 39.8645 38.974 39.6817C38.9154 39.499 38.9215 39.3021 38.9914 39.1232L39.1742 38.6592C39.2389 38.4767 39.3687 38.3234 39.5396 38.2277C39.7104 38.132 39.9108 38.1004 40.1035 38.1387L40.3567 38.1905C40.5179 37.9875 40.6992 37.8009 40.8982 37.6334L40.8411 37.3858C40.7918 37.1969 40.8126 36.997 40.8998 36.8219C40.9869 36.6467 41.1347 36.5078 41.3165 36.4301L41.808 36.2168C41.9912 36.1418 42.1959 36.1346 42.3842 36.1966C42.5724 36.2585 42.7315 36.3853 42.832 36.5537L42.9524 36.7369C43.2056 36.7043 43.462 36.7028 43.7156 36.7326L43.8427 36.5254C43.9483 36.3626 44.1082 36.2409 44.295 36.1813C44.4818 36.1217 44.6839 36.1278 44.8667 36.1985L45.3444 36.3905C45.526 36.4596 45.6772 36.5892 45.7716 36.7567C45.8659 36.9242 45.8974 37.119 45.8606 37.307L45.8057 37.5808C46.0076 37.744 46.1925 37.9265 46.3577 38.1257L46.5853 38.0717C46.7786 38.0233 46.9833 38.0453 47.1613 38.1337C47.3394 38.2221 47.4789 38.3709 47.554 38.5526L47.7457 39.0009C47.825 39.1818 47.8361 39.3847 47.7769 39.5729C47.7178 39.7612 47.5922 39.9225 47.4229 40.028L47.2343 40.1542C47.2666 40.4182 47.2708 40.6849 47.2467 40.9498L47.4681 41.0881L47.484 41.0986C47.6483 41.2086 47.7663 41.3736 47.8161 41.5628C47.8658 41.752 47.8439 41.9525 47.7545 42.127L47.5898 42.5509C47.5245 42.7331 47.3947 42.886 47.224 42.9816C47.0533 43.0772 46.8533 43.1091 46.6606 43.0714L46.4073 43.0196C46.246 43.2224 46.0647 43.4088 45.8659 43.5763L45.923 43.8244C45.9719 44.0133 45.9509 44.2131 45.8637 44.3882C45.7765 44.5633 45.6288 44.7022 45.4471 44.7801L45.0026 44.9738C44.8175 45.0534 44.6092 45.064 44.4168 45.0036C44.2243 44.9432 44.0608 44.8159 43.9569 44.6456L43.836 44.4615C43.5828 44.4926 43.3269 44.4967 43.0728 44.4737L42.9391 44.6917C42.8618 44.8093 42.756 44.9061 42.6312 44.9735C42.5064 45.0409 42.3665 45.0767 42.2242 45.0778ZM40.6092 42.144C40.6834 42.144 40.7566 42.1619 40.8221 42.1962C40.8877 42.2305 40.9436 42.2801 40.9851 42.3407C41.1898 42.6327 41.4454 42.8867 41.7403 43.091C41.8109 43.1409 41.8654 43.2097 41.8972 43.2892C41.9291 43.3687 41.937 43.4555 41.92 43.5393L41.812 44.0742L42.1963 44.1769L42.4469 43.7678C42.4931 43.6925 42.5609 43.6323 42.6418 43.5948C42.7227 43.5573 42.8131 43.5442 42.9015 43.5571C43.2471 43.6151 43.6007 43.6083 43.9437 43.5371C44.0354 43.5149 44.1318 43.5214 44.2196 43.5556C44.3074 43.5899 44.3821 43.6502 44.4333 43.7282L44.6981 44.1312L45.0797 43.9654L44.9181 43.4984C44.8982 43.4126 44.9046 43.3229 44.9365 43.2406C44.9685 43.1584 45.0244 43.0872 45.0974 43.0362C45.3889 42.8272 45.6404 42.569 45.8403 42.2737C45.8905 42.2005 45.9619 42.1438 46.0452 42.1108C46.1285 42.0779 46.22 42.0702 46.3078 42.0888L46.7629 42.1823L46.9139 41.7981L46.5217 41.5526C46.4483 41.5066 46.3899 41.4409 46.3534 41.3631C46.317 41.2854 46.3041 41.1991 46.3162 41.1143C46.375 40.7614 46.3681 40.4008 46.2959 40.0502C46.2749 39.9624 46.2814 39.8704 46.3147 39.7863C46.348 39.7023 46.4064 39.6301 46.4823 39.5793L46.9259 39.2825L46.7413 38.9513L46.2786 39.061C46.1888 39.0826 46.0944 39.0764 46.0082 39.0434C45.922 39.0104 45.8483 38.9521 45.7969 38.8765C45.5922 38.5845 45.3365 38.3305 45.0417 38.1262C44.9711 38.0763 44.9166 38.0075 44.8847 37.928C44.8529 37.8485 44.8449 37.7617 44.8619 37.6779L44.9699 37.143L44.5857 37.0403L44.3346 37.4499C44.2855 37.5282 44.2133 37.5899 44.1275 37.6268C44.0417 37.6636 43.9466 37.6739 43.8547 37.6562C43.5221 37.5833 43.177 37.5854 42.8453 37.6622C42.7537 37.6843 42.6573 37.6777 42.5696 37.6435C42.4818 37.6093 42.4071 37.5491 42.3558 37.4712L42.0888 37.0651L41.7058 37.2349L41.8462 37.7119C41.8661 37.7977 41.8597 37.8874 41.8278 37.9697C41.7958 38.0519 41.7399 38.1231 41.6669 38.1741C41.3752 38.3831 41.1237 38.6414 40.924 38.937C40.8735 39.0099 40.802 39.0663 40.7188 39.0992C40.6355 39.1321 40.5443 39.1398 40.4565 39.1215L40.0013 39.0279L39.8375 39.444L40.2599 39.6647C40.3341 39.711 40.393 39.7776 40.4294 39.8562C40.4658 39.9349 40.4781 40.0223 40.4649 40.1077C40.4036 40.4591 40.4108 40.8187 40.4861 41.1675C40.5071 41.2553 40.5005 41.3473 40.4673 41.4314C40.434 41.5155 40.3756 41.5876 40.2997 41.6384L39.8557 41.9352L40.0403 42.266L40.5034 42.1563C40.538 42.1482 40.5735 42.144 40.6092 42.144ZM44.7264 44.1743L44.7273 44.176L44.7264 44.1743ZM39.9747 42.2815L39.9685 42.2828L39.9747 42.2815ZM46.8134 38.9343L46.8072 38.9356L46.8134 38.9343ZM42.1529 37.0407L42.1463 37.0433L42.1529 37.0407ZM42.0617 37.0233L42.0626 37.0251L42.0617 37.0233Z" fill="white"/>
<path d="M43.3913 42.5898C43.1402 42.5895 42.8917 42.5412 42.6595 42.4475C42.1719 42.2452 41.7838 41.8639 41.5776 41.3848C41.3715 40.9056 41.3634 40.3663 41.5553 39.8815C41.6494 39.6375 41.7924 39.4147 41.9759 39.2262C42.1593 39.0377 42.3794 38.8874 42.6232 38.7843C42.8595 38.6834 43.114 38.6301 43.3716 38.6275C43.6292 38.625 43.8848 38.6732 44.1231 38.7695C44.6106 38.9716 44.9987 39.3529 45.2047 39.832C45.4108 40.3111 45.4185 40.8504 45.2263 41.3351C45.1324 41.5788 44.9896 41.8016 44.8064 41.9901C44.6232 42.1786 44.4033 42.3289 44.1598 42.4322C43.9173 42.5358 43.6557 42.5894 43.3913 42.5898ZM43.3908 39.5189C43.2503 39.5191 43.1112 39.5475 42.9822 39.6025C42.8494 39.6592 42.7295 39.7415 42.6296 39.8446C42.5298 39.9477 42.452 40.0695 42.4009 40.2027C42.2935 40.4696 42.2961 40.7672 42.4083 41.0323C42.5205 41.2974 42.7333 41.5091 43.0017 41.6223C43.1286 41.6737 43.2647 41.6994 43.4019 41.698C43.5391 41.6966 43.6746 41.668 43.8003 41.614C43.933 41.5573 44.0527 41.4749 44.1524 41.3718C44.2521 41.2687 44.3298 41.147 44.3807 41.0139C44.4884 40.7471 44.4859 40.4496 44.3739 40.1846C44.2619 39.9195 44.0491 39.7079 43.7809 39.5947H43.7804C43.6568 39.5448 43.5245 39.5191 43.3908 39.5189Z" fill="white"/>
<path d="M51.7495 50.1694H21.3538C20.4463 50.1684 19.5763 49.8256 18.9347 49.2161C18.293 48.6066 17.9321 47.7802 17.9312 46.9183V27.6575C17.9321 26.7956 18.293 25.9693 18.9347 25.3599C19.5763 24.7504 20.4463 24.4077 21.3538 24.4067H51.7495C52.6569 24.4076 53.527 24.7504 54.1687 25.3598C54.8104 25.9693 55.1715 26.7956 55.1725 27.6575V46.9183C55.1715 47.7803 54.8105 48.6066 54.1687 49.2161C53.527 49.8256 52.657 50.1684 51.7495 50.1694ZM21.3538 25.2673C20.6866 25.2681 20.047 25.5202 19.5752 25.9682C19.1035 26.4163 18.8381 27.0238 18.8372 27.6575V46.9183C18.838 47.552 19.1033 48.1596 19.5751 48.6078C20.0468 49.056 20.6865 49.3081 21.3538 49.3089H51.7495C52.4168 49.3082 53.0565 49.0561 53.5284 48.6079C54.0003 48.1597 54.2657 47.5521 54.2664 46.9183V27.6575C54.2656 27.0238 54.0001 26.4162 53.5283 25.9681C53.0564 25.52 52.4167 25.268 51.7495 25.2673H21.3538Z" fill="white"/>
<path d="M49.5086 48.8136H23.5954C22.8251 48.8128 22.0866 48.5151 21.5419 47.9858C20.9972 47.4565 20.6908 46.7389 20.6899 45.9904V29.9418C20.6908 29.1933 20.9972 28.4757 21.5419 27.9464C22.0866 27.4172 22.8251 27.1195 23.5954 27.1187H49.5086C50.2789 27.1195 51.0175 27.4172 51.5622 27.9464C52.1069 28.4757 52.4132 29.1933 52.4141 29.9418V45.9904C52.4132 46.7389 52.1069 47.4565 51.5622 47.9858C51.0175 48.5151 50.2789 48.8128 49.5086 48.8136ZM23.5954 27.9518C23.0524 27.9524 22.5319 28.1623 22.148 28.5354C21.764 28.9084 21.548 29.4142 21.5474 29.9418V45.9904C21.548 46.518 21.764 47.0238 22.148 47.3969C22.5319 47.7699 23.0524 47.9798 23.5954 47.9805H49.5086C50.0516 47.9798 50.5721 47.7699 50.9561 47.3969C51.34 47.0238 51.556 46.518 51.5567 45.9904V29.9418C51.556 29.4142 51.34 28.9085 50.9561 28.5354C50.5721 28.1623 50.0516 27.9524 49.5086 27.9518L23.5954 27.9518Z" fill="white"/>
<path d="M59.6791 58.291H27.2795C26.7699 58.3477 26.2557 58.2316 25.8238 57.9623C25.3919 57.6931 25.0688 57.2872 24.909 56.8131L19.466 52.2106C19.417 52.1692 19.3778 52.118 19.3509 52.0606C19.324 52.0031 19.3101 51.9407 19.3101 51.8776C19.3101 50.9278 20.3598 50.1835 21.6996 50.1835H54.0992C54.6088 50.1267 55.123 50.2428 55.5549 50.5119C55.9868 50.7811 56.3099 51.1869 56.4697 51.661L61.9128 56.2635C61.9617 56.3049 62.001 56.3561 62.0278 56.4135C62.0547 56.4709 62.0687 56.5333 62.0687 56.5964C62.0686 57.5467 61.0189 58.291 59.6791 58.291ZM20.2557 51.7092L25.6416 56.2635C25.6905 56.3049 25.7298 56.3561 25.7567 56.4135C25.7836 56.4709 25.7975 56.5333 25.7975 56.5964C25.7975 56.9798 26.4313 57.4088 27.2795 57.4088H59.6791C59.9567 57.4338 60.2361 57.3875 60.4895 57.2745C60.7429 57.1615 60.9613 56.9857 61.123 56.7648L55.7371 52.2106C55.6881 52.1691 55.6489 52.118 55.622 52.0605C55.5951 52.0031 55.5812 51.9407 55.5812 51.8776C55.5812 51.4943 54.9474 51.0657 54.0992 51.0657H21.6996C21.422 51.0407 21.1426 51.0869 20.8892 51.1999C20.6359 51.3128 20.4174 51.4884 20.2557 51.7092Z" fill="white"/>
<path d="M51.0346 51.5254H26.207V52.8813H51.0346V51.5254Z" fill="white"/>
<path d="M55.1723 54.2373H30.3447V55.5932H55.1723V54.2373Z" fill="white"/>
</svg>
