<?xml version="1.0" encoding="UTF-8" standalone="no"?>
<svg width="80" xmlns="http://www.w3.org/2000/svg" viewBox="0 0 80 80" height="80">
 <path d="m58.091 25.494c0.22 0 0.43 0.087 0.585 0.242s0.242 0.366 0.242 0.585v7.77c0 0.219-0.087 0.43-0.242 0.585s-0.365 0.242-0.585 0.242h-39.406c-0.219 0-0.429-0.087-0.585-0.242-0.154-0.155-0.242-0.366-0.242-0.585v-7.77c0-0.219 0.088-0.43 0.242-0.585 0.156-0.155 0.366-0.242 0.585-0.242h39.406zm0-0.838h-39.406c-0.441 0-0.865 0.175-1.177 0.488-0.313 0.312-0.488 0.735-0.488 1.177v7.77c0 0.442 0.175 0.865 0.488 1.177 0.312 0.313 0.736 0.488 1.177 0.488h39.406c0.442 0 0.866-0.175 1.178-0.488 0.312-0.312 0.487-0.735 0.487-1.177v-7.77c0-0.442-0.175-0.865-0.487-1.177-0.312-0.313-0.736-0.488-1.178-0.488z" fill="#fff"/>
 <path d="m58.091 36.594c0.22 0 0.43 0.088 0.585 0.243s0.242 0.365 0.242 0.584v7.77c0 0.22-0.087 0.43-0.242 0.585s-0.365 0.242-0.585 0.242h-39.406c-0.219 0-0.429-0.087-0.585-0.242-0.154-0.155-0.242-0.365-0.242-0.585v-7.77c0-0.219 0.088-0.429 0.242-0.584 0.156-0.155 0.366-0.243 0.585-0.243h39.406zm0-0.838h-39.406c-0.441 0-0.865 0.176-1.177 0.488-0.313 0.312-0.488 0.736-0.488 1.177v7.77c0 0.442 0.175 0.865 0.488 1.178 0.312 0.312 0.736 0.487 1.177 0.487h39.406c0.442 0 0.865-0.175 1.178-0.487 0.312-0.313 0.487-0.736 0.487-1.178v-7.77c0-0.441-0.175-0.865-0.487-1.177-0.313-0.312-0.736-0.488-1.178-0.488z" fill="#fff"/>
 <path d="m58.091 47.695c0.22 0 0.43 0.087 0.585 0.242s0.242 0.365 0.242 0.585v7.77c0 0.219-0.087 0.43-0.242 0.584-0.155 0.156-0.365 0.243-0.585 0.243h-39.406c-0.219 0-0.429-0.087-0.585-0.242-0.154-0.155-0.242-0.366-0.242-0.585v-7.77c0-0.22 0.088-0.43 0.242-0.585 0.156-0.155 0.366-0.242 0.585-0.242h39.406zm0-0.838h-39.406c-0.441 0-0.865 0.175-1.177 0.487-0.312 0.313-0.488 0.736-0.488 1.178v7.77c0 0.442 0.176 0.865 0.488 1.177 0.312 0.313 0.736 0.488 1.177 0.488h39.406c0.442 0 0.866-0.175 1.178-0.488 0.312-0.312 0.487-0.735 0.487-1.177v-7.77c0-0.442-0.175-0.865-0.487-1.178-0.313-0.312-0.736-0.487-1.178-0.487z" fill="#fff"/>
 <path d="m37.833 30.064h-17.206v0.838h17.206v-0.838z" fill="#fff"/>
 <path d="m37.833 41.165h-17.206v0.838h17.206v-0.838z" fill="#fff"/>
 <path d="m37.833 52.265h-17.206v0.838h17.206v-0.838z" fill="#fff"/>
 <path d="m44.493 32.013c-0.302 0-0.598-0.09-0.849-0.258-0.252-0.168-0.448-0.407-0.564-0.686-0.115-0.28-0.146-0.587-0.086-0.884 0.058-0.296 0.204-0.569 0.418-0.783 0.214-0.213 0.486-0.359 0.783-0.418s0.604-0.029 0.883 0.087c0.28 0.116 0.518 0.312 0.686 0.563 0.168 0.252 0.258 0.547 0.258 0.85 0 0.405-0.161 0.794-0.448 1.08-0.287 0.287-0.675 0.448-1.081 0.449zm0-2.22c-0.137 0-0.27 0.04-0.384 0.116-0.113 0.076-0.202 0.184-0.254 0.31-0.053 0.127-0.066 0.265-0.04 0.399 0.027 0.134 0.093 0.258 0.189 0.354 0.097 0.097 0.22 0.163 0.354 0.189 0.134 0.027 0.273 0.013 0.4-0.039 0.126-0.052 0.234-0.141 0.31-0.254 0.076-0.114 0.116-0.248 0.116-0.384 0-0.184-0.073-0.359-0.202-0.489-0.13-0.129-0.306-0.202-0.489-0.202z" fill="#fff"/>
 <path d="m49.778 32.012c-0.302 0-0.598-0.089-0.849-0.258-0.252-0.168-0.448-0.406-0.564-0.686-0.115-0.279-0.146-0.586-0.087-0.883s0.205-0.569 0.419-0.783 0.486-0.36 0.783-0.418c0.296-0.06 0.604-0.029 0.883 0.086 0.28 0.116 0.518 0.312 0.687 0.564 0.168 0.251 0.257 0.547 0.257 0.849 0 0.406-0.161 0.794-0.448 1.081s-0.675 0.448-1.081 0.448zm0-2.22c-0.137 0-0.27 0.041-0.384 0.116-0.114 0.076-0.202 0.184-0.254 0.311-0.053 0.126-0.066 0.265-0.04 0.399 0.027 0.134 0.093 0.257 0.189 0.354 0.097 0.096 0.22 0.162 0.354 0.189s0.273 0.013 0.4-0.039c0.126-0.053 0.234-0.141 0.31-0.255 0.076-0.113 0.116-0.247 0.116-0.384 0-0.183-0.073-0.359-0.203-0.488-0.129-0.13-0.305-0.203-0.488-0.203z" fill="#fff"/>
 <path d="m55.141 32.012c-0.302 0-0.598-0.089-0.849-0.258-0.252-0.168-0.448-0.406-0.564-0.686-0.115-0.279-0.146-0.586-0.087-0.883s0.205-0.569 0.419-0.783 0.486-0.36 0.783-0.418c0.296-0.06 0.604-0.029 0.883 0.086 0.28 0.116 0.518 0.312 0.686 0.564 0.168 0.251 0.258 0.547 0.258 0.849 0 0.406-0.161 0.794-0.448 1.081s-0.676 0.448-1.081 0.448zm0-2.22c-0.137 0-0.27 0.041-0.384 0.116-0.113 0.076-0.202 0.184-0.254 0.311-0.053 0.126-0.066 0.265-0.04 0.399 0.027 0.134 0.093 0.257 0.189 0.354 0.097 0.096 0.22 0.162 0.354 0.189s0.273 0.013 0.4-0.039c0.126-0.053 0.234-0.141 0.31-0.255 0.076-0.113 0.116-0.247 0.116-0.384 0-0.183-0.073-0.359-0.202-0.488-0.13-0.13-0.306-0.203-0.489-0.203z" fill="#fff"/>
 <path d="m44.494 54.213c-0.303 0-0.598-0.09-0.85-0.258-0.251-0.168-0.447-0.407-0.563-0.686-0.115-0.279-0.146-0.587-0.087-0.883 0.059-0.297 0.205-0.569 0.419-0.783s0.486-0.359 0.783-0.418c0.296-0.059 0.604-0.029 0.883 0.087s0.518 0.312 0.686 0.563 0.258 0.547 0.257 0.849c0 0.406-0.161 0.794-0.448 1.081-0.286 0.286-0.675 0.448-1.08 0.448zm0-2.22c-0.137 0-0.271 0.041-0.384 0.117-0.114 0.076-0.202 0.184-0.255 0.31-0.052 0.126-0.066 0.265-0.039 0.399s0.093 0.257 0.189 0.354c0.097 0.096 0.22 0.162 0.354 0.189 0.134 0.026 0.273 0.013 0.399-0.04 0.126-0.052 0.234-0.14 0.31-0.254s0.116-0.247 0.117-0.384c-0.001-0.183-0.074-0.358-0.203-0.488-0.13-0.13-0.305-0.202-0.488-0.203z" fill="#fff"/>
 <path d="m49.778 54.214c-0.303-0.001-0.598-0.09-0.85-0.258-0.251-0.168-0.447-0.407-0.563-0.686-0.115-0.28-0.146-0.587-0.087-0.884 0.06-0.296 0.205-0.569 0.419-0.783 0.214-0.213 0.486-0.359 0.783-0.418 0.296-0.059 0.604-0.029 0.883 0.087s0.518 0.312 0.686 0.563c0.168 0.252 0.258 0.547 0.258 0.85-0.001 0.405-0.162 0.794-0.449 1.08-0.286 0.287-0.675 0.448-1.08 0.449zm0-2.22c-0.137 0-0.27 0.04-0.384 0.116s-0.202 0.184-0.254 0.31c-0.053 0.127-0.066 0.266-0.04 0.4 0.027 0.134 0.093 0.256 0.189 0.353 0.097 0.097 0.22 0.163 0.354 0.189 0.134 0.027 0.273 0.013 0.399-0.039s0.234-0.141 0.31-0.254c0.076-0.114 0.117-0.247 0.117-0.384-0.001-0.183-0.073-0.359-0.203-0.489-0.13-0.129-0.305-0.202-0.488-0.202z" fill="#fff"/>
 <path d="m55.141 54.214c-0.303-0.001-0.598-0.09-0.85-0.258-0.251-0.168-0.447-0.407-0.563-0.686-0.115-0.28-0.146-0.587-0.086-0.884 0.058-0.296 0.204-0.569 0.418-0.783 0.214-0.213 0.486-0.359 0.783-0.418s0.604-0.029 0.883 0.087c0.28 0.116 0.518 0.312 0.686 0.563 0.168 0.252 0.258 0.547 0.258 0.85-0.001 0.405-0.162 0.794-0.449 1.08-0.286 0.287-0.675 0.448-1.08 0.449zm0-2.22c-0.137 0-0.271 0.04-0.384 0.116-0.114 0.076-0.202 0.184-0.254 0.31-0.053 0.127-0.066 0.266-0.04 0.4 0.027 0.134 0.093 0.256 0.189 0.353 0.097 0.097 0.22 0.163 0.354 0.189 0.134 0.027 0.273 0.013 0.399-0.039s0.234-0.141 0.31-0.254c0.076-0.114 0.117-0.247 0.117-0.384 0-0.183-0.073-0.359-0.203-0.489-0.129-0.129-0.305-0.202-0.488-0.202z" fill="#fff"/>
 <path d="m44.493 43.113c-0.302 0-0.598-0.09-0.849-0.258-0.252-0.168-0.448-0.407-0.564-0.686-0.115-0.279-0.146-0.587-0.086-0.884 0.058-0.296 0.204-0.569 0.418-0.783 0.214-0.213 0.486-0.359 0.783-0.418s0.604-0.029 0.883 0.087c0.28 0.116 0.518 0.312 0.686 0.563 0.168 0.252 0.258 0.547 0.258 0.85 0 0.405-0.161 0.794-0.448 1.08-0.287 0.287-0.675 0.448-1.081 0.449zm0-2.22c-0.137 0-0.27 0.04-0.384 0.116-0.113 0.076-0.202 0.184-0.254 0.31-0.053 0.127-0.066 0.265-0.04 0.4 0.027 0.134 0.093 0.257 0.189 0.353 0.097 0.097 0.22 0.163 0.354 0.19 0.134 0.026 0.273 0.012 0.4-0.04 0.126-0.052 0.234-0.141 0.31-0.254 0.076-0.114 0.116-0.248 0.116-0.384 0-0.184-0.073-0.359-0.202-0.489-0.13-0.129-0.306-0.202-0.489-0.202z" fill="#fff"/>
 <path d="m49.778 43.113c-0.302 0-0.598-0.09-0.849-0.258-0.252-0.168-0.448-0.407-0.564-0.686-0.115-0.279-0.146-0.587-0.087-0.883 0.059-0.297 0.205-0.569 0.419-0.783s0.486-0.36 0.783-0.419c0.296-0.059 0.604-0.028 0.883 0.087 0.28 0.116 0.518 0.312 0.687 0.563 0.168 0.252 0.257 0.548 0.257 0.85 0 0.405-0.161 0.794-0.448 1.081-0.287 0.286-0.675 0.448-1.081 0.448zm0-2.22c-0.137 0-0.27 0.04-0.384 0.116s-0.202 0.184-0.254 0.311c-0.053 0.126-0.066 0.265-0.04 0.399 0.027 0.134 0.093 0.257 0.189 0.354 0.097 0.096 0.22 0.162 0.354 0.189 0.134 0.026 0.273 0.013 0.4-0.04 0.126-0.052 0.234-0.14 0.31-0.254s0.116-0.247 0.116-0.384c0-0.183-0.073-0.359-0.203-0.488-0.129-0.13-0.305-0.203-0.488-0.203z" fill="#fff"/>
 <path d="m55.141 43.113c-0.302 0-0.598-0.09-0.849-0.258-0.252-0.168-0.448-0.407-0.564-0.686-0.115-0.279-0.146-0.587-0.087-0.883 0.059-0.297 0.205-0.569 0.419-0.783s0.486-0.36 0.783-0.419c0.296-0.059 0.604-0.028 0.883 0.087 0.28 0.116 0.518 0.312 0.686 0.563 0.168 0.252 0.258 0.548 0.258 0.85 0 0.405-0.161 0.794-0.448 1.081-0.287 0.286-0.676 0.448-1.081 0.448zm0-2.22c-0.137 0-0.27 0.04-0.384 0.116-0.113 0.076-0.202 0.184-0.254 0.311-0.053 0.126-0.066 0.265-0.04 0.399 0.027 0.134 0.093 0.257 0.189 0.354 0.097 0.096 0.22 0.162 0.354 0.189 0.134 0.026 0.273 0.013 0.4-0.04 0.126-0.052 0.234-0.14 0.31-0.254s0.116-0.247 0.116-0.384c0-0.183-0.073-0.359-0.202-0.488-0.13-0.13-0.306-0.203-0.489-0.203z" fill="#fff"/>
 <path d="m39.963 80c-8.52-0.008-16.815-2.736-23.676-7.787-6.8617-5.051-11.931-12.161-14.47-20.294-2.5386-8.132-2.4143-16.863 0.355-24.921 2.7694-8.057 8.039-15.02 15.041-19.873 7.003-4.8536 15.372-7.3445 23.889-7.1098 8.516 0.23461 16.736 3.1825 23.46 8.4142 6.724 5.2316 11.603 12.474 13.924 20.672 2.322 8.197 1.965 16.922-1.017 24.903-0.021 0.055-0.052 0.106-0.093 0.15-0.04 0.043-0.088 0.078-0.142 0.103-0.054 0.024-0.112 0.038-0.171 0.04s-0.119-0.007-0.174-0.028-0.106-0.052-0.15-0.093c-0.043-0.04-0.078-0.089-0.102-0.143-0.025-0.054-0.038-0.112-0.04-0.171s0.008-0.118 0.029-0.174c2.926-7.81 3.281-16.35 1.013-24.376s-7.04-15.118-13.621-20.242-14.626-8.0121-22.963-8.2434c-8.337-0.23136-16.53 2.2062-23.385 6.9573-6.854 4.7511-12.012 11.567-14.722 19.455-2.7092 7.888-2.8285 16.435-0.3402 24.395 2.4882 7.961 7.4542 14.918 14.173 19.859 6.72 4.941 14.841 7.606 23.182 7.607 0.119 0 0.233 0.048 0.318 0.132 0.084 0.084 0.131 0.199 0.131 0.318s-0.047 0.234-0.131 0.318c-0.085 0.085-0.199 0.132-0.318 0.132z" fill="#fff"/>
 <path d="m39.738 77.456c-7.566-0.027-14.946-2.338-21.175-6.632-6.229-4.293-11.016-10.367-13.734-17.428-0.0208-0.055-0.0307-0.114-0.029-0.172 0.0017-0.06 0.0151-0.118 0.0392-0.172 0.0242-0.054 0.0588-0.102 0.1018-0.143 0.043-0.04 0.0935-0.072 0.1487-0.093s0.114-0.031 0.1731-0.029c0.059 0.002 0.1171 0.015 0.171 0.039s0.1025 0.059 0.143 0.102c0.0406 0.043 0.0722 0.094 0.0932 0.149 2.3618 6.21 6.377 11.657 11.61 15.751 5.234 4.094 11.487 6.678 18.084 7.475 6.596 0.797 13.285-0.225 19.343-2.955s11.254-7.065 15.026-12.535c3.773-5.469 5.978-11.867 6.377-18.499 0.4-6.632-1.022-13.248-4.111-19.131-3.088-5.883-7.727-10.81-13.413-14.247-5.686-3.4376-12.204-5.255-18.848-5.2558-0.12 0-0.234-0.0474-0.319-0.1317-0.084-0.0844-0.131-0.1988-0.131-0.3181s0.047-0.2338 0.131-0.3181c0.085-0.0844 0.199-0.1318 0.319-0.1318 4.904-0.0024 9.762 0.9616 14.294 2.8369 4.532 1.8754 8.65 4.6256 12.119 8.0926 3.469 3.468 6.221 7.584 8.099 12.116 1.877 4.531 2.844 9.388 2.844 14.292 0 4.905-0.967 9.762-2.844 14.293-1.878 4.532-4.63 8.649-8.099 12.116s-7.587 6.217-12.119 8.093c-4.532 1.875-9.39 2.839-14.294 2.836z" fill="#fff"/>
</svg>
