<svg width="80" height="80" viewBox="0 0 80 80" fill="none" xmlns="http://www.w3.org/2000/svg">
<path d="M58.0914 25.4937C58.3107 25.494 58.5209 25.5812 58.676 25.7363C58.8311 25.8913 58.9183 26.1016 58.9185 26.3208V34.0911C58.9183 34.3104 58.8311 34.5206 58.676 34.6756C58.5209 34.8307 58.3107 34.9179 58.0914 34.9182H18.6851C18.4658 34.9179 18.2556 34.8307 18.1005 34.6756C17.9455 34.5206 17.8582 34.3104 17.858 34.0911V26.3208C17.8582 26.1016 17.9455 25.8913 18.1005 25.7363C18.2556 25.5812 18.4658 25.494 18.6851 25.4937H58.0914ZM58.0914 24.6558H18.6851C18.2435 24.6558 17.82 24.8312 17.5077 25.1435C17.1954 25.4557 17.02 25.8792 17.02 26.3208V34.0911C17.02 34.5327 17.1954 34.9562 17.5077 35.2684C17.82 35.5807 18.2435 35.7561 18.6851 35.7561H58.0914C58.533 35.7561 58.9566 35.5807 59.2688 35.2684C59.5811 34.9562 59.7565 34.5327 59.7565 34.0911V26.3208C59.7565 25.8792 59.5811 25.4557 59.2688 25.1435C58.9566 24.8312 58.533 24.6558 58.0914 24.6558V24.6558Z" fill="white"/>
<path d="M58.0914 36.5941C58.3107 36.5943 58.5209 36.6815 58.676 36.8366C58.831 36.9916 58.9183 37.2019 58.9185 37.4212V45.1914C58.9183 45.4107 58.8311 45.6209 58.676 45.776C58.5209 45.931 58.3107 46.0183 58.0914 46.0185H18.6851C18.4658 46.0183 18.2556 45.9311 18.1005 45.776C17.9455 45.6209 17.8582 45.4107 17.858 45.1914V37.4212C17.8582 37.2019 17.9455 36.9916 18.1005 36.8366C18.2556 36.6815 18.4658 36.5943 18.6851 36.5941H58.0914ZM58.0914 35.7561H18.6851C18.2435 35.7561 17.82 35.9315 17.5077 36.2438C17.1954 36.556 17.02 36.9796 17.02 37.4212V45.1914C17.02 45.633 17.1954 46.0565 17.5077 46.3688C17.82 46.6811 18.2435 46.8565 18.6851 46.8565H58.0914C58.533 46.8565 58.9565 46.6811 59.2688 46.3688C59.5811 46.0565 59.7565 45.633 59.7565 45.1914V37.4212C59.7565 36.9796 59.5811 36.556 59.2688 36.2438C58.9565 35.9315 58.533 35.7561 58.0914 35.7561Z" fill="white"/>
<path d="M58.0914 47.6946C58.3107 47.6949 58.5209 47.7821 58.676 47.9372C58.8311 48.0922 58.9183 48.3024 58.9185 48.5217V56.292C58.9183 56.5113 58.8311 56.7215 58.676 56.8765C58.5209 57.0316 58.3107 57.1188 58.0914 57.1191H18.6851C18.4658 57.1188 18.2556 57.0316 18.1005 56.8766C17.9455 56.7215 17.8582 56.5113 17.858 56.292V48.5217C17.8582 48.3025 17.9455 48.0922 18.1005 47.9372C18.2556 47.7821 18.4658 47.6949 18.6851 47.6947H58.0914V47.6946ZM58.0914 46.8567H18.6851C18.2435 46.8567 17.82 47.0321 17.5077 47.3444C17.1955 47.6566 17.02 48.0801 17.02 48.5217V56.292C17.02 56.7336 17.1955 57.1571 17.5077 57.4694C17.82 57.7816 18.2435 57.957 18.6851 57.957H58.0914C58.533 57.957 58.9566 57.7816 59.2688 57.4694C59.5811 57.1571 59.7565 56.7336 59.7565 56.292V48.5217C59.7565 48.0801 59.5811 47.6566 59.2688 47.3444C58.9565 47.0321 58.533 46.8567 58.0914 46.8567Z" fill="white"/>
<path d="M37.8332 30.0645H20.6274V30.9024H37.8332V30.0645Z" fill="white"/>
<path d="M37.8332 41.1648H20.6274V42.0028H37.8332V41.1648Z" fill="white"/>
<path d="M37.8332 52.2654H20.6274V53.1033H37.8332V52.2654Z" fill="white"/>
<path d="M44.4932 32.0127C44.1907 32.0127 43.8951 31.923 43.6437 31.755C43.3922 31.587 43.1962 31.3482 43.0805 31.0688C42.9648 30.7894 42.9345 30.4819 42.9935 30.1853C43.0525 29.8887 43.1981 29.6163 43.412 29.4024C43.6258 29.1886 43.8983 29.043 44.1949 28.984C44.4915 28.925 44.7989 28.9553 45.0783 29.071C45.3577 29.1867 45.5965 29.3827 45.7645 29.6341C45.9325 29.8856 46.0222 30.1812 46.0222 30.4836C46.0218 30.889 45.8606 31.2777 45.5739 31.5644C45.2873 31.8511 44.8986 32.0123 44.4932 32.0127ZM44.4932 29.7926C44.3565 29.7926 44.2229 29.8331 44.1092 29.909C43.9956 29.985 43.907 30.0929 43.8547 30.2192C43.8024 30.3455 43.7887 30.4844 43.8154 30.6185C43.842 30.7525 43.9078 30.8757 44.0045 30.9723C44.1011 31.069 44.2243 31.1348 44.3583 31.1614C44.4924 31.1881 44.6313 31.1744 44.7576 31.1221C44.8839 31.0698 44.9918 30.9812 45.0678 30.8676C45.1437 30.7539 45.1842 30.6203 45.1842 30.4836C45.184 30.3004 45.1111 30.1248 44.9815 29.9953C44.852 29.8657 44.6764 29.7928 44.4932 29.7926Z" fill="white"/>
<path d="M49.7781 32.0122C49.4757 32.0122 49.18 31.9226 48.9286 31.7545C48.6771 31.5865 48.4812 31.3477 48.3654 31.0683C48.2497 30.7889 48.2194 30.4815 48.2784 30.1849C48.3374 29.8882 48.483 29.6158 48.6969 29.402C48.9107 29.1881 49.1832 29.0425 49.4798 28.9835C49.7764 28.9245 50.0838 28.9548 50.3632 29.0705C50.6426 29.1862 50.8814 29.3822 51.0495 29.6337C51.2175 29.8851 51.3072 30.1807 51.3072 30.4832C51.3068 30.8886 51.1455 31.2773 50.8589 31.5639C50.5722 31.8506 50.1835 32.0118 49.7781 32.0122ZM49.7781 29.7921C49.6414 29.7921 49.5078 29.8326 49.3941 29.9085C49.2805 29.9845 49.1919 30.0924 49.1396 30.2187C49.0873 30.345 49.0736 30.4839 49.1003 30.618C49.127 30.7521 49.1928 30.8752 49.2894 30.9718C49.3861 31.0685 49.5092 31.1343 49.6433 31.161C49.7773 31.1876 49.9163 31.174 50.0426 31.1216C50.1688 31.0693 50.2768 30.9808 50.3527 30.8671C50.4287 30.7535 50.4692 30.6199 50.4692 30.4832C50.4689 30.3 50.396 30.1243 50.2665 29.9948C50.1369 29.8652 49.9613 29.7923 49.7781 29.7921Z" fill="white"/>
<path d="M55.1411 32.0122C54.8387 32.0122 54.5431 31.9226 54.2916 31.7545C54.0402 31.5865 53.8442 31.3477 53.7285 31.0683C53.6127 30.7889 53.5824 30.4815 53.6414 30.1849C53.7004 29.8882 53.8461 29.6158 54.0599 29.402C54.2738 29.1881 54.5462 29.0425 54.8428 28.9835C55.1394 28.9245 55.4469 28.9548 55.7263 29.0705C56.0057 29.1862 56.2445 29.3822 56.4125 29.6337C56.5805 29.8851 56.6702 30.1807 56.6702 30.4832C56.6698 30.8886 56.5086 31.2773 56.2219 31.5639C55.9352 31.8506 55.5465 32.0118 55.1411 32.0122ZM55.1411 29.7921C55.0044 29.7921 54.8708 29.8326 54.7572 29.9085C54.6435 29.9845 54.5549 30.0924 54.5026 30.2187C54.4503 30.345 54.4366 30.4839 54.4633 30.618C54.49 30.752 54.5558 30.8752 54.6524 30.9718C54.7491 31.0685 54.8722 31.1343 55.0063 31.161C55.1403 31.1876 55.2793 31.174 55.4056 31.1217C55.5319 31.0693 55.6398 30.9808 55.7157 30.8671C55.7917 30.7535 55.8322 30.6199 55.8322 30.4832C55.832 30.3 55.7591 30.1243 55.6295 29.9948C55.5 29.8652 55.3243 29.7923 55.1411 29.7921Z" fill="white"/>
<path d="M44.4935 54.213C44.1911 54.2129 43.8955 54.1232 43.6441 53.9552C43.3927 53.7872 43.1968 53.5484 43.0811 53.269C42.9655 52.9896 42.9352 52.6822 42.9943 52.3857C43.0533 52.0891 43.1989 51.8167 43.4128 51.6029C43.6266 51.3891 43.8991 51.2436 44.1956 51.1846C44.4922 51.1257 44.7996 51.156 45.079 51.2717C45.3583 51.3875 45.5971 51.5835 45.765 51.8349C45.933 52.0864 46.0226 52.382 46.0225 52.6844C46.0221 53.0897 45.8608 53.4783 45.5741 53.7649C45.2875 54.0514 44.8988 54.2126 44.4935 54.213ZM44.4935 51.9932C44.3569 51.9933 44.2233 52.0338 44.1097 52.1098C43.9962 52.1857 43.9076 52.2936 43.8554 52.4198C43.8031 52.5461 43.7894 52.685 43.8161 52.819C43.8428 52.953 43.9086 53.0761 44.0052 53.1727C44.1018 53.2693 44.2249 53.3351 44.3589 53.3617C44.4929 53.3884 44.6318 53.3747 44.758 53.3225C44.8842 53.2702 44.9921 53.1817 45.0681 53.0681C45.144 52.9545 45.1845 52.821 45.1846 52.6843C45.1843 52.5011 45.1114 52.3255 44.9819 52.1959C44.8523 52.0664 44.6767 51.9935 44.4935 51.9932Z" fill="white"/>
<path d="M49.7777 54.2135C49.4753 54.2134 49.1797 54.1237 48.9283 53.9557C48.6769 53.7877 48.481 53.5489 48.3653 53.2695C48.2496 52.9901 48.2194 52.6827 48.2784 52.3861C48.3375 52.0896 48.4831 51.8172 48.697 51.6034C48.9108 51.3896 49.1833 51.244 49.4798 51.1851C49.7764 51.1261 50.0838 51.1565 50.3632 51.2722C50.6425 51.388 50.8813 51.584 51.0492 51.8354C51.2172 52.0869 51.3068 52.3825 51.3067 52.6849C51.3062 53.0902 51.145 53.4788 50.8583 53.7654C50.5717 54.0519 50.183 54.2131 49.7777 54.2135ZM49.7777 51.9937C49.6411 51.9938 49.5075 52.0343 49.3939 52.1103C49.2803 52.1862 49.1918 52.2941 49.1396 52.4203C49.0873 52.5466 49.0736 52.6855 49.1003 52.8195C49.127 52.9535 49.1928 53.0765 49.2894 53.1732C49.386 53.2698 49.5091 53.3356 49.643 53.3622C49.777 53.3889 49.9159 53.3752 50.0422 53.323C50.1684 53.2707 50.2763 53.1822 50.3522 53.0686C50.4282 52.955 50.4687 52.8215 50.4688 52.6848C50.4685 52.5016 50.3956 52.326 50.2661 52.1964C50.1365 52.0669 49.9609 51.994 49.7777 51.9937Z" fill="white"/>
<path d="M55.1407 54.2135C54.8383 54.2134 54.5428 54.1237 54.2914 53.9557C54.04 53.7877 53.844 53.5489 53.7284 53.2695C53.6127 52.9901 53.5824 52.6827 53.6415 52.3861C53.7005 52.0896 53.8462 51.8172 54.06 51.6034C54.2739 51.3896 54.5463 51.244 54.8429 51.1851C55.1395 51.1261 55.4469 51.1565 55.7262 51.2722C56.0056 51.388 56.2443 51.584 56.4122 51.8354C56.5802 52.0869 56.6698 52.3825 56.6698 52.6849C56.6693 53.0902 56.508 53.4788 56.2214 53.7654C55.9347 54.0519 55.546 54.2131 55.1407 54.2135ZM55.1407 51.9937C55.0041 51.9938 54.8705 52.0343 54.757 52.1103C54.6434 52.1862 54.5548 52.2941 54.5026 52.4203C54.4503 52.5466 54.4367 52.6855 54.4633 52.8195C54.49 52.9535 54.5558 53.0765 54.6524 53.1731C54.749 53.2698 54.8721 53.3356 55.0061 53.3622C55.1401 53.3889 55.279 53.3752 55.4052 53.323C55.5314 53.2707 55.6393 53.1822 55.7153 53.0686C55.7912 52.955 55.8318 52.8215 55.8318 52.6848C55.8315 52.5016 55.7587 52.326 55.6291 52.1964C55.4996 52.0669 55.3239 51.994 55.1407 51.9937Z" fill="white"/>
<path d="M44.4932 43.1128C44.1908 43.1128 43.8951 43.0231 43.6437 42.8551C43.3922 42.6871 43.1962 42.4483 43.0805 42.1689C42.9648 41.8895 42.9345 41.5821 42.9935 41.2854C43.0525 40.9888 43.1981 40.7164 43.412 40.5025C43.6258 40.2887 43.8982 40.1431 44.1949 40.0841C44.4915 40.0251 44.7989 40.0554 45.0783 40.1711C45.3577 40.2868 45.5965 40.4828 45.7645 40.7342C45.9325 40.9857 46.0222 41.2813 46.0222 41.5837C46.0218 41.9892 45.8606 42.3778 45.5739 42.6645C45.2873 42.9512 44.8986 43.1124 44.4932 43.1128ZM44.4932 40.8927C44.3565 40.8927 44.2229 40.9332 44.1092 41.0091C43.9956 41.0851 43.907 41.193 43.8547 41.3193C43.8024 41.4456 43.7887 41.5845 43.8154 41.7186C43.842 41.8526 43.9079 41.9758 44.0045 42.0724C44.1012 42.1691 44.2243 42.2349 44.3584 42.2615C44.4924 42.2882 44.6314 42.2745 44.7576 42.2222C44.8839 42.1699 44.9919 42.0813 45.0678 41.9677C45.1437 41.854 45.1843 41.7204 45.1843 41.5837C45.184 41.4005 45.1111 41.2249 44.9816 41.0954C44.852 40.9658 44.6764 40.8929 44.4932 40.8927Z" fill="white"/>
<path d="M49.7781 43.1131C49.4757 43.1131 49.18 43.0234 48.9286 42.8554C48.6771 42.6874 48.4812 42.4485 48.3654 42.1691C48.2497 41.8897 48.2194 41.5823 48.2784 41.2857C48.3374 40.9891 48.483 40.7166 48.6969 40.5028C48.9107 40.2889 49.1832 40.1433 49.4798 40.0843C49.7764 40.0253 50.0838 40.0556 50.3632 40.1713C50.6426 40.2871 50.8814 40.483 51.0495 40.7345C51.2175 40.986 51.3072 41.2816 51.3072 41.584C51.3068 41.9894 51.1455 42.3781 50.8589 42.6648C50.5722 42.9514 50.1835 43.1127 49.7781 43.1131ZM49.7781 40.8929C49.6414 40.8929 49.5078 40.9334 49.3941 41.0094C49.2805 41.0853 49.1919 41.1933 49.1396 41.3195C49.0873 41.4458 49.0736 41.5848 49.1003 41.7188C49.127 41.8529 49.1928 41.976 49.2894 42.0727C49.3861 42.1693 49.5092 42.2351 49.6433 42.2618C49.7773 42.2885 49.9163 42.2748 50.0426 42.2225C50.1688 42.1702 50.2768 42.0816 50.3527 41.9679C50.4287 41.8543 50.4692 41.7207 50.4692 41.584C50.4689 41.4008 50.396 41.2252 50.2665 41.0956C50.1369 40.9661 49.9613 40.8932 49.7781 40.8929Z" fill="white"/>
<path d="M55.1411 43.1131C54.8387 43.1131 54.5431 43.0234 54.2916 42.8554C54.0402 42.6874 53.8442 42.4485 53.7285 42.1691C53.6127 41.8897 53.5824 41.5823 53.6414 41.2857C53.7004 40.9891 53.8461 40.7166 54.0599 40.5028C54.2738 40.2889 54.5462 40.1433 54.8428 40.0843C55.1394 40.0253 55.4469 40.0556 55.7263 40.1713C56.0057 40.2871 56.2445 40.483 56.4125 40.7345C56.5805 40.986 56.6702 41.2816 56.6702 41.584C56.6698 41.9894 56.5086 42.3781 56.2219 42.6648C55.9352 42.9514 55.5465 43.1127 55.1411 43.1131ZM55.1411 40.8929C55.0044 40.8929 54.8708 40.9334 54.7572 41.0094C54.6435 41.0853 54.5549 41.1932 54.5026 41.3195C54.4503 41.4458 54.4366 41.5848 54.4633 41.7188C54.49 41.8529 54.5558 41.976 54.6524 42.0727C54.7491 42.1693 54.8722 42.2351 55.0063 42.2618C55.1403 42.2885 55.2793 42.2748 55.4056 42.2225C55.5319 42.1702 55.6398 42.0816 55.7157 41.9679C55.7917 41.8543 55.8322 41.7207 55.8322 41.584C55.832 41.4008 55.7591 41.2252 55.6295 41.0956C55.5 40.9661 55.3243 40.8932 55.1411 40.8929Z" fill="white"/>
<path d="M39.9626 80C31.4427 79.992 23.1479 77.2639 16.2866 72.213C9.42531 67.1621 4.356 60.0523 1.81719 51.9194C-0.721628 43.7866 -0.597303 35.0555 2.17205 26.9982C4.9414 18.941 10.2111 11.9784 17.2134 7.12491C24.2158 2.27141 32.5849 -0.219455 41.1016 0.0151784C49.6183 0.249812 57.8376 3.19769 64.562 8.42936C71.2865 13.661 76.1649 20.9031 78.4864 29.1007C80.808 37.2982 80.4514 46.0229 77.4686 54.0036C77.4481 54.0592 77.4168 54.1101 77.3765 54.1535C77.3362 54.197 77.2878 54.232 77.2339 54.2567C77.1801 54.2813 77.1219 54.2951 77.0627 54.2972C77.0035 54.2993 76.9444 54.2897 76.889 54.2689C76.8335 54.2482 76.7827 54.2167 76.7394 54.1762C76.6961 54.1357 76.6613 54.0871 76.6369 54.0332C76.6124 53.9792 76.5989 53.921 76.597 53.8618C76.5952 53.8026 76.605 53.7436 76.626 53.6882C79.5519 45.878 79.9067 37.3375 77.6388 29.3115C75.3708 21.2855 70.5987 14.1937 64.018 9.06985C57.4374 3.94597 49.3921 1.05788 41.0551 0.826557C32.7181 0.595238 24.5251 3.03279 17.6704 7.78389C10.8157 12.535 5.65773 19.3513 2.94825 27.2391C0.238778 35.127 0.119486 43.6741 2.60777 51.6345C5.09605 59.5949 10.0618 66.5524 16.7812 71.493C23.5006 76.4336 31.6224 79.0988 39.9626 79.1003C40.0819 79.1003 40.1964 79.1477 40.2807 79.232C40.3651 79.3164 40.4125 79.4308 40.4125 79.5501C40.4125 79.6694 40.3651 79.7839 40.2807 79.8682C40.1964 79.9526 40.0819 80 39.9626 80Z" fill="white"/>
<path d="M39.7375 77.4564C32.1724 77.4292 24.7919 75.1176 18.563 70.8244C12.334 66.5312 7.54703 60.4566 4.82919 53.3965C4.80819 53.3413 4.79827 53.2825 4.8 53.2235C4.80172 53.1644 4.81506 53.1063 4.83925 53.0524C4.86344 52.9985 4.89801 52.9499 4.94099 52.9094C4.98396 52.8689 5.03449 52.8372 5.0897 52.8162C5.14491 52.7952 5.20372 52.7853 5.26276 52.787C5.32181 52.7887 5.37993 52.8021 5.43382 52.8263C5.48771 52.8504 5.53631 52.885 5.57684 52.928C5.61737 52.971 5.64904 53.0215 5.67004 53.0767C8.03182 59.2873 12.0466 64.734 17.2803 68.8278C22.5139 72.9215 28.7671 75.5065 35.3637 76.3032C41.9603 77.0998 48.6492 76.0778 54.7069 73.3477C60.7647 70.6175 65.9607 66.2832 69.7331 60.8134C73.5055 55.3436 75.7106 48.9465 76.1101 42.314C76.5095 35.6815 75.0881 29.066 71.9994 23.183C68.9108 17.2999 64.2725 12.3733 58.5862 8.93587C52.8999 5.49844 46.3821 3.68105 39.7375 3.68024C39.6182 3.68024 39.5038 3.63284 39.4194 3.54848C39.3351 3.46411 39.2877 3.34969 39.2877 3.23038C39.2877 3.11107 39.3351 2.99665 39.4194 2.91228C39.5038 2.82792 39.6182 2.78052 39.7375 2.78052C44.6424 2.77811 49.4996 3.74211 54.0318 5.61744C58.5639 7.49277 62.6822 10.2427 66.1513 13.7101C69.6204 17.1775 72.3723 21.2944 74.2499 25.8256C76.1274 30.3569 77.0938 35.2136 77.0938 40.1185C77.0938 45.0233 76.1274 49.8801 74.2499 54.4113C72.3723 58.9426 69.6204 63.0595 66.1513 66.5269C62.6822 69.9943 58.5639 72.7442 54.0318 74.6195C49.4996 76.4949 44.6424 77.4589 39.7375 77.4564Z" fill="white"/>
</svg>
