<?xml version="1.0" encoding="UTF-8" standalone="no"?>
<svg width="80" xmlns="http://www.w3.org/2000/svg" viewBox="0 0 80 80" height="80">
 <path d="m58.653 75.498c-7.589 3.927-16.238 5.337-24.687 4.025-8.45-1.312-16.258-5.278-22.288-11.319-6.0292-6.042-9.965-13.844-11.234-22.27-1.2683-8.425 0.19639-17.034 4.1811-24.573 3.9848-7.538 10.281-13.612 17.973-17.337 7.691-3.724 16.374-4.9045 24.786-3.369 8.411 1.5356 16.111 5.7068 21.977 11.906 5.866 6.199 9.592 14.103 10.635 22.559 0.008 0.059 0.004 0.119-0.012 0.176s-0.043 0.11-0.079 0.157c-0.037 0.047-0.082 0.086-0.134 0.115s-0.109 0.048-0.168 0.055-0.119 0.003-0.176-0.013-0.111-0.043-0.157-0.08c-0.047-0.036-0.086-0.082-0.115-0.133-0.029-0.052-0.048-0.109-0.055-0.167-1.015-8.279-4.657-16.019-10.396-22.09-5.739-6.0724-13.274-10.159-21.508-11.666-8.233-1.506-16.734-0.3528-24.264 3.2916-7.529 3.6444-13.694 9.5894-17.595 16.969-3.9004 7.379-5.3335 15.807-4.09 24.055 1.2435 8.247 5.0985 15.884 11.003 21.796 5.905 5.912 13.55 9.79 21.822 11.07s16.738-0.107 24.164-3.956c0.053-0.028 0.11-0.045 0.17-0.05 0.059-0.006 0.119 0 0.176 0.018 0.056 0.018 0.109 0.046 0.155 0.085 0.045 0.038 0.083 0.084 0.11 0.137 0.028 0.052 0.045 0.11 0.05 0.169s-0.002 0.118-0.02 0.175c-0.018 0.056-0.047 0.109-0.085 0.154-0.039 0.045-0.086 0.082-0.139 0.11z" fill="#fff"/>
 <path d="m57.317 72.911c-6.748 3.47-14.39 4.828-21.925 3.897-7.536-0.931-14.613-4.108-20.306-9.115-0.088-0.079-0.142-0.19-0.149-0.309s0.034-0.236 0.114-0.324c0.079-0.089 0.191-0.143 0.31-0.15 0.119-0.008 0.236 0.033 0.326 0.111 4.981 4.418 11.08 7.395 17.637 8.609 6.557 1.213 13.322 0.618 19.564-1.722s11.723-6.336 15.85-11.555c4.128-5.219 6.744-11.464 7.567-18.057 0.822-6.594-0.18-13.287-2.899-19.354s-7.051-11.278-12.528-15.07c-5.477-3.7911-11.89-6.0186-18.545-6.4412-6.656-0.4226-13.301 0.9758-19.217 4.0439-0.052 0.0274-0.11 0.0442-0.169 0.0495s-0.119-0.0012-0.175-0.0189c-0.057-0.0177-0.11-0.0464-0.155-0.0844s-0.083-0.0845-0.111-0.137c-0.027-0.0525-0.044-0.1098-0.049-0.1688-0.005-0.0589 0.002-0.1183 0.019-0.1747 0.018-0.0564 0.047-0.1087 0.086-0.154 0.038-0.0452 0.085-0.0825 0.137-0.1098 4.366-2.2673 9.137-3.6554 14.041-4.0852s9.844 0.1073 14.54 1.5805 9.054 3.8537 12.826 7.0061c3.772 3.151 6.884 7.013 9.157 11.363 2.274 4.35 3.665 9.104 4.094 13.99s-0.112 9.809-1.593 14.486c-1.481 4.678-3.872 9.019-7.038 12.776-3.165 3.756-7.042 6.855-11.409 9.118z" fill="#fff"/>
 <path d="m48.68 52.721h-22.576c-0.599-0.001-1.173-0.238-1.596-0.659-0.423-0.422-0.661-0.994-0.662-1.59v-17.095c0.001-0.596 0.239-1.168 0.662-1.589 0.423-0.422 0.997-0.659 1.596-0.66h22.576c0.598 0.001 1.172 0.238 1.596 0.66 0.423 0.421 0.661 0.993 0.662 1.589v17.095c-0.001 0.596-0.239 1.168-0.662 1.59-0.424 0.421-0.998 0.658-1.596 0.659zm-22.576-20.693c-0.359 0-0.704 0.142-0.958 0.395s-0.396 0.596-0.397 0.954v17.095c0.001 0.358 0.143 0.701 0.397 0.954s0.599 0.395 0.958 0.395h22.576c0.359 0 0.703-0.142 0.957-0.395s0.397-0.596 0.398-0.954v-17.095c-0.001-0.358-0.144-0.701-0.398-0.954s-0.598-0.395-0.957-0.395h-22.576z" fill="#fff"/>
 <path d="m61.774 51.821h-3.81c-0.848 0.002-1.674-0.262-2.362-0.754l-5.567-3.963v-8.578l6.557-4.083c0.646-0.403 1.393-0.616 2.154-0.616h3.028v17.994zm-10.836-5.179l5.188 3.693c0.536 0.383 1.179 0.588 1.838 0.587h2.907v-16.195h-2.125c-0.592 0-1.172 0.165-1.675 0.478l-6.133 3.82v7.617z" fill="#fff"/>
 <path d="m45.971 35.627h-9.031v0.9h9.031v-0.9z" fill="#fff"/>
 <path d="m39.198 48.222h-10.837v-5.398h10.837v5.398zm-9.934-0.899h9.031v-3.599h-9.031v3.599z" fill="#fff"/>
 <path d="m35.586 30.678h-0.903v-3.598c0-0.12-0.048-0.234-0.133-0.318-0.084-0.085-0.199-0.132-0.319-0.132h-2.709v-0.9h2.709c0.359 0 0.704 0.143 0.957 0.396 0.254 0.253 0.397 0.596 0.398 0.954v3.598z" fill="#fff"/>
 <path d="m40.101 30.678h-0.903v-5.398c-0.001-0.835-0.334-1.635-0.927-2.225-0.593-0.591-1.396-0.923-2.234-0.924h-4.515v-0.9h4.515c1.078 0.002 2.111 0.429 2.872 1.188 0.762 0.759 1.191 1.788 1.192 2.861v5.398z" fill="#fff"/>
 <path d="m27.91 29.329h-6.773v-10.797h6.773c1.077 0.001 2.11 0.428 2.872 1.187s1.19 1.789 1.191 2.862v2.699c-0.001 1.074-0.429 2.103-1.191 2.862s-1.795 1.186-2.872 1.187zm-5.87-0.9h5.87c0.838-0.001 1.641-0.333 2.233-0.923 0.593-0.591 0.926-1.391 0.927-2.226v-2.699c-0.001-0.835-0.334-1.635-0.927-2.226-0.592-0.59-1.395-0.922-2.233-0.923h-5.87v8.997z" fill="#fff"/>
 <path d="m35.191 58.12h-6.378c-0.599-0.001-1.173-0.238-1.596-0.66s-0.661-0.993-0.662-1.59v-3.598h0.903v3.598c0.001 0.358 0.144 0.701 0.397 0.954 0.254 0.253 0.599 0.396 0.958 0.396h6.378c0.199 0 0.395-0.043 0.575-0.127s0.339-0.207 0.466-0.359l3.973-4.751 0.694 0.577-3.973 4.75c-0.212 0.254-0.477 0.458-0.777 0.598s-0.627 0.212-0.958 0.212z" fill="#fff"/>
 <path d="m27.007 22.131h-2.709v0.9h2.709v-0.9z" fill="#fff"/>
 <path d="m27.007 24.83h-2.709v0.9h2.709v-0.9z" fill="#fff"/>
</svg>
