<?xml version="1.0" encoding="UTF-8" standalone="no"?>
<svg width="80" xmlns="http://www.w3.org/2000/svg" viewBox="0 0 80 80" height="80">
 <path d="m76.244 61.094c-4.63 7.239-11.522 12.854-19.67 16.028-8.148 3.173-17.128 3.739-25.63 1.615-8.503-2.124-16.084-6.827-21.641-13.424-5.5557-6.597-8.7959-14.744-9.2482-23.252-0.45238-8.509 1.9068-16.935 6.7338-24.052 4.8274-7.117 11.869-12.552 20.102-15.514 8.232-2.962 17.224-3.2958 25.665-0.9528 8.442 2.3429 15.892 7.2401 21.265 13.978 0.075 0.095 0.108 0.214 0.092 0.332s-0.079 0.225-0.176 0.298-0.22 0.106-0.342 0.091-0.232-0.077-0.308-0.17c-5.254-6.6003-12.544-11.399-20.806-13.697-8.262-2.2984-17.065-1.9757-25.125 0.9207-8.059 2.8964-14.955 8.2153-19.682 15.181-4.7264 6.966-7.0367 15.214-6.594 23.543 0.4428 8.329 3.6155 16.304 9.0556 22.761 5.4404 6.456 12.863 11.058 21.187 13.135 8.324 2.076 17.114 1.518 25.089-1.593 7.974-3.111 14.717-8.612 19.244-15.701 0.064-0.102 0.168-0.174 0.288-0.201 0.119-0.027 0.245-0.007 0.349 0.056 0.105 0.062 0.179 0.163 0.207 0.279 0.029 0.116 0.008 0.238-0.056 0.339z" fill="#fff"/>
 <path d="m74.232 60.006c-4.129 6.417-10.16 11.474-17.301 14.508-7.141 3.035-15.061 3.905-22.721 2.498-0.12-0.023-0.227-0.092-0.295-0.19-0.069-0.099-0.094-0.22-0.071-0.337s0.094-0.221 0.195-0.287c0.102-0.067 0.227-0.092 0.347-0.07 6.723 1.263 13.673 0.718 20.1-1.575 6.426-2.293 12.084-6.248 16.362-11.436s7.013-11.413 7.908-18c0.896-6.588-0.081-13.287-2.826-19.375-2.745-6.087-7.152-11.331-12.746-15.163-5.593-3.8322-12.16-6.1076-18.99-6.58s-13.663 0.8762-19.761 3.9c-6.097 3.024-11.226 7.607-14.833 13.256-0.0645 0.101-0.1681 0.173-0.2877 0.2s-0.2455 0.007-0.3499-0.055c-0.1045-0.063-0.179-0.164-0.2071-0.28-0.0282-0.116-0.0077-0.238 0.0568-0.339 5.3739-8.419 13.974-14.42 23.909-16.686 9.934-2.2647 20.389-0.6076 29.064 4.6072s14.86 13.56 17.195 23.201c2.334 9.64 0.626 19.785-4.748 28.203z" fill="#fff"/>
 <path d="m44.48 56.28c-2.845 0-6.414-1.805-7.817-2.581-0.09-0.05-0.161-0.128-0.2-0.221-0.039-0.094-0.045-0.198-0.016-0.295l3.686-12.362c0.02-0.068 0.058-0.131 0.108-0.183 0.051-0.052 0.114-0.092 0.183-0.116 0.07-0.024 0.144-0.031 0.218-0.021 0.072 0.01 0.142 0.036 0.203 0.077 2.389 1.57 5.221 2.379 8.105 2.317h0.004c2.272-0.029 4.525-0.4 6.679-1.1 0.08-0.025 0.165-0.028 0.247-0.009 0.082 0.018 0.157 0.058 0.217 0.115s0.104 0.128 0.125 0.207c0.022 0.079 0.021 0.162-0.002 0.24l-3.52 11.883c-0.019 0.066-0.054 0.126-0.101 0.177-0.047 0.05-0.105 0.09-0.17 0.116-2.509 1.074-5.208 1.671-7.949 1.756zm-7.04-3.19c1.332 0.711 4.571 2.29 7.04 2.29 2.546-0.08 5.054-0.626 7.392-1.609l3.221-10.876c-1.993 0.577-4.059 0.879-6.139 0.9h-0.004c-2.854 0.05-5.665-0.691-8.102-2.135l-3.408 11.43zm-3.954-1.286c-0.088 0-0.174-0.024-0.249-0.07-2.173-1.482-4.754-2.298-7.41-2.343-2.267 0.053-4.508 0.496-6.616 1.307-0.081 0.029-0.168 0.036-0.252 0.019-0.084-0.016-0.162-0.055-0.224-0.112-0.063-0.056-0.108-0.129-0.131-0.209s-0.022-0.165 0.002-0.245l3.662-12.253c0.019-0.065 0.054-0.126 0.101-0.176 0.047-0.051 0.105-0.091 0.171-0.116 0.38-0.149 0.747-0.284 1.108-0.41 1.878-0.643 3.831-1.059 5.814-1.239 2.299-0.124 4.587 0.387 6.598 1.475 0.521 0.277 1.024 0.56 1.519 0.856 0.087 0.052 0.153 0.13 0.19 0.222 0.036 0.092 0.04 0.194 0.012 0.288-0.671 2.214-2.915 9.617-3.85 12.684-0.02 0.067-0.056 0.128-0.105 0.179s-0.11 0.09-0.177 0.115c-0.052 0.019-0.107 0.028-0.163 0.028zm-7.659-3.313c2.626 0.023 5.189 0.776 7.388 2.169 0.965-3.17 2.851-9.393 3.576-11.784-0.384-0.224-0.772-0.44-1.165-0.649-1.855-1.006-3.966-1.482-6.088-1.373-1.903 0.173-3.778 0.573-5.581 1.19-0.279 0.098-0.566 0.203-0.862 0.316l-3.348 11.202c1.953-0.674 4.007-1.036 6.08-1.071zm24.029-8.776c-2.958-0.008-5.849-0.852-8.322-2.427-0.084-0.053-0.149-0.13-0.184-0.221s-0.039-0.191-0.011-0.284l3.747-12.522c0.021-0.068 0.058-0.131 0.108-0.183 0.051-0.052 0.113-0.091 0.182-0.115 0.07-0.024 0.144-0.031 0.217-0.022 0.073 0.01 0.142 0.036 0.203 0.077 2.355 1.57 5.152 2.398 8.01 2.373 2.332-0.031 4.638-0.481 6.802-1.326 0.08-0.03 0.168-0.038 0.253-0.023 0.085 0.016 0.164 0.054 0.227 0.111 0.064 0.057 0.11 0.13 0.133 0.211 0.024 0.08 0.023 0.166-0.001 0.246l-3.625 12.058c-0.019 0.062-0.051 0.12-0.095 0.169s-0.098 0.088-0.158 0.115c-0.037 0.053-0.087 0.095-0.146 0.123-2.298 1.047-4.801 1.606-7.34 1.64zm-7.529-3.007c4.322 2.563 9.242 2.791 14.316 0.621 0.034-0.053 0.077-0.099 0.129-0.136l3.301-10.981c-2.013 0.693-4.131 1.058-6.267 1.079-2.829 0.021-5.605-0.739-8.005-2.192l-3.474 11.609zm-3.953-1.109c-0.089 0-0.175-0.025-0.25-0.071-2.152-1.249-4.636-1.855-7.142-1.742l-0.547-0.001c-2.137-0.123-4.279 0.16-6.305 0.833-0.079 0.029-0.166 0.036-0.25 0.021-0.084-0.016-0.162-0.054-0.225-0.109-0.063-0.056-0.109-0.128-0.133-0.208-0.024-0.079-0.024-0.164-0.002-0.244l3.602-12.79c0.019-0.067 0.054-0.129 0.102-0.181s0.107-0.093 0.174-0.119c2.284-0.951 4.726-1.492 7.208-1.597 1.097-0.003 2.19 0.114 3.259 0.351 1.577 0.488 3.093 1.146 4.52 1.96 0.089 0.05 0.16 0.127 0.199 0.22s0.045 0.196 0.017 0.292l-3.781 13.057c-0.027 0.094-0.086 0.177-0.166 0.237-0.081 0.059-0.179 0.091-0.28 0.091zm-8.488-2.716c0.186 0 0.37 0.001 0.553 0.002l0.54 0.001c2.472-0.093 4.926 0.45 7.113 1.574l3.518-12.149c-1.254-0.705-2.583-1.273-3.965-1.695-0.994-0.219-2.011-0.328-3.03-0.325-2.291 0.097-4.545 0.589-6.659 1.451l-3.312 11.758c1.705-0.463 3.472-0.671 5.242-0.617z" fill="#fff"/>
 <path d="m54.166 62.943h-0.853c-0.256 0.006-0.506-0.076-0.705-0.233-0.199-0.156-0.334-0.376-0.381-0.62l-0.108-0.584c-0.506-0.136-0.991-0.335-1.445-0.59l-0.476 0.321c-0.21 0.15-0.469 0.222-0.729 0.201-0.26-0.02-0.504-0.132-0.686-0.313l-0.568-0.552c-0.188-0.179-0.303-0.419-0.322-0.673-0.02-0.255 0.057-0.508 0.216-0.712l0.318-0.443c-0.269-0.441-0.474-0.915-0.609-1.41l-0.589-0.102c-0.251-0.049-0.476-0.181-0.638-0.374-0.162-0.192-0.25-0.433-0.249-0.681v-0.798c-0.006-0.248 0.078-0.491 0.239-0.684s0.388-0.324 0.64-0.37l0.601-0.104c0.141-0.491 0.345-0.962 0.608-1.403l-0.331-0.462c-0.154-0.204-0.228-0.455-0.206-0.707 0.021-0.252 0.136-0.489 0.323-0.665l0.267-0.289 0.351-0.31c0.184-0.177 0.429-0.283 0.688-0.299s0.515 0.059 0.722 0.212l0.456 0.308c0.451-0.262 0.942-0.454 1.454-0.571l0.103-0.559c0.051-0.244 0.188-0.463 0.386-0.619 0.198-0.157 0.447-0.243 0.703-0.242h0.852c0.256-0.007 0.506 0.076 0.705 0.232s0.335 0.376 0.382 0.62l0.107 0.584c0.506 0.137 0.992 0.335 1.446 0.59l0.476-0.321c0.21-0.15 0.469-0.221 0.729-0.201 0.26 0.021 0.504 0.133 0.685 0.314l0.569 0.552c0.188 0.179 0.302 0.418 0.322 0.673 0.019 0.255-0.058 0.508-0.217 0.712l-0.317 0.443c0.265 0.442 0.469 0.915 0.605 1.408l0.592 0.103 0.02 0.004c0.254 0.05 0.48 0.19 0.634 0.392 0.155 0.203 0.226 0.454 0.2 0.704l0.002 0.753c0.007 0.249-0.078 0.491-0.239 0.684s-0.388 0.325-0.639 0.37l-0.602 0.105c-0.141 0.491-0.345 0.962-0.609 1.403l0.331 0.461c0.155 0.204 0.228 0.455 0.207 0.707s-0.136 0.489-0.323 0.665l-0.568 0.552c-0.184 0.183-0.431 0.294-0.694 0.313s-0.524-0.056-0.734-0.21l-0.457-0.308c-0.455 0.258-0.943 0.455-1.451 0.588l-0.106 0.573c-0.051 0.244-0.187 0.463-0.386 0.62-0.198 0.157-0.446 0.242-0.702 0.242zm-3.506-3.016c0.091 0 0.18 0.027 0.257 0.076 0.523 0.331 1.104 0.569 1.714 0.703 0.087 0.021 0.167 0.065 0.229 0.129s0.104 0.144 0.12 0.23l0.158 0.858c0.005 0.027 0.025 0.12 0.175 0.12h0.853c0.042 0.001 0.082-0.013 0.115-0.038 0.032-0.025 0.055-0.061 0.064-0.1l0.155-0.84c0.015-0.086 0.057-0.166 0.119-0.229 0.062-0.064 0.142-0.109 0.229-0.129 0.609-0.126 1.187-0.362 1.704-0.697 0.078-0.053 0.171-0.082 0.266-0.082s0.188 0.028 0.266 0.081l0.727 0.49c0.033 0.027 0.074 0.041 0.117 0.039 0.042-0.002 0.083-0.019 0.112-0.049l0.569-0.552c0.029-0.026 0.047-0.062 0.051-0.101 0.003-0.038-0.008-0.077-0.031-0.108l-0.515-0.718c-0.053-0.074-0.082-0.162-0.083-0.252-0.001-0.091 0.026-0.179 0.078-0.254 0.341-0.509 0.586-1.072 0.724-1.664 0.021-0.085 0.067-0.162 0.133-0.222 0.066-0.061 0.148-0.101 0.237-0.116l0.884-0.154c0.028-0.005 0.124-0.024 0.124-0.17v-0.797c0.007-0.037 0.001-0.074-0.019-0.106s-0.051-0.056-0.087-0.067l-0.871-0.151c-0.088-0.015-0.171-0.055-0.236-0.116-0.066-0.06-0.112-0.137-0.133-0.223-0.131-0.589-0.374-1.15-0.717-1.653-0.055-0.076-0.085-0.166-0.085-0.258-0.001-0.092 0.028-0.183 0.083-0.258l0.505-0.705c0.027-0.032 0.041-0.072 0.04-0.113-0.002-0.041-0.02-0.08-0.05-0.109l-0.569-0.552c-0.027-0.028-0.064-0.046-0.103-0.049-0.04-0.004-0.079 0.007-0.112 0.029l-0.74 0.5c-0.076 0.052-0.167 0.08-0.26 0.08-0.093 0.001-0.184-0.025-0.262-0.075-0.524-0.331-1.105-0.569-1.714-0.703-0.088-0.02-0.168-0.065-0.23-0.128-0.062-0.064-0.104-0.144-0.119-0.23l-0.158-0.859c-0.005-0.026-0.025-0.12-0.176-0.12h-0.852c-0.042 0-0.083 0.013-0.116 0.039-0.032 0.025-0.055 0.06-0.064 0.1l-0.154 0.839c-0.017 0.091-0.061 0.174-0.128 0.239s-0.153 0.108-0.246 0.124c-0.602 0.099-1.176 0.324-1.679 0.661-0.078 0.054-0.17 0.083-0.266 0.083-0.095 0-0.188-0.028-0.266-0.081l-0.727-0.491c-0.032-0.026-0.074-0.039-0.116-0.038-0.042 0.002-0.082 0.02-0.112 0.048l-0.584 0.566c-0.035 0.026-0.058 0.064-0.065 0.106s0.003 0.085 0.028 0.12l0.515 0.718c0.053 0.074 0.082 0.162 0.083 0.253 0.001 0.09-0.026 0.179-0.078 0.254-0.341 0.508-0.586 1.071-0.724 1.663-0.021 0.085-0.067 0.163-0.133 0.223s-0.148 0.1-0.237 0.116l-0.884 0.153c-0.027 0.005-0.124 0.024-0.124 0.17v0.798c0 0.04 0.013 0.079 0.039 0.111 0.026 0.031 0.062 0.053 0.103 0.062l0.866 0.15c0.089 0.015 0.173 0.056 0.239 0.117 0.065 0.061 0.111 0.14 0.132 0.226 0.125 0.59 0.369 1.15 0.716 1.649 0.055 0.076 0.085 0.166 0.085 0.258 0 0.093-0.029 0.183-0.083 0.259l-0.506 0.705c-0.028 0.031-0.042 0.072-0.04 0.113s0.02 0.08 0.051 0.109l0.568 0.551c0.027 0.029 0.065 0.047 0.104 0.05 0.04 0.004 0.08-0.007 0.113-0.03l0.739-0.5c0.077-0.052 0.17-0.081 0.265-0.081z" fill="#fff"/>
 <path d="m53.756 58.682c-0.592 0-1.17-0.171-1.662-0.49s-0.875-0.772-1.102-1.302c-0.226-0.531-0.285-1.114-0.17-1.677 0.116-0.563 0.401-1.08 0.819-1.486s0.951-0.682 1.531-0.794c0.581-0.112 1.182-0.055 1.729 0.165 0.546 0.22 1.013 0.592 1.342 1.069 0.328 0.477 0.504 1.039 0.504 1.613 0.002 0.381-0.073 0.76-0.223 1.113-0.149 0.353-0.369 0.674-0.648 0.944-0.278 0.27-0.609 0.484-0.973 0.629s-0.754 0.218-1.147 0.216zm0-4.905c-0.408 0-0.807 0.117-1.147 0.337-0.339 0.22-0.603 0.533-0.76 0.899-0.156 0.366-0.197 0.768-0.117 1.157 0.079 0.388 0.276 0.745 0.564 1.025 0.289 0.28 0.657 0.471 1.057 0.548 0.4 0.078 0.815 0.038 1.192-0.113 0.377-0.152 0.7-0.409 0.927-0.738 0.226-0.329 0.348-0.716 0.348-1.112-0.001-0.531-0.219-1.04-0.605-1.416-0.387-0.376-0.912-0.587-1.459-0.587z" fill="#fff"/>
</svg>
