<svg width="80" height="80" viewBox="0 0 80 80" fill="none" xmlns="http://www.w3.org/2000/svg">
<path d="M76.2438 61.0944C71.6136 68.3333 64.7224 73.9484 56.5743 77.1218C48.4261 80.2952 39.4465 80.861 30.9438 78.7369C22.4411 76.6127 14.8595 71.9096 9.30341 65.3126C3.74733 58.7156 0.507103 50.5694 0.0547624 42.0608C-0.397579 33.5522 1.96161 25.1257 6.78862 18.0089C11.6156 10.8921 18.6583 5.45687 26.8906 2.49496C35.1229 -0.466951 44.1148 -0.800765 52.5562 1.54215C60.9977 3.88506 68.4477 8.78228 73.821 15.5204C73.8956 15.6148 73.9287 15.7341 73.9129 15.8522C73.8971 15.9702 73.8337 16.0774 73.7367 16.1502C73.6396 16.223 73.5168 16.2555 73.3951 16.2406C73.2734 16.2256 73.1627 16.1645 73.0874 16.0706C67.8327 9.47069 60.543 4.67189 52.2809 2.37375C44.0189 0.0756101 35.2164 0.398263 27.1565 3.29468C19.0967 6.1911 12.2008 11.5099 7.4742 18.4757C2.74758 25.4415 0.437256 33.6901 0.880019 42.0193C1.32278 50.3485 4.49547 58.3227 9.93563 64.7796C15.3758 71.2365 22.799 75.8385 31.1232 77.9148C39.4474 79.9911 48.2374 79.4331 56.2119 76.3222C64.1864 73.2113 70.9286 67.7102 75.4556 60.6206C75.5204 60.5194 75.624 60.4473 75.7436 60.4201C75.8632 60.393 75.989 60.413 76.0934 60.4757C76.1978 60.5385 76.2723 60.6389 76.3005 60.7548C76.3287 60.8708 76.3083 60.9929 76.2438 61.0944Z" fill="white"/>
<path d="M74.2321 60.0061C70.1027 66.4229 64.0724 71.4798 56.9309 74.5142C49.7895 77.5486 41.8701 78.4191 34.2101 77.0116C34.0896 76.9887 33.9834 76.9204 33.9148 76.8216C33.8462 76.7228 33.8207 76.6017 33.8441 76.4847C33.8674 76.3678 33.9376 76.2645 34.0392 76.1977C34.1409 76.1309 34.2657 76.106 34.3863 76.1284C41.1088 77.3912 48.0592 76.8465 54.4857 74.5532C60.9123 72.2599 66.5704 68.3052 70.8482 63.1169C75.126 57.9287 77.8606 51.7042 78.7563 45.1168C79.652 38.5293 78.6747 31.8296 75.93 25.7422C73.1854 19.6548 68.778 14.4114 63.1843 10.5791C57.5907 6.74678 51.0237 4.47137 44.1937 3.99898C37.3637 3.5266 30.5306 4.87521 24.4334 7.89896C18.3362 10.9227 13.2069 15.5065 9.60032 21.1546C9.5355 21.2559 9.43191 21.3281 9.31229 21.3553C9.19267 21.3825 9.06682 21.3625 8.96238 21.2997C8.85794 21.2369 8.78344 21.1365 8.75527 21.0204C8.7271 20.9044 8.74755 20.7822 8.81213 20.6808C14.1861 12.2625 22.7863 6.26063 32.7206 3.99545C42.6549 1.73028 53.1096 3.3874 61.7849 8.60225C70.4601 13.8171 76.6452 22.1625 78.9795 31.8026C81.3138 41.4427 79.6061 51.5878 74.2321 60.0061Z" fill="white"/>
<path d="M44.4799 56.2799C41.6346 56.2799 38.0657 54.4752 36.6632 53.6994C36.5728 53.6493 36.5024 53.5712 36.4632 53.4776C36.4241 53.3839 36.4184 53.2803 36.4473 53.1832L40.1329 40.8213C40.1534 40.7526 40.1906 40.6896 40.2413 40.6375C40.2919 40.5855 40.3547 40.546 40.4243 40.5222C40.4939 40.4984 40.5684 40.4911 40.6415 40.5009C40.7145 40.5107 40.7842 40.5373 40.8446 40.5784C43.2335 42.1479 46.0663 42.9574 48.9505 42.8949H48.9542C51.2256 42.8658 53.4786 42.4949 55.6327 41.7953C55.7127 41.7704 55.7982 41.7671 55.88 41.7856C55.9618 41.8042 56.0368 41.844 56.0971 41.9007C56.1574 41.9575 56.2007 42.0291 56.2223 42.1079C56.244 42.1866 56.2431 42.2696 56.2199 42.348L52.7005 54.231C52.681 54.2966 52.6464 54.357 52.5994 54.4077C52.5523 54.4583 52.494 54.498 52.4288 54.5236C49.9198 55.5983 47.2211 56.1946 44.4799 56.2799ZM37.4405 53.0905C38.7715 53.8009 42.0108 55.3802 44.4799 55.3802C47.0264 55.3004 49.5344 54.7544 51.872 53.771L55.0931 42.8953C53.1 43.4716 51.0337 43.7743 48.9542 43.7946H48.9505C46.0956 43.8448 43.285 43.1043 40.8482 41.66L37.4405 53.0905ZM33.4865 51.8042C33.3981 51.8043 33.3115 51.7797 33.2371 51.7335C31.0638 50.2517 28.483 49.4356 25.8273 49.3906C23.5595 49.4439 21.3194 49.8866 19.2108 50.6985C19.1303 50.7272 19.0432 50.7337 18.9592 50.7173C18.8751 50.7009 18.7974 50.6621 18.7347 50.6054C18.6719 50.5487 18.6266 50.4762 18.6038 50.396C18.581 50.3158 18.5816 50.231 18.6055 50.1511L22.2676 37.8982C22.2871 37.8326 22.3217 37.7722 22.3688 37.7216C22.416 37.671 22.4744 37.6314 22.5397 37.606C22.9204 37.4571 23.2871 37.3222 23.6475 37.1957C25.526 36.5534 27.4787 36.1373 29.4618 35.9568C31.7607 35.8327 34.0486 36.3442 36.0598 37.432C36.5813 37.7088 37.0838 37.9925 37.5791 38.2882C37.6657 38.34 37.7324 38.418 37.7688 38.5101C37.8052 38.6023 37.8094 38.7036 37.7806 38.7983C37.1101 41.0116 34.866 48.4153 33.9311 51.4817C33.9108 51.5486 33.8747 51.6101 33.8257 51.6611C33.7766 51.7121 33.716 51.7513 33.6486 51.7756C33.5968 51.7946 33.5418 51.8043 33.4865 51.8042V51.8042ZM25.8273 48.4909C28.4527 48.5143 31.0163 49.267 33.2148 50.6598C34.1796 47.4901 36.0665 41.2668 36.7909 38.8761C36.407 38.6524 36.0187 38.4362 35.626 38.2272C33.771 37.2209 31.6605 36.7447 29.5383 36.8535C27.6347 37.0271 25.7603 37.4268 23.9571 38.0436C23.6778 38.142 23.3907 38.2466 23.0947 38.3599L19.7468 49.5624C21.7005 48.8883 23.7541 48.5264 25.8273 48.4909V48.4909ZM49.8564 39.7147C46.8983 39.7066 44.0066 38.8633 41.534 37.2875C41.4498 37.2352 41.3852 37.1577 41.35 37.0668C41.3148 36.9759 41.311 36.8764 41.3389 36.7832L45.0861 24.2614C45.1066 24.1929 45.1437 24.1301 45.1942 24.0782C45.2446 24.0264 45.3071 23.9869 45.3764 23.9631C45.4457 23.9392 45.5199 23.9318 45.5927 23.9412C45.6656 23.9507 45.7351 23.9769 45.7955 24.0176C48.1514 25.5877 50.9481 26.4164 53.806 26.3912C56.1381 26.3598 58.4441 25.9102 60.6077 25.0649C60.6883 25.0346 60.7761 25.0269 60.861 25.0425C60.946 25.0581 61.0248 25.0964 61.0884 25.1532C61.1521 25.2099 61.1981 25.2828 61.2214 25.3637C61.2446 25.4445 61.244 25.53 61.2198 25.6105L57.5948 37.6684C57.5761 37.7305 57.5438 37.788 57.5001 37.8369C57.4565 37.8858 57.4024 37.925 57.3417 37.9518C57.3053 38.0047 57.255 38.0472 57.1959 38.0748C54.8976 39.122 52.3953 39.6811 49.8564 39.7147V39.7147ZM42.3268 36.7076C46.6489 39.2714 51.5691 39.499 56.6432 37.3288C56.6769 37.2761 56.7205 37.2301 56.7718 37.193L60.073 26.212C58.0598 26.9052 55.9421 27.2698 53.806 27.2909C50.9774 27.3121 48.201 26.5519 45.801 25.0992L42.3268 36.7076ZM38.3736 35.5988C38.2852 35.5989 38.1986 35.5743 38.1242 35.528C35.9718 34.2789 33.4877 33.6731 30.9825 33.7862L30.4347 33.7849C28.2975 33.6622 26.1561 33.9453 24.1305 34.6183C24.0506 34.6474 23.9638 34.6545 23.88 34.6388C23.7961 34.6232 23.7183 34.5853 23.6552 34.5295C23.592 34.4736 23.546 34.402 23.5222 34.3224C23.4984 34.2427 23.4978 34.1583 23.5203 34.0783L27.1221 21.2881C27.1411 21.2209 27.1758 21.1587 27.2236 21.1067C27.2715 21.0546 27.3311 21.014 27.3978 20.9881C29.6815 20.0374 32.1239 19.4963 34.6065 19.3912C35.7028 19.3877 36.7959 19.5053 37.8648 19.7418C39.4419 20.23 40.9579 20.8875 42.3848 21.702C42.4745 21.7517 42.5446 21.8292 42.5838 21.922C42.623 22.0148 42.6291 22.1177 42.6012 22.2142L38.82 35.2707C38.7927 35.3652 38.7343 35.4484 38.6537 35.5076C38.5731 35.5669 38.4747 35.5989 38.3736 35.5988V35.5988ZM29.8855 32.8834C30.072 32.8834 30.2564 32.884 30.4387 32.8852L30.9788 32.8865C33.4512 32.7928 35.9052 33.3356 38.0915 34.4597L41.6097 22.3113C40.3565 21.6064 39.0269 21.0378 37.6452 20.616C36.6511 20.3967 35.6345 20.2876 34.6151 20.2909C32.3243 20.3884 30.0695 20.8796 27.9556 21.7415L24.6443 33.5002C26.349 33.0374 28.1163 32.8294 29.8855 32.8834V32.8834Z" fill="white"/>
<path d="M54.1658 62.9429H53.3129C53.057 62.9491 52.8071 62.8668 52.6081 62.7105C52.4091 62.5543 52.2739 62.3343 52.2268 62.0902L52.1191 61.5063C51.6134 61.3698 51.1276 61.1714 50.6735 60.9159L50.1977 61.237C49.9878 61.3874 49.7288 61.4588 49.4688 61.4382C49.2088 61.4175 48.9653 61.3061 48.7834 61.1246L48.2148 60.5728C48.0268 60.3938 47.9124 60.1545 47.8929 59.8996C47.8734 59.6447 47.9502 59.3916 48.1088 59.1876L48.4267 58.7448C48.1577 58.3044 47.9529 57.83 47.8182 57.335L47.2292 57.2331C46.9784 57.1838 46.7529 57.0516 46.5911 56.8591C46.4294 56.6667 46.3413 56.4258 46.3419 56.1775V55.3801C46.3355 55.1318 46.4204 54.8893 46.5814 54.6962C46.7424 54.5031 46.969 54.3719 47.2206 54.3262L47.8223 54.2216C47.9632 53.731 48.1674 53.2597 48.4303 52.8189L48.0994 52.3572C47.9447 52.1533 47.8713 51.9021 47.8927 51.6498C47.9141 51.3976 48.0288 51.1613 48.2157 50.9848L48.4833 50.6957L48.8337 50.3864C49.0182 50.2092 49.2627 50.1027 49.5218 50.0867C49.7809 50.0707 50.0373 50.1463 50.2435 50.2994L50.6998 50.6074C51.1513 50.3454 51.6418 50.1528 52.1539 50.0363L52.2572 49.4766C52.3083 49.2332 52.4446 49.0145 52.6429 48.8575C52.8413 48.7006 53.0896 48.6151 53.3455 48.6156H54.1985C54.4543 48.6094 54.7041 48.6917 54.9032 48.8479C55.1022 49.004 55.2376 49.2238 55.285 49.4678L55.3923 50.0521C55.898 50.1887 56.3839 50.387 56.8383 50.6421L57.3141 50.321C57.5241 50.1708 57.7831 50.0995 58.0431 50.1203C58.3032 50.1412 58.5466 50.2527 58.7284 50.4343L59.2966 50.9857C59.4846 51.1646 59.5991 51.404 59.6186 51.6589C59.6381 51.9138 59.5613 52.1669 59.4025 52.3708L59.0847 52.8145C59.3502 53.2555 59.5539 53.7289 59.6904 54.2221L60.2821 54.3249L60.3016 54.3289C60.556 54.3788 60.7822 54.5186 60.9364 54.7212C61.0906 54.9238 61.1617 55.1748 61.136 55.4254L61.1382 56.1784C61.1447 56.4267 61.0598 56.6691 60.8988 56.8623C60.7377 57.0554 60.5111 57.1866 60.2595 57.2323L59.6578 57.3368C59.5172 57.8276 59.3127 58.299 59.0494 58.7396L59.3803 59.2013C59.5349 59.405 59.6083 59.6562 59.587 59.9083C59.5657 60.1605 59.4511 60.3967 59.2644 60.5733L58.6958 61.125C58.5115 61.3078 58.2649 61.4191 58.0022 61.4381C57.7394 61.4571 57.4785 61.3825 57.2684 61.2283L56.8106 60.9199C56.3561 61.1776 55.8681 61.3753 55.3597 61.5077L55.2542 62.0814C55.2031 62.3249 55.0668 62.5436 54.8685 62.7007C54.6701 62.8577 54.4218 62.9433 54.1658 62.9429ZM50.6595 59.9274C50.751 59.9273 50.8405 59.9537 50.9166 60.003C51.4405 60.3342 52.0208 60.5724 52.6306 60.7064C52.7185 60.7266 52.7983 60.7713 52.8603 60.835C52.9223 60.8987 52.9638 60.9786 52.9797 61.0648L53.1377 61.9233C53.1431 61.9496 53.1626 62.0432 53.3129 62.0432H54.1658C54.2075 62.0435 54.2481 62.0299 54.2807 62.0047C54.3133 61.9796 54.3361 61.9443 54.3451 61.9048L54.4995 61.0653C54.5154 60.979 54.5568 60.8991 54.6189 60.8355C54.6809 60.7718 54.7607 60.727 54.8485 60.7068C55.4566 60.5811 56.0347 60.3448 56.5522 60.0105C56.6299 59.957 56.7228 59.9282 56.8181 59.9279C56.9133 59.9276 57.0064 59.9558 57.0845 60.0087L57.8112 60.4994C57.8436 60.5263 57.8853 60.5402 57.9279 60.5382C57.9704 60.5362 58.0106 60.5186 58.0403 60.4889L58.6089 59.9371C58.6379 59.9106 58.6559 59.8747 58.6596 59.8362C58.6632 59.7977 58.6523 59.7592 58.6288 59.728L58.114 59.0101C58.0608 58.936 58.0318 58.848 58.0309 58.7577C58.0299 58.6673 58.057 58.5788 58.1086 58.5036C58.4498 57.9952 58.6952 57.432 58.8334 56.8403C58.8543 56.7551 58.9004 56.6776 58.966 56.6175C59.0316 56.5573 59.1139 56.517 59.2028 56.5016L60.0874 56.3483C60.1146 56.343 60.211 56.3242 60.211 56.1783V55.3809C60.2183 55.3444 60.2115 55.3066 60.1919 55.2747C60.1722 55.2428 60.1412 55.219 60.1047 55.2078L59.2345 55.0571C59.1456 55.0417 59.0633 55.0015 58.9977 54.9413C58.9321 54.8811 58.886 54.8037 58.8651 54.7184C58.734 54.1287 58.4906 53.5679 58.1475 53.0648C58.0927 52.9894 58.0631 52.8994 58.0627 52.807C58.0624 52.7147 58.0914 52.6245 58.1457 52.5487L58.6509 51.8436C58.6783 51.8121 58.6925 51.7719 58.6907 51.7307C58.6888 51.6896 58.6711 51.6507 58.641 51.6217L58.0723 51.0699C58.0451 51.0418 58.0082 51.0243 57.9687 51.0207C57.9291 51.017 57.8895 51.0275 57.8573 51.0502L57.1171 51.5501C57.0406 51.6016 56.95 51.6296 56.8569 51.6305C56.7638 51.6313 56.6726 51.605 56.5951 51.555C56.071 51.2241 55.4905 50.9861 54.8806 50.8521C54.7928 50.8319 54.7129 50.7872 54.6509 50.7235C54.5888 50.6598 54.5474 50.5799 54.5316 50.4936L54.3741 49.6352C54.3686 49.6092 54.3492 49.5152 54.1984 49.5152H53.3455C53.3037 49.5149 53.2631 49.5285 53.2304 49.5536C53.1977 49.5788 53.1749 49.6141 53.1657 49.6536L53.0118 50.4931C52.9952 50.5835 52.9506 50.6667 52.8838 50.7316C52.817 50.7966 52.7314 50.8401 52.6383 50.8565C52.0356 50.9549 51.4624 51.1804 50.9592 51.5172C50.8814 51.5706 50.7886 51.5995 50.6933 51.5998C50.598 51.6001 50.5049 51.5719 50.4268 51.519L49.7002 51.0283C49.6677 51.0021 49.6263 50.9887 49.5841 50.9905C49.5419 50.9924 49.502 51.0095 49.472 51.0384L48.888 51.6038C48.8533 51.6299 48.8301 51.6679 48.8233 51.71C48.8164 51.7521 48.8262 51.7952 48.8509 51.8304L49.3661 52.5483C49.4192 52.6225 49.448 52.7105 49.4489 52.8008C49.4498 52.8911 49.4227 52.9796 49.3711 53.0548C49.0302 53.5633 48.785 54.1265 48.6467 54.7181C48.6259 54.8033 48.5798 54.8808 48.5142 54.941C48.4485 55.0011 48.3662 55.0414 48.2773 55.0568L47.3927 55.2101C47.3655 55.2154 47.2691 55.2343 47.2691 55.3802V56.1775C47.2686 56.2178 47.2824 56.2571 47.3082 56.2887C47.334 56.3203 47.3703 56.3423 47.4108 56.351L48.2769 56.5008C48.3665 56.5164 48.4495 56.5572 48.5155 56.6182C48.5814 56.6793 48.6274 56.7577 48.6476 56.8439C48.7731 57.4339 49.0166 57.9942 49.3644 58.4931C49.4192 58.5687 49.4488 58.6588 49.4491 58.7512C49.4493 58.8437 49.4202 58.9339 49.3657 59.0098L48.86 59.7149C48.8324 59.7463 48.8182 59.7868 48.8202 59.8281C48.8222 59.8694 48.8403 59.9084 48.8709 59.9371L49.4391 60.4885C49.4663 60.517 49.5035 60.5348 49.5434 60.5383C49.5834 60.5419 49.6233 60.531 49.6555 60.5078L50.3947 60.0083C50.4723 59.9556 50.5648 59.9274 50.6595 59.9274Z" fill="white"/>
<path d="M53.7556 58.6816C53.164 58.6816 52.5858 58.5113 52.094 58.1924C51.6021 57.8734 51.2188 57.4201 50.9925 56.8897C50.7661 56.3594 50.707 55.7758 50.8224 55.2128C50.9379 54.6499 51.2228 54.1327 51.6411 53.7269C52.0594 53.321 52.5923 53.0446 53.1725 52.9327C53.7527 52.8207 54.3541 52.8783 54.9006 53.098C55.4471 53.3177 55.9142 53.6897 56.2428 54.167C56.5714 54.6443 56.7468 55.2055 56.7467 55.7795C56.7493 56.1613 56.6737 56.5399 56.5242 56.8931C56.3748 57.2464 56.1546 57.5673 55.8763 57.8373C55.598 58.1073 55.2673 58.321 54.9032 58.4659C54.5392 58.6108 54.1491 58.6842 53.7556 58.6816ZM53.756 53.7767C53.3479 53.7766 52.9488 53.894 52.6094 54.1141C52.27 54.3341 52.0055 54.6468 51.8492 55.0127C51.693 55.3786 51.6521 55.7813 51.7317 56.1698C51.8113 56.5582 52.0078 56.9151 52.2964 57.1952C52.5849 57.4753 52.9526 57.6661 53.353 57.7434C53.7533 57.8207 54.1682 57.7811 54.5453 57.6295C54.9225 57.478 55.2448 57.2214 55.4716 56.8921C55.6984 56.5628 55.8195 56.1756 55.8195 55.7795C55.819 55.2486 55.6014 54.7395 55.2146 54.364C54.8277 53.9885 54.3032 53.7773 53.756 53.7766V53.7767Z" fill="white"/>
</svg>
