<svg width="25" height="15" viewBox="0 0 25 15" fill="none" xmlns="http://www.w3.org/2000/svg">
<path d="M9.42171 7.466C10.1537 7.67 10.7297 8.042 11.1497 8.582C11.5697 9.11 11.7797 9.782 11.7797 10.598C11.7797 11.69 11.3657 12.53 10.5377 13.118C9.72171 13.706 8.52771 14 6.95571 14H0.943711V1.4H6.59571C8.03571 1.4 9.14571 1.688 9.92571 2.264C10.7177 2.84 11.1137 3.638 11.1137 4.658C11.1137 5.318 10.9577 5.888 10.6457 6.368C10.3457 6.848 9.93771 7.214 9.42171 7.466ZM2.74371 2.858V6.89H6.43371C7.35771 6.89 8.06571 6.722 8.55771 6.386C9.06171 6.038 9.31371 5.534 9.31371 4.874C9.31371 4.214 9.06171 3.716 8.55771 3.38C8.06571 3.032 7.35771 2.858 6.43371 2.858H2.74371ZM6.88371 12.542C7.90371 12.542 8.67171 12.374 9.18771 12.038C9.70371 11.702 9.96171 11.174 9.96171 10.454C9.96171 9.05 8.93571 8.348 6.88371 8.348H2.74371V12.542H6.88371ZM19.3728 4.37C20.2968 4.37 21.1248 4.574 21.8568 4.982C22.5888 5.39 23.1588 5.96 23.5668 6.692C23.9868 7.424 24.1968 8.27 24.1968 9.23C24.1968 10.19 23.9868 11.042 23.5668 11.786C23.1588 12.518 22.5888 13.088 21.8568 13.496C21.1248 13.904 20.2968 14.108 19.3728 14.108C18.6648 14.108 18.0168 13.97 17.4288 13.694C16.8408 13.418 16.3548 13.016 15.9708 12.488V14H14.3148V0.643999H16.0428V5.9C16.4268 5.396 16.9068 5.018 17.4828 4.766C18.0588 4.502 18.6888 4.37 19.3728 4.37ZM19.2288 12.596C19.8408 12.596 20.3868 12.458 20.8668 12.182C21.3588 11.894 21.7428 11.498 22.0188 10.994C22.3068 10.478 22.4508 9.89 22.4508 9.23C22.4508 8.57 22.3068 7.988 22.0188 7.484C21.7428 6.968 21.3588 6.572 20.8668 6.296C20.3868 6.02 19.8408 5.882 19.2288 5.882C18.6288 5.882 18.0828 6.02 17.5908 6.296C17.0988 6.572 16.7148 6.968 16.4388 7.484C16.1628 7.988 16.0248 8.57 16.0248 9.23C16.0248 9.89 16.1628 10.478 16.4388 10.994C16.7148 11.498 17.0988 11.894 17.5908 12.182C18.0828 12.458 18.6288 12.596 19.2288 12.596Z" fill="#8C6EC7"/>
</svg>
