<svg width="70" height="59" viewBox="0 0 70 59" fill="none" xmlns="http://www.w3.org/2000/svg">
<path fill-rule="evenodd" clip-rule="evenodd" d="M66.6851 21.7775L66.6079 19.538V19.3835V19.2291V14.3639C66.6079 12.6649 65.2178 11.3521 63.5961 11.3521H62.9011V8.03141C62.9011 6.33246 61.511 5.01963 59.8893 5.01963H59.1943V3.01178C59.1943 1.31283 57.8042 0 56.1825 0H45.6799C43.9809 0 42.6681 1.39005 42.6681 3.01178V5.17408H7.22175C5.52279 5.17408 4.20997 6.56414 4.20997 8.18586V21.7003H3.51494C1.73876 21.7003 0.271484 23.1675 0.271484 24.9437V55.7565C0.271484 57.5327 1.73876 59 3.51494 59H66.6851C68.4613 59 69.9286 57.5327 69.9286 55.7565V24.9437C69.9286 23.1675 68.4613 21.7775 66.6851 21.7775ZM64.3683 14.3639V19.1518V19.3063V19.538V21.7775H14.0176V19.538C14.0176 19.1518 14.3265 18.8429 14.7126 18.8429H51.3173C51.9351 18.8429 52.4757 18.3024 52.4757 17.6846V14.3639C52.4757 13.9777 52.7846 13.6688 53.1707 13.6688H63.5189C63.9822 13.5916 64.3683 13.9005 64.3683 14.3639ZM60.5843 11.2749V8.03141C60.5843 7.64529 60.2754 7.33639 59.8121 7.33639H49.4639C49.0778 7.33639 48.7689 7.64529 48.7689 8.03141V11.3521C48.7689 11.9699 48.2283 12.5105 47.6105 12.5105H11.0058C10.6197 12.5105 10.3108 12.8194 10.3108 13.2055V21.7003H11.778V19.4607C11.778 17.839 13.0909 16.449 14.7898 16.449H50.2361V14.2866C50.2361 12.6649 51.549 11.2749 53.2479 11.2749H60.5843ZM6.52672 8.18586C6.52672 7.79974 6.83562 7.49084 7.22175 7.49084H43.8265C44.4443 7.49084 44.9848 6.95026 44.9848 6.33246V3.01178C44.9848 2.62565 45.2937 2.31675 45.6799 2.31675H56.1053C56.4914 2.31675 56.8003 2.62565 56.8003 3.01178V5.01963H49.4639C47.7649 5.01963 46.4521 6.40969 46.4521 8.03141V10.1937H11.0058C9.30682 10.1937 7.994 11.5838 7.994 13.2055V21.7003H6.52672V8.18586ZM66.6851 56.7605C67.2257 56.7605 67.6118 56.3743 67.6118 55.8338V24.9437C67.6118 24.4031 67.2257 24.017 66.6851 24.017H3.51494C2.97436 24.017 2.58824 24.4031 2.58824 24.9437V55.8338C2.58824 56.3743 2.97436 56.7605 3.51494 56.7605H66.6851Z" fill="url(#paint0_linear)"/>
<defs>
<linearGradient id="paint0_linear" x1="264.86" y1="26.915" x2="80.1507" y2="-195.699" gradientUnits="userSpaceOnUse">
<stop stop-color="#F7618B"/>
<stop offset="1" stop-color="#2A7AFF"/>
</linearGradient>
</defs>
</svg>
